<?xml version="1.0" encoding="UTF-8" standalone="no"?><!-- Generator: Gravit.io --><svg xmlns="http://www.w3.org/2000/svg" xmlns:xlink="http://www.w3.org/1999/xlink" style="isolation:isolate" viewBox="565.013 551.975 39.727 27.331" width="39.727pt" height="27.331pt"><path d=" M 575.445 574.325 L 575.435 577.006 C 574.784 576.988 572.891 577.006 572.408 577.006 L 572.408 577.006 L 572.408 577.006 Q 570.601 577.006 568.548 577.081 L 568.548 577.081 L 569.333 578.8 L 567.145 578.896 L 565.227 575.588 L 565.227 574.256 L 565.227 574.256 Q 569.849 574.374 572.408 574.374 L 572.408 574.374 L 572.408 574.374 Q 574.471 574.35 575.445 574.325 L 575.445 574.325 Z " fill="rgb(255,255,255)"/><path d=" M 604.74 552.896 L 602.232 557.836 L 587.12 557.836 L 584.232 562.612 L 600.344 562.612 L 597.836 567.59 L 583.384 567.59 L 583.384 579.306 L 578.444 579.306 L 578.444 561.446 L 583.384 552.896 L 604.74 552.896 Z " fill="rgb(255,255,255)"/><path d=" M 585.922 579.132 L 585.922 579.132 L 585.922 579.132 Z  M 588.482 579.132 L 585.922 579.132 L 585.922 569.792 L 588.482 569.792 L 588.482 579.132 Z  M 589.286 579.132 L 589.286 579.132 L 589.286 579.132 Z  M 598.542 569.792 L 597.774 572.352 L 595.098 572.352 L 595.098 579.132 L 592.526 579.132 L 592.526 572.352 L 590.078 572.352 L 590.078 569.792 L 598.542 569.792 Z " fill="rgb(255,255,255)"/><path d=" M 565.013 556.913 C 565.013 554.187 567.35 551.975 570.229 551.975 C 573.108 551.975 575.445 554.187 575.445 556.913 C 575.445 559.638 573.108 561.85 570.229 561.85 C 567.35 561.85 565.013 559.638 565.013 556.913 Z  M 567.742 556.913 C 567.742 555.613 568.856 554.559 570.229 554.559 C 571.601 554.559 572.715 555.613 572.715 556.913 C 572.715 558.212 571.601 559.266 570.229 559.266 C 568.856 559.266 567.742 558.212 567.742 556.913 Z " fill-rule="evenodd" fill="rgb(255,255,255)"/><path d=" M 565.013 567.689 C 565.013 564.964 567.35 562.752 570.229 562.752 C 573.108 562.752 575.445 564.964 575.445 567.689 C 575.445 570.415 573.108 572.627 570.229 572.627 C 567.35 572.627 565.013 570.415 565.013 567.689 Z  M 567.742 567.689 C 567.742 566.39 568.856 565.336 570.229 565.336 C 571.601 565.336 572.715 566.39 572.715 567.689 C 572.715 568.988 571.601 570.043 570.229 570.043 C 568.856 570.043 567.742 568.988 567.742 567.689 Z " fill-rule="evenodd" fill="rgb(255,255,255)"/><polygon points="578.199,555.934,576.445,552.896,579.952,552.896" fill="rgb(255,255,255)"/></svg>