<?xml version="1.0" encoding="UTF-8" standalone="no"?><!-- Generator: Gravit.io --><svg xmlns="http://www.w3.org/2000/svg" xmlns:xlink="http://www.w3.org/1999/xlink" style="isolation:isolate" viewBox="651.355 370.26 183.291 156.48" width="183.291pt" height="156.48pt"><path d=" M 825.035 448.5 L 825.035 448.5 L 825.035 448.5 L 829.137 444.162 L 829.137 444.162 C 836.481 436.395 836.481 423.758 829.137 415.992 L 791.54 376.235 C 787.896 372.382 783.03 370.26 777.839 370.261 C 772.648 370.262 767.782 372.384 764.14 376.237 L 760.421 380.17 L 760.421 380.17 L 760.421 380.17 L 756.701 376.236 C 753.058 372.383 748.192 370.26 743.001 370.26 C 737.81 370.26 732.944 372.382 729.301 376.235 L 725.577 380.173 L 721.849 376.232 C 718.205 372.381 713.341 370.26 708.15 370.26 C 708.149 370.26 708.148 370.26 708.148 370.26 C 702.957 370.261 698.091 372.383 694.449 376.236 L 656.862 415.991 C 649.519 423.758 649.52 436.395 656.863 444.16 L 660.967 448.499 L 660.967 448.499 L 660.967 448.499 L 656.863 452.839 C 649.519 460.605 649.518 473.241 656.862 481.009 L 694.448 520.763 C 698.092 524.617 702.957 526.74 708.148 526.74 C 708.149 526.74 708.149 526.74 708.15 526.74 C 713.34 526.74 718.205 524.619 721.848 520.767 L 725.576 516.826 L 729.3 520.765 C 732.944 524.618 737.809 526.74 743 526.74 C 748.191 526.74 753.057 524.618 756.7 520.765 L 760.42 516.831 L 764.139 520.764 C 767.782 524.617 772.647 526.739 777.839 526.739 C 777.839 526.739 777.839 526.739 777.84 526.739 C 783.03 526.739 787.896 524.618 791.539 520.765 L 829.136 481.009 C 836.48 473.242 836.48 460.605 829.136 452.838 L 825.035 448.5 Z  M 722.829 499.367 L 677.478 451.406 C 675.962 449.802 675.962 447.198 677.478 445.594 L 722.828 397.634 C 724.345 396.03 727.369 394.728 729.576 394.728 L 756.419 394.728 C 758.627 394.728 761.651 396.03 763.168 397.634 L 808.522 445.595 C 810.039 447.199 810.039 449.803 808.522 451.407 L 763.169 499.371 C 761.653 500.975 758.629 502.277 756.421 502.277 L 729.577 502.273 C 727.37 502.273 724.346 500.971 722.829 499.367 Z  M 771.405 383.107 C 773.14 381.272 775.426 380.261 777.84 380.261 C 780.254 380.261 782.539 381.271 784.275 383.106 L 821.872 422.862 C 825.634 426.84 825.634 433.313 821.872 437.291 L 821.872 437.291 L 818.154 441.223 L 767.303 387.447 L 771.405 383.107 Z  M 736.566 383.106 C 738.302 381.271 740.587 380.26 743.001 380.26 C 745.415 380.26 747.7 381.271 749.436 383.105 L 753.54 387.446 L 732.46 387.45 L 736.566 383.106 Z  M 664.129 437.289 C 660.367 433.311 660.367 426.839 664.128 422.861 L 701.715 383.106 C 703.45 381.271 705.735 380.26 708.149 380.26 C 710.563 380.26 712.848 381.27 714.583 383.105 L 718.695 387.452 L 667.849 441.222 L 664.129 437.289 Z  M 708.15 516.74 L 708.15 516.74 C 705.735 516.74 703.45 515.729 701.714 513.893 L 664.128 474.139 C 660.366 470.16 660.366 463.688 664.128 459.71 L 667.847 455.777 L 718.694 509.549 L 714.582 513.896 C 712.849 515.73 710.564 516.74 708.15 516.74 Z  M 743.001 516.74 C 740.587 516.74 738.302 515.729 736.566 513.894 L 732.459 509.549 L 753.541 509.553 L 749.436 513.894 C 747.7 515.729 745.415 516.74 743.001 516.74 Z  M 821.871 474.138 L 784.274 513.894 C 782.539 515.729 780.253 516.739 777.839 516.739 C 775.425 516.739 773.14 515.728 771.405 513.894 L 767.302 509.553 L 818.153 455.777 L 821.871 459.709 C 825.633 463.687 825.633 470.161 821.871 474.138 Z " fill="rgb(0,0,0)"/><g><path d=" M 763.053 417.786 C 764.794 417.678 766.524 417.984 768.166 418.717 C 770.362 419.696 771.926 421.319 772.923 423.501 C 773.885 425.607 774.177 427.825 774.082 430.12 C 774.012 431.811 773.707 433.445 773.021 434.992 C 771.654 438.075 769.301 439.954 766 440.62 C 763.828 441.058 761.638 441.038 759.491 440.522 C 756.053 439.695 753.764 437.537 752.592 434.213 C 751.766 431.87 751.655 429.456 751.994 427.008 C 752.206 425.476 752.645 424.018 753.417 422.677 C 754.89 420.117 757.114 418.606 759.989 418.003 C 760.985 417.794 761.986 417.752 763.053 417.786 L 763.053 417.786 Z  M 767.776 428.791 C 767.765 428.056 767.706 426.764 767.319 425.515 C 766.862 424.038 765.902 423.104 764.364 422.783 C 763.425 422.586 762.494 422.614 761.56 422.793 C 760.306 423.033 759.373 423.712 758.859 424.886 C 758.629 425.411 758.453 425.977 758.359 426.542 C 758.122 427.972 758.039 429.418 758.216 430.861 C 758.313 431.65 758.427 432.448 758.649 433.207 C 759.034 434.528 759.908 435.433 761.26 435.792 C 762.196 436.04 763.146 436.076 764.114 435.911 C 765.759 435.629 766.83 434.723 767.32 433.129 C 767.699 431.898 767.789 430.631 767.775 428.792 L 767.776 428.791 Z " fill="rgb(0,0,0)"/><path d=" M 740.34 417.788 C 741.994 417.681 743.636 417.952 745.204 418.601 C 747.685 419.63 749.394 421.434 750.408 423.912 C 751.446 426.447 751.602 429.074 751.231 431.757 C 751.005 433.387 750.511 434.928 749.638 436.325 C 748.105 438.776 745.857 440.169 743.038 440.676 C 741.539 440.945 740.032 440.938 738.519 440.806 C 736.569 440.635 734.805 440.012 733.218 438.848 C 731.709 437.741 730.699 436.282 730.027 434.565 C 729.303 432.711 729.077 430.778 729.137 428.801 C 729.19 427.054 729.5 425.363 730.195 423.753 C 731.557 420.602 733.946 418.719 737.289 418.005 C 738.284 417.792 739.285 417.746 740.34 417.788 L 740.34 417.788 Z  M 735.458 429.539 C 735.458 429.71 735.449 429.882 735.459 430.053 C 735.525 431.193 735.609 432.329 736.016 433.414 C 736.518 434.752 737.465 435.574 738.861 435.862 C 739.637 436.022 740.417 436.06 741.212 435.946 C 743.072 435.681 744.244 434.712 744.687 432.891 C 744.893 432.048 744.983 431.17 745.056 430.302 C 745.186 428.757 745.079 427.218 744.686 425.717 C 744.293 424.216 743.387 423.178 741.822 422.818 C 741.037 422.638 740.242 422.611 739.44 422.693 C 737.545 422.886 736.353 423.882 735.85 425.723 C 735.509 426.972 735.44 428.252 735.458 429.539 L 735.458 429.539 Z " fill="rgb(0,0,0)"/><path d=" M 728.828 440.38 L 713.651 440.38 C 713.643 440.315 713.631 440.261 713.631 440.208 C 713.632 438.818 713.639 437.429 713.631 436.04 C 713.63 435.816 713.687 435.751 713.918 435.753 C 715.374 435.763 716.83 435.753 718.287 435.76 C 718.495 435.761 718.541 435.69 718.541 435.495 C 718.535 431.441 718.535 427.386 718.534 423.332 C 718.534 423.193 718.534 423.053 718.534 422.874 L 714.098 422.874 L 714.098 418.251 C 714.185 418.245 714.267 418.234 714.349 418.234 C 716.1 418.233 717.852 418.205 719.602 418.243 C 720.973 418.273 722.258 418.616 723.281 419.613 C 724.149 420.459 724.518 421.521 724.519 422.705 C 724.523 426.873 724.507 431.041 724.501 435.209 C 724.5 435.76 724.505 435.76 725.054 435.76 C 726.205 435.76 727.357 435.765 728.508 435.755 C 728.736 435.753 728.819 435.804 728.819 436.053 C 728.815 437.405 728.831 438.756 728.839 440.107 C 728.84 440.191 728.832 440.275 728.828 440.38 L 728.828 440.38 Z " fill="rgb(0,0,0)"/></g><g><path d=" M 715.448 456.102 L 728.876 456.102 L 728.876 459.703 L 720.004 459.703 L 720.004 463.077 L 727.98 463.077 L 727.98 466.369 L 720.003 466.369 L 720.003 472.953 L 715.448 472.953 L 715.448 456.102 Z " fill="rgb(0,0,0)"/><path d=" M 756.846 456.143 C 756.946 456.143 757.024 456.143 757.102 456.143 C 758.634 456.143 760.166 456.147 761.698 456.137 C 761.935 456.136 762.051 456.191 762.152 456.43 C 762.879 458.135 763.639 459.826 764.369 461.53 C 764.76 462.443 765.113 463.373 765.472 464.269 C 765.627 463.866 765.782 463.419 765.97 462.987 C 766.694 461.328 767.427 459.673 768.158 458.017 C 768.409 457.449 768.667 456.885 768.918 456.318 C 768.97 456.201 769.035 456.139 769.177 456.14 C 770.774 456.144 772.371 456.143 773.968 456.143 C 774.003 456.143 774.039 456.149 774.099 456.155 C 774.073 456.215 774.056 456.266 774.032 456.313 C 772.481 459.264 770.93 462.215 769.378 465.165 C 768.908 466.059 768.426 466.947 767.965 467.846 C 767.877 468.018 767.826 468.228 767.825 468.421 C 767.814 469.859 767.821 471.297 767.822 472.735 C 767.822 472.8 767.822 472.864 767.822 472.948 L 763.223 472.948 L 763.223 472.725 C 763.223 471.294 763.225 469.863 763.219 468.432 C 763.219 468.307 763.197 468.168 763.139 468.06 C 761.522 464.997 759.899 461.937 758.276 458.877 C 757.81 457.998 757.34 457.12 756.872 456.241 C 756.863 456.223 756.861 456.201 756.846 456.143 L 756.846 456.143 Z " fill="rgb(0,0,0)"/><path d=" M 737.488 469.393 L 740.406 469.393 L 740.406 473 L 729.954 473 L 729.954 469.414 L 732.902 469.414 L 732.902 459.715 L 729.954 459.715 L 729.954 456.109 L 740.402 456.109 L 740.402 459.709 C 740.255 459.709 740.107 459.709 739.959 459.709 C 739.186 459.709 738.413 459.712 737.64 459.708 C 737.52 459.708 737.454 459.721 737.455 459.868 C 737.46 463.018 737.461 466.168 737.464 469.318 C 737.464 469.332 737.472 469.346 737.488 469.393 L 737.488 469.393 Z " fill="rgb(0,0,0)"/><path d=" M 741.4 456.105 L 756.768 456.105 L 756.768 459.703 L 751.394 459.703 L 751.394 472.952 L 746.812 472.952 L 746.812 459.699 L 741.4 459.699 L 741.4 456.105 L 741.4 456.105 Z " fill="rgb(0,0,0)"/></g><path d=" M 812.135 452.615 L 673.865 452.615 L 673.865 444.846 L 812.135 444.846 L 812.135 452.615 Z " fill="rgb(0,0,0)"/></svg>