<?xml version="1.0" encoding="UTF-8" standalone="no"?><!-- Generator: Gravit.io --><svg xmlns="http://www.w3.org/2000/svg" xmlns:xlink="http://www.w3.org/1999/xlink" style="isolation:isolate" viewBox="651.355 370.26 183.291 156.48" width="183.291pt" height="156.48pt"><path d=" M 825.035 448.5 L 825.035 448.5 L 825.035 448.5 L 829.137 444.162 L 829.137 444.162 C 836.481 436.395 836.481 423.758 829.137 415.992 L 791.54 376.235 C 787.896 372.382 783.03 370.26 777.839 370.261 C 772.648 370.262 767.782 372.384 764.14 376.237 L 760.421 380.17 L 760.421 380.17 L 760.421 380.17 L 756.701 376.236 C 753.058 372.383 748.192 370.26 743.001 370.26 C 737.81 370.26 732.944 372.382 729.301 376.235 L 725.577 380.173 L 721.849 376.232 C 718.205 372.381 713.341 370.26 708.15 370.26 C 708.149 370.26 708.148 370.26 708.148 370.26 C 702.957 370.261 698.091 372.383 694.449 376.236 L 656.862 415.991 C 649.519 423.758 649.52 436.395 656.863 444.16 L 660.967 448.499 L 660.967 448.499 L 660.967 448.499 L 656.863 452.839 C 649.519 460.605 649.518 473.241 656.862 481.009 L 694.448 520.763 C 698.092 524.617 702.957 526.74 708.148 526.74 C 708.149 526.74 708.149 526.74 708.15 526.74 C 713.34 526.74 718.205 524.619 721.848 520.767 L 725.576 516.826 L 729.3 520.765 C 732.944 524.618 737.809 526.74 743 526.74 C 748.191 526.74 753.057 524.618 756.7 520.765 L 760.42 516.831 L 764.139 520.764 C 767.782 524.617 772.647 526.739 777.839 526.739 C 777.839 526.739 777.839 526.739 777.84 526.739 C 783.03 526.739 787.896 524.618 791.539 520.765 L 829.136 481.009 C 836.48 473.242 836.48 460.605 829.136 452.838 L 825.035 448.5 Z  M 722.829 499.367 L 677.478 451.406 C 675.962 449.802 675.962 447.198 677.478 445.594 L 722.828 397.634 C 724.345 396.03 727.369 394.728 729.576 394.728 L 756.419 394.728 C 758.627 394.728 761.651 396.03 763.168 397.634 L 808.522 445.595 C 810.039 447.199 810.039 449.803 808.522 451.407 L 763.169 499.371 C 761.653 500.975 758.629 502.277 756.421 502.277 L 729.577 502.273 C 727.37 502.273 724.346 500.971 722.829 499.367 Z  M 771.405 383.107 C 773.14 381.272 775.426 380.261 777.84 380.261 C 780.254 380.261 782.539 381.271 784.275 383.106 L 821.872 422.862 C 825.634 426.84 825.634 433.313 821.872 437.291 L 821.872 437.291 L 818.154 441.223 L 767.303 387.447 L 771.405 383.107 Z  M 736.566 383.106 C 738.302 381.271 740.587 380.26 743.001 380.26 C 745.415 380.26 747.7 381.271 749.436 383.105 L 753.54 387.446 L 732.46 387.45 L 736.566 383.106 Z  M 664.129 437.289 C 660.367 433.311 660.367 426.839 664.128 422.861 L 701.715 383.106 C 703.45 381.271 705.735 380.26 708.149 380.26 C 710.563 380.26 712.848 381.27 714.583 383.105 L 718.695 387.452 L 667.849 441.222 L 664.129 437.289 Z  M 708.15 516.74 L 708.15 516.74 C 705.735 516.74 703.45 515.729 701.714 513.893 L 664.128 474.139 C 660.366 470.16 660.366 463.688 664.128 459.71 L 667.847 455.777 L 718.694 509.549 L 714.582 513.896 C 712.849 515.73 710.564 516.74 708.15 516.74 Z  M 743.001 516.74 C 740.587 516.74 738.302 515.729 736.566 513.894 L 732.459 509.549 L 753.541 509.553 L 749.436 513.894 C 747.7 515.729 745.415 516.74 743.001 516.74 Z  M 821.871 474.138 L 784.274 513.894 C 782.539 515.729 780.253 516.739 777.839 516.739 C 775.425 516.739 773.14 515.728 771.405 513.894 L 767.302 509.553 L 818.153 455.777 L 821.871 459.709 C 825.633 463.687 825.633 470.161 821.871 474.138 Z " fill="rgb(255,255,255)"/><g><path d=" M 772.038 431.004 C 774.673 430.84 777.29 431.304 779.775 432.412 C 783.099 433.895 785.465 436.35 786.974 439.652 C 788.43 442.84 788.872 446.196 788.728 449.669 C 788.622 452.228 788.161 454.7 787.123 457.042 C 785.055 461.707 781.493 464.55 776.498 465.558 C 773.211 466.222 769.897 466.192 766.647 465.41 C 761.445 464.16 757.98 460.893 756.207 455.863 C 754.957 452.317 754.789 448.664 755.302 444.96 C 755.623 442.641 756.288 440.435 757.456 438.405 C 759.684 434.532 763.05 432.245 767.401 431.332 C 768.909 431.015 770.424 430.952 772.039 431.003 L 772.038 431.004 Z  M 779.185 447.659 C 779.168 446.545 779.079 444.59 778.494 442.7 C 777.803 440.465 776.349 439.051 774.021 438.565 C 772.6 438.268 771.191 438.311 769.779 438.581 C 767.881 438.944 766.469 439.972 765.691 441.748 C 765.343 442.543 765.076 443.399 764.934 444.255 C 764.576 446.418 764.449 448.606 764.718 450.791 C 764.865 451.984 765.037 453.191 765.373 454.341 C 765.956 456.34 767.278 457.71 769.325 458.253 C 770.74 458.628 772.179 458.683 773.644 458.432 C 776.133 458.006 777.754 456.634 778.495 454.223 C 779.068 452.36 779.205 450.442 779.184 447.659 L 779.185 447.659 Z " fill="rgb(255,255,255)"/><path d=" M 737.665 431.006 C 740.168 430.844 742.654 431.255 745.026 432.238 C 748.782 433.795 751.367 436.525 752.901 440.274 C 754.472 444.111 754.708 448.085 754.147 452.147 C 753.806 454.614 753.058 456.945 751.736 459.059 C 749.417 462.768 746.015 464.877 741.748 465.643 C 739.48 466.05 737.2 466.041 734.909 465.84 C 731.96 465.582 729.289 464.638 726.888 462.878 C 724.605 461.203 723.075 458.995 722.059 456.395 C 720.963 453.59 720.621 450.665 720.712 447.672 C 720.792 445.029 721.261 442.47 722.313 440.034 C 724.374 435.266 727.989 432.415 733.048 431.335 C 734.554 431.013 736.069 430.943 737.665 431.006 L 737.665 431.006 Z  M 730.277 448.79 C 730.277 449.049 730.265 449.309 730.28 449.568 C 730.379 451.293 730.507 453.013 731.122 454.654 C 731.881 456.679 733.315 457.922 735.427 458.358 C 736.601 458.6 737.782 458.658 738.986 458.486 C 741.8 458.084 743.574 456.619 744.244 453.863 C 744.555 452.586 744.693 451.258 744.803 449.944 C 744.999 447.607 744.838 445.278 744.243 443.006 C 743.648 440.734 742.277 439.164 739.908 438.619 C 738.72 438.346 737.518 438.306 736.304 438.43 C 733.436 438.722 731.633 440.229 730.871 443.015 C 730.354 444.906 730.251 446.843 730.277 448.79 L 730.277 448.79 Z " fill="rgb(255,255,255)"/><path d=" M 720.245 465.195 L 697.277 465.195 C 697.265 465.097 697.246 465.016 697.246 464.935 C 697.248 462.832 697.258 460.73 697.247 458.627 C 697.245 458.289 697.332 458.19 697.681 458.193 C 699.885 458.209 702.088 458.193 704.292 458.204 C 704.607 458.206 704.677 458.098 704.677 457.803 C 704.668 451.667 704.668 445.532 704.667 439.397 C 704.667 439.186 704.667 438.974 704.667 438.703 L 697.953 438.703 L 697.953 431.708 C 698.085 431.699 698.209 431.682 698.333 431.682 C 700.983 431.681 703.634 431.637 706.283 431.695 C 708.358 431.741 710.301 432.26 711.849 433.769 C 713.163 435.049 713.721 436.655 713.723 438.448 C 713.73 444.756 713.705 451.063 713.696 457.371 C 713.694 458.204 713.702 458.204 714.532 458.204 C 716.275 458.204 718.018 458.212 719.76 458.197 C 720.105 458.194 720.231 458.271 720.23 458.648 C 720.224 460.693 720.249 462.738 720.261 464.783 C 720.262 464.91 720.251 465.037 720.244 465.196 L 720.245 465.195 Z " fill="rgb(255,255,255)"/></g></svg>