<?xml version="1.0" encoding="UTF-8" standalone="no"?><!-- Generator: Gravit.io --><svg xmlns="http://www.w3.org/2000/svg" xmlns:xlink="http://www.w3.org/1999/xlink" style="isolation:isolate" viewBox="380.001 319 183.29 156.48" width="183.29pt" height="156.48pt"><g><path d=" M 553.681 397.24 L 553.681 397.24 L 553.681 397.24 L 557.783 392.902 L 557.783 392.902 C 565.127 385.135 565.127 372.498 557.783 364.732 L 520.186 324.975 C 516.542 321.122 511.676 319 506.485 319.001 C 501.294 319.002 496.428 321.124 492.786 324.977 L 489.067 328.91 L 489.067 328.91 L 489.067 328.91 L 485.347 324.976 C 481.704 321.123 476.838 319 471.647 319 C 466.456 319 461.59 321.122 457.947 324.975 L 454.223 328.913 L 450.495 324.972 C 446.851 321.121 441.987 319 436.796 319 C 436.795 319 436.794 319 436.794 319 C 431.603 319.001 426.737 321.123 423.095 324.976 L 385.508 364.731 C 378.165 372.498 378.166 385.135 385.509 392.9 L 389.613 397.239 L 389.613 397.239 L 389.613 397.239 L 457.946 469.505 C 461.59 473.358 466.455 475.48 471.646 475.48 C 476.837 475.48 481.703 473.358 485.346 469.505 L 489.066 465.571 L 553.681 397.24 Z  M 451.475 448.107 L 390.996 380.24 C 389.894 379.004 389.938 377.037 391.093 375.85 L 434.701 331.06 C 435.856 329.873 437.857 329.732 439.167 330.744 L 455.848 343.634 C 457.158 344.646 459.566 345.468 461.222 345.468 L 482.065 345.468 C 483.72 345.468 486.128 344.646 487.438 343.633 L 504.111 330.745 C 505.421 329.732 507.416 329.879 508.564 331.073 L 551.601 375.837 C 552.749 377.031 552.791 379.008 551.696 380.249 L 491.815 448.111 C 490.299 449.715 487.275 451.017 485.067 451.017 L 458.223 451.013 C 456.016 451.013 452.992 449.711 451.475 448.107 Z  M 550.518 371.602 M 465.212 331.846 C 466.948 330.011 469.233 329 471.647 329 C 474.061 329 476.346 330.011 478.082 331.845 L 480.125 334.006 C 481.262 335.209 480.841 336.186 479.186 336.187 L 464.105 336.189 C 462.45 336.19 462.029 335.213 463.166 334.01 L 465.212 331.846 Z  M 396.493 404.517 M 471.647 465.48 C 469.233 465.48 466.948 464.469 465.212 462.634 L 463.165 460.469 C 462.028 459.266 462.449 458.289 464.104 458.29 L 479.187 458.292 C 480.842 458.293 481.263 459.27 480.125 460.473 L 478.082 462.634 C 476.346 464.469 474.061 465.48 471.647 465.48 Z  M 495.948 458.293 L 546.799 404.517 L 495.948 458.293 Z " fill="rgb(0,0,0)"/><g><path d=" M 500.684 368.032 C 503.319 367.868 505.936 368.332 508.421 369.44 C 511.745 370.923 514.111 373.378 515.62 376.68 C 517.076 379.868 517.518 383.224 517.374 386.697 C 517.268 389.256 516.807 391.728 515.769 394.07 C 513.701 398.735 510.139 401.578 505.144 402.586 C 501.857 403.25 498.543 403.22 495.293 402.438 C 490.091 401.188 486.626 397.921 484.853 392.891 C 483.603 389.345 483.435 385.692 483.948 381.988 C 484.269 379.669 484.934 377.463 486.102 375.433 C 488.33 371.56 491.696 369.273 496.047 368.36 C 497.555 368.043 499.07 367.98 500.685 368.031 L 500.684 368.032 Z  M 507.831 384.687 C 507.814 383.573 507.725 381.618 507.14 379.728 C 506.449 377.493 504.995 376.079 502.667 375.593 C 501.246 375.296 499.837 375.339 498.425 375.609 C 496.527 375.972 495.115 377 494.337 378.776 C 493.989 379.571 493.722 380.427 493.58 381.283 C 493.222 383.446 493.095 385.634 493.364 387.819 C 493.511 389.012 493.683 390.219 494.019 391.369 C 494.602 393.368 495.924 394.738 497.971 395.281 C 499.386 395.656 500.825 395.711 502.29 395.46 C 504.779 395.034 506.4 393.662 507.141 391.251 C 507.714 389.388 507.851 387.47 507.83 384.687 L 507.831 384.687 Z " fill="rgb(255,255,255)"/><path d=" M 466.311 368.034 C 468.814 367.872 471.3 368.283 473.672 369.266 C 477.428 370.823 480.013 373.553 481.547 377.302 C 483.118 381.139 483.354 385.113 482.793 389.175 C 482.452 391.642 481.704 393.973 480.382 396.087 C 478.063 399.796 474.661 401.905 470.394 402.671 C 468.126 403.078 465.846 403.069 463.555 402.868 C 460.606 402.61 457.935 401.666 455.534 399.906 C 453.251 398.231 451.721 396.023 450.705 393.423 C 449.609 390.618 449.267 387.693 449.358 384.7 C 449.438 382.057 449.907 379.498 450.959 377.062 C 453.02 372.294 456.635 369.443 461.694 368.363 C 463.2 368.041 464.715 367.971 466.311 368.034 L 466.311 368.034 Z  M 458.923 385.818 C 458.923 386.077 458.911 386.337 458.926 386.596 C 459.025 388.321 459.153 390.041 459.768 391.682 C 460.527 393.707 461.961 394.95 464.073 395.386 C 465.247 395.628 466.428 395.686 467.632 395.514 C 470.446 395.112 472.22 393.647 472.89 390.891 C 473.201 389.614 473.339 388.286 473.449 386.972 C 473.645 384.635 473.484 382.306 472.889 380.034 C 472.294 377.762 470.923 376.192 468.554 375.647 C 467.366 375.374 466.164 375.334 464.95 375.458 C 462.082 375.75 460.279 377.257 459.517 380.043 C 459 381.934 458.897 383.871 458.923 385.818 L 458.923 385.818 Z " fill="rgb(255,255,255)"/><path d=" M 448.891 402.223 L 425.923 402.223 C 425.911 402.125 425.892 402.044 425.892 401.963 C 425.894 399.86 425.904 397.758 425.893 395.655 C 425.891 395.317 425.978 395.218 426.327 395.221 C 428.531 395.237 430.734 395.221 432.938 395.232 C 433.253 395.234 433.323 395.126 433.323 394.831 C 433.314 388.695 433.314 382.56 433.313 376.425 C 433.313 376.214 433.313 376.002 433.313 375.731 L 426.599 375.731 L 426.599 368.736 C 426.731 368.727 426.855 368.71 426.979 368.71 C 429.629 368.709 432.28 368.665 434.929 368.723 C 437.004 368.769 438.947 369.288 440.495 370.797 C 441.809 372.077 442.367 373.683 442.369 375.476 C 442.376 381.784 442.351 388.091 442.342 394.399 C 442.34 395.232 442.348 395.232 443.178 395.232 C 444.921 395.232 446.664 395.24 448.406 395.225 C 448.751 395.222 448.877 395.299 448.876 395.676 C 448.87 397.721 448.895 399.766 448.907 401.811 C 448.908 401.938 448.897 402.065 448.89 402.224 L 448.891 402.223 Z " fill="rgb(255,255,255)"/></g></g></svg>