<?xml version="1.0" encoding="UTF-8" standalone="no"?><!-- Generator: Gravit.io --><svg xmlns="http://www.w3.org/2000/svg" xmlns:xlink="http://www.w3.org/1999/xlink" style="isolation:isolate" viewBox="0 0 183.291 156.48" width="183.291pt" height="156.48pt"><path d=" M 173.68 78.24 L 173.68 78.24 L 173.68 78.24 L 177.782 73.902 L 177.782 73.902 C 185.126 66.135 185.126 53.498 177.782 45.732 L 140.185 5.975 C 136.541 2.122 131.675 0 126.484 0.001 C 121.293 0.002 116.427 2.124 112.785 5.977 L 109.066 9.91 L 109.066 9.91 L 109.066 9.91 L 105.346 5.976 C 101.703 2.123 96.837 0 91.646 0 C 86.455 0 81.589 2.122 77.946 5.975 L 74.222 9.913 L 70.494 5.972 C 66.85 2.121 61.986 0 56.795 0 C 56.794 0 56.793 0 56.793 0 C 51.602 0.001 46.736 2.123 43.094 5.976 L 5.507 45.731 C -1.836 53.498 -1.835 66.135 5.508 73.9 L 9.612 78.239 L 9.612 78.239 L 9.612 78.239 L 5.508 82.579 C -1.836 90.345 -1.837 102.981 5.507 110.749 L 43.093 150.503 C 46.737 154.357 51.602 156.48 56.793 156.48 C 56.794 156.48 56.794 156.48 56.795 156.48 C 61.985 156.48 66.85 154.359 70.493 150.507 L 74.221 146.566 L 77.945 150.505 C 81.589 154.358 86.454 156.48 91.645 156.48 C 96.836 156.48 101.702 154.358 105.345 150.505 L 109.065 146.571 L 112.784 150.504 C 116.427 154.357 121.292 156.479 126.484 156.479 C 126.484 156.479 126.484 156.479 126.485 156.479 C 131.675 156.479 136.541 154.358 140.184 150.505 L 177.781 110.749 C 185.125 102.982 185.125 90.345 177.781 82.578 L 173.68 78.24 Z  M 71.474 129.107 L 26.123 81.146 C 24.607 79.542 24.607 76.938 26.123 75.334 L 71.473 27.374 C 72.99 25.77 76.014 24.468 78.221 24.468 L 105.064 24.468 C 107.272 24.468 110.296 25.77 111.813 27.374 L 157.167 75.335 C 158.684 76.939 158.684 79.543 157.167 81.147 L 111.814 129.111 C 110.298 130.715 107.274 132.017 105.066 132.017 L 78.222 132.013 C 76.015 132.013 72.991 130.711 71.474 129.107 Z  M 120.05 12.847 C 121.785 11.012 124.071 10.001 126.485 10.001 C 128.899 10.001 131.184 11.011 132.92 12.846 L 170.517 52.602 C 174.279 56.58 174.279 63.053 170.517 67.031 L 170.517 67.031 L 166.799 70.963 L 115.948 17.187 L 120.05 12.847 Z  M 85.211 12.846 C 86.947 11.011 89.232 10 91.646 10 C 94.06 10 96.345 11.011 98.081 12.845 L 102.185 17.186 L 81.105 17.19 L 85.211 12.846 Z  M 12.774 67.029 C 9.012 63.051 9.012 56.579 12.773 52.601 L 50.36 12.846 C 52.095 11.011 54.38 10 56.794 10 C 59.208 10 61.493 11.01 63.228 12.845 L 67.34 17.192 L 16.494 70.962 L 12.774 67.029 Z  M 56.795 146.48 L 56.795 146.48 C 54.38 146.48 52.095 145.469 50.359 143.633 L 12.773 103.879 C 9.011 99.9 9.011 93.428 12.773 89.45 L 16.492 85.517 L 67.339 139.289 L 63.227 143.636 C 61.494 145.47 59.209 146.48 56.795 146.48 Z  M 91.646 146.48 C 89.232 146.48 86.947 145.469 85.211 143.634 L 81.104 139.289 L 102.186 139.293 L 98.081 143.634 C 96.345 145.469 94.06 146.48 91.646 146.48 Z  M 170.516 103.878 L 132.919 143.634 C 131.184 145.469 128.898 146.479 126.484 146.479 C 124.07 146.479 121.785 145.468 120.05 143.634 L 115.947 139.293 L 166.798 85.517 L 170.516 89.449 C 174.278 93.427 174.278 99.901 170.516 103.878 Z " fill="rgb(0,0,0)"/><g><path d=" M 120.683 60.744 C 123.318 60.58 125.935 61.044 128.42 62.152 C 131.744 63.635 134.11 66.09 135.619 69.392 C 137.075 72.58 137.517 75.936 137.373 79.409 C 137.267 81.968 136.806 84.44 135.768 86.782 C 133.7 91.447 130.138 94.29 125.143 95.298 C 121.856 95.962 118.542 95.932 115.292 95.15 C 110.09 93.9 106.625 90.633 104.852 85.603 C 103.602 82.057 103.434 78.404 103.947 74.7 C 104.268 72.381 104.933 70.175 106.101 68.145 C 108.329 64.272 111.695 61.985 116.046 61.072 C 117.554 60.755 119.069 60.692 120.684 60.743 L 120.683 60.744 Z  M 127.83 77.399 C 127.813 76.285 127.724 74.33 127.139 72.44 C 126.448 70.205 124.994 68.791 122.666 68.305 C 121.245 68.008 119.836 68.051 118.424 68.321 C 116.526 68.684 115.114 69.712 114.336 71.488 C 113.988 72.283 113.721 73.139 113.579 73.995 C 113.221 76.158 113.094 78.346 113.363 80.531 C 113.51 81.724 113.682 82.931 114.018 84.081 C 114.601 86.08 115.923 87.45 117.97 87.993 C 119.385 88.368 120.824 88.423 122.289 88.172 C 124.778 87.746 126.399 86.374 127.14 83.963 C 127.713 82.1 127.85 80.182 127.829 77.399 L 127.83 77.399 Z " fill="rgb(0,0,0)"/><path d=" M 86.31 60.746 C 88.813 60.584 91.299 60.995 93.671 61.978 C 97.427 63.535 100.012 66.265 101.546 70.014 C 103.117 73.851 103.353 77.825 102.792 81.887 C 102.451 84.354 101.703 86.685 100.381 88.799 C 98.062 92.508 94.66 94.617 90.393 95.383 C 88.125 95.79 85.845 95.781 83.554 95.58 C 80.605 95.322 77.934 94.378 75.533 92.618 C 73.25 90.943 71.72 88.735 70.704 86.135 C 69.608 83.33 69.266 80.405 69.357 77.412 C 69.437 74.769 69.906 72.21 70.958 69.774 C 73.019 65.006 76.634 62.155 81.693 61.075 C 83.199 60.753 84.714 60.683 86.31 60.746 L 86.31 60.746 Z  M 78.922 78.53 C 78.922 78.789 78.91 79.049 78.925 79.308 C 79.024 81.033 79.152 82.753 79.767 84.394 C 80.526 86.419 81.96 87.662 84.072 88.098 C 85.246 88.34 86.427 88.398 87.631 88.226 C 90.445 87.824 92.219 86.359 92.889 83.603 C 93.2 82.326 93.338 80.998 93.448 79.684 C 93.644 77.347 93.483 75.018 92.888 72.746 C 92.293 70.474 90.922 68.904 88.553 68.359 C 87.365 68.086 86.163 68.046 84.949 68.17 C 82.081 68.462 80.278 69.969 79.516 72.755 C 78.999 74.646 78.896 76.583 78.922 78.53 L 78.922 78.53 Z " fill="rgb(0,0,0)"/><path d=" M 68.89 94.935 L 45.922 94.935 C 45.91 94.837 45.891 94.756 45.891 94.675 C 45.893 92.572 45.903 90.47 45.892 88.367 C 45.89 88.029 45.977 87.93 46.326 87.933 C 48.53 87.949 50.733 87.933 52.937 87.944 C 53.252 87.946 53.322 87.838 53.322 87.543 C 53.313 81.407 53.313 75.272 53.312 69.137 C 53.312 68.926 53.312 68.714 53.312 68.443 L 46.598 68.443 L 46.598 61.448 C 46.73 61.439 46.854 61.422 46.978 61.422 C 49.628 61.421 52.279 61.377 54.928 61.435 C 57.003 61.481 58.946 62 60.494 63.509 C 61.808 64.789 62.366 66.395 62.368 68.188 C 62.375 74.496 62.35 80.803 62.341 87.111 C 62.339 87.944 62.347 87.944 63.177 87.944 C 64.92 87.944 66.663 87.952 68.405 87.937 C 68.75 87.934 68.876 88.011 68.875 88.388 C 68.869 90.433 68.894 92.478 68.906 94.523 C 68.907 94.65 68.896 94.777 68.889 94.936 L 68.89 94.935 Z " fill="rgb(0,0,0)"/></g></svg>