<?xml version="1.0" encoding="UTF-8" standalone="no"?><!-- Generator: Gravit.io --><svg xmlns="http://www.w3.org/2000/svg" xmlns:xlink="http://www.w3.org/1999/xlink" style="isolation:isolate" viewBox="567.013 551.975 37.727 27.331" width="37.727pt" height="27.331pt"><path d=" M 577.445 574.325 L 577.435 577.006 C 576.784 576.988 574.891 577.006 574.408 577.006 L 574.408 577.006 L 574.408 577.006 Q 572.601 577.006 570.548 577.081 L 570.548 577.081 L 571.333 578.8 L 569.145 578.896 L 567.227 575.588 L 567.227 574.256 L 567.227 574.256 Q 571.849 574.374 574.408 574.374 L 574.408 574.374 L 574.408 574.374 Q 576.471 574.35 577.445 574.325 L 577.445 574.325 Z " fill="rgb(0,0,0)"/><path d=" M 604.74 552.896 L 602.232 557.836 L 587.12 557.836 L 584.232 562.612 L 600.344 562.612 L 597.836 567.59 L 583.384 567.59 L 583.384 579.306 L 578.444 579.306 L 578.444 561.446 L 583.384 552.896 L 604.74 552.896 Z " fill="rgb(0,0,0)"/><path d=" M 585.922 579.132 L 585.922 579.132 L 585.922 579.132 Z  M 588.482 579.132 L 585.922 579.132 L 585.922 569.792 L 588.482 569.792 L 588.482 579.132 Z  M 589.286 579.132 L 589.286 579.132 L 589.286 579.132 Z  M 598.542 569.792 L 597.774 572.352 L 595.098 572.352 L 595.098 579.132 L 592.526 579.132 L 592.526 572.352 L 590.078 572.352 L 590.078 569.792 L 598.542 569.792 Z " fill="rgb(0,0,0)"/><ellipse vector-effect="non-scaling-stroke" cx="572.2287841796875" cy="556.9124999999998" rx="5.216284179687364" ry="4.9375" fill="rgb(0,0,0)"/><ellipse vector-effect="non-scaling-stroke" cx="572.2287841796875" cy="567.689453125" rx="5.216284179687364" ry="4.9375" fill="rgb(0,0,0)"/><ellipse vector-effect="non-scaling-stroke" cx="572.2287841796875" cy="556.9124999999998" rx="2.486518883581539" ry="2.3536269430052243" fill="rgb(255,255,255)"/><ellipse vector-effect="non-scaling-stroke" cx="572.2287841796875" cy="567.689453125" rx="2.486518883581539" ry="2.3536269430052243" fill="rgb(255,255,255)"/><polygon points="579.199,555.934,577.445,552.896,580.952,552.896" fill="rgb(0,0,0)"/></svg>