<?xml version="1.0" encoding="iso-8859-1"?>
<!-- Generator: Adobe Illustrator 18.1.1, SVG Export Plug-In . SVG Version: 6.00 Build 0)  -->
<svg version="1.1" id="Ebene_1" xmlns="http://www.w3.org/2000/svg" xmlns:xlink="http://www.w3.org/1999/xlink" x="0px" y="0px"
	 viewBox="0 0 26.617 28.346" style="enable-background:new 0 0 26.617 28.346;" xml:space="preserve">
<g>
	<polygon style="fill:#E4C73D;" points="18.284,0 16.898,0.722 15.335,0.722 14.662,1.885 13.471,2.506 13.403,4.067 12.621,5.422 
		13.293,6.584 13.234,7.926 14.553,8.767 15.335,10.12 16.678,10.12 17.811,10.842 19.198,10.12 20.761,10.12 21.432,8.957 
		22.624,8.337 22.692,6.775 23.473,5.422 22.802,4.258 22.861,2.916 21.542,2.075 20.761,0.722 19.417,0.722 	"/>
	<polygon style="fill:#E4C73D;" points="7.212,18.226 5.649,18.226 4.976,19.39 3.785,20.01 3.717,21.571 2.935,22.925 
		3.607,24.089 3.548,25.43 4.867,26.271 5.649,27.625 6.992,27.625 8.125,28.346 9.511,27.625 11.075,27.625 11.746,26.461 
		12.938,25.841 13.006,24.279 13.788,22.925 13.116,21.762 13.174,20.42 11.856,19.58 11.075,18.226 9.731,18.226 8.598,17.504 	"/>
	<g>
		<path style="fill:#DAC26D;" d="M11.221,8.88c-0.31-3.958-2.733-7.179-5.587-7.179S0.469,4.833,0.047,8.88
			c-0.411,3.944,1.91,7.179,5.587,7.179C9.312,16.059,11.53,12.833,11.221,8.88"/>
		<path style="fill:#AC8F46;" d="M6.257,8.866c0-3.589-0.279-6.498-0.623-6.498S5.011,5.277,5.011,8.866s0.279,6.498,0.623,6.498
			S6.257,12.455,6.257,8.866"/>
	</g>
	<g>
		<path style="fill:#DAC26D;" d="M24.43,16.228c-2.731-2.881-6.642-3.86-8.86-2.063c-2.218,1.796-2.042,5.685,0.176,9.095
			c2.162,3.323,6.002,4.377,8.86,2.063S27.158,19.105,24.43,16.228"/>
		<path style="fill:#AC8F46;" d="M20.564,19.341c-2.259-2.789-4.306-4.875-4.574-4.658c-0.267,0.216,1.347,2.653,3.606,5.442
			c2.258,2.789,4.306,4.875,4.573,4.658C24.437,24.567,22.823,22.13,20.564,19.341"/>
	</g>
</g>
</svg>
