<?xml version="1.0" encoding="utf-8"?>
<!-- Generator: Adobe Illustrator 23.0.2, SVG Export Plug-In . SVG Version: 6.00 Build 0)  -->
<svg version="1.1" id="Ebene_1" xmlns="http://www.w3.org/2000/svg" xmlns:xlink="http://www.w3.org/1999/xlink" x="0px" y="0px"
	 viewBox="0 0 28.3465 28.3462" style="enable-background:new 0 0 28.3465 28.3462;" xml:space="preserve">
<g>
	<polygon style="fill:#4C2300;" points="11.72238,1.9624 8.7976,1.16137 7.30767,3.80279 4.29877,4.18228 3.93229,7.19218 
		1.29788,8.69412 2.11194,11.61591 0.25253,14.01001 2.12195,16.3981 1.32091,19.32389 3.96133,20.81282 4.34183,23.82171 
		7.35172,24.18819 8.85367,26.8226 11.77445,26.00955 14.16955,27.86795 16.55765,25.99853 19.48243,26.79957 20.97336,24.15815 
		23.98226,23.77866 24.34774,20.76876 26.98315,19.26782 26.16909,16.34603 28.0285,13.94993 26.15708,11.56284 26.95912,8.63805 
		24.3177,7.14812 23.93821,4.13822 20.92831,3.77275 19.42736,1.13834 16.50458,1.95139 14.11048,0.09298 	"/>
	<path style="fill:#472200;" d="M27.86825,13.24233L15.10436,0.47844c-0.24737-0.24737-0.58216-0.38546-0.93087-0.38546
		c-0.3497,0-0.6835,0.13809-0.93087,0.38546L0.47874,13.24233c-0.51461,0.51362-0.51461,1.34712,0,1.86173l12.76389,12.76389
		c0.2573,0.25731,0.59409,0.38546,0.93087,0.38546s0.67356-0.12815,0.93087-0.38546l12.76389-12.76389
		C28.38187,14.58946,28.38187,13.75595,27.86825,13.24233"/>
	
		<rect x="9.61287" y="3.23157" transform="matrix(0.70711 -0.70711 0.70711 0.70711 -1.34508 12.27182)" style="fill:#743701;" width="9.05599" height="9.05599"/>
	<g>
		<path style="fill:#683914;" d="M28.25371,14.173c0-0.33678-0.12816-0.67356-0.38546-0.93087L15.10436,0.47824
			c-0.24737-0.24737-0.58216-0.38546-0.93087-0.38546c-0.3497,0-0.6835,0.13809-0.93087,0.38546L0.47874,13.24214
			c-0.2573,0.2573-0.38546,0.59408-0.38546,0.93087H28.25371z"/>
	</g>
	
		<rect x="9.63065" y="3.21368" transform="matrix(0.70711 -0.70711 0.70711 0.70711 -1.32722 12.27916)" style="fill:#522B11;" width="9.05599" height="9.05599"/>
	<polygon style="fill:#A77D5F;" points="7.73731,7.75956 14.14111,1.35576 20.54392,7.75956 	"/>
	
		<rect x="16.01615" y="9.6347" transform="matrix(0.70711 -0.70711 0.70711 0.70711 -3.99737 18.67523)" style="fill:#522B11;" width="9.05634" height="9.05634"/>
	<polygon style="fill:#A77D5F;" points="14.14052,14.16287 20.54432,7.75907 26.94812,14.16287 	"/>
	
		<rect x="3.24205" y="9.60229" transform="matrix(0.70711 -0.70711 0.70711 0.70711 -7.71582 9.63291)" style="fill:#522B11;" width="9.05599" height="9.05599"/>
	<polygon style="fill:#A77D5F;" points="1.36649,14.13028 7.77029,7.72648 14.1731,14.13028 	"/>
	
		<rect x="4.57264" y="10.93278" transform="matrix(0.70711 -0.70711 0.70711 0.70711 -7.7158 9.63299)" style="fill:#683914;" width="6.39501" height="6.39501"/>
	
		<rect x="17.40257" y="10.9326" transform="matrix(0.70711 -0.70711 0.70711 0.70711 -3.95794 18.70524)" style="fill:#683914;" width="6.39536" height="6.39536"/>
	
		<rect x="9.64535" y="16.00559" transform="matrix(0.70711 -0.70711 0.70711 0.70711 -10.36816 16.03622)" style="fill:#522B11;" width="9.05599" height="9.05599"/>
	<polygon style="fill:#A77D5F;" points="7.7698,20.53359 14.1736,14.12978 20.5764,20.53359 	"/>
	
		<rect x="10.9674" y="17.36797" transform="matrix(0.70711 -0.70711 0.70711 0.70711 -10.39318 16.03959)" style="fill:#683914;" width="6.39501" height="6.39501"/>
	
		<rect x="10.9674" y="4.57835" transform="matrix(0.70711 -0.70711 0.70711 0.70711 -1.34956 12.2936)" style="fill:#683914;" width="6.39501" height="6.39501"/>
</g>
</svg>
