<?xml version="1.0" encoding="utf-8"?>
<!-- Generator: Adobe Illustrator 27.6.1, SVG Export Plug-In . SVG Version: 6.00 Build 0)  -->
<svg version="1.1" id="Ebene_1" xmlns="http://www.w3.org/2000/svg" xmlns:xlink="http://www.w3.org/1999/xlink" x="0px" y="0px"
	 viewBox="0 0 31.985 35.304" style="enable-background:new 0 0 31.985 35.304;" xml:space="preserve">
<style type="text/css">
	.st0{fill:#F4E393;}
	.st1{fill:#E4C73D;}
	.st2{fill:#AC8F46;}
	.st3{fill:#EFD06C;}
</style>
<circle class="st0" cx="19.448" cy="7.578" r="4.454"/>
<g>
	<path class="st1" d="M15.61,14.631c0.486-0.824,0.623-1.741,0.477-2.594c0.949-1.267,1.189-2.809,0.455-3.964
		c-0.034-0.052-0.081-0.09-0.117-0.139c0.13-1.299-0.476-2.616-1.675-3.323c-0.869-0.513-1.868-0.591-2.762-0.318
		c-1.144-0.83-2.77-0.908-4.097-0.064c-0.495,0.315-0.879,0.728-1.17,1.187C5.701,5.548,4.75,6.117,4.186,7.072
		C4.032,7.334,3.929,7.609,3.85,7.89c-0.703,0.4-1.345,1.01-1.816,1.808c-0.909,1.541-0.926,3.307-0.175,4.499
		c-0.746,1.591-0.224,3.492,1.275,4.376c0.324,0.191,0.668,0.303,1.017,0.374c0.297,0.308,0.624,0.594,1.013,0.824
		c1.857,1.095,4.117,0.799,5.466-0.584c1.267-0.077,2.566-0.861,3.353-2.196c0.217-0.367,0.361-0.75,0.472-1.134
		C14.908,15.545,15.31,15.14,15.61,14.631"/>
	<path class="st2" d="M9.475,12.62c1.739-2.947,2.919-5.472,2.636-5.638c-0.281-0.166-1.921,2.088-3.659,5.035
		s-2.919,5.472-2.637,5.638C6.097,17.821,7.737,15.567,9.475,12.62"/>
</g>
<polygon class="st3" points="20.795,8.46 18.891,9.204 16.858,8.983 15.82,10.4 14.184,11.04 13.874,13.06 12.666,14.712 
	13.377,16.317 13.111,18.054 14.706,19.334 15.532,21.203 17.278,21.393 18.65,22.492 20.554,21.748 22.588,21.969 23.624,20.552 
	25.262,19.914 25.571,17.892 26.778,16.243 26.069,14.635 26.334,12.898 24.74,11.619 23.914,9.749 22.166,9.559 "/>
<polygon class="st3" points="11.774,17.231 9.869,17.974 7.837,17.753 6.799,19.171 5.163,19.81 4.853,21.83 3.645,23.482 
	4.356,25.088 4.09,26.825 5.685,28.104 6.511,29.974 8.257,30.163 9.628,31.262 11.533,30.519 13.566,30.74 14.603,29.322 
	16.24,28.684 16.549,26.663 17.757,25.014 17.047,23.405 17.312,21.668 15.718,20.389 14.893,18.519 13.145,18.33 "/>
<circle class="st0" cx="26.213" cy="19.146" r="4.454"/>
<g>
	<path class="st1" d="M14.572,26.991c-0.486-0.823-0.623-1.741-0.478-2.594c-0.949-1.266-1.189-2.808-0.455-3.964
		c0.034-0.052,0.081-0.09,0.117-0.14c-0.13-1.298,0.475-2.616,1.674-3.323c0.869-0.512,1.868-0.591,2.764-0.317
		c1.142-0.829,2.769-0.908,4.096-0.065c0.494,0.315,0.879,0.728,1.17,1.185c1.02,0.133,1.972,0.703,2.535,1.657
		c0.154,0.263,0.257,0.538,0.337,0.818c0.702,0.399,1.344,1.011,1.815,1.808c0.909,1.54,0.926,3.306,0.176,4.498
		c0.747,1.591,0.225,3.492-1.275,4.377c-0.323,0.191-0.667,0.305-1.017,0.375c-0.296,0.308-0.625,0.594-1.013,0.823
		c-1.857,1.096-4.118,0.8-5.466-0.584c-1.267-0.076-2.566-0.861-3.354-2.196c-0.217-0.366-0.361-0.749-0.473-1.134
		C15.274,27.904,14.872,27.501,14.572,26.991"/>
	<path class="st2" d="M20.706,24.979c-1.739-2.947-2.921-5.471-2.637-5.638c0.282-0.167,1.921,2.087,3.66,5.034
		c1.74,2.947,2.921,5.471,2.638,5.638C24.084,30.18,22.445,27.926,20.706,24.979"/>
</g>
<circle class="st0" cx="12.065" cy="19.102" r="4.454"/>
</svg>
