<?xml version="1.0" encoding="UTF-8" standalone="no"?><!-- Generator: Gravit.io --><svg xmlns="http://www.w3.org/2000/svg" xmlns:xlink="http://www.w3.org/1999/xlink" style="isolation:isolate" viewBox="690.7 376.867 106.6 143.267" width="106.6pt" height="143.267pt"><g><g><path d=" M 797.3 475.939 C 796.693 444.311 784.43 419.422 777.024 407.22 C 766.036 389.069 752.742 376.867 744 376.867 C 735.258 376.867 721.964 389.069 710.976 407.22 C 703.57 419.422 691.307 444.311 690.7 475.939 C 690.7 476.061 690.7 479.096 690.822 479.339 C 691.246 484.256 692.643 489.052 695.01 493.605 C 697.742 498.825 701.627 503.5 706.544 507.506 C 710.551 510.724 715.104 513.395 719.96 515.459 C 720.507 516.005 721.296 516.37 722.146 516.37 C 722.146 516.37 722.207 516.37 722.207 516.37 C 728.945 518.859 736.351 520.133 744 520.133 C 758.145 520.133 771.439 515.642 781.456 507.506 C 786.373 503.5 790.258 498.825 792.99 493.605 C 795.357 489.052 796.754 484.256 797.179 479.339 C 797.3 479.035 797.3 476.061 797.3 475.939 Z " fill="rgb(0,0,0)"/><path d=" M 744 513.88 C 737.262 513.88 730.827 512.727 724.999 510.663 C 722.146 478.914 724.21 457.545 726.395 442.429 C 726.638 440.73 725.485 439.151 723.724 438.908 C 722.024 438.666 720.446 439.819 720.203 441.58 C 718.079 456.513 716.015 477.397 718.443 507.931 C 705.634 501.314 697.074 489.962 696.831 476.971 C 697.196 446.375 709.094 422.214 716.257 410.498 C 727.731 391.618 739.326 383.12 744 383.12 C 748.614 383.12 760.269 391.618 771.682 410.498 C 778.845 422.275 790.683 446.375 791.108 476.971 C 790.683 497.368 769.739 513.88 744 513.88 Z " fill="rgb(255,255,255)"/><path d=" M 765.187 423.853 C 760.634 411.712 754.927 402.424 747.642 395.443 C 746.428 394.229 744.425 394.289 743.211 395.504 C 741.997 396.718 742.057 398.721 743.272 399.935 C 756.809 412.987 764.944 435.448 770.407 475.15 C 770.65 476.728 771.986 477.821 773.503 477.821 C 773.625 477.821 773.807 477.821 773.928 477.821 C 775.628 477.578 776.842 476 776.599 474.3 C 773.746 453.053 769.982 436.541 765.187 423.853 Z " fill="rgb(0,0,0)"/></g></g></svg>