<?xml version="1.0" encoding="UTF-8" standalone="no"?><!-- Generator: Gravit.io --><svg xmlns="http://www.w3.org/2000/svg" xmlns:xlink="http://www.w3.org/1999/xlink" style="isolation:isolate" viewBox="2806.057 1914.846 175.6 236" width="175.6pt" height="236pt"><g><g><path d=" M 2981.657 2078.046 C 2980.657 2025.946 2960.457 1984.946 2948.257 1964.846 C 2930.157 1934.946 2908.257 1914.846 2893.857 1914.846 C 2879.457 1914.846 2857.557 1934.946 2839.457 1964.846 C 2827.257 1984.946 2807.057 2025.946 2806.057 2078.046 C 2806.057 2078.246 2806.057 2083.246 2806.257 2083.646 C 2806.957 2091.746 2809.257 2099.646 2813.157 2107.146 C 2817.657 2115.746 2824.057 2123.447 2832.157 2130.046 C 2838.757 2135.346 2846.257 2139.746 2854.257 2143.146 C 2855.157 2144.046 2856.457 2144.646 2857.857 2144.646 C 2857.857 2144.646 2857.957 2144.646 2857.957 2144.646 C 2869.057 2148.746 2881.257 2150.846 2893.857 2150.846 C 2917.157 2150.846 2939.057 2143.447 2955.557 2130.046 C 2963.657 2123.447 2970.057 2115.746 2974.557 2107.146 C 2978.457 2099.646 2980.757 2091.746 2981.457 2083.646 C 2981.657 2083.146 2981.657 2078.246 2981.657 2078.046 Z " fill="rgb(0,0,0)"/><path d=" M 2893.857 2140.546 C 2882.757 2140.546 2872.157 2138.646 2862.557 2135.246 C 2857.857 2082.947 2861.257 2047.746 2864.857 2022.846 C 2865.257 2020.046 2863.357 2017.446 2860.457 2017.046 C 2857.657 2016.646 2855.057 2018.546 2854.657 2021.446 C 2851.157 2046.046 2847.757 2080.447 2851.757 2130.746 C 2830.657 2119.846 2816.557 2101.146 2816.157 2079.746 C 2816.757 2029.346 2836.357 1989.546 2848.157 1970.246 C 2867.057 1939.146 2886.157 1925.146 2893.857 1925.146 C 2901.457 1925.146 2920.657 1939.146 2939.457 1970.246 C 2951.257 1989.646 2970.757 2029.346 2971.457 2079.746 C 2970.757 2113.346 2936.257 2140.546 2893.857 2140.546 Z " fill="rgb(195,117,0)"/><path d=" M 2928.757 1992.246 C 2921.257 1972.246 2911.857 1956.946 2899.857 1945.446 C 2897.857 1943.446 2894.557 1943.546 2892.557 1945.546 C 2890.557 1947.546 2890.657 1950.846 2892.657 1952.846 C 2914.957 1974.346 2928.357 2011.346 2937.357 2076.746 C 2937.757 2079.346 2939.957 2081.146 2942.457 2081.146 C 2942.657 2081.146 2942.957 2081.146 2943.157 2081.146 C 2945.957 2080.746 2947.957 2078.146 2947.557 2075.346 C 2942.857 2040.346 2936.657 2013.146 2928.757 1992.246 Z " fill="rgb(0,0,0)"/></g></g></svg>