<?xml version="1.0" encoding="utf-8"?>
<!-- Svg Vector Icons : http://www.onlinewebfonts.com/icon -->
<!DOCTYPE svg PUBLIC "-//W3C//DTD SVG 1.1//EN" "http://www.w3.org/Graphics/SVG/1.1/DTD/svg11.dtd">
<svg version="1.1" xmlns="http://www.w3.org/2000/svg" xmlns:xlink="http://www.w3.org/1999/xlink" x="0px" y="0px" viewBox="0 0 256 256" enable-background="new 0 0 256 256" xml:space="preserve">
<metadata> Svg Vector Icons : http://www.onlinewebfonts.com/icon </metadata>
<g><g><g><path fill="#000000" d="M117.6,10.5c-1.7,0.8-3.2,2.4-3.9,4.1c-0.4,0.9-0.5,26.3-0.5,83.1v81.8H94.1c-21,0-21.1,0-23.4,2.7c-1.4,1.7-1.9,3.9-1.5,6.4c0.2,1.6,3.5,4.9,27.8,29.3c24.3,24.3,27.7,27.6,29.3,27.8c4.3,0.8,2.8,2.1,32.7-27.8c24.3-24.3,27.6-27.7,27.8-29.3c0.5-2.4-0.1-4.7-1.5-6.4c-2.3-2.7-2.4-2.7-23.4-2.7h-19.1l-0.1-82.5l-0.1-82.5l-1-1.2c-2.3-3.1-2.5-3.2-13-3.3C121.3,9.9,118.7,10,117.6,10.5z"/></g></g></g>
</svg>