<?xml version="1.0" encoding="UTF-8" standalone="no"?><!-- Generator: Gravit.io --><svg xmlns="http://www.w3.org/2000/svg" xmlns:xlink="http://www.w3.org/1999/xlink" style="isolation:isolate" viewBox="416 -1440 117.907 2015.031" width="117.907pt" height="2015.031pt"><g><g><g><path d=" M 460.133 -1433 L 460.133 426.035 L 460.133 508.535 L 441.033 508.535 C 420.033 508.535 419.933 508.535 417.633 511.235 C 416.233 512.935 415.733 515.135 416.133 517.635 C 416.333 519.235 419.633 522.535 443.933 546.935 C 468.233 571.235 471.633 574.535 473.233 574.735 C 477.533 575.535 476.033 576.835 505.933 546.935 C 530.233 522.635 533.533 519.235 533.733 517.635 C 534.233 515.235 533.633 512.935 532.233 511.235 C 529.933 508.535 529.833 508.535 508.833 508.535 L 489.733 508.535 L 489.733 426.035 L 489.733 -1433 C 489.733 -1436.863 486.597 -1440 482.733 -1440 L 467.133 -1440 C 463.27 -1440 460.133 -1436.863 460.133 -1433 Z " fill="rgb(255,255,255)"/></g></g></g></svg>