<?xml version="1.0" encoding="utf-8"?>
<!-- Svg Vector Icons : http://www.onlinewebfonts.com/icon -->
<!DOCTYPE svg PUBLIC "-//W3C//DTD SVG 1.1//EN" "http://www.w3.org/Graphics/SVG/1.1/DTD/svg11.dtd">
<svg version="1.1" xmlns="http://www.w3.org/2000/svg" xmlns:xlink="http://www.w3.org/1999/xlink" x="0px" y="0px" viewBox="0 0 256 256" enable-background="new 0 0 256 256" xml:space="preserve">
<metadata> Svg Vector Icons : http://www.onlinewebfonts.com/icon </metadata>
<g><g><path fill="#000000" d="M207.2,216c-0.6-1.8-12.1-4.8-12.1-4.8c-10.3-4.2-10.3-18.2,0-22.5c0,0,10.9-3,12.1-4.8c1.8-3.6,4.8-11.5,4.8-11.5c1.8-4.8,6.1-7.3,9.7-7.3c0-17,0-34,0-51c0-7.9-1.2-15.8-2.5-23.1c-9.1-45.5-53.4-83.8-108-78.3c-17,1.8-32.2,7.3-45.5,15.8l0,0c7.3,3,21.2,8.5,21.2,8.5c10.3,4.2,10.3,18.2,0,22.5c0,0-20.6,6.7-21.2,8.5c-3,7.3-8.5,21.2-8.5,21.2c-4.2,10.3-18.2,10.3-22.5,0l-6.6-16.3c-5.5,12.8-7.9,26.7-7.9,41.3c0,30.9,0,61.9,0,92.8c0,22.5,13.9,36.4,37,36.4h51.6c-3.6-1.2-7.3-2.5-10.9-4.2c-32.8-15.2-48.5-55.2-43.7-90.4c0.6-4.2,2.5-5.5,6.7-6.1c29.7-3,89.8-15.2,96.5-43.7c0.6-3.6,1.2-6.7,1.8-10.3c1.2,1.2,1.8,2.5,1.8,3.6c34,42.5,27.9,59.4,27.9,57c1.2,11.5,1.2,23.1-1.8,34.6c-7.3,29.1-22.5,51-53.4,60h26.1c8.5,0,17.6,0,26.1,0c12.1,0,22.5-4.8,28.5-12.8c-1.2-1.2-1.8-2.5-2.5-3.6C212,227.5,208.4,219.7,207.2,216z"/><path fill="#000000" d="M229.6,193l-6.7-16.4l-6.6,16.4l-16.4,6.6l16.4,6.7l6.6,16.4l6.7-16.4l16.4-6.7L229.6,193z"/><path fill="#000000" d="M70.1,175.3c18.8-13.9,40.6,0,40.6,0C88.8,145,70.1,175.3,70.1,175.3z"/><path fill="#000000" d="M135,175.3c18.8-13.9,40.7,0,40.7,0C153.8,145,135,175.3,135,175.3z"/><path fill="#000000" d="M46.4,85l10.3-26.1l26.1-10.3L56.7,38.2L46.4,12.2L36.1,38.2L10,48.6l26.1,10.3L46.4,85z"/></g></g>
</svg>