<?xml version="1.0" encoding="UTF-8" standalone="no"?><svg xmlns="http://www.w3.org/2000/svg" xmlns:xlink="http://www.w3.org/1999/xlink" fill="#000000" height="100" preserveAspectRatio="xMidYMid meet" version="1" viewBox="0.0 0.0 100.0 100.0" width="100" zoomAndPan="magnify"><g id="change1_1"><path d="M 88.449219 76.898438 C 85.628906 76.898438 83.046875 77.910156 81.042969 79.585938 L 73.097656 71.527344 C 76.382812 67.871094 78.386719 63.039062 78.386719 57.734375 C 78.386719 46.757812 69.8125 37.78125 59 37.128906 L 59 23.03125 C 64.785156 22.402344 69.289062 17.503906 69.289062 11.550781 C 69.289062 5.171875 64.117188 0 57.734375 0 C 51.355469 0 46.183594 5.171875 46.183594 11.550781 C 46.183594 17.503906 50.6875 22.402344 56.472656 23.03125 L 56.472656 37.128906 C 46.078125 37.757812 37.757812 46.078125 37.128906 56.472656 L 23.03125 56.472656 C 22.402344 50.6875 17.503906 46.183594 11.550781 46.183594 C 5.171875 46.183594 0 51.355469 0 57.734375 C 0 64.117188 5.171875 69.289062 11.550781 69.289062 C 17.503906 69.289062 22.402344 64.785156 23.03125 59 L 37.128906 59 C 37.78125 69.8125 46.757812 78.386719 57.734375 78.386719 C 62.929688 78.386719 67.671875 76.464844 71.300781 73.296875 L 79.296875 81.414062 C 77.796875 83.363281 76.898438 85.796875 76.898438 88.449219 C 76.898438 94.828125 82.070312 100 88.449219 100 C 94.828125 100 100 94.828125 100 88.449219 C 100 82.070312 94.828125 76.898438 88.449219 76.898438" fill="#ffffff"/></g></svg>