<?xml version="1.0" encoding="UTF-8" standalone="no"?><!-- Generator: Gravit.io --><svg xmlns="http://www.w3.org/2000/svg" xmlns:xlink="http://www.w3.org/1999/xlink" style="isolation:isolate" viewBox="468.533 236.8 221.3 221.3" width="221.3pt" height="221.3pt"><g><path d=" M 659.033 373.2 L 678.733 373.2 L 678.733 351.1 C 682.833 345.7 686.533 340.2 689.833 334.7 L 689.833 384.3 L 645.133 384.3 C 650.033 381 654.633 377.4 659.033 373.2 L 659.033 373.2 Z  M 554.733 447 L 604.933 447 L 604.933 402.5 L 605.033 402.5 C 608.733 401.3 612.433 400 616.033 398.7 L 616.033 458.1 L 554.333 458.1 C 554.433 454.4 554.533 450.7 554.733 447 L 554.733 447 L 554.733 447 L 554.733 447 Z  M 553.333 247.8 L 553.333 321.6 L 479.633 321.6 L 479.633 373.2 L 538.133 373.2 C 538.033 376.9 538.133 380.6 538.433 384.3 L 468.533 384.3 L 468.533 310.5 L 542.333 310.5 L 542.333 236.8 L 616.133 236.8 L 616.133 285 C 612.433 286.2 608.733 287.5 605.033 288.9 L 605.033 247.8 L 553.333 247.8 Z " fill="none"/></g><g><g><path d=" M 621.184 328.718 C 604.574 328.718 591.101 315.43 591.101 299.096 C 591.101 283.132 614.263 256.187 621.184 246.129 C 628.104 256.187 651.266 283.132 651.266 299.096 C 651.174 315.43 637.701 328.718 621.184 328.718 Z  M 574.399 313.676 C 562.403 330.932 521.8 377.533 521.8 405.124 C 521.8 433.453 545.331 456.338 574.399 456.338 C 603.466 456.338 626.997 433.361 626.997 405.124 C 626.905 377.533 586.303 330.932 574.399 313.676 Z  M 532.136 405.124 C 532.136 401.986 534.627 399.495 537.765 399.495 C 540.902 399.495 543.393 401.986 543.393 405.124 C 543.393 413.429 546.808 420.903 552.344 426.255 C 557.973 431.7 565.725 435.114 574.307 435.114 C 577.444 435.114 579.935 437.605 579.935 440.743 C 579.935 443.88 577.444 446.372 574.307 446.372 C 562.68 446.372 552.16 441.758 544.501 434.376 C 536.934 426.809 532.136 416.474 532.136 405.124 Z  M 555.482 291.161 C 565.909 291.161 574.399 282.671 574.399 272.244 C 574.399 262.093 559.911 245.022 555.482 238.562 C 551.145 245.022 536.657 262.093 536.657 272.244 C 536.657 282.671 545.054 291.161 555.482 291.161 Z " fill="rgb(195,69,68)"/></g><path d=" M 582.322 369.529 L 582.322 381.052 L 593.844 381.052 L 605.368 381.052 L 605.368 388.254 L 605.368 395.457 L 593.844 395.457 L 582.322 395.457 L 582.322 406.98 L 582.322 418.504 L 575.119 418.504 L 567.917 418.504 L 567.917 406.98 L 567.917 395.457 L 556.394 395.457 L 544.87 395.457 L 544.87 388.254 L 544.87 381.052 L 556.394 381.052 L 567.917 381.052 L 567.917 369.529 L 567.917 358.066 L 575.119 358.066 L 582.322 358.066 L 582.322 369.529 L 582.322 369.529 Z " fill="rgb(255,255,255)"/><path d=" M 641.156 297.805 L 630.587 297.805 C 629.994 297.805 629.464 298.148 629.215 298.647 L 625.816 305.413 L 621.482 286.674 C 621.326 286.019 620.796 285.551 620.11 285.489 C 619.455 285.458 618.831 285.8 618.551 286.424 L 613.656 297.836 L 602.369 297.836 C 601.527 297.836 600.841 298.522 600.841 299.364 C 600.841 300.206 601.527 300.891 602.369 300.891 L 614.716 300.891 C 615.34 300.891 615.901 300.518 616.119 299.956 L 619.548 291.943 L 623.79 310.277 C 623.946 310.901 624.475 311.368 625.099 311.462 C 625.161 311.462 625.224 311.462 625.286 311.462 C 625.879 311.462 626.408 311.15 626.658 310.62 L 631.522 300.891 L 641.156 300.891 C 641.999 300.891 642.684 300.206 642.684 299.364 C 642.684 298.491 641.999 297.805 641.156 297.805 Z " fill="rgb(255,255,255)"/></g></svg>