<?xml version="1.0" encoding="utf-8"?>
<!-- Svg Vector Icons : http://www.onlinewebfonts.com/icon -->
<!DOCTYPE svg PUBLIC "-//W3C//DTD SVG 1.1//EN" "http://www.w3.org/Graphics/SVG/1.1/DTD/svg11.dtd">
<svg version="1.1" xmlns="http://www.w3.org/2000/svg" xmlns:xlink="http://www.w3.org/1999/xlink" x="0px" y="0px" viewBox="0 0 256 256" enable-background="new 0 0 256 256" xml:space="preserve">
<metadata> Svg Vector Icons : http://www.onlinewebfonts.com/icon </metadata>
<g><g><g><path fill="#000000" d="M122.6,16c-18,21.9-39.2,51.2-52.1,72C56,111.3,46.4,131.7,43,146.5c-2.9,12.2-1.9,25.9,2.8,40.1C57.5,221.9,90.9,246,128,246s70.5-24.1,82.2-59.4c3.5-10.4,5-22.3,4.2-31.5c-2.3-24.2-23.2-63.2-61-113.6c-8.5-11.4-24.4-31.2-25.2-31.5C127.9,9.9,125.4,12.6,122.6,16z M140,114.5v19.2h19.2h19.2v12v12h-19.2H140v19.2v19.2h-12h-12v-19.2v-19.2H96.8H77.6v-12v-12h19.2H116v-19.2V95.4h12h12L140,114.5L140,114.5z M67.5,167.3c1.8,12,6.1,22.7,12.5,31c4.3,5.6,13,12.7,18.3,14.8c1.1,0.5,2,1,2,1.2c0,0.7-8.8,0.4-11.7-0.4c-5.7-1.5-11.1-5.1-15.7-10.4c-2.6-3.1-6.4-10.5-7.7-15.2c-3.1-11.5-3.1-25.6,0.1-35.1l1-3l0.3,6.7C66.8,160.6,67.2,165.2,67.5,167.3z"/></g></g></g>
</svg>