<svg xmlns="http://www.w3.org/2000/svg" xmlns:xlink="http://www.w3.org/1999/xlink" version="1.1" x="0px" y="0px" viewBox="-20 -20 140 140" xml:space="preserve" data-icon="true" fill="#000000"><g display="none"><rect x="-192" display="inline" width="185" height="99"></rect><rect y="-36" display="inline" width="100" height="30"></rect><text transform="matrix(1 0 0 1 66 -19.5)" display="inline" fill="#000000" font-family="'Helvetica'" font-size="2.4">http://thenounproject.com</text><text transform="matrix(1 0 0 1 7.166 -24.5)" display="inline"><tspan x="0" y="0" fill="#000000" font-family="'Helvetica-Bold'" font-size="6.1578">The Noun Project</tspan><tspan x="1.12" y="4.8" fill="#000000" font-family="'Helvetica-Bold'" font-size="4">Icon Template</tspan></text><text transform="matrix(1 0 0 1 -178.5 10.5)" display="inline" fill="#000000" font-family="'Helvetica-Bold'" font-size="6.1578">Reminders</text><line display="inline" fill="#000000" stroke="#FFFFFF" stroke-miterlimit="10" x1="8" y1="-14.5" x2="18" y2="-14.5"></line><line display="inline" fill="#000000" stroke="#FFFFFF" stroke-miterlimit="10" x1="-179" y1="16.5" x2="-162" y2="16.5"></line><g display="inline"><g><g><rect x="-170.802" y="31.318" fill="#000000" width="8.721" height="8.642"></rect><path fill="#000000" d="M-164.455,42.312h4.747v-4.703h-4.747V42.312z M-159.266,42.749h-5.63V37.17h5.63V42.749      L-159.266,42.749z M-166.221,44.062h8.279v-8.203h-8.279V44.062L-166.221,44.062z M-157.5,44.5h-9.163v-9.079h9.163V44.5      L-157.5,44.5z"></path><polygon fill="#000000" points="-166.149,44.133 -166.292,43.991 -158.013,35.787 -157.871,35.929"></polygon></g></g></g><rect x="-179" y="58" display="inline" fill="none" width="35" height="32.5"></rect><text transform="matrix(1 0 0 1 -179 60.1572)" display="inline"><tspan x="0" y="0" fill="#000000" font-family="'Helvetica-Bold'" font-size="3">Strokes</tspan><tspan x="0" y="5" fill="#000000" font-family="'Helvetica'" font-size="2.4">Try to keep strokes at 4px</tspan><tspan x="0" y="10" fill="#000000" font-family="'Helvetica'" font-size="2.4">Minimum stroke weight is 2px</tspan><tspan x="0" y="14.5" fill="#000000" font-family="'Helvetica'" font-size="2.4">For thicker strokes use even </tspan><tspan x="0" y="17.5" fill="#000000" font-family="'Helvetica'" font-size="2.4">numbers: 6px, 8px etc.</tspan><tspan x="0" y="22" fill="#000000" font-family="'Helvetica-Bold'" font-size="2.4">Remember to expand strokes </tspan><tspan x="0" y="25" fill="#000000" font-family="'Helvetica-Bold'" font-size="2.4">before saving as an SVG </tspan></text><rect x="-136.5" y="58" display="inline" fill="none" width="35" height="32.5"></rect><text transform="matrix(1 0 0 1 -136.5 60.1572)" display="inline"><tspan x="0" y="0" fill="#000000" font-family="'Helvetica-Bold'" font-size="3">Size</tspan><tspan x="0" y="5" fill="#000000" font-family="'Helvetica'" font-size="2.4">Cannot be wider or taller than </tspan><tspan x="0" y="8.5" fill="#000000" font-family="'Helvetica'" font-size="2.4">100px (artboard size)</tspan><tspan x="0" y="13.5" fill="#000000" font-family="'Helvetica'" font-size="2.4">Scale your icon to fill as much of </tspan><tspan x="0" y="16.5" fill="#000000" font-family="'Helvetica'" font-size="2.4">the artboard as possible</tspan></text><rect x="-94" y="58" display="inline" fill="none" width="35" height="32.5"></rect><text transform="matrix(1 0 0 1 -94 60.1572)" display="inline"><tspan x="0" y="0" fill="#000000" font-family="'Helvetica-Bold'" font-size="3">Ungroup</tspan><tspan x="0" y="5" fill="#000000" font-family="'Helvetica'" font-size="2.4">If your design has more than one </tspan><tspan x="0" y="8" fill="#000000" font-family="'Helvetica'" font-size="2.4">shape, make sure to ungroup</tspan></text><rect x="-50" y="58" display="inline" fill="none" width="35" height="32.5"></rect><text transform="matrix(1 0 0 1 -50 60.1572)" display="inline"><tspan x="0" y="0" fill="#000000" font-family="'Helvetica-Bold'" font-size="3">Save as</tspan><tspan x="0" y="5" fill="#000000" font-family="'Helvetica'" font-size="2.4">Save as .SVG and make sure </tspan><tspan x="0" y="8" fill="#000000" font-family="'Helvetica'" font-size="2.4">“Use Artboards” is checked</tspan></text><text transform="matrix(1.0074 0 0 1 -125.542 30.5933)" display="inline" fill="#000000" font-family="'Helvetica'" font-size="2.5731">100px</text><text transform="matrix(1.0074 0 0 1 -41 39)" display="inline" fill="#000000" font-family="'Helvetica-Bold'" font-size="5.1462">.SVG</text><rect x="-126.514" y="34.815" display="inline" fill="#000000" width="10.261" height="10.185"></rect><rect x="-126.477" y="31.766" display="inline" fill="#000000" width="0.522" height="2.337"></rect><rect x="-116.812" y="31.766" display="inline" fill="#000000" width="0.523" height="2.337"></rect><rect x="-127" y="32.337" display="inline" fill="#000000" width="11.233" height="0.572"></rect><g display="inline"><rect x="-83.805" y="33.844" fill="#000000" width="10.305" height="10.156"></rect><rect x="-76.809" y="28.707" fill="#000000" width="3.308" height="3.261"></rect></g><rect x="-178.5" y="22.5" display="inline" fill="#000000" stroke="#FFFFFF" stroke-miterlimit="10" width="30" height="30"></rect><rect x="-136.5" y="22.5" display="inline" fill="#000000" stroke="#FFFFFF" stroke-miterlimit="10" width="30" height="30"></rect><rect x="-93.5" y="22.5" display="inline" fill="#000000" stroke="#FFFFFF" stroke-miterlimit="10" width="30" height="30"></rect><rect x="-49.5" y="22.5" display="inline" fill="#000000" stroke="#FFFFFF" stroke-miterlimit="10" width="30" height="30"></rect></g><g><path fill-rule="evenodd" clip-rule="evenodd" d="M78.489,60.117c-0.386-1.892-0.96-3.713-1.691-5.45L64.98,32.765L50.004,5   L35.027,32.765L23.209,54.667c-0.738,1.737-1.304,3.559-1.698,5.45c-0.386,1.891-0.591,3.845-0.591,5.851   c0,2.005,0.206,3.961,0.591,5.851c0.394,1.89,0.96,3.714,1.698,5.451c0.731,1.736,1.634,3.385,2.684,4.93   c1.043,1.544,2.232,2.983,3.546,4.297c1.313,1.314,2.757,2.502,4.308,3.546c1.542,1.042,3.201,1.941,4.933,2.676   c1.74,0.734,3.569,1.305,5.465,1.691C46.033,94.797,47.993,95,50.004,95c2.002,0,3.964-0.203,5.859-0.591   c1.888-0.387,3.719-0.957,5.458-1.691s3.389-1.634,4.939-2.676c1.543-1.044,2.987-2.231,4.3-3.546   c1.322-1.313,2.504-2.753,3.554-4.297c1.042-1.545,1.946-3.193,2.684-4.93c0.731-1.737,1.306-3.562,1.691-5.451   s0.591-3.846,0.591-5.851C79.08,63.962,78.875,62.008,78.489,60.117z M74.354,71.109c-0.328,1.617-0.821,3.175-1.445,4.658   c-0.632,1.485-1.403,2.897-2.298,4.216c-0.895,1.321-1.904,2.551-3.027,3.674c-1.133,1.122-2.363,2.136-3.686,3.031   c-1.321,0.891-2.733,1.659-4.218,2.287c-1.485,0.628-3.054,1.115-4.67,1.445c-1.616,0.332-3.291,0.504-5.005,0.504   c-1.715,0-3.398-0.172-5.015-0.504c-1.616-0.33-3.176-0.817-4.662-1.445c-1.493-0.628-2.904-1.396-4.226-2.287   c-1.321-0.896-2.552-1.909-3.676-3.031c-1.124-1.123-2.142-2.353-3.036-3.674c-0.895-1.318-1.666-2.73-2.29-4.216   c-0.632-1.483-1.115-3.041-1.452-4.658c-0.329-1.614-0.5-3.288-0.5-5.001s0.171-3.386,0.5-5.001c0.337-1.617,0.82-3.175,1.452-4.66   l10.102-18.722l12.803-23.734l12.802,23.734l10.102,18.722c0.624,1.485,1.117,3.043,1.445,4.66   c0.327,1.615,0.509,3.288,0.509,5.001S74.681,69.495,74.354,71.109z"></path><polyline points="47.821,58.711 52.18,58.711 52.18,68.146 61.633,68.146 61.633,72.502 52.18,72.502 52.18,81.936 47.821,81.936    47.821,72.502 38.367,72.502 38.367,68.146 47.821,68.146 47.821,58.711"></polyline></g></svg>