<?xml version="1.0" encoding="utf-8"?>
<!-- Svg Vector Icons : http://www.onlinewebfonts.com/icon -->
<!DOCTYPE svg PUBLIC "-//W3C//DTD SVG 1.1//EN" "http://www.w3.org/Graphics/SVG/1.1/DTD/svg11.dtd">
<svg version="1.1" xmlns="http://www.w3.org/2000/svg" xmlns:xlink="http://www.w3.org/1999/xlink" x="0px" y="0px" viewBox="0 0 256 256" enable-background="new 0 0 256 256" xml:space="preserve">
<metadata> Svg Vector Icons : http://www.onlinewebfonts.com/icon </metadata>
<g> <path fill="#c6c3e1" d="M39.1,125.4c0,54.9,44.5,99.3,99.3,99.3c54.9,0,99.3-44.5,99.3-99.3c0-54.9-44.5-99.3-99.3-99.3 C83.6,26,39.1,70.5,39.1,125.4z"/> <path fill="#555ca7" d="M102,226.1c0,2.1,1.7,3.9,3.9,3.9s3.9-1.7,3.9-3.9l0,0c0-2.1-1.7-3.9-3.9-3.9S102,224,102,226.1z"/> <path fill="#555ca7" d="M105.9,201.8c2.1,0,3.9,1.7,3.9,3.9v9.9c0,2.1-1.7,3.9-3.9,3.9c-2.1,0-3.9-1.7-3.9-3.9v-9.9 C102,203.6,103.7,201.8,105.9,201.8z M203,199.9v-5.8c0-1.8,1.5-3.3,3.3-3.3c1.8,0,3.3,1.5,3.3,3.3V214c0-1.8-1.5-3.3-3.3-3.3 c-1.8,0-3.3,1.5-3.3,3.3v10.8c0,2.1-1.7,3.9-3.9,3.9s-3.9-1.7-3.9-3.9v-24.8c0-2.1,1.7-3.9,3.9-3.9S203,197.8,203,199.9z"/> <path fill="#555ca7" d="M213.2,183.9c2.1,0,3.9,1.7,3.9,3.9v27c0,2.1-1.7,3.9-3.9,3.9s-3.9-1.7-3.9-3.9v-27 C209.4,185.6,211.1,183.9,213.2,183.9z"/> <path fill="#555ca7" d="M209.9,225.8c0,2.1,1.7,3.9,3.9,3.9c2.1,0,3.9-1.7,3.9-3.9c0-2.1-1.7-3.9-3.9-3.9 C211.6,222,209.9,223.7,209.9,225.8z"/> <path fill="#ffffff" d="M122.4,105.1c1.3,46.2-33.3,55.1-42.5,56.8c0.9-4.7,3.6-10.8,3.6-10.8c-28.8,10.1-57.8-11.9-57.8-11.9 c10.2-24.3,28.9-36.3,28.9-36.3s-6.7-3.4-9.9-8.1C65.2,83.7,96.8,77.8,122.4,105.1"/> <path fill="#97c240" d="M136.2,106.4c1.3,46.2-33.3,55.1-42.5,56.8c0.9-4.7,3.6-10.8,3.6-10.8c-28.8,10.1-57.8-11.9-57.8-11.9 c10.2-24.3,28.9-36.3,28.9-36.3s-6.7-3.4-9.9-8.1C79,85.1,110.6,79.2,136.2,106.4"/> <path fill="#333333" d="M83.5,143.5c1.3-0.2,2.7,0.3,3.6,1.3c1.1,1.2,1.4,3,0.7,4.5c0,0-0.6,1.4-1.4,3.3 c13.3-4.3,32.7-16.3,32.4-49.3c-24.2-24.6-52-17.5-66.8-10.8c1.9,1.5,4,2.7,4.9,3.2c1.3,0.7,2.2,2,2.3,3.5c0.1,1.5-0.7,2.9-1.9,3.7 c-0.2,0.1-16.2,10.6-25.9,31.3c7.5,4.8,29.8,17.1,51.2,9.5C83,143.6,83.2,143.6,83.5,143.5z M81,162.5c-1.3,0.2-2.6-0.2-3.5-1.2 c-1-1-1.4-2.3-1.1-3.7c0.2-1.3,0.6-2.7,1-4c-27.6,4.7-52.5-13.8-53.6-14.7c-1.5-1.1-2-3.1-1.3-4.9c7.4-17.6,18.8-28.9,25.4-34.4 c-2.1-1.6-4.4-3.6-6.1-6.1c-0.7-1-0.9-2.2-0.6-3.3c0.3-1.1,1-2.1,2-2.6c11.2-6.1,50.4-23.2,82.7,11.1c0.7,0.7,1.1,1.7,1.1,2.7 c1.4,48.4-34.8,58.9-45.9,61C81.1,162.5,81.1,162.5,81,162.5z"/> <path fill="#ffffff" d="M111.1,121.3c1.4-38,9.7-64.7,29.5-79L151,60.9c21.7-25.2,64.8-3.5,64.8-3.5s0,32.4-10,43.7"/> <path fill="#97c240" d="M133.7,118c1.4-38,9.7-64.7,29.5-79l10.4,18.5c21.7-25.2,64.8-3.5,64.8-3.5s-3.3,39.8-13.3,51.2 c-10,11.3-13.5,4.1-13.5,4.1"/> <path fill="#333333" d="M116.4,117.8c1.6-41.9,11.5-68,31.3-82.3c1-0.7,2.3-1,3.5-0.7c1.2,0.3,2.2,1,2.8,2.1l7.6,13.6 c24.3-20.7,63.9-1.2,65.7-0.2c1.5,0.7,2.4,2.2,2.4,3.9c0,3.5-3.5,39.7-14.3,51.9c-1.6,1.8-3.7,1.6-5.5,0c-1.8-1.6-1.6-5.4,0-7.2 c6.6-7.5,10.8-31.8,11.1-41.9c-9-3.9-40.6-15.5-57.1,3.5c-0.9,1.1-2.3,1.6-3.7,1.5c-1.4-0.1-2.6-1-3.3-2.2l-7.9-14 C134,58.8,126.3,82.1,125,118.1c-0.1,2.3-2,4.2-4.3,4.2C118.1,122.2,116.3,120.2,116.4,117.8L116.4,117.8z"/> <path fill="#333333" d="M121.2,103c0,0-0.1,0-0.1,0c-2.2,0.8-4.7-0.3-5.6-2.5c-0.1-0.4-14.9-39.2-36.2-52.1c-2-1.2-2.7-3.9-1.5-6 c1.2-2,3.9-2.7,6-1.5c23.8,14.4,39.2,54.8,39.8,56.5C124.4,99.6,123.3,102.1,121.2,103"/> <path fill="#ffffff" d="M156.1,149.1c0,26.9-21.8,48.7-48.7,48.7S58.7,176,58.7,149.1c0-26.9,21.8-48.7,48.7-48.7 S156.1,122.2,156.1,149.1"/> <path fill="#555ca7" d="M155.5,156.1c0,26.9-21.8,48.7-48.7,48.7c-26.9,0-48.7-21.8-48.7-48.7s21.8-48.7,48.7-48.7 C133.7,107.4,155.5,129.2,155.5,156.1"/> <path fill="#333333" d="M103.2,102.3c-24.5,0-44.3,19.9-44.3,44.3c0,24.5,19.9,44.3,44.3,44.3c24.5,0,44.3-19.9,44.3-44.3 C147.5,122.2,127.6,102.3,103.2,102.3z M103.2,199.8c-29.3,0-53.1-23.8-53.1-53c0-29.3,23.8-53,53.1-53c29.3,0,53.1,23.8,53.1,53 C156.2,176,132.4,199.8,103.2,199.8z"/> <path fill="#ffffff" d="M107.5,186.7c-2.4,0-4.4-1.9-4.4-4.4c0-2.4,1.9-4.4,4.4-4.4c9.1,0,16.5-7.4,16.5-16.5 c0-2.4,1.9-4.4,4.4-4.4c2.4,0,4.4,2,4.4,4.4C132.7,175.4,121.4,186.7,107.5,186.7"/> <path fill="#ffffff" d="M83.8,122.6c0,2.1,1.7,3.9,3.9,3.9s3.9-1.7,3.9-3.9s-1.7-3.9-3.9-3.9S83.8,120.5,83.8,122.6z"/> <path fill="#ffffff" d="M232.8,153.4c0,26.9-21.8,48.7-48.7,48.7s-48.7-21.8-48.7-48.7s21.8-48.7,48.7-48.7 S232.8,126.5,232.8,153.4"/> <path fill="#555ca7" d="M236.9,156.1c0,26.9-21.8,48.7-48.7,48.7c-26.9,0-48.7-21.8-48.7-48.7s21.8-48.7,48.7-48.7 C215.1,107.4,236.9,129.2,236.9,156.1"/> <path fill="#333333" d="M184.6,102.3c-24.5,0-44.3,19.9-44.3,44.3c0,24.5,19.9,44.3,44.3,44.3s44.3-19.9,44.3-44.3 C228.9,122.2,209,102.3,184.6,102.3z M184.6,199.8c-29.3,0-53.1-23.8-53.1-53c0-29.3,23.8-53,53.1-53c29.3,0,53.1,23.8,53.1,53 C237.6,176,213.8,199.8,184.6,199.8z"/> <path fill="#ffffff" d="M195.8,178.7c-2.4,0-4.4-1.9-4.4-4.4c0-2.4,1.9-4.4,4.4-4.4c9.1,0,16.5-7.4,16.5-16.5 c0-2.4,1.9-4.4,4.4-4.4c2.4,0,4.4,2,4.4,4.4C221,167.4,209.7,178.7,195.8,178.7"/> <path fill="#ffffff" d="M165.2,122.6c0,2.1,1.7,3.9,3.9,3.9c2.1,0,3.9-1.7,3.9-3.9s-1.7-3.9-3.9-3.9 C166.9,118.8,165.2,120.5,165.2,122.6z"/> <path fill="#8585bf" d="M92.2,203.3h5.6c-2.1-1.8,1-3.3-0.4-4.5l-1.8-7.8c-0.7-0.6-0.9-1.4-0.7-2.1l2.5-9.2 c0.4-1.5-1.3-3.3-3.1-2.8l-10.6,2c-0.9,0.1-1.8-0.1-2.4-0.7l-7.5-6.8c-1.4-1.3-3.7-0.9-4.1,0.9l-2.4,8.6c-0.1,0.7-0.9,1.3-1.7,1.4 l-9.9,1.8c-1.8,0.3-2.4,2.4-1,3.7l7.5,6.8c0.7,0.6,0.9,1.4,0.7,2.1l-2.5,9.2c-0.4,1.5,1.3,3.3,3.1,2.8l10.6-2 c0.9-0.1,1.8,0.1,2.4,0.7l7.5,6.8c1.4,1.3,3.7,0.9,4.1-0.9l2.4-8.6C90.8,204,91.4,203.4,92.2,203.3L92.2,203.3z"/> <path fill="#555ca7" d="M96.4,199.4l9.9-1.8c1.8-0.3,2.4-2.4,1-3.7l-7.5-6.8c-0.7-0.6-0.9-1.4-0.7-2.1l2.5-9.2 c0.4-1.5-1.3-3.3-3.1-2.8l-10.6,2c-0.9,0.1-1.8-0.1-2.4-0.7l-7.5-6.8c-1.4-1.3-3.7-0.9-4.1,0.9l-2.4,8.6c-0.1,0.7-0.9,1.3-1.7,1.4 l-9.9,1.8c-1.8,0.3-2.4,2.4-1,3.7l7.5,6.8c0.7,0.6,0.9,1.4,0.7,2.1l-2.5,9.2c-0.4,1.5,1.3,3.3,3.1,2.8l10.6-2 c0.9-0.1,1.8,0.1,2.4,0.7l7.5,6.8c1.4,1.3,3.7,0.9,4.1-0.9l2.4-8.6C94.8,200.2,95.5,199.6,96.4,199.4L96.4,199.4z"/> <path fill="#ffffff" d="M76.9,171.7c0,0,3.9,6.2,8.6,7.8c2.8,1,10.7-1.4,10.7-1.4s-2.7,6.1-1.5,9.9c1,3.5,7.5,6.5,7.5,6.5l-5.1-5.5 l1-12.3l-11.5,0.6L76.9,171.7z"/> <path fill="#353941" d="M77.5,173.6l5.5,5c1.1,1,2.5,1.5,3.9,1.5c0.4,0,0.8,0,1.1-0.1l7.9-1.5l-1.8,6.2c-0.5,1.9,0.1,3.9,1.7,5.3 l4.4,4.1l-5.9,1.1c-2,0.4-3.7,1.8-4.2,3.7l-1.7,5.7l-5.5-5c-1.1-1-2.5-1.5-3.9-1.5c-0.4,0-0.8,0-1.1,0.1l-7.9,1.5l1.8-6.2 c0.5-1.9-0.1-3.9-1.7-5.3l-4.4-4.1l5.9-1.1c2-0.4,3.7-1.8,4.2-3.7L77.5,173.6z M76.1,167c-1,0-2,0.6-2.3,1.5l-2.4,8.6 c-0.1,0.7-0.9,1.3-1.7,1.4l-9.9,1.8c-1.8,0.3-2.4,2.4-1,3.7l7.5,6.8c0.7,0.6,0.9,1.4,0.7,2.1l-2.5,9.2c-0.4,1.4,1,2.8,2.7,2.8h0.6 l10.6-2H79c0.7,0,1.4,0.3,2,0.7l7.5,6.8c0.6,0.6,1.3,0.7,2,0.7c1,0,2-0.6,2.3-1.5l2.4-8.6c0.1-0.7,0.9-1.3,1.7-1.4l9.9-1.8 c1.8-0.3,2.4-2.4,1-3.7l-7.5-6.8c-0.7-0.6-0.9-1.4-0.7-2.1l2.5-9.2c0.4-1.4-1-2.8-2.7-2.8h-0.6l-10.6,2h-0.6c-0.7,0-1.4-0.3-2-0.7 l-7.5-6.8C77.6,167.3,76.9,167,76.1,167z"/> <path fill="#ffffff" d="M81.4,195.3c2.6,0.7,5.3,0.2,7.1-1.3c1.8-1.6,2.5-3.9,1.8-6.3c-0.7-2.3-2.8-4.2-5.4-4.9 c-2.6-0.7-5.3-0.2-7.1,1.3c-1.8,1.6-2.5,3.9-1.8,6.3C76.8,192.7,78.9,194.6,81.4,195.3z"/> <path fill="#353941" d="M82.7,186.2c0.4,0,0.9,0,1.3,0.1c2,0.6,3.3,2.3,2.8,3.7c-0.3,1-1.5,1.7-3,1.7c-0.4,0-0.9,0-1.4-0.1 c-1-0.3-2-1-2.5-1.7c-0.3-0.4-0.6-1.1-0.4-1.8C79.8,187,81.1,186.2,82.7,186.2z M82.7,182.5c-3.1,0-5.8,1.7-6.7,4.5 c-1,3.4,1.4,7.2,5.4,8.3c0.9,0.3,1.5,0.3,2.4,0.3c3.1,0,5.8-1.7,6.7-4.5c1-3.4-1.4-7.2-5.4-8.3C84.2,182.6,83.3,182.5,82.7,182.5z" /> <path fill="#8585bf" d="M184.7,208.3h5.6c-2.1-1.8,1-3.3-0.4-4.5L188,196c-0.7-0.6-0.9-1.4-0.7-2.1l2.5-9.2 c0.4-1.5-1.3-3.3-3.1-2.8l-10.6,2c-0.9,0.1-1.8-0.1-2.4-0.7l-7.5-6.8c-1.4-1.3-3.7-0.9-4.1,0.9l-2.4,8.6c-0.1,0.7-0.9,1.3-1.7,1.4 l-9.9,1.8c-1.8,0.3-2.4,2.4-1,3.7l7.5,6.8c0.7,0.6,0.9,1.4,0.7,2.1l-2.5,9.2c-0.4,1.5,1.3,3.3,3.1,2.8l10.6-2 c0.9-0.1,1.8,0.1,2.4,0.7l7.5,6.8c1.4,1.3,3.7,0.9,4.1-0.9l2.4-8.6C183.2,209,183.8,208.4,184.7,208.3L184.7,208.3z"/> <path fill="#555ca7" d="M188.8,204.4l9.9-1.8c1.8-0.3,2.4-2.4,1-3.7l-7.5-6.8c-0.7-0.6-0.9-1.4-0.7-2.1l2.5-9.2 c0.4-1.5-1.3-3.3-3.1-2.8l-10.6,2c-0.9,0.1-1.8-0.1-2.4-0.7l-7.5-6.8c-1.4-1.3-3.7-0.9-4.1,0.9L164,182c-0.1,0.7-0.9,1.3-1.7,1.4 l-9.9,1.8c-1.8,0.3-2.4,2.4-1,3.7l7.5,6.8c0.7,0.6,0.9,1.4,0.7,2.1l-2.5,9.2c-0.4,1.5,1.3,3.3,3.1,2.8l10.6-2 c0.9-0.1,1.8,0.1,2.4,0.7l7.5,6.8c1.4,1.3,3.7,0.9,4.1-0.9l2.4-8.6C187.2,205.1,188,204.6,188.8,204.4L188.8,204.4z"/> <path fill="#ffffff" d="M169.3,176.7c0,0,3.9,6.2,8.6,7.8c2.8,1,10.7-1.4,10.7-1.4s-2.7,6.1-1.5,9.9c1,3.5,7.5,6.5,7.5,6.5 l-5.1-5.5l1-12.3l-11.5,0.6L169.3,176.7z"/> <path fill="#353941" d="M170,178.7l5.4,4.9c1.1,1,2.5,1.5,3.9,1.5c0.4,0,0.7,0,1.1-0.1l7.8-1.5l-1.8,6.2c-0.5,1.9,0.1,3.9,1.6,5.3 l4.4,4l-5.8,1.1c-2,0.4-3.6,1.8-4.2,3.6l-1.6,5.7l-5.4-4.9c-1.1-1-2.5-1.5-3.9-1.5c-0.4,0-0.7,0-1.1,0.1l-7.8,1.5l1.8-6.2 c0.5-1.9-0.1-3.9-1.6-5.3l-4.4-4l5.8-1.1c2-0.4,3.6-1.8,4.2-3.6L170,178.7z M168.6,172c-1,0-2,0.6-2.3,1.5l-2.4,8.6 c-0.1,0.7-0.9,1.3-1.7,1.4l-9.9,1.8c-1.8,0.3-2.4,2.4-1,3.7l7.5,6.8c0.7,0.6,0.9,1.4,0.7,2.1l-2.5,9.2c-0.4,1.4,1,2.8,2.7,2.8h0.6 l10.6-2h0.6c0.7,0,1.4,0.3,2,0.7l7.5,6.8c0.6,0.6,1.3,0.7,2,0.7c1,0,2-0.6,2.3-1.5l2.4-8.6c0.1-0.7,0.9-1.3,1.7-1.4l9.9-1.8 c1.8-0.3,2.4-2.4,1-3.7l-7.5-6.8c-0.7-0.6-0.9-1.4-0.7-2.1l2.5-9.2c0.4-1.4-1-2.8-2.7-2.8h-0.6l-10.6,2H180c-0.7,0-1.4-0.3-2-0.7 l-7.5-6.8C170,172.3,169.3,172,168.6,172z"/> <path fill="#ffffff" d="M173.9,200.3c2.6,0.7,5.3,0.2,7.1-1.3c1.8-1.6,2.5-3.9,1.8-6.3c-0.7-2.3-2.8-4.2-5.4-4.9 c-2.6-0.7-5.3-0.2-7.1,1.3c-1.8,1.6-2.5,3.9-1.8,6.3C169.3,197.7,171.3,199.6,173.9,200.3z"/> <path fill="#353941" d="M175.1,191.1c0.4,0,0.9,0,1.3,0.1c2,0.6,3.3,2.3,2.8,3.7c-0.3,1-1.5,1.7-3,1.7c-0.4,0-0.9,0-1.4-0.1 c-1-0.3-2-1-2.5-1.7c-0.3-0.4-0.6-1.1-0.4-1.8C172.3,192,173.5,191.1,175.1,191.1z M175.1,187.5c-3.1,0-5.8,1.7-6.7,4.5 c-1,3.4,1.4,7.2,5.4,8.3c0.9,0.3,1.5,0.3,2.4,0.3c3.1,0,5.8-1.7,6.7-4.5c1-3.4-1.4-7.2-5.4-8.3 C176.6,187.6,175.8,187.5,175.1,187.5z"/> <path fill="#b7e1f1" d="M21.3,71.8c-1.2,0.4-2.2,1-3.1,1.8c1.2,0.4,2.2,1.3,2.6,2.5c0.7,2-0.4,4.2-2.5,4.9c-1,0.4-2.1,0.2-3-0.2 c0,0.7,0.2,1.5,0.4,2.2c1.5,4.6,6.5,7.1,11.1,5.6c4.6-1.5,7.1-6.5,5.6-11.1C30.9,72.8,25.9,70.3,21.3,71.8z"/> <path fill="#573188" d="M26.1,77.8c0.3,0.9,0.4,1.9,0.3,2.9c-0.4,2.8-2.8,5.1-5.6,5.4c-4,0.4-7.3-3-6.9-6.9 c0.3-2.8,2.5-5.2,5.3-5.6c1-0.2,2-0.1,2.9,0.2c0.7,0.2,1.4,0.1,1.9-0.4l0.1-0.1c1-0.9,0.7-2.7-0.7-3.1c-1.2-0.4-2.5-0.6-3.9-0.5 c-5,0.4-9.1,4.4-9.4,9.4c-0.4,6.4,5.2,11.6,11.7,10.7c4.3-0.6,7.7-4,8.4-8.3c0.3-1.7,0.1-3.4-0.4-4.9c-0.4-1.3-2-1.8-3.1-0.8 C26.1,76.4,25.9,77.1,26.1,77.8L26.1,77.8z M227.7,27.5c-3.9,0-7,3.1-7,7c0,3.9,3.1,7,7,7c3.9,0,7-3.1,7-7 C234.7,30.6,231.6,27.5,227.7,27.5z M227.7,37c-1.4,0-2.5-1.1-2.5-2.5s1.1-2.5,2.5-2.5c1.4,0,2.5,1.1,2.5,2.5S229.1,37,227.7,37z" /> <path fill="#a995c1" d="M230.5,209h4.4c0.9,0,1.6,0.7,1.6,1.6c0,0.9-0.7,1.6-1.6,1.6h-4.4c-0.9,0-1.6-0.7-1.6-1.6 C228.9,209.7,229.6,209,230.5,209z M236.1,217.3v-4.4c0-0.9,0.7-1.6,1.6-1.6s1.6,0.7,1.6,1.6v4.4c0,0.9-0.7,1.6-1.6,1.6 C236.8,218.9,236.1,218.2,236.1,217.3z M244.4,211.8H240c-0.9,0-1.6-0.7-1.6-1.6s0.7-1.6,1.6-1.6h4.4c0.9,0,1.6,0.7,1.6,1.6 C246,211,245.3,211.8,244.4,211.8z M238.9,203.4v4.4c0,0.9-0.7,1.6-1.6,1.6s-1.6-0.7-1.6-1.6v-4.4c0-0.9,0.7-1.6,1.6-1.6 C238.2,201.8,238.9,202.5,238.9,203.4z"/> <path fill="#fadccb" d="M31.6,198.4c0,0.8,0.7,1.5,1.5,1.5c0.8,0,1.5-0.7,1.5-1.5s-0.7-1.5-1.5-1.5 C32.3,196.9,31.6,197.5,31.6,198.4z M42.9,197.5c0,0.8,0.7,1.5,1.5,1.5c0.8,0,1.5-0.7,1.5-1.5s-0.7-1.5-1.5-1.5 C43.6,196,42.9,196.7,42.9,197.5z M36.9,193.4c0,0.8,0.7,1.5,1.5,1.5c0.8,0,1.5-0.7,1.5-1.5c0-0.8-0.7-1.5-1.5-1.5 C37.6,191.9,36.9,192.6,36.9,193.4z M37.1,203.6c0,0.8,0.7,1.5,1.5,1.5c0.8,0,1.5-0.7,1.5-1.5s-0.7-1.5-1.5-1.5 C37.8,202.1,37.1,202.8,37.1,203.6z M31.9,190l4.7,4.7c0.5,0.5,0.5,1.3,0,1.8s-1.3,0.5-1.8,0l-4.7-4.7c-0.5-0.5-0.5-1.3,0-1.8 C30.6,189.5,31.4,189.5,31.9,190z M30.1,205l4.7-4.7c0.5-0.5,1.3-0.5,1.8,0c0.5,0.5,0.5,1.3,0,1.8l-4.7,4.7c-0.5,0.5-1.3,0.5-1.8,0 C29.6,206.3,29.6,205.5,30.1,205z M45.6,206.6l-4.7-4.7c-0.5-0.5-0.5-1.3,0-1.8s1.3-0.5,1.8,0l4.7,4.7c0.5,0.5,0.5,1.3,0,1.8 C46.9,207,46.1,207,45.6,206.6z M46.9,191.3l-4.7,4.7c-0.5,0.5-1.3,0.5-1.8,0c-0.5-0.5-0.5-1.3,0-1.8l4.7-4.7 c0.5-0.5,1.3-0.5,1.8,0C47.4,190,47.4,190.8,46.9,191.3z"/></g>
</svg>