<?xml version="1.0" encoding="utf-8"?>
<!-- Svg Vector Icons : http://www.onlinewebfonts.com/icon -->
<!DOCTYPE svg PUBLIC "-//W3C//DTD SVG 1.1//EN" "http://www.w3.org/Graphics/SVG/1.1/DTD/svg11.dtd">
<svg version="1.1" xmlns="http://www.w3.org/2000/svg" xmlns:xlink="http://www.w3.org/1999/xlink" x="0px" y="0px" viewBox="0 0 256 256" enable-background="new 0 0 256 256" xml:space="preserve">
<metadata> Svg Vector Icons : http://www.onlinewebfonts.com/icon </metadata>
<g> <path fill="#fdf2da" d="M232.3,154.3c3.1-3.1,4.8-7.1,5-11.4c0.1-2.4-0.3-4.7-1.3-6.9c-0.2-0.5-0.4-1-0.6-1.5 c-1.4-3.1-4.1-7.7-9.1-11.5c-1.7-1.3-2.1-3.8-0.7-5.6c1.3-1.7,3.8-2.1,5.6-0.7c1.9,1.4,3.5,3,4.9,4.5c0.1-0.3,0.3-0.6,0.4-0.9 c0.8-2,1.6-3.9,1.6-5.6c-0.3-8.7-8.1-16.3-17.2-16.5c-5.3-0.1-10.2,2.2-13.5,6.3c-4.4,5.6-10.9,8.7-17.8,8.7H66.9 c-7.4,0-14.3-3.5-18.5-9.4c-3.2-4.5-8.4-7.1-13.9-7c-4.3,0.1-8.4,1.8-11.5,4.9c-3.1,3.1-4.9,7.1-5,11.4c-0.1,2.4,0.3,4.7,1.3,6.9 c0.3,0.7,0.5,1.4,0.7,2.1v0c0,0,0.6,2,1.8,4.3c1,2,2.8,4.6,5.3,5.9c1.9,1.1,2.6,3.5,1.6,5.4c-0.7,1.3-2.1,2.1-3.5,2.1 c-0.7,0-1.3-0.2-1.9-0.5c-1.7-1-3.2-2.2-4.4-3.5c-0.6,1.8-0.9,3.8-0.8,5.7c0.1,4,1.9,8.1,5,11.1c3,3.1,7.1,4.9,11,5.1 c5.2,0.2,10.1-1.9,13.5-5.8c4.3-5,10.6-8,17.3-8h124.9c6.9,0,13.4,3.2,17.8,8.7c3.3,4.2,8.2,6.5,13.5,6.3 C225.2,159.1,229.2,157.4,232.3,154.3L232.3,154.3z M78.9,127.2H67.8c-2.2,0-4-1.8-4-4s1.8-4,4-4h11.1c2.2,0,4,1.8,4,4 S81.1,127.2,78.9,127.2z M138.7,127.2H98.5c-2.2,0-4-1.8-4-4s1.8-4,4-4h40.2c2.2,0,4,1.8,4,4S140.9,127.2,138.7,127.2z"/> <path fill="#5f3819" d="M242.9,131.7c-0.7-2.4-0.5-5,0.4-7.3c0.1-0.3,0.3-0.7,0.4-1c1.1-2.6,2.4-5.5,2.2-9 c-0.2-6.3-2.9-12.3-7.8-16.9c-4.8-4.5-10.8-7.1-17.2-7.2c-7.8-0.2-15,3.3-19.9,9.4c-2.9,3.6-7.1,5.7-11.6,5.7H66.9 c-4.8,0-9.4-2.3-12.1-6.1c-4.7-6.6-12.4-10.5-20.5-10.3C27.9,89,21.9,91.5,17.4,96c-4.5,4.5-7.2,10.5-7.3,16.8 c-0.1,3.5,0.5,7,1.9,10.2c1.2,2.8,1.2,5.8,0,8.6c-1.3,3.3-2,6.7-1.9,10.2c0.2,6.1,2.7,11.9,7.2,16.5c4.5,4.5,10.3,7.2,16.4,7.5 c7.6,0.3,14.9-2.8,19.8-8.6c2.8-3.3,6.9-5.2,11.2-5.2h124.9c4.5,0,8.7,2.1,11.6,5.7c4.7,6,11.8,9.4,19.3,9.4h0.5 c6.3-0.1,12.3-2.7,16.8-7.2s7.1-10.4,7.3-16.8c0.1-2.4-0.2-4.7-0.8-6.9C244.3,135.7,243.9,134,242.9,131.7L242.9,131.7z  M207.4,152.8c-4.4-5.6-10.9-8.8-17.8-8.8H64.7c-6.6,0-12.9,2.9-17.3,8c-3.4,3.9-8.3,6.1-13.5,5.8c-4-0.2-8-2-11-5.1 c-3-3.1-4.9-7.1-5-11.1c-0.1-2,0.2-3.9,0.8-5.7c1.3,1.3,2.7,2.6,4.4,3.5c0.6,0.3,1.3,0.5,1.9,0.5c1.4,0,2.7-0.7,3.5-2.1 c1.1-1.9,0.4-4.3-1.6-5.4c-2.5-1.4-4.3-4-5.3-5.9c-1.2-2.3-1.8-4.3-1.8-4.3v0c-0.2-0.7-0.4-1.4-0.7-2.1c-0.9-2.2-1.3-4.5-1.3-6.9 c0.1-4.3,1.9-8.4,5-11.4c3.1-3,7.2-4.8,11.5-4.9c5.5-0.1,10.7,2.5,13.9,7c4.2,5.9,11.1,9.4,18.5,9.4h122.7c6.9,0,13.4-3.2,17.8-8.7 c3.3-4.1,8.2-6.4,13.5-6.3c9.1,0.2,16.9,7.7,17.2,16.5c0.1,1.8-0.7,3.6-1.6,5.6c-0.1,0.3-0.3,0.6-0.4,0.9c-1.4-1.5-3-3.1-4.9-4.5 c-1.7-1.3-4.2-1-5.6,0.7c-1.3,1.7-1,4.2,0.7,5.6c5,3.8,7.7,8.4,9.1,11.5c0.2,0.5,0.3,1,0.6,1.5c0.9,2.2,1.3,4.5,1.3,6.9 c-0.1,4.3-1.9,8.3-5,11.4c-3.1,3.1-7.1,4.8-11.4,4.9C215.6,159.3,210.7,157,207.4,152.8z"/> <path fill="#5f3819" d="M78.9,119.3H67.8c-2.2,0-4,1.8-4,4s1.8,4,4,4h11.1c2.2,0,4-1.8,4-4S81.1,119.3,78.9,119.3z M138.7,119.3 H98.5c-2.2,0-4,1.8-4,4s1.8,4,4,4h40.2c2.2,0,4-1.8,4-4S140.9,119.3,138.7,119.3z"/></g>
</svg>