<?xml version="1.0" encoding="utf-8"?>
<!-- Svg Vector Icons : http://www.onlinewebfonts.com/icon -->
<!DOCTYPE svg PUBLIC "-//W3C//DTD SVG 1.1//EN" "http://www.w3.org/Graphics/SVG/1.1/DTD/svg11.dtd">
<svg version="1.1" xmlns="http://www.w3.org/2000/svg" xmlns:xlink="http://www.w3.org/1999/xlink" x="0px" y="0px" viewBox="0 0 256 256" enable-background="new 0 0 256 256" xml:space="preserve">
<metadata> Svg Vector Icons : http://www.onlinewebfonts.com/icon </metadata>
<g><g><g><path fill="#000000" d="M119.7,9.9c-0.9,0.1-3.6,0.4-6,0.7c-25.2,2.9-50.4,15.2-69.1,33.9c-18.7,18.7-30.4,42.4-34,69.1c-0.8,5.7-0.8,22.9,0,28.6c6,43.8,34.1,79.7,75.2,96.1c26.5,10.5,57.9,10.5,84.4,0c15.5-6.2,29.6-15.4,41.2-27c18.8-18.7,30.2-42,34.1-69.3c0.7-5.4,0.7-22.8,0-28.2c-3.2-22.7-11.8-42.8-25.5-59.8c-18.9-23.5-45.9-38.9-76-43.3C139.5,10.1,123,9.5,119.7,9.9z M144.2,18.7c18.4,2.7,36,10.1,50.8,21.2c5.1,3.8,15.8,14.2,19.5,19.1c21.2,27,28.8,62.3,20.7,95.8c-3.7,14.9-11.1,30.1-20.7,42.3c-3.3,4.2-13.3,14.2-17.5,17.5c-5.7,4.5-13.2,9.1-20.3,12.7c-3.8,1.8-7.5,3.5-8.3,3.7l-1.3,0.3l0.2-12.9c0.2-10.2,0.4-14,1.2-18.2c2.3-12.6,7.8-24.8,16.2-35.8c1.2-1.5,4.8-5.6,8.1-9c3.3-3.4,7-7.6,8.2-9.3c3-4.3,6.6-12,8-17.4c1.1-4.1,1.2-5.4,1.2-12.4c0-7-0.1-8.3-1.2-12.3c-2.4-9.2-7.1-17-14.4-24.2c-7.4-7.3-15.6-11.7-25.1-13.7c-6.3-1.3-16.7-1-23.6,0.7c-12.5,3.1-25,3.1-37-0.2c-5.4-1.5-16.8-1.7-22.7-0.5c-18.6,3.8-34.5,19-39.6,37.7c-1.1,4.2-1.2,5.4-1.2,12.5c0,7,0.1,8.4,1.2,12.4c1.4,5.4,5,13.1,8,17.4c1.2,1.7,4.9,5.9,8.2,9.3c8.8,9.1,13.5,15.7,17.8,24.6c5.9,12.5,7.9,22.6,7.9,41.7v9.6l-1.2-0.3c-2.6-0.6-15.3-7.2-20.2-10.4c-7.5-4.9-10.9-7.8-17.8-14.7c-9.5-9.5-15.2-17.7-21.1-29.8c-4.8-9.9-8-20.6-9.7-32.1c-1.1-7.4-1.1-24,0-31.4c2.3-15.2,7.6-29.8,15.3-42.5c7.8-12.8,19.8-25.2,32.3-33.5c5.4-3.6,15-8.6,20.9-10.9c8.7-3.5,20.1-6.2,30-7.2C122.9,17.4,138.3,17.8,144.2,18.7z M107.3,74.1c15,3.4,28.3,3.4,41.6-0.1c9.1-2.4,20.1-1.4,28.8,2.6c9.7,4.4,18,13.1,21.9,22.9c4.5,11.4,4.2,25.2-1,35.4c-2.5,4.9-5,8.2-11.5,14.9c-9.3,9.6-13.9,16.1-19,26.8c-6.7,13.9-8.7,24.8-8.7,46.1v11l-2.4,0.7c-8.5,2.4-18.1,3.7-29,3.7c-10.9,0-20.5-1.2-29-3.7l-2.4-0.7v-11c0-15.6-0.8-22.9-3.5-32.5c-3-10.6-8.4-21.2-15.5-30.5c-1.6-2.1-5.7-6.7-9.1-10.3c-8.4-8.7-11.3-13.2-13.7-21.3c-1.4-4.9-2-13.4-1.2-18.6c3-19.5,18.6-34.4,38.3-36.5C96.7,72.5,101.4,72.8,107.3,74.1z"/><path fill="#000000" d="M117.6,85.6c-3.8,3.3,1,9,5,5.8c0.9-0.7,1.2-1.3,1.2-2.7c0-2.2-1.2-3.7-3.3-4C119.3,84.4,118.7,84.6,117.6,85.6z"/><path fill="#000000" d="M137.2,85.8c-1.4,1.4-1.7,2.7-0.8,4.3c1.9,3.7,7.3,2.4,7.3-1.7c0-1.2-0.3-1.8-1.4-2.8C140.4,84.1,138.9,84.2,137.2,85.8z"/><path fill="#000000" d="M70,89.8c-1.5,1.4-1.5,3.5,0,5.1c2.3,2.7,6.7,0.9,6.7-2.6C76.7,89.1,72.4,87.4,70,89.8z"/><path fill="#000000" d="M177.6,92.8c-1.3,0.6-2.6,3-2.2,4.3c0.1,0.6,0.7,1.5,1.2,2c2,2.3,6.3,0.6,6.3-2.4c0-2.2-0.4-3-1.9-3.7C179.6,92.3,179,92.2,177.6,92.8z"/><path fill="#000000" d="M125.2,97.7c-3,3.2,0.6,8,4.5,6.1c1.5-0.7,2.5-3,2.1-4.3C130.8,96.4,127.3,95.5,125.2,97.7z"/><path fill="#000000" d="M71.3,100.7c-3.9,1.6-2.8,7.4,1.4,7.4c3.7,0,5.2-3.9,2.6-6.5C74,100.2,73.1,100,71.3,100.7z"/><path fill="#000000" d="M59.1,108.8c-3.5,1.9-2.1,7.2,1.9,7.2c2.1,0,3.7-1.5,3.7-3.6c0-2.1-0.4-2.9-1.9-3.6C61.2,107.9,60.6,107.9,59.1,108.8z"/><path fill="#000000" d="M177.4,108.8c-3.5,1.9-2.1,7.2,1.9,7.2c2.1,0,3.7-1.5,3.7-3.6c0-2.1-0.4-2.9-1.9-3.6C179.5,107.9,178.9,107.9,177.4,108.8z"/><path fill="#000000" d="M193.4,108.6c-1.5,0.8-2.1,1.8-2.1,3.6c0,4.4,6.1,5.1,7.5,0.8c0.5-1.3-0.6-3.6-2-4.3C195.3,107.9,194.6,107.9,193.4,108.6z"/><path fill="#000000" d="M137.3,113.1c-2.1,2-1.7,4.9,0.9,6.4c2.4,1.3,5.5-0.6,5.5-3.5C143.7,112.8,139.7,111,137.3,113.1z"/></g></g></g>
</svg>