<svg width="100pt" height="100pt" version="1.1" viewBox="-20 -20 140 140" xmlns="http://www.w3.org/2000/svg" data-icon="true" fill="#000000">
 <g>
  <path d="m14.141 30.859-0.70312 36.875c-0.078125 3.75-2.3438 5.3125-2.5 5.3906-2.0156 1.3594-3.7852 3.0508-5.2344 5-3.5156 4.9219-3.4375 11.172 0.23438 15.234 2.832 3.3047 6.9766 5.1914 11.328 5.1562 2.3281-0.007813 4.6367-0.46094 6.7969-1.3281 1.7969 1.5625 5.0781 2.8125 8.5156 2.8125l1.875-0.15625c3.125-0.39062 8.5938-2.3438 11.016-10.469 0.34375-1.2188 0.47656-2.4883 0.39062-3.75l-3.2812-1.0938c0.28125 1.3203 0.22656 2.6914-0.15625 3.9844-1.7969 6.0938-5.5469 7.8906-8.4375 8.2812s-6.5625-0.78125-7.8125-1.7969c-2.3438-2.4219-2.5781-5.1562-0.625-8.5938 0.24609-0.36328 0.32422-0.81641 0.21875-1.2422-0.10547-0.42969-0.38281-0.79297-0.76953-1-0.38672-0.21094-0.84375-0.25-1.2617-0.10547-0.41406 0.14453-0.75 0.45703-0.92188 0.86328-1.9531 3.5938-2.1875 6.875-0.70312 9.7656-2.8125 1.0156-8.8281 2.2656-13.828-3.3594-2.6562-2.9688-2.7344-7.6562 0-11.328 1.2344-1.6484 2.7422-3.0742 4.4531-4.2188 0.15625-0.078125 3.8281-2.4219 3.9062-7.9688l0.70312-36.719c0.15625-1.0156 0.46875-4.8438-3.9844-8.5156-1.6406-1.3281-5.7031-6.0156-4.2188-11.016s5.5469-7.9688 8.3594-8.3594 6.5625 0.78125 7.8125 1.7969c2.3438 2.4219 2.5781 5.1562 0.625 8.5938-0.40625 0.75391-0.125 1.6953 0.625 2.1094l0.78125 0.23438c0.57812 0.019531 1.1172-0.28125 1.4062-0.78125 1.9531-3.5938 2.1875-6.875 0.70312-9.7656 2.7344-1.0156 8.8281-2.2656 13.828 3.3594 2.6562 2.9688 2.7344 7.6562 0 11.328-1.2344 1.6484-2.7422 3.0742-4.4531 4.2188-0.15625 0.078125-3.8281 2.4219-3.9062 7.9688v0.15625c1.1133-0.89062 2.2891-1.6992 3.5156-2.4219 0.34375-1.2422 1.0859-2.3398 2.1094-3.125 2.043-1.3516 3.8398-3.043 5.3125-5 3.5156-4.9219 3.4375-11.172-0.23438-15.234-6.7188-7.4219-15.078-5.0781-18.125-3.8281h-0.078125c-2.1094-1.875-6.25-3.2812-10.312-2.6562s-8.5938 2.3438-11.016 10.469c-1.875 6.4062 2.5781 12.188 5.2344 14.375s2.8906 5.3906 2.8906 5.4688c-0.042969 0.125-0.070312 0.25781-0.078125 0.39062z"></path>
  <path d="m77.969 86.25 5.1562-5 0.85938-0.78125 10.234 10.312c0.27344 0.36328 0.6875 0.58984 1.1406 0.62109 0.44922 0.03125 0.89453-0.13281 1.2148-0.45312 0.32031-0.32031 0.48438-0.76562 0.45312-1.2148-0.03125-0.45312-0.25781-0.86719-0.62109-1.1406l-10.469-10.547c-1.0859-1.0352-2.7812-1.0703-3.9062-0.078125l-5.9375-5.7812c5.332-7.4375 6.5898-17.051 3.3516-25.613-3.2383-8.5586-10.547-14.93-19.469-16.973-8.9219-2.043-18.273 0.51172-24.918 6.8086-6.6406 6.2969-9.6914 15.5-8.1289 24.516 1.5625 9.0195 7.5352 16.656 15.91 20.348 8.375 3.6953 18.043 2.9531 25.754-1.9766l6.0156 5.8594c-1.0312 1.1094-0.99609 2.8359 0.078125 3.9062l10.469 10.469c0.27344 0.36328 0.6875 0.58984 1.1406 0.62109 0.44922 0.03125 0.89453-0.13281 1.2148-0.45312 0.32031-0.32031 0.48438-0.76562 0.45312-1.2148-0.03125-0.45312-0.25781-0.86719-0.62109-1.1406l-10.234-10.312 0.78125-0.78125zm-41.172-12.891c-4.5469-4.5391-7.1055-10.699-7.1094-17.125s2.5469-12.59 7.0898-17.137c4.5391-4.543 10.703-7.0977 17.129-7.0977s12.59 2.5547 17.129 7.0977c4.543 4.5469 7.0938 10.711 7.0898 17.137s-2.5625 12.586-7.1094 17.125c-4.5391 4.5312-10.695 7.0781-17.109 7.0781s-12.57-2.5469-17.109-7.0781zm36.484 2.1875 0.85938-0.9375 5.625 5.4688-2.8906 2.8125-5.7031-5.5469z"></path>
  <path d="m68.828 41.328c-3.957-3.9531-9.3203-6.1719-14.914-6.1719s-10.957 2.2266-14.914 6.1797c-3.9531 3.957-6.1758 9.3203-6.1758 14.914s2.2227 10.957 6.1758 14.914c3.957 3.9531 9.3203 6.1797 14.914 6.1797s10.957-2.2188 14.914-6.1719c4-3.9375 6.25-9.3125 6.25-14.922s-2.25-10.984-6.25-14.922zm-2.1875 27.656c-3.3672 3.375-7.9375 5.2695-12.707 5.2734-4.7656 0.003907-9.3398-1.8906-12.711-5.2578-3.3711-3.3711-5.2656-7.9453-5.2656-12.711 0-4.7656 1.8945-9.3398 5.2656-12.711 3.3711-3.3672 7.9453-5.2617 12.711-5.2578 4.7695 0.003907 9.3398 1.8984 12.707 5.2734 3.3633 3.3672 5.2539 7.9336 5.2539 12.695 0 4.7617-1.8906 9.3281-5.2539 12.695z"></path>
  <path d="m61.719 51.562h-3.0469v-3.125c0-0.82812-0.32812-1.625-0.91406-2.2109-0.58594-0.58594-1.3828-0.91406-2.2109-0.91406h-3.125c-1.7266 0-3.125 1.3984-3.125 3.125v3.125h-3.2031c-1.7266 0-3.125 1.3984-3.125 3.125v3.125c0 0.82812 0.32812 1.625 0.91406 2.2109 0.58594 0.58594 1.3828 0.91406 2.2109 0.91406h3.2031v3.125c0 0.82812 0.32812 1.625 0.91406 2.2109 0.58594 0.58594 1.3828 0.91406 2.2109 0.91406h3.125c0.82812 0 1.625-0.32812 2.2109-0.91406 0.58594-0.58594 0.91406-1.3828 0.91406-2.2109v-3.125h3.0469c0.82812 0 1.625-0.32812 2.2109-0.91406 0.58594-0.58594 0.91406-1.3828 0.91406-2.2109v-3.125c0-0.82812-0.32812-1.625-0.91406-2.2109-0.58594-0.58594-1.3828-0.91406-2.2109-0.91406zm0 6.25h-4.6094c-0.86328 0-1.5625 0.69922-1.5625 1.5625v4.6875h-3.125v-4.6875c0-0.41406-0.16406-0.8125-0.45703-1.1055-0.29297-0.29297-0.69141-0.45703-1.1055-0.45703h-4.7656v-3.125h4.7656c0.41406 0 0.8125-0.16406 1.1055-0.45703 0.29297-0.29297 0.45703-0.69141 0.45703-1.1055v-4.6875h3.125v4.6875c0 0.41406 0.16406 0.8125 0.45703 1.1055 0.29297 0.29297 0.69141 0.45703 1.1055 0.45703h4.6094z"></path>
 </g>
</svg>