<?xml version="1.0" encoding="UTF-8" standalone="no"?><!-- Generator: Gravit.io --><svg xmlns="http://www.w3.org/2000/svg" xmlns:xlink="http://www.w3.org/1999/xlink" style="isolation:isolate" viewBox="338 418 236 142.817" width="236pt" height="142.817pt"><g><path d=" M 506.1 560.817 L 406 560.817 C 401 560.817 396.9 556.717 396.9 551.717 L 396.9 542.517 L 393.3 540.617 C 393.2 540.617 393.1 540.517 393.1 540.517 C 358.6 518.717 338 481.417 338 440.717 L 338 428.817 C 338 422.917 342.8 418.017 348.8 418.017 L 366.9 418.017 C 369 417.817 370.8 419.417 370.9 421.517 C 371.1 423.617 369.5 425.417 367.4 425.517 C 367.2 425.517 367 425.517 366.8 425.517 L 348.8 425.517 C 347 425.517 345.6 427.017 345.6 428.817 L 345.6 440.717 C 345.6 478.817 364.8 513.717 397 534.117 L 402.5 537.017 C 403.7 537.717 404.5 538.917 404.5 540.317 L 404.5 551.717 C 404.5 552.617 405.2 553.317 406.1 553.317 L 506.2 553.317 C 507.1 553.317 507.8 552.617 507.8 551.717 L 507.8 546.217 C 507.8 545.317 507.1 544.617 506.2 544.617 L 417.2 544.617 C 415.1 544.417 413.6 542.617 413.7 540.617 C 413.8 538.717 415.3 537.317 417.2 537.117 L 506.1 537.117 C 511.1 537.117 515.2 541.217 515.2 546.217 L 515.2 551.717 C 515.1 556.717 511.1 560.817 506.1 560.817 L 506.1 560.817 Z " fill="rgb(0,0,0)"/><path d=" M 521.7 537.917 C 519.6 537.917 517.9 536.217 518 534.117 C 518 532.917 518.6 531.817 519.6 531.117 C 549 510.417 566.5 476.717 566.5 440.717 L 566.5 428.817 C 566.5 427.017 565 425.517 563.2 425.517 L 563.2 425.517 L 382.6 425.517 C 380.5 425.317 379 423.517 379.1 421.517 C 379.2 419.617 380.7 418.217 382.6 418.017 L 563.2 418.017 C 569.1 418.017 574 422.817 574 428.817 L 574 440.717 C 574 479.117 555.3 515.117 523.9 537.217 C 523.2 537.717 522.5 537.917 521.7 537.917 Z " fill="rgb(0,0,0)"/><path d=" M 526.093 504.562 C 524.892 504.562 523.92 503.59 523.978 502.389 C 523.978 501.703 524.321 501.074 524.892 500.674 C 541.704 488.837 551.711 469.566 551.711 448.981 L 551.711 442.176 C 551.711 441.146 550.854 440.289 549.824 440.289 L 549.824 440.289 L 446.552 440.289 C 445.351 440.174 444.493 439.145 444.55 438.001 C 444.608 436.915 445.465 436.114 446.552 436 L 549.824 436 C 553.198 436 556 438.745 556 442.176 L 556 448.981 C 556 470.939 545.307 491.525 527.351 504.162 C 526.951 504.448 526.551 504.562 526.093 504.562 Z " fill="rgb(0,0,0)"/></g></svg>