<?xml version="1.0" encoding="UTF-8" standalone="no"?><!-- Generator: Gravit.io --><svg xmlns="http://www.w3.org/2000/svg" xmlns:xlink="http://www.w3.org/1999/xlink" style="isolation:isolate" viewBox="200 654 178 179.603" width="178pt" height="179.603pt"><g><g><path d=" M 370.93 776.603 L 291.33 833.003 C 290.73 833.403 290.13 833.603 289.43 833.603 C 288.93 833.603 288.43 833.503 287.93 833.203 C 287.73 833.103 287.63 833.003 287.53 832.903 L 287.43 833.003 L 207.83 776.603 L 206.43 774.003 L 206.43 719.003 L 206.63 718.903 L 206.63 718.903 C 206.63 717.803 207.13 716.903 207.93 716.203 L 251.33 684.903 C 251.63 684.703 252.03 684.503 252.33 684.403 L 262.13 677.303 L 241.73 662.603 C 240.53 661.803 240.03 660.303 240.53 658.903 C 241.03 657.503 242.23 656.603 243.73 656.703 L 284 672 C 284.7 672 285.3 672.2 285.8 672.6 L 357.73 716.203 C 358.33 716.603 367.8 712.503 368 713.103 C 368.6 713.803 372.23 717.603 372.23 718.503 C 372.23 718.703 372.43 718.803 372.43 718.903 L 372.43 773.903 C 372.33 775.003 371.83 776.003 370.93 776.603 L 370.93 776.603 Z " fill="rgb(0,0,0)"/><path d=" M 213.03 772.203 L 286.13 824.003 L 286.13 777.003 L 213.03 725.203 L 213.03 772.203 L 213.03 772.203 Z " fill="rgb(209,168,125)"/><path d=" M 251.03 693.103 L 215.53 718.703 L 289.53 771.103 L 325.03 745.503 L 251.03 693.103 L 251.03 693.103 Z " fill="rgb(222,190,151)"/><path d=" M 287.73 664.003 L 254.03 663.303 L 324.13 713.103 L 357.73 713.803 L 287.73 664.003 L 287.73 664.003 Z " fill="rgb(209,168,125)"/><path d=" M 365.83 725.203 L 292.83 777.003 L 292.83 824.003 L 365.83 772.203 L 365.83 725.203 L 365.83 725.203 Z " fill="rgb(199,133,99)"/><path d=" M 220.03 741.103 L 275.73 780.603 L 275.73 806.103 L 220.03 766.603 L 220.03 741.103 L 220.03 741.103 Z " fill="rgb(222,190,151)"/></g><g><path d=" M 346.408 706.904 L 305.164 676.877 L 288.953 665.096 C 268.52 650.357 235.495 650.411 215.212 665.206 C 194.929 680 194.929 703.89 215.212 718.685 L 288.953 772.273 L 362.694 718.685 L 362.694 718.685 L 346.408 706.904 Z " fill="rgb(231,92,91)"/><path d=" M 288.878 748.712 L 231.348 706.904 C 219.962 698.63 219.962 685.206 231.348 676.877 C 242.733 668.603 261.206 668.603 272.667 676.877 L 272.667 676.877 L 276.437 679.617 L 282.978 684.37 L 315.507 660 C 343.733 666 360.574 678.677 366 698 L 330.197 718.685 L 315.871 729.096 L 288.878 748.712 Z " fill="rgb(172,56,56)"/><path d=" M 362.619 665.164 C 342.135 650.279 308.907 650.279 288.424 665.164 C 288.424 665.164 288.424 665.164 288.424 665.164 C 288.197 665.329 287.893 665.55 287.665 665.715 C 287.59 665.77 287.438 665.881 287.362 665.936 C 287.362 665.936 287.286 665.991 287.286 665.991 C 287.059 666.156 286.831 666.322 286.603 666.487 C 286.3 666.763 275.907 679.553 275.831 679.719 Q 288.878 689.036 288.878 688.925 C 288.954 688.65 301.776 679.002 304.659 676.962 C 316.19 668.637 334.777 668.692 346.232 677.072 C 357.612 685.397 357.612 698.849 346.232 707.174 C 340.694 711.198 330.804 718.74 330.197 718.685 L 329.921 719.082 L 315.507 729.557 C 315.887 729.612 352.301 726.525 362.543 719.082 L 362.543 719.082 C 383.102 704.197 383.178 680.104 362.619 665.164 C 362.619 665.164 362.619 665.164 362.619 665.164 L 362.619 665.164 Z " fill="rgb(231,92,91)"/><path d=" M 272.113 677.072 L 288.424 665.219 L 304.735 677.072 L 288.424 688.925 L 272.113 677.072 Z  M 329.997 719.082 L 346.308 707.229 L 362.619 719.082 L 346.308 730.935 L 329.997 719.082 Z " fill="rgb(221,72,70)"/></g></g><g><path d=" M 344.708 716.13 L 344.708 716.13 L 344.708 716.13 L 347.493 713.185 L 347.493 713.185 C 352.48 707.91 352.48 699.329 347.493 694.055 L 321.962 667.057 C 319.488 664.441 316.183 663 312.658 663.001 C 309.133 663.001 305.829 664.442 303.356 667.059 L 300.83 669.73 L 300.83 669.73 L 300.83 669.73 L 298.304 667.058 C 295.83 664.442 292.526 663 289.001 663 C 285.476 663 282.171 664.441 279.698 667.057 L 277.169 669.732 L 274.637 667.055 C 272.163 664.44 268.86 663 265.335 663 C 265.334 663 265.333 663 265.333 663 C 261.808 663.001 258.504 664.442 256.031 667.058 L 230.506 694.055 C 225.52 699.329 225.521 707.91 230.507 713.183 L 233.294 716.13 L 233.294 716.13 L 233.294 716.13 L 230.507 719.077 C 225.52 724.351 225.519 732.931 230.506 738.206 L 256.03 765.202 C 258.504 767.819 261.808 769.261 265.333 769.261 C 265.334 769.261 265.334 769.261 265.335 769.261 C 268.859 769.261 272.163 767.821 274.636 765.205 L 277.168 762.529 L 279.697 765.203 C 282.171 767.82 285.475 769.261 289 769.261 C 292.525 769.261 295.83 767.82 298.303 765.203 L 300.83 762.532 L 303.355 765.203 C 305.829 767.819 309.133 769.26 312.658 769.26 C 312.658 769.26 312.658 769.26 312.659 769.26 C 316.183 769.26 319.488 767.82 321.962 765.203 L 347.493 738.206 C 352.48 732.932 352.48 724.351 347.493 719.076 L 344.708 716.13 Z " fill="rgb(255,255,255)"/><path d=" M 279.697 749.973 L 277.169 752.646 L 242.64 716.13 L 259.904 697.873 L 277.168 679.615 L 279.696 682.288 C 280.048 682.66 280.421 683.002 280.805 683.326 C 281.433 683.856 282.097 684.326 282.798 684.721 C 282.8 684.723 282.802 684.723 282.804 684.724 C 283.555 685.147 284.343 685.491 285.159 685.751 C 285.17 685.754 285.18 685.756 285.191 685.759 C 285.999 686.014 286.835 686.19 287.688 686.277 C 287.907 686.3 288.13 686.3 288.35 686.311 C 288.566 686.322 288.78 686.344 288.997 686.344 C 288.998 686.344 288.999 686.344 288.999 686.344 C 289.88 686.344 290.747 686.254 291.591 686.078 C 294.124 685.55 296.446 684.249 298.302 682.287 L 300.636 679.818 L 300.829 679.614 L 335.36 716.131 L 300.83 752.649 L 298.302 749.975 C 295.828 747.359 292.525 745.918 288.999 745.918 C 288.999 745.918 288.999 745.918 288.998 745.918 C 285.474 745.917 282.171 747.357 279.697 749.973 Z " fill="rgb(0,0,0)"/><path d=" M 308.289 671.724 C 309.467 670.478 311.02 669.791 312.659 669.791 C 314.298 669.791 315.85 670.477 317.029 671.723 L 342.56 698.72 C 345.114 701.422 345.114 705.817 342.56 708.519 L 342.56 708.519 L 340.035 711.189 L 305.504 674.671 L 308.289 671.724 Z " fill="rgb(0,0,0)"/><path d=" M 284.631 671.723 C 285.81 670.477 287.362 669.791 289.001 669.791 C 290.64 669.791 292.192 670.477 293.371 671.723 L 296.158 674.67 L 293.369 677.62 C 292.633 678.399 291.75 678.96 290.792 679.27 C 290.217 679.456 289.615 679.553 289 679.553 C 287.361 679.553 285.809 678.867 284.631 677.622 L 281.843 674.673 L 284.631 671.723 Z " fill="rgb(0,0,0)"/><path d=" M 235.441 708.517 C 232.887 705.816 232.887 701.421 235.441 698.72 L 260.965 671.723 C 262.143 670.477 263.695 669.791 265.334 669.791 C 266.973 669.791 268.525 670.477 269.703 671.723 L 272.495 674.675 L 255.231 692.931 L 237.967 711.188 L 235.441 708.517 Z " fill="rgb(0,0,0)"/><path d=" M 265.335 762.47 L 265.335 762.47 C 263.695 762.47 262.143 761.784 260.964 760.537 L 235.441 733.541 C 232.886 730.839 232.886 726.444 235.441 723.743 L 237.966 721.072 L 272.495 757.587 L 269.702 760.539 C 268.526 761.784 266.974 762.47 265.335 762.47 Z " fill="rgb(0,0,0)"/><path d=" M 289.001 762.47 C 287.362 762.47 285.81 761.784 284.631 760.538 L 281.842 757.587 L 284.63 754.638 C 285.808 753.393 287.36 752.707 288.999 752.707 C 290.639 752.707 292.19 753.394 293.369 754.64 L 296.158 757.59 L 293.371 760.538 C 292.192 761.784 290.64 762.47 289.001 762.47 Z " fill="rgb(0,0,0)"/><path d=" M 342.559 733.54 L 317.028 760.538 C 315.85 761.784 314.298 762.469 312.658 762.469 C 311.019 762.469 309.467 761.783 308.289 760.538 L 305.503 757.59 L 340.034 721.072 L 342.559 723.742 C 345.114 726.443 345.114 730.84 342.559 733.54 Z " fill="rgb(0,0,0)"/></g></svg>