<?xml version="1.0" encoding="UTF-8" standalone="no"?><!-- Generator: Gravit.io --><svg xmlns="http://www.w3.org/2000/svg" xmlns:xlink="http://www.w3.org/1999/xlink" style="isolation:isolate" viewBox="284 398 253 286" width="253pt" height="286pt"><g><path d=" M 390 405 L 403.154 504.292 L 521.142 565 L 537 555.276 L 528.945 453 L 407.116 398 L 390 405 Z " fill="rgb(105,86,108)"/><path d=" M 409.349 402.032 C 408.173 402.444 407.26 402.765 406.346 403.086 L 406.405 403.382 C 406.964 403.32 407.57 403.374 408.075 403.175 C 409.88 402.462 411.445 403.15 413.017 403.878 C 419.882 407.059 426.76 410.214 433.604 413.437 C 439.408 416.17 445.163 419.006 450.959 421.754 C 454.912 423.628 458.901 425.425 462.869 427.267 C 467.837 429.573 472.799 431.894 477.766 434.201 C 483.415 436.825 489.053 439.474 494.723 442.051 C 501.614 445.183 508.541 448.237 515.438 451.354 C 518.227 452.615 520.988 453.937 523.741 455.272 C 524.411 455.597 525.018 456.06 525.617 456.509 C 525.896 456.717 526.154 457.038 525.61 457.301 C 524.12 458.023 522.644 458.775 521.142 459.47 C 518.731 460.585 516.308 461.672 513.883 462.755 C 513.333 463 512.757 463.195 512.18 463.372 C 512.027 463.419 511.804 463.353 511.65 463.272 C 510.045 462.432 508.424 461.658 507.124 460.301 C 506.52 459.671 505.492 459.448 504.667 459.02 C 499.146 456.161 493.655 453.244 488.101 450.45 C 482.215 447.488 476.291 444.595 470.343 441.757 C 464.971 439.194 459.544 436.743 454.14 434.245 C 448.864 431.807 443.57 429.407 438.313 426.928 C 431.207 423.577 424.128 420.167 417.039 416.78 C 411.404 414.088 405.776 411.384 400.137 408.703 C 399.122 408.22 398.068 407.815 397.03 407.38 C 396.883 407.319 396.705 407.227 396.57 407.261 C 396.137 407.37 395.717 407.531 395.291 407.672 C 395.615 407.895 395.915 408.166 396.266 408.331 C 398.374 409.322 400.505 410.264 402.605 411.271 C 404.92 412.381 407.191 413.585 409.515 414.673 C 414.19 416.86 418.909 418.953 423.571 421.167 C 427.606 423.084 431.569 425.149 435.595 427.086 C 439.376 428.906 443.198 430.647 447.003 432.42 C 449.527 433.596 452.05 434.773 454.578 435.939 C 457.639 437.351 460.718 438.727 463.767 440.163 C 468.031 442.17 472.305 444.156 476.519 446.261 C 484.19 450.092 491.826 453.99 499.463 457.889 C 501.822 459.093 504.187 460.302 506.449 461.673 C 508.043 462.639 509.473 463.874 510.957 465.014 C 511.142 465.154 511.275 465.44 511.31 465.677 C 511.589 467.547 511.919 469.415 512.082 471.296 C 512.851 480.154 513.582 489.016 514.307 497.878 C 514.723 502.96 515.125 508.045 515.492 513.131 C 516.067 521.067 516.577 529.007 517.173 536.941 C 517.627 542.985 518.18 549.021 518.667 555.063 C 518.783 556.499 518.815 557.941 518.886 559.381 C 518.919 560.037 518.653 560.429 517.966 560.565 C 517.648 560.627 517.363 560.851 517.003 561.032 C 516.87 560.437 517.517 559.521 516.429 559.221 C 516.569 559.785 516.685 560.253 516.8 560.721 C 516.716 560.77 516.631 560.82 516.546 560.869 C 515.767 560.537 514.965 560.251 514.215 559.863 C 510.304 557.845 506.55 555.573 502.857 553.175 C 499.582 551.049 496.057 549.3 492.642 547.386 C 487.78 544.661 482.933 541.909 478.047 539.227 C 476.193 538.209 474.227 537.393 472.35 536.414 C 470.077 535.227 467.862 533.932 465.591 532.745 C 463.194 531.493 460.723 530.378 458.349 529.086 C 453.074 526.215 447.835 523.278 442.59 520.352 C 436.761 517.099 430.955 513.803 425.112 510.574 C 419.881 507.682 414.612 504.858 409.36 502.002 C 409.078 501.848 408.81 501.667 408.528 501.512 C 407.213 500.788 406.704 499.687 406.539 498.193 C 405.472 488.585 404.408 478.976 403.154 469.391 C 402.372 463.409 401.262 457.47 400.296 451.513 C 399.962 449.457 399.627 447.402 399.27 445.351 C 398.625 441.649 397.915 437.957 397.323 434.247 C 396.826 431.136 396.443 428.007 396.036 424.883 C 395.497 420.752 394.979 416.618 394.461 412.484 C 394.312 411.293 394.21 410.096 394.043 408.907 C 393.962 408.333 394.201 407.976 394.66 407.726 C 395.668 407.176 396.66 406.586 397.706 406.12 C 399.985 405.104 402.279 404.124 404.593 403.193 C 405.734 402.733 406.926 402.392 408.109 402.046 C 408.429 401.952 408.802 402.031 409.349 402.031 L 409.349 402.032 Z " fill="rgb(222,190,151)"/><path d=" M 520.39 560.15 C 520.259 558.096 520.156 556.075 519.997 554.058 C 519.588 548.866 519.124 543.679 518.737 538.486 C 518.344 533.186 518.039 527.881 517.652 522.581 C 517.285 517.547 516.856 512.518 516.464 507.486 C 516.121 503.066 515.8 498.645 515.451 494.226 C 514.927 487.571 514.36 480.919 513.866 474.262 C 513.666 471.547 513.639 468.82 513.481 466.102 C 513.414 464.955 513.886 464.281 514.917 463.797 C 518.268 462.225 521.59 460.594 524.925 458.991 C 525.143 458.886 525.377 458.817 525.606 458.74 C 526.366 458.485 526.782 458.719 526.901 459.523 C 526.975 460.023 527.293 469.529 527.46 473.772 C 527.655 478.734 527.884 483.695 528.074 488.658 C 528.202 492.018 528.235 495.383 528.405 498.741 C 528.612 502.793 528.955 506.839 529.169 510.891 C 529.375 514.758 529.418 518.634 529.67 522.497 C 529.925 526.405 530.385 530.3 530.687 534.206 C 531.115 539.718 531.428 545.239 531.897 550.747 C 532.08 552.897 531.115 554.289 529.397 555.276 C 526.516 556.932 523.59 558.511 520.683 560.12 C 520.64 560.143 520.579 560.132 520.39 560.151 L 520.39 560.15 Z  M 529.833 536.368 C 529.873 536.366 529.914 536.364 529.956 536.362 C 529.871 533.676 529.703 533.686 529.833 536.368 Z " fill="rgb(200,134,99)"/><path d=" M 397.969 416.341 C 397.831 415.014 398.14 414.769 399.893 414.78 C 399.91 415.012 399.929 415.247 399.961 415.666 C 400.443 415.315 400.79 415.063 401.227 414.746 C 404.401 416.33 407.615 417.989 410.879 419.549 C 415.208 421.618 419.588 423.584 423.921 425.644 C 426.703 426.967 429.412 428.443 432.207 429.737 C 436.872 431.897 441.606 433.908 446.262 436.085 C 453.928 439.669 461.541 443.361 469.2 446.959 C 475.231 449.792 481.318 452.511 487.342 455.36 C 491.41 457.284 495.406 459.357 499.445 461.342 C 501.385 462.295 503.361 463.176 505.302 464.127 C 506.481 464.704 507.305 465.691 507.959 466.782 C 508.203 467.188 508.207 467.757 508.247 468.258 C 508.98 477.443 509.709 486.628 510.426 495.815 C 511.399 508.276 512.344 520.738 513.341 533.197 C 513.534 535.612 513.969 538.007 514.182 540.42 C 514.556 544.649 514.871 548.884 515.152 553.121 C 515.223 554.203 515.046 555.301 515.047 556.391 C 515.048 556.806 515.244 557.219 515.324 557.637 C 515.368 557.866 515.356 558.105 515.37 558.339 C 515.16 558.305 514.923 558.322 514.743 558.229 C 513.966 557.825 513.764 557.15 513.716 556.303 C 513.451 551.562 513.144 546.823 512.827 542.084 C 512.673 539.794 512.415 537.51 512.308 535.218 C 512.254 534.076 511.923 533.239 510.867 532.68 C 508.097 531.212 505.396 529.608 502.585 528.222 C 496.188 525.066 489.734 522.027 483.32 518.903 C 479.809 517.192 476.333 515.409 472.843 513.652 C 468.895 511.665 464.962 509.65 461.003 507.685 C 457.166 505.78 453.306 503.92 449.454 502.048 C 447.129 500.919 444.734 499.913 442.497 498.635 C 441.447 498.035 440.642 497.964 439.636 498.488 C 436.687 500.024 433.718 501.521 430.768 503.055 C 429.563 503.682 428.387 504.366 427.145 504.93 C 431.145 502.047 435.476 499.742 440.227 497.344 C 440.018 497.283 439.799 497.241 439.598 497.158 C 438.417 496.671 437.245 496.16 436.056 495.693 C 435.85 495.613 435.541 495.637 435.335 495.734 C 433.299 496.691 431.273 497.67 429.25 498.651 C 428.712 498.911 428.189 499.201 427.606 499.384 C 429.865 497.724 432.478 496.691 435.146 495.287 C 433.566 494.641 432.157 494.053 430.74 493.49 C 429.923 493.165 429.097 492.867 428.263 492.589 C 428.065 492.522 427.786 492.507 427.61 492.596 C 426.295 493.261 425.032 494.043 423.685 494.63 C 420.565 495.989 417.774 497.896 414.876 499.631 C 413.664 500.356 412.361 500.941 411.069 501.521 C 410.142 501.937 408.004 501.024 407.654 500.07 C 407.561 499.82 407.695 499.378 407.885 499.163 C 408.135 498.88 408.543 498.734 408.841 498.554 C 409.268 498.921 409.648 499.248 410.028 499.575 C 410.095 499.547 410.163 499.519 410.23 499.491 C 410.182 499.289 410.146 499.083 410.082 498.885 C 409.934 498.418 409.661 497.961 409.633 497.489 C 409.274 491.269 408.496 485.101 407.478 478.955 C 406.831 475.057 406.435 471.119 405.826 467.213 C 404.4 458.058 402.83 448.924 401.483 439.757 C 400.57 433.549 399.935 427.301 399.188 421.07 C 399.048 419.904 398.921 418.732 398.88 417.56 C 398.856 416.878 398.695 416.416 397.969 416.341 L 397.969 416.341 Z  M 411.312 499.447 C 412.066 499.173 412.677 499.04 413.197 498.747 C 417.241 496.472 421.267 494.168 425.296 491.868 C 425.643 491.669 425.95 491.301 426.312 491.247 C 427.059 491.136 427.045 490.685 427.003 490.149 C 426.867 488.392 426.72 486.636 426.606 484.877 C 426.386 481.467 426.24 478.052 425.961 474.647 C 425.767 472.281 425.376 469.932 425.121 467.571 C 424.737 464.042 424.486 460.496 424.014 456.979 C 423.289 451.588 422.392 446.219 421.632 440.832 C 421.229 437.978 420.91 435.109 420.657 432.238 C 420.555 431.073 420.118 429.914 420.479 428.711 C 420.534 428.525 420.321 428.257 420.224 428.03 C 420.138 427.823 420.04 427.62 419.947 427.416 C 420.215 427.365 420.614 427.179 420.729 427.287 C 421.154 427.692 421.623 428.144 421.815 428.672 C 422.046 429.307 422.015 430.037 422.091 430.726 C 422.634 435.662 423.115 440.605 423.73 445.532 C 424.326 450.299 425.105 455.043 425.713 459.809 C 426.081 462.694 426.257 465.603 426.557 468.498 C 427.122 473.938 427.718 479.376 428.292 484.816 C 428.487 486.675 428.631 488.539 428.864 490.393 C 428.898 490.666 429.241 491.002 429.523 491.126 C 430.428 491.527 431.397 491.787 432.296 492.202 C 435.868 493.85 439.436 495.506 442.978 497.216 C 447.809 499.547 452.617 501.926 457.43 504.292 C 458.306 504.723 459.165 505.189 460.032 505.639 L 460.167 505.445 C 459.785 505.108 459.405 504.771 458.961 504.378 C 459.515 504.524 460.058 504.551 460.458 504.804 C 460.886 505.074 461.196 505.543 461.523 505.953 C 461.71 506.185 461.76 506.601 461.984 506.716 C 465.007 508.261 468.045 509.779 471.088 511.283 C 478.46 514.923 485.84 518.548 493.213 522.186 C 498.452 524.771 503.689 527.363 508.923 529.96 C 509.82 530.406 510.695 530.895 511.693 531.424 C 511.561 529.109 511.446 526.925 511.31 524.742 C 511.032 520.265 510.807 515.784 510.444 511.314 C 509.818 503.624 509.074 495.944 508.433 488.255 C 507.89 481.737 507.428 475.212 506.919 468.691 C 506.843 467.724 506.518 466.861 505.631 466.321 C 504.558 465.667 503.519 464.939 502.392 464.393 C 495.944 461.273 489.476 458.193 483.011 455.106 C 478.058 452.741 473.105 450.373 468.138 448.032 C 463.099 445.658 458.042 443.318 452.997 440.957 C 448.828 439.006 444.668 437.033 440.492 435.093 C 437.121 433.526 433.649 432.151 430.369 430.415 C 423.589 426.825 416.534 423.818 409.651 420.453 C 406.512 418.918 403.185 417.745 400.259 415.786 C 400.211 415.754 400.114 415.796 399.981 415.81 C 400.002 416.089 400.01 416.351 400.043 416.611 C 400.409 419.471 400.778 422.331 401.147 425.191 C 401.717 429.612 402.215 434.043 402.874 438.451 C 404.058 446.373 405.334 454.282 406.585 462.194 C 407.152 465.781 407.795 469.356 408.325 472.947 C 408.719 475.613 408.928 478.305 409.324 480.971 C 410.08 486.068 411.002 491.143 410.95 496.327 C 410.94 497.316 411.173 498.306 411.312 499.447 L 411.312 499.447 Z " fill="rgb(0,0,0)"/><path d=" M 411.312 499.447 C 411.173 498.306 410.94 497.316 410.95 496.327 C 411.002 491.143 410.08 486.068 409.324 480.971 C 408.929 478.305 408.719 475.613 408.325 472.947 C 407.795 469.356 407.152 465.781 406.586 462.194 C 405.334 454.282 404.059 446.373 402.874 438.451 C 402.215 434.043 401.717 429.612 401.147 425.191 C 400.779 422.331 400.409 419.471 400.044 416.611 C 400.01 416.351 400.002 416.089 399.981 415.81 C 400.114 415.796 400.212 415.754 400.26 415.786 C 403.186 417.745 406.512 418.918 409.652 420.453 C 416.535 423.818 423.59 426.825 430.369 430.415 C 433.649 432.151 437.121 433.526 440.493 435.093 C 444.669 437.033 448.828 439.006 452.997 440.957 C 458.043 443.319 463.099 445.658 468.138 448.032 C 473.105 450.373 478.058 452.741 483.012 455.106 C 489.476 458.193 495.944 461.273 502.392 464.393 C 503.519 464.939 504.558 465.667 505.632 466.321 C 506.519 466.861 506.843 467.724 506.919 468.691 C 507.428 475.212 507.891 481.737 508.433 488.256 C 509.074 495.944 509.818 503.624 510.444 511.314 C 510.807 515.784 511.032 520.265 511.31 524.742 C 511.446 526.925 511.561 529.109 511.693 531.424 C 510.695 530.895 509.82 530.406 508.923 529.96 C 503.689 527.363 498.452 524.771 493.213 522.186 C 485.84 518.548 478.46 514.923 471.089 511.283 C 468.045 509.779 447.81 499.547 442.978 497.216 C 439.436 495.506 435.868 493.85 432.296 492.202 C 431.398 491.787 430.428 491.527 429.523 491.126 C 429.241 491.002 428.898 490.666 428.864 490.393 C 428.632 488.539 428.487 486.675 428.292 484.816 C 427.718 479.376 427.122 473.938 426.558 468.498 C 426.257 465.603 426.081 462.694 425.713 459.809 C 425.105 455.043 424.326 450.299 423.73 445.532 C 423.115 440.605 422.634 435.662 422.092 430.726 C 422.015 430.037 422.047 429.307 421.815 428.672 C 421.623 428.144 421.154 427.692 420.729 427.287 C 420.615 427.179 420.215 427.365 419.947 427.416 C 420.04 427.62 420.138 427.823 420.225 428.03 C 420.321 428.257 420.534 428.525 420.479 428.711 C 420.119 429.914 420.555 431.073 420.657 432.238 C 420.91 435.109 421.229 437.978 421.632 440.832 C 422.392 446.219 423.29 451.587 424.014 456.979 C 424.486 460.496 424.738 464.042 425.121 467.571 C 425.377 469.932 425.767 472.281 425.961 474.647 C 426.24 478.052 426.386 481.467 426.607 484.877 C 426.72 486.636 426.868 488.392 427.003 490.149 C 427.045 490.685 427.059 491.136 426.312 491.247 C 425.95 491.301 425.643 491.669 425.296 491.868 C 421.267 494.168 417.241 496.472 413.197 498.747 C 412.677 499.04 412.066 499.173 411.313 499.447 L 411.312 499.447 Z " fill="rgb(199,133,99)"/><path d=" M 469.79 472.945 C 470.294 471.928 470.722 471.029 471.18 470.145 C 472.24 468.093 475.059 466.719 477.154 467.37 C 479.355 468.055 481.138 469.421 482.114 471.51 C 484.677 476.991 484.83 482.39 481.37 487.652 C 479.31 490.786 476.931 493.616 474.053 496.026 C 473.459 496.522 472.817 496.973 472.153 497.372 C 471.137 497.983 470.269 497.898 469.406 497.085 C 466.525 494.371 464.07 491.305 461.931 487.989 C 460.627 485.968 459.376 483.913 458.089 481.881 C 457.936 481.638 457.629 481.467 457.545 481.213 C 457.468 480.976 456.741 480.722 457.47 480.392 C 457.493 480.382 457.416 480.158 457.39 480.032 C 456.937 477.893 456.416 475.766 456.05 473.612 C 455.597 470.949 455.921 468.402 457.543 466.116 C 458.8 464.344 460.574 463.374 462.148 463.815 C 463.742 464.262 465.22 465.011 466.319 466.279 C 467.899 468.102 468.928 470.234 469.604 472.538 C 469.632 472.636 469.69 472.727 469.79 472.945 L 469.79 472.945 Z  M 464.908 487.128 L 465.19 487.054 C 465.153 486.243 465.12 485.433 465.07 484.623 C 465.065 484.545 464.948 484.481 464.901 484.399 C 464.745 484.125 464.551 483.859 464.461 483.564 C 464.38 483.295 464.473 482.975 464.391 482.707 C 463.628 480.215 462.797 477.743 462.08 475.238 C 461.649 473.732 461.346 472.185 461.067 470.642 C 460.951 469.999 461.048 469.318 461.048 468.447 C 460.716 468.904 460.278 469.253 460.201 469.668 C 460.045 470.514 460.072 471.395 460.046 472.262 C 460.032 472.735 460.258 473.34 460.039 473.658 C 459.212 474.863 459.447 476.061 459.897 477.25 C 460.69 479.345 461.525 481.426 462.405 483.486 C 462.991 484.86 463.761 486.133 464.908 487.128 L 464.908 487.128 Z  M 457.747 469.789 C 459.361 466.274 461.685 464.932 465.278 466.94 C 464.168 465.714 461.54 464.827 460.48 465.259 C 459.039 465.845 457.643 468.015 457.747 469.789 L 457.747 469.789 Z  M 471.121 478.234 C 472.748 477.078 473.525 475.508 474.782 474.048 C 472.981 474.8 471.356 476.631 471.121 478.234 Z  M 477.972 469.16 C 476.63 467.884 473.983 468.454 472.84 470.341 C 474.414 469.005 476.247 469.408 477.972 469.16 Z  M 472.968 474.543 C 473.839 474.055 474.71 473.567 475.642 473.044 C 474.788 472.469 473.844 473.008 472.968 474.543 Z  M 465.292 489.979 C 465.222 490.039 465.153 490.099 465.084 490.159 C 465.586 490.76 466.089 491.359 466.592 491.96 C 466.648 491.915 466.703 491.871 466.759 491.827 C 466.27 491.211 465.781 490.595 465.292 489.979 L 465.292 489.979 Z " fill="rgb(229,41,102)"/></g><g><path d=" M 403.29 502 L 362.562 521.6 L 334.409 535.1 L 286.226 558.1 L 286.226 619.6 L 403.29 682.1 L 518.574 619.6 L 518.574 558.1 L 403.29 502 Z " fill="rgb(209,168,125)"/><path d=" M 403.29 684 C 402.845 684 402.4 684 402.177 683.8 L 285.113 621.4 C 284.445 621 284 620.2 284 619.7 L 284 558.1 C 284 557.3 284.445 556.7 285.113 556.4 C 285.78 556 286.671 556 287.227 556.4 L 404.292 612.5 C 405.405 613.1 405.85 614.2 405.182 615.2 C 404.514 616.2 403.29 616.6 402.177 616.2 L 288.34 561.4 L 288.34 618.5 L 403.29 679.8 L 516.46 618.5 L 516.46 558.1 C 516.46 556.9 517.35 556.2 518.574 556.2 C 519.798 556.2 520.689 557 520.689 558.1 L 520.689 619.6 C 520.689 620.4 520.244 621 519.576 621.3 L 404.292 683.8 C 404.069 684 403.735 684 403.29 684 Z " fill="rgb(105,86,108)"/><path d=" M 403.29 682.1 L 518.574 619.6 L 518.574 558.1 L 403.29 614.4 L 403.29 682.1 Z " fill="rgb(199,133,99)"/><line x1="334.409" y1="535.1" x2="361.561" y2="522.1"/><path d=" M 403.29 684 C 402.845 684 402.4 684 402.177 683.8 L 285.113 621.4 C 284.445 621 284 620.2 284 619.7 L 284 558.1 C 284 557.3 284.445 556.7 285.113 556.4 L 333.296 533.2 C 334.409 532.6 335.633 533 336.301 534 C 336.968 535 336.523 536.1 335.411 536.7 L 288.34 559.3 L 288.34 618.5 L 403.29 679.8 L 516.46 618.5 L 516.46 559.3 L 403.29 504.2 L 363.453 523.3 C 362.34 523.9 361.116 523.5 360.448 522.5 C 359.78 521.5 360.226 520.4 361.338 519.8 L 402.177 500.3 C 402.845 499.9 403.735 499.9 404.069 500.3 L 519.353 556.4 C 520.021 556.8 520.466 557.4 520.466 558.1 L 520.466 619.6 C 520.466 620.4 520.021 621 519.353 621.3 L 404.069 683.8 C 404.069 684 403.735 684 403.29 684 Z " fill="rgb(105,86,108)"/><g><path d=" M 344.782 540.487 L 366.6 552.851 L 391.458 539.145 L 369.952 528.122 L 344.782 540.487 Z " fill="rgb(0,0,0)"/><path d=" M 343.524 539.318 L 368.116 527.278 C 369.542 526.58 371.838 526.616 373.241 527.358 L 393.708 538.184 C 395.111 538.926 395.117 540.142 393.722 540.897 L 370.454 553.494 C 369.059 554.25 366.787 554.261 365.384 553.518 L 343.483 541.927 C 342.081 541.185 342.099 540.016 343.524 539.318 Z  M 351.811 541.906 L 365.007 548.748 C 366.416 549.478 368.709 549.489 370.125 548.771 L 385.799 540.828 C 387.214 540.111 387.223 538.928 385.818 538.19 L 372.497 531.186 C 371.093 530.447 368.809 530.441 367.4 531.172 L 351.811 539.258 C 350.402 539.989 350.402 541.175 351.811 541.906 Z " fill="rgb(105,86,108)"/></g><g><path d=" M 377.369 523.809 L 399.188 536.173 L 424.046 522.467 L 402.54 511.445 L 377.369 523.809 Z " fill="rgb(0,0,0)"/><path d=" M 376.112 522.641 L 400.704 510.601 C 402.129 509.903 404.426 509.939 405.828 510.681 L 426.296 521.507 C 427.699 522.248 427.705 523.464 426.309 524.22 L 403.042 536.817 C 401.647 537.573 399.375 537.584 397.972 536.841 L 376.071 525.25 C 374.668 524.508 374.687 523.339 376.112 522.641 Z  M 384.399 525.229 L 397.595 532.07 C 399.004 532.801 401.297 532.811 402.712 532.094 L 418.386 524.151 C 419.802 523.433 419.811 522.251 418.406 521.513 L 405.085 514.509 C 403.68 513.77 401.396 513.764 399.988 514.494 L 384.398 522.581 C 382.99 523.312 382.99 524.498 384.399 525.229 Z " fill="rgb(105,86,108)"/></g><g><path d=" M 310.277 557.164 L 332.095 569.528 L 356.953 555.822 L 335.448 544.8 L 310.277 557.164 Z " fill="rgb(0,0,0)"/><path d=" M 309.02 555.995 L 333.612 543.955 C 335.037 543.258 337.333 543.293 338.736 544.035 L 359.204 554.861 C 360.607 555.603 360.613 556.819 359.217 557.574 L 335.95 570.172 C 334.554 570.927 332.283 570.938 330.88 570.196 L 308.979 558.605 C 307.576 557.862 307.595 556.693 309.02 555.995 Z  M 317.306 558.583 L 330.503 565.425 C 331.911 566.155 334.204 566.166 335.62 565.449 L 351.294 557.505 C 352.71 556.788 352.718 555.606 351.314 554.867 L 337.993 547.863 C 336.588 547.124 334.304 547.118 332.895 547.849 L 317.306 555.936 C 315.897 556.666 315.897 557.853 317.306 558.583 Z " fill="rgb(105,86,108)"/></g><g><path d=" M 378.081 556.493 L 399.899 568.857 L 424.757 555.151 L 403.251 544.129 L 378.081 556.493 Z " fill="rgb(0,0,0)"/><path d=" M 376.823 555.324 L 401.415 543.284 C 402.841 542.587 405.137 542.622 406.54 543.364 L 427.007 554.19 C 428.41 554.932 428.416 556.148 427.021 556.903 L 403.753 569.501 C 402.358 570.256 400.086 570.267 398.684 569.525 L 376.782 557.934 C 375.38 557.191 375.398 556.022 376.823 555.324 Z  M 385.11 557.912 L 398.306 564.754 C 399.715 565.484 402.008 565.495 403.424 564.778 L 419.098 556.834 C 420.513 556.117 420.522 554.935 419.117 554.196 L 405.796 547.192 C 404.392 546.454 402.108 546.447 400.699 547.178 L 385.11 555.265 C 383.701 555.995 383.701 557.182 385.11 557.912 Z " fill="rgb(105,86,108)"/></g><g><path d=" M 410.668 539.816 L 432.487 552.18 L 457.345 538.474 L 435.839 527.451 L 410.668 539.816 Z " fill="rgb(0,0,0)"/><path d=" M 409.411 538.647 L 434.003 526.607 C 435.428 525.909 437.725 525.945 439.127 526.687 L 459.595 537.513 C 460.998 538.255 461.004 539.471 459.608 540.226 L 436.341 552.824 C 434.946 553.579 432.674 553.59 431.271 552.848 L 409.37 541.256 C 407.967 540.514 407.986 539.345 409.411 538.647 Z  M 417.698 541.235 L 430.894 548.077 C 432.303 548.807 434.596 548.818 436.011 548.1 L 451.685 540.157 C 453.101 539.44 453.11 538.258 451.705 537.519 L 438.384 530.515 C 436.979 529.776 434.695 529.77 433.287 530.501 L 417.697 538.587 C 416.289 539.318 416.289 540.504 417.698 541.235 Z " fill="rgb(105,86,108)"/></g><g><path d=" M 343.576 573.17 L 365.394 585.534 L 390.252 571.828 L 368.747 560.806 L 343.576 573.17 Z " fill="rgb(0,0,0)"/><path d=" M 342.319 572.002 L 366.911 559.962 C 368.336 559.264 370.632 559.3 372.035 560.042 L 392.503 570.867 C 393.906 571.609 393.912 572.825 392.516 573.581 L 369.249 586.178 C 367.853 586.934 365.582 586.944 364.179 586.202 L 342.278 574.611 C 340.875 573.869 340.894 572.699 342.319 572.002 Z  M 350.605 574.589 L 363.802 581.431 C 365.21 582.162 367.503 582.172 368.919 581.455 L 384.593 573.511 C 386.009 572.794 386.018 571.612 384.613 570.873 L 371.292 563.869 C 369.887 563.131 367.603 563.124 366.194 563.855 L 350.605 571.942 C 349.196 572.673 349.197 573.859 350.605 574.589 Z " fill="rgb(105,86,108)"/></g><g><path d=" M 411.957 572.841 L 433.775 585.205 L 458.633 571.499 L 437.128 560.477 L 411.957 572.841 Z " fill="rgb(0,0,0)"/><path d=" M 410.7 571.672 L 435.292 559.633 C 436.717 558.935 439.013 558.971 440.416 559.713 L 460.884 570.538 C 462.287 571.28 462.293 572.496 460.897 573.252 L 437.63 585.849 C 436.234 586.604 433.962 586.615 432.56 585.873 L 410.659 574.282 C 409.256 573.539 409.274 572.37 410.7 571.672 Z  M 418.986 574.26 L 432.182 581.102 C 433.591 581.833 435.884 581.843 437.3 581.126 L 452.974 573.182 C 454.39 572.465 454.398 571.283 452.994 570.544 L 439.673 563.54 C 438.268 562.802 435.984 562.795 434.575 563.526 L 418.986 571.613 C 417.577 572.344 417.577 573.53 418.986 574.26 Z " fill="rgb(105,86,108)"/></g><g><path d=" M 444.545 556.164 L 466.363 568.528 L 491.221 554.822 L 469.715 543.8 L 444.545 556.164 Z " fill="rgb(0,0,0)"/><path d=" M 443.287 554.995 L 467.879 542.955 C 469.305 542.258 471.601 542.293 473.004 543.035 L 493.471 553.861 C 494.874 554.603 494.88 555.819 493.485 556.574 L 470.217 569.172 C 468.822 569.927 466.55 569.938 465.147 569.196 L 443.246 557.605 C 441.844 556.862 441.862 555.693 443.287 554.995 Z  M 451.574 557.583 L 464.77 564.425 C 466.179 565.155 468.472 565.166 469.888 564.449 L 485.562 556.505 C 486.977 555.788 486.986 554.606 485.581 553.867 L 472.26 546.863 C 470.856 546.124 468.572 546.118 467.163 546.849 L 451.574 554.936 C 450.165 555.666 450.165 556.853 451.574 557.583 Z " fill="rgb(105,86,108)"/></g><g><path d=" M 377.452 589.518 L 399.271 601.882 L 424.129 588.176 L 402.623 577.154 L 377.452 589.518 Z " fill="rgb(0,0,0)"/><path d=" M 376.195 588.35 L 400.787 576.31 C 402.213 575.612 404.509 575.648 405.911 576.39 L 426.379 587.215 C 427.782 587.957 427.788 589.173 426.392 589.929 L 403.125 602.526 C 401.73 603.282 399.458 603.292 398.055 602.55 L 376.154 590.959 C 374.751 590.217 374.77 589.047 376.195 588.35 Z  M 384.482 590.938 L 397.678 597.779 C 399.087 598.51 401.38 598.52 402.795 597.803 L 418.469 589.86 C 419.885 589.142 419.894 587.96 418.489 587.222 L 405.168 580.217 C 403.763 579.479 401.479 579.473 400.071 580.203 L 384.481 588.29 C 383.073 589.021 383.073 590.207 384.482 590.938 Z " fill="rgb(105,86,108)"/></g><path d=" M 403.29 684 C 402.845 684 402.4 684 402.177 683.8 L 285.113 621.4 C 284.445 621 284 620.2 284 619.7 L 284 558.1 C 284 557.3 284.445 556.7 285.113 556.4 C 285.78 556 286.671 556 287.227 556.4 L 403.179 612.1 L 445.353 591.6 C 446.466 591 447.69 591.4 448.358 592.4 C 449.026 593.4 448.58 594.5 447.468 595.1 L 404.18 616.2 C 403.513 616.6 402.623 616.6 402.289 616.2 L 288.34 561.4 L 288.34 618.5 L 403.29 679.8 L 516.46 618.5 L 516.46 561.4 L 477.513 580.4 C 476.4 581 475.176 580.6 474.508 579.6 C 473.841 578.6 474.286 577.5 475.398 576.9 L 517.573 556.4 C 518.241 556 519.131 556 519.687 556.4 C 520.355 556.8 520.8 557.4 520.8 558.1 L 520.8 619.6 C 520.8 620.4 520.355 621 519.687 621.3 L 404.403 683.8 C 404.069 684 403.735 684 403.29 684 Z  M 334.409 537 C 333.519 537 332.851 536.6 332.517 536 C 332.295 535.8 332.295 535.4 332.295 535 C 332.295 534.2 332.74 533.6 333.408 533.3 L 360.337 520.3 C 361.45 519.7 362.674 520.1 363.341 521.1 C 363.564 521.3 363.564 521.7 363.564 522.1 C 363.564 522.9 363.119 523.5 362.451 523.8 L 335.522 536.8 C 335.299 536.8 334.854 537 334.409 537 Z " fill="rgb(105,86,108)"/><path d=" M 403.29 684 C 401.955 684 401.176 683.2 401.176 682.1 L 401.176 614.4 C 401.176 613.2 402.066 612.5 403.29 612.5 C 404.626 612.5 405.405 613.3 405.405 614.4 L 405.405 682.1 C 405.405 683.2 404.514 684 403.29 684 Z " fill="rgb(105,86,108)"/></g></svg>