<?xml version="1.0" encoding="UTF-8" standalone="no"?><!-- Generator: Gravit.io --><svg xmlns="http://www.w3.org/2000/svg" xmlns:xlink="http://www.w3.org/1999/xlink" style="isolation:isolate" viewBox="474 412.534 236 246.998" width="236pt" height="246.998pt"><g><path d=" M 595.9 484.102 L 559.2 500.832 L 522.1 440.834 C 519.2 436.122 521.1 430.161 526.2 427.853 L 557.9 413.431 C 563 411.123 569 413.431 571 418.527 L 595.9 484.102 L 595.9 484.102 Z " fill="rgb(0,0,0)"/><path d=" M 587.4 484.102 L 624 500.832 L 661.1 440.834 C 664 436.122 662.1 430.161 657 427.853 L 625.3 413.431 C 620.2 411.123 614.2 413.431 612.2 418.527 L 587.4 484.102 Z " fill="rgb(0,0,0)"/><path d=" M 682.8 659.532 L 500.5 659.532 C 497.3 659.532 494.6 656.932 494.6 653.632 L 494.6 517.332 C 494.6 514.132 497.2 511.432 500.5 511.432 L 682.7 511.432 C 685.9 511.432 688.6 514.032 688.6 517.332 L 688.6 653.632 C 688.6 656.832 686 659.532 682.8 659.532 L 682.8 659.532 Z " fill="rgb(255,205,131)"/><path d=" M 704.1 538.532 L 479.9 538.532 C 476.7 538.532 474 535.932 474 532.632 L 474 481.632 C 474 478.432 476.6 475.732 479.9 475.732 L 704.1 475.732 C 707.3 475.732 710 478.332 710 481.632 L 710 532.732 C 710 535.832 707.4 538.532 704.1 538.532 L 704.1 538.532 Z " fill="rgb(255,153,0)"/><path d=" M 566.9 472.832 L 619.3 472.832 L 619.3 659.532 L 566.9 659.532 L 566.9 472.832 Z " fill="rgb(0,0,0)"/></g></svg>