<?xml version="1.0" encoding="UTF-8" standalone="no"?><!-- Generator: Gravit.io --><svg xmlns="http://www.w3.org/2000/svg" xmlns:xlink="http://www.w3.org/1999/xlink" style="isolation:isolate" viewBox="177.842 500.163 208.158 206.3" width="208.158pt" height="206.3pt"><g><path d=" M 281.568 614.763 L 211.271 657.163 L 211.271 571.363 L 281.568 523.963 L 350.807 571.363 L 350.807 657.063 L 281.568 614.763 Z " fill="rgb(229,194,54)"/><path d=" M 281.568 523.963 L 350.807 571.363 L 350.807 657.063 L 281.568 614.663 L 281.568 523.963 Z " fill="rgb(18,21,25)"/><path d=" M 281.568 523.963 L 211.271 571.363 L 211.271 657.063 L 281.568 614.663 L 281.568 523.963 Z " fill="rgb(18,21,25)"/><path d=" M 281.568 613.763 L 211.271 571.163 L 211.271 657.063 L 281.568 704.463 L 350.807 657.063 L 350.807 571.163 L 281.568 613.763 Z " fill="rgb(235,197,48)"/><path d=" M 281.568 613.763 L 211.271 571.163 L 211.271 657.063 L 281.568 704.463 L 350.807 657.063 L 350.807 571.163 L 281.568 613.763 Z " fill="rgb(209,168,125)"/><path d=" M 281.568 706.463 C 281.216 706.463 280.863 706.463 280.686 706.263 L 210.389 658.863 C 209.86 658.463 209.507 657.863 209.507 657.163 L 209.507 571.163 C 209.507 570.363 209.86 569.763 210.389 569.463 C 210.918 569.063 211.624 569.063 212.065 569.463 L 281.48 611.463 L 349.925 569.463 C 350.454 569.063 351.16 569.063 351.601 569.463 C 352.13 569.863 352.483 570.463 352.483 571.163 L 352.483 657.063 C 352.483 657.863 352.13 658.463 351.601 658.763 L 282.45 706.263 C 282.274 706.263 281.921 706.463 281.568 706.463 Z  M 212.947 656.163 L 281.568 702.363 L 349.131 656.163 L 349.131 574.463 L 282.45 615.463 C 281.921 615.863 281.216 615.863 280.951 615.463 L 213.035 574.463 L 213.035 656.163 L 212.947 656.163 Z " fill="rgb(105,86,108)"/><path d=" M 281.568 704.463 L 350.807 657.063 L 350.807 571.163 L 281.568 613.763 L 281.568 704.463 Z " fill="rgb(18,21,25)"/><path d=" M 281.568 706.463 C 281.216 706.463 281.039 706.463 280.686 706.263 C 280.157 705.863 279.804 705.263 279.804 704.563 L 279.804 613.863 C 279.804 613.063 280.157 612.463 280.686 612.163 L 349.925 569.563 C 350.454 569.163 351.16 569.163 351.601 569.563 C 352.13 569.963 352.483 570.563 352.483 571.263 L 352.483 657.163 C 352.483 657.963 352.13 658.563 351.601 658.863 L 282.45 706.263 C 282.274 706.263 281.921 706.463 281.568 706.463 Z  M 283.244 614.963 L 283.244 701.063 L 349.131 656.163 L 349.131 574.463 L 283.244 614.963 Z " fill="rgb(105,86,108)"/><path d=" M 226.618 626.763 L 281.568 661.963 L 281.568 613.763 L 211.271 571.163 L 226.618 626.763 Z " fill="rgb(18,21,25)"/><path d=" M 179.518 591.863 L 211.271 571.163 L 281.568 613.763 L 247.787 635.663 L 179.518 591.863 Z " fill="rgb(255,255,255)"/><path d=" M 179.518 550.663 L 211.271 571.363 L 281.568 523.963 L 247.963 502.163 L 179.518 550.663 Z " fill="rgb(255,255,255)"/><path d=" M 211.271 573.363 C 210.918 573.363 210.742 573.363 210.389 573.163 L 178.724 552.263 C 178.195 552.063 177.842 551.263 177.842 550.763 C 177.842 549.963 178.195 549.363 178.724 549.063 L 247.169 500.463 C 247.699 500.063 248.404 500.063 248.845 500.463 L 282.627 522.263 C 283.156 522.663 283.509 523.263 283.509 523.963 C 283.509 524.763 283.156 525.363 282.627 525.663 L 212.153 572.963 C 211.977 573.163 211.624 573.363 211.271 573.363 Z  M 182.782 550.463 L 211.271 569.063 L 278.305 523.963 L 247.963 504.463 L 182.782 550.463 Z " fill="rgb(105,86,108)"/><path d=" M 313.321 648.363 L 350.895 626.463 L 350.895 571.363 L 282.098 613.363 L 281.568 613.763 L 313.321 648.363 Z " fill="rgb(18,21,25)"/><path d=" M 281.568 613.763 L 313.321 634.463 L 384.324 593.063 L 350.895 571.363 L 281.568 613.763 Z " fill="rgb(255,255,255)"/><path d=" M 247.787 637.563 C 247.434 637.563 247.258 637.563 246.905 637.363 L 178.724 593.663 C 178.195 593.263 177.842 592.663 177.842 591.963 C 177.842 591.163 178.195 590.563 178.724 590.263 L 210.477 569.563 C 211.006 569.163 211.712 569.163 212.153 569.563 L 282.45 612.163 C 282.98 612.563 283.332 613.163 283.332 613.863 C 283.332 614.563 282.98 615.263 282.45 615.563 L 248.669 637.463 C 248.492 637.563 248.14 637.563 247.787 637.563 Z  M 182.958 591.863 L 247.787 633.263 L 277.952 613.763 L 211.271 573.563 L 182.958 591.863 Z " fill="rgb(105,86,108)"/><path d=" M 313.321 636.363 C 312.968 636.363 312.792 636.363 312.439 636.163 L 280.686 615.463 C 280.157 615.063 279.804 614.463 279.804 613.763 C 279.804 613.063 280.157 612.363 280.686 612.063 L 349.925 569.463 C 350.454 569.063 351.16 569.063 351.601 569.463 L 385.03 591.363 C 385.559 591.763 385.912 592.363 385.912 593.063 C 385.912 593.863 385.559 594.463 385.03 594.763 L 314.027 636.163 C 313.85 636.363 313.674 636.363 313.321 636.363 Z  M 285.185 613.763 L 313.498 632.363 L 380.884 593.063 L 350.895 573.563 L 285.185 613.763 Z " fill="rgb(105,86,108)"/><path d=" M 281.568 523.963 L 313.498 503.263 L 384.324 549.463 L 350.895 571.363 L 281.568 523.963 Z " fill="rgb(255,255,255)"/><path d=" M 350.895 573.363 C 350.543 573.363 350.19 573.363 350.013 573.163 L 280.775 525.763 C 280.245 525.363 279.892 524.763 279.892 524.063 C 279.892 523.263 280.245 522.663 280.775 522.363 L 312.704 501.863 C 313.233 501.463 313.939 501.463 314.38 501.863 L 385.118 547.963 C 385.647 548.363 386 548.963 386 549.663 C 386 550.463 385.647 551.063 385.118 551.363 L 351.689 573.263 C 351.336 573.163 350.984 573.363 350.895 573.363 Z  M 285.008 523.963 L 350.895 569.063 L 380.884 549.563 L 313.498 505.663 L 285.008 523.963 Z " fill="rgb(105,86,108)"/><path d=" M 281.568 508.563 L 211.271 551.063 L 211.271 571.363 L 281.568 613.763 L 350.807 571.363 L 350.807 550.863 L 281.568 508.563 Z " fill="rgb(154,204,157)"/><path d=" M 281.568 615.663 C 281.216 615.663 281.039 615.663 280.686 615.463 L 210.565 573.163 C 210.036 572.763 209.683 572.163 209.683 571.463 L 209.683 551.063 C 209.683 550.263 210.036 549.663 210.565 549.363 L 280.863 506.763 C 281.392 506.363 282.098 506.363 282.362 506.763 L 351.425 549.163 C 351.954 549.563 352.307 550.163 352.307 550.863 L 352.307 571.363 C 352.307 572.163 351.954 572.763 351.425 573.063 L 282.186 615.663 L 281.568 615.663 Z  M 212.947 570.263 L 281.568 611.463 L 349.131 570.063 L 349.131 551.863 L 281.568 510.863 L 212.947 552.263 L 212.947 570.263 Z " fill="rgb(105,86,108)"/><path d=" M 281.568 593.463 L 211.271 551.063 L 211.271 571.363 L 281.568 613.763 L 281.568 593.463 Z " fill="rgb(18,21,25)"/><path d=" M 281.568 593.463 L 350.807 550.863 L 350.807 571.363 L 281.568 613.763 L 281.568 593.463 Z " fill="rgb(18,21,25)"/></g></svg>