<?xml version="1.0" encoding="UTF-8" standalone="no"?><!-- Generator: Gravit.io --><svg xmlns="http://www.w3.org/2000/svg" xmlns:xlink="http://www.w3.org/1999/xlink" style="isolation:isolate" viewBox="213.03 657 152.8 167.003" width="152.8pt" height="167.003pt"><g><g><path d=" M 213.03 772.203 L 286.13 824.003 L 286.13 777.003 L 213.03 725.203 L 213.03 772.203 L 213.03 772.203 Z " fill="rgb(209,168,125)"/><path d=" M 251.03 693.103 L 215.53 718.703 L 289.53 771.103 L 325.03 745.503 L 251.03 693.103 L 251.03 693.103 Z " fill="rgb(222,190,151)"/><path d=" M 251.03 693.103 L 325.03 745.503 L 365.83 718.703 L 291.8 667 L 251.03 693.103 Z " fill="rgb(209,168,125)"/><path d=" M 365.83 725.203 L 292.83 777.003 L 292.83 824.003 L 365.83 772.203 L 365.83 725.203 L 365.83 725.203 Z " fill="rgb(199,133,99)"/><path d=" M 220.03 741.103 L 275.73 780.603 L 275.73 806.103 L 220.03 766.603 L 220.03 741.103 L 220.03 741.103 Z " fill="rgb(222,190,151)"/></g></g><path d=" M 309.068 746.577 L 271.179 746.577 L 271.179 688.753 L 286.801 688.753 L 286.801 733.96 L 309.068 733.96 L 309.068 746.577 L 309.068 746.577 Z " fill="rgb(0,0,0)"/></svg>