<?xml version="1.0" encoding="UTF-8" standalone="no"?><!-- Generator: Gravit.io --><svg xmlns="http://www.w3.org/2000/svg" xmlns:xlink="http://www.w3.org/1999/xlink" style="isolation:isolate" viewBox="213.03 664 152.8 160.003" width="152.8pt" height="160.003pt"><g><g><path d=" M 213.03 772.203 L 286.13 824.003 L 286.13 777.003 L 213.03 725.203 L 213.03 772.203 L 213.03 772.203 Z " fill="rgb(209,168,125)"/><path d=" M 251.03 693.103 L 215.53 718.703 L 289.53 771.103 L 325.03 745.503 L 251.03 693.103 L 251.03 693.103 Z " fill="rgb(222,190,151)"/><path d=" M 251.03 693.103 L 325.03 745.503 L 365.83 718.703 L 291.8 667 L 251.03 693.103 Z " fill="rgb(209,168,125)"/><path d=" M 365.83 725.203 L 292.83 777.003 L 292.83 824.003 L 365.83 772.203 L 365.83 725.203 L 365.83 725.203 Z " fill="rgb(199,133,99)"/><path d=" M 220.03 741.103 L 275.73 780.603 L 275.73 806.103 L 220.03 766.603 L 220.03 741.103 L 220.03 741.103 Z " fill="rgb(222,190,151)"/></g></g><path d=" M 294.669 745.026 L 281.267 745.026 L 270.609 707.492 L 270.289 707.492 L 270.289 707.492 Q 271.037 717.081 271.037 722.392 L 271.037 722.392 L 271.037 745.026 L 258.562 745.026 L 258.562 692.914 L 277.311 692.914 L 288.182 729.913 L 288.467 729.913 L 299.125 692.914 L 317.91 692.914 L 317.91 745.026 L 304.971 745.026 L 304.971 722.178 L 304.971 722.178 Q 304.971 720.396 305.024 718.221 L 305.024 718.221 L 305.024 718.221 Q 305.078 716.047 305.505 707.563 L 305.505 707.563 L 305.185 707.563 L 294.669 745.026 L 294.669 745.026 Z " fill="rgb(0,0,0)"/></svg>