<?xml version="1.0" encoding="UTF-8" standalone="no"?><!-- Generator: Gravit.io --><svg xmlns="http://www.w3.org/2000/svg" xmlns:xlink="http://www.w3.org/1999/xlink" style="isolation:isolate" viewBox="213.03 657 152.8 167.003" width="152.8pt" height="167.003pt"><g><g><path d=" M 213.03 772.203 L 286.13 824.003 L 286.13 777.003 L 213.03 725.203 L 213.03 772.203 L 213.03 772.203 Z " fill="rgb(209,168,125)"/><path d=" M 251.03 693.103 L 215.53 718.703 L 289.53 771.103 L 325.03 745.503 L 251.03 693.103 L 251.03 693.103 Z " fill="rgb(222,190,151)"/><path d=" M 251.03 693.103 L 325.03 745.503 L 365.83 718.703 L 291.8 667 L 251.03 693.103 Z " fill="rgb(209,168,125)"/><path d=" M 365.83 725.203 L 292.83 777.003 L 292.83 824.003 L 365.83 772.203 L 365.83 725.203 L 365.83 725.203 Z " fill="rgb(199,133,99)"/><path d=" M 220.03 741.103 L 275.73 780.603 L 275.73 806.103 L 220.03 766.603 L 220.03 741.103 L 220.03 741.103 Z " fill="rgb(222,190,151)"/></g></g><path d=" M 308.989 729.016 L 308.989 729.016 L 308.989 729.016 Q 308.989 734.395 306.26 738.568 L 306.26 738.568 L 306.26 738.568 Q 303.531 742.74 298.39 745.054 L 298.39 745.054 L 298.39 745.054 Q 293.248 747.368 286.327 747.368 L 286.327 747.368 L 286.327 747.368 Q 280.552 747.368 276.637 746.557 L 276.637 746.557 L 276.637 746.557 Q 272.721 745.746 268.489 743.729 L 268.489 743.729 L 268.489 729.807 L 268.489 729.807 Q 272.958 732.101 277.784 733.386 L 277.784 733.386 L 277.784 733.386 Q 282.609 734.672 286.643 734.672 L 286.643 734.672 L 286.643 734.672 Q 290.124 734.672 291.745 733.466 L 291.745 733.466 L 291.745 733.466 Q 293.367 732.259 293.367 730.361 L 293.367 730.361 L 293.367 730.361 Q 293.367 729.174 292.714 728.284 L 292.714 728.284 L 292.714 728.284 Q 292.062 727.395 290.618 726.485 L 290.618 726.485 L 290.618 726.485 Q 289.174 725.575 282.925 722.767 L 282.925 722.767 L 282.925 722.767 Q 277.27 720.196 274.442 717.784 L 274.442 717.784 L 274.442 717.784 Q 271.614 715.371 270.249 712.247 L 270.249 712.247 L 270.249 712.247 Q 268.885 709.122 268.885 704.851 L 268.885 704.851 L 268.885 704.851 Q 268.885 696.861 274.699 692.392 L 274.699 692.392 L 274.699 692.392 Q 280.513 687.923 290.677 687.923 L 290.677 687.923 L 290.677 687.923 Q 299.655 687.923 308.989 692.076 L 308.989 692.076 L 304.204 704.139 L 304.204 704.139 Q 296.096 700.421 290.203 700.421 L 290.203 700.421 L 290.203 700.421 Q 287.157 700.421 285.773 701.489 L 285.773 701.489 L 285.773 701.489 Q 284.389 702.557 284.389 704.139 L 284.389 704.139 L 284.389 704.139 Q 284.389 705.839 286.149 707.184 L 286.149 707.184 L 286.149 707.184 Q 287.909 708.529 295.7 712.088 L 295.7 712.088 L 295.7 712.088 Q 303.175 715.45 306.082 719.306 L 306.082 719.306 L 306.082 719.306 Q 308.989 723.163 308.989 729.016 Z " fill="rgb(0,0,0)"/></svg>