<?xml version="1.0" encoding="UTF-8" standalone="no"?><!-- Generator: Gravit.io --><svg xmlns="http://www.w3.org/2000/svg" xmlns:xlink="http://www.w3.org/1999/xlink" style="isolation:isolate" viewBox="589.845 326.078 173.7 180.687" width="173.7pt" height="180.687pt"><g><g><g><path d=" M 673.345 326.603 C 673.245 326.903 671.545 331.703 669.545 337.203 L 666.045 347.203 L 671.145 347.403 L 676.245 347.603 L 673.745 354.703 C 672.345 358.603 671.245 361.903 671.345 362.003 C 671.445 362.003 675.345 357.603 680.145 352.003 L 688.745 341.903 L 683.645 341.803 L 678.445 341.703 L 679.145 339.903 C 679.445 338.903 680.745 335.403 681.945 332.103 L 684.045 326.103 L 678.845 326.103 C 675.045 326.003 673.545 326.203 673.345 326.603 Z " fill="rgb(0,0,0)"/><path d=" M 593.345 355.403 C 591.445 357.203 589.845 358.803 589.845 359.103 C 589.845 359.603 598.745 378.703 599.145 379.203 C 599.245 379.303 600.945 377.903 602.945 375.903 C 605.145 373.703 606.645 372.503 606.945 372.803 C 607.145 373.103 608.745 376.203 610.345 379.803 C 612.045 383.403 613.445 386.303 613.545 386.103 C 613.645 386.003 613.245 380.003 612.645 372.803 L 611.545 359.703 L 608.145 363.103 C 606.245 364.903 604.545 366.403 604.345 366.403 C 604.045 366.403 602.345 363.203 600.545 359.303 C 598.745 355.403 597.145 352.203 596.945 352.203 C 596.845 352.203 595.245 353.603 593.345 355.403 Z " fill="rgb(0,0,0)"/><path d=" M 746.145 366.803 C 740.945 369.303 736.545 371.403 736.445 371.503 C 736.345 371.603 737.745 373.303 739.745 375.303 C 741.745 377.303 743.145 379.003 743.045 379.103 C 742.945 379.203 739.745 380.803 735.945 382.603 C 732.145 384.503 729.345 386.003 729.545 386.003 C 729.845 386.003 735.845 385.603 743.045 385.003 L 756.045 384.003 L 752.345 380.303 L 748.645 376.603 L 756.145 373.003 C 760.245 371.003 763.545 369.303 763.545 369.203 C 763.545 368.603 756.845 362.203 756.345 362.303 C 755.945 362.203 751.445 364.203 746.145 366.803 Z " fill="rgb(0,0,0)"/><path d=" M 654.545 372.103 C 649.445 373.803 645.245 377.003 643.345 380.903 C 642.645 382.403 642.345 382.503 639.645 382.803 C 631.445 383.703 624.145 388.603 620.945 395.403 C 619.845 397.703 619.645 398.803 619.545 403.003 L 619.545 407.903 L 617.045 409.003 C 613.045 410.903 607.645 416.603 605.245 421.603 C 601.645 429.203 600.545 436.803 602.045 443.803 C 602.845 447.303 605.245 453.203 606.145 453.803 C 606.345 453.903 606.045 454.803 605.345 455.803 C 603.145 459.103 602.145 462.803 602.145 467.703 C 602.145 473.103 603.045 476.903 605.645 482.203 C 614.145 499.203 633.145 509.003 652.245 506.303 C 656.845 505.603 664.545 503.203 668.845 501.003 L 671.745 499.603 L 674.645 501.003 C 678.845 503.103 686.645 505.603 691.245 506.303 C 708.545 508.803 725.845 501.003 735.345 486.503 C 739.645 479.903 741.445 474.303 741.445 467.703 C 741.445 463.303 740.245 458.903 738.245 455.903 L 737.245 454.303 L 739.045 450.703 C 741.445 445.803 742.445 441.103 742.045 435.603 C 741.745 430.203 740.745 426.703 738.245 421.603 C 735.845 416.703 730.445 410.803 726.445 409.003 L 723.945 407.903 L 723.845 403.003 C 723.845 398.703 723.645 397.803 722.445 395.403 C 719.045 388.503 711.945 383.603 703.845 382.803 C 700.945 382.503 700.745 382.403 700.045 380.903 C 698.145 377.003 693.945 373.703 688.745 372.103 C 683.545 370.503 678.345 371.103 673.945 374.103 L 671.745 375.603 L 669.545 374.103 C 665.145 371.203 659.645 370.503 654.545 372.103 Z " fill="rgb(0,0,0)"/><path d=" M 663.545 379.103 C 664.545 379.503 665.845 380.403 666.645 381.103 L 667.945 382.403 L 667.945 398.003 L 667.945 413.703 L 665.245 411.903 C 660.645 408.903 656.945 406.003 653.045 402.103 L 649.345 398.403 L 646.745 400.403 C 645.345 401.503 644.145 402.703 644.145 403.003 C 644.145 403.803 652.645 411.903 656.845 415.003 C 659.045 416.703 662.445 418.903 664.345 419.903 L 667.845 421.803 L 667.845 457.703 L 667.845 493.603 L 663.945 495.503 C 657.345 498.603 652.945 499.503 645.245 499.503 C 639.045 499.503 638.345 499.403 634.045 497.903 C 627.845 495.803 623.545 493.103 619.045 488.603 C 614.845 484.403 611.845 479.803 610.245 475.003 C 608.345 469.403 609.445 461.303 612.345 458.903 C 613.345 458.103 617.745 458.503 624.045 460.003 C 632.145 462.003 638.745 465.303 643.845 469.803 L 646.245 471.903 L 648.745 469.703 C 650.745 467.903 651.245 467.203 650.845 466.703 C 650.345 465.803 645.745 461.803 644.445 461.103 C 643.145 460.403 643.645 460.103 647.445 458.803 C 650.745 457.703 655.145 455.303 657.845 453.103 L 659.545 451.803 L 657.045 449.103 L 654.545 446.403 L 652.445 448.103 C 648.145 451.403 643.345 453.203 636.445 454.003 C 632.245 454.503 631.645 454.503 627.445 453.303 C 623.445 452.303 618.245 451.303 614.445 451.003 C 612.845 450.903 611.445 449.103 609.845 445.103 C 608.445 441.503 608.345 434.303 609.645 430.003 C 611.745 423.003 616.545 416.903 621.545 415.103 L 624.245 414.103 L 627.545 415.903 C 635.045 419.803 641.045 427.603 643.445 436.503 C 643.945 438.203 644.345 439.603 644.445 439.703 C 644.445 439.803 646.045 439.503 647.945 439.103 C 650.245 438.503 651.345 438.103 651.345 437.603 C 651.345 436.103 648.845 429.403 646.745 425.603 C 642.945 418.503 637.045 412.603 630.345 409.203 C 627.445 407.703 627.045 407.403 626.745 405.803 C 626.345 403.503 626.745 399.903 627.745 398.003 C 628.845 395.903 631.745 393.103 634.245 391.903 C 637.945 390.103 640.445 389.903 644.745 390.903 C 646.845 391.403 648.645 391.803 648.945 391.803 C 649.145 391.803 649.345 390.603 649.345 389.003 C 649.345 387.503 649.545 385.503 649.845 384.503 C 651.045 380.003 658.645 377.003 663.545 379.103 Z " fill="rgb(255,218,163)"/><path d=" M 689.445 380.103 C 693.045 382.103 693.845 383.503 693.845 387.903 C 693.845 390.403 693.945 391.603 694.345 391.603 C 694.645 391.603 696.045 391.303 697.445 390.903 C 701.145 389.903 705.045 390.003 708.145 391.203 C 711.045 392.203 714.445 395.303 715.845 397.803 C 716.845 399.803 717.245 403.703 716.645 406.203 C 716.145 407.903 715.845 408.303 713.845 409.203 C 707.245 412.003 699.845 413.303 692.245 413.003 L 687.545 412.803 L 687.245 415.003 C 687.045 416.203 686.845 417.703 686.745 418.403 C 686.445 420.003 687.245 420.303 693.645 420.303 C 698.545 420.303 698.545 420.303 698.245 421.303 C 696.545 426.803 696.345 428.103 696.345 432.703 C 696.345 435.503 696.445 437.903 696.645 438.103 C 696.845 438.203 698.545 438.103 700.445 437.803 L 703.845 437.203 L 703.645 434.703 C 703.245 430.803 704.045 426.103 705.845 422.403 L 707.445 419.103 L 712.345 417.403 C 715.045 416.403 717.945 415.403 718.745 415.003 C 721.045 414.103 724.045 415.403 727.545 418.903 C 732.745 424.103 735.745 433.103 734.745 440.403 C 734.245 443.703 732.145 449.203 731.045 450.103 C 730.745 450.303 728.545 450.303 726.045 450.103 C 720.345 449.503 711.945 450.203 705.345 451.903 C 700.445 453.103 691.345 457.203 688.645 459.403 L 687.245 460.603 L 689.245 463.303 C 690.345 464.803 691.345 466.003 691.545 466.003 C 691.645 466.003 693.145 465.103 694.845 464.103 C 699.445 461.303 704.145 459.503 709.745 458.303 C 713.945 457.403 716.045 457.303 722.445 457.403 C 731.045 457.503 730.545 457.403 732.645 461.303 C 733.845 463.603 734.345 469.303 733.545 473.003 C 732.245 478.903 727.245 486.403 721.345 491.203 C 718.445 493.503 710.545 497.703 709.045 497.703 C 708.545 497.703 708.045 497.203 707.945 496.403 C 707.545 495.003 707.445 481.803 707.845 477.803 L 708.045 475.203 L 704.845 474.303 C 703.045 473.903 701.545 473.603 701.445 473.803 C 701.345 473.903 700.945 475.803 700.645 477.903 C 699.945 482.603 699.845 492.203 700.645 495.903 C 700.945 497.403 701.045 498.903 700.845 499.203 C 700.345 500.003 691.945 499.303 687.345 498.103 C 685.145 497.503 681.545 496.203 679.445 495.203 L 675.545 493.303 L 675.545 437.703 L 675.545 382.303 L 676.845 381.003 C 680.045 378.003 684.945 377.603 689.445 380.103 Z " fill="rgb(255,218,163)"/></g></g></g></svg>