<?xml version="1.0" encoding="utf-8"?>
<!-- Svg Vector Icons : http://www.onlinewebfonts.com/icon -->
<!DOCTYPE svg PUBLIC "-//W3C//DTD SVG 1.1//EN" "http://www.w3.org/Graphics/SVG/1.1/DTD/svg11.dtd">
<svg version="1.1" xmlns="http://www.w3.org/2000/svg" xmlns:xlink="http://www.w3.org/1999/xlink" x="0px" y="0px" viewBox="0 0 256 256" enable-background="new 0 0 256 256" xml:space="preserve">
<metadata> Svg Vector Icons : http://www.onlinewebfonts.com/icon </metadata>
<g> <path fill="#e9eaea" d="M10,134C10,68.8,62.8,16,128,16c65.2,0,118,52.8,118,118s-52.8,118-118,118C62.8,252,10,199.2,10,134"/> <path fill="#ffffff" d="M226,160c0-7.2-19.2-22.8-24-32v-12c0-30.8-25.2-56-56-56h-24c-16.8,0-45.2,5.6-54.8,11.2 C46.8,83.6,38,102,38,132c0,49.2,36,58,36,92v32h84v-16h36c9.6,0,15.2-13.2,12-24c-1.2-4-0.4-6.4,0-8c3.6-1.2,8-4.8,8-8v-8.4 c2-0.4,3.2-1.6,4-3.6c1.2-3.2-1.2-8.8-4-16C219.6,170,226,167.2,226,160L226,160z"/> <path fill="#294e7d" d="M194,244h-44v-8h44c2.8,0,4.8-2,6-3.6c2.8-4,4-10.4,2.4-15.2c-1.6-4.8-0.4-8.4,0-10l0.4-2l2-0.8 c2.4-0.8,5.2-3.2,5.2-4.4h8c0,4.8-4.4,8.8-8.4,10.8c0,1.2,0,2.4,0.4,4c2.4,7.6,1.2,16.4-3.6,22.4C203.2,241.6,198.8,244,194,244z" /> <path fill="#294e7d" d="M154,240h8v16h-8V240z M210,196h-16v-8h16c3.6,0,4-1.2,4.4-1.6c0.4-1.6-1.6-7.2-3.2-11.2l-2-5.6l3.6-1.6 c6.8-2.4,9.6-4.4,9.6-8.4c0-2.8-7.2-10.4-11.6-15.2c-4.8-5.2-9.6-10.4-12-14.8l-0.4-0.8v-13.2c0-21.6-13.6-40.8-33.6-48.4l2.8-7.6 c23.2,8.8,38.4,31.2,38.4,56v10.8c2,3.6,6.4,8,10.4,12.4c7.2,8,13.6,14.8,13.6,20.8c0,8-5.6,12-10.8,14.4c2.4,6.4,4,11.6,2.4,15.2 C220.4,192.4,217.6,196,210,196L210,196z M78,256h-8v-32c0-14-6.8-23.6-14.8-34.4C45.2,176,34,160.4,34,132 c0-31.2,9.6-51.2,31.2-64.4c4.8-3.2,13.6-5.6,20-6.8l2,7.6c-8,2-14.4,4-17.6,6C50.4,86,42,103.2,42,132c0,25.6,10,39.6,19.6,52.8 C70,196.4,78,207.2,78,224V256z"/> <path fill="#a3cdee" d="M126,44h20v16h-20V44z"/> <path fill="#a3cdee" d="M106,52v76H84.8l41.2,46l41.2-46H146V52"/> <path fill="#294e7d" d="M126,178c-1.2,0-2.4-0.4-2.8-1.2l-41.6-46c-1.2-1.2-1.2-2.8-0.8-4.4c0.8-1.6,2-2.4,3.6-2.4h17.2V52h8v76 c0,2.4-1.6,4-4,4H93.2l32.4,36l32.4-36h-12.4c-2.4,0-4-1.6-4-4V52h8v72h17.2c1.6,0,3.2,0.8,3.6,2.4c0.8,1.6,0.4,3.2-0.8,4.4 l-40.8,45.6C128.4,177.2,127.2,178,126,178z M82,32h8v56h-8V32z"/> <path fill="#294e7d" d="M82,96h8v8h-8V96z M162,20h8v76h-8V20z M162,4h8v8h-8V4z M82,16h8v8h-8V16z M82,0h8v8h-8V0z M102,20h8v76 h-8V20z M102,4h8v8h-8V4z M142,44h8v64h-8V44z M142,28h8v8h-8V28z M122,16h8v64h-8V16z"/></g>
</svg>