<?xml version="1.0" encoding="UTF-8"?>
<svg xmlns="http://www.w3.org/2000/svg" version="1.1" viewBox="0 0 236 142.8">
  <defs>
    <style>
      .cls-1 {
        stroke-width: 8.1px;
      }

      .cls-1, .cls-2, .cls-3 {
        stroke: #242021;
      }

      .cls-1, .cls-2, .cls-3, .cls-4, .cls-5, .cls-6 {
        fill: none;
        stroke-linecap: round;
        stroke-linejoin: round;
      }

      .cls-2, .cls-4, .cls-5, .cls-6 {
        stroke-width: 4px;
      }

      .cls-3 {
        stroke-width: 6.6px;
      }

      .cls-4 {
        stroke: #201d1f;
      }

      .cls-7 {
        fill: #d6d7d9;
      }

      .cls-8 {
        display: none;
      }

      .cls-9 {
        fill: #221f1e;
      }

      .cls-5 {
        stroke: #211e20;
      }

      .cls-6 {
        stroke: #221f20;
      }
    </style>
  </defs>
  <!-- Generator: Adobe Illustrator 28.6.0, SVG Export Plug-In . SVG Version: 1.2.0 Build 709)  -->
  <g>
    <g id="Ebene_1">
      <g id="Generatives_Objekt">
        <g>
          <path class="cls-9" d="M151.6,132.6c-.5-1.1-1.3-2.1.4-2.4h0c1-.1,1.1,0,1.7.7"/>
          <path class="cls-9" d="M61.6,104.4h0c.7,0,1.9,1.4,2,1.5"/>
          <path class="cls-9" d="M117.5,138.9c0-.2.7-1.2.9-1.2h0"/>
          <path class="cls-9" d="M76.2,124.4h0c.8-.3,1.9,1,2,1.5"/>
          <path class="cls-9" d="M138.3,141.2c0-.7.8-1.2,1.2-1.2h0c.2,0,.6,0,.8,0"/>
          <g>
            <path class="cls-9" d="M92.6,134.9h0c.3,0,1.5,1.8,1.4,2.4"/>
            <path class="cls-7" d="M116.3,57.1c.4-.2,1.7.2,2.5,0,0,1.5,0,3,0,4.5-3.7-.4-2.1.7-3.4,2.4-2.4,3-6.8,6-9.5,2.4h-1.4c0,0-.4-.5-.4-.5,1.1-3.9,2.4.1,7-2.3,3-1.6,4.8-6.2,5.2-6.4h0Z"/>
          </g>
        </g>
        <g>
          <path class="cls-5" d="M69.6,18.1"/>
          <path class="cls-2" d="M97.3,112.3c13.6,10.8,20.1-.6,21.7-.6,7.7,7.3,13.3,6.6,21.5.6"/>
          <path class="cls-1" d="M146.5,14.7c-8.2-12.3-19.4-12-27.5.3"/>
          <path class="cls-1" d="M72,27.7c2-9.6,10.1-14.6,19-13.1l4.6,10.3"/>
          <path class="cls-1" d="M146.5,14.7c9-1.6,17.3,3,19.3,12.9"/>
          <path class="cls-1" d="M72,27.7c-19.1,7-10.7,23.4-11.2,24.9-13.2,8.3-11.8,25.7,1.4,32.9"/>
          <path class="cls-2" d="M102.5,116.7c-1.4,6.2-4.2,6.7-8.8,9.5"/>
          <path class="cls-2" d="M143.1,25.2c-.3-5.2,1.3-6.3,3.4-10.5"/>
          <path class="cls-2" d="M72,27.7c2,10,9.2,17.9,18.9,13"/>
          <path class="cls-1" d="M165.8,27.6c19.3,7.1,10.7,23.5,11.3,24.9,16.9,10.6,6.9,31.1-1.3,32.7-6.9,1.3-15.7-3.4-17.6-11.6"/>
          <path class="cls-2" d="M165.8,27.6c-1.7,10.1-9.7,18.5-19.1,12.7"/>
          <path class="cls-2" d="M135.3,116.7c1.5,6.2,4.1,6.7,8.8,9.5"/>
          <line class="cls-2" x1="95.6" y1="24.9" x2="103.9" y2="25.3"/>
          <path class="cls-1" d="M144.1,126.1c-5.9,12.8-18.7,14.7-25,1.7"/>
          <line class="cls-2" x1="95.6" y1="24.9" x2="87.3" y2="29.2"/>
          <line class="cls-2" x1="118.7" y1="24.5" x2="113" y2="30.8"/>
          <line class="cls-2" x1="118.7" y1="24.5" x2="124.3" y2="30.2"/>
          <path class="cls-3" d="M118.7,24.5c.2,10.9.1,21.7.1,32.6,0,1.5,0,3,0,4.5,0,22.1,0,44.2.2,66.3"/>
          <path class="cls-1" d="M93.7,126.1c6.2,12.9,18.4,14.6,25.3,1.7"/>
          <line class="cls-2" x1="143.1" y1="25.2" x2="134.4" y2="25.2"/>
          <path class="cls-1" d="M91.9,15.2c8.2-18.3,32.5-7.5,25.9,11.6"/>
          <line class="cls-2" x1="143.1" y1="25.2" x2="150.5" y2="29.2"/>
          <path class="cls-2" d="M100,34.9c5.3,7.9,11.7,7.8,19.8,11,7.7-3.1,12.9-3.7,18.3-10.9"/>
          <line class="cls-2" x1="106" y1="42.1" x2="99.5" y2="49.7"/>
          <line class="cls-2" x1="131.8" y1="42.1" x2="138.3" y2="49.7"/>
          <path class="cls-2" d="M120.5,61.9c4,3,7,4.8,12,4.3"/>
          <path class="cls-2" d="M156.3,57c5.2.9,9.9,1.7,13.3,6.5"/>
          <path class="cls-2" d="M152.1,47.2c11.9,19.4-11.8,32.5-19.6,19"/>
          <path class="cls-2" d="M79.3,74.3c-3.3,9.7-8.4,10.2-17.1,11.1"/>
          <path class="cls-1" d="M62.2,85.5c-.7,14.8,6.9,22.3,20.6,17.6"/>
          <path class="cls-1" d="M175.6,87c.4,14.5-8,20.4-20.8,16"/>
          <line class="cls-2" x1="132.5" y1="66.2" x2="140.5" y2="60.5"/>
          <path class="cls-2" d="M93.4,83.1c15.8,16.2,24.2,1.4,25.7,1.4,8.1,9.8,18.1,6.8,25.5-2"/>
          <path class="cls-2" d="M76.1,82.3c4.2,1.2,8,3.4,10.6,7.2"/>
          <path class="cls-2" d="M161.7,82.3c-3.9,1.1-8.4,3.3-10.3,7.3"/>
          <path class="cls-2" d="M100.6,90.1c-.3,5.8-.6,8.7-5.4,12.4"/>
          <path class="cls-2" d="M137.2,90c.2,6,.8,9.3,5.9,12.7"/>
          <path class="cls-1" d="M77.4,105.8c-1.4,11.7,5.3,19.7,16.3,20.3"/>
          <path class="cls-1" d="M144.1,126.1c11-.6,17.7-8.5,16.3-20.3"/>
          <path class="cls-6" d="M81.5,57.4c-4.8-.2-10.3,1.7-13,6.2"/>
          <path class="cls-6" d="M85.8,47.5c-12.3,20.7,14.2,31.6,18.7,18.8l-.4-.6-6.5-5"/>
          <path class="cls-4" d="M165.4,118"/>
        </g>
      </g>
      <g class="cls-8">
        <path d="M168.1,142.8h-100.1c-5,0-9.1-4.1-9.1-9.1v-9.2l-3.6-1.9c0,0-.2,0-.2,0C20.6,100.7,0,63.4,0,22.7v-11.9C0,4.9,4.8,0,10.8,0h18.1c2.1-.2,3.9,1.4,4,3.5.2,2.1-1.4,3.9-3.5,4H10.8c-1.8,0-3.2,1.5-3.2,3.3v11.9c0,38.1,19.2,73,51.4,93.4l5.5,2.9c1.2.7,2,1.9,2,3.3v11.4c0,.9.7,1.6,1.6,1.6h100.1c.9,0,1.6-.7,1.6-1.6v-5.5c0-.9-.7-1.6-1.6-1.6h-89c-2.1-.2-3.6-2-3.5-4,0-1.9,1.6-3.3,3.5-3.5h88.9c5,0,9.1,4.1,9.1,9.1v5.5c-.1,5-4.1,9.1-9.1,9.1h0Z"/>
        <path d="M183.7,119.9c-2.1,0-3.8-1.7-3.7-3.8,0-1.2.6-2.3,1.6-3,29.4-20.7,46.9-54.4,46.9-90.4v-11.9c0-1.8-1.5-3.3-3.3-3.3H44.6c-2.1-.2-3.6-2-3.5-4,.1-1.9,1.6-3.3,3.5-3.5h180.6c5.9,0,10.8,4.8,10.8,10.8v11.9c0,38.4-18.7,74.4-50.1,96.5-.7.5-1.4.7-2.2.7Z"/>
        <path d="M188.1,86.6c-1.2,0-2.2-1-2.1-2.2,0-.7.3-1.3.9-1.7,16.8-11.8,26.8-31.1,26.8-51.7v-6.8c0-1-.9-1.9-1.9-1.9h-103.3c-1.2-.1-2.1-1.1-2-2.3,0-1.1.9-1.9,2-2h103.3c3.4,0,6.2,2.7,6.2,6.2v6.8c0,22-10.7,42.5-28.6,55.2-.4.3-.8.4-1.3.4Z"/>
      </g>
    </g>
  </g>
</svg>