<?xml version="1.0" encoding="utf-8"?>
<!-- Svg Vector Icons : http://www.onlinewebfonts.com/icon -->
<!DOCTYPE svg PUBLIC "-//W3C//DTD SVG 1.1//EN" "http://www.w3.org/Graphics/SVG/1.1/DTD/svg11.dtd">
<svg version="1.1" xmlns="http://www.w3.org/2000/svg" xmlns:xlink="http://www.w3.org/1999/xlink" x="0px" y="0px" viewBox="0 0 256 256" enable-background="new 0 0 256 256" xml:space="preserve">
<metadata> Svg Vector Icons : http://www.onlinewebfonts.com/icon </metadata>
<g> <path fill="#ebedef" d="M82.2,252.3c0.4-18.4-5.6-28.4-14.9-30.7c-3.6-2.1-7.7-3.6-13.1-4.8l-2.5-0.4c-3-0.5-6.1-0.8-9.2-1.2 c-4.1-0.4-7.9-0.8-11.7-1.7l-2-0.4c-4.6-0.8-6.9-1.5-7.6-3.4c-1-2.8,0.1-5.7,2.1-10.1l0.9-2c1.7-4.1,3.1-8.6,1.6-13.5 c-0.4-1.4-1.1-2.7-2-4c0.8-0.6,1.4-1.3,2-2.1c3.9-5.8-0.4-10.6-1.9-12.4c-0.1-0.1-0.2-0.3-0.3-0.4c0.2-0.3,0.4-0.6,0.6-1 c2.4-3.7,4.8-8.3,4.2-14.3c0-0.2-0.1-0.6-0.1-0.8c-1.6-7.2-7.5-9.5-11.3-11c-1.9-0.8-3.8-1.5-4.6-2.4c-0.2-0.2-0.4-0.7-0.4-1.1 L34.2,111c3.1-3.3,6.1-6.6,9.2-9.9c0.4-0.5,0.7-1,1-1.5l1.1-2.6c2.3-5.9-0.1-10.4-1.9-13.7l-0.8-1.5c-0.3-0.6-0.5-1.1-0.7-1.7 c-0.2-0.6-0.2-1.1-0.2-1.2c1.1-5.2,2.8-10.2,5.1-15.5c1.9-4.5,4.3-9,7.1-13.5c2.6-4.1,5.4-8.2,8.8-12.6c2.6-3.3,5.3-6.6,7.6-9.3 c2.7-2.4,5.6-4.7,8.7-6.8c1.3-0.9,2.6-1.7,3.9-2.5c1.7-1.1,3.5-2.1,5.3-3c5.5-2.9,11.5-5.2,17.8-7.1c11.8-3.5,24.6-5.2,37.8-5 c16.9,1.4,31,4.1,43,8.3c2,0.7,4,1.5,5.9,2.3c2.6,1.1,5.1,2.3,7.6,3.5c5.3,2.8,10.3,6,15,9.7c1.2,0.9,2.4,1.9,3.6,2.8 c1.8,1.6,3.6,3.3,5.2,5.1c2.3,2.5,4.4,5.3,6.3,8.3c5.8,9.1,9.8,20.1,12.1,33.7c0.2,1.4,0.4,2.7,0.6,4l0.6,5.7 c0.9,10.9,0.3,20.8-1.9,29.6c-0.2,1-0.5,2-0.8,2.9c-0.4,1.3-0.8,2.7-1.5,4.4c-1.3,4.9-3.4,9.9-6.4,15.2c-0.8,1.4-1.7,2.9-2.5,4.3 c-0.7,1.2-1.5,2.4-2.3,3.5c-2.2,3.3-4.5,6.5-7,9.6c-1.6,2.1-3.2,4.2-4.8,6.3c-4.7,6.1-9.6,12.4-13.9,19c-3.8,5.9-6.7,11.4-8.7,16.8 c-1.6,4.1-2.7,8.2-3.5,12.7c-0.2,2.3-0.3,5.4-0.4,8.8c-0.2,6.3-0.4,14-0.5,20.7l0,2.2c-0.1,3.8,1,9.1,0.9,9.1"/> <path fill="#f5a719" d="M104.4,57.3c1.5,0,3,0.2,4.5,0.4c1.9-17.1,16.4-30.4,34.1-30.4c14.7,0,27.2,9.3,32.1,22.3 c2.1-0.5,4.2-0.9,6.5-0.9c14.2,0,25.7,11.5,25.7,25.7c0,3.5-0.7,6.7-1.9,9.7c8.6,2.8,14.8,10.8,14.8,20.3 c0,11.8-9.6,21.4-21.4,21.4c-14.2,0-30,11.5-30,25.7v-25.7c0-9.5-7.7-17.1-17.1-17.1h-47.1c-14.2,0-25.7-11.5-25.7-25.7 C78.7,68.8,90.2,57.3,104.4,57.3z"/> <path fill="#42525a" d="M245.6,87.6l-0.6-5.7c-0.2-1.3-0.4-2.7-0.6-4.1c-2.3-13.9-6.4-25.2-12.5-34.7c-2-3.1-4.2-6-6.6-8.7 c-1.7-1.9-3.6-3.7-5.5-5.4c-1.2-1-2.5-2-3.6-2.9c-4.7-3.7-9.9-7.1-15.4-9.9c-2.5-1.3-5.1-2.5-7.8-3.6c-2-0.8-4-1.6-6-2.3 c-12.1-4.3-26.2-7-43.5-8.4c-13.5-0.2-26.3,1.5-38.3,5c-6.4,1.9-12.5,4.3-18.2,7.3c-1.9,1-3.7,2-5.5,3.1c-1.4,0.8-2.7,1.7-4,2.6 c-3.2,2.2-6.2,4.5-8.9,7c-0.2,0.2-0.3,0.3-0.5,0.5c-2.3,2.7-5,5.9-7.5,9.3c-3.4,4.4-6.3,8.5-8.8,12.7c-2.9,4.6-5.3,9.3-7.3,13.8 c-2.4,5.5-4.1,10.7-5.2,16.1c-0.1,0.6-0.1,1.3,0,1.9c0.1,0.6,0.2,1.2,0.4,1.7c0.2,0.8,0.6,1.6,1,2.5l0.8,1.6c1.8,3.4,2.9,5.8,1.6,9 l-1,2.5c-2.9,3.2-5.9,6.4-8.9,9.6l-21.7,23.1c-0.9,0.9-1.4,2.2-1.4,3.4c0,1.5,0.5,3.1,1.7,4.5c1.6,1.7,3.9,2.6,6.3,3.5 c4.1,1.6,7,3,8,7.3c0.4,4.3-1.3,7.7-3.3,10.7l-0.6,0.9c-1.3,1.9-0.8,4.8,0.8,6.5c2.6,2.9,2.5,4.3,1.6,5.7c-0.3,0.4-0.7,0.8-1.1,1.1 c-2.1,1.6-2.5,4.6-1,6.8c0.6,0.8,1,1.7,1.3,2.6c1,3,0.2,6-1.4,9.6l-0.8,1.9c-1.9,4.3-3.9,8.7-2.1,13.7c1.8,4.7,6.8,5.6,11.1,6.4 l1.8,0.3c4.1,0.9,8.3,1.3,12,1.7c2.9,0.3,5.8,0.6,8.6,1.1l2.3,0.4c4.6,1,8.1,2.2,11.2,4c0.4,0.2,0.9,0.4,1.3,0.5 c9.8,2.5,10.9,16.7,10.7,25c-0.1,2.8,2.1,5.1,4.9,5.1c0,0,0.1,0,0.1,0c2.7,0,4.9-2.2,5-4.9c0.6-25.3-10.4-32.6-17.6-34.7 c-3.9-2.2-8.3-3.8-13.8-4.9l-2.5-0.4c-3-0.5-6.1-0.8-9.3-1.2c-4.3-0.4-7.6-0.8-11-1.6l-2-0.4c-0.7-0.1-2.5-0.5-3.6-0.8 c0.1-1.2,1-3.2,2-5.4l0.8-1.9c2-4.7,3.7-10.3,1.7-16.6c-0.2-0.5-0.4-1.1-0.6-1.6c2.4-3.6,4.1-9.1-0.2-15.5 c2.2-3.9,4.2-8.8,3.6-15.1c0-0.3-0.1-0.8-0.2-1.3c-2-8.9-8.7-12.2-13-13.9l17.7-18.8c3-3.2,6-6.4,9-9.7c0.8-0.9,1.4-1.9,1.9-3 l1.1-2.6c3-7.9-0.2-13.9-2-17.4l-0.7-1.4c-0.1-0.2-0.2-0.4-0.3-0.6c1-4.3,2.4-8.6,4.4-13.1c1.8-4.1,4-8.3,6.6-12.5 c2.4-3.8,5.1-7.7,8.2-11.8c2.4-3.1,4.8-6.1,7-8.6c2.4-2.1,5-4.1,7.6-6c1.2-0.8,2.4-1.6,3.6-2.3c1.6-1,3.2-1.9,4.8-2.7 c5.1-2.6,10.6-4.8,16.4-6.6c11-3.3,22.8-4.8,35-4.6c16.1,1.3,29.4,3.9,40.6,7.8c1.8,0.6,3.7,1.3,5.5,2.1c2.4,1,4.7,2.1,7,3.3 c4.9,2.6,9.6,5.5,13.9,9c1.1,0.8,2.1,1.6,3.2,2.5c1.6,1.4,3.2,2.9,4.6,4.5c2,2.2,3.9,4.7,5.6,7.4c5.3,8.3,8.9,18.4,11,30.9 c0.2,1.3,0.4,2.6,0.6,3.6l0.6,5.4c0.9,10,0.3,19.2-1.7,27.2c-0.2,0.9-0.5,1.8-0.7,2.6c-0.4,1.2-0.8,2.4-1.5,4.5 c-1.2,4.4-3.1,8.9-5.7,13.7c-0.7,1.3-1.5,2.6-2.3,3.9c-0.7,1.1-1.4,2.2-2.1,3.3c-1.9,2.8-4,5.7-6.6,9.2c-1.1,1.4-2.2,2.8-3.2,4.2 l-1.6,2c-4.6,6-9.4,12.1-13.6,18.6c-3.9,6-6.8,11.7-8.9,17.3c-1.7,4.4-2.9,8.7-3.7,13.8c-0.2,2.3-0.3,5.3-0.4,8.7 c-0.2,6.2-0.4,13.6-0.5,20.2l0,2.2c-0.1,3.4,0.6,7.6,0.9,9.6l5-0.6l-3.8-3.3l7.6,6.5c1.5-1.8,1.2-3.6,1-4.6 c-0.2-1.2-0.8-4.9-0.7-7.4l0-2.2c0.1-6.5,0.3-13.9,0.5-20.1c0.1-3.3,0.2-6.1,0.3-7.9c0.7-4,1.7-7.7,3.1-11.4c1.9-5,4.5-10,8-15.5 c3.9-6.1,8.6-12.1,13.2-18.2l1.4-1.8c1.1-1.4,2.2-2.9,3.3-4.3c2.8-3.6,5-6.7,7-9.6c0.8-1.2,1.5-2.4,2.3-3.6 c0.9-1.4,1.8-2.9,2.6-4.4c3.1-5.5,5.3-10.7,6.5-15.6c0.7-1.8,1.1-3.2,1.5-4.6c0.3-1,0.6-2,0.8-3.1 C245.9,109.1,246.5,98.8,245.6,87.6L245.6,87.6z"/> <path fill="#42525a" d="M222.7,105.1c0-9.5-5.2-18-13.3-22.5c0.5-2.2,0.8-4.4,0.8-6.7c0-17.7-15.3-32-33.4-29.8 C170.3,33.3,157.1,25,142.6,25c-17.9,0-33.1,12.3-37.3,29.2C88.7,54,75,67.5,75,84.2c0,16.6,13.5,30,30,30h45.9 c6.4,0,11.7,5.2,11.7,11.7v25c0,2.8,2.2,5,5,5s5-2.2,5-5c0-11.1,13.2-20,24.2-20C211.1,130.9,222.7,119.3,222.7,105.1L222.7,105.1z  M172.6,130.4v-4.4c0-12-9.7-21.7-21.7-21.7h-45.9c-11,0-20-9-20-20c0-11,9-20,20-20c1.1,0,2.3,0.1,3.5,0.3 c1.4,0.2,2.8-0.1,3.9-0.9c1.1-0.8,1.8-2.1,2-3.5C116,45.8,128.2,35,142.6,35c11.7,0,22.4,7.4,26.5,18.4c0.9,2.4,3.5,3.7,5.9,3.1 c1.8-0.5,3.4-0.7,5.1-0.7c11,0,20,9,20,20c0,2.6-0.5,5.2-1.5,7.6c-0.5,1.3-0.5,2.7,0.1,4c0.6,1.3,1.7,2.2,3,2.7 c6.5,2.1,10.9,8.2,10.9,15c0,8.7-7.1,15.9-15.9,15.9C188.3,120.9,179.3,124.5,172.6,130.4L172.6,130.4z"/> <path fill="#42525a" d="M142.6,75h8.3v10h-8.3V75z M125.9,75h8.3v10h-8.3V75z M159.3,75h8.3v10h-8.3V75z"/></g>
</svg>