<?xml version="1.0" encoding="utf-8"?>
<!-- Svg Vector Icons : http://www.onlinewebfonts.com/icon -->
<!DOCTYPE svg PUBLIC "-//W3C//DTD SVG 1.1//EN" "http://www.w3.org/Graphics/SVG/1.1/DTD/svg11.dtd">
<svg version="1.1" xmlns="http://www.w3.org/2000/svg" xmlns:xlink="http://www.w3.org/1999/xlink" x="0px" y="0px" viewBox="0 0 256 256" enable-background="new 0 0 256 256" xml:space="preserve">
<metadata> Svg Vector Icons : http://www.onlinewebfonts.com/icon </metadata>
<g> <path fill="#f5cc71" d="M25.3,112.7c0,56.7,46,102.7,102.7,102.7c56.7,0,102.7-46,102.7-102.7C230.7,56,184.7,10,128,10 C71.3,10,25.3,56,25.3,112.7L25.3,112.7L25.3,112.7z"/> <path fill="#ffffff" d="M87.9,127.7v28.3l15.2,7.3v51.6c0,6.2,5.3,11.2,11.9,11.2h24.5c6.6,0,11.9-5,11.9-11.2v-62.6L127.3,135 L87.9,127.7z"/> <path fill="#040000" d="M139.5,228.5H115c-7.9,0-14.3-6.1-14.3-13.6v-50.1l-13.8-6.6c-0.8-0.4-1.4-1.2-1.4-2.1v-28.3 c0-0.7,0.3-1.4,0.9-1.8c0.5-0.5,1.3-0.6,2-0.5l39.3,7.3c0.3,0.1,0.7,0.2,1,0.4l24.1,17.3c0.6,0.5,1,1.2,1,1.9v62.6 C153.8,222.4,147.4,228.5,139.5,228.5z M90.3,154.6l13.8,6.6c0.8,0.4,1.4,1.2,1.4,2.1v51.6c0,4.9,4.3,8.8,9.5,8.8h24.5 c5.2,0,9.5-4,9.5-8.8v-61.4l-22.7-16.3l-36-6.7L90.3,154.6L90.3,154.6z"/> <path fill="#76746f" d="M142.3,243.6h-28.5c-5.5,0-9.9-4.4-9.9-9.9v-14.2c0-5.2,4.3-9.5,9.5-9.5h29.2c5.2,0,9.5,4.3,9.5,9.5v14.2 C152.1,239.2,147.7,243.6,142.3,243.6L142.3,243.6z"/> <path fill="#040000" d="M142.3,246h-28.5c-6.8,0-12.3-5.5-12.3-12.3v-14.2c0-6.6,5.3-11.9,11.9-11.9h29.2c6.6,0,11.9,5.3,11.9,11.9 v14.2C154.5,240.5,149,246,142.3,246L142.3,246z M113.4,212.4c-3.9,0-7.1,3.2-7.1,7.1v14.2c0,4.1,3.4,7.5,7.5,7.5h28.5 c4.1,0,7.5-3.4,7.5-7.5v-14.2c0-3.9-3.2-7.1-7.1-7.1H113.4z"/> <path fill="#b6b7b7" d="M86,185.3h82.5v33.6H86V185.3z"/> <path fill="#040000" d="M168.5,221.2H86c-1.3,0-2.4-1.1-2.4-2.4v-33.6c0-1.3,1.1-2.4,2.4-2.4h82.5c1.3,0,2.4,1.1,2.4,2.4v33.6 C170.9,220.2,169.8,221.2,168.5,221.2z M88.4,216.5h77.8v-28.8H88.4V216.5z"/> <path fill="#ffffff" d="M172,165.1c-3.1,4.7-9.6,6.1-14.6,3.2l-78-45.3c-5-2.9-6.5-9.1-3.5-13.8c3.1-4.7,9.6-6.1,14.6-3.2l78,45.3 C173.6,154.3,175.1,160.5,172,165.1z"/> <path fill="#040000" d="M163,172.2c-2.3,0-4.7-0.6-6.8-1.8l-78-45.4c-3-1.8-5.1-4.6-5.9-7.8c-0.8-3.2-0.2-6.5,1.6-9.3 c3.8-5.7,11.8-7.5,17.8-4l78,45.3c3,1.8,5.1,4.6,5.9,7.8c0.8,3.2,0.2,6.5-1.6,9.3C171.6,170.2,167.3,172.2,163,172.2L163,172.2z  M85,106.9c-2.8,0-5.5,1.3-7,3.7c-1.1,1.7-1.5,3.6-1,5.6c0.5,2,1.8,3.7,3.6,4.8l78,45.4c3.9,2.3,9,1.1,11.4-2.5 c1.1-1.7,1.5-3.6,1-5.6c-0.5-2-1.8-3.7-3.6-4.8l-78.1-45.3C88,107.3,86.5,106.9,85,106.9z"/> <path fill="#ffffff" d="M180.1,127.6c-3.1,4.7-9.6,6.1-14.6,3.2l-78-45.3c-5-2.9-6.5-9.1-3.5-13.8c3.1-4.7,9.6-6.1,14.6-3.2 l78,45.3C181.6,116.7,183.1,122.9,180.1,127.6L180.1,127.6z"/> <path fill="#040000" d="M171,134.7c-2.3,0-4.7-0.6-6.8-1.8l-78-45.3c-3-1.8-5.1-4.6-5.9-7.8c-0.8-3.2-0.2-6.5,1.6-9.3 c3.8-5.7,11.8-7.5,17.8-4l78,45.3c3,1.8,5.1,4.6,5.9,7.8c0.8,3.2,0.2,6.5-1.6,9.3C179.6,132.6,175.3,134.7,171,134.7z M93,69.4 c-2.8,0-5.5,1.3-7,3.7c-1.1,1.7-1.5,3.6-1,5.6c0.5,2,1.8,3.7,3.6,4.8l78.1,45.4c3.9,2.3,9,1.1,11.4-2.5c1.1-1.7,1.5-3.6,1-5.6 c-0.5-2-1.8-3.7-3.7-4.8L97.4,70.5C96,69.7,94.5,69.4,93,69.4z"/> <path fill="#ffffff" d="M168.8,82.6c-3.1,4.7-9.8,6.2-14.8,3.3l-48.4-28.1c-5-2.9-6.6-9.2-3.5-13.9c3.1-4.7,9.8-6.2,14.8-3.3 l48.4,28.1C170.3,71.6,171.9,77.9,168.8,82.6z"/> <path fill="#040000" d="M159.6,89.8c-2.3,0-4.7-0.6-6.8-1.8l-48.4-28.1c-3.1-1.8-5.2-4.6-5.9-7.9c-0.8-3.2-0.2-6.6,1.7-9.4 c3.8-5.8,11.9-7.6,18-4l48.5,28.1c3.1,1.8,5.2,4.6,5.9,7.9c0.8,3.2,0.2,6.6-1.7,9.4C168.3,87.7,164,89.8,159.6,89.8L159.6,89.8z  M111.2,41.4c-2.8,0-5.6,1.3-7.1,3.7c-1.1,1.7-1.5,3.7-1,5.6c0.5,2.1,1.8,3.8,3.7,4.9l48.4,28.1c4,2.3,9.2,1.2,11.6-2.5 c1.1-1.7,1.5-3.7,1-5.6c-0.5-2.1-1.8-3.8-3.7-4.9l-48.4-28.1C114.3,41.8,112.7,41.4,111.2,41.4L111.2,41.4z"/></g>
</svg>