<?xml version="1.0" encoding="UTF-8" standalone="no"?><!-- Generator: Gravit.io --><svg xmlns="http://www.w3.org/2000/svg" xmlns:xlink="http://www.w3.org/1999/xlink" style="isolation:isolate" viewBox="-0.001 0 212.026 237" width="212.026pt" height="237pt"><g><path d=" M 68.5 0 Q 121.331 0.169 144 30.5 Q 162.053 49.447 162 86.5 Q 159.607 104.607 147.5 113 Q 138.6 121.1 119.5 119 Q 107.344 115.656 101 106.5 Q 95.75 86.25 81.5 75 Q 74.471 68.529 59.5 70 Q 44.806 78.806 19.5 77 Q 9.942 74.558 5 67.5 Q -0.067 61.567 0 50.5 Q 3.997 27.497 20.5 17 Q 38.703 2.703 68.5 0 Z " fill="rgb(130,73,50)"/><path d=" M 74.5 6 Q 118.971 8.029 139 34.5 Q 154.484 51.016 156 81.5 Q 155.321 100.321 143.5 108 Q 136.471 114.471 121.5 113 Q 111.25 110.25 106 102.5 Q 99.865 82.135 85.5 70 Q 76.25 61.75 56.5 64 Q 44.283 72.283 22.5 71 Q 13.977 69.523 10 63.5 Q 5.167 58.333 7 46.5 Q 10.8 33.8 19.5 26 Q 38.732 7.732 74.5 6 Z  M 18.5 18 L 11.5 26 L 18.5 18 Z " fill-rule="evenodd" fill="rgb(246,225,159)"/><path d=" M 53.5 33 Q 62.583 31.917 67 35.5 Q 68 40 65.5 41 Q 58.8 38.7 48.5 40 Q 33.075 44.075 23.5 54 Q 21.25 53.25 22 49.5 Q 31.834 35.334 53.5 33 Z " fill="rgb(130,73,50)"/><path d=" M 42.5 109 Q 74.849 106.151 86 124.5 Q 93.25 137.25 104.5 146 Q 110.833 153.667 126.5 152 Q 138.35 148.35 144 138.5 Q 151.15 124.65 162.5 115 Q 169.696 109.696 182.5 110 Q 197.997 113.503 206 124.5 Q 212.416 132.584 212 147.5 Q 204.747 186.747 179.5 208 Q 152.054 236.554 96.5 237 Q 46.617 230.383 21 199.5 Q 1.674 183.326 3 146.5 Q 6.689 129.189 18.5 120 Q 27.812 111.812 42.5 109 Z " fill="rgb(130,73,50)"/><path d=" M 44.5 115 Q 71.224 113.276 81 128.5 Q 88.485 141.015 99.5 150 Q 108.212 159.788 128.5 158 Q 139.414 155.414 145 147.5 Q 153.588 131.588 166.5 120 Q 172.35 115.35 184.5 117 Q 195.083 120.417 201 128.5 Q 207.308 136.192 205 152.5 Q 196.779 185.279 174.5 204 Q 149.192 229.192 100.5 231 Q 50.482 226.018 26 195.5 Q 8.484 181.016 9 148.5 Q 12.223 132.223 23.5 124 Q 31.76 117.26 44.5 115 Z  M 199.347 121.054 L 203.347 126.054 L 199.347 121.054 Z " fill-rule="evenodd" fill="rgb(246,225,159)"/><path d=" M 177.5 138 L 181 139.5 L 182 141.5 C 179.329 151.561 174.329 161.01 166.5 168 L 166.5 168 L 163.5 169 L 161 167.5 C 161.145 161.546 164.752 160.405 167.852 156.352 C 172.128 150.76 175.366 144.72 177.5 138 L 177.5 138 Z  M 40.5 139 L 45 139.5 C 45.803 142.694 46.834 145.834 48.142 148.858 C 59.757 175.719 90.365 185 117.5 185 L 117.5 185 L 137.5 180 Q 140.5 180.5 140 184.5 Q 126.792 193.792 101.5 191 Q 68.69 185.81 51 165.5 Q 41.248 156.752 39 140.5 L 40.5 139 Z " fill-rule="evenodd" fill="rgb(130,73,50)"/></g></svg>