<?xml version="1.0" encoding="utf-8"?>
<!-- Svg Vector Icons : http://www.onlinewebfonts.com/icon -->
<!DOCTYPE svg PUBLIC "-//W3C//DTD SVG 1.1//EN" "http://www.w3.org/Graphics/SVG/1.1/DTD/svg11.dtd">
<svg version="1.1" xmlns="http://www.w3.org/2000/svg" xmlns:xlink="http://www.w3.org/1999/xlink" x="0px" y="0px" viewBox="0 0 256 256" enable-background="new 0 0 256 256" xml:space="preserve">
<metadata> Svg Vector Icons : http://www.onlinewebfonts.com/icon </metadata>
<g> <path fill="#36b595" d="M125.2,202.8c-34.1,0-59.8-21.3-68.7-52.6c-1.8,6.5-6,11.7-6,18.8c0,41.2,33.4,74.6,74.6,74.6 c21.3,0,35.8-13.5,49.4-27.8c12.7-13.4,17.8-33.9,23.2-49.8c2.3-6.7,4.6-20,2.7-26.5C191.6,170.9,159.3,202.8,125.2,202.8 L125.2,202.8z"/> <path fill="#040000" d="M93.7,239.1c-1.9,0-3.5-1.6-3.5-3.5c0-0.5,0.1-0.9,0.3-1.4l38.4-89.2c0.7-1.8,2.7-2.8,4.5-2.1 c1.8,0.7,2.8,2.7,2.1,4.5c0,0.1-0.1,0.3-0.2,0.4L96.9,237C96.3,238.3,95.1,239.1,93.7,239.1z"/> <path fill="#040000" d="M123.4,246c-9.9,0-20.3-2.3-31.2-7c-20.2-8.7-33.5-21.9-39.5-39.1c-6.9-19.8-3.9-44.7,8.8-74.2 c6.2-14.4,16.7-29.4,31.3-44.7c11.6-12.1,25.7-24.4,42-36.6c27.7-20.6,52.6-33.9,52.8-34.1c1.7-0.9,3.8-0.2,4.8,1.5 c0.1,0.2,0.2,0.5,0.3,0.7c0.1,0.3,7.5,27.4,11.5,61.8c2.4,20.2,3.2,38.9,2.3,55.6c-1.1,21.1-4.8,39.1-11,53.4l-3.2-1.4l3.2,1.4 c-12.7,29.5-28.8,48.8-47.9,57.4C140.1,244.3,131.8,246,123.4,246z M187,18.8c-16.6,9.5-32.7,20-48.1,31.4 c-35.9,26.7-60.4,53.8-71,78.3c-12,27.8-14.9,51.1-8.6,69.1c5.3,15.3,17.3,27,35.6,34.9c18.3,7.9,35.1,8.5,49.8,1.9 c17.4-7.8,32.3-25.9,44.3-53.7c10.6-24.5,13.4-61,8.1-105.5C195,56.2,191.5,37.4,187,18.8L187,18.8z"/> <path fill="#040000" d="M78.9,230.6c-1.5,0-2.9-0.9-3.3-2.4c-6.8-19.9-2.1-50.2,12.8-83.3c13.9-30.7,34.3-58.1,53.4-71.3 c1.6-1.1,3.8-0.7,4.9,0.9c1.1,1.6,0.7,3.8-0.9,4.9c-18.1,12.6-37.6,38.8-51,68.5c-6.7,14.8-11.4,29.5-13.7,42.7 c-2.4,14.2-2.1,26.1,1.1,35.4c0.6,1.8-0.4,3.8-2.2,4.5C79.6,230.5,79.3,230.6,78.9,230.6L78.9,230.6z M109.2,243.7 c-1.9,0-3.5-1.6-3.5-3.5c0-1.4,0.8-2.6,2.1-3.2c16.2-7.4,32.8-28.1,45.6-56.8c0.8-1.8,2.9-2.6,4.6-1.8c1.8,0.8,2.6,2.9,1.8,4.6 c0,0,0,0,0,0c-6.3,14.2-13.8,27-21.7,37c-8.8,11.2-18,19.1-27.4,23.4C110.2,243.6,109.7,243.7,109.2,243.7z M169.3,148.6 c-0.3,0-0.6,0-0.9-0.1c-1.9-0.5-3-2.4-2.5-4.3c0,0,0,0,0,0c1.6-6.5,3-12.8,3.9-19c0.3-1.9,2.1-3.3,4-3c1.9,0.3,3.3,2.1,3,4 c0,0,0,0,0,0.1c-1,6.4-2.3,13-4,19.7C172.3,147.5,170.9,148.6,169.3,148.6L169.3,148.6z"/></g>
</svg>