<svg xmlns="http://www.w3.org/2000/svg" xmlns:xlink="http://www.w3.org/1999/xlink" version="1.1" x="0px" y="0px" viewBox="-20 -20 200 200" style="enable-background:new 0 0 160 160;" xml:space="preserve" data-icon="true" fill="#000000"><path d="M138.819,102.626l-0.887-4.973c-1.112-6.237-3.096-12.275-5.9-17.956l-0.209-0.421c-6.507-13.175-8.981-27.85-7.154-42.445  l0.045-0.365c0.523-4.174,1.417-8.329,2.656-12.35l4.403-14.281c0.569-1.847-0.466-3.806-2.313-4.376  c-1.847-0.57-3.806,0.466-4.376,2.313l-4.403,14.281c-1.359,4.409-2.339,8.965-2.913,13.55l-0.045,0.366  c-1.997,15.952,0.709,32,7.828,46.414l0.208,0.42c2.509,5.082,4.286,10.492,5.283,16.079l0.887,4.974  c0.088,0.495,0.156,0.994,0.232,1.492H80.126h-0.253H27.839c0.076-0.498,0.144-0.998,0.232-1.493l0.887-4.973  c0.997-5.587,2.774-10.997,5.279-16.071l0.215-0.435c7.117-14.407,9.823-30.454,7.826-46.409l-0.046-0.371  c-0.573-4.576-1.553-9.132-2.912-13.542L34.916,7.773c-0.57-1.847-2.529-2.883-4.376-2.313c-1.847,0.57-2.883,2.529-2.313,4.376  l4.403,14.281c1.24,4.021,2.133,8.176,2.656,12.351l0.047,0.371c1.826,14.589-0.648,29.263-7.161,42.446l-0.208,0.421  c-2.8,5.673-4.784,11.711-5.897,17.947l-0.887,4.974c-0.7,3.924-1.055,7.934-1.055,11.918c0,7.168,0.571,14.393,1.696,21.473  l2.5,15.729c0.274,1.723,1.761,2.951,3.452,2.951c0.183,0,0.368-0.015,0.554-0.044c1.909-0.304,3.211-2.098,2.907-4.007l-2.5-15.729  c-0.297-1.866-0.543-3.743-0.758-5.626h24.733c6.634,0,12.988,2.825,17.434,7.75l5.827,6.457c0.223,0.247,0.485,0.443,0.762,0.615  v7.083c0,1.933,1.567,3.5,3.5,3.5s3.5-1.567,3.5-3.5v-7.083c0.277-0.172,0.539-0.368,0.762-0.614l5.827-6.457  c4.444-4.925,10.799-7.75,17.433-7.75h24.27c-0.215,1.883-0.461,3.76-0.758,5.626l-2.501,15.729  c-0.303,1.909,0.998,3.703,2.907,4.007c0.187,0.029,0.371,0.044,0.554,0.044c1.691,0,3.179-1.229,3.453-2.951l2.501-15.729  c1.125-7.08,1.695-14.305,1.695-21.472C139.875,110.559,139.52,106.549,138.819,102.626z M107.754,122.291  c-8.611,0-16.859,3.667-22.63,10.061l-4.785,5.302h-0.215l-4.785-5.302c-5.77-6.394-14.018-10.061-22.63-10.061H27.383  c-0.155-2.583-0.258-5.169-0.258-7.747c0-0.731,0.022-1.464,0.049-2.196h52.7h0.253h52.7c0.027,0.732,0.049,1.465,0.049,2.196  c0,2.578-0.103,5.163-0.258,7.747H107.754z"></path><path d="M105.615,56.2c0.336,1.666,0.507,3.382,0.507,5.1c0,12.429-8.907,22.813-20.672,25.116c0.06-0.637-0.123-1.296-0.564-1.828  c-0.88-1.063-2.456-1.211-3.521-0.331l-3.98,3.296c-0.002,0.002-0.004,0.005-0.006,0.006c-0.065,0.055-0.122,0.122-0.182,0.184  c-0.059,0.061-0.124,0.118-0.176,0.183c-0.002,0.003-0.005,0.004-0.007,0.007c-0.031,0.039-0.05,0.083-0.078,0.123  c-0.065,0.094-0.132,0.187-0.183,0.288c-0.036,0.07-0.058,0.144-0.087,0.216c-0.031,0.078-0.067,0.154-0.089,0.234  c-0.024,0.083-0.034,0.168-0.049,0.253c-0.013,0.074-0.031,0.146-0.038,0.221c-0.007,0.081-0.001,0.161,0,0.242  c0.001,0.081-0.003,0.161,0.006,0.241c0.008,0.074,0.028,0.145,0.043,0.218c0.017,0.085,0.029,0.171,0.055,0.255  c0.023,0.074,0.059,0.144,0.089,0.216c0.032,0.077,0.059,0.156,0.099,0.23c0.046,0.084,0.105,0.161,0.161,0.24  c0.038,0.054,0.067,0.112,0.109,0.163c0.003,0.003,0.006,0.005,0.009,0.009c0.109,0.13,0.233,0.252,0.372,0.361l0.021,0.017  c0.004,0.003,0.009,0.007,0.013,0.01l3.947,3.103c0.458,0.36,1.003,0.535,1.543,0.535c0.741,0,1.474-0.327,1.967-0.955  c0.607-0.772,0.678-1.786,0.283-2.616c14.655-2.261,25.913-14.959,25.913-30.238c0-2.05-0.204-4.099-0.606-6.09  c-0.272-1.353-1.592-2.227-2.945-1.956C106.217,53.527,105.342,54.846,105.615,56.2z"></path><path d="M51.341,52.571c-4.164,13.667,1.754,28.736,14.666,35.758c0.892,0.486,1.815,0.932,2.744,1.323  c0.318,0.135,0.647,0.198,0.972,0.198c0.975,0,1.901-0.574,2.304-1.528c0.537-1.272-0.059-2.738-1.331-3.275  c-0.777-0.328-1.551-0.701-2.3-1.109c-10.45-5.683-15.423-17.664-12.584-28.789c0.381,0.229,0.82,0.361,1.281,0.361  c0.179,0,0.36-0.019,0.542-0.059c1.348-0.298,2.2-1.632,1.902-2.98l-1.115-5.047c-0.001-0.003-0.002-0.005-0.003-0.008  c-0.02-0.089-0.056-0.175-0.086-0.262c-0.026-0.074-0.044-0.152-0.076-0.223c-0.002-0.003-0.002-0.007-0.004-0.01  c-0.025-0.054-0.06-0.099-0.089-0.151c-0.05-0.091-0.097-0.184-0.157-0.267c-0.054-0.075-0.119-0.139-0.18-0.207  c-0.047-0.051-0.088-0.107-0.138-0.154c-0.077-0.072-0.162-0.131-0.247-0.193c-0.045-0.033-0.086-0.07-0.134-0.1  c-0.087-0.055-0.18-0.096-0.273-0.139c-0.053-0.025-0.103-0.055-0.158-0.076c-0.091-0.035-0.185-0.056-0.279-0.08  c-0.062-0.016-0.123-0.038-0.187-0.049c-0.099-0.017-0.2-0.02-0.301-0.025c-0.061-0.003-0.121-0.014-0.183-0.012  c-0.118,0.002-0.236,0.022-0.354,0.041c-0.044,0.007-0.088,0.006-0.132,0.015c-0.003,0.001-0.006,0.002-0.009,0.003  c-0.082,0.019-0.162,0.053-0.244,0.08c-0.081,0.027-0.166,0.049-0.243,0.083c-0.003,0.001-0.006,0.002-0.008,0.003l-4.603,2.113  c-1.255,0.576-1.805,2.06-1.229,3.315C49.521,52.024,50.409,52.557,51.341,52.571z"></path><path d="M63.964,41.849c0.771-0.66,1.592-1.284,2.442-1.854c10.461-7.005,24.26-5.247,32.694,3.537  c-0.596,0.297-1.075,0.825-1.281,1.514c-0.396,1.322,0.354,2.716,1.676,3.113l4.95,1.485c0.003,0.001,0.006,0,0.009,0.001  c0.164,0.049,0.336,0.082,0.514,0.096c0.064,0.005,0.128,0.007,0.192,0.008c0.002,0,0.004,0.001,0.005,0.001  c0.149,0,0.296-0.016,0.44-0.042c0.05-0.009,0.097-0.024,0.146-0.036c0.091-0.022,0.181-0.047,0.269-0.079  c0.055-0.02,0.108-0.044,0.161-0.068c0.079-0.035,0.156-0.074,0.23-0.117c0.05-0.029,0.099-0.058,0.146-0.091  c0.074-0.05,0.145-0.105,0.213-0.163c0.041-0.034,0.082-0.067,0.12-0.103c0.071-0.068,0.136-0.143,0.199-0.22  c0.029-0.035,0.06-0.067,0.087-0.103c0.075-0.102,0.141-0.211,0.2-0.325c0.012-0.023,0.025-0.044,0.036-0.068  c0.056-0.117,0.106-0.239,0.144-0.367c0.002-0.007,0.002-0.013,0.004-0.02c0.03-0.103,0.045-0.211,0.062-0.319  c0.009-0.058,0.026-0.115,0.03-0.173c0-0.003,0.001-0.006,0.002-0.01l0.397-5.049c0.108-1.376-0.92-2.58-2.296-2.688  c-0.949-0.076-1.819,0.407-2.302,1.168c-9.995-11.196-27.011-13.621-39.832-5.036c-1.014,0.68-1.994,1.423-2.914,2.212  c-1.048,0.898-1.17,2.477-0.271,3.525C61.338,42.626,62.917,42.747,63.964,41.849z"></path></svg>