<?xml version="1.0" encoding="utf-8"?>
<!-- Svg Vector Icons : http://www.onlinewebfonts.com/icon -->
<!DOCTYPE svg PUBLIC "-//W3C//DTD SVG 1.1//EN" "http://www.w3.org/Graphics/SVG/1.1/DTD/svg11.dtd">
<svg version="1.1" xmlns="http://www.w3.org/2000/svg" xmlns:xlink="http://www.w3.org/1999/xlink" x="0px" y="0px" viewBox="0 0 256 256" enable-background="new 0 0 256 256" xml:space="preserve">
<metadata> Svg Vector Icons : http://www.onlinewebfonts.com/icon </metadata>
<g><g><path fill="#000000" d="M41.3,254.7H16c0-11.3,0.5-22.6,6.4-35.3c6.5-14.1,18.3-27.1,37-41.1c11.5-8.6,18.1-25,17.5-44c-0.7-23.5-11.7-44.9-28.6-55.9C32.7,68.3,21.7,54.6,15.6,37.6C10.6,23.6,10,10.2,10,1.4h25.3c0,16.5,2.8,40.2,26.8,55.8c12.2,8,22.4,19.7,29.5,33.8c6.5,13,10.2,27.8,10.6,42.6c0.4,12.7-1.7,25.2-5.9,36c-4.7,12-12.3,22-21.7,29.1C41.3,223.3,41.3,238.6,41.3,254.7z"/><path fill="#000000" d="M99.1,254.7H73.7c0-9.3,2.5-18.2,7.3-26c5.7-9.3,14.4-16.5,25.7-21.3l5.1-2.2l5.1,2.3c22.2,10.2,41.9,2.3,54.6-6.1c30.6-20.3,50.3-62.1,49.1-103.9c-1.1-35.4-11.5-57.7-31.1-66.5c-16.6-7.4-37-4.3-51.2-0.4c-17.4,4.8-31.2,12.4-34.8,15.4l-6.8,5.7l-7.7-4.4C79.6,42,72.7,34.6,68.4,25.5c-3.3-7.1-4.9-15-4.9-24.1h25.3c0,8.5,2.2,14.8,6.9,19.6c8.9-5.1,21.9-10.8,35.9-14.7c18.2-5,44.8-8.8,68.2,1.7c13.9,6.2,24.9,16.5,32.6,30.6c8.3,15.1,12.8,34.7,13.5,58.2c0.8,25.2-4.8,50.6-16,73.4c-5.4,10.9-11.8,20.9-19.3,29.8c-7.6,9-16,16.6-25.1,22.6c-23.6,15.6-49.4,19.2-73.4,10.4C101.5,239.3,99.1,248.1,99.1,254.7z"/><path fill="#000000" d="M126.4,146.2h68.5c0,0-27,63.3-77.4,40.4C123.7,177.9,126.1,167.4,126.4,146.2z"/></g></g>
</svg>