<?xml version="1.0" encoding="utf-8"?>
<!-- Svg Vector Icons : http://www.onlinewebfonts.com/icon -->
<!DOCTYPE svg PUBLIC "-//W3C//DTD SVG 1.1//EN" "http://www.w3.org/Graphics/SVG/1.1/DTD/svg11.dtd">
<svg version="1.1" xmlns="http://www.w3.org/2000/svg" xmlns:xlink="http://www.w3.org/1999/xlink" x="0px" y="0px" viewBox="0 0 256 256" enable-background="new 0 0 256 256" xml:space="preserve">
<metadata> Svg Vector Icons : http://www.onlinewebfonts.com/icon </metadata>
<g><g><g><path fill="#000000" d="M132,0.8c-0.2,0.4-14.9,28.4-32.7,62.3l-32.4,61.7h21.8c17.4,0,21.7,0.2,21.5,0.9c-0.2,0.8-59.7,116.5-64.6,125.7l-2.3,4.4l2.3-2.3c1.3-1.3,36-39.1,77.2-84.1l74.8-81.7l-28.2-0.3L141.1,87l27.7-41.5C184,22.6,197,3.1,197.6,2.1l1.2-1.8h-33.2C145.6,0.2,132.3,0.5,132,0.8z"/><path fill="#000000" d="M107.9,12c-43.3,7.8-78.5,38.3-92.1,79.9c-10.3,31.5-6.8,66,9.6,94.8c6,10.4,15.3,22.1,23.5,29.3l4.7,4l4.2-8.5l4.3-8.4l-6.1-6.5c-13.1-13.7-21.4-29.9-25.5-49c-2-9.4-2.1-27.3-0.3-36.8C34,91.2,42.8,74.1,56.3,60c13.4-13.9,28.4-22.8,46.3-27.7l5.4-1.4l5-9.4c2.7-5.2,5.1-9.7,5.2-10C118.5,10.7,113.9,11,107.9,12z"/><path fill="#000000" d="M184.2,35.4c-2.9,4.2-5,7.8-4.9,7.9c11.7,7.5,24.6,19.9,30.8,29.3c7.6,11.6,12.6,23.4,15.4,36.8c1.9,9.2,2.1,26.6,0.4,36c-7.6,41.4-39.8,73.5-81.2,80.9c-9,1.6-24.4,1.6-33.5,0c-6-1.1-16.3-4.1-22.2-6.5c-2.1-0.8-2.1-0.8-6.1,3.5c-2.2,2.3-5.2,5.6-6.6,7.2l-2.5,2.8l5.6,2.7c21.6,10.1,48,13,72.5,8c30.7-6.4,59.1-26.1,75.9-52.8c3.7-6,9.7-18.6,11.9-25.1c11.5-34.8,6.5-72.7-13.7-102.9c-5.5-8.2-12.8-16.7-19.2-22.4c-4.3-3.8-13.8-11-16.5-12.4C189.5,27.8,188.6,28.8,184.2,35.4z"/></g></g></g>
</svg>