<svg xmlns="http://www.w3.org/2000/svg" xmlns:xlink="http://www.w3.org/1999/xlink" version="1.1" viewBox="-20 -20 136 136" x="0px" y="0px" data-icon="true" fill="#000000"><path d="M37.248 80c-0.512 0-1.024-0.196-1.416-0.584-0.78-0.772-0.78-2.048 0-2.828l29.632-29.632c0.78-0.772 2.048-0.772 2.828 0 0.78 0.78 0.78 2.056 0 2.828l-29.632 29.632c-0.392 0.388-0.904 0.584-1.412 0.584z" fill="#000000"></path><path d="M93 64h-26c-1.104 0-2-0.9-2-2s0.896-2 2-2h21l-18.508-17.636c-0.796-0.76-0.828-2.032-0.068-2.828 0.76-0.8 2.028-0.828 2.828-0.076l22.12 21.084c0.592 0.576 0.78 1.424 0.476 2.192-0.296 0.768-1.028 1.264-1.848 1.264z" fill="#000000"></path><path d="M51.336 37.452c-0.64 0-1.268-0.304-1.66-0.884-0.62-0.916-0.384-2.156 0.532-2.772l15.544-10.548c0.792-0.532 1.856-0.428 2.536 0.252l3.624 3.616c0.78 0.772 0.78 2.056 0 2.828s-2.048 0.772-2.828 0l-2.452-2.452-14.172 9.612c-0.352 0.24-0.736 0.348-1.124 0.348z" fill="#000000"></path><path d="M93 44h-9.040c-0.544 0-1.060-0.22-1.436-0.6l-8.828-9.084c-0.768-0.792-0.752-2.068 0.040-2.828 0.788-0.768 2.056-0.752 2.828 0.040l8.244 8.476h8.196c1.104 0 2 0.904 2 2s-0.904 1.996-2.004 1.996z" fill="#000000"></path><path d="M81.024 28c-3.308 0-6-2.692-6-6s2.692-6 6-6c3.304 0 6 2.692 6 6s-2.696 6-6 6zM81.024 20c-1.104 0-2 0.9-2 2s0.896 2 2 2 2-0.9 2-2-0.9-2-2-2z" fill="#000000"></path><path d="M27 68h-24c-1.104 0-2-0.9-2-2s0.896-2 2-2h24c1.104 0 2 0.9 2 2s-0.9 2-2 2z" fill="#000000"></path><path d="M35 56h-32c-1.104 0-2-0.9-2-2s0.896-2 2-2h32c1.104 0 2 0.9 2 2s-0.9 2-2 2z" fill="#000000"></path><path d="M43 44h-40c-1.104 0-2-0.9-2-2s0.896-2 2-2h40c1.104 0 2 0.9 2 2s-0.9 2-2 2z" fill="#000000"></path></svg>