<?xml version="1.0" encoding="utf-8"?>
<!-- Svg Vector Icons : http://www.onlinewebfonts.com/icon -->
<!DOCTYPE svg PUBLIC "-//W3C//DTD SVG 1.1//EN" "http://www.w3.org/Graphics/SVG/1.1/DTD/svg11.dtd">
<svg version="1.1" xmlns="http://www.w3.org/2000/svg" xmlns:xlink="http://www.w3.org/1999/xlink" x="0px" y="0px" viewBox="0 0 256 256" enable-background="new 0 0 256 256" xml:space="preserve">
<metadata> Svg Vector Icons : http://www.onlinewebfonts.com/icon </metadata>
<g><g><g><path fill="#000000" d="M135.1,58.3c-31,2.5-55.3,9.2-84.4,23.3C36.6,88.4,17.8,99.6,12,104.7l-1.7,1.5l7.9,0h8l2.5-2c3.7-2.8,16.2-10.1,23.1-13.6c19.6-9.8,39.4-15.8,59.7-18.2c7.4-0.9,24.7-0.7,32.9,0.2c18,2.2,34.4,6.4,51,13.1c6.9,2.8,19.6,9,24.5,12c1.8,1.1,3.5,2,3.7,2s2.3-2.9,4.7-6.5c2.4-3.5,6-8.8,8-11.7c4.2-6.1,4.4-5.5-2.4-8.4c-16.9-7.2-43.6-13.1-67.6-14.8C160.2,58,139.9,57.9,135.1,58.3z"/><path fill="#000000" d="M100.9,86.9c0,3-1.5,6.4-4.6,10.3c-1.9,2.4-2.2,2.5-7.1,4l-5.1,1.6v-1.3c0-1.5-1.1-5.3-2.2-8.1l-0.8-1.9l-0.9,2.8c-1,3.1-2.6,6.1-5.6,10.2c-1.7,2.3-2.5,3-5.3,4.3c-1.8,0.8-3.5,1.5-3.8,1.5c-0.3,0-0.5-0.9-0.5-2.1c0-1.1-0.1-2.9-0.3-3.9l-0.3-1.9l-0.9,2c-0.5,1.1-2,3.8-3.4,6c-2.3,3.9-2.6,4.1-6.7,6.4c-6.3,3.5-20.6,13.2-27,18.2c-6.3,5.1-16.6,14.1-16.6,14.6c0,0.7,12.3,10.2,19.5,15.1c36,24.4,74,35.9,108.3,32.7c33-3,68.6-18.4,99.2-42.7c3.1-2.5,5.7-4.8,5.7-5c0-0.2-2.2-2.4-5-4.9c-2.8-2.4-5.1-4.6-5.2-4.8c-0.1-0.2,0.6-0.6,1.6-0.9c2.8-1,7.3-4.6,9.7-7.9c1.3-1.7,2.2-3.1,2.1-3.3c-0.1-0.1-1.2,0.4-2.3,1c-4.1,2.3-13.9,3.4-20.4,2.3c-2.1-0.3-2.1-0.4-0.7-0.7c2.8-0.7,6.5-2.2,8.5-3.5c2.4-1.5,6.2-4.9,6.9-6.1c0.4-0.7,0-0.7-2.6,0.4c-8.2,3.3-22.7,3.5-28.2,0.3l-2.2-1.3l2-0.6c3.8-1.1,8.8-4.5,10-6.6c0.5-0.9,0.4-0.9-1.6-0.2c-3.4,1.2-10,2.1-14.7,2.1h-4.4l-6-3l-6-3l2.4-1.9c2.1-1.6,7.9-8,8.2-9.1c0.1-0.2-1,0.2-2.4,1c-3,1.7-7.3,3.1-13,4.1c-5.4,1-6.9,1-10.8-0.3l-3.3-1l1.7-2.3c1.5-2,4.1-7.3,4.1-8.1c0-0.1-1,0.7-2.3,1.9c-2.7,2.5-5.8,4.4-9,5.5c-2.1,0.7-2.6,0.7-6,0c-3.6-0.8-3.7-0.9-3.5-2c0.5-2.5,0.9-10.8,0.5-10.8c-0.2,0-1,0.9-1.7,1.9c-1.5,2.2-5.7,5.1-9.7,6.7c-2.6,1-3.7,1.2-9.8,1.2c-3.8,0-6.8,0-6.8-0.1c0,0,0.4-2.2,1-4.7c1.4-6.7,1.3-6.9-1.3-4c-2.6,2.9-8.9,7.8-12,9.2c-1.2,0.6-3,1.2-4.1,1.4l-2,0.3v-2.6c0-2.4-2.2-9.8-3.2-10.3C101,84.4,100.9,85.5,100.9,86.9z M141.1,103.8c23.9,3.5,48.6,15.1,71.8,33.4c3.6,2.9,8.1,6.8,10.1,8.7l3.7,3.5l-5.3,4.2c-25.5,20.4-55.7,33.6-83.5,36.6c-6.8,0.7-22.3,0.3-29.1-0.8c-18.6-2.9-38-10.3-57-21.6c-10.4-6.2-25.5-17.5-25.1-18.8c0.3-1,9.9-9.4,16-14c19.8-15.1,41.1-25.5,61.5-30C115,102.7,130,102.2,141.1,103.8z"/><path fill="#000000" d="M120.9,105.2c-14.6,2.3-27.2,12.2-32.8,25.7c-2.1,5.2-3,9.8-3,16c0,8.8,2.1,16,7,23.2c5.2,7.8,12.7,13.5,21.8,16.6c4.6,1.6,4.9,1.7,13,1.6c7.8,0,8.6-0.1,12.4-1.4c14.5-4.8,25-16.1,28.6-30.9c1.7-7,1-16.9-1.7-24.1c-1.6-4.2-1.4-4.1-5.6-2.1c-3.1,1.5-3.7,2-3.4,2.6c2.4,5.5,2.9,7.7,2.9,14.2c0,5.6-0.1,7.1-1.1,10c-2,5.7-4,9-8.4,13.5c-4.6,4.6-7.6,6.5-13.4,8.5c-3.5,1.2-4.6,1.4-10.2,1.4c-5.7,0-6.8-0.1-10.2-1.4c-22.2-7.7-30.2-33.8-16.1-52.4c4.4-5.8,11.8-10.4,19.1-12c5.6-1.2,13.4-0.8,18.4,1.1c2.1,0.8,4.7,2,5.6,2.5l1.7,1l1.6-3.5c0.9-1.9,1.6-3.8,1.6-4.1c0-0.9-6.7-4-11.2-5.1C133.2,105.1,124.8,104.6,120.9,105.2z"/><path fill="#000000" d="M118.4,121.2c-11.3,3.8-18.6,14-18.6,25.7c0,14.5,11,26.2,25.6,27.1c8,0.5,14.8-2.1,20.5-7.9c6-6,8.3-12.2,7.9-20.8c-0.2-4.4-1.9-10.7-2.9-10.7c-0.2,0-3.7,1.6-7.8,3.4c-4.1,1.9-7.5,3.4-7.6,3.3c-0.1-0.1,1.5-3.8,3.5-8.1c2.8-6,3.5-8.1,3.1-8.6c-0.8-1-5.3-3.1-8.3-3.9C129.6,119.5,122.6,119.7,118.4,121.2z M122.1,127.2c3.3,1.7,5.5,5.1,5.5,8.4c0,2.1-1.5,5.2-3.2,6.8c-3.9,3.7-10.3,3-13.7-1.4c-1.9-2.4-2.1-6.9-0.7-9.8C112.2,126.8,117.8,125,122.1,127.2z M113.5,149.6c1,1.1,1.4,1.9,1.4,3.2c0,2.2-2.2,4.6-4.1,4.6c-2,0-4-1.3-4.6-2.9C104.2,149.9,109.9,146.1,113.5,149.6z"/></g></g></g>
</svg>