<?xml version="1.0" encoding="UTF-8" standalone="no"?><svg xmlns="http://www.w3.org/2000/svg" xmlns:xlink="http://www.w3.org/1999/xlink" fill="#ffffff" height="1317.7" preserveAspectRatio="xMidYMid meet" version="1.2" viewBox="42.0 17.0 1416.6 1317.7" width="1416.6" zoomAndPan="magnify"><defs><clipPath id="a" xml:id="a"><path d="M 42 17 L 1459 17 L 1459 1334.707031 L 42 1334.707031 Z M 42 17"/></clipPath></defs><g><g clip-path="url(#a)" id="change1_4"><path d="M 735.953125 25.570312 C 740.417969 22.21875 744.117188 15.4375 750.710938 17.492188 C 766.261719 21.648438 782.28125 25.832031 798.375 26.5 C 799.757812 25.386719 802.617188 23.195312 804.003906 22.117188 C 825.796875 27.09375 848.050781 29.308594 870.058594 33.328125 C 888.875 39.355469 909.398438 38.625 927.320312 47.679688 C 930.871094 45.75 933.46875 38.808594 938.34375 41.667969 C 950.019531 47.433594 961.648438 53.769531 974.882812 55.351562 C 985.300781 63.269531 998.3125 65.871094 1009.980469 71.414062 C 1010.980469 70.523438 1013.046875 68.753906 1014.0625 67.886719 C 1023.460938 69.953125 1033.371094 71.660156 1041.511719 77.265625 C 1057.914062 87.472656 1076.566406 94.214844 1091.546875 106.664062 C 1096.421875 110.585938 1102.816406 111.824219 1108.359375 114.742188 C 1124.453125 121.957031 1136.933594 134.886719 1152 143.820312 C 1164.707031 151.191406 1175 161.832031 1186.550781 170.828125 C 1204.539062 181.222656 1220.347656 195.539062 1234.175781 210.929688 C 1247.699219 218.277344 1256.28125 231.269531 1267.75 241.179688 C 1290.710938 260.1875 1308.226562 284.671875 1326.964844 307.636719 C 1335.710938 320.566406 1345.867188 332.628906 1352.648438 346.847656 C 1371.363281 376.652344 1386.976562 408.671875 1398.121094 442.15625 C 1409.117188 467.210938 1415.066406 494.046875 1425.039062 519.449219 C 1436.851562 557.707031 1447.117188 596.480469 1453.699219 636.011719 C 1456.296875 647.097656 1456.84375 658.496094 1456.964844 669.902344 C 1457.535156 678.292969 1457.472656 686.816406 1458.265625 695.265625 C 1458.550781 705.757812 1457.289062 716.300781 1458.226562 726.855469 C 1457.1875 766.597656 1450.160156 805.980469 1441.007812 844.621094 C 1432.261719 891.589844 1411.367188 935.015625 1394.039062 979.238281 C 1385.9375 996.90625 1377.066406 1014.242188 1367.972656 1031.464844 C 1347.734375 1071.09375 1320.25 1106.34375 1293.46875 1141.65625 C 1291.402344 1143.527344 1289.347656 1145.429688 1287.355469 1147.363281 C 1274.8125 1165.328125 1256.667969 1177.960938 1241.339844 1193.289062 C 1230.824219 1199.402344 1222.5 1208.65625 1211.664062 1214.199219 C 1188.074219 1231.335938 1162.617188 1245.714844 1136.105469 1257.851562 C 1128.25 1260.3125 1121.410156 1264.902344 1114.484375 1269.222656 C 1085.625 1283.03125 1055.292969 1293.386719 1025.109375 1303.78125 C 1000.480469 1309.792969 976.875 1319.964844 951.542969 1322.96875 C 929.410156 1330.605469 905.660156 1328.476562 882.886719 1332.941406 C 873.164062 1330.988281 863.417969 1333.003906 853.855469 1334.664062 C 843.808594 1332.375 833.515625 1332.78125 823.449219 1334.464844 C 814.453125 1333.351562 805.398438 1333.511719 796.429688 1332.757812 C 771.828125 1332.496094 747.542969 1329.207031 723.285156 1325.53125 C 714.984375 1324.292969 707.007812 1320.496094 698.546875 1321.894531 C 692.535156 1320.410156 686.484375 1319.195312 680.335938 1318.910156 C 644.425781 1310.113281 607.4375 1305.710938 572.382812 1293.410156 C 541.074219 1285.40625 510.949219 1273.492188 480.582031 1262.527344 C 476.339844 1260.597656 472.121094 1258.828125 468.074219 1256.761719 C 450.71875 1250.589844 433.648438 1243.054688 417.246094 1234.886719 C 397.863281 1225.757812 379.023438 1215.585938 360.566406 1204.820312 C 321.488281 1182.625 284.847656 1156.234375 251.238281 1126.402344 C 246.847656 1121.933594 242.246094 1117.753906 238.039062 1113.222656 C 194.558594 1069.632812 156.332031 1020.316406 127.523438 965.738281 C 113.457031 938.730469 99.394531 911.730469 87.292969 883.792969 C 80.269531 861.535156 70.359375 840.316406 64.089844 817.820312 C 50.40625 771.832031 43.46875 723.835938 43.121094 675.890625 C 42.710938 664.605469 41.128906 653.359375 42.835938 642.1875 C 41.191406 589.132812 49.109375 536.164062 60.378906 484.445312 C 60.601562 481.597656 60.761719 478.804688 60.796875 476.082031 C 68.617188 450.839844 73.042969 424.734375 81.160156 399.617188 C 89.730469 371.714844 98.984375 343.9375 110.539062 317.039062 C 125.964844 286.15625 142.402344 255.84375 161.058594 226.765625 C 168.554688 218.945312 175.59375 210.519531 183.855469 203.457031 C 188.570312 200.917969 188.730469 195.351562 190.253906 190.847656 C 198.007812 184.167969 208.175781 181.851562 218.148438 181.035156 C 235.121094 183.4375 253.527344 179.761719 269.136719 188.695312 C 279.367188 191.207031 284.933594 199.980469 287.976562 209.480469 C 296.277344 206.847656 302.351562 200.832031 309.351562 196.082031 C 314.609375 195.539062 319.929688 195.859375 325.25 195.574219 C 323.21875 195.03125 319.175781 194.015625 317.144531 193.507812 C 318.46875 188.535156 321.996094 185.242188 326.101562 182.558594 C 326.929688 184.648438 328.578125 188.792969 329.40625 190.886719 C 328.921875 188.734375 328.007812 184.363281 327.539062 182.199219 C 331.359375 179.515625 335.230469 176.878906 338.96875 174.070312 C 349.765625 166.277344 366.453125 167.003906 373.457031 154.359375 C 376.933594 155.214844 379.429688 152.304688 382.289062 150.785156 C 386.914062 149.140625 391.691406 147.777344 396.699219 148.410156 C 396.699219 147.171875 396.699219 144.773438 396.699219 143.535156 C 401.511719 141.121094 405.941406 137.324219 411.644531 137.199219 C 418.546875 132.894531 425.347656 128.425781 432.636719 124.777344 C 436.210938 127.027344 447.082031 122.660156 440.265625 118.480469 C 439.003906 117.464844 436.433594 115.496094 435.171875 114.519531 C 437 112.714844 438.871094 110.929688 440.8125 109.261719 C 447.046875 112.429688 452.117188 107.070312 457.460938 104.597656 C 461.703125 104.066406 465.984375 103.78125 470.351562 103.804688 C 468.261719 102.828125 464.117188 100.898438 462.027344 99.917969 C 469.460938 96.183594 476.746094 92.148438 484.15625 88.351562 C 490.144531 85.21875 498.914062 87.71875 502.875 81.347656 C 507.5625 79.765625 512.285156 78.21875 517.039062 76.632812 C 522.765625 73.464844 529.160156 71.917969 535.679688 71.4375 C 543.0625 69 550.472656 66.597656 558.292969 65.929688 C 559.082031 64.53125 560.667969 61.710938 561.433594 60.289062 C 566.753906 60.164062 572.097656 60.351562 577.492188 59.820312 C 584.007812 56.367188 589.390625 50.6875 597 49.613281 C 615.332031 47.78125 633.441406 43.535156 651.367188 39.253906 C 652.21875 38.785156 653.925781 37.832031 654.792969 37.324219 C 663.710938 42.683594 665.800781 31.175781 673.210938 29.058594 C 676.539062 28.167969 680.089844 28.007812 683.601562 27.761719 C 700.957031 24.753906 718.339844 22.5625 735.953125 25.570312 Z M 797.445312 127.597656 C 783.554688 128.511719 769.675781 129.6875 755.769531 130.578125 C 748.929688 131.65625 742.027344 132.386719 735.160156 132.25 C 713.8125 132.855469 693.585938 140.304688 672.582031 142.988281 C 643.425781 149.449219 614.785156 157.972656 586.730469 168.207031 C 576.09375 171.496094 564.785156 172.324219 554.554688 176.953125 C 530.398438 187.71875 505.0625 195.476562 481.597656 207.859375 C 422.886719 238.90625 364.078125 271.46875 314.101562 315.777344 C 306.792969 321.605469 298.492188 326.234375 292.21875 333.296875 C 281.644531 344.222656 269.101562 353.15625 259.824219 365.320312 C 252.894531 373.992188 245.386719 382.800781 235.121094 387.652344 C 229.328125 397.910156 221.089844 406.371094 212.828125 414.660156 C 217.046875 405.703125 220.4375 396.363281 223.441406 386.984375 C 210.042969 393.664062 207.730469 409.539062 196.015625 417.742188 C 195.285156 419.164062 193.800781 422.011719 193.074219 423.433594 C 191.738281 424.226562 189.050781 425.75 187.714844 426.515625 C 189.335938 423.222656 192.566406 416.628906 194.148438 413.300781 C 187.046875 415.777344 184.710938 423.089844 181.199219 428.667969 C 188.792969 435.25 179.070312 442.289062 177.113281 449.195312 C 167.515625 475.351562 161.75 502.621094 155.195312 529.679688 C 151.335938 549.949219 145.535156 570.089844 144.050781 590.742188 C 137.046875 626.1875 137.332031 662.429688 134.796875 698.347656 C 136.09375 720.382812 134.832031 742.53125 135.785156 764.640625 C 137.148438 772.140625 136.949219 779.847656 138.023438 787.484375 C 141.574219 817.066406 147.339844 846.488281 157.25 874.648438 C 166.886719 907.996094 185.824219 937.453125 201.050781 968.335938 C 230.058594 1019.363281 268.816406 1064.597656 314.796875 1101.085938 C 328.191406 1110.242188 341.082031 1120.089844 354.132812 1129.753906 C 377.882812 1140.902344 401.859375 1151.445312 425.707031 1162.382812 C 495.722656 1187.214844 567.484375 1207.640625 640.949219 1219.074219 C 669.351562 1225.125 698.175781 1228.863281 727.207031 1230.0625 C 761.3125 1232.003906 795.390625 1230.707031 829.398438 1228.390625 C 838.527344 1226.929688 847.605469 1223.824219 856.984375 1225.089844 C 871.839844 1226.261719 885.804688 1217.492188 900.652344 1220.273438 C 908.789062 1221.289062 916.335938 1216.859375 924.179688 1215.398438 C 936.375 1211.132812 949.140625 1208.78125 961.464844 1204.859375 C 976.121094 1197.125 992.488281 1193.773438 1007.753906 1187.4375 C 1036.824219 1175.460938 1064.667969 1160.796875 1091.832031 1145.023438 C 1128.003906 1127.476562 1159.957031 1101.78125 1187.503906 1072.578125 C 1209.957031 1051.804688 1225.691406 1025.351562 1243.738281 1000.964844 C 1248.972656 994.023438 1252.199219 985.128906 1260.277344 980.882812 C 1266.390625 977.085938 1269.65625 970.550781 1271.671875 963.933594 C 1275.097656 959.378906 1277.4375 954.207031 1279.726562 949.046875 C 1279.949219 945.1875 1280.601562 941.414062 1281.714844 937.839844 C 1293.308594 907.238281 1311.417969 878.980469 1319.023438 847.019531 C 1325.542969 831.605469 1331.753906 815.828125 1334.785156 799.324219 C 1342.070312 787.953125 1342.984375 774.167969 1347.527344 761.722656 C 1351.039062 755.933594 1349.617188 748.867188 1350.53125 742.554688 C 1350.902344 736.765625 1351.632812 731.039062 1352.488281 725.394531 C 1353.785156 727.734375 1356.359375 732.460938 1357.65625 734.835938 C 1358.917969 732.398438 1361.417969 727.488281 1362.691406 725.050781 C 1358.351562 721.84375 1356.421875 716.933594 1355.058594 712.058594 C 1360.785156 717.476562 1368.828125 715.386719 1367.15625 706.453125 C 1364.867188 699.363281 1369.050781 686.878906 1359.488281 684.824219 C 1361.355469 682.660156 1365.066406 678.355469 1366.933594 676.199219 C 1367.40625 668.121094 1368.765625 660.179688 1370.386719 652.359375 C 1368.640625 643.265625 1366.960938 634.144531 1365.128906 625.113281 C 1362.878906 625.78125 1361.132812 625.433594 1359.871094 624.136719 C 1359.933594 619.730469 1359.871094 615.386719 1359.710938 611.144531 L 1361.109375 611.367188 C 1361.617188 615.992188 1363.074219 620.609375 1365.699219 624.644531 C 1365.660156 612.851562 1366.835938 600.847656 1363 589.539062 C 1351.039062 531.265625 1330.234375 475.414062 1312.753906 418.683594 C 1304.265625 394.332031 1291.339844 372 1278.226562 349.925781 C 1270.222656 335.351562 1260.464844 321.703125 1249.703125 309.15625 C 1244.445312 302.15625 1237.949219 296.300781 1232.46875 289.585938 C 1226.199219 282.902344 1218.628906 277.519531 1213.125 270.234375 C 1186.710938 239.4375 1151.050781 219.332031 1116.859375 198.644531 C 1100.234375 190.414062 1084.039062 181.0625 1066.3125 175.492188 C 1047.90625 165.421875 1026.949219 162.253906 1007.753906 154.238281 C 995.34375 149.609375 981.910156 149.386719 969.441406 145.277344 C 956.710938 141.023438 943.03125 141.34375 930.300781 137.039062 C 902.878906 133.402344 875.539062 129.628906 848.027344 127.191406 C 844.007812 127.191406 840.050781 127.3125 836.117188 127.5625 C 823.199219 125.914062 810.3125 129.75 797.445312 127.597656"/></g><g id="change1_1"><path d="M 500.957031 416.925781 C 502.847656 416.925781 506.683594 416.925781 508.589844 416.902344 C 509.761719 418.226562 512.136719 420.886719 513.300781 422.222656 C 522.332031 423.621094 530.308594 428.074219 537.523438 433.59375 C 545.539062 436.882812 554.628906 436.921875 562.957031 439.582031 C 563.722656 440.742188 565.269531 443.058594 566.058594 444.234375 C 577.898438 453.511719 589.429688 463.585938 599.089844 475.179688 C 609.070312 502.992188 606.128906 538.652344 581.894531 558.386719 C 564.574219 566.726562 545.859375 557.46875 528.691406 553.261719 C 523.40625 550.023438 519.191406 545.46875 514.4375 541.609375 C 510.011719 539.480469 507.351562 535.484375 505.507812 531.214844 C 503.269531 529.976562 501.078125 528.777344 498.988281 527.664062 C 490.972656 512.65625 486.199219 495.828125 476.003906 482.019531 C 475.929688 474.421875 474.792969 466.40625 478.664062 459.5 C 476.980469 455.257812 475.398438 451.113281 473.914062 446.929688 C 480.171875 443.664062 485.875 439.457031 491.578125 435.300781 C 489.835938 427.097656 495.722656 422.0625 500.957031 416.925781"/></g><g id="change1_2"><path d="M 364.105469 698.769531 C 368.570312 701.269531 373.457031 702.445312 378.515625 703.804688 L 374.496094 695.441406 C 379.652344 701.019531 383.996094 707.355469 388.808594 713.367188 C 394.449219 714.707031 400.050781 716.101562 405.777344 717.265625 C 408.945312 725.445312 417.210938 729.566406 424.753906 732.980469 C 430.160156 740.167969 433.710938 748.71875 440.207031 755.277344 C 443.433594 765.953125 447.007812 776.65625 448.445312 787.839844 C 449.457031 789.015625 451.414062 791.390625 452.425781 792.554688 C 458.253906 810.929688 458.660156 830.640625 465.886719 848.628906 C 469.152344 858.441406 475.449219 866.769531 480.074219 875.960938 C 488.3125 899.65625 511.335938 912.511719 529.195312 928.285156 C 554.050781 945.546875 578.28125 964.613281 606.992188 975.292969 C 622.074219 980.488281 637.054688 986.253906 652.628906 989.828125 C 654.46875 991.757812 656.398438 993.765625 658.367188 995.84375 C 677.527344 999.960938 697 1001.867188 716.605469 1002.660156 C 722.394531 1002.054688 727.34375 1005.605469 732.847656 1006.804688 C 753.433594 1005 773.386719 999.429688 793.238281 994.011719 C 793.203125 992.265625 793.179688 988.753906 793.140625 986.984375 C 797.730469 988 802.394531 989.011719 807.105469 990.015625 C 805.175781 988.429688 801.34375 985.238281 799.414062 983.65625 C 803.878906 983.941406 807.898438 982.355469 811.695312 980.003906 C 813.253906 980.796875 814.839844 981.6875 816.445312 982.640625 C 822.25 977.257812 829.175781 973.484375 836.238281 970.09375 C 839.320312 973.238281 842.324219 976.304688 845.429688 979.597656 C 858.257812 973.386719 870.703125 966.109375 881.425781 956.671875 C 867.472656 956.410156 856.796875 966.617188 843.585938 969.363281 C 853.59375 962.050781 864.457031 956.164062 875.453125 950.496094 C 900.503906 935.03125 922.855469 915.742188 945.628906 897.179688 C 941.535156 902.03125 937.144531 906.523438 933.023438 911.335938 C 939.011719 917.078125 944.070312 909.121094 949.304688 906.300781 C 957.976562 895.5 969.019531 886.886719 977.199219 875.703125 L 970.890625 875.070312 C 979.3125 866.148438 986.597656 855.757812 997.621094 849.792969 C 998.921875 851.003906 1001.457031 853.46875 1002.71875 854.703125 C 1019.542969 835.824219 1035.523438 816.285156 1050.566406 796.007812 C 1057.542969 782.867188 1069.28125 772.832031 1074.316406 758.703125 C 1081.800781 742.382812 1091.808594 726.867188 1094.839844 708.902344 C 1096.867188 704.820312 1099.625 701.144531 1101.878906 697.222656 C 1100.035156 706.8125 1113.976562 710.113281 1110.710938 719.679688 C 1120.496094 719.617188 1117.960938 729.75 1117.648438 736.148438 C 1119.097656 737.546875 1122.042969 740.292969 1123.5 741.691406 C 1132.148438 746.910156 1135.277344 756.550781 1133.976562 766.300781 C 1146.523438 771.25 1139.59375 786.703125 1147.003906 795.09375 C 1148.019531 799.535156 1149.28125 804 1150.480469 808.527344 C 1148.613281 816.25 1144.085938 823.128906 1141.832031 830.851562 C 1143.640625 839.820312 1141.894531 849.445312 1136.773438 857.117188 C 1127.148438 872.671875 1119.890625 889.867188 1107.507812 903.554688 C 1102.410156 909.097656 1100.828125 916.792969 1096.558594 922.929688 C 1093.03125 932.566406 1085.375 939.878906 1078.695312 947.414062 C 1052.632812 976.121094 1023.625 1002.375 992.339844 1025.300781 C 978.941406 1037.058594 963.171875 1045.484375 947.644531 1054.007812 C 903.1875 1086.089844 847.546875 1101.519531 793.015625 1102.3125 C 780.917969 1103.289062 769.167969 1097.929688 757.207031 1100.121094 C 740.726562 1096.769531 724.363281 1092.585938 707.515625 1091.980469 C 689.429688 1085.261719 670.042969 1082.863281 652.539062 1074.433594 C 641.074219 1070.699219 629.644531 1066.640625 619.3125 1060.40625 C 595.414062 1052.449219 574.003906 1038.394531 551.734375 1026.800781 C 535.65625 1017.484375 521.8125 1005.035156 506.644531 994.519531 C 491.851562 983.109375 479 969.464844 465.578125 956.609375 C 464.648438 955.71875 462.878906 953.972656 461.964844 953.082031 C 424.816406 916 395.871094 870.441406 377.722656 821.199219 C 359.859375 783.558594 358.03125 741.183594 354.703125 700.351562 C 357.078125 699.980469 361.765625 699.152344 364.105469 698.769531 Z M 982.988281 872.386719 C 986.859375 873.683594 990.027344 867.1875 987.933594 864.332031 C 983.878906 862.722656 980.328125 869.34375 982.988281 872.386719"/></g><g id="change1_3"><path d="M 905.4375 396.746094 C 908.691406 395 911.351562 390.152344 915.667969 392.144531 C 924.722656 396.484375 933.492188 401.523438 942.105469 406.816406 C 952.519531 409.761719 961.425781 416 970.542969 421.640625 C 971.65625 421.132812 973.894531 420.144531 975.007812 419.671875 C 980.957031 428.765625 987.800781 437.355469 996.507812 444.058594 C 1005.378906 451 1004.769531 463.410156 1010.101562 472.628906 C 1016.929688 498.230469 999.425781 524.324219 977.828125 536.769531 C 967.980469 550.292969 948.089844 546.308594 934.25 542.636719 C 919.058594 538.710938 915.0625 521.984375 903.0625 514.164062 C 901.28125 510.132812 899.761719 505.988281 898.882812 501.867188 C 889.914062 492.402344 890.988281 477.949219 882.761719 468.015625 C 881.082031 452.648438 879.683594 437.191406 882.480469 421.863281 C 891.71875 419.328125 887.675781 411.914062 885.136719 405.605469 C 886.523438 404.503906 889.320312 402.25 890.742188 401.136719 C 894.195312 405.136719 897.199219 409.414062 900.488281 413.683594 C 903.71875 408.585938 905.09375 402.636719 905.4375 396.746094"/></g></g></svg>