<?xml version="1.0" encoding="UTF-8"?>
<svg id="Ebene_1" data-name="Ebene 1" xmlns="http://www.w3.org/2000/svg" viewBox="0 0 669 190">
  <defs>
    <style>
      .cls-1 {
        fill: #fff;
      }
    </style>
  </defs>
  <path d="m0,0h669v190H0c0-63.333,0-126.667,0-190Zm236.579,43.04c-4.671-.149-9.053.035-13.414.95-12.585,2.641-22.321,9.257-28.767,20.459-3.379,5.872-5.302,12.254-6.231,18.961-1.484,10.715-.997,21.281,2.619,31.537,5.129,14.549,15.151,23.999,30.198,27.617,9.4,2.26,18.986,2.347,28.494.428,14.448-2.916,24.75-11.139,30.732-24.633,3.003-6.774,4.338-13.926,4.644-21.327.416-10.047-.862-19.754-5.075-28.975-4.364-9.55-11.208-16.653-20.821-20.941-7.188-3.207-14.759-4.547-22.38-4.075Zm-99.424.008c-4.617-.183-8.999.02-13.354.95-14.636,3.125-25.092,11.369-31.051,25.164-3.043,7.044-4.402,14.448-4.633,22.093-.262,8.657.726,17.117,3.898,25.231,2.939,7.519,7.362,13.905,13.968,18.751,6.944,5.094,14.669,7.823,23.201,8.569,6.626.58,13.222.608,19.781-.57,12.343-2.217,22.182-8.317,28.891-19.045,3.823-6.115,5.986-12.858,6.972-19.994,1.623-11.747.942-23.243-3.602-34.343-4.439-10.844-11.916-18.74-22.779-23.244-6.861-2.844-14.051-4.031-21.291-3.562Zm153.4,1.717v97.155h26.26v-37.96h45.993v-18.98h-45.985v-19.45h51.148v-20.765h-77.416Zm238.678.237c.088.335.097.461.152.564,2.696,5.068,5.405,10.13,8.095,15.201,9.357,17.642,18.714,35.284,28.039,52.942.33.625.458,1.426.461,2.145.031,8.25.019,16.499.019,24.749v1.288h26.518c0-.482,0-.854,0-1.227-.007-8.291-.045-16.583.015-24.873.008-1.112.304-2.324.811-3.314,2.655-5.184,5.434-10.304,8.146-15.458,8.95-17.008,17.89-34.022,26.83-51.036.142-.271.241-.565.388-.914-.346-.031-.551-.066-.756-.066-9.208-.003-18.416.007-27.624-.02-.814-.002-1.191.351-1.491,1.029-1.446,3.271-2.936,6.522-4.381,9.793-4.217,9.546-8.443,19.089-12.613,28.656-1.086,2.493-1.979,5.07-2.875,7.389-2.071-5.164-4.103-10.525-6.358-15.79-4.208-9.823-8.59-19.571-12.78-29.402-.587-1.377-1.252-1.698-2.62-1.689-8.833.058-17.666.031-26.499.031-.45,0-.9,0-1.478,0Zm-111.605,76.396c-.092-.276-.141-.354-.141-.432-.015-18.162-.022-36.323-.053-54.485-.001-.849.379-.927,1.068-.924,4.457.02,8.914.006,13.371.003.854,0,1.708,0,2.555,0v-20.752h-60.241v20.787h17v55.921h-16.999v20.676h60.261v-20.795h-16.822Zm22.557-76.613v20.721h31.2v76.411h26.421v-76.39h30.98v-20.743h-88.6ZM86.765,141.94c.02-.46.052-.827.05-1.193-.037-5.915-.108-11.831-.09-17.746.003-1.092-.363-1.313-1.359-1.305-5.04.042-10.081.02-15.122.02-2.403,0-2.424,0-2.42-2.41.028-18.245.098-36.49.079-54.735-.005-5.184-1.62-9.831-5.42-13.535-4.477-4.364-10.1-5.866-16.101-5.997-7.661-.167-15.329-.042-22.994-.038-.359,0-.719.048-1.1.075v20.233h19.419c0,.783,0,1.395,0,2.008.004,17.746.004,35.492.03,53.238.001.854-.203,1.165-1.114,1.161-6.373-.032-12.747.015-19.121-.031-1.011-.007-1.262.279-1.256,1.256.032,6.082.001,12.163-.003,18.245,0,.234.055.468.09.752h66.434Z"/>
  <path class="cls-1" d="m236.579,43.04c7.621-.472,15.192.869,22.38,4.075,9.613,4.288,16.457,11.391,20.821,20.941,4.214,9.221,5.491,18.928,5.075,28.975-.306,7.401-1.641,14.553-4.644,21.327-5.982,13.494-16.283,21.717-30.732,24.633-9.508,1.919-19.094,1.832-28.494-.428-15.048-3.618-25.07-13.068-30.198-27.617-3.616-10.257-4.103-20.822-2.619-31.537.929-6.707,2.852-13.089,6.231-18.961,6.446-11.202,16.182-17.818,28.767-20.459,4.361-.915,8.743-1.098,13.414-.95Zm20.671,48.175c-.048-3.22-.305-8.875-1.997-14.344-2-6.463-6.205-10.553-12.938-11.959-4.11-.859-8.186-.736-12.272.045-5.49,1.05-9.574,4.024-11.823,9.161-1.007,2.3-1.78,4.777-2.19,7.251-1.036,6.258-1.402,12.587-.624,18.906.425,3.452.923,6.944,1.894,10.27,1.687,5.782,5.511,9.744,11.43,11.314,4.095,1.086,8.256,1.245,12.493.519,7.201-1.234,11.889-5.2,14.033-12.174,1.657-5.391,2.054-10.938,1.993-18.988Z"/>
  <path class="cls-1" d="m137.155,43.048c7.24-.469,14.43.718,21.291,3.562,10.863,4.503,18.34,12.4,22.779,23.244,4.544,11.1,5.226,22.596,3.602,34.343-.986,7.136-3.148,13.879-6.972,19.994-6.708,10.729-16.548,16.828-28.891,19.045-6.559,1.178-13.155,1.15-19.781.57-8.532-.747-16.257-3.476-23.201-8.569-6.606-4.845-11.029-11.232-13.968-18.751-3.172-8.115-4.16-16.574-3.898-25.231.231-7.646,1.59-15.049,4.633-22.093,5.96-13.794,16.416-22.039,31.051-25.164,4.355-.93,8.738-1.134,13.354-.95Zm-21.37,51.441c0,.749-.037,1.501.006,2.248.289,4.99.657,9.965,2.437,14.713,2.196,5.858,6.342,9.453,12.452,10.713,3.397.701,6.811.867,10.294.37,8.141-1.161,13.271-5.4,15.211-13.372.899-3.693,1.296-7.535,1.615-11.335.568-6.761.102-13.497-1.619-20.069-1.721-6.57-5.686-11.114-12.538-12.688-3.438-.79-6.915-.907-10.427-.549-8.296.845-13.511,5.204-15.714,13.263-1.495,5.469-1.794,11.072-1.718,16.706Z"/>
  <path class="cls-1" d="m290.555,44.764h77.416v20.765h-51.148v19.45h45.985v18.98h-45.993v37.96h-26.26V44.764Z"/>
  <path class="cls-1" d="m529.233,45.001c.578,0,1.028,0,1.478,0,8.833,0,17.666.027,26.499-.031,1.369-.009,2.034.312,2.62,1.689,4.189,9.831,8.572,19.579,12.78,29.402,2.255,5.265,4.287,10.626,6.358,15.79.896-2.319,1.789-4.896,2.875-7.389,4.169-9.567,8.396-19.11,12.613-28.656,1.445-3.271,2.935-6.523,4.381-9.793.3-.678.677-1.032,1.491-1.029,9.208.026,18.416.017,27.624.02.205,0,.411.035.756.066-.147.349-.245.643-.388.914-8.94,17.013-17.88,34.027-26.83,51.036-2.712,5.154-5.491,10.274-8.146,15.458-.507.99-.803,2.202-.811,3.314-.059,8.291-.022,16.582-.015,24.873,0,.372,0,.744,0,1.227h-26.518v-1.288c0-8.25.012-16.499-.019-24.749-.003-.72-.131-1.52-.461-2.145-9.325-17.658-18.682-35.3-28.039-52.942-2.69-5.071-5.398-10.133-8.095-15.201-.055-.103-.064-.23-.152-.564Z"/>
  <path class="cls-1" d="m417.628,121.397h16.822v20.795h-60.261v-20.676h16.999v-55.921h-17v-20.787h60.241v20.752c-.847,0-1.701,0-2.555,0-4.457.003-8.914.017-13.371-.003-.69-.003-1.07.075-1.068.924.032,18.162.038,36.323.053,54.485,0,.078.049.156.141.432Z"/>
  <path class="cls-1" d="m440.184,44.785h88.6v20.743h-30.98v76.39h-26.421v-76.411h-31.2v-20.721Z"/>
  <path class="cls-1" d="m86.765,141.94H20.331c-.035-.284-.09-.518-.09-.752.004-6.082.035-12.164.003-18.245-.005-.978.245-1.264,1.256-1.256,6.373.046,12.747,0,19.121.031.911.005,1.115-.307,1.114-1.161-.026-17.746-.025-35.492-.03-53.238,0-.612,0-1.225,0-2.008h-19.419v-20.233c.381-.027.74-.075,1.1-.075,7.665-.004,15.333-.13,22.994.038,6.001.131,11.624,1.633,16.101,5.997,3.8,3.704,5.415,8.35,5.42,13.535.019,18.245-.051,36.49-.079,54.735-.004,2.411.017,2.41,2.42,2.41,5.041,0,10.081.022,15.122-.02.996-.008,1.362.213,1.359,1.305-.018,5.915.054,11.83.09,17.746.002.366-.03.733-.05,1.193Z"/>
  <path d="m257.25,91.214c.061,8.051-.336,13.597-1.993,18.988-2.144,6.974-6.832,10.94-14.033,12.174-4.238.726-8.398.567-12.493-.519-5.918-1.57-9.743-5.532-11.43-11.314-.971-3.326-1.469-6.818-1.894-10.27-.779-6.319-.412-12.647.624-18.906.409-2.474,1.183-4.95,2.19-7.251,2.248-5.136,6.332-8.111,11.823-9.161,4.086-.781,8.162-.903,12.272-.045,6.732,1.406,10.938,5.497,12.938,11.959,1.692,5.469,1.949,11.124,1.997,14.344Z"/>
  <path d="m115.786,94.489c-.077-5.634.223-11.237,1.718-16.706,2.203-8.059,7.418-12.418,15.714-13.263,3.512-.358,6.989-.241,10.427.549,6.852,1.575,10.817,6.119,12.538,12.688,1.721,6.572,2.187,13.308,1.619,20.069-.319,3.8-.716,7.642-1.615,11.335-1.94,7.972-7.07,12.211-15.211,13.372-3.483.497-6.897.33-10.294-.37-6.11-1.26-10.256-4.854-12.452-10.713-1.78-4.749-2.148-9.723-2.437-14.713-.043-.747-.006-1.499-.006-2.248Z"/>
</svg>