<?xml version="1.0" encoding="UTF-8" standalone="no"?><!-- Generator: Gravit.io --><svg xmlns="http://www.w3.org/2000/svg" xmlns:xlink="http://www.w3.org/1999/xlink" style="isolation:isolate" viewBox="2594.187 1778.731 204.194 235.99" width="204.194pt" height="235.99pt"><g><g><g><path d=" M 2723.481 1779.721 C 2711.781 1782.621 2697.981 1789.921 2685.681 1799.821 C 2676.181 1807.421 2663.281 1821.621 2658.481 1829.821 L 2655.981 1834.021 L 2651.481 1831.121 C 2643.081 1825.921 2630.281 1820.421 2626.181 1820.421 C 2621.781 1820.421 2613.481 1830.921 2606.681 1844.921 C 2600.381 1857.921 2596.181 1873.421 2594.581 1889.721 C 2592.581 1910.521 2598.281 1937.521 2609.581 1960.121 C 2618.781 1978.521 2633.881 1990.521 2647.881 1990.521 C 2651.681 1990.521 2656.681 1989.521 2662.481 1987.521 C 2665.181 1986.521 2668.181 1985.821 2668.981 1985.821 C 2669.881 1985.821 2671.281 1985.421 2672.081 1984.821 C 2674.281 1983.521 2675.481 1983.621 2676.181 1985.121 C 2678.481 1990.121 2683.981 1994.921 2692.081 1999.021 C 2695.281 2000.621 2698.181 2002.421 2698.681 2003.021 C 2699.181 2003.721 2700.281 2004.321 2701.281 2004.521 C 2702.281 2004.721 2704.981 2006.121 2707.281 2007.721 C 2715.081 2012.821 2720.381 2014.721 2727.381 2014.721 C 2740.681 2014.721 2755.981 2005.521 2768.081 1990.521 C 2772.481 1984.921 2779.881 1973.821 2783.381 1967.221 C 2794.381 1946.921 2798.381 1930.621 2798.381 1906.921 C 2798.381 1895.321 2797.581 1888.421 2795.281 1878.621 C 2794.481 1875.221 2793.681 1872.321 2793.581 1872.021 C 2793.481 1871.821 2792.081 1872.721 2790.481 1874.021 C 2788.881 1875.321 2787.481 1876.421 2787.281 1876.421 C 2787.181 1876.421 2786.281 1875.021 2785.581 1873.221 C 2784.781 1871.421 2783.281 1868.521 2782.181 1866.721 C 2779.781 1862.821 2779.181 1862.521 2772.881 1862.921 C 2770.581 1863.021 2768.681 1863.121 2768.681 1863.021 C 2768.681 1862.921 2769.281 1861.021 2770.081 1858.721 C 2770.881 1856.421 2771.381 1854.621 2771.181 1854.621 C 2770.881 1854.621 2759.781 1857.521 2757.481 1858.221 C 2756.481 1858.521 2756.481 1858.221 2755.981 1848.121 C 2755.381 1836.521 2754.181 1828.221 2752.081 1819.521 C 2748.381 1804.921 2742.381 1791.821 2734.881 1782.621 C 2731.481 1778.221 2730.581 1778.021 2723.481 1779.721 Z " fill="rgb(0,0,0)"/><path d=" M 2732.081 1793.921 C 2736.981 1801.421 2741.481 1812.521 2743.881 1823.521 C 2746.081 1833.521 2746.681 1838.821 2746.681 1850.821 L 2746.681 1862.021 L 2739.981 1865.521 C 2732.181 1869.621 2722.081 1876.221 2715.081 1881.921 C 2703.881 1890.921 2693.781 1903.721 2684.981 1920.021 C 2682.981 1923.621 2681.381 1926.321 2681.381 1925.921 C 2681.381 1924.221 2684.281 1906.121 2685.881 1898.521 C 2689.181 1882.221 2693.581 1866.021 2698.681 1851.721 C 2700.181 1847.621 2701.381 1843.821 2701.381 1843.321 C 2701.381 1842.721 2700.781 1841.621 2699.981 1840.821 C 2698.981 1839.721 2698.181 1839.321 2696.981 1839.321 C 2693.881 1839.321 2693.181 1840.221 2690.281 1848.421 C 2682.381 1870.721 2676.481 1895.321 2672.881 1921.721 C 2672.381 1925.721 2671.881 1929.121 2671.781 1929.221 C 2671.681 1929.221 2669.281 1928.521 2666.381 1927.621 C 2657.881 1924.921 2653.881 1921.621 2650.781 1914.821 C 2647.581 1907.721 2646.581 1893.721 2648.581 1882.921 C 2651.281 1868.921 2654.481 1858.821 2660.381 1845.921 C 2665.981 1833.821 2671.281 1826.321 2682.181 1815.421 C 2691.881 1805.721 2700.481 1799.221 2710.681 1794.221 C 2718.481 1790.321 2718.481 1790.321 2715.881 1794.321 C 2713.081 1798.621 2707.681 1808.221 2706.781 1810.421 C 2705.481 1813.521 2707.681 1816.721 2710.981 1816.721 C 2713.281 1816.721 2714.181 1815.721 2717.581 1809.621 C 2721.881 1801.721 2728.981 1790.621 2729.681 1790.621 C 2729.781 1790.521 2730.881 1792.021 2732.081 1793.921 Z " fill="rgb(142,85,0)"/><path d=" M 2631.081 1831.121 C 2636.881 1833.021 2649.181 1839.821 2651.081 1842.021 C 2651.481 1842.521 2651.081 1843.921 2649.481 1847.621 C 2643.081 1862.621 2638.881 1879.621 2638.381 1892.321 C 2637.981 1903.521 2639.781 1913.021 2643.781 1920.921 C 2648.181 1929.521 2655.181 1934.621 2666.481 1937.621 C 2669.081 1938.321 2671.981 1939.421 2672.881 1940.021 C 2673.881 1940.621 2674.781 1941.121 2675.081 1941.121 C 2675.381 1941.121 2675.081 1942.821 2674.281 1945.721 C 2672.281 1952.321 2671.381 1960.521 2671.681 1967.521 C 2671.781 1970.621 2671.981 1973.621 2672.081 1974.121 C 2672.181 1975.121 2669.281 1976.421 2665.881 1977.021 C 2664.781 1977.121 2661.281 1978.121 2658.081 1979.121 C 2648.581 1982.121 2644.181 1982.121 2637.881 1979.121 C 2633.981 1977.221 2627.581 1971.221 2623.381 1965.521 C 2617.381 1957.521 2610.381 1940.921 2607.081 1926.721 C 2602.981 1909.521 2602.281 1898.721 2604.581 1883.121 C 2605.481 1876.921 2608.381 1864.621 2609.981 1860.221 C 2610.781 1857.921 2610.981 1857.821 2618.181 1857.221 C 2626.181 1856.421 2632.181 1855.021 2633.581 1853.621 C 2634.981 1852.221 2635.181 1849.321 2634.081 1847.921 C 2632.681 1846.221 2630.781 1845.821 2627.481 1846.521 C 2623.781 1847.421 2615.381 1848.621 2615.081 1848.421 C 2614.781 1848.121 2617.581 1842.821 2619.881 1839.421 C 2622.381 1835.721 2626.781 1830.021 2627.281 1830.021 C 2627.481 1829.921 2629.181 1830.421 2631.081 1831.121 Z " fill="rgb(255,187,86)"/><path d=" M 2757.181 1869.021 C 2756.981 1869.621 2752.581 1883.121 2747.481 1899.021 C 2742.281 1914.921 2738.081 1928.021 2738.181 1928.121 C 2738.281 1928.221 2749.481 1919.321 2762.981 1908.321 C 2776.581 1897.321 2787.781 1888.321 2787.881 1888.321 C 2788.781 1888.321 2789.881 1904.421 2789.481 1911.321 C 2788.781 1924.021 2787.181 1934.121 2784.481 1941.921 C 2777.481 1962.621 2762.981 1985.321 2750.281 1995.521 C 2740.081 2003.721 2732.581 2006.721 2725.081 2005.521 C 2721.281 2004.921 2717.681 2003.321 2711.781 1999.421 C 2709.281 1997.821 2707.081 1996.521 2706.781 1996.521 C 2706.481 1996.521 2704.981 1995.721 2703.381 1994.621 C 2701.781 1993.621 2698.381 1991.721 2695.681 1990.321 C 2692.981 1988.921 2689.781 1987.021 2688.581 1986.021 C 2682.481 1981.221 2679.681 1971.921 2680.981 1960.121 C 2681.681 1953.221 2682.581 1949.421 2685.081 1942.721 C 2691.081 1926.421 2699.981 1911.321 2710.881 1898.421 C 2717.381 1890.821 2731.581 1880.121 2743.381 1874.021 C 2747.381 1871.921 2756.381 1867.821 2757.081 1867.821 C 2757.381 1867.921 2757.381 1868.421 2757.181 1869.021 Z " fill="rgb(255,187,86)"/><path d=" M 2777.181 1876.321 C 2780.081 1883.121 2780.781 1881.921 2767.781 1892.521 C 2761.581 1897.521 2756.481 1901.521 2756.481 1901.321 C 2756.481 1900.921 2765.581 1873.421 2765.781 1873.221 C 2766.181 1872.821 2769.581 1872.321 2772.481 1872.221 L 2775.381 1872.221 L 2777.181 1876.321 Z " fill="rgb(142,85,0)"/><path d=" M 2727.781 1896.221 C 2724.981 1897.721 2719.181 1902.521 2714.681 1906.921 C 2700.981 1920.521 2692.981 1937.021 2690.881 1955.521 C 2690.181 1961.721 2691.381 1963.921 2695.381 1963.921 C 2697.781 1963.921 2699.281 1962.321 2699.581 1959.321 C 2701.281 1945.421 2703.481 1938.121 2709.181 1928.421 C 2713.981 1920.121 2721.781 1911.521 2729.581 1905.921 C 2734.081 1902.621 2734.981 1901.121 2733.881 1898.621 C 2732.881 1895.821 2730.281 1894.821 2727.781 1896.221 Z " fill="rgb(0,0,0)"/></g></g></g></svg>