<?xml version="1.0" encoding="utf-8"?>
<!-- Svg Vector Icons : http://www.onlinewebfonts.com/icon -->
<!DOCTYPE svg PUBLIC "-//W3C//DTD SVG 1.1//EN" "http://www.w3.org/Graphics/SVG/1.1/DTD/svg11.dtd">
<svg version="1.1" xmlns="http://www.w3.org/2000/svg" xmlns:xlink="http://www.w3.org/1999/xlink" x="0px" y="0px" viewBox="0 0 256 256" enable-background="new 0 0 256 256" xml:space="preserve">
<metadata> Svg Vector Icons : http://www.onlinewebfonts.com/icon </metadata>
<g><g><g><path fill="#000000" d="M210,117.5c0.3,1.1,0.7,2.2,1,3.1c0.8,2.4,1.6,3.7,1.6,3.8l0.3,0.6c5.4,9.4,2.1,21.4-7.3,26.8c-3,1.7-6.3,2.6-9.7,2.6c-7,0-13.6-3.8-17-9.8c-3.7-6.5-3.4-14.5,0.7-20.7c0,0,0.1-0.2,0.2-0.4c0.2-0.5,0.5-1,0.7-1.7c0.4-1.2,0.7-2.3,0.8-3.5c0-0.2,0-0.4,0-0.7h-34.9c0.3,1.1,0.7,2.2,1,3.1c0.8,2.4,1.6,3.7,1.6,3.8l0.3,0.6c5.4,9.4,2.1,21.4-7.3,26.8c-3,1.7-6.3,2.6-9.8,2.6c-7,0-13.5-3.8-17-9.8c-3.7-6.5-3.4-14.4,0.7-20.7c0,0,0.1-0.2,0.2-0.4c0.3-0.5,0.5-1,0.7-1.7c0.4-1.2,0.7-2.3,0.8-3.5c0-0.2,0-0.4,0-0.6H86.3c0.3,1.1,0.7,2.2,1,3.1c0.8,2.4,1.6,3.7,1.6,3.8l0.3,0.6c5.4,9.4,2.1,21.4-7.3,26.8c-3,1.7-6.3,2.6-9.8,2.6c-7,0-13.6-3.8-17-9.8c-3.7-6.5-3.4-14.4,0.7-20.7c0,0,0.1-0.2,0.2-0.4c0.2-0.5,0.5-1,0.7-1.7c0.4-1.2,0.7-2.3,0.8-3.5c0-0.2,0-0.4,0-0.7H10V169c4.2-2,8.7-3.1,13.8-3.3c13.3-0.3,25.4,4.6,38.1,7.7c12.4,3,26.8,4.3,39.2,0.1c9.8-3.3,18.9-8,28.8-10.9c23.8-6.9,44.1-0.5,66.5,8.3c12.4,4.8,38.9,19.4,49,4.3c0.2-0.3,0.4-0.6,0.7-0.9v-56.8H210z"/><path fill="#000000" d="M37,38.3c0.5,0.3,1,0.6,1.5,1.1c1.2,0.8,2.4,2,3.7,3.4c1.3,1.5,2.7,3.2,4,5.2c2.7,4,5.3,9,7.7,14.5c2.4,5.5,4.5,11.6,6.3,17.7c1.8,6.1,3.3,12.4,4.1,18.3c0.5,2.9,0.8,5.8,1,8.5c0.3,2.7,0.3,5.3,0.4,7.6c0,2.4,0,4.5-0.2,6.4c-0.2,1.9-0.7,3.6-1.1,4.9c-0.4,1.3-0.9,2.4-1.3,3.1c-0.4,0.7-0.6,1.1-0.6,1.1c-2.4,3.5-2.7,8.3-0.4,12.2c3.2,5.5,10.2,7.4,15.8,4.3c5.5-3.2,7.4-10.2,4.3-15.8l-0.3-0.6c0,0-1-1.8-2.1-4.8c-0.6-1.5-1.1-3.3-1.7-5.3c-0.5-2-1-4.3-1.5-6.8c-0.5-2.5-1.2-5.1-2-7.9c-0.7-2.8-1.6-5.7-2.5-8.7c-1.8-6-4-12.2-6.5-18.4c-4.9-12.3-11.5-23.9-18-31.4c-1.6-1.9-3.2-3.5-4.7-4.9c-1.5-1.3-2.9-2.4-4.1-3.1c-0.6-0.4-1.2-0.7-1.7-0.9c-0.5-0.3-0.9-0.5-1.3-0.6c-0.7-0.3-1.1-0.4-1.1-0.4s0.4,0.2,1.1,0.5C36.2,37.8,36.5,38,37,38.3z"/><path fill="#000000" d="M97.2,38.3c0.5,0.3,1,0.6,1.5,1.1c1.2,0.8,2.4,2,3.7,3.4c1.3,1.5,2.7,3.2,4,5.2c2.7,4,5.3,9,7.7,14.5c2.4,5.5,4.5,11.6,6.3,17.7c1.8,6.1,3.3,12.4,4.1,18.3c0.5,2.9,0.8,5.8,1,8.5c0.3,2.7,0.3,5.3,0.4,7.6c0,2.4,0,4.5-0.2,6.4c-0.2,1.9-0.6,3.6-1.1,4.9c-0.4,1.3-1,2.4-1.3,3.1c-0.4,0.7-0.6,1.1-0.6,1.1c-2.4,3.5-2.7,8.3-0.4,12.2c3.2,5.5,10.2,7.4,15.8,4.3c5.5-3.2,7.4-10.2,4.3-15.8l-0.3-0.6c0,0-1-1.8-2.1-4.8c-0.6-1.5-1.1-3.3-1.7-5.3c-0.5-2-1-4.3-1.5-6.8c-0.5-2.5-1.2-5.1-2-7.9c-0.7-2.8-1.6-5.7-2.5-8.7c-1.8-6-4-12.2-6.5-18.4c-4.9-12.3-11.5-23.9-18-31.4c-1.6-1.9-3.2-3.5-4.7-4.9c-1.5-1.3-2.9-2.4-4.1-3.1c-0.6-0.4-1.2-0.7-1.7-0.9c-0.5-0.3-0.9-0.5-1.3-0.6c-0.7-0.3-1.1-0.4-1.1-0.4s0.4,0.2,1.1,0.5C96.3,37.8,96.7,38,97.2,38.3z"/><path fill="#000000" d="M160.6,38.3c0.5,0.3,1,0.6,1.5,1.1c1.2,0.8,2.4,2,3.7,3.4c1.3,1.5,2.7,3.2,4,5.2c2.7,4,5.3,9,7.7,14.5c2.4,5.5,4.5,11.6,6.3,17.7c1.8,6.1,3.3,12.4,4.1,18.3c0.5,2.9,0.8,5.8,1,8.5c0.3,2.7,0.3,5.3,0.4,7.6c0,2.4,0,4.5-0.2,6.4c-0.2,1.9-0.7,3.6-1.1,4.9c-0.4,1.3-0.9,2.4-1.3,3.1c-0.4,0.7-0.6,1.1-0.6,1.1c-2.4,3.5-2.7,8.3-0.4,12.2c3.2,5.5,10.2,7.4,15.8,4.3c5.5-3.2,7.4-10.2,4.3-15.8l-0.4-0.6c0,0-1-1.8-2.1-4.8c-0.6-1.5-1.1-3.3-1.7-5.3c-0.5-2-1-4.3-1.5-6.8c-0.5-2.5-1.2-5.1-1.9-7.9s-1.6-5.7-2.5-8.7c-1.8-6-4-12.2-6.5-18.4c-4.9-12.3-11.5-23.9-18-31.4c-1.6-1.9-3.2-3.5-4.7-4.9c-1.5-1.3-2.9-2.4-4.1-3.1c-0.6-0.4-1.2-0.7-1.7-0.9c-0.5-0.3-0.9-0.5-1.3-0.6c-0.7-0.3-1.1-0.4-1.1-0.4s0.4,0.2,1.1,0.5C159.8,37.8,160.2,38,160.6,38.3z"/><path fill="#000000" d="M196.4,184.6c-22.4-8.8-42.7-15.1-66.5-8.3c-9.9,2.9-19.1,7.7-28.8,10.9c-12.3,4.1-26.8,2.9-39.2-0.1c-12.7-3.1-24.8-8-38.1-7.7c-5.1,0.1-9.7,1.3-13.8,3.3v36.2h236V188c-0.2,0.3-0.4,0.6-0.7,0.9C235.3,204.1,208.7,189.5,196.4,184.6z"/></g></g></g>
</svg>