<?xml version="1.0" encoding="UTF-8" standalone="no"?><!-- Generator: Gravit.io --><svg xmlns="http://www.w3.org/2000/svg" xmlns:xlink="http://www.w3.org/1999/xlink" style="isolation:isolate" viewBox="530 379 235.987 199.902" width="235.987pt" height="199.902pt"><g><g><path d=" M 570.32 542 C 566.32 542 563.02 545.3 563.02 549.3 C 563.02 553.3 566.32 556.5 570.32 556.5 C 574.32 556.5 577.62 553.2 577.62 549.3 C 577.62 545.3 574.32 542 570.32 542 Z " fill="rgb(0,0,0)"/><path d=" M 595.82 559.2 C 591.42 559.2 587.92 562.8 587.92 567.1 C 587.92 571.5 591.52 575 595.82 575 C 600.12 575 603.72 571.4 603.72 567.1 C 603.82 562.8 600.22 559.2 595.82 559.2 Z " fill="rgb(0,0,0)"/><path d=" M 670.92 549.3 C 666.92 549.3 663.72 552.5 663.72 556.5 C 663.72 560.5 666.92 563.7 670.92 563.7 C 674.92 563.7 678.12 560.5 678.12 556.5 C 678.02 552.5 674.82 549.3 670.92 549.3 Z " fill="rgb(0,0,0)"/><path d=" M 642.82 561 C 638.52 561 634.92 564.5 634.92 568.8 C 634.92 573.1 638.42 576.6 642.82 576.6 C 647.12 576.6 650.72 573.1 650.72 568.8 C 650.62 564.5 647.12 561 642.82 561 Z " fill="rgb(0,0,0)"/><path d=" M 620.82 485.4 C 622.82 480.2 623.72 479.5 626.02 474.4 C 630.22 464.9 626.22 463.3 617.52 463.5 C 594.92 463.9 572.42 464.3 549.82 463.4 C 535.12 462.8 529.62 467.7 530.02 482.7 C 530.82 513.4 530.12 544.2 530.02 575 C 545.12 582.2 546.72 579.9 546.62 564.2 C 546.52 550.5 547.92 536.8 545.62 523.1 C 544.82 519.7 545.42 517.6 549.52 516.5 C 556.62 514.6 563.82 504.8 563.52 496.9 C 563.42 492.5 564.32 488.2 569.62 487.9 C 575.82 487.5 577.12 492.3 577.32 497.1 C 577.72 505.4 581.22 511.5 589.92 511.4 C 598.62 511.3 601.82 504.9 602.32 496.7 C 602.72 490.2 605.72 484 612.62 489.4 C 620.42 495.3 619.62 488.6 620.82 485.4 Z " fill="rgb(0,0,0)"/><path d=" M 764.42 467.5 C 747.82 459.3 730.02 464.2 712.92 463.9 C 664.02 463.1 664.02 456.6 669.12 505.6 C 669.22 506.3 670.12 507 671.12 508.3 C 678.12 506.4 680.22 501.2 680.22 494.5 C 680.22 490 681.52 486 686.72 485.9 C 692.02 485.7 693.72 489.4 693.72 494 C 693.72 503 697.32 509.7 706.82 509.4 C 715.32 509.1 718.92 502.9 718.62 494.4 C 718.42 489.6 721.02 486.2 725.62 485.9 C 730.62 485.6 733.02 489.5 732.82 494.1 C 732.52 503.4 741.22 515.4 749.72 517.5 C 753.52 534.7 750.52 552.1 751.32 569.4 C 751.62 576 754.92 578.7 760.92 578.5 C 766.12 578.4 765.92 576.2 765.72 570.3 C 764.92 536 767.52 501.7 764.42 467.5 Z " fill="rgb(0,0,0)"/><path d=" M 656.32 473.7 C 665.52 435.4 687.12 404.8 716.72 379 C 703.62 379.5 694.82 386.6 686.22 393.5 C 654.92 418.9 641.12 453.7 633.82 491.9 C 627.22 507.4 614.82 520 611.42 537.1 C 608.82 549.8 615.02 557.9 625.82 555.9 C 641.92 553 659.72 531.5 657.72 515.1 C 655.92 501.3 656.52 487.5 656.32 473.7 Z " fill="rgb(0,0,0)"/><path d=" M 597.22 531.7 C 597.82 527 595.22 524.2 590.82 523 C 585.82 523 582.82 525.9 582.52 530.2 C 582.12 535 585.82 537.9 590.02 538.2 C 593.82 538.5 596.72 535.6 597.22 531.7 Z " fill="rgb(0,0,0)"/><path d=" M 717.52 524.4 C 713.62 524.2 710.62 526.9 710.32 531 C 710.02 535.6 712.32 538.9 717.42 539 C 721.62 539.1 724.02 536.9 724.42 533.9 C 724.82 527.6 722.02 524.7 717.52 524.4 Z " fill="rgb(0,0,0)"/><path d=" M 730.42 548.1 C 726.42 548.2 723.82 550.6 723.52 554.6 C 723.12 559.2 725.42 562.4 730.12 562.9 C 735.12 563.4 737.12 559.8 738.12 555.7 C 737.42 551.2 735.32 548 730.42 548.1 Z " fill="rgb(0,0,0)"/><path d=" M 702.52 559.3 C 697.42 559.2 694.92 562.2 695.42 567 C 695.82 571 698.72 573.2 702.92 572.8 C 707.02 572.4 709.22 570 709.42 565.9 C 709.02 561.7 706.62 559.4 702.52 559.3 Z " fill="rgb(0,0,0)"/><path d=" M 684.02 522.6 C 678.92 522.8 676.82 526.1 677.42 530.7 C 677.92 534.9 681.12 536.7 685.12 536.2 C 689.22 535.7 691.22 533 691.12 528.8 C 690.32 525 688.22 522.4 684.02 522.6 Z " fill="rgb(0,0,0)"/></g></g></svg>