<?xml version="1.0" encoding="utf-8"?>
<!-- Svg Vector Icons : http://www.onlinewebfonts.com/icon -->
<!DOCTYPE svg PUBLIC "-//W3C//DTD SVG 1.1//EN" "http://www.w3.org/Graphics/SVG/1.1/DTD/svg11.dtd">
<svg version="1.1" xmlns="http://www.w3.org/2000/svg" xmlns:xlink="http://www.w3.org/1999/xlink" x="0px" y="0px" viewBox="0 0 256 256" enable-background="new 0 0 256 256" xml:space="preserve">
<metadata> Svg Vector Icons : http://www.onlinewebfonts.com/icon </metadata>
<g> <path fill="#ef7c1c" d="M163.2,62.7c0-14.4,4.1-28.6,11.9-40.7c-12,0.4-23.8,3.5-34.4,9c-8.2,4.3-17.9,4.3-26,0 c-11.8-6.1-24.9-9.3-38.2-9.2C33.3,21.8,10,60.8,10,97.4c0,50.1,37.2,95.5,110.7,135c4.6,2.5,10.1,2.5,14.7,0 c52.8-28.4,86.9-59.8,101.9-94.1C196.1,137.4,163.2,103.8,163.2,62.7z M165.3,136.3h-29.3v29.3c0.3,4.5-3.2,8.4-7.7,8.7 c-4.5,0.3-8.4-3.2-8.7-7.7c0-0.3,0-0.7,0-1v-29.3H90.3c-4.5-0.3-8-4.2-7.7-8.7c0.3-4.1,3.6-7.4,7.7-7.7h29.3V90.6 c-0.3-4.5,3.2-8.5,7.7-8.7s8.4,3.2,8.7,7.7c0,0.3,0,0.7,0,1v29.3h29.3c4.5-0.3,8.4,3.2,8.7,7.7c0.3,4.5-3.2,8.4-7.7,8.7 C166,136.3,165.7,136.3,165.3,136.3z"/> <path fill="#ffffff" d="M165.4,119.8h-29.3v16.4h29.3c4.5,0.3,8.4-3.2,8.7-7.7c0.3-4.5-3.2-8.5-7.7-8.7 C166.1,119.8,165.7,119.8,165.4,119.8z M90.5,119.8c-4.5,0.3-8,4.2-7.7,8.7c0.3,4.1,3.6,7.4,7.7,7.7h29.3v-16.4H90.5z"/> <path fill="#ffffff" d="M119.7,165.5c-0.3,4.5,3.2,8.4,7.7,8.7c4.5,0.3,8.5-3.2,8.7-7.7c0-0.3,0-0.7,0-1v-29.3h-16.4V165.5z  M136.2,90.6c0.3-4.5-3.2-8.4-7.7-8.7c-4.5-0.3-8.5,3.2-8.7,7.7c0,0.3,0,0.7,0,1v29.3h16.4V90.6z"/> <path fill="#ffffff" d="M119.7,119.8h16.4v16.4h-16.4V119.8z"/> <path fill="#ef7c1c" d="M178.5,21.8h-3.3C152.7,57,162.9,103.8,198,126.3c11.7,7.5,25.3,11.7,39.2,12c5.8-12.9,8.7-26.9,8.8-41.1 C246,60.1,220.7,21.8,178.5,21.8z"/> <path fill="#f29342" d="M178.5,21.8h-3.3C152.7,57,162.9,103.8,198,126.3c11.7,7.5,25.3,11.7,39.2,12c5.8-12.9,8.7-26.9,8.8-41.1 C246,60.1,220.7,21.8,178.5,21.8z"/></g>
</svg>