<?xml version="1.0" encoding="utf-8"?>
<!-- Svg Vector Icons : http://www.onlinewebfonts.com/icon -->
<!DOCTYPE svg PUBLIC "-//W3C//DTD SVG 1.1//EN" "http://www.w3.org/Graphics/SVG/1.1/DTD/svg11.dtd">
<svg version="1.1" xmlns="http://www.w3.org/2000/svg" xmlns:xlink="http://www.w3.org/1999/xlink" x="0px" y="0px" viewBox="0 0 256 256" enable-background="new 0 0 256 256" xml:space="preserve">
<metadata> Svg Vector Icons : http://www.onlinewebfonts.com/icon </metadata>
<g> <path fill="#e75c5b" d="M204.2,116.6l-54.7-54.8l-21.5-21.5c-27.1-26.9-70.9-26.8-97.8,0.2c-26.9,27-26.9,70.6,0,97.6l97.8,97.8 l97.8-97.8l0,0L204.2,116.6z M127.9,192.9l-76.3-76.3c-15.1-15.1-15.1-39.6,0-54.8c15.1-15.1,39.6-15.1,54.8,0l0,0l5,5l27,27 l33.8,33.8l10.5,10.5l-19,19L127.9,192.9z"/> <path fill="#e75c5b" d="M225.7,40.3c-27-27-70.8-27-97.8,0c0,0,0,0,0,0c-0.3,0.3-0.7,0.7-1,1c-0.1,0.1-0.3,0.3-0.4,0.4 c0,0-0.1,0.1-0.1,0.1c-0.3,0.3-0.6,0.6-0.9,0.9c-0.4,0.5-14.1,23.7-14.2,24l27,27c-0.1-0.8-0.2-1.5-0.2-2.3 c-0.2-3.5,1.3-12.5,1.3-12.7c0.1-0.5,6.1-13.3,9.9-17c15.2-15.1,39.7-15,54.8,0.2c15,15.1,15,39.5,0,54.6 c-7.3,7.3-31.2,11.2-32,11.1l10.5,10.5l-19,19c0.5,0.1,48.5-5.5,62-19l0,0C252.7,111.1,252.8,67.4,225.7,40.3 C225.7,40.3,225.7,40.3,225.7,40.3L225.7,40.3z"/> <path fill="#dd4846" d="M106.4,61.9l21.5-21.5l21.5,21.5l-21.5,21.5L106.4,61.9z M182.7,138.1l21.5-21.5l21.5,21.5l-21.5,21.5 L182.7,138.1z"/></g>
</svg>