<svg xmlns="http://www.w3.org/2000/svg" viewBox="-20 -20 108 103" x="0px" y="0px" data-icon="true" fill="#000000"><g fill="#000000" fill-rule="evenodd"><path d="M61.9952185,6.01116793 C55.2768462,-0.707204421 45.0596981,-1.79038984 37.212188,2.76027175 C35.7023608,3.63579948 34,5.08000183 34,5.08000183 C25.9637644,-1.98926714 13.6932229,-1.68083324 6.00478149,6.00760814 C-2.00315536,14.015545 -2.00046772,27.0086267 6.00608821,35.0151826 L32.5861579,61.5145714 C33.3666376,62.292682 34.6295082,62.2927667 35.4100923,61.5147608 L41.3935803,55.551036 C42.1759198,54.7712805 42.1780146,53.5049523 41.3982591,52.7226127 C40.6185036,51.9402732 39.3521754,51.9381784 38.5698359,52.7179339 L34.0033566,57.2791932 L8.83236401,32.1846075 C2.38979469,25.7420349 2.38763093,15.2816129 8.83320862,8.83603526 C15.2819534,2.38729044 25.7348375,2.3882506 32.1839289,8.83734198 L32.5875663,9.24097944 C33.3686149,10.022028 34.6349449,10.022028 35.4159935,9.24097944 L35.8160711,8.84090176 C42.2651625,2.39181039 52.7180466,2.39085023 59.1667914,8.83959505 C65.2548009,14.9276045 65.6255389,24.6700821 60.0875598,31.1902998 C59.3725024,32.0321827 59.4753148,33.2943321 60.3171977,34.0093895 C61.1590806,34.7244469 62.42123,34.6216345 63.1362873,33.7797516 C70.019939,25.6751872 69.5594983,13.5754477 61.9952185,6.01116793 Z"></path><path d="M55,31.9970301 C55,31.4463856 54.5469637,31 54.0029699,31 L47.9970301,31 C47.4463856,31 47,31.4530363 47,31.9970301 L47,39 L39.9970301,39 C39.4463856,39 39,39.4530363 39,39.9970301 L39,46.0029699 C39,46.5536144 39.4530363,47 39.9970301,47 L47,47 L47,54.0029699 C47,54.5536144 47.4530363,55 47.9970301,55 L54.0029699,55 C54.5536144,55 55,54.5469637 55,54.0029699 L55,47 L62.0029699,47 C62.5536144,47 63,46.5469637 63,46.0029699 L63,39.9970301 C63,39.4463856 62.5469637,39 62.0029699,39 L55,39 L55,31.9970301 Z"></path></g></svg>