<?xml version="1.0" encoding="utf-8"?>
<!-- Svg Vector Icons : http://www.onlinewebfonts.com/icon -->
<!DOCTYPE svg PUBLIC "-//W3C//DTD SVG 1.1//EN" "http://www.w3.org/Graphics/SVG/1.1/DTD/svg11.dtd">
<svg version="1.1" xmlns="http://www.w3.org/2000/svg" xmlns:xlink="http://www.w3.org/1999/xlink" x="0px" y="0px" viewBox="0 0 256 256" enable-background="new 0 0 256 256" xml:space="preserve">
<metadata> Svg Vector Icons : http://www.onlinewebfonts.com/icon </metadata>
<g><g><g><path fill="#000000" d="M125.4,16c-8.8,23.3-12.8,43.3-13.3,66.5c-0.5,21.4,1.8,39.2,7.6,59.2c1.2,4,2.2,7.6,2.3,8.1c0.1,0.5-1.2-1.8-3-5.1c-9.2-17.3-17.5-28.9-29.4-41.2c-10.7-11-20.8-19-33.5-26.7c-5.6-3.5-18-9.9-18.3-9.5c-0.1,0.1,1.2,2.4,3,5.2c3.7,5.7,4.7,7.6,7.7,14.7c3.6,8.6,8.8,16.5,21.2,32c3.5,4.4,8.2,9.8,10.4,11.9c7.3,7.1,18.3,15.9,28.7,22.9c2.9,2,5.3,3.7,5.5,3.8c0.1,0.1-1.7-0.7-4-1.9c-23.1-11.5-47.4-15.7-73.5-12.5c-8.5,1.1-8.6,1.2-4.5,2.8c4.5,1.8,8,3.5,11.9,6c6.1,4,12.9,6.6,28.2,11c10.3,3,15.9,3.8,28.3,4.2l9.2,0.3l-5.4,0.8c-18.1,2.7-34.4,10-50.4,22.5c-2.4,1.8-4.3,3.4-4.3,3.6c0,0.4,11.6-0.2,18-1.1c5.3-0.6,13.8-2.3,18.6-3.6c2.9-0.8,14.6-5.7,20.3-8.5l4.4-2.2l-5,5.1c-5.4,5.6-9.8,11.8-13.1,18.5c-2.7,5.4-4.5,9.9-4,9.9c1,0,13-8.5,17-12c6.6-5.8,15.3-17.4,17.6-23.5l1.2-3l0.3,7.2c0.9,20.7,7.2,46.8,14.2,58.6c1,1.7,2.1,3.3,2.3,3.4c0.3,0.1,0.5,0.8,0.5,1.4c0,1,0.2,1.1,2.1,1.1h2.2l-0.3-1.9c-0.2-1.1-1.2-3.2-2.4-5c-7.7-11.5-14.6-41.3-14.5-62.7v-6.2l0.9,1.2c0.5,0.6,1.7,2.9,2.5,5.1c3.9,9.2,12.5,19.8,22.4,27.8c2.4,1.9,11.9,8.2,12.5,8.2c0.5,0-1.5-4.8-4.2-10.1c-3.3-6.6-7.5-12.5-12.5-17.7l-4.5-4.7l4.4,2.2c6.4,3.1,17.3,7.6,20.7,8.4c5.3,1.4,11.8,2.6,17.2,3.2c5.9,0.7,18,1.5,18,1.1c0-0.5-6.8-5.7-12.3-9.5c-12.5-8.4-26.9-14.2-41.1-16.5c-2.4-0.4-4.4-0.8-4.5-0.9c-0.1-0.1,3.5-0.3,8-0.5c11.2-0.4,17.2-1.3,25.9-3.8c15.9-4.5,22.7-7.2,31-12.3c2.7-1.7,6.9-3.8,9.4-4.8c5.2-2.1,5.3-2-3.9-3.2c-7.1-1-23.9-1.1-30.7-0.2c-14.5,1.8-29.1,6.2-42,12.6c-2.5,1.3-4.5,2.2-4.4,2.1c0.1-0.1,2.6-1.8,5.5-3.8c10.4-7,21.3-15.7,28.7-22.9c6.5-6.4,21.7-26,26.9-34.7c1.4-2.3,3.6-6.7,4.9-9.8c2.7-6.5,4.7-10.1,8.1-15.3c1.4-2.1,2.5-3.9,2.4-4c-0.3-0.3-12.3,5.9-18.3,9.5c-25.9,15.7-46,36.9-60.7,63.8c-1.9,3.5-4.6,8.9-5.9,11.9c-1.3,3-2.5,5.3-2.5,5.3c0,0,0.3-1.4,0.8-3c4.3-13.6,8.1-33.7,9.9-51.4c0.8-7.9,0.6-14.8-1-33c-1.5-17.8-2.7-24-6.9-36.2c-2.8-8.2-5.3-19-5.3-22.9C128.5,8.7,127.7,10,125.4,16z M124.7,167.5c-0.7,0.1-1.8,0.1-2.5,0c-0.7-0.1-0.1-0.2,1.2-0.2C124.8,167.3,125.4,167.4,124.7,167.5z M133.3,167.5c-0.6,0.1-1.6,0.1-2.3,0c-0.7-0.1-0.2-0.2,1-0.2C133.3,167.3,133.8,167.4,133.3,167.5z M124.8,170.1c-0.6,0.5-6.4,3.9-6.4,3.7c0-0.3,5.6-3.9,6.1-3.9C124.8,169.9,124.9,170,124.8,170.1z"/></g></g></g>
</svg>