<?xml version="1.0" encoding="UTF-8"?>
<svg id="Ebene_1" data-name="Ebene 1" xmlns="http://www.w3.org/2000/svg" viewBox="0 0 384 384">
  <defs>
    <style>
      .cls-1 {
        fill: #fff;
      }
    </style>
  </defs>
  <path d="m384,135c-.636,2.9-1.229,5.809-1.915,8.697-3.057,12.866-9.598,23.741-19.231,33.173.79.439,1.35.819,1.961,1.081,9.602,4.128,15.35,13.102,14.527,22.71-.874,10.206-7.622,18.043-17.901,20.524-24.093,5.815-48.206,11.546-72.307,17.326-18.409,4.415-36.826,8.802-55.197,13.373-1.503.374-2.707,2.036-3.985,3.173-.342.304-.349.966-.669,1.319-4.654,5.121-2.735,10.034-.202,15.476,8.529,18.318,16.79,36.764,24.922,55.264,6.198,14.1-1.274,29.151-15.878,32.47-1.685.383-3.459.518-5.192.52-27.817.032-55.634.102-83.45-.012-12.616-.052-21.946-8.404-23.238-20.85-.336-3.242.201-6.792,1.226-9.906,1.513-4.599,3.545-9.091,5.93-13.303.919-1.624,3.338-3.129,5.198-3.294,2.199-.196,3.067-1.001,3.758-2.748.595-1.506,1.251-2.994,1.988-4.434.803-1.569,1.077-2.722-.6-4.159-2.32-1.989-1.881-4.65-.714-7.231,3.335-7.371,6.636-14.757,10.198-22.691-1.467.18-2.395.205-3.279.416-38.639,9.248-77.27,18.527-115.911,27.765-9.818,2.347-18.183-.264-24.219-8.402-5.736-7.733-6.08-16.22-1.391-24.655,3.271-5.884,8.504-9.298,15.022-10.83,8.483-1.994,16.951-4.047,26.156-6.249-3.722-1.545-6.857-2.73-9.896-4.127C12.336,232.811-2.934,204.064,1.575,173.677c4.267-28.758,28.011-51.965,57.277-55.799,14.108-1.848,27.589.43,40.182,7.161,2.186,1.168,3.433.906,5.075-.813,4.285-4.485,8.762-8.786,13.988-13.98-2.757,0-4.435.09-6.101-.016-5.999-.38-10.765-5.163-11.005-11.178-.149-3.743-.147-7.502,0-11.245.242-6.191,5.079-11.161,11.331-11.218,15.716-.142,31.436-.205,47.15.028,8.513.126,15.61,7.044,15.764,15.547.291,15.991.228,31.993.038,47.987-.074,6.244-5.008,10.75-11.458,11.113-2.985.168-5.986.073-8.979.039-8.04-.09-12.813-4.729-13.117-12.7-.041-1.088-.109-2.176-.14-2.795-4.951,4.93-10.022,9.98-15.253,15.188,14.74,29.836,10.721,57.616-12.845,83.193,9.624-2.307,18.573-4.804,27.668-6.524,7.713-1.459,12.919-4.381,17.437-11.843,12.516-20.67,40.484-24.492,59.422-9.322,1.845,1.478,3.347,1.907,5.671,1.341,22.144-5.396,44.322-10.65,66.488-15.956.917-.219,1.805-.558,2.925-.91-38.826-15.098-54.532-60.882-34.408-96.867-3.799-3.817-7.556-7.591-11.44-11.494-4.834,3.793-8.179,10.503-15.916,10.127-4.146-.201-7.156-2.49-9.915-5.385-4.104-4.305-9.123-7.967-8.179-15.093.866-6.532,6.81-9.251,10.165-14.059-3.904-4.952-10.353-8.257-9.623-16.051.627-6.7,6.057-9.763,9.941-13.972,3.582-3.881,8.434-5.055,12.983-2.772,4.003,2.01,7.266,5.501,11.075,8.511,5.027-3.822,8.468-11.118,16.902-9.984,6.39.859,9.47,6.126,13.521,10.02,3.875,3.726,5.131,8.673,2.522,13.359-2.254,4.049-5.821,7.365-8.648,10.811,3.628,3.622,7.397,7.383,11.409,11.387,11.199-6.377,23.718-9.651,37.124-8.706,4.694.331,9.376,1.249,13.982,2.265,4.033.89,5.659,3.774,4.784,7.504-.713,3.039-3.523,4.433-7.434,3.8-4.655-.754-9.306-1.88-13.987-2.044-11.116-.388-21.398,2.683-30.815,8.65-4.714,2.988-6.816,2.728-10.809-1.254-5.392-5.379-10.792-10.751-16.131-16.182-3.846-3.912-3.887-6.716.015-10.559,3.36-3.309,6.935-6.4,10.789-9.929-3.134-2.884-5.484-5.047-8.503-7.825-3.116,3.323-6.264,6.83-9.577,10.175-4,4.038-6.774,3.979-10.857-.019-2.943-2.882-5.855-5.796-8.791-8.685-.166-.163-.431-.225-1.428-1.103-2.278,2.35-4.557,4.701-7.33,7.562,3.001,2.811,5.409,4.96,7.697,7.231,7.458,7.403,7.48,8.408-.146,15.898-2.477,2.433-5.263,4.548-7.971,6.862,3.064,3.208,5.267,5.516,8.258,8.648,3.367-3.711,6.356-7.204,9.559-10.487,4.17-4.273,6.904-4.248,11.085-.103,5.143,5.098,10.242,10.241,15.352,15.373,4.847,4.869,4.984,6.258,1.268,12.325-16.552,27.018-6.906,62.783,20.988,77.824,33.391,18.005,75.027-2.251,80.997-39.754,3.217-20.213-3.205-37.415-18.45-51.182-.926-.836-1.951-1.563-2.858-2.417-2.792-2.628-3.217-5.547-1.203-7.913,2.418-2.841,5.565-3.272,8.6-.958,7.029,5.359,12.791,11.877,17.23,19.534,4.432,7.643,7.304,15.834,8.427,24.625.091.711.431,1.391.655,2.085v14.25ZM112.465,98.932c5.94,0,11.421.077,16.898-.029,3.204-.062,6.113.365,7.415,3.734,1.227,3.176-.52,5.425-2.682,7.57-8.598,8.53-17.123,17.134-25.685,25.701-4.398,4.4-5.723,4.53-11.01,1.259-12.428-7.689-25.847-10.173-40.178-7.466-30.675,5.795-50.495,35.825-43.869,66.374,6.701,30.896,37.098,50.085,67.488,42.603,37.021-9.114,54.209-51.24,34.189-83.797-3.333-5.421-3.176-6.83,1.333-11.351,8.376-8.399,16.767-16.784,25.139-25.187,2.248-2.256,4.445-4.582,8.089-2.982,3.582,1.573,3.535,4.756,3.52,7.946-.022,4.499-.112,9.004.084,13.495.046,1.053,1.029,2.866,1.742,2.949,2.896.339,5.854.141,9.089.141,0-1.711,0-2.821,0-3.93,0-13.498.012-26.997-.007-40.495-.008-5.894-1.693-7.585-7.533-7.591-13.472-.015-26.944-.005-40.416-.005-1.187,0-2.374,0-3.606,0v11.061Zm79.618,169.493c16.422.142,30.09-13.39,30.14-29.84.05-16.289-13.335-29.854-29.606-30.004-16.277-.15-29.888,13.167-30.12,29.469-.234,16.48,13.162,30.233,29.586,30.375Z"/>
  <path d="m316.964,82.846c25.106.036,44.881,20.016,44.84,45.307-.04,24.836-20.082,44.661-45.12,44.631-24.734-.03-45.064-20.481-44.826-45.093.241-24.932,20.306-44.881,45.106-44.846Zm-33.362,44.818c-.063,18.467,14.723,33.491,33.062,33.596,18.519.106,33.655-14.943,33.645-33.452-.01-18.386-14.941-33.342-33.315-33.372-18.448-.03-33.329,14.778-33.392,33.228Z"/>
  <path d="m112.451,184.275c.058,24.714-19.873,44.863-44.533,45.018-24.486.155-44.773-20.098-44.822-44.744-.049-24.683,19.989-44.932,44.55-45.021,24.551-.089,44.747,20.081,44.805,44.746Zm-45.14,33.542c17.98.373,33.346-14.227,33.776-32.093.46-19.111-14.197-34.561-33.022-34.809-17.873-.235-33.226,14.541-33.628,32.364-.427,18.934,14.054,34.147,32.874,34.537Z"/>
  <path d="m192.525,257.23c-10.202.082-18.694-8.188-18.856-18.365-.165-10.396,8.18-19.004,18.51-19.091,10.334-.087,18.881,8.401,18.873,18.743-.008,10.194-8.361,18.631-18.526,18.713Z"/>
  <path class="cls-1" d="m67.311,217.817c-18.82-.39-33.3-15.603-32.874-34.537.402-17.823,15.755-32.599,33.628-32.364,18.825.248,33.482,15.698,33.022,34.809-.43,17.865-15.796,32.465-33.776,32.093Z"/>
</svg>