<?xml version="1.0" encoding="UTF-8" standalone="no"?><!-- Generator: Gravit.io --><svg xmlns="http://www.w3.org/2000/svg" xmlns:xlink="http://www.w3.org/1999/xlink" style="isolation:isolate" viewBox="532 279.627 147.894 131.475" width="147.894pt" height="131.475pt"><g><path d=" M 674.699 338.952 C 678.968 340.787 680.199 344.776 679.833 349.047 C 679.885 354.264 671.164 358.212 660 360.091 C 651.817 362.053 656.798 360.943 648.632 362.974 C 647.964 363.141 647.429 363.879 646.861 364.385 C 646.709 364.52 646.706 364.814 646.563 364.971 C 644.495 367.247 645.348 369.431 646.474 371.85 C 650.265 379.992 653.937 388.192 657.551 396.415 C 660.306 402.682 656.985 409.372 650.494 410.848 C 649.745 411.018 648.956 411.078 648.186 411.079 C 635.821 411.093 623.457 411.124 611.093 411.073 C 605.485 411.05 601.338 407.338 600.763 401.806 C 600.614 400.365 600.853 398.787 601.308 397.402 C 601.981 395.358 602.884 393.362 603.944 391.489 C 604.353 390.767 607.706 382.917 608.225 381.77 C 609.707 378.494 611.174 375.211 612.758 371.684 C 612.106 371.764 611.693 371.775 611.3 371.869 C 594.125 375.98 576.954 380.104 559.778 384.21 C 555.414 385.254 551.696 384.093 549.013 380.476 C 546.463 377.038 546.31 373.266 548.394 369.517 C 549.848 366.901 552.174 365.384 555.072 364.703 C 558.842 363.816 603.346 352.974 607.389 352.209 C 610.817 351.561 613.131 350.262 615.139 346.945 C 620.703 337.757 633.134 336.058 641.552 342.801 C 642.372 343.458 643.04 343.649 644.073 343.397 C 653.916 340.999 650.607 341.724 660.46 339.365 C 660.867 339.268 671.134 336.618 674.699 338.952 Z " fill="rgb(0,0,0)"/><path d=" M 624.267 368.621 L 635.353 368.621 C 638.427 368.621 641.805 370.955 642.892 373.83 L 652.732 399.86 C 653.819 402.735 652.206 405.07 649.132 405.07 L 610.043 405.07 C 606.969 405.07 605.381 402.745 606.498 399.881 L 616.673 373.809 C 617.79 370.946 621.193 368.621 624.267 368.621 Z " fill="rgb(204,204,204)"/><path d=" M 556.728 369.55 L 665.911 343.022 C 669.319 342.194 672.533 343.771 673.085 346.542 L 673.085 346.542 C 673.638 349.313 671.32 352.235 667.913 353.063 L 558.729 379.591 C 555.322 380.419 552.108 378.842 551.555 376.071 L 551.555 376.071 C 551.003 373.3 553.321 370.378 556.728 369.55 Z " fill="rgb(172,172,172)"/><path d=" M 630.151 376.323 C 640.741 376.414 649.556 367.688 649.588 357.079 C 649.62 346.575 640.988 337.827 630.495 337.73 C 619.998 337.633 611.221 346.221 611.071 356.734 C 610.92 367.362 619.559 376.231 630.151 376.323 L 630.151 376.323 Z " fill="rgb(0,0,0)"/><path d=" M 630.028 370.327 C 637.328 370.39 643.403 364.375 643.425 357.063 C 643.447 349.823 637.498 343.793 630.265 343.726 C 623.03 343.66 616.98 349.579 616.877 356.825 C 616.773 364.151 622.728 370.264 630.028 370.327 L 630.028 370.327 Z " fill="rgb(255,255,255)"/><path d=" M 594.632 332.922 C 594.658 343.908 585.798 352.864 574.837 352.933 C 563.953 353.002 554.936 343.999 554.914 333.044 C 554.892 322.073 563.799 313.072 574.716 313.033 C 585.629 312.993 594.606 321.959 594.632 332.922 L 594.632 332.922 Z  M 574.567 347.832 C 582.559 347.998 589.39 341.508 589.581 333.567 C 589.785 325.072 583.27 318.204 574.902 318.094 C 566.958 317.99 560.134 324.557 559.955 332.48 C 559.765 340.896 566.202 347.658 574.567 347.831 L 574.567 347.832 Z " fill="rgb(0,0,0)"/><path d=" M 630.225 365.351 C 625.69 365.387 621.915 361.711 621.843 357.188 C 621.77 352.567 625.479 348.74 630.071 348.702 C 634.664 348.663 638.463 352.436 638.46 357.033 C 638.456 361.564 634.743 365.314 630.225 365.351 L 630.225 365.351 Z " fill="rgb(0,0,0)"/><path d=" M 574.567 347.832 C 566.202 347.658 559.766 340.896 559.955 332.48 C 560.134 324.558 566.958 317.99 574.902 318.095 C 583.27 318.205 589.785 325.072 589.581 333.567 C 589.39 341.508 582.559 347.998 574.567 347.832 L 574.567 347.832 Z " fill="rgb(255,255,255)"/><g><path d=" M 534.914 289.278 L 540.398 295.545 L 534.131 303.066 L 540.711 310.116 L 547.511 304.068 L 555.972 312.059 L 552.211 326.63 L 555.972 344.491 L 568.6 355.552 L 586.148 356.806 L 600.625 349.661 L 608.553 337.221 L 609.179 320.927 L 602.505 309.239 L 598.995 305.259 L 587.401 300.716 L 575.807 300.089 L 564.526 304.476 L 555.752 295.858 L 562.176 288.338 L 555.125 282.384 L 547.511 288.087 L 541.401 281.977 L 534.914 289.278 Z " fill="rgb(255,0,255)"/><path d=" M 580.45 344.14 C 571.604 343.957 564.798 336.806 564.998 327.906 C 565.187 319.529 572.404 312.584 580.805 312.694 C 589.653 312.811 596.542 320.073 596.326 329.056 C 596.124 337.453 588.901 344.315 580.45 344.14 L 580.45 344.14 Z " fill="rgb(255,255,255)"/><g><path d=" M 602.38 351.566 C 606.908 347.133 609.982 342.021 611.419 335.974 C 611.742 334.616 612.02 333.249 612.319 331.886 L 612.32 331.888 L 612.32 325.19 C 612.215 324.863 612.055 324.544 612.012 324.21 C 611.485 320.078 610.135 316.228 608.051 312.635 C 605.965 309.036 603.257 305.972 599.953 303.454 C 598.526 302.366 597.047 302.568 595.911 303.904 C 594.964 305.016 595.164 306.388 596.476 307.623 C 596.902 308.025 597.384 308.366 597.819 308.759 C 604.985 315.23 608.004 323.316 606.491 332.816 C 603.685 350.444 584.115 359.965 568.42 351.502 C 555.309 344.432 550.775 327.622 558.555 314.922 C 560.302 312.071 560.238 311.418 557.959 309.129 C 555.557 306.717 553.161 304.3 550.743 301.903 C 548.778 299.955 547.493 299.943 545.533 301.952 C 544.028 303.495 542.623 305.137 541.04 306.881 C 539.634 305.409 538.599 304.324 537.158 302.816 C 538.431 301.729 539.741 300.734 540.905 299.591 C 544.49 296.07 544.479 295.598 540.974 292.118 C 539.898 291.051 538.766 290.041 537.356 288.719 C 538.659 287.375 539.73 286.27 540.801 285.165 C 541.27 285.578 541.394 285.607 541.472 285.684 C 542.852 287.041 544.221 288.411 545.604 289.766 C 547.524 291.645 548.827 291.673 550.708 289.775 C 552.265 288.202 553.744 286.554 555.209 284.992 C 556.628 286.298 557.733 287.315 559.206 288.67 C 557.394 290.329 555.714 291.782 554.135 293.337 C 552.301 295.143 552.32 296.461 554.128 298.3 C 556.637 300.853 559.175 303.378 561.71 305.906 C 563.586 307.778 564.574 307.9 566.79 306.496 C 571.217 303.691 576.049 302.247 581.274 302.43 C 583.474 302.507 585.661 303.036 587.849 303.391 C 589.687 303.688 591.008 303.033 591.343 301.604 C 591.754 299.851 590.99 298.496 589.094 298.077 C 586.929 297.6 584.729 297.168 582.522 297.013 C 576.221 296.569 570.337 298.107 565.073 301.105 C 563.187 299.223 561.415 297.455 559.71 295.753 C 561.039 294.133 562.716 292.574 563.775 290.671 C 565.001 288.468 564.411 286.143 562.59 284.392 C 560.685 282.562 559.238 280.086 556.234 279.682 C 552.27 279.149 550.653 282.578 548.29 284.375 C 546.499 282.96 544.966 281.319 543.084 280.375 C 540.946 279.301 538.665 279.853 536.982 281.677 C 535.156 283.656 532.604 285.096 532.309 288.245 C 531.966 291.908 534.997 293.462 536.832 295.789 C 535.255 298.049 532.461 299.327 532.054 302.397 C 531.611 305.747 533.97 307.468 535.899 309.492 C 537.196 310.852 538.61 311.928 540.559 312.023 C 544.196 312.199 545.768 309.046 548.04 307.263 C 549.866 309.097 551.632 310.871 553.417 312.665 C 543.958 329.579 551.341 351.099 569.59 358.196 C 574.957 362.475 596.685 359.183 602.38 351.566 Z " fill="rgb(0,0,0)"/><path d=" M 580.81 307.372 C 592.611 307.389 601.906 316.78 601.887 328.667 C 601.868 340.341 592.447 349.66 580.679 349.645 C 569.053 349.631 559.497 340.019 559.609 328.45 C 559.722 316.731 569.154 307.355 580.81 307.371 L 580.81 307.372 Z  M 565.129 328.438 C 565.1 337.118 572.049 344.179 580.669 344.229 C 589.374 344.279 596.488 337.205 596.484 328.505 C 596.479 319.863 589.461 312.833 580.824 312.819 C 572.153 312.805 565.159 319.766 565.129 328.438 L 565.129 328.438 Z " fill="rgb(0,0,0)"/></g></g></g></svg>