<?xml version="1.0" encoding="UTF-8" standalone="no"?><!-- Generator: Gravit.io --><svg xmlns="http://www.w3.org/2000/svg" xmlns:xlink="http://www.w3.org/1999/xlink" style="isolation:isolate" viewBox="545 285 134.894 126.101" width="134.894pt" height="126.101pt"><g><path d=" M 674.699 338.952 C 678.968 340.787 680.199 344.776 679.833 349.047 C 679.885 354.264 671.164 358.212 660 360.091 C 651.817 362.053 656.798 360.943 648.632 362.974 C 647.964 363.141 647.429 363.879 646.861 364.385 C 646.709 364.52 646.706 364.814 646.563 364.971 C 644.495 367.247 645.348 369.431 646.474 371.85 C 650.265 379.992 653.937 388.192 657.551 396.415 C 660.306 402.682 656.985 409.372 650.494 410.848 C 649.745 411.018 648.956 411.078 648.186 411.079 C 635.821 411.093 623.457 411.124 611.093 411.073 C 605.485 411.05 601.338 407.338 600.763 401.806 C 600.614 400.365 600.853 398.787 601.308 397.402 C 601.981 395.358 602.884 393.362 603.944 391.489 C 604.353 390.767 607.706 382.917 608.225 381.77 C 609.707 378.494 611.174 375.211 612.758 371.684 C 612.106 371.764 611.693 371.775 611.3 371.869 C 594.125 375.98 576.954 380.104 559.778 384.21 C 555.414 385.254 551.696 384.093 549.013 380.476 C 546.463 377.038 546.31 373.266 548.394 369.517 C 549.848 366.901 552.174 365.384 555.072 364.703 C 558.842 363.816 562.606 362.904 566.698 361.925 C 565.044 361.238 563.65 360.712 562.299 360.091 C 550.131 354.497 543.344 341.719 545.348 328.212 C 547.245 315.429 557.799 305.113 570.807 303.409 C 577.078 302.588 583.071 303.6 588.668 306.592 C 589.64 307.111 590.194 306.995 590.924 306.231 C 592.829 304.237 594.819 302.326 597.142 300.017 C 595.916 300.017 595.17 300.057 594.43 300.01 C 591.763 299.841 589.645 297.715 589.538 295.041 C 589.472 293.377 589.473 291.707 589.538 290.043 C 589.646 287.291 591.796 285.082 594.575 285.056 C 601.56 284.993 608.548 284.965 615.533 285.069 C 619.317 285.125 622.471 288.2 622.54 291.979 C 622.669 299.087 622.641 306.2 622.557 313.31 C 622.524 316.085 620.33 318.088 617.463 318.249 C 616.137 318.324 614.803 318.282 613.472 318.267 C 609.899 318.227 607.777 316.165 607.642 312.621 C 607.624 312.138 607.593 311.654 607.58 311.379 C 605.379 313.57 603.125 315.815 600.8 318.13 C 607.352 331.392 605.565 343.74 595.09 355.109 C 599.368 354.084 603.346 352.974 607.389 352.209 C 610.817 351.561 613.131 350.262 615.139 346.945 C 620.703 337.757 633.134 336.058 641.552 342.801 C 642.372 343.458 643.04 343.649 644.073 343.397 C 653.916 340.999 650.607 341.724 660.46 339.365 C 660.867 339.268 671.134 336.618 674.699 338.952 Z " fill="rgb(0,0,0)"/><path d=" M 624.267 368.621 L 635.353 368.621 C 638.427 368.621 641.805 370.955 642.892 373.83 L 652.732 399.86 C 653.819 402.735 652.206 405.07 649.132 405.07 L 610.043 405.07 C 606.969 405.07 605.381 402.745 606.498 399.881 L 616.673 373.809 C 617.79 370.946 621.193 368.621 624.267 368.621 Z " fill="rgb(204,204,204)"/><path d=" M 556.728 369.55 L 665.911 343.022 C 669.319 342.194 672.533 343.771 673.085 346.542 L 673.085 346.542 C 673.638 349.313 671.32 352.235 667.913 353.063 L 558.729 379.591 C 555.322 380.419 552.108 378.842 551.555 376.071 L 551.555 376.071 C 551.003 373.3 553.321 370.378 556.728 369.55 Z " fill="rgb(172,172,172)"/><path d=" M 630.151 376.323 C 640.741 376.414 649.556 367.688 649.588 357.079 C 649.62 346.575 640.988 337.827 630.495 337.73 C 619.998 337.633 611.221 346.221 611.071 356.734 C 610.92 367.362 619.559 376.231 630.151 376.323 L 630.151 376.323 Z " fill="rgb(0,0,0)"/><path d=" M 594.638 294.988 C 597.278 294.988 599.715 295.022 602.149 294.975 C 603.573 294.947 604.866 295.137 605.445 296.635 C 605.991 298.046 605.214 299.046 604.253 300 C 600.431 303.791 596.642 307.616 592.836 311.424 C 590.881 313.379 590.292 313.437 587.942 311.983 C 582.418 308.565 576.453 307.461 570.083 308.665 C 556.448 311.24 547.638 324.589 550.584 338.168 C 553.562 351.901 567.074 360.43 580.582 357.104 C 597.038 353.053 604.678 334.328 595.779 319.857 C 594.297 317.447 594.367 316.821 596.371 314.811 C 600.094 311.078 603.824 307.351 607.545 303.616 C 608.545 302.613 609.521 301.579 611.141 302.29 C 612.733 302.99 612.712 304.404 612.706 305.822 C 612.696 307.822 612.656 309.825 612.743 311.821 C 612.763 312.289 613.2 313.095 613.517 313.132 C 614.804 313.282 616.119 313.194 617.557 313.194 C 617.557 312.434 617.557 311.94 617.557 311.448 C 617.557 305.448 617.563 299.447 617.554 293.448 C 617.551 290.828 616.802 290.076 614.206 290.073 C 608.218 290.067 595.186 290.071 594.638 290.071 L 594.638 294.988 L 594.638 294.988 Z " fill="rgb(74,134,232)"/><path d=" M 630.028 370.327 C 637.328 370.39 643.403 364.375 643.425 357.063 C 643.447 349.823 637.498 343.793 630.265 343.726 C 623.03 343.66 616.98 349.579 616.877 356.825 C 616.773 364.151 622.728 370.264 630.028 370.327 L 630.028 370.327 Z " fill="rgb(255,255,255)"/><path d=" M 594.632 332.922 C 594.658 343.908 585.798 352.864 574.837 352.933 C 563.953 353.002 554.936 343.999 554.914 333.044 C 554.892 322.073 563.799 313.072 574.716 313.033 C 585.629 312.993 594.606 321.959 594.632 332.922 L 594.632 332.922 Z  M 574.567 347.832 C 582.559 347.998 589.39 341.508 589.581 333.567 C 589.785 325.072 583.27 318.204 574.902 318.094 C 566.958 317.99 560.134 324.557 559.955 332.48 C 559.765 340.896 566.202 347.658 574.567 347.831 L 574.567 347.832 Z " fill="rgb(0,0,0)"/><path d=" M 630.225 365.351 C 625.69 365.387 621.915 361.711 621.843 357.188 C 621.77 352.567 625.479 348.74 630.071 348.702 C 634.664 348.663 638.463 352.436 638.46 357.033 C 638.456 361.564 634.743 365.314 630.225 365.351 L 630.225 365.351 Z " fill="rgb(0,0,0)"/><path d=" M 574.567 347.832 C 566.202 347.658 559.766 340.896 559.955 332.48 C 560.134 324.558 566.958 317.99 574.902 318.095 C 583.27 318.205 589.785 325.072 589.581 333.567 C 589.39 341.508 582.559 347.998 574.567 347.832 L 574.567 347.832 Z " fill="rgb(255,255,255)"/></g></svg>