<svg xmlns="http://www.w3.org/2000/svg" xmlns:xlink="http://www.w3.org/1999/xlink" version="1.1" x="0px" y="0px" viewBox="-20 -20 140 140" xml:space="preserve" data-icon="true" fill="#000000"><path fill="#000000" d="M83.574,34.409c0-17.975-14.717-32.598-32.69-32.598s-32.62,14.623-32.62,32.598  C18.264,51.429,31,65.436,48,66.878V81H37v6h11v11h6V87h11v-6H54V66.878C70,65.436,83.574,51.429,83.574,34.409z M23.863,34.409  c0-14.849,12.079-26.929,26.926-26.929c14.848,0,26.928,12.08,26.928,26.929c0,14.85-12.08,26.93-26.928,26.93  C35.942,61.339,23.863,49.259,23.863,34.409z"></path></svg>