<?xml version="1.0" encoding="utf-8"?>
<!-- Svg Vector Icons : http://www.onlinewebfonts.com/icon -->
<!DOCTYPE svg PUBLIC "-//W3C//DTD SVG 1.1//EN" "http://www.w3.org/Graphics/SVG/1.1/DTD/svg11.dtd">
<svg version="1.1" xmlns="http://www.w3.org/2000/svg" xmlns:xlink="http://www.w3.org/1999/xlink" x="0px" y="0px" viewBox="0 0 256 256" enable-background="new 0 0 256 256" xml:space="preserve">
<metadata> Svg Vector Icons : http://www.onlinewebfonts.com/icon </metadata>
<g> <path fill="#7ca42e" d="M200.5,153.8h19.7v-22.1c4.1-5.4,7.8-10.9,11.1-16.4v49.6h-44.7C191.5,161.6,196.1,158,200.5,153.8 L200.5,153.8z M96.2,227.6h50.2v-44.5l0.1,0c3.7-1.2,7.4-2.5,11-3.8v59.4H95.8C95.9,235,96,231.3,96.2,227.6L96.2,227.6L96.2,227.6 L96.2,227.6z M94.8,28.4v73.8H21.1v51.6h58.5c-0.1,3.7,0,7.4,0.3,11.1H10V91.1h73.8V17.4h73.8v48.2c-3.7,1.2-7.4,2.5-11.1,3.9 l0-41.1H94.8z"/> <path fill="#7ca42e" d="M78.8,238.6c1.3-22.5,4.3-33.5,11.1-54C66.4,63,186.6,79.5,246,40.5c-4.7,46.8-19.2,76.9-49.7,107.1 c-29.6,29.3-76.8,31.5-97.3,45.1c9.7-27.1,41.2-58.9,76.4-82.7c0.6-0.7,0.7-1.6,0.7-2.3c-29.9,18.4-53.8,32.1-68,53.6 c-12.9,19.5-19.1,45.6-19.6,77.3H78.8L78.8,238.6L78.8,238.6z"/></g>
</svg>