<svg xmlns="http://www.w3.org/2000/svg" xmlns:xlink="http://www.w3.org/1999/xlink" version="1.0" x="0px" y="0px" viewBox="-20 -20 140 140" xml:space="preserve" data-icon="true" fill="#000000"><path d="M82.935051,47.8560905c-0.6443863-1.0619202-1.5717316-2.0050812-2.353363-2.6956902  c-0.5010376-0.9663506-1.211853-2.0257645-2.1145935-3.1591263c-1.1035995-1.389679-3.7573013-5.5981903-5.168602-7.9241371  l-0.1630936-0.26791l-0.1618423-0.269474l-0.2254486-0.2215347l-0.2223206-0.2230988  c-1.389679-1.379652-2.2389908-2.9332085-2.5482635-3.5520611c-1.1469879-4.7101746-3.3975754-7.4964237-6.8758469-8.5119686  c-0.268692-0.1024628-0.6515961-0.2500477-0.9968987-0.3822784c-0.5502319-0.4252071-1.1642303-0.8209591-1.8374481-1.1850643  c0.4667244-1.1390038,0.7802277-2.5913486,0.7802277-4.4945965c0-5.6965799-4.9807472-8.9302826-9.9152794-9.6083565  L50.9574356,5.180397L50.782589,5h-0.1760979H50.430233h-0.3756981H49.878437H49.702179l-0.1748428,0.180397l-0.1748466,0.1021051  c-4.9359398,0.6780748-9.9151192,3.950923-9.9151192,9.6475029c0,1.9032469,0.3119316,3.375165,0.7800674,4.5141687  c-0.6730614,0.3647308-1.2884674,0.7696438-1.8374443,1.1948509c-0.3496933,0.1344242-0.7394905,0.2887821-1.0083389,0.3906174  c-3.4784241,1.0437469-5.7261925,3.832756-6.8658218,8.5115967c-0.307703,0.6188526-1.1601524,2.1751995-2.5452862,3.5526562  l-0.2267036,0.226532l-0.2196541,0.2205849l-0.1632519,0.2668076l-0.1632519,0.2679863  c-1.4098873,2.3250084-4.0618687,6.5323067-5.1742363,7.9266815c-0.8999233,1.1333618-1.6077652,2.1915436-2.1091137,3.1572647  c-0.7828884,0.6896706-1.710228,1.632843-2.3530521,2.6910019c-1.1918011,1.969677-1.3014698,4.5713692-0.2946987,6.9668808  c0.8855076,2.1056671,2.4282532,3.5132065,4.3437214,3.9631653c0.421917,0.0983925,0.855114,0.147274,1.292696,0.147274  c2.1033173,0,4.5171566-1.3533287,6.1725502-2.488884c2.0166759-1.3865433,2.4686737-3.4646378,2.6695271-4.583271  c1.1498127-0.8544884,2.8415546-2.4528503,4.2772923-3.9243126c-0.6804237,7.2451248-0.3857269,11.2493362-0.2757416,12.3341293  c0.1008949,1.0089684,0.3667679,2.2181587,0.674469,3.6200562c0.180645,0.8247185,0.6600609,3.0084114,0.6672668,3.5758705  c-0.0216217,0.4176865-0.1486816,1.2142105-0.2729225,1.9840927c-0.2628937,1.6387863-0.5317421,3.3145447-0.4535637,4.9871674  c0.0938454,2.0129166,0.9691696,4.0715866,1.8950996,6.2511978c0.3062935,0.7222595,0.7960472,1.8728561,0.9737129,2.455986  c-3.102726,2.6145401-3.0234489,5.3083496-2.6637306,6.7487869c0.615406,2.4788589,2.7359581,4.1803131,5.6683807,4.5528793  c0.5026016,0.0645447,1.0053596,0.0968246,1.4907303,0.0968246c3.380188,0,5.4863243-1.5679703,6.5278778-2.5365143  c1.3042908,1.2070007,3.3209686,2.5365143,6.5249062,2.5365143c0.4852104,0,0.9895363-0.03228,1.4963684-0.0974503  c2.9266281-0.3719406,5.0443573-2.073082,5.6639938-4.5510025c0.3598747-1.4407501,0.4407158-4.1398849-2.6649857-6.7516022  c0.1790771-0.5828171,0.664444-1.7290268,0.9705811-2.4478378c0.9303169-2.1861954,1.8042336-4.2432938,1.8982353-6.252449  c0.079277-1.6779556-0.1908264-3.3549652-0.4507446-4.9780884c-0.1256523-0.7799072-0.2542801-1.5786209-0.2774658-2.0395508  c0.0087738-0.5235977,0.4855232-2.7007065,0.666008-3.5204086c0.3120956-1.426342,0.5764008-2.6320839,0.6774521-3.64011  c0.1098251-1.0847931,0.4045258-5.0921402-0.2743301-12.3262978c1.4431,1.4808617,3.1431427,3.087059,4.2787018,3.9277573  c0.1992798,1.1211433,0.6528473,3.2011147,2.6721878,4.5826454c1.6453629,1.1311684,4.0548172,2.4838715,6.1653442,2.4838715  c0.4393082,0,0.8725052-0.0488815,1.2912827-0.1472702c1.9184494-0.4505882,3.4611893-1.8606339,4.3482666-3.9694328  C84.2351151,52.4161758,84.1251297,49.8154259,82.935051,47.8560905z M80.8489685,53.8118057  c-0.5574341,1.3266945-1.4661331,2.1990433-2.5539017,2.4556732c-0.2267075,0.052639-0.4635925,0.0802155-0.7048645,0.0802155  c-1.5817566,0-3.8237305-1.426651-4.7064209-2.0348511c-1.2290878-0.8400726-1.4645615-2.1802444-1.6192017-3.067318  c-0.0375977-0.2118187-0.0938416-0.5308037-0.1358337-0.6414146c-0.156044-0.3841591-0.2238846-0.4327278-0.4852066-0.5762367  c-1.0993652-0.6025581-5.2336197-4.6594162-6.526474-6.3320389c-0.304882-0.3252525-1.3708763-1.4620628-2.5769348-2.8959198  c-0.0419884,1.7155533,0.0100288,3.8541222,0.2757416,6.4789963c0.7684746,7.5722542,0.4709549,11.655117,0.3641052,12.7233047  c-0.0866394,0.8660812-0.3395042,2.012291-0.629818,3.3389854c-0.303318,1.3840332-0.7612686,3.4749756-0.7250786,4.2094498  c0.0318069,0.5994263,0.1645088,1.4307251,0.3061371,2.3112259c0.2397079,1.4952698,0.4897575,3.042244,0.4233284,4.4547958  c-0.0723839,1.5450974-0.8595009,3.396019-1.6915855,5.3556671c-0.4825478,1.1352386-1.0299568,2.4224548-1.1800499,3.1396942  c-0.2934456,1.4034653,0.0128479,1.6193619,0.2382965,1.7782288c2.5769348,1.822403,2.7834282,3.5476685,2.5018921,4.6744537  c-0.2080612,0.8378754-0.9389343,2.293045-3.4870415,2.6154709c-0.3973198,0.0510788-0.7916603,0.0770874-1.167202,0.0770874  c-2.655117,0-4.1702881-1.2091904-5.1930389-2.2620239l-0.1372452-0.1416321  c-0.3395081-0.3465576-0.8032532-0.8197098-1.1961861-1.4219513c-0.3943443,0.6028671-0.8580933,1.0766449-1.1988525,1.4241409  l-0.1358337,0.1400681c-0.6009941,0.6175995-2.1971626,2.2613983-5.1916275,2.2613983  c-0.3755417,0-0.7684746-0.0260086-1.1672058-0.0770874c-2.5466957-0.3224258-3.2791367-1.7775955-3.4870377-2.6160965  c-0.2816963-1.1274109-0.0752029-2.8539352,2.5048637-4.6738281c0.2224731-0.1576157,0.5286102-0.3741379,0.235321-1.7797928  c-0.1500893-0.7150497-0.6962471-2.0019531-1.1786385-3.1365662c-0.8334961-1.9602737-1.6195145-3.8127594-1.6931534-5.3600464  c-0.0648613-1.4097366,0.1836205-2.9554596,0.4233284-4.449791c0.1416321-0.8804932,0.2744904-1.7124176,0.3062935-2.3134155  c0.0360336-0.7354126-0.421917-2.8291702-0.7266426-4.2138367c-0.2903137-1.3251305-0.5416145-2.4685173-0.6284103-3.3324051  c-0.1084175-1.0666199-0.4045258-5.1410217,0.3641052-12.7254982c0.2657127-2.6248741,0.3177299-4.763443,0.275898-6.4789963  c-1.2062149,1.433857-2.2693901,2.5706673-2.5755234,2.894352c-1.2916031,1.6698036-5.4286728,5.7294807-6.5264721,6.3326645  c-0.2630501,0.1438255-0.3294792,0.1930199-0.4853687,0.5743599c-0.0419865,0.1074753-0.0982323,0.43116-0.1372433,0.6436081  c-0.1546345,0.8855057-0.3915234,2.2237968-1.6149712,3.0657501c-0.8927155,0.612587-3.1404819,2.0370445-4.7122135,2.0370445  c-0.239706,0-0.4750271-0.026947-0.7032986-0.0802155c-1.0893364-0.2556877-1.9964657-1.1261559-2.552494-2.4512863  c-0.6891975-1.6353378-0.6443901-3.3621712,0.119854-4.6233788c0.5908089-0.9723053,1.5673428-1.8716011,2.2289677-2.4168167  c0.3365307-0.7423096,0.9475498-1.7816696,2.0467587-3.1647682c1.3348408-1.6751328,4.3220997-6.4824448,5.3608322-8.1942368  l0.1630955-0.2685356l0.2238827-0.2218475c1.8706608-1.8612595,2.9035969-3.9340248,3.1736965-4.5177822  c1.191803-5.1814442,3.5146141-6.4285507,5.2378464-6.9248867c0.3639488-0.1372433,1.0415535-0.3973198,1.4907303-0.5699711  c1.3246613-1.1129951,3.050869-1.8512325,4.4231529-2.3090267c-1.0486031-0.9939251-2.0887451-2.4014626-2.0887451-5.6357918  c0-4.7330494,4.8320656-7.1057873,7.6877213-7.4974661L49.878437,7h0.1760979h0.3756981h0.1762581l0.1732788,0.4716845  c2.8558083,0.3916788,7.6848984,2.5407953,7.6848984,7.2738447c0,3.2349548-1.0387344,4.7543049-2.0873375,5.7476025  c1.3738556,0.4577942,3.1000633,1.251936,4.4245644,2.3649311c0.4695435,0.1804867,1.1916428,0.4866886,1.5399246,0.617979  l-0.0145683,0.0045757c1.6655731,0.4725227,4.0043678,1.7137699,5.2032204,6.9212208  c0.2744904,0.5937843,1.3058548,2.6628361,3.1751099,4.5200214l0.2224731,0.2248497l0.1646576,0.2694092  c1.0385742,1.711792,4.0259933,6.5204811,5.3562927,8.1931076c1.1021805,1.384037,1.7132034,2.4242439,2.049736,3.1665535  c0.6616211,0.5461578,1.6383133,1.4455605,2.2289658,2.419117C81.4903793,50.4501495,81.5351944,52.1764679,80.8489685,53.8118057z"></path><path d="M76.3393326,48.3643341c0,0-0.1792297-0.9751244-1.909668-3.1456528  c-1.7249527-2.1714668-5.5441437-8.4612083-5.5441437-8.4612083c-2.6377182-2.6208038-3.8193359-5.5402222-3.8193359-5.5402222  c-1.0920029-5.0169373-3.0884705-5.0921402-3.6358795-5.2986336c-0.54459-0.2058659-2.0006981-0.7670631-2.0006981-0.7670631  c-1.909668-1.8712864-5.8186264-2.6201763-5.8186264-2.6201763c0-0.3744469-0.4535637-1.5717297,0.0896149-2.7699547  c0.5489769-1.1988525,2.1841621-1.2869778,2.1841621-5.0304899S50.430233,10,50.430233,10h-0.3741302  c0,0-5.456089,0.987421-5.456089,4.7309332s1.6383133,3.7125292,2.1841583,4.9113798  c0.5431786,1.198225,0.0896149,2.4550648,0.0896149,2.8295097c0,0-3.9089546,0.7786674-5.81847,2.6499538  c0,0-1.4532852,0.576086-2.0008545,0.7819519c-0.5444336,0.2064934-2.5437202,0.2891407-3.6358757,5.3060799  c0,0-1.1814613,2.9231415-3.8165226,5.5439415c0,0-3.8191833,6.2916031-5.5469589,8.4630699  c-1.7274609,2.1705284-1.9096699,3.1465836-1.9096699,3.1465836s-1.5455647,1.12286-2.1825924,2.1700554  c-0.6356163,1.0496979,0.1820526,3.0706825,0.818922,3.2201462c0.6371841,0.1494637,2.8169556-1.1971664,3.3659344-1.5722389  c0.5430241-0.3738174,0.4535637-1.6475029,0.8161011-2.5442886c0.3641052-0.8986702,0.8190804-1.4234886,1.6365929-1.8721962  c0.8176689-0.4499626,5.4545231-5.0918159,5.8186283-5.7658157c0,0,3.3643646-3.5194664,5.272625-6.4388847  c0,0,1.2740555-1.3486252,1.4545403,0.2983093c0.1806412,1.6481819,0.7294617,5.3923225,0.0924377,11.6811218  c-0.6370277,6.2900543-0.5474129,10.4070702-0.3653603,12.2047234c0.1820526,1.79702,1.4561081,6.1399574,1.3636703,7.936985  c-0.0896149,1.7963943-0.8148499,4.5660324-0.7266426,6.5140915c0.0908699,1.9458618,2.3632355,5.9146652,2.8182068,8.0858231  c0.4535675,2.1711578,0,3.5188446-1.2726402,4.4178238c-1.272644,0.898674-2.5451317,2.3209381-0.180645,2.620491  c2.3619843,0.2998734,3.4524155-0.6740036,4.1806259-1.4228897c0.728054-0.7482681,1.5455666-1.4965286,1.3636703-2.5449753  c-0.1820526-1.0490723-0.8162575-3.0704498-0.6356163-4.1937866c0.1806412-1.1223984,1.0919991-9.7330704-0.3641052-11.4558258  c0,0,1.4561043-5.3268127,1.7262077-9.8192177c0,0,0.0940018-1.8828545,0.9101067-1.8828545h0.3741302  c0.8175125,0,0.9071312,1.8828545,0.9071312,1.8828545c0.2744865,4.4924049,1.7305946,10.0008125,1.7305946,10.0008125  c-1.4561081,1.7227554-0.5475693,10.24263-0.3641052,11.3650284c0.1804848,1.1233368-0.4563866,3.0993118-0.6384392,4.1483841  c-0.1806412,1.0484467,0.6384392,1.7740173,1.3636703,2.5222778c0.728054,0.7488937,1.8186455,1.7114105,4.1832886,1.4115448  c2.3632355-0.2995605,1.0920029-1.7275009-0.1806412-2.6261673c-1.2754631-0.8989792-1.7290268-2.2495117-1.2754631-4.4206619  c0.4565392-2.1711578,2.7287483-6.1413803,2.8197746-8.0872421c0.0924377-1.9480591-0.6370277-4.7184067-0.728054-6.514801  c-0.0910263-1.7970276,1.1816177-6.140316,1.3636703-7.9373398c0.1818962-1.7976494,0.274334-5.9148445-0.3625374-12.2048988  c-0.6371841-6.2887993-0.0911827-10.0330238,0.0894585-11.6812096c0.1834641-1.6469345,1.4546967-0.2983475,1.4546967-0.2983475  c1.9096718,2.9194183,5.2738838,6.4388695,5.2738838,6.4388695c0.3626938,0.6739998,4.9995422,5.3158569,5.8200378,5.7658157  c0.8175125,0.4487076,1.2726364,0.9735527,1.6351776,1.8722191c0.3641052,0.8967896,0.2716675,2.1705284,0.8176727,2.5443459  c0.5459976,0.3750725,2.7273331,1.7218208,3.3629532,1.5723534c0.6354599-0.1494637,1.4559479-2.1702156,0.8175125-3.2199135  C77.8848953,49.4867287,76.3393326,48.3643341,76.3393326,48.3643341z"></path></svg>