<?xml version="1.0" encoding="utf-8"?>
<!-- Svg Vector Icons : http://www.onlinewebfonts.com/icon -->
<!DOCTYPE svg PUBLIC "-//W3C//DTD SVG 1.1//EN" "http://www.w3.org/Graphics/SVG/1.1/DTD/svg11.dtd">
<svg version="1.1" xmlns="http://www.w3.org/2000/svg" xmlns:xlink="http://www.w3.org/1999/xlink" x="0px" y="0px" viewBox="0 0 256 256" enable-background="new 0 0 256 256" xml:space="preserve">
<metadata> Svg Vector Icons : http://www.onlinewebfonts.com/icon </metadata>
<g><g><g><path fill="#000000" d="M119.7,10.4c-11.9,1.2-25,5.8-34.9,12c-1.6,1-2.9,1.9-2.9,2.1c0,0.4,3.8,5.7,4.1,5.7c0.1,0,1.5-0.8,3-1.8c7.3-4.6,16-8,24.9-9.8c7.4-1.5,20.8-1.5,28.4,0c7.2,1.4,12.8,3.4,19.2,6.6c20.3,10.1,34.7,29.1,39,51.5c0.5,2.8,1.1,7.5,1.3,10.5l0.4,5.5l10.9,23.5c7.2,15.6,10.9,24,10.9,25v1.5h-9.5c-10,0-11.3,0.2-12.2,2.2c-0.3,0.7-0.5,6.9-0.5,19.2c0,20.4-0.2,21.8-3.1,26.1c-0.9,1.4-2.7,3.3-4,4.2c-4.4,3.4-4.2,3.3-25.5,3.5l-19,0.1v3.7v3.6h3.7h3.7v20.3V246h3.7h3.7v-20.2v-20.2l11.7-0.2c10.5-0.2,11.9-0.3,14.3-1.2c8-3,14.1-9,16.9-16.7c1-2.9,1.1-3.5,1.2-20.2l0.1-17.2h9.4c5.9,0,9.8-0.2,10.5-0.5c1.7-0.8,2.2-2.3,2.2-7v-4.2l-11-23.8c-10.9-23.6-11-23.8-11.3-27.7c-1-12.3-3.6-21.7-8.6-31.8c-6.4-12.7-16.6-24.2-28.7-32C156.4,13.1,137.5,8.5,119.7,10.4z"/><path fill="#000000" d="M57.9,39.4v3.7l31.7,0.1c31.6,0.2,31.7,0.2,35.6,1.2c17.7,4.9,30.3,17.6,34.7,35.1c1.4,5.5,1.4,17.9,0,23.1c-2.6,9.3-6.6,16.5-12.6,22.5c-6.1,6-13.1,10-22.5,12.6c-3.4,1-4,1-51.7,1.2l-48.3,0.1v3.6v3.7H70c28.5,0,46.8-0.2,49.2-0.5c12.6-1.6,23.7-7.1,32.8-16.1c9.2-9.2,14.5-20.1,16.1-32.8c0.6-5.3,0.6-8-0.3-13.7c-1.8-12-7-22.2-15.8-31.1c-8-8-16.5-12.7-28-15.5c-2.7-0.6-7.3-0.8-34.6-0.9l-31.5-0.2V39.4L57.9,39.4z"/><path fill="#000000" d="M102.2,72.6V80h-7.4h-7.4v11.1v11.1h7.4h7.4v7.4v7.4h11.1h11.1v-7.4v-7.4h7.4h7.4V91.1V80h-7.4h-7.4v-7.4v-7.4h-11.1h-11.1L102.2,72.6L102.2,72.6z M116.9,80v7.4h7.4h7.4v3.7v3.7h-7.4h-7.4v7.4v7.4h-3.7h-3.7v-7.4v-7.4h-7.4h-7.4v-3.7v-3.7h7.4h7.4V80v-7.4h3.7h3.7V80z"/><path fill="#000000" d="M43.2,83.7v3.7h3.7h3.7v-3.7V80h-3.7h-3.7V83.7z"/><path fill="#000000" d="M57.9,83.7v3.7h3.7h3.7v-3.7V80h-3.7h-3.7V83.7z"/><path fill="#000000" d="M72.7,83.7v3.7h3.7H80v-3.7V80h-3.7h-3.7V83.7z"/><path fill="#000000" d="M43.2,98.4v3.7h3.7h3.7v-3.7v-3.7h-3.7h-3.7V98.4z"/><path fill="#000000" d="M57.9,98.4v3.7h3.7h3.7v-3.7v-3.7h-3.7h-3.7V98.4z"/><path fill="#000000" d="M72.7,98.4v3.7h3.7H80v-3.7v-3.7h-3.7h-3.7V98.4z"/><path fill="#000000" d="M69.1,157.5c-1.6,0.6-3,1.3-3.1,1.4c-0.1,0.1,0.7,2.6,1.9,5.5c2.9,7.4,5.5,15.8,7,22.3l1.2,5.5l0.1,26.8l0.2,26.9h3.7h3.7l-0.2-26.7c-0.2-28.5-0.2-28.3-2.9-38.9c-1.8-7-7.4-23.1-8.4-24C72.1,156.4,70.7,156.8,69.1,157.5z"/></g></g></g>
</svg>