<?xml version="1.0" encoding="utf-8"?>
<!-- Svg Vector Icons : http://www.onlinewebfonts.com/icon -->
<!DOCTYPE svg PUBLIC "-//W3C//DTD SVG 1.1//EN" "http://www.w3.org/Graphics/SVG/1.1/DTD/svg11.dtd">
<svg version="1.1" xmlns="http://www.w3.org/2000/svg" xmlns:xlink="http://www.w3.org/1999/xlink" x="0px" y="0px" viewBox="0 0 256 256" enable-background="new 0 0 256 256" xml:space="preserve">
<metadata> Svg Vector Icons : http://www.onlinewebfonts.com/icon </metadata>
<g><g><g><path fill="#000000" d="M70.1,52.7c-6.7,1.3-13.3,4.5-18,8.7c-3.8,3.5-42.1,52-42.1,53.4c0,0.5,2.8,19.9,6.3,43c3.5,23.2,6.3,42.4,6.3,42.8c0,0.4,0.6,1.3,1.3,1.9l1.3,1.3h50.1h50.1l1.3-1.3c0.7-0.7,1.3-1.6,1.3-1.9c0-1.2,8.3-55.7,8.5-55.9c0.1-0.1,23.2-3,51.3-6.4c32.9-4,51.5-6.4,52.3-6.8c0.8-0.5,1.8-2.8,3.5-8c1.3-4,2.4-7.8,2.4-8.4c0-0.6-0.5-1.7-1-2.4l-1-1.3l-52.8-0.3l-52.8-0.3l-16.2-22.1c-9-12.2-17.3-23.3-18.6-24.9C96,55.3,81.5,50.4,70.1,52.7z M86.1,62.1c4,1.4,7.3,3.5,10.3,6.6c1.3,1.3,8.9,11.3,17,22.3l14.6,19.9l-26,0.2c-14.3,0.1-37.9,0.1-52.4,0l-26.4-0.2l16.1-20.5C48.1,79,56.4,68.8,57.8,67.6c3.2-2.9,7.8-5.3,11.9-6.3C74.2,60.3,82,60.7,86.1,62.1z M131.3,120.7c-0.1,0.7-2.5,17.1-5.4,36.5c-2.9,19.4-5.4,35.9-5.6,36.7l-0.3,1.5H75.3H30.7l-0.3-1.5c-0.2-0.8-2.7-17.3-5.6-36.7c-2.9-19.4-5.3-35.8-5.4-36.5l-0.2-1.2h56.2h56.2L131.3,120.7z M235.1,121.9c-0.5,1.5-1.1,2.4-1.6,2.4s-22.2,2.6-48.3,5.7c-26.1,3.2-47.4,5.7-47.5,5.7c-0.1-0.1,1.7-11.7,2.2-14.5l0.3-1.7h47.9h47.9L235.1,121.9z"/><path fill="#000000" d="M36.6,137.7c-0.7,0.7-1.3,1.8-1.3,2.4c0,2.6,4.4,27.2,5,28.2c1.5,2.4,5.7,2,7.1-0.6c0.6-1.1,0.4-3.3-1.6-15.1c-2-11.9-2.5-14-3.5-15C40.7,136,38.2,136,36.6,137.7z"/></g></g></g>
</svg>