<?xml version="1.0" encoding="utf-8"?>
<!-- Svg Vector Icons : http://www.onlinewebfonts.com/icon -->
<!DOCTYPE svg PUBLIC "-//W3C//DTD SVG 1.1//EN" "http://www.w3.org/Graphics/SVG/1.1/DTD/svg11.dtd">
<svg version="1.1" xmlns="http://www.w3.org/2000/svg" xmlns:xlink="http://www.w3.org/1999/xlink" x="0px" y="0px" viewBox="0 0 256 256" enable-background="new 0 0 256 256" xml:space="preserve">
<metadata> Svg Vector Icons : http://www.onlinewebfonts.com/icon </metadata>
<g> <path fill="#f2b682" d="M43.4,117.1c0,0,12.6-8.6,24.8-9.9c9.8-1.1,19.8,5,19.8,5s12.3,7.3,14.9,0c1.5-4.2,9.2-11.8,19.8-14.9 c7.8-2.3,19.4-1,19.8,0c1,2.4-9.9-59.5-9.9-59.5s-10.8-6.7-14.9,0c-2.2,3.6-17.4,17.7-29.8,14.9c-10.5-2.4-19-21-14.9-24.8 c4.9-4.4,8.9-10.8,24.8-14.9c13.6-3.5,33.8-4.6,44.6,0c22.2,9.3,56.7,63.3,64.4,79.3c7.8,16,7.5,29.8,0,39.6 c-3.8,5-26.4,32-54.5,44.6c-26.9,12.1-54.5,9.9-54.5,9.9s-15.7,34.7-29.7,44.6c-14,9.9-24.8,14.9-24.8,14.9V117.1z"/> <path fill="#ca8950" d="M152.4,107.2c0,0-13.3,3.5-24.8,9.9c-10.8,6-29.7,14.9-29.7,14.9s11.7-19,24.8-24.8 C135.8,101.5,152.4,107.2,152.4,107.2z"/> <path fill="#ca8950" d="M67.3,112.1c-6.3,0.6-13.2,3.8-18.8,7.2v7.1c6.6-0.9,14.6-2.1,20.5-3.3c12.9-2.5,26.6-1.8,26.6-1.8 S81.5,110.7,67.3,112.1z"/></g>
</svg>