<?xml version="1.0" encoding="utf-8"?>
<!-- Svg Vector Icons : http://www.onlinewebfonts.com/icon -->
<!DOCTYPE svg PUBLIC "-//W3C//DTD SVG 1.1//EN" "http://www.w3.org/Graphics/SVG/1.1/DTD/svg11.dtd">
<svg version="1.1" xmlns="http://www.w3.org/2000/svg" xmlns:xlink="http://www.w3.org/1999/xlink" x="0px" y="0px" viewBox="0 0 256 256" enable-background="new 0 0 256 256" xml:space="preserve">
<metadata> Svg Vector Icons : http://www.onlinewebfonts.com/icon </metadata>
<g><g><path fill="#000000" d="M192.3,174.7L192.3,174.7l-41.9-21.1c1.9-8.2,0.4-17-4.5-24.5l7.8-6.3c8.9,5.6,20.4,4.5,28.2-3.3c8.9-8.9,8.9-23.3,0-32.3c-8.9-8.9-23.3-8.9-32.3,0c-7.8,7.8-8.9,20-3,28.5l-7.1,5.9c-4.8-4.1-10.7-6.3-16.7-6.7l-4.1-35.2c3.3-1.5,6.3-3.7,8.9-6.3c12.2-12.2,12.2-32.3,0-44.5s-32.3-12.2-44.5,0s-12.2,32.3,0,44.5c5.2,5.2,11.9,8.2,18.9,8.9l7.4,34.5c-4.1,1.5-8.2,4.1-11.5,7.4c-1.5,1.5-3,3.3-4.1,5.2l-23-11.5c0.4-3.3-1.1-6.7-3.3-9.3c-4.8-4.8-12.6-4.8-17,0c-4.8,4.8-4.8,12.6,0,17c4.5,4.5,11.5,4.8,16.3,0.7l23.3,11.9c-1.5,5.9-1.5,12.6,0.4,18.5l-31.5,21.9c-12.2-8.2-28.9-7.1-40,3.7c-12.2,12.2-12.2,32.3,0,44.5s32.3,12.2,44.5,0c8.5-8.5,11.1-20.8,7.8-31.5l26.7-26.7c4.8,4.8,10.8,7.8,17,8.9l1.1,15.2c-2.6,1.1-4.8,2.6-7.1,4.5c-8.2,8.2-8.2,21.1,0,29.3c8.2,8.1,21.1,8.2,29.3,0c8.2-8.2,8.2-21.1,0-29.3c-3.7-3.7-8.2-5.6-12.6-5.9l-1.5-13.3c6.7-1.1,13-3.7,17.8-8.9c0.7-0.7,1.1-1.1,1.5-1.9l39.7,25.9c-1.1,9.3,1.9,18.9,8.9,25.6c12.2,12.2,32.3,12.2,44.5,0c12.2-12.2,12.2-32.3,0-44.5C224.9,162.5,204.9,162.5,192.3,174.7L192.3,174.7z"/></g></g>
</svg>