<svg xmlns="http://www.w3.org/2000/svg" xmlns:xlink="http://www.w3.org/1999/xlink" version="1.1" x="0px" y="0px" viewBox="-20 -20 200 200" style="enable-background:new 0 0 160 160;" xml:space="preserve" data-icon="true" fill="#000000"><path d="M144.239,71.21c-5.05,0-9.28,3.51-10.41,8.22h-13.22c0.1-0.83,0.17-1.66,0.22-2.5c0.07-1.04,0.1-2.09,0.1-3.14  c0-6.06-1.09-11.97-3.13-17.48l-6.28,3.19c1.57,4.53,2.41,9.35,2.41,14.29c0,1.05-0.04,2.1-0.12,3.14c-0.05,0.84-0.14,1.67-0.24,2.5  h-6.47c1.71-2.58,2.71-5.69,2.71-9.03c0-4.09-1.51-7.88-4.07-10.77l8.43-4.28l2.71-1.37l4.27-2.17h12.68  c1.13,4.71,5.36,8.22,10.41,8.22c5.91,0,10.72-4.81,10.72-10.72c0-5.91-4.81-10.72-10.72-10.72c-5.05,0-9.28,3.51-10.41,8.22h-13.27  c-0.4,0-0.78,0.09-1.13,0.27l-4.73,2.4c-0.4-0.73-0.82-1.45-1.26-2.17c-4-6.53-9.48-12.18-16.14-16.42l-4.39,5.51  c5.87,3.6,10.71,8.46,14.26,14.09c0.46,0.71,0.88,1.43,1.29,2.15l-7.01,3.56c-0.12-0.07-0.24-0.15-0.37-0.21  c0.01-0.09,0.01-0.17,0.01-0.25c0-7.64-6.22-13.85-13.86-13.85c-0.67,0-1.35,0.05-2.01,0.15l5.51-6.91l4.41-5.54l8.25-10.35h10.84  c1.13,4.71,5.37,8.22,10.42,8.22c5.91,0,10.72-4.81,10.72-10.72s-4.81-10.72-10.72-10.72c-5.05,0-9.29,3.51-10.42,8.22h-12.05  c-0.76,0-1.48,0.35-1.95,0.94l-9.64,12.1c-0.79-0.36-1.59-0.7-2.4-1c-5.96-2.33-12.36-3.53-18.82-3.53  c-9.51,0-18.81,2.59-26.88,7.49c-15.43,9.35-24.64,25.6-24.67,43.48L6.459,93.35c-1.57,2.07-1.86,4.78-0.75,7.16  c1.11,2.37,3.38,3.89,5.99,4.03l5.56,1.1v12.75c0,8.03,6.58,14.56,14.68,14.56h12.46v17.53c0,1.93,1.56,3.5,3.5,3.5h53.26  c1.93,0,3.5-1.57,3.5-3.5v-14.41c0-5.61,0.6-11.15,1.78-16.52h-7.15c-1.08,5.39-1.63,10.93-1.63,16.52v10.91h-46.26v-17.53  c0-1.93-1.57-3.5-3.5-3.5h-15.96c-4.24,0-7.68-3.39-7.68-7.56v-15.62c0-1.67-1.19-3.11-2.83-3.44l-8.66-1.71  c-0.22-0.04-0.49-0.06-0.72-0.06c0.13-0.15,0.24-0.32,0.34-0.49l11.98-20.69c0.32-0.55,0.48-1.18,0.47-1.82l-0.01-0.4  c0-0.12-0.01-0.24-0.01-0.37c0-15.44,7.96-29.48,21.29-37.57c6.99-4.23,15.03-6.47,23.26-6.47c4.85,0,9.66,0.79,14.22,2.3  c0.84,0.28,1.67,0.58,2.47,0.91l-5.7,7.16c-2.09-1.48-4.62-2.33-7.32-2.33c-1.94,0-3.81,0.43-5.52,1.26  c-2.11-1.09-4.44-1.65-6.85-1.65c-6.74,0-12.59,4.57-14.42,10.85c-8.31,1.53-14.67,8.89-14.67,17.58c0,9.87,8.03,17.89,17.89,17.89  c2.18,0,4.33-0.4,6.35-1.17c0.13,0.16,0.29,0.3,0.43,0.45c0.14,0.15,0.29,0.3,0.44,0.45c0.21,0.21,0.44,0.41,0.67,0.61  c0.15,0.13,0.29,0.25,0.44,0.37c0.24,0.2,0.49,0.38,0.74,0.55c0.16,0.12,0.33,0.23,0.49,0.34c0.25,0.16,0.5,0.31,0.76,0.46  c0.19,0.1,0.39,0.2,0.58,0.3c0.25,0.13,0.5,0.25,0.75,0.36c0.23,0.1,0.46,0.19,0.7,0.28c0.23,0.09,0.46,0.18,0.7,0.26  c0.28,0.09,0.57,0.16,0.85,0.23c0.21,0.06,0.41,0.12,0.63,0.16c0.34,0.08,0.68,0.12,1.03,0.17c0.17,0.03,0.33,0.06,0.5,0.08  c0.52,0.06,1.05,0.09,1.59,0.09c0.54,0,1.09-0.03,1.62-0.09c0.08-0.01,0.15-0.03,0.22-0.04c0.47-0.05,0.94-0.13,1.4-0.23  c0.01,0,0.01,0,0.02,0c1.58,1.94,3.56,3.48,5.8,4.53l12.98,23.86c0.43,0.81,1.28,1.31,2.19,1.31h26.01  c1.13,4.71,5.37,8.22,10.42,8.22c5.91,0,10.72-4.81,10.72-10.72s-4.81-10.72-10.72-10.72c-5.05,0-9.29,3.51-10.42,8.22h-8.89  c0.28-0.84,0.57-1.67,0.87-2.5c1.38-3.74,3.05-7.35,5-10.8c2.12-3.72,3.74-7.7,4.85-11.82h-7.29c-0.91,2.9-2.13,5.7-3.64,8.36  c-2.57,4.52-4.69,9.3-6.34,14.26c-0.27,0.83-0.54,1.66-0.78,2.5h-8.3l-10.12-18.61c0.17,0.01,0.34,0.03,0.51,0.03  c5.48,0,10.55-2.7,13.62-7.14c1.78-0.37,3.44-1.02,4.95-1.9h32.03c1.13,4.71,5.36,8.22,10.41,8.22c5.91,0,10.72-4.81,10.72-10.72  S150.149,71.21,144.239,71.21z M144.239,45.59c2.05,0,3.72,1.67,3.72,3.72s-1.67,3.72-3.72,3.72c-2.05,0-3.72-1.67-3.72-3.72  S142.189,45.59,144.239,45.59z M124.649,13.02c2.05,0,3.72,1.67,3.72,3.72s-1.67,3.72-3.72,3.72s-3.72-1.67-3.72-3.72  S122.599,13.02,124.649,13.02z M127.779,110.83c2.05,0,3.72,1.67,3.72,3.72s-1.67,3.72-3.72,3.72s-3.72-1.67-3.72-3.72  S125.729,110.83,127.779,110.83z M94.409,79.62c-1.17,0.11-2.21,0.79-2.77,1.82c-1.67,3.1-4.89,5.03-8.41,5.03  c-3.48,0-6.69-1.9-8.37-4.96c-0.06-0.1-0.13-0.2-0.19-0.29c-0.02-0.02-0.03-0.05-0.05-0.07c-0.12-0.18-0.27-0.33-0.42-0.48  c-0.02-0.02-0.04-0.03-0.06-0.05c-0.15-0.14-0.31-0.27-0.49-0.38h-0.01c-0.55-0.35-1.19-0.54-1.85-0.54c-0.48,0-0.97,0.1-1.43,0.31  c-1.03,0.46-2.12,0.7-3.24,0.7c-0.34,0-0.66-0.03-0.99-0.07c-0.09-0.01-0.18-0.03-0.27-0.04c-0.25-0.04-0.49-0.09-0.73-0.15  c-0.08-0.03-0.17-0.04-0.25-0.07c-0.3-0.09-0.6-0.19-0.89-0.31c-0.06-0.03-0.11-0.06-0.17-0.09c-0.23-0.1-0.45-0.22-0.67-0.34  c-0.1-0.06-0.19-0.12-0.28-0.17c-0.2-0.13-0.39-0.26-0.58-0.41c-0.06-0.05-0.14-0.09-0.2-0.15c-0.24-0.19-0.46-0.4-0.68-0.62  c-0.06-0.07-0.12-0.13-0.18-0.2c-0.17-0.19-0.33-0.38-0.48-0.59c-0.05-0.06-0.09-0.12-0.14-0.18c-0.19-0.27-0.37-0.55-0.52-0.85  c-0.59-1.11-0.93-2.38-0.93-3.72c0-4.39,3.57-7.96,7.96-7.96c0.5,0,1,0.05,1.48,0.14c1.9,0.35,3.73-0.89,4.09-2.79  c0.36-1.9-0.89-3.73-2.79-4.09c-0.91-0.17-1.85-0.26-2.78-0.26c-8.25,0-14.96,6.71-14.96,14.96c0,1.2,0.16,2.37,0.43,3.5  c-1.01,0.3-2.06,0.47-3.12,0.47c-6,0-10.89-4.88-10.89-10.89c0-5.88,4.79-10.76,10.68-10.87c1.8-0.04,3.28-1.43,3.42-3.21  c0.35-4.13,3.85-7.35,7.99-7.35c1.72,0,3.36,0.54,4.76,1.57c1.25,0.92,2.95,0.91,4.19-0.03c1-0.75,2.18-1.15,3.42-1.15  c2.34,0,4.41,1.4,5.28,3.58c0.38,0.98,1.19,1.73,2.19,2.05s2.1,0.17,2.98-0.41c1.12-0.73,2.41-1.12,3.74-1.12  c3.78,0,6.86,3.07,6.86,6.85c0,0.53-0.07,1.06-0.21,1.63c-0.44,1.8,0.6,3.64,2.38,4.18c3.92,1.19,6.55,4.75,6.55,8.85  C102.809,75.22,99.199,79.18,94.409,79.62z M144.239,85.65c-2.05,0-3.72-1.67-3.72-3.72s1.67-3.72,3.72-3.72  c2.05,0,3.72,1.67,3.72,3.72S146.289,85.65,144.239,85.65z"></path></svg>