<?xml version="1.0" encoding="utf-8"?>
<!-- Svg Vector Icons : http://www.onlinewebfonts.com/icon -->
<!DOCTYPE svg PUBLIC "-//W3C//DTD SVG 1.1//EN" "http://www.w3.org/Graphics/SVG/1.1/DTD/svg11.dtd">
<svg version="1.1" xmlns="http://www.w3.org/2000/svg" xmlns:xlink="http://www.w3.org/1999/xlink" x="0px" y="0px" viewBox="0 0 256 256" enable-background="new 0 0 256 256" xml:space="preserve">
<metadata> Svg Vector Icons : http://www.onlinewebfonts.com/icon </metadata>
<g> <path fill="#000000" d="M70.2,205.6c-1.5,0-4.1,1.1-7.1,1.1c-3,0-5.6-1.1-7.1-1.1c-0.8,0-1.3,0.3-1.3,1.4l3.2,32.3 c0,1.8,3.3,3.4,6.3,3.4c2.5,0,4.7-1.1,4.7-4.2l2.6-31.5C71.6,205.9,71.1,205.6,70.2,205.6z M50.5,164.3c10.8,0,19.8-18.2-6.2-30h0 c-23.1-10.6-21.2-27.3-21.2-27.3C20.2,112.8,26.4,164.3,50.5,164.3z M40.9,141.7l1,0.5c8.4,4.1,11.6,8.7,11,11.5 c-0.3,1.4-1.5,2.3-2.4,2.3c-1.1,0-4.4,0-8.3-4.9c-2.4-2.9-4.6-7.1-6.4-12C37.4,140,39.1,140.9,40.9,141.7L40.9,141.7z"/> <path fill="#000000" d="M50.5,128c10.8,0,19.8-18.2-6.2-30.1h0C21.3,87.3,23.2,70.6,23.2,70.6C20.2,76.5,26.4,128,50.5,128z  M40.9,105.4l0.9,0.4c8.5,4.1,11.8,8.8,11.1,11.6c-0.3,1.4-1.5,2.3-2.4,2.3c-1.1,0-4.4,0-8.3-4.9c-2.4-3-4.6-7.1-6.4-12 C37.4,103.7,39.1,104.5,40.9,105.4z"/> <path fill="#000000" d="M50.5,92.7c10.8,0,19.8-18.1-6.2-30.1h0C21.3,52.1,23.2,35.3,23.2,35.3C20.2,41.2,26.4,92.7,50.5,92.7z  M41,70.1l0.7,0.3c8.6,4.1,11.9,8.8,11.3,11.7c-0.3,1.4-1.5,2.3-2.4,2.3c-1.1,0-4.4,0-8.4-4.9c-2.4-2.9-4.6-7.1-6.4-12 C37.4,68.4,39.1,69.3,41,70.1z M82.5,134.3c-25.9,11.8-16.9,30-6.1,30c24.1,0,30.2-51.5,27.4-57.4 C103.8,106.9,105.7,123.6,82.5,134.3z M84.7,151.2c-4,4.9-7.2,4.9-8.3,4.9c-0.9,0-2.1-0.9-2.4-2.3c-0.6-2.9,2.8-7.8,12-12 c1.8-0.9,3.5-1.7,5.1-2.6C89.3,144.1,87.1,148.2,84.7,151.2z M44.4,171.5c-23.1-10.6-21.2-27.3-21.2-27.3 c-2.9,5.9,3.3,57.4,27.4,57.4C61.3,201.5,70.4,183.4,44.4,171.5z M52.9,191c-0.3,1.4-1.5,2.3-2.4,2.3c-1.1,0-4.4,0-8.3-4.9 c-2.4-2.9-4.6-7.1-6.4-12c1.6,0.9,3.3,1.8,5.1,2.6l1,0.5C50.4,183.5,53.6,188.1,52.9,191L52.9,191z"/> <path fill="#000000" d="M82.5,171.5c-25.9,11.9-16.9,30-6.1,30c24.1,0,30.2-51.5,27.4-57.4C103.8,144.2,105.7,160.9,82.5,171.5z  M84.7,188.4c-4,4.9-7.2,4.9-8.3,4.9c-0.9,0-2.1-0.9-2.4-2.3c-0.6-2.9,2.8-7.8,12-12c1.8-0.9,3.5-1.7,5.1-2.6 C89.3,181.3,87.1,185.4,84.7,188.4z M76.4,201.5C76.4,201.5,76.4,201.5,76.4,201.5z M76.4,128C76.4,128,76.4,128,76.4,128z  M82.5,97.9C56.6,109.8,65.6,128,76.4,128c24.1,0,30.2-51.5,27.4-57.4C103.8,70.6,105.7,87.3,82.5,97.9z M84.7,114.8 c-4,4.9-7.2,4.9-8.3,4.9c-0.9,0-2.1-0.9-2.4-2.3c-0.6-2.9,2.8-7.8,12-12c1.8-0.9,3.5-1.7,5.1-2.6C89.3,107.7,87.1,111.9,84.7,114.8 z"/> <path fill="#000000" d="M82.5,62.6c-25.9,11.9-16.9,30.1-6.1,30.1c24.1,0,30.2-51.4,27.4-57.3C103.8,35.3,105.7,52.1,82.5,62.6z  M84.7,79.5c-4,4.9-7.2,4.9-8.3,4.9c-0.9,0-2.1-0.9-2.4-2.3c-0.6-2.9,2.8-7.8,12-12c1.8-0.8,3.5-1.7,5.1-2.6 C89.3,72.5,87.1,76.6,84.7,79.5z M76.4,92.7C76.4,92.7,76.4,92.7,76.4,92.7z"/> <path fill="#000000" d="M65.1,65.4c25.6,0-1.4-55.4-1.4-55.4C60.5,15.2,39.6,65.4,65.1,65.4z M63.4,34c0.1-0.5,0.3-1.1,0.5-1.6 c0.1,0.3,0.2,0.5,0.2,0.8c4.8,14.7,4.1,21.7,3,23.5c-0.1,0.2-0.1,0.2-0.2,0.2c-0.1,0.1-0.6,0.3-1.7,0.3c-2.5,0-2.9-0.7-3.2-1.2 C60.5,53.3,60.1,46.2,63.4,34z M125.7,212.3c-3.2-1.5-5.3-4.2-6.7-4.2c-0.4,0-0.8,0.2-1.1,0.9l-10.5,30.6c-1,2.1,3.3,6.5,6.8,6.5 c1.4,0,2.7-0.7,3.5-2.4l15.4-27.4C134.4,213.5,129.9,214.2,125.7,212.3z M131.8,168.4c1.3,0.6,2.8,1,4.3,1c9.2,0,18.6-12,2.6-30.8 c-16.5-19.5-7.9-33.9-7.9-33.9C125.7,108.8,110,158.1,131.8,168.4L131.8,168.4z M128.9,139.4c1,1.5,2.2,2.9,3.4,4.5 c6.4,7.6,7.4,13.1,6.3,15.5c-0.6,1.3-1.8,1.8-2.6,1.8c-0.3,0-0.5-0.1-0.8-0.2c-1-0.5-4-1.9-5.6-8.2 C128.8,149.1,128.6,144.6,128.9,139.4L128.9,139.4z"/> <path fill="#000000" d="M146.9,135.5c1.3,0.6,2.8,0.9,4.3,0.9c9.2,0,18.7-12,2.6-30.9c-16.5-19.5-7.9-33.8-7.9-33.8 C140.7,75.8,125,125.1,146.9,135.5L146.9,135.5z M144,106.4c1,1.5,2.2,2.9,3.5,4.5c6.5,7.6,7.4,13.1,6.3,15.6 c-0.6,1.3-1.8,1.8-2.6,1.8c-0.3,0-0.5-0.1-0.8-0.2c-1-0.5-4-1.9-5.6-8.2C143.9,116.1,143.6,111.6,144,106.4L144,106.4z"/> <path fill="#000000" d="M161.5,103.5c1.3,0.6,2.8,0.9,4.3,0.9c9.2,0,18.6-11.9,2.6-30.8c-16.6-19.5-7.9-33.9-7.9-33.9 C155.3,43.8,139.7,93.1,161.5,103.5z M158.6,74.5c1,1.5,2.2,3,3.5,4.5c6.4,7.6,7.4,13.1,6.3,15.5c-0.6,1.3-1.8,1.7-2.6,1.7 c-0.3,0-0.5-0.1-0.8-0.2c-1-0.5-4-1.9-5.6-8.2C158.5,84.1,158.2,79.6,158.6,74.5z M174,154.9h-1.4c-27.8,0-27,20-17.3,24.6 c2.3,1.1,4.6,1.5,6.9,1.5c20.2,0,41.8-35.9,41.7-41.9C203.9,139.2,198.8,154.9,174,154.9L174,154.9z M171.9,169.1 c-3.6,2.5-7,3.8-9.7,3.8c-1.2,0-2.3-0.2-3.4-0.7c-0.9-0.4-1.6-1.9-1.3-3.3c0.6-2.8,5.5-5.6,15.1-5.6h1.3c1.8,0,3.5-0.1,5.2-0.2 C176.7,165.4,174.2,167.5,171.9,169.1L171.9,169.1z M116.4,202.2c1.4,0.6,2.8,1,4.3,1c9.2,0,18.6-12,2.6-30.8 c-16.5-19.5-7.9-33.9-7.9-33.9C110.3,142.5,94.6,191.9,116.4,202.2z M113.5,173.2c1,1.5,2.2,3,3.5,4.5c6.4,7.6,7.4,13.1,6.3,15.5 c-0.6,1.3-1.8,1.7-2.6,1.7c-0.3,0-0.6-0.1-0.8-0.2c-1-0.5-4-1.9-5.6-8.1C113.4,182.9,113.1,178.4,113.5,173.2z"/> <path fill="#000000" d="M158.6,188.7h-1.3c-27.8,0-27.1,20.1-17.4,24.6c2.3,1.1,4.6,1.6,7,1.6c20.2,0,41.8-36,41.6-41.9 C188.5,173,183.3,188.7,158.6,188.7L158.6,188.7z M156.5,202.8c-3.6,2.5-7,3.8-9.7,3.8c-1.2,0-2.3-0.2-3.4-0.8 c-0.9-0.4-1.6-1.8-1.3-3.3c0.6-2.8,5.5-5.7,15.2-5.7h1.3c1.8,0,3.5-0.1,5.1-0.2C161.3,199.2,158.8,201.2,156.5,202.8z M189,121.9 h-1.3c-27.8,0-27.1,20.1-17.3,24.6c2.3,1.1,4.6,1.6,6.9,1.6c20.2,0,41.8-36,41.6-41.9C218.9,106.3,213.8,121.9,189,121.9z  M187,136.1c-3.6,2.5-7,3.8-9.7,3.8c-1.2,0-2.3-0.2-3.4-0.8c-0.9-0.4-1.6-1.8-1.3-3.3c0.6-2.8,5.5-5.7,15.1-5.7h1.3 c1.8,0,3.5-0.1,5.2-0.2C191.8,132.4,189.3,134.5,187,136.1L187,136.1z"/> <path fill="#000000" d="M203,89.9h-0.6c-27.8,0-27.1,20.1-17.4,24.6c2.3,1.1,4.6,1.6,7,1.6c20.2,0,41.7-35.9,41.6-41.8 c0,0-5.1,15.7-29.8,15.7H203z M201.6,104.1c-3.6,2.5-7,3.8-9.7,3.8c-1.2,0-2.3-0.2-3.4-0.8c-0.9-0.4-1.6-1.8-1.3-3.3 c0.6-2.8,5.5-5.7,15.1-5.7h1.4c1.8,0,3.4-0.1,5.1-0.2C206.4,100.4,204,102.5,201.6,104.1L201.6,104.1z"/> <path fill="#000000" d="M186.1,85c1.9,0.9,3.6,1.3,5.2,1.3c17.8,0,16.5-52.1,16.5-52.1C202.6,37.5,162.9,74,186.1,85z M197.5,55.6 c0.3-0.4,0.7-0.8,1-1.2c-1.8,17-5.5,22-6.6,23.1c-0.1,0.2-0.5,0.5-0.7,0.5c-0.1,0-0.7,0-1.6-0.5c-2.3-1.1-2.4-2-2.4-2.6 C186.9,71.9,189.5,65.2,197.5,55.6L197.5,55.6z"/></g>
</svg>