<?xml version="1.0" encoding="UTF-8"?>
<svg id="Ebene_1"
    xmlns="http://www.w3.org/2000/svg" viewBox="0 0 19.13 19.13">
    <path fill="#3139f9" d="m19.13,9.56c0,5.27-4.29,9.57-9.57,9.57-2.42,0-4.65-.91-6.34-2.41-.12-.11-.24-.23-.36-.35-.12-.11-.23-.23-.35-.35-1.56-1.7-2.51-3.97-2.51-6.46C0,4.29,4.29,0,9.56,0c2.49,0,4.76.95,6.47,2.5.12.13.24.24.35.36.12.12.24.24.34.36,1.5,1.7,2.41,3.91,2.41,6.34Z"/>
    <path fill="#fab7fc" d="m14.66,11.6c0,2.8-2.27,5.08-5.08,5.08s-5.08-2.27-5.08-5.08S9.59,2.62,9.59,2.62c0,0,5.08,6.18,5.08,8.98Z"/>
    <path fill="#3139f9" d="m11.25,12.61c.45-.27,1.56-1.16,1.51-1.24-.05-.08-1.38.5-1.83.78-.36.22-.98.69-1.22.88,0-.3,0-.62,0-.94.16-.09,1.18-.69,1.6-1.01.45-.34,1.53-1.42,1.46-1.5-.07-.08-1.42.7-1.87,1.04-.36.28-.95.84-1.19,1.08,0-.32,0-.65,0-.98.21-.12,1.03-.61,1.37-.87.39-.29,1.32-1.23,1.26-1.29-.06-.07-1.23.6-1.61.9-.31.24-.81.72-1.02.92,0-.23,0-.45,0-.67.05-.03.94-.72,1.28-1.06.34-.34,1.13-1.38,1.07-1.43s-1.13.74-1.47,1.09c-.26.27-.69.79-.87,1.03,0-.3.02-.55.02-.81.15-.14.79-.78,1.03-1.08.27-.33.85-1.33.78-1.38-.07-.04-.92.77-1.18,1.11-.2.26-.51.76-.65.99,0-.14,0-.28,0-.4.04-.22.19-.98.19-1.39,0-.46-.19-1.72-.28-1.72s-.28,1.26-.28,1.72c0,.42.17,1.25.21,1.42,0,.12,0,.26,0,.4-.14-.22-.47-.76-.69-1.04-.27-.34-1.15-1.18-1.21-1.14-.07.05.53,1.07.8,1.41.27.34,1.04,1.03,1.09,1.08,0,.26,0,.52-.01.81-.2-.25-.6-.74-.85-1-.34-.34-1.4-1.14-1.47-1.09-.07.06.72,1.1,1.07,1.43.3.3,1.05.88,1.25,1.03,0,.12,0,.24,0,.36,0,.1,0,.22,0,.34-.22-.21-.72-.68-1.02-.92-.38-.3-1.55-.96-1.61-.9-.06.07.87,1,1.26,1.29.34.25,1.13.72,1.36.86,0,.3-.02.62-.03.96-.26-.25-.82-.78-1.17-1.05-.45-.34-1.8-1.12-1.87-1.04-.07.08,1.01,1.16,1.46,1.5.39.29,1.28.83,1.56,1,0,.3-.02.61-.02.91-.28-.21-.82-.62-1.16-.83-.45-.27-1.78-.85-1.83-.78-.05.08,1.06.97,1.51,1.24.35.21,1.11.57,1.47.73,0,.33-.01.65-.02.94-.27-.14-.74-.38-1.03-.5-.41-.16-1.36-.38-1.4-.31-.03.07.79.57,1.2.72.31.12.93.3,1.22.38,0,.58,0,1,.05,1.11.02.06.34-.17.33-.25-.01-.06-.02-.37-.03-.85.16-.04.92-.25,1.29-.39.41-.16,1.45-.74,1.42-.81-.03-.07-1.2.23-1.61.39-.32.13-.86.41-1.1.54,0-.28,0-.6-.01-.95.1-.04,1.1-.5,1.54-.77Z"/>
    <path fill="#ffffff" d="m16.34,2.81c-.11-.12-.23-.23-.35-.36l-6.9,6.9-.34.34-.35.35-.81.81-.65.65-.21.21-1.86,1.86-2.41,2.41c.12.12.23.24.35.35.12.12.24.24.36.35l2.21-2.21,2.52-2.52.52-.52.37-.37.49-.49,3.49-3.49,3.92-3.92c-.1-.12-.22-.24-.34-.36Z"/>
</svg>