<?xml version="1.0" encoding="UTF-8" standalone="no"?><svg xmlns="http://www.w3.org/2000/svg" xmlns:xlink="http://www.w3.org/1999/xlink" fill="#ffffff" height="22" preserveAspectRatio="xMidYMid meet" version="1" viewBox="1.0 1.0 22.0 22.0" width="22" zoomAndPan="magnify"><g><g id="change1_1"><path d="M9.5,20C4.416,20,1,16.986,1,12.5C1,9.042,3.095,1,22.5,1c0.202,0,0.385,0.122,0.462,0.309 c0.078,0.187,0.035,0.402-0.108,0.545c-1.754,1.755-3.893,4.335-4.865,8.754C17.266,13.89,15.921,20,9.5,20z M21.32,2.01 C3.912,2.316,2,9.411,2,12.5C2,16.388,5.014,19,9.5,19c5.184,0,6.595-4.443,7.512-8.607C17.89,6.398,19.667,3.829,21.32,2.01z" fill="inherit"/></g><g id="change1_2"><path d="M1.5,23C1.224,23,1,22.776,1,22.5C1,19.527,6.155,9.988,14.282,6.05c0.248-0.119,0.547-0.016,0.668,0.232 c0.12,0.248,0.016,0.547-0.232,0.668C6.511,10.927,2,20.163,2,22.5C2,22.776,1.776,23,1.5,23z" fill="inherit"/></g></g></svg>