<?xml version="1.0" encoding="utf-8"?>
<!-- Svg Vector Icons : http://www.onlinewebfonts.com/icon -->
<!DOCTYPE svg PUBLIC "-//W3C//DTD SVG 1.1//EN" "http://www.w3.org/Graphics/SVG/1.1/DTD/svg11.dtd">
<svg version="1.1" xmlns="http://www.w3.org/2000/svg" xmlns:xlink="http://www.w3.org/1999/xlink" x="0px" y="0px" viewBox="0 0 256 256" enable-background="new 0 0 256 256" xml:space="preserve">
<metadata> Svg Vector Icons : http://www.onlinewebfonts.com/icon </metadata>
<g> <path fill="#a1cd6a" d="M26.4,131.7c0,0,13.3,11.6,42.5,12.4c29.2,0.9,54.4-6.9,76.7-9c22.3-2,68.7,3.9,68.7,3.9s0.2-19.5-8.5-28.8 c-8.7-9.3-37.3-21.1-80.7-14.2C81.7,103,50.4,121.7,36.4,128C28.2,130.7,26.4,131.7,26.4,131.7z"/> <path fill="#69a84e" d="M26.4,131.7c0,0,13.3,11.6,42.5,12.4c29.2,0.9,54.4-6.9,76.7-9c22.3-2,68.7,3.9,68.7,3.9s-3.1-3.7-10.5-7.9 c-7.4-4.1-25.6-11.5-69-4.6C77,139.8,26.4,131.7,26.4,131.7z"/> <path fill="#4fb670" d="M55.3,67.7c0,0,30.3-4.9,55.2,13.9c25,18.8,50.4,46.4,82.8,64C223.7,162,246,167,246,167s-28.1,40.8-77,11 c-48.9-29.8-65.7-44-85.9-64.8C62.8,92.3,55.3,67.7,55.3,67.7L55.3,67.7z"/> <path fill="#3f934f" d="M55.3,67.7c0,0,30.3-4.9,55.2,13.9c25,18.8,50.4,46.4,82.8,64C223.7,162,246,167,246,167 s-12.1,11.7-61-18.1c-48.9-29.8-63.1-46-83.4-66.8C88.7,68.7,55.3,67.7,55.3,67.7z"/> <path fill="#3f934f" d="M100.4,105.1c0,6.9,5.6,12.5,12.5,12.5c6.9,0,12.5-5.6,12.5-12.5c0,0,0,0,0,0c0-6.9-5.6-12.5-12.5-12.5 S100.4,98.2,100.4,105.1L100.4,105.1z"/> <path fill="#d0e291" d="M97.5,96.9c0,6.3,5.1,11.4,11.4,11.4s11.4-5.1,11.4-11.4s-5.1-11.4-11.4-11.4S97.5,90.6,97.5,96.9 L97.5,96.9z"/> <path fill="#3f934f" d="M125.6,129.9c0,6.9,5.6,12.5,12.5,12.5c6.9,0,12.5-5.6,12.5-12.5c0-6.9-5.6-12.5-12.5-12.5 C131.2,117.4,125.6,123,125.6,129.9z M155.6,151.1c0,6.9,5.6,12.5,12.5,12.5s12.5-5.6,12.5-12.5s-5.6-12.5-12.5-12.5 S155.6,144.2,155.6,151.1z M187.6,169.5c0,6.9,5.6,12.5,12.5,12.5c6.9,0,12.5-5.6,12.5-12.5S207,157,200.1,157 C193.2,157,187.6,162.6,187.6,169.5z"/> <path fill="#d0e291" d="M123.4,121.7c0,6.3,5.1,11.4,11.4,11.4c6.3,0,11.4-5.1,11.4-11.4l0,0c0-6.3-5.1-11.4-11.4-11.4 C128.5,110.3,123.4,115.4,123.4,121.7L123.4,121.7z M153.2,142.6c0,6.3,5.1,11.4,11.4,11.4c6.3,0,11.4-5.1,11.4-11.4l0,0 c0-6.3-5.1-11.4-11.4-11.4C158.3,131.2,153.2,136.3,153.2,142.6L153.2,142.6z M183.9,162.5c0,6.3,5.1,11.4,11.4,11.4 c6.3,0,11.4-5.1,11.4-11.4s-5.1-11.4-11.4-11.4C189,151.1,183.9,156.2,183.9,162.5L183.9,162.5z"/> <path fill="#3f934f" d="M25.5,148.5L22,145l-0.1,0.1c0,0,2.9-3.5-0.4-12.2c-3.7-9.5-10.2-13.3-10.2-13.3c-1.2-0.7-1.6-2.2-0.9-3.3 c0.7-1.2,2.2-1.6,3.3-1c0.3,0.2,8.1,4.6,12.4,15.9C30.5,142.9,26,148,25.5,148.5z"/></g>
</svg>