<?xml version="1.0" encoding="utf-8"?>
<!-- Svg Vector Icons : http://www.onlinewebfonts.com/icon -->
<!DOCTYPE svg PUBLIC "-//W3C//DTD SVG 1.1//EN" "http://www.w3.org/Graphics/SVG/1.1/DTD/svg11.dtd">
<svg version="1.1" xmlns="http://www.w3.org/2000/svg" xmlns:xlink="http://www.w3.org/1999/xlink" x="0px" y="0px" viewBox="0 0 256 256" enable-background="new 0 0 256 256" xml:space="preserve">
<metadata> Svg Vector Icons : http://www.onlinewebfonts.com/icon </metadata>
<g> <path fill="#f1bb36" d="M211.1,17.9c-3.4-0.2-6.3,0.3-7.8,0.6c-8.4,0.5-38.8,4.8-76.3,41.2c-7.1,4.9-30.3,22.4-32.6,45.2l-0.1,1.2 c-0.6,6-1.7,18.6-10.2,22.2c-16.8,7.3-32.4,16.5-35.7,18.8c-18.5,11.5-47,39.6-36,71.7C18.3,236.1,32,246,49.9,246 c11.8,0,22.7-4.3,28.3-7c12.1-2.5,66.8-16.3,79-62.7c0.8-1.6,1.7-3.9,2.7-6.7c3.8-10.2,10.3-27.4,23-38.2c1.2-1,4.6-4,9.2-8.1 c9.4-8.2,23.5-20.6,33.7-29.3l0.5-0.5c2-1.9,18-19.6,19.4-44.6C249.1-14.3,222.1,18.7,211.1,17.9z"/> <path fill="#cd441b" d="M57.9,160.8c0,0-39.3,24-29.4,52.8c9.8,28.8,44.2,9.6,44.2,9.6s58.9-9.6,68.7-52.9c0,0,9-15.6,5.7-24 c-1.7-4.2-11.7-1.7-16.9-4.3c-6.7-3.4-17.1-4.4-33-0.5C77.5,146.4,57.9,160.8,57.9,160.8L57.9,160.8z M130.9,76.7 c0,0-42.1,28.1-18.7,51.5c23.4,23.4,46.8,0,51.5-4.7c4.7-4.7,42.1-37.4,42.1-37.4s14-14,14-32.8c0-18.7-23.4-14-23.4-14 S168.3,39.2,130.9,76.7z"/> <path fill="#9d3124" d="M147.3,147.5c-13.9,17-49.4,51.5-117.5,69.4c11.3,23.9,42.8,6.4,42.8,6.4s58.9-9.6,68.7-52.9 C141.3,170.4,149.5,156,147.3,147.5z M216,43.1c0,0.1-0.1,0.2-0.2,0.4c-10.8,18.8-39.7,58-102.5,85.7l0,0 c23,21.5,45.7-1.1,50.3-5.7c4.7-4.7,42.1-37.4,42.1-37.4s14-14,14-32.8C219.8,48.5,218.2,45.2,216,43.1z"/></g>
</svg>