<?xml version="1.0" encoding="UTF-8" standalone="no"?><svg xmlns="http://www.w3.org/2000/svg" xmlns:xlink="http://www.w3.org/1999/xlink" fill="#000000" height="497.9" preserveAspectRatio="xMidYMid meet" version="1" viewBox="0.0 0.0 500.5 497.9" width="500.5" zoomAndPan="magnify"><g fill="#ffffff" id="change1_1"><path d="M230.8,497.9c-2.7,0-5.4-0.8-7.7-2.5c-5.8-4.3-7-12.4-2.8-18.2l8.1-11.1c33.2-45.1,55-98.3,63-153.8 c1-7.1,7.6-12.1,14.8-11c7.1,1,12.1,7.6,11,14.8c-8.6,59.7-32.1,116.9-67.8,165.5l-8.1,11.1C238.7,496.1,234.8,497.9,230.8,497.9z"/><path d="M112.6,454.8c-3.3,0-6.5-1.2-9.1-3.7c-5.2-5-5.3-13.3-0.3-18.4l5.7-5.9c45.2-46.7,70.1-108.2,70.1-173.1 v-1.8c0-39.5,31.3-72.2,69.7-72.9c19.3-0.2,37.4,6.9,51.1,20.3c13.7,13.5,21.3,31.5,21.3,50.7v13.3c0,7.2-5.8,13-13,13 c-7.2,0-13-5.8-13-13V250c0-12.2-4.8-23.6-13.5-32.1c-8.7-8.5-20.2-13.2-32.3-12.9c-24.3,0.4-44.1,21.5-44.1,46.9v1.8 c0,71.8-27.5,139.7-77.4,191.3l-5.7,5.9C119.4,453.5,116,454.8,112.6,454.8z"/><path d="M308,489.6c-2.2,0-4.4-0.5-6.4-1.7c-6.3-3.5-8.5-11.5-4.9-17.8l10.9-19.3c30.8-54.6,47.1-116.6,47.1-179.3 V250c0-22-6.8-43.1-19.6-60.9c-4.2-5.8-2.9-14,3-18.2c5.8-4.2,14-2.9,18.2,3c16,22.3,24.5,48.6,24.5,76.2v21.6 c0,67.2-17.4,133.6-50.5,192.1l-10.9,19.3C316.9,487.2,312.5,489.6,308,489.6z"/><path d="M129,307.6c-0.8,0-1.7-0.1-2.5-0.2c-7.1-1.4-11.7-8.2-10.3-15.3c2.1-10.6,3.1-21.5,3.1-32.3v-7 c0-71.1,56.5-130.9,125.9-133.4c18.1-0.7,35.8,2.4,52.5,8.9c6.7,2.6,10,10.2,7.4,16.9c-2.6,6.7-10.2,10-16.9,7.4 c-13.4-5.3-27.5-7.6-42.1-7.1c-55.6,2-100.8,50.1-100.8,107.4v7c0,12.5-1.2,25-3.6,37.2C140.6,303.3,135.1,307.6,129,307.6z"/><path d="M69.5,413.1c-3,0-6.1-1.1-8.5-3.2c-5.4-4.7-6-13-1.3-18.4L78,370.4c9-10.4,16.7-21.8,23-34.1 c3.3-6.4,11.1-9,17.5-5.7c6.4,3.3,9,11.1,5.7,17.5c-7.2,14.1-16.1,27.4-26.5,39.3l-18.4,21.1C76.7,411.5,73.1,413.1,69.5,413.1z"/><path d="M392.1,452c-1.8,0-3.6-0.4-5.4-1.2c-6.6-3-9.5-10.7-6.5-17.3c22.6-50,34-103.1,34-158c0-7.2,5.8-13,13-13 c7.2,0,13,5.8,13,13c0,58.6-12.2,115.3-36.3,168.7C401.8,449.2,397.1,452,392.1,452z"/><path d="M423.8,227.9c-6.1,0-11.5-4.3-12.8-10.5C396,142.6,329.6,87.2,253.2,85.8c-7.2-0.1-12.9-6.1-12.8-13.3 c0.1-7.2,6.1-12.8,13.3-12.8c88.5,1.7,165.4,65.9,182.9,152.6c1.4,7.1-3.2,13.9-10.2,15.4C425.5,227.8,424.6,227.9,423.8,227.9z"/><path d="M38.9,361.6c-2.6,0-5.3-0.8-7.6-2.4c-5.9-4.2-7.2-12.3-3-18.2l17.5-24.4c9.1-12.7,13.9-27.7,13.9-43.4 v-19.7c0-83.3,54.8-159.3,133.2-184.8c6.8-2.2,14.2,1.5,16.4,8.4c2.2,6.8-1.5,14.2-8.4,16.4c-67.8,22-115.2,87.8-115.2,160v19.7 c0,21.1-6.5,41.4-18.8,58.6l-17.5,24.4C46.9,359.7,42.9,361.6,38.9,361.6z"/><path d="M13,282.2c-7.2,0-13-5.8-13-13V250c0-48.8,14.1-96.1,40.7-136.7c3.9-6,12-7.7,18-3.8c6,3.9,7.7,12,3.8,18.1 C38.7,164,26.1,206.3,26.1,250v19.1C26.1,276.3,20.2,282.2,13,282.2z"/><path d="M427.3,105.9c-3.6,0-7.2-1.5-9.8-4.4C375.1,53.6,314,26.1,250,26.1c-55.4,0-108.6,20.4-149.7,57.4 c-5.4,4.8-13.6,4.4-18.4-1c-4.8-5.4-4.4-13.6,1-18.4C128.7,22.8,188.1,0,250,0c71.4,0,139.6,30.7,187.1,84.2 c4.8,5.4,4.3,13.6-1.1,18.4C433.5,104.8,430.4,105.9,427.3,105.9z"/><path d="M480.7,333.8c-0.7,0-1.5-0.1-2.2-0.2c-7.1-1.2-11.9-8-10.7-15c6.6-38.5,6.1-68,6.1-68.3 c0-36.2-8.2-70.5-24.5-102.2c-3.3-6.4-0.8-14.3,5.7-17.6c6.4-3.3,14.3-0.8,17.5,5.7C490.8,171.6,500,209.9,500,250 c0,1,0.5,31.8-6.5,72.9C492.4,329.3,486.9,333.8,480.7,333.8z"/><path d="M163.3,481.9c-3.6,0-7.2-1.5-9.8-4.4c-4.8-5.4-4.3-13.6,1.1-18.4c1.1-0.9,82.3-75.3,82.3-209.1 c0-7.2,5.8-13,13-13s13,5.8,13,13c0,146.2-87.3,225.3-91,228.6C169.5,480.8,166.4,481.9,163.3,481.9z"/></g></svg>