<?xml version="1.0" encoding="UTF-8" standalone="no"?><!-- Generator: Gravit.io --><svg xmlns="http://www.w3.org/2000/svg" xmlns:xlink="http://www.w3.org/1999/xlink" style="isolation:isolate" viewBox="2359.12 1693.306 236.028 235.519" width="236.028pt" height="235.519pt"><g><g><g><path d=" M 2532.448 1694.058 C 2521.648 1696.858 2478.748 1714.258 2461.248 1722.758 C 2435.048 1735.758 2413.248 1753.158 2392.848 1777.458 C 2383.048 1789.158 2377.448 1797.258 2373.048 1806.458 C 2357.848 1837.658 2355.048 1872.158 2364.848 1908.258 C 2367.448 1917.658 2367.248 1917.258 2368.848 1917.858 C 2369.748 1918.158 2370.248 1918.658 2370.248 1919.358 C 2370.248 1919.858 2370.448 1920.458 2370.748 1920.558 C 2371.848 1921.258 2386.948 1925.158 2392.848 1926.258 C 2410.648 1929.558 2430.248 1929.658 2446.548 1926.658 C 2462.148 1923.758 2480.348 1916.858 2491.848 1909.458 C 2504.648 1901.158 2525.448 1882.858 2536.048 1870.658 C 2551.648 1852.558 2561.348 1836.658 2572.648 1810.558 C 2584.948 1782.158 2594.248 1757.058 2594.848 1751.158 L 2595.148 1748.058 L 2591.648 1747.258 C 2587.548 1746.358 2578.248 1746.258 2572.348 1747.058 C 2570.248 1747.358 2568.348 1747.458 2568.248 1747.358 C 2567.848 1746.958 2570.148 1740.858 2574.148 1731.558 C 2578.248 1721.758 2579.348 1717.558 2578.548 1713.558 C 2578.148 1711.558 2577.548 1710.458 2576.248 1709.158 C 2574.048 1706.858 2572.148 1706.058 2568.648 1706.058 C 2565.048 1706.058 2561.348 1707.258 2553.448 1710.858 C 2549.948 1712.458 2545.848 1714.358 2544.248 1715.058 L 2541.348 1716.358 L 2541.548 1708.858 C 2541.748 1702.758 2541.548 1700.658 2540.948 1697.358 L 2540.148 1693.358 L 2537.948 1693.358 C 2536.748 1693.158 2534.348 1693.558 2532.448 1694.058 Z " fill="rgb(0,0,0)"/><path d=" M 2533.148 1705.958 C 2533.148 1716.558 2529.048 1733.458 2522.248 1750.358 C 2516.648 1764.358 2505.048 1786.558 2499.148 1794.858 C 2487.448 1811.058 2477.148 1822.158 2455.148 1842.058 C 2419.648 1874.358 2388.248 1900.258 2376.148 1907.258 L 2373.948 1908.558 L 2373.048 1904.858 C 2371.448 1898.958 2369.748 1890.358 2368.948 1883.758 C 2367.948 1876.358 2367.848 1859.158 2368.748 1852.158 C 2371.548 1829.858 2379.148 1810.158 2391.148 1794.058 C 2413.748 1763.858 2438.648 1743.058 2469.148 1728.858 C 2486.648 1720.758 2529.948 1703.258 2532.948 1703.058 C 2533.048 1703.058 2533.148 1704.358 2533.148 1705.958 Z " fill="rgb(255,191,94)"/><path d=" M 2569.448 1714.758 C 2570.648 1715.558 2569.748 1719.058 2566.048 1727.758 C 2564.048 1732.358 2561.348 1739.158 2560.148 1742.758 C 2558.248 1748.458 2557.748 1749.458 2556.748 1749.758 C 2550.048 1751.758 2540.748 1754.858 2535.448 1756.958 C 2531.848 1758.458 2528.848 1759.458 2528.748 1759.458 C 2528.648 1759.358 2529.548 1756.658 2530.848 1753.458 C 2533.448 1746.958 2537.448 1734.758 2538.648 1729.658 L 2539.448 1726.258 L 2542.348 1725.258 C 2543.948 1724.658 2548.948 1722.558 2553.448 1720.458 C 2562.448 1716.358 2565.548 1715.058 2567.248 1714.758 C 2567.948 1714.658 2568.548 1714.558 2568.648 1714.558 C 2568.648 1714.358 2569.048 1714.558 2569.448 1714.758 Z " fill="rgb(0,191,0)"/><path d=" M 2584.548 1755.658 C 2584.548 1758.758 2565.848 1804.658 2557.848 1821.258 C 2553.348 1830.558 2550.548 1835.358 2544.748 1844.358 C 2538.048 1854.558 2531.548 1862.558 2522.148 1872.158 C 2508.948 1885.558 2492.848 1898.758 2482.848 1904.258 C 2458.248 1917.958 2429.048 1922.858 2399.648 1918.358 C 2393.548 1917.458 2383.748 1915.258 2382.448 1914.558 C 2381.948 1914.358 2383.148 1913.358 2386.248 1911.258 C 2402.648 1900.258 2435.048 1873.058 2468.648 1841.958 C 2494.348 1818.258 2507.948 1801.058 2520.248 1776.558 L 2522.348 1772.358 L 2528.348 1769.658 C 2548.148 1760.758 2568.348 1754.958 2580.748 1754.858 C 2584.048 1754.858 2584.548 1754.958 2584.548 1755.658 Z " fill="rgb(255,202,122)"/><path d=" M 2494.348 1729.158 C 2491.048 1730.858 2487.848 1732.558 2487.348 1733.058 C 2484.448 1735.658 2486.148 1740.658 2489.948 1740.658 C 2491.648 1740.658 2505.248 1733.758 2505.848 1732.658 C 2506.848 1730.858 2506.448 1728.558 2504.848 1727.258 C 2502.648 1725.458 2501.148 1725.758 2494.348 1729.158 Z " fill="rgb(0,0,0)"/><path d=" M 2460.848 1747.058 C 2451.748 1752.358 2442.948 1759.058 2434.348 1766.958 C 2428.648 1772.258 2427.748 1773.558 2428.548 1776.058 C 2429.148 1778.158 2431.548 1779.658 2433.448 1779.158 C 2434.248 1778.958 2437.048 1776.658 2439.848 1774.058 C 2448.148 1766.158 2456.948 1759.458 2466.148 1754.158 C 2468.248 1752.958 2470.248 1751.558 2470.448 1751.058 C 2471.348 1749.358 2470.948 1747.258 2469.548 1745.858 C 2467.548 1743.858 2465.848 1744.058 2460.848 1747.058 Z " fill="rgb(0,0,0)"/><path d=" M 2381.348 1843.958 C 2380.048 1844.758 2379.348 1846.658 2378.348 1852.158 C 2377.148 1859.358 2377.048 1874.458 2378.348 1878.358 C 2379.848 1883.158 2382.348 1884.958 2385.648 1883.658 C 2388.348 1882.558 2388.848 1880.258 2387.148 1876.558 C 2386.148 1874.458 2386.048 1873.558 2386.148 1867.158 C 2386.148 1862.158 2386.448 1858.258 2387.148 1854.058 C 2388.448 1846.458 2388.448 1846.358 2386.848 1844.758 C 2385.248 1843.358 2382.948 1843.058 2381.348 1843.958 Z " fill="rgb(0,0,0)"/></g></g></g></svg>