<?xml version="1.0" encoding="utf-8"?>
<!-- Svg Vector Icons : http://www.onlinewebfonts.com/icon -->
<!DOCTYPE svg PUBLIC "-//W3C//DTD SVG 1.1//EN" "http://www.w3.org/Graphics/SVG/1.1/DTD/svg11.dtd">
<svg version="1.1" xmlns="http://www.w3.org/2000/svg" xmlns:xlink="http://www.w3.org/1999/xlink" x="0px" y="0px" viewBox="0 0 256 256" enable-background="new 0 0 256 256" xml:space="preserve">
<metadata> Svg Vector Icons : http://www.onlinewebfonts.com/icon </metadata>
<g> <path fill="#e88342" d="M128,210.7V70.8c-45.2,0-87.4-8-87.4,61.2C40.6,201.2,82.8,210.7,128,210.7z"/> <path fill="#333333" d="M132.4,215H128c-28.2,0-47.9-3.8-63.1-14.1C46,188,36.2,165.8,36.2,132c0-30.8,8.1-49.1,24.6-58.3 c12.4-6.9,24.3-7.9,54.6-7.5c6.1,0.1,9.1,0.1,12.6,0.1h4.4L132.4,215L132.4,215z M123.6,75.2c-2.2,0-4.7-0.1-8.4-0.1 c-28.7-0.5-39.7,0.5-50.2,6.3C51.8,88.7,45,104.1,45,132c0,55.3,24.5,73.4,78.7,74.3V75.2z"/> <path fill="#e88342" d="M128,210.7V70.8c45.2,0,87.4-8,87.4,61.2C215.4,201.2,173.2,210.7,128,210.7z"/> <path fill="#333333" d="M123.6,215h4.4c28.2,0,47.9-3.8,63.1-14.1c18.9-12.8,28.7-35.1,28.7-68.9c0-30.8-8.1-49.1-24.6-58.3 c-12.4-6.9-24.3-7.9-54.6-7.5c-6.1,0.1-9.1,0.1-12.6,0.1h-4.4L123.6,215L123.6,215z M132.4,75.2c2.2,0,4.7-0.1,8.4-0.1 c28.7-0.5,39.7,0.5,50.2,6.3c13.3,7.3,20.1,22.7,20.1,50.6c0,55.3-24.5,73.4-78.7,74.3V75.2z"/> <path fill="#e88342" d="M130.2,223.8V83.9C85,83.9,14.4,62.8,14.4,145.1C14.4,223,85,223.8,130.2,223.8z"/> <path fill="#f0b28a" d="M50,211.2c-20.6-10.6-35.6-30.1-35.6-66c0-82.3,70.6-61.2,115.8-61.2v8.3C85.6,89.7,27.5,79.1,27.5,153.9 C27.5,181.6,36.4,199.5,50,211.2L50,211.2z"/> <path fill="#333333" d="M134.6,228.1h-4.4c-36.8,0-56.7-2-76.6-10.5c-28.1-12-43.6-35.3-43.6-72.6c0-29.7,8.9-48.7,26-58.8 c13.4-7.9,30.2-10.1,55-8.8c4.2,0.2,7.9,0.4,14.8,0.9c13.4,0.9,18.2,1.2,24.4,1.2h4.4L134.6,228.1L134.6,228.1z M125.8,88.2 c-4.9-0.1-10.2-0.4-20.7-1.2c-6.8-0.5-10.4-0.7-14.6-0.9C67.3,85,52,87,40.5,93.8c-14.2,8.4-21.7,24.5-21.7,51.3 c0,33.8,13.4,53.9,38.3,64.5c17.7,7.5,36,9.6,68.8,9.8L125.8,88.2L125.8,88.2z"/> <path fill="#e88342" d="M128,210.7c43.3,0,48.1-31.3,48.1-69.9c0-38.6-4.8-69.9-48.1-69.9s-48.1,31.3-48.1,69.9 C79.9,179.4,84.7,210.7,128,210.7z"/> <path fill="#333333" d="M128,215c-22,0-36.2-7.7-44.1-22.8c-6.3-12-8.3-27.2-8.3-51.5c0-24.3,2-39.5,8.3-51.5 C91.8,74.2,106,66.4,128,66.4c22,0,36.2,7.7,44.1,22.8c6.3,12,8.3,27.2,8.3,51.5c0,24.3-2,39.5-8.3,51.5 C164.2,207.3,150,215,128,215z M128,206.3c34.3,0,43.7-18,43.7-65.6c0-47.6-9.4-65.6-43.7-65.6c-34.3,0-43.7,18-43.7,65.6 C84.3,188.3,93.7,206.3,128,206.3z"/> <path fill="#d06620" d="M125.8,223.8V83.9c45.2,0,115.8-21.1,115.8,61.2C241.6,223,171,223.8,125.8,223.8z"/> <path fill="#333333" d="M121.4,228.1h4.4c36.8,0,56.7-2,76.6-10.5c28.1-12,43.6-35.3,43.6-72.6c0-29.7-8.9-48.7-26-58.8 c-13.4-7.9-30.2-10.1-55-8.8c-4.2,0.2-7.9,0.4-14.8,0.9c-13.4,0.9-18.2,1.2-24.4,1.2h-4.4L121.4,228.1L121.4,228.1z M130.2,88.2 c4.9-0.1,10.2-0.4,20.7-1.2c6.8-0.5,10.4-0.7,14.6-0.9c23.2-1.1,38.5,0.8,50.1,7.6c14.2,8.4,21.7,24.5,21.7,51.3 c0,33.8-13.4,53.9-38.3,64.5c-17.7,7.5-36,9.6-68.8,9.8L130.2,88.2L130.2,88.2z"/> <path fill="#e88342" d="M128,223.8V83.9c-45.2,0-87.4-8-87.4,61.2C40.6,214.3,82.8,223.8,128,223.8z"/> <path fill="#f0b28a" d="M74.7,214.7c-20.3-9.9-34.1-29.9-34.1-69.5c0-69.2,42.2-61.2,87.4-61.2v8.6c-40-0.7-74.3-1.1-74.3,61.3 C53.7,184.2,61.8,203,74.7,214.7z"/> <path fill="#333333" d="M132.4,228.1H128c-28.2,0-47.9-3.8-63.1-14.1c-18.9-12.8-28.7-35.1-28.7-68.9c0-30.8,8.1-49.1,24.6-58.3 c12.4-6.9,24.3-7.9,54.6-7.5c6.1,0.1,9.1,0.1,12.6,0.1h4.4L132.4,228.1L132.4,228.1z M123.6,88.3c-2.2,0-4.7-0.1-8.4-0.1 c-28.7-0.5-39.7,0.5-50.2,6.3C51.8,101.8,45,117.2,45,145.1c0,55.3,24.5,73.4,78.7,74.3V88.3z"/> <path fill="#e88342" d="M128,223.8V83.9c45.2,0,87.4-8,87.4,61.2C215.4,214.3,173.2,223.8,128,223.8z"/> <path fill="#d06620" d="M128,209.7c36.1-3.7,65.6-19.8,65.6-77.7c0-22.3-4.4-36.6-11.8-45.7c20,5.1,33.7,19.5,33.7,58.8 c0,69.2-42.2,78.7-87.4,78.7V209.7L128,209.7z"/> <path fill="#333333" d="M123.6,228.1h4.4c28.2,0,47.9-3.8,63.1-14.1c18.9-12.8,28.7-35.1,28.7-68.9c0-30.8-8.1-49.1-24.6-58.3 c-12.4-6.9-24.3-7.9-54.6-7.5c-6.1,0.1-9.1,0.1-12.6,0.1h-4.4L123.6,228.1L123.6,228.1z M132.4,88.3c2.2,0,4.7-0.1,8.4-0.1 c28.7-0.5,39.7,0.5,50.2,6.3c13.3,7.3,20.1,22.7,20.1,50.6c0,55.3-24.5,73.4-78.7,74.3V88.3z"/> <path fill="#e88342" d="M128,223.8c43.3,0,48.1-31.3,48.1-69.9c0-38.6-4.8-69.9-48.1-69.9s-48.1,31.3-48.1,69.9 C79.9,192.5,84.7,223.8,128,223.8z"/> <path fill="#f0b28a" d="M102.6,218.5c-19.9-10.5-22.7-35.5-22.7-64.6c0-38.6,4.8-69.9,48.1-69.9c16.2,0,27,4.4,34.1,11.9 c-6.5-3.4-14.8-5.3-25.4-5.3c-43.3,0-48.1,31.3-48.1,69.9C88.7,184.6,90.6,205.9,102.6,218.5z"/> <path fill="#d06620" d="M90.4,207.6c5.6,2,12.2,3,20.2,3c43.3,0,48.1-31.3,48.1-69.9c0-21.6-1.5-41-10.4-53.8 c24.7,8.7,27.9,35.3,27.9,66.9c0,38.6-4.8,69.9-48.1,69.9C109,223.8,97.4,217.7,90.4,207.6z"/> <path fill="#333333" d="M128,228.1c-22,0-36.2-7.7-44.1-22.8c-6.3-12-8.3-27.2-8.3-51.5s2-39.5,8.3-51.5 C91.8,87.3,106,79.6,128,79.6c22,0,36.2,7.7,44.1,22.8c6.3,12,8.3,27.2,8.3,51.5c0,24.3-2,39.5-8.3,51.5 C164.2,220.4,150,228.1,128,228.1z M128,219.4c34.3,0,43.7-18,43.7-65.6s-9.4-65.6-43.7-65.6c-34.3,0-43.7,18-43.7,65.6 S93.7,219.4,128,219.4z"/> <path fill="#c8cf9f" d="M148.2,32.2c-12.7,6.4-21.4,14-26.1,22.8c-4.7,8.8-7,18.1-7,27.8h25.7c-3.5-10.5-4.4-19-2.7-25.3 C139.7,51.3,143.1,42.8,148.2,32.2z"/> <path fill="#333333" d="M146.2,28.3c3.7-1.9,7.7,2,5.9,5.8c-5,10.3-8.3,18.5-9.9,24.6c-1.4,5.4-0.6,13,2.7,22.8 c1,2.8-1.2,5.8-4.2,5.8h-25.7c-2.4,0-4.4-2-4.4-4.4c0-10.5,2.5-20.5,7.5-29.9C123.4,43.3,132.8,35.1,146.2,28.3L146.2,28.3z  M126,57.1c-3.7,6.8-5.8,14-6.4,21.4h15.3c-2.3-8.7-2.7-16.1-1.1-22.1c1-3.7,2.5-8.1,4.6-13.1C132.8,47.5,128.6,52.2,126,57.1z"/> <path fill="#ffffff" d="M102.1,108.3c0.7-2.3,3.1-3.6,5.4-3c2.3,0.7,3.6,3.1,3,5.4c-3,10.2-4.8,19-5.5,26.5 c-0.2,2.4-2.4,4.2-4.8,3.9c-2.4-0.2-4.2-2.4-3.9-4.8C97,128.4,99,119,102.1,108.3z M95.5,152.5c0-2.4,2-4.3,4.4-4.3 c2.4,0,4.3,2,4.3,4.4c0,1,0,2.1,0,3.2c0,2.4-2,4.4-4.4,4.4c-2.4,0-4.4-2-4.4-4.4C95.5,154.7,95.5,153.6,95.5,152.5z"/></g>
</svg>