<?xml version="1.0" encoding="UTF-8" standalone="no"?><svg xmlns="http://www.w3.org/2000/svg" xmlns:xlink="http://www.w3.org/1999/xlink" fill="#ffffff" height="88.4" preserveAspectRatio="xMidYMid meet" version="1" viewBox="0.0 0.0 100.0 88.4" width="100" zoomAndPan="magnify"><g fill="none" fill-rule="evenodd"><g fill="#ffffff"><g id="change1_1"><path d="M37.711996,59.9347329 C38.6534421,59.9347329 39.2770039,60.5582947 39.2770039,61.4997408 C39.2770039,62.441187 38.6534421,63.0647488 37.711996,63.0647488 L37.711996,63.0647488 L10.6357939,63.0647488 C9.69434769,63.0647488 9.07078593,62.441187 9.07078593,61.4997408 C9.07078593,60.5582947 9.69434769,59.9347329 10.6357939,59.9347329 L10.6357939,59.9347329 Z M1.56500793,46.7917964 L28.64121,46.7917964 C29.5826562,46.7917964 30.206218,47.4153581 30.206218,48.3568043 C30.206218,49.2459479 29.6500163,49.8515464 28.7951219,49.9160909 L28.64121,49.9218122 L1.56500793,49.9218122 C0.623561758,49.9218122 0,49.2982504 0,48.3568043 C0,47.4676607 0.556201691,46.8620621 1.41109602,46.7975177 L1.56500793,46.7917964 L28.64121,46.7917964 Z M10.6357939,33.6488598 L37.711996,33.6488598 C38.6534421,33.6488598 39.2770039,34.2724216 39.2770039,35.2138677 C39.2770039,36.1030113 38.7208022,36.7086099 37.8659079,36.7731543 L37.711996,36.7788756 L10.6357939,36.7788756 C9.70045122,36.7788756 9.07078593,36.1492104 9.07078593,35.2138677 C9.07078593,34.3247241 9.62698763,33.7191256 10.481882,33.6545811 L10.6357939,33.6488598 L37.711996,33.6488598 Z M95.754025,31.2361954 C98.483906,36.5684383 100,42.6074821 100,48.980053 C100,70.7367932 82.3138454,88.4226504 60.5571053,88.4104782 C50.0731172,88.4104782 40.2116892,84.3451631 32.6983992,76.8318731 C32.0748374,76.2083739 32.0748374,75.2669278 32.6983992,74.643366 C33.3218983,74.0198042 34.2633445,74.0198042 34.8869063,74.643366 C41.7698111,81.5331569 50.8481091,85.2866719 60.5499062,85.2866719 C80.5835727,85.2866719 96.8565251,69.0137195 96.8565251,48.980053 C96.8565251,43.5149901 95.6302021,38.3135988 93.4326794,33.6534206 L95.754025,31.2361954 Z M90.9550639,36.2338431 C92.6453965,40.1936044 93.5808696,44.5533254 93.5808696,49.1324222 C93.5808696,67.2890182 78.8729251,81.9975886 60.7157032,81.9975886 C53.9918031,81.9975886 47.5727666,79.9618263 42.0952389,76.2083113 C41.3127349,75.743817 41.1537927,74.8023082 41.6245158,74.0198042 C42.0952076,73.3960077 43.0366224,73.2370655 43.9719651,73.6955659 C48.8194206,77.1373313 54.614958,78.8613441 60.7159849,78.8613441 C77.1485681,78.8613441 90.4511354,65.5587767 90.4511354,49.1261935 C90.4511354,45.4604053 89.7891346,41.9503819 88.5780643,38.7090549 L90.9550639,36.2338431 Z M90.546263,22.5644352 C91.9412793,22.3736137 93.3023104,23.0985837 93.9171183,24.3621524 C94.5361813,25.6299544 94.2690419,27.1479085 93.2599128,28.1273507 C81.7487483,39.6645659 73.4287977,49.0222038 61.7819523,60.6907581 C60.5904572,61.8991645 58.6697589,61.9881928 57.3723242,60.8942794 L57.3723242,60.8942794 L43.2615143,48.9543633 C42.5958314,48.3988316 42.1803115,47.6017554 42.1082269,46.7367953 C42.0319092,45.8718026 42.3032709,45.0153633 42.862949,44.3539137 C43.422714,43.6882199 44.2240235,43.2769441 45.0847503,43.2048596 C45.949743,43.132775 46.8061823,43.4083809 47.4676319,43.968059 L47.4676319,43.968059 L59.2718671,53.9406025 C69.642227,43.4291346 77.778737,34.4405487 88.6462315,23.5480889 C89.1507473,23.0180869 89.8207177,22.6704074 90.5457636,22.5644027 L90.5457636,22.5644027 Z M60.7157032,16.2672558 C69.0075338,16.2672558 76.5802427,19.3347516 82.3613049,24.3973971 L80.1991834,26.6555203 C74.9823725,22.1291942 68.1713141,19.3910429 60.7159849,19.3910429 C54.4553272,19.3910429 48.3480402,21.2740604 43.3412669,25.0275754 C42.5588255,25.4982985 41.6234829,25.3393563 41.1527598,24.7157946 C40.6820367,24.0922954 40.8409789,22.9980106 41.4645407,22.5272875 C47.1013862,18.4557629 53.8321723,16.2672558 60.7157032,16.2672558 Z M67.7589587,0 C68.7004049,0 69.3239667,0.623561758 69.3239667,1.56500793 C69.3239667,2.45415153 68.767765,3.05975009 67.9128706,3.12429454 L67.7589587,3.13001585 L62.1224262,3.13001585 L62.1224262,9.70179713 C71.3214533,10.0071845 79.6224149,13.4687166 86.1349811,19.0518926 L86.5396798,19.4035943 L86.847,19.711 L84.6635639,21.9928331 C78.1848683,16.2961484 69.7323441,12.8255529 60.5502192,12.8255529 C50.5372985,12.8255529 41.147251,16.8970776 34.1047153,24.2513628 C33.4812161,24.8749246 32.53977,24.8749246 31.9162082,24.2513628 C31.2926465,23.6278637 31.2926465,22.6864175 31.9162082,22.0628557 C38.9874262,14.5362034 48.3146284,10.3272689 58.4296628,9.73119362 L58.9924103,9.70179713 L58.9924103,3.13001585 L53.5148826,3.13001585 C52.5734364,3.13001585 51.9498747,2.50645409 51.9498747,1.56500793 C51.9498747,0.675864323 52.5060764,0.0702657645 53.3609707,0.00572130617 L53.5148826,0 L67.7589587,0 Z"/></g></g></g></svg>