<?xml version="1.0" encoding="utf-8"?>
<!-- Svg Vector Icons : http://www.onlinewebfonts.com/icon -->
<!DOCTYPE svg PUBLIC "-//W3C//DTD SVG 1.1//EN" "http://www.w3.org/Graphics/SVG/1.1/DTD/svg11.dtd">
<svg version="1.1" xmlns="http://www.w3.org/2000/svg" xmlns:xlink="http://www.w3.org/1999/xlink" x="0px" y="0px" viewBox="0 0 256 256" enable-background="new 0 0 256 256" xml:space="preserve">
<metadata> Svg Vector Icons : http://www.onlinewebfonts.com/icon </metadata>
<g><g><g><path fill="#000000" d="M123.1,10.1c-4.6,0.5-12.2,2-15.9,3.2c-24.2,7.9-42,28.4-46.4,53.8c-1.2,7-1.2,115.1,0,122.1c3.8,22,17.5,40.2,37.7,50.3c3.8,1.9,12.4,4.7,17.5,5.6c6.6,1.3,17.4,1.3,24.1,0c5.1-0.9,13.8-3.7,17.5-5.6c20.1-10.1,33.9-28.5,37.6-50.1c0.7-4.3,0.8-11.8,0.8-61.3c0-49.5-0.1-56.9-0.8-61.3c-4.8-27.9-26.5-50.1-54.1-55.4C136.1,10.4,126.9,9.7,123.1,10.1z M142.8,19.9c23.6,6.2,41,25.5,44.6,49.4c0.6,3.8,0.8,10,0.8,24.2l-0.1,19.1l-38.5,18.7l-38.5,18.7l-21.7-13.5l-21.7-13.5V99c0-25.5,0.3-29.9,2.4-37.3c1.6-5.8,6.2-15,9.6-19.6c5.7-7.5,15.2-15.1,23.3-18.8c8.8-3.9,15.8-5.3,26.4-5C136.2,18.5,138.7,18.8,142.8,19.9z M188.2,151.7c0,16.5-0.3,31.6-0.5,33.7c-0.7,5.4-2.1,10.8-2.7,10.6c-1.4-0.5-65.3-40.5-65.2-40.8c0.1-0.4,67.3-33.3,68-33.4C188.1,121.8,188.2,135.3,188.2,151.7z M104.1,155.2c19.2,12,34.8,21.9,34.5,22.1c-0.6,0.6-61.9,30.3-62.5,30.3c-0.8,0-4.5-8.1-5.9-13.1c-2.1-7.6-2.4-11.3-2.4-37.2c0-19.5,0.2-24.5,0.7-24.2C68.9,133.3,84.9,143.3,104.1,155.2z M164.8,193c9.3,5.8,17,10.6,17.2,10.8c0.4,0.4-2.8,6.1-5.8,10.1c-19,25.5-54.4,31.7-81.4,14.1c-4.4-2.9-14.1-12-13.8-13c0.2-0.6,65.2-32.5,66.3-32.5C147.6,182.5,155.5,187.2,164.8,193z"/><path fill="#000000" d="M121.3,30.2c-17.8,2.5-33.7,15.8-39.2,33c-1.9,6-2.4,9.5-2,17.1c0.3,8.5,1.1,11.6,4.6,18.8c5.3,11,13.9,19.2,25,23.8c12.1,5.1,26.7,4.8,38.6-0.8c12.6-5.8,22.4-17.2,26.4-30.9c1.4-4.6,1.9-16.5,1-21.4c-3.6-18.8-17.6-33.9-35.9-38.6C135.1,30,126.1,29.5,121.3,30.2z M135.5,38.5c1.1,0.3,2.1,0.6,2.3,0.8c0.5,0.5-3.3,5.9-7,9.7c-8.6,9.2-20.5,14.2-33.3,14.1c-6.8-0.1-7-0.1-5.2-3.5c5.1-9.8,14.9-17.7,25.8-20.5C122.4,38,131.9,37.7,135.5,38.5z M150.5,44.7c6.2,4.1,11.8,10.8,14.8,17.8l1.5,3.5l-2.4,0.2c-2.9,0.2-10.4-1.1-14.9-2.5c-4.3-1.4-10.5-4.5-12.7-6.3l-1.7-1.4l2.9-3.2c1.6-1.8,4.1-4.9,5.4-7C146.3,41.8,146,41.8,150.5,44.7z M131.8,63.7c7.6,5.8,19.4,9.7,32,10.8l4.6,0.4v3.5c0,17-11.3,32.6-27.4,37.9c-11.3,3.8-23.3,2.5-33.6-3.5c-4.3-2.6-11.3-9.4-13.8-13.7c-4.7-7.9-6.9-18.4-5.5-26.5l0.3-1.8l9.7-0.1c9.1,0,10.1-0.1,14.4-1.4c4.4-1.4,11-4.4,14.2-6.6c0.9-0.6,1.7-1.1,1.9-1.1C128.9,61.6,130.3,62.5,131.8,63.7z"/><path fill="#000000" d="M117.8,94.8c-2.5,1-3.2,4.5-1.3,6.2c1.5,1.4,6,2.9,9.4,3.2c3.5,0.4,9.8-0.8,12.3-2.3c3.1-1.8,3.2-5.9,0.3-7.1c-1.4-0.6-2-0.6-4.5,0.3c-3.8,1.3-8.7,1.3-12,0C119.7,94.3,119.2,94.3,117.8,94.8z"/></g></g></g>
</svg>