<svg xmlns="http://www.w3.org/2000/svg" xmlns:xlink="http://www.w3.org/1999/xlink" version="1.1" x="0px" y="0px" viewBox="-20 -20 104 104" style="enable-background:new 0 0 64 64;" xml:space="preserve" data-icon="true" fill="#000000"><g><path d="M11.9,29.5c0.9,0.2,1.9,0.3,2.8,0.3c2.6,0,5.2-0.8,7.5-2.2c3.1-2,5.2-5.1,5.9-8.7c0.7-3.6,0.1-7.2-2-10.3s-5.1-5.2-8.7-5.9   c-3.6-0.7-7.2-0.1-10.3,2c-3.1,2-5.2,5.1-5.9,8.7c-0.7,3.6-0.1,7.2,2,10.3S8.3,28.8,11.9,29.5z M3.7,13.8c1.1-5.3,5.8-8.9,11-8.9   c0.8,0,1.5,0.1,2.3,0.2c6.1,1.3,10,7.2,8.7,13.3s-7.2,10-13.3,8.7C6.4,25.8,2.5,19.9,3.7,13.8z"></path><path d="M49.6,12.7c0.7,0,1.4-0.1,2.2-0.2c0.7-0.1,1.1-0.8,1-1.5c-0.1-0.7-0.8-1.1-1.5-1c-1.4,0.3-2.7,0.2-3.7-0.2   c-0.3-0.1-0.6-0.3-0.8-0.4c-0.6-0.3-1.4-0.7-2.4-0.8c-0.7-0.1-1.3,0-1.9,0.2c-0.4-0.8-1-1.4-1.8-1.9c-1.1-0.6-2.4-0.8-3.6-0.5   c-1.2,0.3-2.5,1.1-3.4,2.2c-1.2,1.3-1.7,2.7-1.3,4c0.3,1.3,1.5,2.3,3.1,2.8c0.8,0.3,1.7,0.4,2.5,0.4c0.6,0,1.1-0.1,1.6-0.2   c1.2-0.3,2.3-1.1,2.9-2.2c0.4-0.7,0.6-1.5,0.6-2.2c0.4-0.1,0.8-0.1,1.2-0.1c0.5,0,0.9,0.3,1.4,0.5c0.4,0.2,0.7,0.4,1.1,0.5   C47.6,12.6,48.5,12.7,49.6,12.7z M40.3,12.3c-0.3,0.5-0.8,0.9-1.4,1.1c-0.7,0.2-1.8,0.1-2.7-0.2c-0.8-0.3-1.4-0.7-1.5-1.1   c-0.1-0.4,0.2-1.1,0.8-1.7c0.6-0.7,1.5-1.3,2.2-1.5l0,0c0.2-0.1,0.4-0.1,0.6-0.1c0.4,0,0.8,0.1,1.1,0.3c0.5,0.3,0.9,0.8,1.1,1.4   C40.6,11.1,40.6,11.8,40.3,12.3z"></path><path d="M42.6,36c-0.1-0.3-0.2-0.6-0.3-0.9c-0.2-0.7-0.5-1.5-1.1-2.2c-0.4-0.5-1-0.9-1.5-1.2c0.2-0.8,0.3-1.7,0-2.6   c-0.3-1.2-1.1-2.3-2.2-2.9c-2.1-1.2-6.3-1.5-7.8,1c-1.4,2.5,0.8,6,3,7.3c0.7,0.4,1.6,0.6,2.4,0.6c0.4,0,0.8-0.1,1.2-0.2   c0.8-0.2,1.5-0.6,2-1.1c0.4,0.2,0.7,0.5,0.9,0.7c0.3,0.4,0.5,0.8,0.6,1.4c0.1,0.4,0.2,0.8,0.4,1.1c0.6,1.4,1.8,2.7,3.4,3.8   C44,41,44.2,41,44.5,41c0.4,0,0.8-0.2,1-0.6c0.4-0.6,0.2-1.4-0.3-1.7C43.9,37.9,43.1,37,42.6,36z M34,32.3c-1.4-0.8-2.5-3-2.1-3.8   c0.3-0.4,1.1-0.7,2-0.7c0.8,0,1.7,0.2,2.4,0.6c0.5,0.3,0.9,0.8,1.1,1.4c0.2,0.6,0.1,1.2-0.2,1.7C36.5,32.6,35.1,33,34,32.3z"></path><path d="M59.9,30.7c-0.1-0.3-0.2-0.6-0.3-0.9c-0.2-0.7-0.5-1.5-1.1-2.2c-0.4-0.5-1-0.9-1.5-1.2c0.2-0.8,0.3-1.7,0-2.6   c-0.3-1.2-1.1-2.3-2.2-2.9c-1-0.6-2.6-0.9-4-0.9c-1.8,0.1-3.1,0.8-3.8,1.9c-0.7,1.1-0.6,2.7,0.2,4.2c0.6,1.3,1.7,2.4,2.7,3   c0.8,0.4,1.6,0.6,2.4,0.6c1.2,0,2.4-0.5,3.3-1.3c0.4,0.2,0.7,0.5,0.9,0.7c0.3,0.4,0.5,0.8,0.6,1.4c0.1,0.4,0.3,0.8,0.4,1.1   c0.6,1.4,1.8,2.7,3.4,3.8c0.2,0.1,0.5,0.2,0.7,0.2c0.4,0,0.8-0.2,1-0.6c0.4-0.6,0.2-1.4-0.3-1.7C61.2,32.6,60.4,31.7,59.9,30.7z    M51.3,27c-0.6-0.4-1.4-1.2-1.8-2c-0.4-0.8-0.5-1.5-0.3-1.8c0.2-0.4,0.9-0.6,1.7-0.7c0.1,0,0.1,0,0.2,0c0.9,0,1.8,0.2,2.4,0.6h0   c0.5,0.3,0.9,0.8,1.1,1.4s0.1,1.2-0.2,1.7C53.8,27.2,52.4,27.6,51.3,27z"></path><path d="M46.9,49.7c-0.3-1.2-1.1-2.3-2.2-2.9c-1-0.6-2.6-0.9-4-0.9c-1.8,0.1-3.1,0.8-3.8,1.9c-0.7,1.1-0.6,2.7,0.2,4.2   c0.6,1.3,1.7,2.4,2.7,3c0.7,0.4,1.6,0.6,2.4,0.6c0.4,0,0.8-0.1,1.2-0.2c0.8-0.2,1.5-0.6,2-1.1c0.4,0.2,0.7,0.5,0.9,0.7   c0.3,0.4,0.5,0.8,0.6,1.4c0.1,0.4,0.2,0.8,0.4,1.1c0.6,1.4,1.8,2.7,3.4,3.8c0.2,0.1,0.5,0.2,0.7,0.2c0.4,0,0.8-0.2,1-0.6   c0.4-0.6,0.2-1.4-0.3-1.7c-1.2-0.8-2.1-1.7-2.5-2.7c-0.1-0.3-0.2-0.6-0.3-0.9c-0.2-0.7-0.5-1.5-1.1-2.2c-0.4-0.5-1-0.9-1.5-1.2   C47.1,51.5,47.1,50.6,46.9,49.7z M42.9,53.1c-0.6,0.2-1.2,0.1-1.7-0.2c-0.6-0.4-1.4-1.2-1.8-2c-0.4-0.8-0.5-1.5-0.3-1.8   s0.9-0.6,1.7-0.7c0.1,0,0.1,0,0.2,0c0.9,0,1.8,0.2,2.4,0.6c0.5,0.3,0.9,0.8,1.1,1.4c0.2,0.6,0.1,1.2-0.2,1.7   C44,52.6,43.5,53,42.9,53.1z"></path><path d="M27,39.8c-0.6-2.4-3.4-5.5-6.2-4.8c-1.3,0.3-2.3,1.5-2.8,3.1c-0.4,1.3-0.5,2.9-0.2,4.1c0.5,2.1,2.4,3.5,4.5,3.6   c0.1,0.4,0.1,0.8,0.1,1.1c0,0.5-0.3,0.9-0.5,1.4c-0.2,0.4-0.4,0.7-0.5,1.1c-0.6,1.5-0.6,3.2-0.3,5.1c0.1,0.6,0.6,1,1.2,1   c0.1,0,0.2,0,0.2,0c0.7-0.1,1.1-0.8,1-1.5c-0.3-1.4-0.2-2.7,0.2-3.7c0.1-0.3,0.3-0.6,0.4-0.8c0.3-0.6,0.7-1.4,0.8-2.4   c0.1-0.7,0-1.3-0.2-1.9c0.8-0.4,1.4-1,1.9-1.8C27.1,42.3,27.3,41,27,39.8L27,39.8z M22.9,43.2c-1.2,0.3-2.5-0.4-2.8-1.6   c-0.2-0.7-0.1-1.8,0.2-2.7c0.3-0.8,0.7-1.4,1.1-1.5c0.1,0,0.1,0,0.2,0c0.4,0,1,0.3,1.5,0.8c0.7,0.6,1.3,1.5,1.5,2.2   C24.9,41.6,24.1,42.9,22.9,43.2z"></path></g></svg>