<?xml version="1.0" encoding="utf-8"?>
<!-- Svg Vector Icons : http://www.onlinewebfonts.com/icon -->
<!DOCTYPE svg PUBLIC "-//W3C//DTD SVG 1.1//EN" "http://www.w3.org/Graphics/SVG/1.1/DTD/svg11.dtd">
<svg version="1.1" xmlns="http://www.w3.org/2000/svg" xmlns:xlink="http://www.w3.org/1999/xlink" x="0px" y="0px" viewBox="0 0 256 256" enable-background="new 0 0 256 256" xml:space="preserve">
<metadata> Svg Vector Icons : http://www.onlinewebfonts.com/icon </metadata>
<g> <path fill="#1da0d0" d="M196.6,116.7c-0.8,0-1.6-0.7-1.8-1.5c-0.2-1-1.3-1.5-2.3-1.1c-0.8,0.3-1.8,0-2.3-0.7l-0.5-0.7 c-0.3-0.5-0.5-1-0.3-1.5s0.5-1,1-1.3c0.5-0.3,0.8-0.8,0.8-1.5c0-0.8-0.7-1.6-1.6-1.6c-0.7,0-1.1-0.2-1.6-0.7 c-0.3-0.5-0.5-1.1-0.5-1.6v-0.3c0-1.1-1.1-2.1-2.5-1.5c-0.7,0.3-1.5,0.3-2.1-0.3c-0.7-0.5-0.8-1.3-0.7-2.1c0-0.2,0.2-0.3,0.2-0.5 c0-1.1-1.1-2.1-2.5-1.5c-0.7,0.3-1.3,0.3-2-0.2c-0.7-0.3-1-1-1-1.6c0-1,0-2,0.2-2.9c0-1,0.8-1.6,1.6-1.8s1.5-0.8,1.5-1.6 c0-1-1-1.8-2-1.6c-0.8,0.2-1.5-0.2-2-0.8c-0.7-1-2.1-1-2.8,0c-0.3,0.5-0.8,0.7-1.3,0.8c-0.5,0.2-1,0-1.5-0.3 c-0.3-0.2-1-0.5-1.6-0.2c-0.8,0.3-2,0-2.5-0.8l-0.8-1.3c-0.3-0.5-0.3-1.1-0.2-1.6c0.2-0.5,0.7-1,1.1-1.1c0.7-0.3,1-0.8,1-1.5 c0-1-0.8-1.6-1.6-1.6c-0.5,0-0.8,0.2-1.1,0.5c-0.5,0.3-1,0.5-1.6,0.5c-0.5-0.2-1-0.5-1.3-1l-0.7-1c-0.3-0.5-0.3-1.1-0.2-1.8 c0.3-0.7,0.8-1,1.5-1.1c0.8-0.2,1.3-0.8,1.3-1.6c0-0.7-0.5-1.3-1.1-1.6c-0.5-0.2-1-0.5-1.1-1c-0.2-0.5-0.3-1-0.2-1.5 c0-0.2,0.2-0.3,0.2-0.5c0-0.7-0.3-1.1-0.8-1.5c-0.5-0.3-0.8-0.7-1-1.3c-0.2-0.7,0-1.1,0.3-1.6c0.2-0.2,0.3-0.5,0.3-1 c0-1-0.8-1.6-1.6-1.6c-0.7,0-1,0.3-1.1,0.5c-0.3,0.5-0.8,0.7-1.5,0.7c-0.5,0-1.1-0.3-1.5-0.7l-0.3-0.3c-0.5-0.7-0.7-1.5-0.2-2.3 c0.2-0.3,0.3-0.5,0.3-0.8c0-1-1-1.8-2-1.6c-0.8,0.2-1.5-0.2-2-0.8c-0.3-0.5-0.8-0.8-1.3-0.8h-0.3c-1,0.2-1.8-0.3-2.3-1.1 c-0.3-0.7-0.5-1.3-0.8-2c-0.3-0.8,0-2,0.8-2.5c0.5-0.3,0.8-0.8,0.8-1.5c0-1-0.8-1.6-1.6-1.6c-0.2,0-0.3,0-0.5,0.2 c-0.7,0.2-1.3,0-1.8-0.3s-0.8-1-0.8-1.6v-0.2c0-0.8-0.8-1.6-1.6-1.6c-1.1,0-2-0.8-2-2c0-1-0.8-1.6-1.6-1.6c-0.5,0-1,0.3-1.1,0.5 c-0.7,0.5-1.5,0.7-2.1,0.3c-0.7-0.3-1.1-1-1.1-1.8v-0.2c0-0.8-0.8-1.6-1.6-1.6c-0.5,0-0.8,0.2-1,0.3c-0.5,0.3-1.1,0.5-1.8,0.3 c-0.7-0.2-1.1-0.7-1.3-1.3c-0.2-0.7-0.8-1.1-1.6-1.1s-1.6,0.7-1.6,1.6c0,0.8-0.5,1.5-1.1,1.8s-1.5,0.2-2.1-0.5 c-0.7-0.7-1.8-0.7-2.5,0.2c-0.5,0.7-1.1,0.8-2,0.7h-0.3c-1,0-1.6,0.8-1.6,1.6V42c0.2,0.8-0.2,1.6-0.8,2.1c-0.7,0.5-1.6,0.3-2.3-0.2 c-0.2-0.2-0.5-0.3-1-0.3c-1,0-1.6,0.8-1.6,1.6v0.2c0.2,0.7-0.2,1.5-0.8,2c-0.7,0.5-1.5,0.5-2,0.2c-1.1-0.7-2.5,0.3-2.5,1.5 c0,0.5,0.2,0.8,0.3,1c0.3,0.5,0.5,1.3,0.2,2s-0.8,1-1.5,1.1c-0.8,0.2-1.5,0.8-1.5,1.6c0,0.3,0,0.5,0.2,0.8c0.3,0.5,0.3,1.1,0.2,1.6 s-0.7,1-1.1,1.1c-0.5,0.2-0.8,0.5-1,1.1c-0.2,0.5-0.7,1-1.1,1.1c-0.5,0.2-1.1,0.2-1.6-0.2c-1.1-0.7-2.5,0.3-2.5,1.5 c0,0.2,0,0.5,0.2,0.7c0.3,0.8,0.2,1.6-0.3,2.3c-0.3,0.3-0.5,0.8-0.5,1.1c0,0.7,0.3,1.3,1,1.5c0.5,0.2,1,0.7,1.1,1.1 c0.2,0.5,0.2,1.1-0.2,1.6L95.5,71c-0.5,0.8-1.5,1.1-2.3,0.8c-0.2,0-0.3-0.2-0.5-0.2c-0.8,0-1.5,0.7-1.6,1.3 c-0.2,0.8-0.8,1.5-1.6,1.6c-0.8,0.2-1.6-0.3-2-1c-0.3-0.5-0.8-1-1.5-1s-1.3,0.3-1.5,1c-0.3,0.7-0.8,1-1.5,1.1 c-0.7,0-1.3-0.2-1.8-0.7c-0.3-0.3-0.8-0.7-1.3-0.7c-1,0-1.6,0.8-1.6,1.6c0,0.2,0,0.5,0.2,0.7c0.3,0.5,0.2,1.1,0,1.8 c-0.3,0.5-0.8,1-1.5,1c-0.8,0.2-1.5,0.8-1.5,1.6c0,0.5,0.2,0.8,0.5,1.1c0.5,0.5,0.7,1,0.5,1.6c-0.2,0.7-0.5,1.1-1,1.5 c-0.5,0.3-1,0.8-1,1.5s0.3,1.3,1,1.5c0.7,0.3,1,0.8,1.1,1.5c0.2,0.7-0.2,1.3-0.5,1.8c-0.3,0.3-0.5,0.7-0.5,1.1s0.2,0.8,0.5,1.1 c0.5,0.5,0.7,1.3,0.3,2c-0.3,0.7-1,1.1-1.6,1.1c-0.8,0-1.5,0.8-1.5,1.6c0,1.1-0.8,2-2,2c-1,0-1.6,0.8-1.6,1.6c0,1.1-0.8,2-2,2 c-1,0-1.6,0.8-1.6,1.6c0,1.1-0.8,2-2,2c-1,0-1.6,0.8-1.6,1.6c0,0.7,0.3,1.1,0.7,1.3c0.5,0.5,0.8,1.3,0.7,2v0.3c0,0.5,0.2,1,0.7,1.3 c0.8,0.7,1,2,0.2,2.8c-0.7,0.8-2,1-2.8,0.2c-1.3-1-2-2.6-2-4.2v-0.2c-0.8-1-1.1-2.1-1.1-3.4c0-2.5,1.6-4.6,3.9-5.2 c0.5-1.6,2-3.1,3.6-3.6c0.5-1.6,2-3.1,3.6-3.6c0.3-1.1,1.1-2.3,2.3-2.9c-0.2-0.5-0.2-0.8-0.2-1.3c0-0.7,0.2-1.5,0.3-2.1 c-1-1-1.5-2.3-1.5-3.8c0-1.3,0.5-2.6,1.3-3.6c-0.3-0.7-0.5-1.5-0.5-2.1c0-2,1.1-3.8,2.8-4.7V75c0-3.1,2.5-5.6,5.6-5.6 c0.8,0,1.6,0.2,2.5,0.7c1-0.8,2.3-1.3,3.6-1.3c1,0,2,0.3,2.8,0.7c0.5-0.5,1.1-1,1.8-1.3c-0.7-0.5-0.8-1.1-0.8-2 c0-1,0.3-2.1,0.8-2.9c-0.2-0.3-0.2-0.8-0.2-1.3c0-3.1,2.5-5.6,5.6-5.6h0.8c0.3-0.3,0.5-0.7,0.8-0.8v-0.8c0-2,1-3.6,2.6-4.6 c0-0.3-0.2-0.7-0.2-1c0-3.1,2.5-5.6,5.6-5.6h0.2c0.8-2.3,3.1-3.8,5.7-3.6c0.8-2.1,2.9-3.6,5.2-3.6c1.3-1.1,3.3-1.5,4.9-1.1 c1-1.6,2.8-2.6,4.7-2.6c1.6,0,3.1,0.7,4.3,2c0.5-0.2,1-0.2,1.5-0.2c2.1,0,3.9,1.1,4.9,2.9c0.3-0.2,0.8-0.2,1.1-0.2 c2.5,0,4.6,1.6,5.2,3.9c1.6,0.5,2.9,1.8,3.4,3.4c2.8,0.3,4.9,2.6,4.9,5.6c0,1.1-0.3,2.1-1,2.9c1,0.2,2,0.7,2.8,1.5 c2.6,0.2,4.7,2.1,5.2,4.6h0.5c3.1,0,5.6,2.5,5.6,5.6c0,0.5,0,1-0.2,1.5c1,1,1.5,2.3,1.5,3.8v0.2c1.5,1,2.3,2.6,2.3,4.6 c0,0.7-0.2,1.3-0.3,2c2.3,0.7,3.9,2.8,3.9,5.2c0,1-0.2,1.8-0.7,2.6c0.2,0,0.3,0.2,0.5,0.2c1-0.7,2.1-1.1,3.3-1.1 c1.5,0,2.8,0.7,3.9,1.6c2.9,0.2,5.2,2.6,5.2,5.6c0,1.8-0.8,3.3-2,4.2c2,0.5,3.4,2.1,3.9,4.1c2.6,0.2,4.7,2.1,5.1,4.6 c2.1,0.8,3.6,2.8,3.6,5.2c0,0.7-0.2,1.3-0.3,2c1.8,0.5,3.3,2,3.8,3.9c0.3,1-0.3,2.1-1.5,2.3C197,116.7,196.8,116.7,196.6,116.7 L196.6,116.7z"/> <path fill="#201d1b" d="M230.3,136.8h-54.3c-1.1,0-2-0.8-2-2c0-1.1,0.8-2,2-2h54.3c1.1,0,2,0.8,2,2 C232.3,136,231.3,136.8,230.3,136.8z M229.2,143.7h-53.8c-1.1,0-2-0.8-2-2s0.8-2,2-2h53.8c1.1,0,2,0.8,2,2 C231,142.9,230.1,143.7,229.2,143.7z M227.4,150.5h-53c-1.1,0-2-0.8-2-2c0-1.1,0.8-2,2-2h53c1.1,0,2,0.8,2,2 C229.3,149.6,228.5,150.5,227.4,150.5z M225.2,157.4h-52c-1.1,0-2-0.8-2-2c0-1.1,0.8-2,2-2h52.1c1.1,0,2,0.8,2,2 C227.4,156.6,226.4,157.4,225.2,157.4z M222.5,164.1h-50.8c-1.1,0-2-0.8-2-2s0.8-2,2-2h50.8c1.1,0,2,0.8,2,2 S223.6,164.1,222.5,164.1L222.5,164.1z M219.2,171h-49.4c-1.1,0-2-0.8-2-2c0-1.1,0.8-2,2-2h49.4c1.1,0,2,0.8,2,2 C221.2,170.2,220.3,171,219.2,171L219.2,171z M215.3,177.8h-47.6c-1.1,0-2-0.8-2-2c0-1.1,0.8-2,2-2h47.6c1.1,0,2,0.8,2,2 C217.2,177,216.4,177.8,215.3,177.8z M210.5,184.7h-45.4c-1.1,0-2-0.8-2-2c0-1.1,0.8-2,2-2h45.4c1.1,0,2,0.8,2,2 C212.5,183.9,211.7,184.7,210.5,184.7z M205.1,191.6h-43c-1.1,0-2-0.8-2-2s0.8-2,2-2h43c1.1,0,2,0.8,2,2 C206.9,190.6,206.1,191.6,205.1,191.6z M198.4,198.4h-39.9c-1.1,0-2-0.8-2-2c0-1.1,0.8-2,2-2h39.9c1.1,0,2,0.8,2,2 C200.4,197.5,199.6,198.4,198.4,198.4L198.4,198.4z M190.4,205.1h-36c-1.1,0-2-0.8-2-2s0.8-2,2-2h36c1.1,0,2,0.8,2,2 S191.6,205.1,190.4,205.1z M180.5,212h-30.9c-1.1,0-2-0.8-2-2c0-1.1,0.8-2,2-2h30.9c1.1,0,2,0.8,2,2 C182.3,211.2,181.4,212,180.5,212L180.5,212z M166.7,218.9h-23.4c-1.1,0-2-0.8-2-2c0-1.1,0.8-2,2-2h23.4c1.1,0,2,0.8,2,2 C168.7,218,167.9,218.9,166.7,218.9z M144.7,225.7h-9.5c-1.1,0-2-0.8-2-2s0.8-2,2-2h9.5c1.1,0,2,0.8,2,2S145.8,225.7,144.7,225.7z  M239.1,126.5H16.9c-3.8,0-6.9-3.1-6.9-6.9c0-3.8,3.1-6.9,6.9-6.9h222.3c3.8,0,6.9,3.1,6.9,6.9 C245.8,123.4,242.9,126.5,239.1,126.5z M16.7,116.7c-1.6,0-2.9,1.3-2.9,2.9c0,1.6,1.3,2.9,2.9,2.9H239c1.6,0,2.9-1.3,2.9-2.9 c0-1.6-1.3-2.9-2.9-2.9H16.7z"/> <path fill="#201d1b" d="M177.7,242.6H78.2c-0.8,0-1.6-0.7-2-1.5c-0.2-0.8,0.2-1.8,1-2.1c4.7-2.3,9.6-4.4,14.5-6 c-46.3-15.4-78.1-59-78.1-108.4c0-1.1,0.8-2,2-2s2,0.8,2,2C17.5,174.2,51,218,98.9,231c0.8,0.2,1.5,1,1.5,1.8 c0,0.8-0.7,1.6-1.5,1.8c-4.1,1.1-8,2.5-11.9,3.9h81.4c-3.9-1.5-7.8-2.9-11.9-3.9c-0.8-0.2-1.5-1-1.5-1.8c0-0.8,0.7-1.6,1.5-1.8 c47.9-12.9,81.4-56.7,81.4-106.4c0-1.1,0.8-2,2-2s2,0.8,2,2c0,49.4-31.7,93-78.1,108.4c5.1,1.6,9.8,3.6,14.5,6 c0.8,0.3,1.3,1.3,1,2.1C179.3,241.9,178.7,242.6,177.7,242.6L177.7,242.6z"/> <path fill="#201d1b" d="M123.3,234.9h-15c-1.1,0-2-0.8-2-2s0.8-2,2-2h15c1.1,0,2,0.8,2,2C125.2,233.9,124.2,234.9,123.3,234.9z"/> <path fill="#1da0d0" d="M31.2,242.6c-3.1,0-5.6-2.5-5.6-5.6s2.5-5.6,5.6-5.6c3.1,0,5.6,2.5,5.6,5.6S34.2,242.6,31.2,242.6z  M31.2,235.4c-1,0-1.6,0.8-1.6,1.6c0,1,0.8,1.6,1.6,1.6c1,0,1.6-0.8,1.6-1.6C32.9,236.2,32.1,235.4,31.2,235.4z M46.9,242.6 c-3.1,0-5.6-2.5-5.6-5.6s2.5-5.6,5.6-5.6c3.1,0,5.6,2.5,5.6,5.6S50,242.6,46.9,242.6z M46.9,235.4c-1,0-1.6,0.8-1.6,1.6 c0,1,0.8,1.6,1.6,1.6c1,0,1.6-0.8,1.6-1.6C48.6,236.2,47.9,235.4,46.9,235.4z M92.9,93.5c-3.1,0-5.6-2.5-5.6-5.6c0-1.1,0.8-2,2-2 c1.1,0,2,0.8,2,2c0,1,0.8,1.6,1.6,1.6c1,0,1.6-0.8,1.6-1.6c0-1.1,0.8-2,2-2c1.1,0,2,0.8,2,2C98.4,91.1,95.8,93.5,92.9,93.5 L92.9,93.5z M114.6,105.4c-3.1,0-5.6-2.5-5.6-5.6c0-1.1,0.8-2,2-2c1.1,0,2,0.8,2,2c0,1,0.8,1.6,1.6,1.6c0.8,0,1.6-0.8,1.6-1.6 c0-1.1,0.8-2,2-2s2,0.8,2,2C120.2,103,117.5,105.4,114.6,105.4L114.6,105.4z M119.8,70.3c-3.1,0-5.6-2.5-5.6-5.6c0-1.1,0.8-2,2-2 c1.1,0,2,0.8,2,2c0,1,0.8,1.6,1.6,1.6c1,0,1.6-0.8,1.6-1.6c0-1.1,0.8-2,2-2c1.1,0,2,0.8,2,2C125.4,67.9,122.8,70.3,119.8,70.3z  M139.4,80.3c-3.1,0-5.6-2.5-5.6-5.6c0-1.1,0.8-2,2-2c1.1,0,2,0.8,2,2c0,1,0.8,1.6,1.6,1.6c1,0,1.6-0.8,1.6-1.6c0-1.1,0.8-2,2-2 c1.1,0,2,0.8,2,2C145,77.8,142.5,80.3,139.4,80.3z M157.4,99.9c-3.1,0-5.6-2.5-5.6-5.6c0-1.1,0.8-2,2-2s2,0.8,2,2 c0,1,0.8,1.6,1.6,1.6c1,0,1.6-0.8,1.6-1.6c0-1.1,0.8-2,2-2s2,0.8,2,2C163,97.4,160.5,99.9,157.4,99.9z M205.3,242.6 c-3.1,0-5.6-2.5-5.6-5.6s2.5-5.6,5.6-5.6s5.6,2.5,5.6,5.6S208.4,242.6,205.3,242.6z M205.3,235.4c-1,0-1.6,0.8-1.6,1.6 c0,1,0.8,1.6,1.6,1.6c1,0,1.6-0.8,1.6-1.6C206.9,236.2,206.3,235.4,205.3,235.4z"/> <path fill="#201d1b" d="M204.7,116.6h-0.5c-1-0.3-1.6-1.3-1.5-2.3l24-96.4c0.3-1.5,1.3-2.8,2.6-3.6c1.3-0.8,2.9-1,4.4-0.7 c1.5,0.3,2.8,1.3,3.6,2.6c0.8,1.3,1,2.9,0.7,4.4l-23.4,94.5c-0.3,1-1.3,1.6-2.3,1.5c-1-0.3-1.6-1.3-1.5-2.3l23.5-94.5 c0.2-0.5,0-1-0.2-1.5c-0.3-0.5-0.7-0.8-1.1-0.8c-0.5-0.2-1,0-1.5,0.2c-0.5,0.3-0.8,0.7-0.8,1.1l-24,96.4 C206.3,115.9,205.6,116.6,204.7,116.6L204.7,116.6z"/></g>
</svg>