<?xml version="1.0" encoding="UTF-8" standalone="no"?><!-- Generator: Gravit.io --><svg xmlns="http://www.w3.org/2000/svg" xmlns:xlink="http://www.w3.org/1999/xlink" style="isolation:isolate" viewBox="370.643 425 148.185 148.266" width="148.185pt" height="148.266pt"><g><g><g><path d=" M 439.398 425.081 C 438.959 425.144 437.263 425.332 435.757 425.521 C 423.45 426.902 410.389 432.302 399.966 440.214 C 396.136 443.165 390.171 448.942 387.094 452.772 C 378.429 463.509 372.966 476.255 371.02 490.195 C 370.518 493.774 370.518 504.574 371.02 508.153 C 372.464 518.576 376.043 528.811 381.317 537.476 C 386.78 546.455 395.257 555.245 404.236 561.21 C 408.694 564.224 416.354 567.929 421.566 569.624 C 429.854 572.324 435.819 573.266 444.736 573.266 C 448.252 573.266 452.145 573.14 453.714 572.889 C 462.254 571.759 469.914 569.373 477.324 565.668 C 485.549 561.524 491.451 557.192 497.856 550.662 C 509.221 538.983 516.253 524.541 518.451 508.215 C 518.953 504.636 518.953 493.837 518.451 490.257 C 517.321 481.718 514.935 474.058 511.23 466.648 C 507.086 458.297 502.816 452.458 496.223 446.053 C 484.733 434.877 470.668 427.97 454.782 425.584 C 452.019 425.207 441.219 424.83 439.398 425.081 Z  M 454.028 431.737 C 466.586 433.37 478.077 438.267 487.935 446.242 C 489.379 447.435 490.635 448.502 490.635 448.565 C 490.572 448.879 394.503 545.01 394.189 545.01 C 394.127 545.01 393.059 543.817 391.866 542.31 C 385.148 533.959 380.501 524.352 378.178 513.804 C 376.231 504.762 376.294 493.209 378.304 484.041 C 382.134 466.9 392.369 452.018 406.936 442.286 C 420.499 433.307 437.326 429.539 454.028 431.737 Z  M 497.165 455.409 C 503.695 463.383 508.216 472.362 510.728 482.346 C 513.428 493.083 513.428 505.453 510.728 516.001 C 508.342 525.357 503.507 535.215 497.793 542.122 C 483.791 559.264 462.631 568.494 440.529 567.05 C 433.559 566.61 428.284 565.543 421.817 563.282 C 414.094 560.645 406.057 555.999 399.966 550.662 L 398.836 549.657 L 446.996 501.497 C 473.493 474.999 495.219 453.337 495.344 453.337 C 495.344 453.337 496.223 454.279 497.165 455.409 Z " fill="rgb(0,0,0)"/><path d=" M 446.87 438.456 C 442.475 441.281 436.95 446.304 434.877 449.381 C 432.931 452.269 432.68 453.023 432.68 457.795 C 432.68 460.872 432.805 462.818 433.182 464.451 C 433.433 465.707 433.622 466.774 433.559 466.837 C 433.496 466.837 432.68 466.334 431.738 465.581 C 427.405 462.127 419.431 457.355 418.175 457.355 C 417.108 457.355 416.04 457.921 415.475 458.674 C 414.596 459.993 414.031 464.702 414.031 470.981 C 414.031 476.506 414.031 477.072 414.659 478.892 C 416.292 483.665 421.943 488.876 431.612 494.527 C 434.877 496.411 435.631 496.788 436.761 496.788 L 438.08 496.788 L 449.947 484.983 C 461.312 473.618 461.752 473.179 460.998 472.865 C 459.931 472.488 456.603 474.183 451.328 477.762 C 446.933 480.651 445.049 482.158 442.726 484.355 L 441.219 485.737 L 441.219 482.158 L 441.219 478.641 L 442.977 477.323 C 445.615 475.376 452.459 468.469 453.84 466.334 C 454.531 465.33 455.41 463.76 455.849 462.881 C 457.733 458.737 456.603 450.26 452.961 440.716 C 451.705 437.074 450.01 436.446 446.87 438.456 Z  M 449.068 448.063 C 450.763 453.588 451.266 457.858 450.387 460.307 C 449.696 462.19 447.687 464.827 444.422 467.967 L 441.408 470.855 L 441.031 469.851 C 440.78 469.286 440.215 467.339 439.712 465.518 C 438.959 462.755 438.833 461.562 438.833 458.548 C 438.833 454.279 439.084 453.462 441.973 450.449 C 443.48 448.879 447.749 445.174 448.063 445.174 C 448.189 445.174 448.628 446.493 449.068 448.063 Z  M 422.257 466.397 C 425.208 468.218 429.603 471.609 431.612 473.618 C 433.998 476.004 434.877 477.637 435.191 480.274 C 435.443 482.283 435.066 488.374 434.626 488.813 C 434.124 489.378 426.715 484.23 423.638 481.153 C 421.001 478.516 420.31 476.946 420.185 473.053 C 420.059 469.976 420.31 465.518 420.624 465.518 C 420.687 465.518 421.44 465.895 422.257 466.397 Z " fill="rgb(0,0,0)"/><path d=" M 421.943 440.716 C 420.812 441.156 420.059 442.223 420.059 443.353 C 420.059 443.793 420.812 446.43 421.692 449.13 C 423.387 454.279 424.078 455.472 425.522 455.723 C 426.464 455.911 427.845 455.346 428.536 454.593 C 429.54 453.462 429.415 452.709 427.657 447.435 C 426.715 444.672 425.836 442.097 425.647 441.721 C 425.019 440.59 423.261 440.151 421.943 440.716 Z " fill="rgb(0,0,0)"/><path d=" M 468.407 440.653 C 467.905 440.842 467.34 441.218 467.152 441.47 C 466.712 442.035 463.321 452.081 463.321 452.897 C 463.321 453.211 463.573 453.902 463.886 454.404 C 464.828 455.911 467.152 456.162 468.533 454.907 C 469.035 454.467 472.552 444.421 472.552 443.416 C 472.614 441.344 470.291 439.837 468.407 440.653 Z " fill="rgb(0,0,0)"/><path d=" M 422.696 498.169 C 422.319 498.42 421.817 498.923 421.629 499.362 C 421.001 500.869 420.373 505.704 420.185 510.35 L 420.059 514.997 L 423.261 511.794 C 425.647 509.471 426.464 508.404 426.464 507.901 C 426.464 507.525 426.526 506.897 426.652 506.52 C 426.84 505.892 426.903 505.892 427.594 506.269 C 428.347 506.646 428.41 506.646 430.671 504.385 L 432.931 502.125 L 429.164 499.864 C 425.208 497.604 424.203 497.29 422.696 498.169 Z " fill="rgb(0,0,0)"/><path d=" M 452.27 500.429 C 445.489 507.148 439.587 513.113 439.147 513.615 L 438.331 514.557 L 439.524 515.876 C 440.215 516.629 440.905 517.76 441.031 518.45 C 441.47 519.957 441.533 528.873 441.094 529.376 C 440.717 529.752 435.631 526.425 432.68 523.976 L 430.608 522.218 L 428.347 524.478 L 426.087 526.739 L 428.033 528.371 C 430.357 530.255 436.698 534.587 439.524 536.157 C 441.031 536.973 441.47 537.413 441.596 538.041 C 441.659 538.48 442.412 543.378 443.291 548.966 L 444.798 559.138 L 445.74 560.08 C 447.122 561.461 449.005 561.336 450.261 559.766 C 450.952 558.95 450.889 558.008 449.884 551.478 C 449.445 548.401 449.068 545.827 449.131 545.764 C 449.131 545.764 450.575 544.759 452.208 543.692 C 460.245 538.292 465.582 532.829 466.838 528.685 C 467.968 524.98 468.031 519.455 467.089 512.422 C 466.461 508.09 465.77 507.085 463.384 507.085 C 461.752 507.085 453.401 512.736 449.194 516.692 L 447.373 518.387 L 446.996 517.194 C 446.556 515.75 445.363 513.301 444.736 512.548 C 444.484 512.297 444.359 511.983 444.422 511.983 C 444.484 511.92 445.615 511.229 446.996 510.413 C 455.724 505.202 460.998 500.492 463.133 496.034 C 464.075 494.025 464.828 490.76 464.64 489.19 C 464.64 488.248 464.012 488.751 452.27 500.429 Z  M 461.689 520.46 C 461.752 525.357 461.312 526.927 459.428 529.501 C 457.984 531.448 454.656 534.462 450.952 537.099 L 448.377 538.92 L 448.126 537.664 C 448.001 536.973 447.938 534.587 448.001 532.327 C 448.063 528.685 448.189 528.12 448.817 526.676 C 450.135 523.85 453.338 520.648 458.612 516.88 C 461.061 515.122 461.124 515.122 461.375 515.75 C 461.5 516.127 461.626 518.262 461.689 520.46 Z " fill="rgb(0,0,0)"/></g></g></g></svg>