<?xml version="1.0" encoding="UTF-8"?>
<svg id="Ebene_1" xmlns="http://www.w3.org/2000/svg" viewBox="0 0 140.445 148.045">
  <defs>
    <style>
      .cls-1, .cls-2, .cls-3 {
        stroke: #000;
        stroke-miterlimit: 10;
      }

      .cls-1, .cls-3 {
        fill: #1a1b1c;
      }

      .cls-2 {
        fill: #fefefe;
      }

      .cls-2, .cls-3 {
        stroke-width: 2px;
      }
    </style>
  </defs>
  <path class="cls-3" d="M42.59,112.342c10.407,8.612,24.753,10.913,37.757,7.722,5.363-1.315,11.596-5.296,11.87-4.719-13.175,13.158-39.081,13.521-49.627-3.003h0Z"/>
  <g>
    <path class="cls-1" d="M73.769.501c6.011.002,8.106,4.8,10.154,9.868,2.069,5.119,6.148,16.213-1.144,18.307.835,9.442-10.575,10.854-16.733,5.291-11.271.036-10.641-6.044-11.442-6.293-7.163,3.511-12.606.093-16.447-6.15.084-1.395,4.167,2.376,5.577,3.004,7.889,3.513,11.077-.495,17.735-4.005-2.367,4.638-.243,5.075-.429,5.292-.433.502-4.325-.951-2.575,2.574.498,1.002,5.206,3.179,7.58,1.859,3.031-1.685,1.242-12.157,2.574-15.446,4.737,10.148-1.579,19.041,7.295,11.87l.143-13.586c1.565,4.18,3.468,8.41,3.289,13.015.408.654,3.794-.908,4.291-2.002,1.222-2.696-4.199-17.659-7.294-20.166-10.117.301-30.673,2.368-38.615,8.009-6.691,4.752-7.541,12.762-10.726,19.879C17.367,53.349,6.064,71.487,4.119,95.894c-.433,5.434-1.515,18.251,3.003,21.596,2.303,1.705,32.022,15.734,36.041,17.162,16.703,5.937,35.805,6.932,52.488.429l-5.721-5.72c1.234-2.357,26.623,20.187,42.906,13.729-11.742-3.159-24.897-17.565-30.892-27.746-.986-1.674-3.985-7.141-3.003-7.008,10.83,12.041,21.836,24.076,34.896,33.753,1.442-.201,2.616-16.247,2.717-18.45.192-4.183.103-30.547-1.287-32.465-13.832-7.44-32.556-7.307-44.622,3.433-1.381.294-3.505-2.143-4.862-2.861-24.419-12.913-33.861,3.703-54.491,11.299,26.431-12.63,3.274-35.075,11.156-62.07.261-.894,3.027-7.841,4.147-7.295-2.289,8.273-2.964,17.014-2.431,25.601.657,10.575,5.41,21.218,2.574,31.75l.43.429c13.031-9.998,29.532-9.708,43.192-.858,11.127-9.161,30.553-9.929,43.192-4.005,6.098,2.859,5.481,3.57,6.149,14.731.334,5.564.317,18.673,0,24.314-.248,4.428-.829,19.012-5.005,20.737-9.169,3.787-27.464-2.331-35.183-8.581-21.59,7.017-40.677,6.769-61.784-1.716-4.527-1.82-32.562-15.381-34.467-17.591-5.709-6.627-1.162-33.661,1.144-42.334,4.066-15.291,12.667-30.197,19.165-44.622,4.988-11.074,4.846-20.022,17.877-25.314C47.054,3.944,67.774.497,73.77.5h0Z"/>
    <path class="cls-2" d="M77.487,29.676c4.148-1.065,1.846,5.014-4.291,4.291-2.726-.321-6.868-2.763.286-1.716,2.406-.732,3.774-2.515,4.005-2.574h0Z"/>
  </g>
</svg>