<?xml version="1.0" encoding="UTF-8" standalone="no"?><!-- Generator: Gravit.io --><svg xmlns="http://www.w3.org/2000/svg" xmlns:xlink="http://www.w3.org/1999/xlink" style="isolation:isolate" viewBox="385 430 139.445 147.045" width="139.445pt" height="147.045pt"><g><g><path d=" M 427.09 541.842 C 437.497 550.454 451.843 552.755 464.847 549.564 C 470.21 548.249 476.443 544.268 476.717 544.845 C 463.542 558.003 437.636 558.366 427.09 541.842 L 427.09 541.842 Z " fill="rgb(26,27,28)"/><g><path d=" M 458.269 430.001 C 464.28 430.003 466.375 434.801 468.423 439.869 C 470.492 444.988 474.571 456.082 467.279 458.176 C 468.114 467.618 456.704 469.03 450.546 463.467 C 439.275 463.503 439.905 457.423 439.104 457.174 C 431.941 460.685 426.498 457.267 422.657 451.024 C 422.741 449.629 426.824 453.4 428.234 454.028 C 436.123 457.541 439.311 453.533 445.969 450.023 C 443.602 454.661 445.726 455.098 445.54 455.315 C 445.107 455.817 441.215 454.364 442.965 457.889 C 443.463 458.891 448.171 461.068 450.545 459.748 C 453.576 458.063 451.787 447.591 453.119 444.302 C 457.856 454.45 451.54 463.343 460.414 456.172 L 460.557 442.586 C 462.122 446.766 464.025 450.996 463.846 455.601 C 464.254 456.255 467.64 454.693 468.137 453.599 C 469.359 450.903 463.938 435.94 460.843 433.433 C 450.726 433.734 430.17 435.801 422.228 441.442 C 415.537 446.194 414.687 454.204 411.502 461.321 C 401.867 482.849 390.564 500.987 388.619 525.394 C 388.186 530.828 387.104 543.645 391.622 546.99 C 393.925 548.695 423.644 562.724 427.663 564.152 C 444.366 570.089 463.468 571.084 480.151 564.581 L 474.43 558.861 C 475.664 556.504 501.053 579.048 517.336 572.59 C 505.594 569.431 492.439 555.025 486.444 544.844 C 485.458 543.17 482.459 537.703 483.441 537.836 C 494.271 549.877 505.277 561.912 518.337 571.589 C 519.779 571.388 520.953 555.342 521.054 553.139 C 521.246 548.956 521.157 522.592 519.767 520.674 C 505.935 513.234 487.211 513.367 475.145 524.107 C 473.764 524.401 471.64 521.964 470.283 521.246 C 445.864 508.333 436.422 524.949 415.792 532.545 C 442.223 519.915 419.066 497.47 426.948 470.475 C 427.209 469.581 429.975 462.634 431.095 463.18 C 428.806 471.453 428.131 480.194 428.664 488.781 C 429.321 499.356 434.074 509.999 431.238 520.531 L 431.668 520.96 C 444.699 510.962 461.2 511.252 474.86 520.102 C 485.987 510.941 505.413 510.173 518.052 516.097 C 524.15 518.956 523.533 519.667 524.201 530.828 C 524.535 536.392 524.518 549.501 524.201 555.142 C 523.953 559.57 523.372 574.154 519.196 575.879 C 510.027 579.666 491.732 573.548 484.013 567.298 C 462.423 574.315 443.336 574.067 422.229 565.582 C 417.702 563.762 389.667 550.201 387.762 547.991 C 382.053 541.364 386.6 514.33 388.906 505.657 C 392.972 490.366 401.573 475.46 408.071 461.035 C 413.059 449.961 412.917 441.013 425.948 435.721 C 431.554 433.444 452.274 429.997 458.27 430 L 458.269 430.001 Z " fill="rgb(26,27,28)"/><path d=" M 461.987 459.176 C 466.135 458.111 463.833 464.19 457.696 463.467 C 454.97 463.146 450.828 460.704 457.982 461.751 C 460.388 461.019 461.756 459.236 461.987 459.177 L 461.987 459.176 Z " fill="rgb(254,254,254)"/></g></g></g></svg>