<?xml version="1.0" encoding="UTF-8" standalone="no"?><!-- Generator: Gravit.io --><svg xmlns="http://www.w3.org/2000/svg" xmlns:xlink="http://www.w3.org/1999/xlink" style="isolation:isolate" viewBox="336.465 430 207.535 146.111" width="207.535pt" height="146.111pt"><g><path d=" M 480.725 447.078 C 480.725 447.078 469.471 453.231 461.583 472.941 C 453.627 492.626 452.61 511.771 448.434 527.506 C 444.191 543.215 428.501 573.372 428.501 573.372 C 428.501 573.372 441.747 578.412 450.277 574.818 C 458.806 571.224 474.044 554.688 480.251 523.359 C 486.391 492.004 481.51 465.958 480.734 454.827 C 480.955 448.557 480.725 447.078 480.725 447.078 Z " fill="rgb(161,205,106)"/><path d=" M 480.725 447.078 C 480.725 447.078 469.471 453.231 461.583 472.941 C 453.627 492.626 452.61 511.771 448.434 527.506 C 444.191 543.215 428.501 573.372 428.501 573.372 C 428.501 573.372 431.803 572.189 436.528 568.199 C 441.184 564.183 450.807 553.633 457.014 522.304 C 462.479 479.546 480.725 447.078 480.725 447.078 Z " fill="rgb(105,168,78)"/><path d=" M 336.465 430.626 C 336.465 430.626 369.44 425.294 396.538 445.753 C 423.745 466.213 451.387 496.249 486.648 515.403 C 519.731 533.251 544 538.692 544 538.692 C 544 538.692 513.419 583.094 460.202 550.664 C 406.985 518.233 388.702 502.779 366.719 480.143 C 344.627 457.398 336.465 430.626 336.465 430.626 L 336.465 430.626 Z " fill="rgb(79,182,112)"/><path d=" M 336.465 430.626 C 336.465 430.626 369.44 425.294 396.538 445.753 C 423.745 466.213 451.387 496.249 486.648 515.403 C 519.731 533.251 544 538.692 544 538.692 C 544 538.692 530.832 551.425 477.615 518.995 C 424.398 486.564 408.944 468.934 386.852 446.297 C 372.813 431.714 336.465 430.626 336.465 430.626 Z " fill="rgb(63,147,79)"/><path d=" M 385.546 471.328 C 385.546 478.837 391.641 484.931 399.15 484.931 C 406.659 484.931 412.753 478.837 412.753 471.328 C 412.753 471.328 412.753 471.328 412.753 471.328 C 412.753 463.819 406.659 457.724 399.15 457.724 C 391.641 457.724 385.546 463.819 385.546 471.328 L 385.546 471.328 Z " fill="rgb(63,147,79)"/><path d=" M 382.39 462.404 C 382.39 469.26 387.94 474.81 394.797 474.81 C 401.653 474.81 407.203 469.26 407.203 462.404 C 407.203 455.548 401.653 449.998 394.797 449.998 C 387.94 449.998 382.39 455.548 382.39 462.404 L 382.39 462.404 Z " fill="rgb(208,226,145)"/><path d=" M 412.971 498.317 C 412.971 505.826 419.065 511.921 426.574 511.921 C 434.084 511.921 440.178 505.826 440.178 498.317 C 440.178 490.808 434.084 484.714 426.574 484.714 C 419.065 484.714 412.971 490.808 412.971 498.317 Z  M 445.619 521.389 C 445.619 528.898 451.714 534.992 459.223 534.992 C 466.732 534.992 472.826 528.898 472.826 521.389 C 472.826 513.88 466.732 507.785 459.223 507.785 C 451.714 507.785 445.619 513.88 445.619 521.389 Z  M 480.444 541.413 C 480.444 548.922 486.539 555.017 494.048 555.017 C 501.557 555.017 507.651 548.922 507.651 541.413 C 507.651 533.904 501.557 527.81 494.048 527.81 C 486.539 527.81 480.444 533.904 480.444 541.413 Z " fill="rgb(63,147,79)"/><path d=" M 410.577 489.393 C 410.577 496.249 416.127 501.8 422.983 501.8 C 429.839 501.8 435.39 496.249 435.39 489.393 L 435.39 489.393 C 435.39 482.537 429.839 476.987 422.983 476.987 C 416.127 476.987 410.577 482.537 410.577 489.393 L 410.577 489.393 Z  M 443.007 512.138 C 443.007 518.995 448.558 524.545 455.414 524.545 C 462.27 524.545 467.82 518.995 467.82 512.138 L 467.82 512.138 C 467.82 505.282 462.27 499.732 455.414 499.732 C 448.558 499.732 443.007 505.282 443.007 512.138 L 443.007 512.138 Z  M 476.418 533.795 C 476.418 540.651 481.968 546.202 488.824 546.202 C 495.68 546.202 501.231 540.651 501.231 533.795 C 501.231 526.939 495.68 521.389 488.824 521.389 C 481.968 521.389 476.418 526.939 476.418 533.795 L 476.418 533.795 Z " fill="rgb(208,226,145)"/></g></svg>