<?xml version="1.0" encoding="UTF-8" standalone="no"?><!-- Generator: Gravit.io --><svg xmlns="http://www.w3.org/2000/svg" xmlns:xlink="http://www.w3.org/1999/xlink" style="isolation:isolate" viewBox="343.449 403.092 194.73 176.725" width="194.73pt" height="176.725pt"><g><g><path d=" M 488.576 561.799 L 488.576 561.799 C 475.936 561.952 398.331 563.031 393.762 561.767 C 393.641 561.734 393.521 561.7 393.401 561.664 C 369.408 547.75 349.145 514.717 350.028 486.74 C 350.351 476.488 356.084 480.057 363.205 480.067 C 414.737 480.136 466.292 480.408 517.822 480.134 C 528.45 480.078 534.452 474.687 530.305 499.217 C 525.903 525.255 510.768 546.799 488.915 561.514 L 488.576 561.799 L 488.576 561.799 L 488.576 561.799 Z " fill="rgb(253,207,71)"/><path d=" M 488.576 561.799 L 488.576 561.799 L 488.594 562.247 C 488.779 567.072 488.81 571.52 483.043 572.947 C 478.95 573.959 410.325 572.172 398.727 572.947 C 393.449 571.677 392.895 568.337 393.401 563.494 L 393.763 561.767 C 393.642 561.734 393.522 561.7 393.402 561.664 C 393.522 561.699 393.643 561.733 393.763 561.767 C 398.332 563.031 475.937 561.952 488.577 561.799 L 488.577 561.799 L 488.576 561.799 Z " fill="rgb(242,169,42)"/><g><path d=" M 507.809 406.205 C 512.087 404.839 512.228 409.94 512.913 410.931 C 514.966 413.904 526.109 415.882 514.236 420.572 C 507.878 433.31 507.421 424.958 505.729 422.652 C 503.091 419.056 496.502 418.987 499.301 414.712 C 499.783 413.975 502.544 414.252 505.729 410.175 C 506.645 409.002 506.164 406.73 507.809 406.205 Z " fill="rgb(54,57,57)"/><path d=" M 508.565 415.279 C 510.99 414.687 510.449 418.304 508.943 418.304 C 508.196 418.304 506.803 415.709 508.565 415.279 Z " fill="rgb(254,254,254)"/></g></g><g><mask id="_mask_nel0ZcEpbwLrl6SW2Dit5gIOmv2pnCYW" x="-200%" y="-200%" width="400%" height="400%"><rect x="-200%" y="-200%" width="400%" height="400%" style="fill:white;"/><path d=" M 357.551 477.665 C 355.799 464.773 365.148 463.653 366.344 461.967 C 368.639 458.736 367.258 447.665 381.563 448.314 C 387.848 431.997 398.138 437.788 400.913 436.226 C 406.972 422.537 417.787 429.262 420.219 428.706 C 430.607 416.758 438.581 425.493 440.592 425.491 C 443.098 425.49 451.165 416.727 461.357 428.615 C 478.42 423.957 479.564 436.202 481.671 437.091 C 496.573 433.829 497.638 445.88 499.741 447.461 C 502.076 449.217 511.919 446.189 514.898 461.444 C 516.566 463.564 526.428 465.279 523.838 477.663" fill="black" stroke="none"/></mask><path d=" M 357.551 477.665 C 355.799 464.773 365.148 463.653 366.344 461.967 C 368.639 458.736 367.258 447.665 381.563 448.314 C 387.848 431.997 398.138 437.788 400.913 436.226 C 406.972 422.537 417.787 429.262 420.219 428.706 C 430.607 416.758 438.581 425.493 440.592 425.491 C 443.098 425.49 451.165 416.727 461.357 428.615 C 478.42 423.957 479.564 436.202 481.671 437.091 C 496.573 433.829 497.638 445.88 499.741 447.461 C 502.076 449.217 511.919 446.189 514.898 461.444 C 516.566 463.564 526.428 465.279 523.838 477.663" fill="none" mask="url(#_mask_nel0ZcEpbwLrl6SW2Dit5gIOmv2pnCYW)" vector-effect="non-scaling-stroke" stroke-width="13.102" stroke="rgb(55,57,58)" stroke-linejoin="round" stroke-linecap="round" stroke-miterlimit="4"/><path d=" M 357.551 477.665 C 355.799 464.773 365.148 463.653 366.344 461.967 C 368.639 458.736 367.258 447.665 381.563 448.314 C 387.848 431.997 398.138 437.788 400.913 436.226 C 406.972 422.537 417.787 429.262 420.219 428.706 C 430.607 416.758 438.581 425.493 440.592 425.491 C 443.098 425.49 451.165 416.727 461.357 428.615 C 478.42 423.957 479.564 436.202 481.671 437.091 C 496.573 433.829 497.638 445.88 499.741 447.461 C 502.076 449.217 511.919 446.189 514.898 461.444 C 516.566 463.564 526.428 465.279 523.838 477.663" fill="none"/><mask id="_mask_8aPtP4ESbJ5QHTyGLOHwXALzf5csHtlp" x="-200%" y="-200%" width="400%" height="400%"><rect x="-200%" y="-200%" width="400%" height="400%" style="fill:white;"/><path d=" M 488.576 561.799 L 488.915 561.515 C 510.768 546.8 525.903 525.256 530.305 499.218 C 534.452 474.688 528.45 480.078 517.822 480.135 C 466.292 480.41 414.737 480.137 363.205 480.067 C 356.085 480.058 350.352 476.488 350.028 486.74 C 349.145 514.717 369.408 547.75 393.401 561.665 C 393.521 561.7 393.642 561.734 393.762 561.768 C 398.331 563.032 475.936 561.953 488.576 561.8 L 488.576 561.8 L 488.576 561.799 Z " fill="black" stroke="none"/></mask><path d=" M 488.576 561.799 L 488.915 561.515 C 510.768 546.8 525.903 525.256 530.305 499.218 C 534.452 474.688 528.45 480.078 517.822 480.135 C 466.292 480.41 414.737 480.137 363.205 480.067 C 356.085 480.058 350.352 476.488 350.028 486.74 C 349.145 514.717 369.408 547.75 393.401 561.665 C 393.521 561.7 393.642 561.734 393.762 561.768 C 398.331 563.032 475.936 561.953 488.576 561.8 L 488.576 561.8 L 488.576 561.799 Z " fill="none" mask="url(#_mask_8aPtP4ESbJ5QHTyGLOHwXALzf5csHtlp)" vector-effect="non-scaling-stroke" stroke-width="13.102" stroke="rgb(55,57,58)" stroke-linejoin="round" stroke-linecap="round" stroke-miterlimit="4"/><path d=" M 488.576 561.799 L 488.915 561.515 C 510.768 546.8 525.903 525.256 530.305 499.218 C 534.452 474.688 528.45 480.078 517.822 480.135 C 466.292 480.41 414.737 480.137 363.205 480.067 C 356.085 480.058 350.352 476.488 350.028 486.74 C 349.145 514.717 369.408 547.75 393.401 561.665 C 393.521 561.7 393.642 561.734 393.762 561.768 C 398.331 563.032 475.936 561.953 488.576 561.8 L 488.576 561.8 L 488.576 561.799 Z " fill="none"/><mask id="_mask_atYZ72ktjwEWbZm72k3xDfaLYq6I5Z7d" x="-200%" y="-200%" width="400%" height="400%"><rect x="-200%" y="-200%" width="400%" height="400%" style="fill:white;"/><path d=" M 393.401 563.494 C 392.895 568.337 393.449 571.676 398.727 572.947 C 410.325 572.172 478.95 573.959 483.043 572.947 C 488.81 571.52 488.779 567.072 488.594 562.247 C 488.588 562.098 488.582 561.949 488.576 561.799" fill="black" stroke="none"/></mask><path d=" M 393.401 563.494 C 392.895 568.337 393.449 571.676 398.727 572.947 C 410.325 572.172 478.95 573.959 483.043 572.947 C 488.81 571.52 488.779 567.072 488.594 562.247 C 488.588 562.098 488.582 561.949 488.576 561.799" fill="none" mask="url(#_mask_atYZ72ktjwEWbZm72k3xDfaLYq6I5Z7d)" vector-effect="non-scaling-stroke" stroke-width="13.102" stroke="rgb(55,57,58)" stroke-linejoin="round" stroke-linecap="round" stroke-miterlimit="4"/><path d=" M 393.401 563.494 C 392.895 568.337 393.449 571.676 398.727 572.947 C 410.325 572.172 478.95 573.959 483.043 572.947 C 488.81 571.52 488.779 567.072 488.594 562.247 C 488.588 562.098 488.582 561.949 488.576 561.799" fill="none"/><mask id="_mask_ARjs2blMMNV9F3OZLiBgz6wCYE1UO1FF" x="-200%" y="-200%" width="400%" height="400%"><rect x="-200%" y="-200%" width="400%" height="400%" style="fill:white;"/><line x1="352.221" y1="490.899" x2="516.315" y2="490.899" fill="black" stroke="none"/></mask><line x1="352.221" y1="490.899" x2="516.315" y2="490.899" mask="url(#_mask_ARjs2blMMNV9F3OZLiBgz6wCYE1UO1FF)" vector-effect="non-scaling-stroke" stroke-width="13.102" stroke="rgb(55,57,58)" stroke-linejoin="round" stroke-linecap="round" stroke-miterlimit="4"/><mask id="_mask_LD2VzN2HZcCDBd7RvTZcF2MfbBNSDUbB" x="-200%" y="-200%" width="400%" height="400%"><rect x="-200%" y="-200%" width="400%" height="400%" style="fill:white;"/><path d=" M 381.391 412.932 C 372.521 402.842 358.325 418.944 374.802 421.572" fill="black" stroke="none"/></mask><path d=" M 381.391 412.932 C 372.521 402.842 358.325 418.944 374.802 421.572" fill="none" mask="url(#_mask_LD2VzN2HZcCDBd7RvTZcF2MfbBNSDUbB)" vector-effect="non-scaling-stroke" stroke-width="13.102" stroke="rgb(56,58,58)" stroke-linejoin="round" stroke-linecap="round" stroke-miterlimit="4"/><path d=" M 381.391 412.932 C 372.521 402.842 358.325 418.944 374.802 421.572" fill="none"/><mask id="_mask_nQwkCZLsX5wHwwNe4vlovx38hZHb7HMQ" x="-200%" y="-200%" width="400%" height="400%"><rect x="-200%" y="-200%" width="400%" height="400%" style="fill:white;"/><path d=" M 372.485 506.478 C 376.286 522.503 387.131 536.542 401.864 544.044" fill="black" stroke="none"/></mask><path d=" M 372.485 506.478 C 376.286 522.503 387.131 536.542 401.864 544.044" fill="none" mask="url(#_mask_nQwkCZLsX5wHwwNe4vlovx38hZHb7HMQ)" vector-effect="non-scaling-stroke" stroke-width="13.102" stroke="rgb(56,58,60)" stroke-linejoin="round" stroke-linecap="round" stroke-miterlimit="4"/><path d=" M 372.485 506.478 C 376.286 522.503 387.131 536.542 401.864 544.044" fill="none"/><mask id="_mask_BUdKB2dVAwesgs1vkJNFBuURuxQIYB7l" x="-200%" y="-200%" width="400%" height="400%"><rect x="-200%" y="-200%" width="400%" height="400%" style="fill:white;"/><path d=" M 412.709 457.464 C 405.643 457.418 402.338 459.23 397.706 464.57" fill="black" stroke="none"/></mask><path d=" M 412.709 457.464 C 405.643 457.418 402.338 459.23 397.706 464.57" fill="none" mask="url(#_mask_BUdKB2dVAwesgs1vkJNFBuURuxQIYB7l)" vector-effect="non-scaling-stroke" stroke-width="13.102" stroke="rgb(57,59,59)" stroke-linejoin="round" stroke-linecap="round" stroke-miterlimit="4"/><path d=" M 412.709 457.464 C 405.643 457.418 402.338 459.23 397.706 464.57" fill="none"/><mask id="_mask_aEoj6PIVfV9W6LgFJa114wvHrmPGHP09" x="-200%" y="-200%" width="400%" height="400%"><rect x="-200%" y="-200%" width="400%" height="400%" style="fill:white;"/><path d=" M 431.641 457.354 C 437.849 457.62 442.186 459.526 445.271 465.159" fill="black" stroke="none"/></mask><path d=" M 431.641 457.354 C 437.849 457.62 442.186 459.526 445.271 465.159" fill="none" mask="url(#_mask_aEoj6PIVfV9W6LgFJa114wvHrmPGHP09)" vector-effect="non-scaling-stroke" stroke-width="13.102" stroke="rgb(56,57,58)" stroke-linejoin="round" stroke-linecap="round" stroke-miterlimit="4"/><path d=" M 431.641 457.354 C 437.849 457.62 442.186 459.526 445.271 465.159" fill="none"/><mask id="_mask_eYgAR9F5P4YxuoUVwIRx0SmlEbj1oRcI" x="-200%" y="-200%" width="400%" height="400%"><rect x="-200%" y="-200%" width="400%" height="400%" style="fill:white;"/><path d=" M 452.045 449.678 C 446.622 444.793 442.454 443.025 435.442 445.534" fill="black" stroke="none"/></mask><path d=" M 452.045 449.678 C 446.622 444.793 442.454 443.025 435.442 445.534" fill="none" mask="url(#_mask_eYgAR9F5P4YxuoUVwIRx0SmlEbj1oRcI)" vector-effect="non-scaling-stroke" stroke-width="13.102" stroke="rgb(56,57,58)" stroke-linejoin="round" stroke-linecap="round" stroke-miterlimit="4"/><path d=" M 452.045 449.678 C 446.622 444.793 442.454 443.025 435.442 445.534" fill="none"/><mask id="_mask_RmPvAKqgzdOCnJQixggaq87rzPjEcqLA" x="-200%" y="-200%" width="400%" height="400%"><rect x="-200%" y="-200%" width="400%" height="400%" style="fill:white;"/><path d=" M 472.468 457.418 C 479.406 457.532 482.853 459.343 486.948 465.086" fill="black" stroke="none"/></mask><path d=" M 472.468 457.418 C 479.406 457.532 482.853 459.343 486.948 465.086" fill="none" mask="url(#_mask_RmPvAKqgzdOCnJQixggaq87rzPjEcqLA)" vector-effect="non-scaling-stroke" stroke-width="13.102" stroke="rgb(56,58,58)" stroke-linejoin="round" stroke-linecap="round" stroke-miterlimit="4"/><path d=" M 472.468 457.418 C 479.406 457.532 482.853 459.343 486.948 465.086" fill="none"/></g></g></svg>