<?xml version="1.0" encoding="UTF-8" standalone="no"?><!-- Generator: Gravit.io --><svg xmlns="http://www.w3.org/2000/svg" xmlns:xlink="http://www.w3.org/1999/xlink" style="isolation:isolate" viewBox="350.322 436.63 197.956 136.636" width="197.956pt" height="136.636pt"><g><path d=" M 352.077 492.961 L 546.818 492.961 C 551.745 494.339 542.773 513.183 540.963 516.551 C 529.915 537.098 509.555 552.434 487.761 560.049 C 491.925 561.513 501.481 558.512 502.819 564.733 C 503.617 568.45 501.171 571.896 497.632 572.931 C 482.261 572.121 407.339 573.992 400.931 572.931 C 396.313 572.166 394.15 566.525 396.749 562.725 C 399.436 558.795 406.971 561.666 410.802 560.047 C 390.627 553.419 371.016 539.184 359.942 520.898 C 357.442 516.767 346 493.959 352.08 492.959 L 352.077 492.961 Z " fill="rgb(29,25,26)"/><g><path d=" M 420.41 446.94 C 420.54 446.81 420.67 446.68 420.8 446.56 C 421.75 445.59 422.74 444.65 423.75 443.74 C 425.11 442.55 426.56 441.46 428.09 440.49 C 429.9 439.35 431.83 438.44 433.86 437.77 C 436.18 437.02 438.6 436.63 441.04 436.63 C 444.01 436.66 446.95 437.19 449.75 438.21 C 451.37 438.79 452.95 439.49 454.46 440.31 C 455.64 440.95 456.79 441.64 457.91 442.38 C 460 441.42 462.17 440.63 464.4 440.03 C 466.76 439.39 469.19 439.06 471.64 439.04 C 474.56 439.03 477.46 439.58 480.18 440.64 C 482.52 441.57 484.7 442.85 486.64 444.44 C 488.29 445.78 489.8 447.29 491.15 448.93 C 492.15 450.16 493.11 451.43 494.01 452.74 C 494.11 452.87 494.2 453.01 494.3 453.15 C 496.07 452.92 497.85 452.8 499.63 452.79 C 499.63 452.79 499.63 452.79 499.63 452.79 L 499.85 452.79 C 499.86 452.79 499.86 452.79 499.86 452.79 C 502.47 452.79 505.08 453.13 507.6 453.82 C 510.11 454.51 512.49 455.62 514.64 457.08 C 516.84 458.62 518.78 460.49 520.4 462.64 C 521.92 464.66 523.22 466.84 524.27 469.13 C 524.42 469.17 524.58 469.2 524.73 469.23 C 525.93 469.46 527.13 469.77 528.3 470.15 C 529.92 470.7 531.47 471.45 532.89 472.4 C 534.69 473.62 536.27 475.12 537.58 476.84 C 539.23 479.04 540.56 481.47 541.51 484.05 C 541.63 484.39 541.69 484.74 541.69 485.09 C 541.69 485.52 541.6 485.94 541.42 486.34 C 541.09 487.07 540.48 487.63 539.72 487.91 C 539.39 488.03 539.05 488.09 538.7 488.09 C 538.27 488.09 537.84 488 537.45 487.82 C 536.72 487.49 536.16 486.88 535.88 486.13 C 535.13 484.11 534.09 482.2 532.8 480.47 C 531.88 479.27 530.78 478.23 529.54 477.38 C 528.57 476.73 527.52 476.22 526.41 475.85 C 525.49 475.55 524.55 475.3 523.59 475.11 C 523.09 475.02 522.59 474.91 522.1 474.77 C 521.07 474.53 520.15 473.96 519.47 473.15 C 518.49 470.69 517.19 468.36 515.6 466.24 C 514.37 464.62 512.89 463.19 511.22 462.02 C 509.63 460.94 507.87 460.12 506.01 459.61 C 504.01 459.07 501.95 458.79 499.88 458.79 L 499.67 458.79 C 497.45 458.8 495.23 459.02 493.05 459.43 C 492.13 459.32 491.27 458.89 490.65 458.2 C 490.64 458.19 490.63 458.18 490.62 458.17 L 490.19 457.68 C 490.16 457.65 490.13 457.61 490.1 457.58 C 489.74 457.1 489.39 456.61 489.06 456.12 C 488.25 454.96 487.4 453.83 486.51 452.74 C 485.41 451.4 484.18 450.18 482.84 449.09 C 481.38 447.89 479.74 446.92 477.99 446.22 C 475.97 445.44 473.83 445.04 471.67 445.04 C 469.74 445.06 467.82 445.32 465.96 445.82 C 462.95 446.63 460.07 447.84 457.38 449.42 C 455.58 447.97 453.64 446.69 451.61 445.59 C 450.36 444.91 449.05 444.33 447.71 443.85 C 445.57 443.07 443.3 442.66 441.02 442.63 C 439.22 442.63 437.44 442.92 435.73 443.47 C 434.17 443.99 432.69 444.69 431.3 445.57 C 430.04 446.36 428.85 447.26 427.73 448.24 C 426.82 449.05 425.93 449.89 425.08 450.76 C 424.67 451.18 424.25 451.58 423.83 451.97 C 423.62 452.16 423.4 452.34 423.17 452.51 C 422.47 453.04 421.61 453.32 420.73 453.3 C 418.8 452.66 416.83 452.17 414.82 451.83 C 413.32 451.57 411.8 451.44 410.28 451.44 C 410.28 451.44 410.28 451.44 410.27 451.44 L 410.14 451.44 C 408.76 451.44 407.38 451.58 406.02 451.86 C 404.82 452.1 403.65 452.47 402.53 452.97 C 400.55 453.85 398.76 455.08 397.23 456.62 C 395.87 458.01 394.68 459.56 393.68 461.23 C 392.87 462.59 392.14 463.99 391.48 465.43 C 391.23 465.96 390.98 466.48 390.71 467 C 390.57 467.26 390.42 467.51 390.25 467.75 C 389.99 468.15 389.66 468.49 389.28 468.76 C 388.77 469.13 388.16 469.33 387.53 469.33 C 387.52 469.33 387.51 469.33 387.5 469.33 L 386.7 469.32 L 386.51 469.32 C 384.03 469.32 381.56 469.67 379.18 470.35 C 377.02 470.98 374.99 471.98 373.18 473.31 C 371.39 474.65 369.85 476.3 368.64 478.19 C 367.27 480.36 366.26 482.74 365.63 485.22 C 365.44 486 364.94 486.67 364.26 487.08 C 363.79 487.35 363.26 487.5 362.72 487.5 C 362.64 487.5 362.57 487.49 362.49 487.48 L 362.25 487.46 C 362.18 487.45 362.1 487.43 362.02 487.42 C 361.23 487.23 360.56 486.73 360.15 486.03 C 359.87 485.56 359.72 485.02 359.72 484.48 C 359.72 484.4 359.73 484.33 359.74 484.26 L 359.76 484.03 C 359.77 483.94 359.79 483.86 359.81 483.77 C 360.59 480.66 361.86 477.69 363.57 474.98 C 365.17 472.46 367.22 470.26 369.61 468.48 C 372 466.73 374.67 465.42 377.51 464.59 C 380.22 463.8 383.02 463.38 385.84 463.32 C 385.9 463.19 385.96 463.06 386.02 462.93 C 386.78 461.3 387.61 459.72 388.52 458.17 C 389.76 456.08 391.26 454.14 392.97 452.4 C 395.02 450.34 397.44 448.67 400.1 447.48 C 401.61 446.81 403.2 446.31 404.82 445.98 C 406.57 445.62 408.36 445.44 410.15 445.44 C 410.15 445.44 410.15 445.44 410.15 445.44 L 410.29 445.44 C 412.15 445.44 414 445.6 415.83 445.91 C 417.37 446.17 418.9 446.52 420.41 446.94 Z " fill="rgb(0,0,0)"/><mask id="_mask_HBCtxyH4HPtFiLcrtIX7JcNVLVqZirRU" x="-200%" y="-200%" width="400%" height="400%"><rect x="-200%" y="-200%" width="400%" height="400%" style="fill:white;"/><path d=" M 371.675 506.562 C 378.11 522.856 388.837 535.099 404.832 542.593" fill="black" stroke="none"/></mask><path d=" M 371.675 506.562 C 378.11 522.856 388.837 535.099 404.832 542.593" fill="none" mask="url(#_mask_HBCtxyH4HPtFiLcrtIX7JcNVLVqZirRU)" vector-effect="non-scaling-stroke" stroke-width="6.25" stroke="rgb(255,255,255)" stroke-linejoin="round" stroke-linecap="round" stroke-miterlimit="4"/><path d=" M 371.675 506.562 C 378.11 522.856 388.837 535.099 404.832 542.593" fill="none"/></g></g></svg>