<?xml version="1.0" encoding="utf-8"?>
<!-- Svg Vector Icons : http://www.onlinewebfonts.com/icon -->
<!DOCTYPE svg PUBLIC "-//W3C//DTD SVG 1.1//EN" "http://www.w3.org/Graphics/SVG/1.1/DTD/svg11.dtd">
<svg version="1.1" xmlns="http://www.w3.org/2000/svg" xmlns:xlink="http://www.w3.org/1999/xlink" x="0px" y="0px" viewBox="0 0 256 256" enable-background="new 0 0 256 256" xml:space="preserve">
<metadata> Svg Vector Icons : http://www.onlinewebfonts.com/icon </metadata>
<g><g><path fill="#000000" d="M163.6,127.5c9.6,0,19.1-3.4,25.4-10.1c2.3-2.5,2.2-6.4-0.3-8.8c-2.5-2.3-6.4-2.2-8.8,0.3c-7.9,8.5-24.2,7.6-31.5,1c-2.6-2.3-6.5-2.1-8.8,0.5c-2.3,2.6-2.1,6.5,0.5,8.8C146.4,124.8,155,127.5,163.6,127.5z"/><path fill="#000000" d="M240.8,36.3c-0.6-3.4-3.8-5.6-7.2-5c-3.4,0.6-5.6,3.8-5,7.2c6.4,36.8,9,57.6-7.6,92.1l-2,4.1c-10.9,22.6-20.6,42.6-16.3,61.7c-5.1-2.4-10.7-6.4-13.4-13.1c15.7-25.6,25.1-59.9,27.9-88.4c0-0.2-0.1-0.4-0.1-0.6c0-0.4,0-0.8-0.1-1.3c-0.1-0.4-0.2-0.7-0.3-1.1c-0.2-0.4-0.3-0.7-0.6-1c-0.2-0.3-0.5-0.6-0.7-0.9c-0.3-0.3-0.6-0.5-0.9-0.7c-0.3-0.2-0.7-0.4-1.1-0.6c-0.2-0.1-0.3-0.2-0.6-0.3C180.5,78.7,157,50.9,153,29.6c-0.6-3.4-3.8-5.6-7.2-5c-3.4,0.6-5.6,3.9-5,7.2c4.4,23.5,28.1,53.8,63.5,66.4c-4.6,38.3-21.1,85.6-48.5,103.8c-21.2,14-28.5,17-30.9,17c-5.9,0-18.4-8.5-25.9-13.5l-4.4-2.9c-16.8-11.1-26-34.1-36.7-60.8l-2.5-6.3c-1.3-3.2-4.9-4.7-8.1-3.4c-3.2,1.3-4.7,4.9-3.4,8.1l2.5,6.2c5.2,13,10.3,25.6,16.3,36.7c-13.4-8-31.1-24.1-40.5-56.2c-1-3.3-4.4-5.2-7.7-4.2c-3.3,1-5.2,4.4-4.2,7.7c16.4,55.9,56,69.4,65.4,71.8c3.6,4.1,7.6,7.8,12.1,10.8l4.3,2.8c13.1,8.9,23.9,15.6,32.8,15.6c7.5,0,20-7.3,38.2-19.3c6.7-4.4,12.8-10.5,18.3-17.5c10.4,14.9,30,17.2,30.9,17.3c0.2,0,0.5,0,0.6,0c2.1,0,4-1.1,5.2-2.8c1.3-2,1.3-4.5,0.1-6.5c-10.1-17.2-0.4-37.2,11.8-62.6l2-4.1C250.4,98,247.5,74.5,240.8,36.3z"/><path fill="#000000" d="M100.8,182.3c-1.8,2.9-0.8,6.7,2.1,8.5c0.6,0.3,9.6,5.6,21.8,5.6c6.6,0,14.1-1.5,21.7-6.2c2.9-1.8,3.8-5.6,2-8.5c-1.8-2.9-5.6-3.9-8.5-2c-15.3,9.4-30,0.9-30.7,0.5C106.4,178.4,102.6,179.4,100.8,182.3z"/><path fill="#000000" d="M42,81l23.3,8.7l9,30.2c0.8,2.6,3.2,4.4,5.9,4.4h0c2.7,0,5.2-1.8,5.9-4.5l8.7-30.2l23.5-8.7c2.4-0.9,4-3.2,4-5.9c0-2.6-1.7-4.9-4.1-5.8l-23.4-8.5l-8.7-30.4c-0.7-2.6-3.2-4.5-5.9-4.5c0,0,0,0,0,0c-2.7,0-5.2,1.8-5.9,4.5l-9,30.4L42,69.3c-2.4,0.9-4,3.2-4.1,5.8C38,77.7,39.6,80,42,81z M72.5,71.4c1.9-0.7,3.3-2.2,3.8-4.1l3.8-12.9l3.7,12.9c0.6,1.9,2,3.4,3.9,4.1l10.5,3.8l-10.6,3.9c-1.9,0.7-3.3,2.2-3.8,4.1L80.1,96l-3.8-12.8c-0.6-1.9-2-3.4-3.8-4L62,75.2L72.5,71.4z"/></g></g>
</svg>