<svg xmlns="http://www.w3.org/2000/svg" xmlns:xlink="http://www.w3.org/1999/xlink" version="1.1" x="0px" y="0px" viewBox="-20 -20 140 140" xml:space="preserve" data-icon="true" fill="#000000"><path fill-rule="evenodd" clip-rule="evenodd" d="M53.492,0c3.14,7.47,5.461,15.177,5.032,23.348  c-0.182,3.46-1.167,6.957-2.289,10.265c-0.907,2.667-3.088,4.511-6.31,5.632c-1.017-2.947-2.146-5.841-3.017-8.809  c-1.655-5.639-2.421-11.41-1.847-17.288C45.597,7.677,47.565,2.967,52.545,0C52.86,0,53.176,0,53.492,0z M52.257,2.808  c-3.233,2.2-4.333,5.509-4.93,9.046c-1.256,7.443,0.321,14.559,2.654,21.568c0.329,0.994,0.78,1.948,1.189,2.958  C58.665,31.679,57.611,14.542,52.257,2.808z"></path><path fill-rule="evenodd" clip-rule="evenodd" d="M0,45.917c4.503-1.343,8.952-2.937,13.527-3.964  c5.724-1.287,11.56-1.508,17.281,0.2c3.837,1.148,6.98,3.209,8.373,7.42c-8.934,3.864-18.085,6.098-27.817,4.721  C6.487,53.604,2.439,51.4,0,46.864C0,46.548,0,46.232,0,45.917z M2.932,47.458c1.439,2.27,3.616,3.485,6.065,4.136  c9.48,2.526,18.432,0.329,27.323-3.011C32.181,40.766,13.428,42.093,2.932,47.458z"></path><path fill-rule="evenodd" clip-rule="evenodd" d="M60.399,49.987c10.066-4.024,20.113-6.813,30.859-3.925  c3.767,1.013,6.813,3.16,8.453,7.68c-4.32,1.3-8.434,2.787-12.667,3.751c-6.271,1.433-12.62,1.846-18.885-0.232  C64.27,55.97,61.946,53.849,60.399,49.987z M63.254,51.336c1.755,2.609,4.352,3.852,7.194,4.47  c9.115,1.984,17.728-0.087,26.231-3.33C92.722,44.803,74.64,45.782,63.254,51.336z"></path><path fill-rule="evenodd" clip-rule="evenodd" d="M57.21,57.506c7.814,3.125,14.907,7.188,20.608,13.407  c2.862,3.12,5.247,6.564,5.582,10.933c0.141,1.816-0.276,3.674-0.479,5.929c-7.603-2.989-14.232-6.531-19.54-12.026  c-2.469-2.559-4.522-5.641-6.232-8.774C55.576,64.088,55.4,60.823,57.21,57.506z M81.216,84.913  c2.145-9.103-12.293-20.929-22.881-24.508c-0.759,2.795,0.086,5.312,1.47,7.599C64.784,76.24,72.536,80.983,81.216,84.913z"></path><path fill-rule="evenodd" clip-rule="evenodd" d="M42.309,56.761c-3.716,9.099-8.235,16.932-15.624,22.755  c-3.348,2.637-7.073,4.473-11.536,3.889c-0.978-0.129-1.923-0.503-3.15-0.836c3.292-8.414,7.654-15.765,14.324-21.579  c2.952-2.574,6.27-4.6,10.278-4.865C38.385,56.006,40.208,56.507,42.309,56.761z M14.924,81.251  c9.396,2.336,21.955-14.355,24.143-22.941C30.948,56.14,19.077,69.561,14.924,81.251z"></path><path fill-rule="evenodd" clip-rule="evenodd" d="M46.121,99.542c-3.997-9.517-6.422-19.103-4.354-29.296  c0.886-4.374,2.978-8.104,7.763-9.837c3.078,6.925,4.994,13.986,5.148,21.485c0.085,4.129-0.283,8.186-2.142,11.961  C51.21,96.551,49.295,98.607,46.121,99.542z M47.427,96.637c2.302-1.284,3.377-3.455,4.104-5.774  c1.729-5.489,1.418-11.077,0.263-16.598c-0.774-3.7-1.975-7.314-3.021-11.095C40.685,67.791,42.211,86.303,47.427,96.637z"></path><path fill-rule="evenodd" clip-rule="evenodd" d="M17.235,11.997c8.83,3.739,16.828,8.2,22.563,15.826  c3.144,4.18,5.032,8.729,2.689,14.477c-2.762-1.34-5.458-2.523-8.032-3.924c-5.871-3.193-11.193-7.107-15.061-12.667  c-2.541-3.652-4.216-7.595-2.839-12.195C16.687,13.075,16.931,12.67,17.235,11.997z M18.351,14.999  c-0.772,2.538,0.002,4.86,1.185,6.958c4.866,8.643,12.848,13.433,21.543,17.419C43.944,31.848,30.492,19.012,18.351,14.999z"></path><path fill-rule="evenodd" clip-rule="evenodd" d="M87.625,17.166c-3.361,8.213-7.57,15.635-14.244,21.384  c-3.404,2.93-7.168,5.222-11.906,4.971c-1.286-0.069-2.552-0.505-4.132-0.836c4.233-9.88,9.109-18.778,18.324-24.381  C79.294,16.097,83.198,15.147,87.625,17.166z M60.481,41.178c7.581,2.747,20.274-11.112,24.105-22.694  C77.132,15.705,64.329,29.48,60.481,41.178z"></path><path fill-rule="evenodd" clip-rule="evenodd" d="M59.724,49.875c-0.024,5.669-4.374,9.906-10.109,9.849  c-5.486-0.054-9.816-4.479-9.773-9.991c0.044-5.588,4.546-9.976,10.147-9.892C55.488,39.926,59.748,44.318,59.724,49.875z   M57.751,49.709c-0.048-4.384-3.687-7.95-8.042-7.88c-4.363,0.069-7.932,3.725-7.882,8.081c0.05,4.363,3.669,7.878,8.079,7.841  C54.313,57.715,57.797,54.142,57.751,49.709z"></path></svg>