<?xml version="1.0" encoding="UTF-8" standalone="no"?><!-- Generator: Gravit.io --><svg xmlns="http://www.w3.org/2000/svg" xmlns:xlink="http://www.w3.org/1999/xlink" style="isolation:isolate" viewBox="345.942 295.887 60.989 35.031" width="60.989pt" height="35.031pt"><g><path d=" M 347.926 303.988 L 381.691 297.453 C 382.321 297.331 383.332 297.382 383.946 297.566 L 404.976 303.875 C 405.59 304.06 405.582 304.328 404.957 304.474 L 372.337 312.085 C 371.712 312.231 370.71 312.184 370.101 311.981 L 347.888 304.577 C 347.279 304.374 347.296 304.11 347.926 303.988 Z " fill="rgb(255,255,255)" vector-effect="non-scaling-stroke" stroke-width="1" stroke="rgb(0,0,0)" stroke-linejoin="miter" stroke-linecap="square" stroke-miterlimit="3"/><path d=" M 349.034 309.106 L 349.934 319.911 C 349.984 320.505 350.473 321.167 351.026 321.388 L 370.617 329.225 C 371.17 329.446 372.081 329.482 372.651 329.306 L 401.902 320.228 C 402.471 320.051 402.973 319.425 403.023 318.832 L 403.923 308.026 C 403.973 307.432 403.545 307.075 402.969 307.229 L 372.663 315.31 C 372.087 315.464 371.16 315.436 370.595 315.247 L 349.968 308.372 C 349.403 308.183 348.984 308.512 349.034 309.106 Z " fill="rgb(255,255,255)" vector-effect="non-scaling-stroke" stroke-width="1" stroke="rgb(0,0,0)" stroke-linejoin="miter" stroke-linecap="square" stroke-miterlimit="3"/><path d=" M 348.206 305.815 L 348.603 307.006 C 348.791 307.571 349.403 308.183 349.968 308.372 L 370.595 315.247 C 371.16 315.436 372.087 315.464 372.663 315.31 L 402.969 307.229 C 403.545 307.075 404.166 306.491 404.354 305.926 L 404.751 304.735 C 404.94 304.17 404.624 303.83 404.046 303.978 L 372.25 312.082 C 371.673 312.23 370.744 312.2 370.177 312.017 L 348.891 305.123 C 348.325 304.94 348.017 305.25 348.206 305.815 Z " fill="rgb(255,255,255)" vector-effect="non-scaling-stroke" stroke-width="1" stroke="rgb(0,0,0)" stroke-linejoin="miter" stroke-linecap="square" stroke-miterlimit="3"/><line x1="371.703" y1="316.148" x2="371.703" y2="329.105" vector-effect="non-scaling-stroke" stroke-width="1" stroke="rgb(0,0,0)" stroke-linejoin="miter" stroke-linecap="square" stroke-miterlimit="3"/></g></svg>