<?xml version="1.0" encoding="utf-8"?>
<!-- Svg Vector Icons : http://www.onlinewebfonts.com/icon -->
<!DOCTYPE svg PUBLIC "-//W3C//DTD SVG 1.1//EN" "http://www.w3.org/Graphics/SVG/1.1/DTD/svg11.dtd">
<svg version="1.1" xmlns="http://www.w3.org/2000/svg" xmlns:xlink="http://www.w3.org/1999/xlink" x="0px" y="0px" viewBox="0 0 256 256" enable-background="new 0 0 256 256" xml:space="preserve">
<metadata> Svg Vector Icons : http://www.onlinewebfonts.com/icon </metadata>
<g> <path fill="#ced4e8" d="M114,81.2c37.3-1.5,70.3,2.4,92.9,16.6c7.4,4.7,19.6,13.6,14.4,27.2c-4.6,12.1-18,18.1-30.1,23.2 c-42.4,17.8-139,18.6-160.9-15.4c-5.9-9.2-1.4-19.1,4.1-24.9C47.1,94.6,67.7,89,89.3,84.2C97.5,83.2,105.8,82.2,114,81.2z"/> <path fill="#27457b" d="M123.5,160.7c-21,0.5-40.5-1.4-56.5-5.6c-18.3-4.8-30.8-12.2-37-21.9c-6-9.3-1.5-19.5,4.2-25.4 C47,94.1,68.4,88.4,89.2,83.8l0,0l24.7-3c2-0.1,4-0.1,6-0.2c39.1-1,67.6,4.6,87.2,16.9c3.9,2.4,8.7,5.8,12.1,10.4 c4,5.4,4.9,11.3,2.5,17.4c-4.5,11.7-16.9,17.8-30.4,23.4C174.8,155.5,149.5,160,123.5,160.7L123.5,160.7z M89.4,84.6 c-20.7,4.6-41.9,10.2-54.6,23.6c-5.4,5.7-9.8,15.5-4.1,24.4c6.1,9.4,18.7,16.9,36.5,21.6c15.9,4.2,35.3,6.1,56.2,5.6 c25.9-0.6,51.1-5.1,67.6-12c13.3-5.6,25.5-11.5,29.9-22.9c4.9-12.8-5.8-21.3-14.3-26.7C187.2,86,158.9,80.5,120,81.5 c-1.9,0-3.9,0.1-5.9,0.2L89.4,84.6z"/> <path fill="#f2f3f9" d="M115.5,89.2c32.5-1.3,61.2,1.8,80.9,13.1c6.5,3.7,17.1,10.8,12.5,21.7c-4,9.6-15.7,14.5-26.3,18.5 c-37,14.3-121.1,15.1-140.1-12c-5.1-7.3-1.2-15.3,3.6-19.9C57.2,100,75.1,95.5,94,91.6C101.1,90.8,108.3,90,115.5,89.2L115.5,89.2z "/> <path fill="#d3d9ec" d="M123.6,152.4c-18.3,0.4-35.2-1.1-49.1-4.4c-15.9-3.8-26.7-9.6-32.1-17.4c-5.1-7.3-1.2-15.4,3.6-20.1 c11.2-10.8,29.8-15.4,47.9-19.1l21.5-2.4c1.8-0.1,3.5-0.1,5.2-0.2c34-0.8,58.8,3.5,75.7,13.3c7.5,4.3,17,11.3,12.6,21.9 c-3.9,9.3-14.7,14.1-26.4,18.6C168.3,148.2,146.2,151.8,123.6,152.4L123.6,152.4z M120.7,89.2c-1.7,0-3.4,0.1-5.2,0.2L94,91.7 c-18,3.7-36.6,8.3-47.8,19c-4.8,4.6-8.6,12.5-3.6,19.7C47.9,138,59,144,74.5,147.7c13.9,3.3,30.8,4.8,49,4.4 c22.6-0.5,44.6-4.2,59-9.7c11.6-4.5,22.3-9.3,26.2-18.5c4.3-10.4-5-17.2-12.5-21.5C179.4,92.7,154.6,88.3,120.7,89.2z"/> <path fill="#e3a14c" d="M24.9,137.8c0,0,1.3-2.9,8.4-7.1c1.7-2.9,1.7-5.9,2.5-6.3c0.8-0.5,15.9-5.3,20.9-7.5 c5.7-1.4,20.6-7.1,25.2-10.7c4.6-3.6,4.3-5.2,12.9-7.7c6.9-5.5,9.5-5.7,14.9-8c5.3-1.5,12.5-6.9,14.7-9.3 c4.2-1.1,15.8-7.1,19.3-9.9c6.9-1.1,10.7-1.7,17.9-10.4c17.6-4.1,67.2-25.9,75.4,1.9c-7.8-0.7-82.1,27.7-88.7,32.5 c-6.6,4.8-15,12.3-25.3,14.7c-9.7,4.7-13.9,7.7-25.9,15.4c-19.7,10.6-66.5,27.5-71,15.5C25,137.9,24.9,137.8,24.9,137.8z"/> <path fill="#efe29d" d="M50.4,144.3c-14.9,3.4-23.5,2.4-25.6-2.9l0-0.1c-0.5-1.7-0.8-2.4-0.9-2.7l-0.5-0.4l0.4-0.9 c0.1-0.3,1.6-3.4,8.6-7.5c0.7-1.3,1.1-2.7,1.3-3.7c0.4-1.3,0.6-2.3,1.4-2.8c0.4-0.2,1.7-0.7,6.6-2.3c4.9-1.7,11.5-3.9,14.5-5.2 l0.2-0.1c5.4-1.3,20.3-7,24.7-10.5c1.1-0.9,2-1.7,2.7-2.3c2.3-2.1,3.9-3.6,10.4-5.5c5.4-4.3,8.2-5.4,11.8-6.7c1-0.4,2-0.8,3.2-1.3 l0.2-0.1c4.9-1.4,12.1-6.6,14.1-8.9l0.3-0.3L124,80c4-1,15.4-6.9,18.8-9.7l0.3-0.2l0.4-0.1c1.5-0.3,2.9-0.5,4.1-0.8 c4.2-1,7.5-2.7,12.9-9.2l0.3-0.3l0.4-0.1c3-0.7,7.1-2,11.7-3.4c6.5-2,13.9-4.3,21.4-6c25.3-5.8,39.5-1.8,43.7,12.1l0.5,1.7 l-1.8-0.2c-0.3,0-1.3,0-3.6,0.5c-16.9,3.9-78.3,27.4-84.2,31.7c-1.2,0.8-2.4,1.7-3.6,2.7c-5.9,4.5-13.3,10.1-22,12.1 c-8,3.9-12.1,6.6-20.4,11.9c-1.7,1.1-3.5,2.3-5.2,3.4l-0.1,0C86.4,132.5,66.6,140.6,50.4,144.3L50.4,144.3z M27.1,140.5 c1.5,3.9,9.6,4.4,22.7,1.4c16-3.7,35.5-11.6,46.6-17.5c1.9-1.2,3.6-2.3,5.2-3.3c8.4-5.4,12.5-8.1,20.8-12.1l0.1-0.1l0.1,0 c8.2-1.9,15.4-7.4,21.2-11.7c1.3-1,2.5-1.9,3.7-2.8c6.3-4.5,67.5-28.1,85.1-32.1c1-0.2,1.9-0.4,2.6-0.5c-2.3-6.1-7.1-9.7-14.5-11 c-6.5-1.1-14.9-0.5-25.7,2c-7.5,1.7-14.8,4-21.3,6c-4.5,1.4-8.4,2.6-11.5,3.3c-5.7,6.7-9.4,8.6-14,9.7c-1.3,0.3-2.6,0.5-4,0.8 c-3.8,3-14.7,8.6-19.1,9.8c-2.5,2.6-9.7,7.9-15,9.3c-1.2,0.5-2.2,0.9-3.2,1.3c-3.4,1.3-6.1,2.3-11.3,6.5l-0.2,0.2l-0.2,0.1 c-6.1,1.8-7.5,3-9.7,5c-0.8,0.7-1.7,1.5-2.9,2.5c-4.7,3.7-19.7,9.5-25.5,10.9c-3.1,1.3-9.4,3.5-14.5,5.2c-2.6,0.9-5.3,1.8-6,2.1 c-0.1,0.3-0.3,0.8-0.4,1.3c-0.3,1.2-0.8,2.9-1.7,4.6l-0.2,0.3l-0.3,0.2c-5,3-7,5.2-7.6,6.1C26.5,138.4,26.7,139.2,27.1,140.5z"/> <path fill="#eaa44a" d="M78.2,134.3c0,0-18.8,3.2-24.7,4.6c-5.9,1.4-37.6,9.3-39.4,11.1c-1.8,1.8-4.5,10-1.9,9.4 c2.6-0.6,3.3-0.3,3.3-0.3s-2.6,3.7-0.3,4.7c2.3,1,22.3,4.1,35.8,1.8c13.5-2.3,43.6-8.8,47.6-7.8c7.2-4,12-9.8,22.2-11.7 C131,144.3,240.6,95.2,244.4,88c3.8-7.2-10.8-21.7-15.7-22.5c-4.9-0.8-7.6,1.6-11.2,0.9c-3.6-0.7-40.6,18-49.6,25.1 c-8.9,7.1-33.3,16.3-38.2,18.9c-4.9,2.6-20.9,11.9-24.7,13.2C101.3,124.9,80.7,133.9,78.2,134.3L78.2,134.3z"/> <path fill="#efe29d" d="M98.7,158.9l-0.4-0.1c-2.7-0.7-20.1,2.7-32.9,5.1c-5.4,1-10.5,2-14.3,2.7c-13.6,2.3-34.1-0.9-36.4-1.8 c-0.7-0.3-1.3-0.9-1.5-1.6c-0.3-1,0-2.1,0.4-3c-0.4,0.1-0.9,0.1-1.3,0.2c-0.9,0.2-1.6-0.1-2-0.9c-1.2-2.2,1.3-8.7,3-10.3 c2.3-2.3,39.5-11.2,39.9-11.3l0.4-0.1c6.2-1.4,24.2-4.5,24.4-4.5c0,0,0.1,0,0.1,0c1.9-0.4,10.3-4,17.1-6.8c4.3-1.8,8.1-3.4,9.5-3.9 c2.5-0.9,11.2-5.7,17.5-9.2c3-1.7,5.6-3.1,7.1-3.9c1.4-0.7,4.2-1.9,7.7-3.5c9.5-4.1,23.9-10.2,30.2-15.3 c8.1-6.4,40.9-23.4,48.8-25.2c0.7-0.2,1.2-0.2,1.6-0.1c1.2,0.2,2.2,0.1,3.6-0.2c0.3-0.1,0.5-0.1,0.8-0.2c1.9-0.5,4-1,6.8-0.5 c3.8,0.6,12,8,15.5,15c1.8,3.7,2.1,6.7,0.9,9c-2.4,4.5-38,21.4-59,31.1c-27.3,12.6-59.7,26.5-65.4,27.5c-0.5,0.1-0.9,0.2-1.4,0.3 c-6,1.4-9.9,4.1-14,7.1c-2,1.4-4.1,2.9-6.4,4.2L98.7,158.9L98.7,158.9z M12.1,158.4c2.5-0.5,3.4-0.3,3.7-0.2l1.2,0.5l-0.7,1 c-0.5,0.7-1.2,2.2-1,2.8c0,0.1,0.1,0.2,0.3,0.3c2.2,0.9,22,4,35.3,1.7c3.8-0.6,8.9-1.6,14.3-2.7c17.2-3.3,29.8-5.6,33.4-5.2 c2.1-1.2,4-2.6,5.9-3.9c4.1-2.9,8.4-6,14.8-7.4c0.5-0.1,1-0.2,1.5-0.3c0.1,0,0.2,0,0.3-0.1c5.7-1.3,34.7-13.6,64.6-27.3 c41-18.9,56.9-28.1,58-30.2c1.1-2.2,0.1-5.1-0.9-7.2c-3.3-6.7-11.1-13.4-14-13.9c-1.9-0.3-3.4-0.1-5.1,0.3 c-0.3,0.1-0.6,0.1-0.8,0.2c-0.3,0.1-0.5,0.1-0.8,0.2c-1.3,0.3-2.7,0.6-4.4,0.2c0,0-0.2,0-0.8,0.1c-6.9,1.6-39.6,18.1-47.9,24.8 c-6.6,5.3-21.1,11.5-30.7,15.6c-3.5,1.5-6.3,2.7-7.6,3.4c-1.5,0.8-4.1,2.2-7.1,3.9c-6.7,3.7-15.1,8.4-17.8,9.4 c-1.4,0.5-5.1,2-9.4,3.8c-7.2,3-15.3,6.4-17.4,6.9c-0.1,0-0.2,0-0.3,0c-0.2,0-18.1,3.1-24.3,4.5l-0.4,0.1 c-10.5,2.5-37.1,9.3-39,10.8C13.3,152.1,11.8,157,12.1,158.4L12.1,158.4z"/> <path fill="#e28922" d="M16.7,159.7c0,0,4.3-5.8,8.2-5.3c3.9,0.5,3.8,2.5,8.6,0c4.8-2.5,10.8-6,14.8-4.5c8.3-4.4,19.1-9.3,29.1-7.6 c15.6-4.6,51.2-17.6,58.1-25.8c13.9-1.4,17.9-3.8,23-9.8c8.1,0.1,11.9-10.8,18.9-11.4c7-0.6,13.7-0.1,19.8-8.8 c14.9-2.8,32.2-7.9,35.8-7.5c3.6,0.4,6.1,1.5,6.1,1.5s-52.1,29.9-103.5,53.2C84.2,157,74,156.5,74,156.5S19.3,165.1,16.7,159.7 L16.7,159.7z M26.3,138.2c0,0,7.3,0.7,16.3-2.2c9-2.9,12.9-2.6,13.6-2.5c0.7,0.1,2.8-6.3,5.7-6.8c3-0.5,4.6,1.2,5.9-0.8 c1.3-2-0.8-7.6,18.4-11.8c6.6-10.4,13.1-9,14.1-8.5c1,0.5,0.3-3.4,3.3-5.1c3-1.7,4.5-1.3,4.5-1.3s32-20.8,36.4-20.8 c4.4,0,51.4-30.4,84-23.2c5.1,0.6-44.5,12.7-67.4,27.6c-23,14.9-25.6,15.3-28.3,17.1c-2.7,1.8-15.6,6.1-23,11.7 c-7.4,5.6-58.8,32.5-71.3,28.8C24.8,139.8,26.3,138.2,26.3,138.2L26.3,138.2z"/> <path fill="#78502f" d="M109.9,146.5c0,0-0.8,38.3,35.5,55.3c36.3,17,63.1-3.9,69.6-10.4c6.5-6.5,21.5-23.8,21.2-46.3 C211,146.8,109.9,146.5,109.9,146.5z"/> <path fill="#f8e2bd" d="M110.3,147.8c0,0-2.7-12.9,21.6-21.6c24.3-8.7,58-6.4,71.7-2.8c13.7,3.6,31.9,16.6,32.4,21.6 c-7.7,6.3-44,29.6-108.6,11.9C112.3,150.3,110.3,147.8,110.3,147.8z"/> <path fill="#ffffff" d="M172.8,164.4c-14.5,0-29.9-2.2-45.8-6.5l-0.1,0c-14.8-6.5-17.2-9.1-17.5-9.4l-0.2-0.2l0-0.2 c-0.1-0.6-2.6-13.9,22.3-22.8c14.1-5,30.1-6.1,41.1-6.1c13.9,0,25.2,1.7,31.2,3.2c13.4,3.5,32.6,16.6,33.2,22.5l0.1,0.6l-0.4,0.4 C232.8,148.8,211.9,164.4,172.8,164.4L172.8,164.4z M127.7,155.9c15.7,4.3,30.8,6.4,45.1,6.4c36.9,0,57.2-14,62-17.8 c-1.6-4.6-18.4-16.7-31.5-20.2c-5.8-1.5-16.9-3.2-30.7-3.2c-10.8,0-26.6,1-40.4,6c-12.1,4.4-17.2,9.7-19.3,13.4 c-1.8,3.3-1.8,5.9-1.7,6.7C112,147.9,115.3,150.5,127.7,155.9L127.7,155.9z"/> <path fill="#a27c52" d="M173.1,168.3c8.7,0,15.8,7.1,15.8,15.8c0,8.7-7.1,15.8-15.8,15.8c-8.7,0-15.8-7.1-15.8-15.8 C157.3,175.3,164.4,168.3,173.1,168.3z"/> <path fill="#f4f4c8" d="M113,147.8c0,0-2.4-8.6,5.3-10.3c7.6-1.7,2.8,1.5,8.4-1.9c5.6-3.3,12.4-4.3,18.3-4 c5.9,0.3,7.8-3.1,12.1-3.7c4.3-0.7,12.4-1.4,20.5,0.8c6.3,0.2,3.2-0.1,10.2,0c7.1,0.1,12.7,1,17.6,4c4.8,3,6.9,3.3,9.9,3.5 s11.5,4.1,12.9,5.4c1.1,1.4,5.3,3.3,5.3,3.3s-22.4,16.5-59.2,17.7c-30.5-2.3-37.3-3.7-50.5-9.4C110.6,147.6,113,147.8,113,147.8z" /> <path fill="#ecde84" d="M174.3,163.2L174.3,163.2c-30.1-2.3-37.2-3.6-50.7-9.4c-11.5-4.9-11.4-5.4-11.3-6.1c0-0.1,0-0.1,0.1-0.2 c-0.3-1.2-0.8-4.6,0.9-7.4c1-1.7,2.7-2.8,4.9-3.3c1.7-0.4,2.9-0.6,3.8-0.6c0.8,0,1.2,0.1,1.4,0.2c0,0,0.1,0,0.1,0 c0.3,0,1.8-0.9,2.9-1.5c5.8-3.4,12.3-4.1,16.7-4.1c0.7,0,1.3,0,2,0c3.3,0.2,5.3-0.9,7.2-1.9c1.4-0.7,2.8-1.5,4.7-1.8 c2-0.3,5.1-0.7,8.8-0.7c4.3,0,8.3,0.5,11.9,1.5c1.5,0.1,2.6,0.1,3.3,0.1c0.7,0,1,0,1.5,0c0.9,0,1.9-0.1,5.3,0 c8,0.1,13.4,1.3,17.9,4.1c4.8,3,6.8,3.2,9.6,3.4c3.1,0.2,11.8,4.1,13.3,5.6l0.1,0.1c0.8,1,3.9,2.6,5.1,3.1l1,0.4l-0.8,0.6 C233.6,145.5,210.8,162,174.3,163.2L174.3,163.2L174.3,163.2z M113.7,147.8c0.7,0.5,3,1.7,10.3,4.8c13.4,5.7,20.4,7,50.3,9.3 c32.2-1,53.5-14,58-17c-1.3-0.7-3.7-1.9-4.5-3c-1.4-1.3-9.8-5.1-12.5-5.2c-3-0.2-5.2-0.5-10.2-3.6c-4.3-2.6-9.4-3.8-17.2-3.9 c-3.3,0-4.4,0-5.3,0c-0.5,0-0.9,0-1.6,0c-0.8,0-1.9,0-3.4-0.1l-0.1,0c-3.6-1-7.5-1.4-11.7-1.4c-3.6,0-6.6,0.4-8.6,0.7 c-1.7,0.3-3,0.9-4.3,1.7c-2.1,1.1-4.2,2.3-7.9,2.1c-0.6,0-1.3,0-1.9,0c-4.3,0-10.5,0.7-16,4c-2.4,1.4-3,1.7-3.5,1.7 c-0.2,0-0.4-0.1-0.6-0.1c-0.2-0.1-0.4-0.2-1-0.2c-0.8,0-2,0.2-3.6,0.5c-1.9,0.4-3.3,1.3-4.1,2.7c-1.7,2.9-0.7,6.8-0.7,6.8 L113.7,147.8L113.7,147.8z"/> <path fill="#96734e" d="M186.6,146.9c0,0-1.9-5,10.8-7.4c9.1-1.7,9-1.8,11.3-1.5c1.8-1.8,22.1-18.4,27.1-19.2s4.6,0.2,4.9,1 c0.4,0.8,3.1,4.1-6.7,7.6c-9.4,5.1-9.7,4.6-14.5,9.9c-4.8,5.3-7.1,8.1-7.1,8.1s-0.4,0.1-1.5,0.5c-1.1,0.4-1.9,1.1-3.2,1 c-1.3-0.1-4-0.9-7.1-1c-3.2-0.1-5.5,1.3-7.4,1.7C191.4,148.1,186.6,146.9,186.6,146.9z"/> <path fill="#b3997f" d="M192.2,148.3c-2.3,0-5.6-0.8-5.7-0.9l-0.3-0.1l-0.1-0.3c0-0.1-0.5-1.3,0.4-2.9c1.4-2.4,5-4.2,10.9-5.3 l2.2-0.4c6.6-1.3,6.9-1.3,9-1.1c2.9-2.7,22.2-18.4,27.2-19.2c1.3-0.2,2.3-0.3,3-0.3c1.9,0,2.3,0.7,2.5,1.4c0,0.1,0,0.2,0.1,0.2 c0,0,0.1,0.1,0.1,0.2c0.3,0.5,0.9,1.7,0.4,3.1c-0.7,1.9-3.1,3.6-7.4,5.2c-2,1.1-3.5,1.9-4.8,2.6c-4.9,2.6-5.8,3-9.5,7.1 c-4.8,5.2-7.1,8.1-7.1,8.1l-0.1,0.2l-0.2,0c0,0-0.4,0.1-1.4,0.5c-0.3,0.1-0.6,0.2-0.8,0.4c-0.7,0.4-1.5,0.8-2.6,0.6 c-0.5,0-1.1-0.2-1.7-0.3c-1.4-0.3-3.3-0.6-5.4-0.7c-2.1-0.1-3.8,0.5-5.3,1.1c-0.7,0.2-1.3,0.5-1.9,0.6 C193.1,148.3,192.7,148.3,192.2,148.3L192.2,148.3z M187.2,146.4c0.9,0.2,3.4,0.7,5,0.7c0.4,0,0.7,0,1-0.1c0.5-0.1,1.2-0.3,1.8-0.6 c1.5-0.6,3.4-1.3,5.8-1.2c2.2,0.1,4.1,0.5,5.5,0.7c0.7,0.1,1.2,0.2,1.6,0.3c0.8,0.1,1.3-0.2,1.9-0.5c0.3-0.2,0.6-0.3,1-0.4 c0.7-0.3,1.1-0.4,1.3-0.5c0.5-0.7,2.9-3.4,7-8c3.9-4.3,4.9-4.8,9.9-7.4c1.3-0.7,2.9-1.5,4.8-2.6l0.1,0c4.8-1.8,6.3-3.4,6.7-4.4 c0.3-0.9-0.1-1.7-0.3-2.1c0-0.1-0.1-0.2-0.1-0.2c-0.1-0.1-0.1-0.2-0.1-0.4c-0.1-0.3-0.2-0.6-1.3-0.6c-0.7,0-1.6,0.1-2.8,0.3 c-4.7,0.8-25,17.2-26.8,19l-0.2,0.2l-0.3,0c-0.7-0.1-1.1-0.1-1.6-0.1c-1.1,0-2.7,0.3-7.3,1.2l-2.2,0.4c-6.8,1.3-9.2,3.3-10,4.7 C187.2,145.5,187.2,146,187.2,146.4L187.2,146.4z"/> <path fill="#f2e9a5" d="M122.6,141.5c2.2,5.9,8.9,4.8,13.7,3.4c3.3-1,6.5-2.3,9.8-3.5c2.3-0.8,5.3-2.1,7.8-1.6 c0.9,0.2,1.9-0.1,2.5-0.7c0.5-0.5,0.4-1.2-0.4-1.4c-5.3-1.1-11.2,1.9-16.1,3.7c-4.1,1.5-11.6,4.9-13.8-1 C125.7,139.2,122.2,140.2,122.6,141.5z"/> <path fill="#ecde84" d="M154.7,150.7c7.3-3.1,16.5,0.1,23.6,2.7c3.5,1.3,7.1,2.6,11,2.8c4,0.2,7.3-2,11.1-3.1 c2.2-0.6,1.6-2.7-0.6-2.1c-1.9,0.5-3.6,1.3-5.4,2c-2.2,0.9-4.4,1-6.7,0.5c-3.9-0.8-7.6-2.5-11.4-3.7c-7.4-2.3-15.5-4-23-0.9 C150.9,149.9,152.9,151.5,154.7,150.7L154.7,150.7z M171.3,139.4c3.3-0.1,6.4-1.2,9.6-2c3.3-0.8,7,1.1,10.3,1.6 c0.9,0.1,1.9-0.1,2.5-0.7c0.5-0.5,0.4-1.1-0.3-1.2c-3.4-0.5-6.5-1.8-10-1.9c-3.6-0.1-7,2.1-10.7,2.2c-0.8,0-1.9,0.3-2.4,1 C169.8,139.1,170.7,139.4,171.3,139.4z"/></g>
</svg>