<?xml version="1.0" encoding="UTF-8" standalone="no"?><!-- Generator: Gravit.io --><svg xmlns="http://www.w3.org/2000/svg" xmlns:xlink="http://www.w3.org/1999/xlink" style="isolation:isolate" viewBox="330.158 312.754 235.935 119.788" width="235.935pt" height="119.788pt"><g><path d=" M 345.073 402.926 C 345.073 402.926 346.373 400.026 353.473 395.826 C 355.173 392.926 355.173 389.926 355.973 389.526 C 356.773 389.026 371.873 384.226 376.873 382.026 C 382.573 380.626 397.473 374.926 402.073 371.326 C 406.673 367.726 406.373 366.126 414.973 363.626 C 421.873 358.126 424.473 357.926 429.873 355.626 C 435.173 354.126 442.373 348.726 444.573 346.326 C 448.773 345.226 460.373 339.226 463.873 336.426 C 470.773 335.326 474.573 334.726 481.773 326.026 C 499.373 321.926 548.973 300.126 557.173 327.926 C 549.373 327.226 475.073 355.626 468.473 360.426 C 461.873 365.226 453.473 372.726 443.173 375.126 C 433.473 379.826 429.273 382.826 417.273 390.526 C 397.573 401.126 350.773 418.026 346.273 406.026 C 345.173 403.026 345.073 402.926 345.073 402.926 Z " fill="rgb(227,161,76)"/><path d=" M 370.573 409.426 C 355.673 412.826 347.073 411.826 344.973 406.526 L 344.973 406.426 C 344.473 404.726 344.173 404.026 344.073 403.726 L 343.573 403.326 L 343.973 402.426 C 344.073 402.126 345.573 399.026 352.573 394.926 C 353.273 393.626 353.673 392.226 353.873 391.226 C 354.273 389.926 354.473 388.926 355.273 388.426 C 355.673 388.226 356.973 387.726 361.873 386.126 C 366.773 384.426 373.373 382.226 376.373 380.926 L 376.573 380.826 C 381.973 379.526 396.873 373.826 401.273 370.326 C 402.373 369.426 403.273 368.626 403.973 368.026 C 406.273 365.926 407.873 364.426 414.373 362.526 C 419.773 358.226 422.573 357.126 426.173 355.826 C 427.173 355.426 428.173 355.026 429.373 354.526 L 429.573 354.426 C 434.473 353.026 441.673 347.826 443.673 345.526 L 443.973 345.226 L 444.173 345.126 C 448.173 344.126 459.573 338.226 462.973 335.426 L 463.273 335.226 L 463.673 335.126 C 465.173 334.826 466.573 334.626 467.773 334.326 C 471.973 333.326 475.273 331.626 480.673 325.126 L 480.973 324.826 L 481.373 324.726 C 484.373 324.026 488.473 322.726 493.073 321.326 C 499.573 319.326 506.973 317.026 514.473 315.326 C 539.773 309.526 553.973 313.526 558.173 327.426 L 558.673 329.126 L 556.873 328.926 C 556.573 328.926 555.573 328.926 553.273 329.426 C 536.373 333.326 474.973 356.826 469.073 361.126 C 467.873 361.926 466.673 362.826 465.473 363.826 C 459.573 368.326 452.173 373.926 443.473 375.926 C 435.473 379.826 431.373 382.526 423.073 387.826 C 421.373 388.926 419.573 390.126 417.873 391.226 L 417.773 391.226 C 406.573 397.626 386.773 405.726 370.573 409.426 L 370.573 409.426 Z  M 347.273 405.626 C 348.773 409.526 356.873 410.026 369.973 407.026 C 385.973 403.326 405.473 395.426 416.573 389.526 C 418.473 388.326 420.173 387.226 421.773 386.226 C 430.173 380.826 434.273 378.126 442.573 374.126 L 442.673 374.026 L 442.773 374.026 C 450.973 372.126 458.173 366.626 463.973 362.326 C 465.273 361.326 466.473 360.426 467.673 359.526 C 473.973 355.026 535.173 331.426 552.773 327.426 C 553.773 327.226 554.673 327.026 555.373 326.926 C 553.073 320.826 548.273 317.226 540.873 315.926 C 534.373 314.826 525.973 315.426 515.173 317.926 C 507.673 319.626 500.373 321.926 493.873 323.926 C 489.373 325.326 485.473 326.526 482.373 327.226 C 476.673 333.926 472.973 335.826 468.373 336.926 C 467.073 337.226 465.773 337.426 464.373 337.726 C 460.573 340.726 449.673 346.326 445.273 347.526 C 442.773 350.126 435.573 355.426 430.273 356.826 C 429.073 357.326 428.073 357.726 427.073 358.126 C 423.673 359.426 420.973 360.426 415.773 364.626 L 415.573 364.826 L 415.373 364.926 C 409.273 366.726 407.873 367.926 405.673 369.926 C 404.873 370.626 403.973 371.426 402.773 372.426 C 398.073 376.126 383.073 381.926 377.273 383.326 C 374.173 384.626 367.873 386.826 362.773 388.526 C 360.173 389.426 357.473 390.326 356.773 390.626 C 356.673 390.926 356.473 391.426 356.373 391.926 C 356.073 393.126 355.573 394.826 354.673 396.526 L 354.473 396.826 L 354.173 397.026 C 349.173 400.026 347.173 402.226 346.573 403.126 C 346.673 403.526 346.873 404.326 347.273 405.626 Z " fill="rgb(239,226,157)"/><path d=" M 398.373 399.426 C 398.373 399.426 379.573 402.626 373.673 404.026 C 367.773 405.426 336.073 413.326 334.273 415.126 C 332.473 416.926 329.773 425.126 332.373 424.526 C 334.973 423.926 335.673 424.226 335.673 424.226 C 335.673 424.226 333.073 427.926 335.373 428.926 C 337.673 429.926 357.673 433.026 371.173 430.726 C 384.673 428.426 414.773 421.926 418.773 422.926 C 425.973 418.926 430.773 413.126 440.973 411.226 C 451.173 409.426 560.773 360.326 564.573 353.126 C 568.373 345.926 553.773 331.426 548.873 330.626 C 543.973 329.826 541.273 332.226 537.673 331.526 C 534.073 330.826 497.073 349.526 488.073 356.626 C 479.173 363.726 454.773 372.926 449.873 375.526 C 444.973 378.126 428.973 387.426 425.173 388.726 C 421.473 390.026 400.873 399.026 398.373 399.426 L 398.373 399.426 Z " fill="rgb(234,164,74)"/><path d=" M 418.873 424.026 L 418.473 423.926 C 415.773 423.226 398.373 426.626 385.573 429.026 C 380.173 430.026 375.073 431.026 371.273 431.726 C 357.673 434.026 337.173 430.826 334.873 429.926 C 334.173 429.626 333.573 429.026 333.373 428.326 C 333.073 427.326 333.373 426.226 333.773 425.326 C 333.373 425.426 332.873 425.426 332.473 425.526 C 331.573 425.726 330.873 425.426 330.473 424.626 C 329.273 422.426 331.773 415.926 333.473 414.326 C 335.773 412.026 372.973 403.126 373.373 403.026 L 373.773 402.926 C 379.973 401.526 397.973 398.426 398.173 398.426 C 398.173 398.426 398.273 398.426 398.273 398.426 C 400.173 398.026 408.573 394.426 415.373 391.626 C 419.673 389.826 423.473 388.226 424.873 387.726 C 427.373 386.826 436.073 382.026 442.373 378.526 C 445.373 376.826 447.973 375.426 449.473 374.626 C 450.873 373.926 453.673 372.726 457.173 371.126 C 466.673 367.026 481.073 360.926 487.373 355.826 C 495.473 349.426 528.273 332.426 536.173 330.626 C 536.873 330.426 537.373 330.426 537.773 330.526 C 538.973 330.726 539.973 330.626 541.373 330.326 C 541.673 330.226 541.873 330.226 542.173 330.126 C 544.073 329.626 546.173 329.126 548.973 329.626 C 552.773 330.226 560.973 337.626 564.473 344.626 C 566.273 348.326 566.573 351.326 565.373 353.626 C 562.973 358.126 527.373 375.026 506.373 384.726 C 479.073 397.326 446.673 411.226 440.973 412.226 C 440.473 412.326 440.073 412.426 439.573 412.526 C 433.573 413.926 429.673 416.626 425.573 419.626 C 423.573 421.026 421.473 422.526 419.173 423.826 L 418.873 424.026 L 418.873 424.026 Z  M 332.273 423.526 C 334.773 423.026 335.673 423.226 335.973 423.326 L 337.173 423.826 L 336.473 424.826 C 335.973 425.526 335.273 427.026 335.473 427.626 C 335.473 427.726 335.573 427.826 335.773 427.926 C 337.973 428.826 357.773 431.926 371.073 429.626 C 374.873 429.026 379.973 428.026 385.373 426.926 C 402.573 423.626 415.173 421.326 418.773 421.726 C 420.873 420.526 422.773 419.126 424.673 417.826 C 428.773 414.926 433.073 411.826 439.473 410.426 C 439.973 410.326 440.473 410.226 440.973 410.126 C 441.073 410.126 441.173 410.126 441.273 410.026 C 446.973 408.726 475.973 396.426 505.873 382.726 C 546.873 363.826 562.773 354.626 563.873 352.526 C 564.973 350.326 563.973 347.426 562.973 345.326 C 559.673 338.626 551.873 331.926 548.973 331.426 C 547.073 331.126 545.573 331.326 543.873 331.726 C 543.573 331.826 543.273 331.826 543.073 331.926 C 542.773 332.026 542.573 332.026 542.273 332.126 C 540.973 332.426 539.573 332.726 537.873 332.326 C 537.873 332.326 537.673 332.326 537.073 332.426 C 530.173 334.026 497.473 350.526 489.173 357.226 C 482.573 362.526 468.073 368.726 458.473 372.826 C 454.973 374.326 452.173 375.526 450.873 376.226 C 449.373 377.026 446.773 378.426 443.773 380.126 C 437.073 383.826 428.673 388.526 425.973 389.526 C 424.573 390.026 420.873 391.526 416.573 393.326 C 409.373 396.326 401.273 399.726 399.173 400.226 C 399.073 400.226 398.973 400.226 398.873 400.226 C 398.673 400.226 380.773 403.326 374.573 404.726 L 374.173 404.826 C 363.673 407.326 337.073 414.126 335.173 415.626 C 333.473 417.226 331.973 422.126 332.273 423.526 L 332.273 423.526 Z " fill="rgb(239,226,157)"/><path d=" M 336.873 424.826 C 336.873 424.826 341.173 419.026 345.073 419.526 C 348.973 420.026 348.873 422.026 353.673 419.526 C 358.473 417.026 364.473 413.526 368.473 415.026 C 376.773 410.626 387.573 405.726 397.573 407.426 C 413.173 402.826 448.773 389.826 455.673 381.626 C 469.573 380.226 473.573 377.826 478.673 371.826 C 486.773 371.926 490.573 361.026 497.573 360.426 C 504.573 359.826 511.273 360.326 517.373 351.626 C 532.273 348.826 549.573 343.726 553.173 344.126 C 556.773 344.526 559.273 345.626 559.273 345.626 C 559.273 345.626 507.173 375.526 455.773 398.826 C 404.373 422.126 394.173 421.626 394.173 421.626 C 394.173 421.626 339.473 430.226 336.873 424.826 L 336.873 424.826 Z  M 346.473 403.326 C 346.473 403.326 353.773 404.026 362.773 401.126 C 371.773 398.226 375.673 398.526 376.373 398.626 C 377.073 398.726 379.173 392.326 382.073 391.826 C 385.073 391.326 386.673 393.026 387.973 391.026 C 389.273 389.026 387.173 383.426 406.373 379.226 C 412.973 368.826 419.473 370.226 420.473 370.726 C 421.473 371.226 420.773 367.326 423.773 365.626 C 426.773 363.926 428.273 364.326 428.273 364.326 C 428.273 364.326 460.273 343.526 464.673 343.526 C 469.073 343.526 516.073 313.126 548.673 320.326 C 553.773 320.926 504.173 333.026 481.273 347.926 C 458.273 362.826 455.673 363.226 452.973 365.026 C 450.273 366.826 437.373 371.126 429.973 376.726 C 422.573 382.326 371.173 409.226 358.673 405.526 C 344.973 404.926 346.473 403.326 346.473 403.326 L 346.473 403.326 Z " fill="rgb(226,137,34)"/></g></svg>