<?xml version="1.0" encoding="utf-8"?>
<!-- Svg Vector Icons : http://www.onlinewebfonts.com/icon -->
<!DOCTYPE svg PUBLIC "-//W3C//DTD SVG 1.1//EN" "http://www.w3.org/Graphics/SVG/1.1/DTD/svg11.dtd">
<svg version="1.1" xmlns="http://www.w3.org/2000/svg" xmlns:xlink="http://www.w3.org/1999/xlink" x="0px" y="0px" viewBox="0 0 256 256" enable-background="new 0 0 256 256" xml:space="preserve">
<metadata> Svg Vector Icons : http://www.onlinewebfonts.com/icon </metadata>
<g> <path fill="#d3ecfa" d="M242.9,162.1l-5.7-3.8c-12.9-9.2-20.6-15.1-23.2-17.7c-2.5-2.6-19.5-23.2-50.9-61.7 c-5.8-7.7-9.6-11.9-11.3-12.5c-2.6-0.9-10.9,4.2-11.7,6.6c-0.6,1.6-2.3,3.6-5.3,5.9l-9.1,2.9l-7.6-1.4l-5.3-3.6l-7.2-10.5l-4.1-12 l-6,0l-7,8.1L75.4,80.4l-4.4,12l-8.6,8.3l-2.4,9.8l7.1,9.6l10.1,5.7L209.7,183l16.1,0l8.3-2.3l4.6-4.6l1.9-7.1L242.9,162.1 L242.9,162.1z"/> <path fill="#1d264d" d="M219.5,186.5c-0.5,0-1,0-1.6-0.1c-2.5-0.2-7.3-1-14.7-2.4l-1.1-0.2l-1.1-1.5l-0.6,0.2l-0.7-0.1 c-3.3-0.6-6.6-1.5-9.9-2.7c-3.2-1.2-7.5-3.1-12.8-5.7l-0.8-0.4l-0.6-0.9l-0.9,0.3l-19.3-8.6l-1.2-1.6l-1.7,0.3l-15.1-6.7l-0.4-1.1 l-1.8,0.1l-17.2-7.7l-1-1.6l-2.7,0l-20-8.9l-1.6-1.8l-1.6,0.4l-1-0.5c-9.4-4.4-16-7.9-20.3-10.7c-0.8-0.5-1.5-1-2.1-1.4 c-4.9-3.2-7.9-5.1-9.7-9.2c-2.5-5.5-1.8-10.8,2.2-16.3c2.5-3.4,5.4-5.7,8.7-6.7c0.7-4.2,1.9-8.2,3.5-11.9c1.9-4.3,4.4-8.1,7.5-11.4 L88,57.6c3-4.1,8-8.5,14.7-5.6c3.9,1.7,4.2,5.3,4.4,8.2c0.3,4,0.7,9.6,9.4,16.6c0.8,0.7,3.6,1.5,8.5,1.5c4,0,7.3-0.6,8.1-0.9 l0.1-0.1l0.2-0.1c0.5-0.3,1.5-2.1,2.2-3.2c1.4-2.5,3.2-5.6,6.2-7.6c5.2-3.5,7.7-3.6,11.6-2.4c3.6,1.1,6.1,4.1,8.3,6.9 c0.2,0.3,0.4,0.5,0.6,0.8c1.5,1.9,3,4.4,4.6,7.9l4.9,6l35.6,44.1c7.9,8.2,14,14,18.1,17.3c4.1,3.3,9.8,6.8,16.9,10.6l0.7,0.4 l0.4,0.6c2.2,3.3,3,6.7,2.4,10.3c-0.5,3.1-2,6.6-4.5,10.2c-1.4,2.6-3.4,4.4-6.1,5.4c-2.2,0.8-5.7,1.2-10.5,1.3 C223.2,186.2,221.4,186.5,219.5,186.5L219.5,186.5z M205.5,178.3c6.4,1.2,10.8,1.9,12.9,2.1c1.8,0.1,3.3,0,4.4-0.5l0.6-0.3l0.6,0 c5.5-0.1,8.1-0.6,9.2-1c1.3-0.5,2.2-1.3,2.8-2.5l0.1-0.2l0.1-0.2c2-3,3.2-5.7,3.6-8c0.3-1.8,0-3.5-1.1-5.2 c-7.1-3.8-12.9-7.5-17.1-10.9c-4.3-3.5-10.6-9.5-18.7-17.9l-0.2-0.2L167,89.3l-5.3-6.6l-0.2-0.4c-1.4-3.1-2.7-5.4-4-6.9l-0.6-0.8 c-1.6-2-3.4-4.3-5.3-4.8c-2.2-0.6-2.8-0.9-6.5,1.6c-1.8,1.2-3,3.4-4.3,5.5c-1.4,2.4-2.7,4.7-5,5.7c-2.3,1.2-7.6,1.6-10.5,1.7 c-4.1,0.1-9.7-0.4-12.7-2.8c-10.7-8.7-11.3-16.3-11.7-20.9c-0.2-2.7-0.4-2.9-0.8-3.1c-1.1-0.5-3.6-1.6-7.3,3.7l-0.1,0.2l-8.3,10.5 l-0.1,0.1c-2.6,2.8-4.8,6.1-6.4,9.8c-1.7,3.7-2.8,7.9-3.3,12.3l-0.3,2.3L72,96.6c-2.6,0.4-4.8,1.9-6.9,4.8c-2,2.7-3.6,5.9-1.6,10.2 c1.1,2.4,2.6,3.5,7.5,6.6c0.7,0.4,1.4,0.9,2.2,1.4c3.8,2.5,10.1,5.8,18.6,9.8l3.1-0.7l3.1,3.5l17.6,7.9l4.7,0l1.8,2.9l14.2,6.3 l4.7-0.3l1.1,2.8l11.1,4.9l3.5-0.6l2.5,3.3l15.7,7l3.2-1.1l2.2,3.6c4.8,2.3,8.6,4,11.4,5.1c2.7,1,5.4,1.7,8.1,2.3l3.2-1 L205.5,178.3L205.5,178.3z"/> <path fill="#7ec5e8" d="M67.1,98.6c-3.2,2.9-4.7,5.6-4.6,7.9c0.1,2.3,0.5,4.4,1.4,6.1c1.9,2.5,5.6,5.3,11.2,8.4 c5.6,3.1,11.1,6,16.5,8.5l3.3-0.7l3,3.5l17.7,7.9l4.7,0l1.5,2.8l14.7,6.5l4.4-0.2l1,2.6l11.6,5.2l3.2-0.7l2.4,3.2l15.9,7.1l3.1-0.8 l2.2,3.2c5.2,2.5,9.1,4.2,11.9,5.3c2.7,1,5.4,1.8,8,2.4l2.8-1.2l2.4,3.1c6.1,1.2,10.6,1.9,13.5,2.1s4.4-0.2,4.6-1l8.1-0.6 c-14.9-0.6-31-5-48.4-13.5c-5.4-2.6-11.2-5.3-16.9-9.3c-8.7-6.1-17.4-14.2-26.5-20.7c-11.6-8.3-24.6-15.4-33.1-19.5 c-16.3-8-27.1-12.2-33.6-14.9C70.1,100,68.1,99.1,67.1,98.6L67.1,98.6z"/> <path fill="#1d264d" d="M234.1,179c-14.9,0-28.9-2.9-41.8-8.6c-21.4-9.5-29.3-16.2-38.3-23.8c-6.7-5.6-14.3-12-29.1-20.8 c-10.9-6.4-30.6-15.7-58.4-27.5l2.4-5.6c28.1,12,48,21.4,59.1,27.9c15.3,9,23.1,15.5,30,21.4c8.7,7.3,16.3,13.7,36.9,22.9 c13.5,6,28.4,8.7,44.3,8l0.3,6.1C237.6,179,235.8,179.1,234.1,179L234.1,179z M200,140c-0.8,0-1.6-0.3-2.2-0.9 c-1.2-1.2-1.1-3.1,0.1-4.3c3.4-3.2,6.6-7.1,7.6-9c-0.3,0-0.8,0.1-1.6,0.4l-1.6,1.4c-1.3,1.1-3.2,0.9-4.3-0.3 c-1.1-1.3-0.9-3.2,0.3-4.3l2-1.7c0.2-0.2,0.5-0.4,0.8-0.5c2-0.9,3.8-1.2,5.4-0.9c1.9,0.3,3.5,1.3,4.6,2.9c2,3.2-0.8,7.3-3.9,10.9 c-2.5,2.9-5.1,5.4-5.2,5.5C201.5,139.8,200.8,140,200,140L200,140z M191.2,126.2c-0.8,0-1.6-0.3-2.2-0.9c-1.2-1.2-1.1-3.1,0.1-4.3 c5.7-5.4,7.3-7.9,7.7-9c-0.3,0-0.8,0-1.8,0.4l-2.6,2.1c-1.3,1.1-3.2,0.8-4.3-0.5c-1.1-1.3-0.8-3.2,0.5-4.3l3-2.4 c0.2-0.2,0.5-0.3,0.7-0.4c2-0.9,3.8-1.2,5.4-0.9c1.9,0.3,3.5,1.3,4.6,2.9c2.6,4-1.8,9.5-9,16.4C192.7,126,192,126.2,191.2,126.2z  M181.5,114.4c-0.8,0-1.6-0.3-2.2-0.9c-1.2-1.2-1.1-3.1,0.1-4.3c5.7-5.4,7.3-7.9,7.7-9c-0.3,0-0.8,0-1.8,0.4l-2.7,1.9 c-1.4,1-3.3,0.7-4.2-0.7c0,0,0,0,0,0c-1-1.4-0.7-3.3,0.7-4.2c0,0,0,0,0,0l3-2.2c0.2-0.1,0.4-0.2,0.6-0.3c2-0.9,3.8-1.2,5.4-0.9 c1.9,0.3,3.5,1.3,4.6,2.9c2.6,4-1.8,9.5-9,16.4C183,114.1,182.2,114.4,181.5,114.4L181.5,114.4z M171.8,102.6 c-0.8,0-1.6-0.3-2.2-0.9c-1.2-1.2-1.1-3.1,0.1-4.3c5.7-5.4,7.3-7.9,7.7-9c-0.3,0-0.9,0-1.9,0.5l-2.4,1.4c-1.4,0.9-3.3,0.4-4.2-1.1 c-0.9-1.4-0.4-3.3,1.1-4.2l2.6-1.5c0.1-0.1,0.3-0.1,0.4-0.2c2-0.9,3.8-1.2,5.4-0.9c1.9,0.3,3.5,1.3,4.6,2.9c2.6,4-1.8,9.5-9,16.4 C173.3,102.3,172.5,102.6,171.8,102.6L171.8,102.6z"/> <path fill="#f9f2a5" d="M91.9,103c2.5-9.8,3.2-16.7,2-20.9c-1.1-4.2-4.6-7.2-10.5-9.1c-2.9,3.1-4.9,6-6.1,8.9 c-1.2,2.8-2.2,7.3-3.1,13.3L91.9,103z"/> <path fill="#1d264d" d="M96,111.5L67.7,98.9l0.6-4.5c0.9-6.6,2-11.5,3.5-14.8c1.5-3.5,3.9-7.1,7.3-10.7l2.6-2.8l3.6,1.2 c7.9,2.6,12.8,7.1,14.5,13.3c1.4,5.3,0.8,12.9-2,24L96,111.5z M74.3,95.2l17.6,7.8c2.5-9.7,3.2-16.7,2-20.9 c-1.1-4.2-4.7-7.2-10.5-9.1c-2.9,3.1-5,6-6.1,8.9C76.2,84.7,75.2,89.2,74.3,95.2L74.3,95.2z"/> <path fill="#1d264d" d="M140,154.4c-0.8,0-1.6-0.3-2.2-0.9c-1.3-1.2-1.4-3.3-0.2-4.6l9.1-9.7c1.2-1.3,3.3-1.4,4.6-0.2 c1.3,1.2,1.4,3.3,0.2,4.6l-9.1,9.7C141.7,154,140.9,154.4,140,154.4L140,154.4z M120,145.5c-0.8,0-1.6-0.3-2.2-0.9 c-1.3-1.2-1.4-3.3-0.2-4.6l13-14.1c1.2-1.3,3.3-1.4,4.6-0.2c1.3,1.2,1.4,3.3,0.2,4.6l-13,14.1C121.8,145.1,120.9,145.5,120,145.5 L120,145.5z M95,134.1c-0.7,0-1.5-0.2-2-0.8c-1.3-1.1-1.3-3.1-0.2-4.3l13.3-14.8c1.1-1.3,3.1-1.3,4.3-0.2c1.3,1.1,1.3,3.1,0.2,4.3 l-13.3,14.8C96.7,133.8,95.8,134.1,95,134.1z M72.2,124c-0.7,0-1.5-0.2-2-0.8c-1.3-1.1-1.3-3.1-0.2-4.3l13.4-14.8 c1.1-1.3,3.1-1.3,4.3-0.2c1.3,1.1,1.3,3.1,0.2,4.3L74.5,123C73.9,123.7,73.1,124,72.2,124z"/> <path fill="#7ec5e8" d="M238.4,172.7c-9.7,0-17-0.5-21.8-1.4c-13.2-2.5-25.3-7.3-39.3-15.3c-13.8-7.9-23.1-19-40.6-30.3 c-7.1-4.6-20-11.4-38.9-20.5l1.5-7.9c20.5,9.8,34.6,17.2,42.3,22.2c25.3,16.5,40,31.1,51.2,36.7c16.4,8.1,32.1,12.1,47.2,11.8 c0,0.8-0.2,1.5-0.6,2.3L238.4,172.7L238.4,172.7z"/> <path fill="#ffffff" d="M19.1,168.2c12.4-2.9,22.3-5.8,29.7-8.7c15.6-6.1,40-17,73.3-32.6c7.7-6.2,13.1-8.4,16.2-6.7 c3.1,1.7,5.1,5.3,6.1,10.8c7.9,9.6,14,14,18.1,13.3c2.8-0.5,10.8-1.9,15.5-5.9c5.7-4.9,8.1-12.5,10.2-11.5c3.7,1.8,5.8-0.6,7.5,4.1 c1.2,3.1,2.9,9.9,5.1,20.4v17.6l-0.8,6.9l3.6,3.4c2.2,3.7,3.1,6.7,2.6,9.1c-0.8,3.6-4.5,10.4-5.3,10.4c-0.8,0-13.2,2.3-14.2,2.3 H66.4c-18.2-0.2-27.9-0.6-29.2-1.3c-1.2-0.7-5.5-2.5-12.8-5.5c-7.9-5.3-11.8-8.9-11.9-10.7c-0.1-1.8,0.6-5.9,1.9-12.2L19.1,168.2z" /> <path fill="#1d264d" d="M63.5,205c-2.4,0-4.4-0.1-6.1-0.2c-3.5-0.2-6.9-0.8-10.2-1.6l-0.7-0.2l-0.5-0.4l-1.6,0.9l-1.1-0.2 c-7.3-1.7-12.1-2.9-14.4-3.8c-2.5-0.9-4.4-2.1-5.8-3.5c-4.4-2.1-7.4-3.9-9.1-5.5c-2.1-2-3.2-4.4-3.4-7.4c-0.7-4.3-0.7-8.1,0.1-11.2 c0.9-3.5,3-6.3,6.4-8.4l0.6-0.4l0.8-0.1c8.1-0.6,14.7-1.5,19.7-2.9c5.1-1.3,13-4.2,23.5-8.4l50.4-25.8l6.9-3.5 c2.8-2.4,5.2-4.2,7.4-5.3c0.3-0.2,0.6-0.3,0.9-0.5c3.1-1.6,6.6-3.4,10.4-2.9c4,0.5,6.3,1.6,9.6,6.9c1.9,3,2.3,6.6,2.6,9.4 c0.2,1.3,0.4,3.3,0.7,3.8l0.2,0.2l0.1,0.2c0.6,0.6,3.3,2.5,7,4.2c4.4,2,7.2,2.4,8.3,2.1c10.8-2.9,13.5-7.8,15.4-11.4 c1.4-2.6,3.1-5.7,7.4-5.7c4,0,9.3,1.9,11.1,11.1l3.3,12.6c1.5,4.2,2.2,8.7,2.2,13.4c0,4-0.5,8.1-1.6,12.3c2.6,2.3,4.3,5.5,5.2,9.7 c1.4,6.6-0.1,11.8-4.6,15.8c-3.4,3-6.9,3.6-12.6,4.4c-0.8,0.1-1.6,0.2-2.5,0.4c-5,0.8-12.5,1.3-22.8,1.5l-1.1,0l-1.3-1l-2.2,1H140 l-2.4-1.1l-1.5,1.1h-18.8l-1.6-0.8l-0.8,0.8H98.3l-1.5-1l-1.8,1H73.9l-0.7-0.6l-0.9,0.6l-0.9,0C68.5,204.9,65.8,205,63.5,205 L63.5,205z M49.4,197.5c2.7,0.6,5.5,1,8.4,1.2c3,0.2,7.2,0.2,12.5,0l3.5-2.4l2.5,2.3h17.2l3.6-2l3,2h12.2l2.2-2.2l4.2,2.2h15.5 l2.8-1.9l4.3,1.9h19.3l4.3-2l2.5,1.9c9.4-0.2,16.5-0.7,21-1.4c0.9-0.2,1.8-0.3,2.6-0.4c5.7-0.9,7.6-1.2,9.5-2.9 c3.6-3.2,3.4-6.7,2.7-10c-0.8-3.5-2.2-5.8-4.4-7.2l-2-1.2l0.7-2.2c1.3-4.3,2-8.5,2-12.6c0-4-0.6-7.9-1.9-11.5l-0.1-0.2L194,136 c-1.3-6.4-4-6.4-5.2-6.4c-0.5,0-0.7,0.1-2,2.5c-2.2,4-5.8,10.7-19.1,14.3c-3.8,1-9-0.9-12.8-2.6c-2.6-1.2-7.3-3.7-8.9-5.8 c-1.6-1.8-1.9-4.5-2.2-7.3c-0.3-2.5-0.5-5-1.7-6.8c-2.4-3.7-3-3.8-5.3-4.1c-1.9-0.2-4.5,1.1-6.8,2.3l-0.9,0.5 c-1.7,0.9-3.9,2.5-6.4,4.7l-0.3,0.3l-7.5,3.8l-50.6,25.9l-0.1,0.1c-11,4.5-19,7.3-24.4,8.7c-5.3,1.4-12,2.4-20,3 c-1.6,1.2-2.7,2.6-3.1,4.3c-0.6,2.3-0.6,5.3,0.1,8.8l0,0.2v0.2c0.1,1.4,0.6,2.6,1.5,3.5c0.9,0.8,3,2.3,8,4.6l0.6,0.3l0.4,0.5 c0.8,0.9,2,1.7,3.8,2.3c2,0.7,6.3,1.8,12.6,3.3l3.4-1.8L49.4,197.5L49.4,197.5z"/> <path fill="#7ec5e8" d="M202.4,180.5c1.7,4,2,7,1,9.1c-1,2.1-2.2,3.8-3.8,5c-2.7,1.5-7.3,2.6-13.7,3.2c-6.4,0.6-12.5,0.9-18.5,1.1 l-2.7-2l-4.2,2h-19.4l-4.3-2l-2.6,2h-16.1l-3.9-2l-2,2H99.7l-2.7-2l-3.5,2H76.1l-2.5-2l-3.3,2c-5.7,0.2-10,0.2-13,0 c-2.9-0.2-5.7-0.5-8.3-1.1l-2.1-2.3l-3.5,1.9c-6-1.3-10.5-2.5-13.2-3.6c-2.7-1-4-1.9-3.8-2.8l-7.1-3.8c13.9,5.6,30.4,8,49.7,7.4 c6-0.2,12.4-0.3,19.2-1.7c10.4-2.1,21.6-5.9,32.6-8.1c13.9-2.8,28.7-4,38.2-4.3c18.1-0.7,29.8-0.1,36.7,0 C199.1,180.6,201.3,180.6,202.4,180.5L202.4,180.5z"/> <path fill="#1d264d" d="M58.8,195.2c-15.7,0-31.3-3.8-46.4-11.4l2.7-5.4c14.2,7.1,29,10.8,43.7,10.8c22.6,0,32.1-2.7,43-5.9 c8.7-2.5,18.5-5.3,36.1-7.3c12.9-1.4,34.8-1.9,65.3-1.4l-0.1,6.1c-30.2-0.5-52,0-64.6,1.4c-17.1,1.9-26.6,4.7-35.1,7.1 C92.1,192.4,82.2,195.2,58.8,195.2L58.8,195.2z M65.3,164.6c-1.2,0-2.3-0.7-2.8-1.9c-0.1-0.2-1.4-3.5-2.5-7.1 c-1.3-4.6-2.2-9.5,0.9-11.5c1.7-1.1,3.5-1.4,5.4-0.8c1.5,0.5,3,1.5,4.6,3.1c0.2,0.2,0.4,0.5,0.5,0.8l1.1,2.4c0.7,1.5,0.1,3.3-1.4,4 c-1.5,0.7-3.3,0.1-4-1.4l-0.9-1.9c-0.6-0.6-1-0.8-1.3-1c0.1,2.1,1.5,7,3.3,11.3c0.6,1.5-0.1,3.3-1.6,4 C66.1,164.5,65.7,164.6,65.3,164.6z M79,155.6c-1.2,0-2.3-0.7-2.8-1.9c-3.8-9.3-5.6-16.1-1.6-18.7c1.7-1.1,3.5-1.4,5.4-0.8 c1.5,0.5,3,1.5,4.6,3.1c0.2,0.2,0.4,0.4,0.5,0.7l1.7,3.4c0.8,1.5,0.2,3.3-1.3,4.1c-1.5,0.8-3.3,0.2-4.1-1.3l-1.5-3 c-0.7-0.7-1.2-1-1.5-1.1c0,1.1,0.4,4.1,3.4,11.3c0.6,1.5-0.1,3.3-1.6,4C79.8,155.5,79.4,155.6,79,155.6L79,155.6z M92.7,148.7 c-1.2,0-2.3-0.7-2.8-1.9c-3.8-9.3-5.6-16.1-1.6-18.7c1.7-1.1,3.5-1.4,5.4-0.8c1.5,0.5,3,1.5,4.6,3.1c0.2,0.2,0.3,0.3,0.4,0.5 l1.9,3.2c0.9,1.5,0.4,3.3-1.1,4.2c-1.5,0.9-3.3,0.4-4.2-1.1l-1.7-2.9c-0.8-0.8-1.2-1-1.5-1.1c0,1.1,0.4,4.1,3.4,11.3 c0.6,1.5-0.1,3.3-1.6,4C93.5,148.7,93.1,148.7,92.7,148.7z M106.4,141.9c-1.2,0-2.3-0.7-2.8-1.9c-3.8-9.3-5.6-16.1-1.6-18.7 c1.7-1.1,3.5-1.4,5.4-0.8c1.5,0.5,3,1.5,4.6,3.1c0.1,0.1,0.2,0.2,0.3,0.3l1.7,2.4c1,1.4,0.6,3.3-0.7,4.2c-1.4,1-3.3,0.6-4.2-0.7 l-1.6-2.2c-0.8-0.8-1.3-1.1-1.6-1.2c0,1.1,0.4,4.1,3.4,11.3c0.6,1.5-0.1,3.3-1.6,4C107.2,141.8,106.8,141.9,106.4,141.9z"/> <path fill="#f9f2a5" d="M178.6,173.6c1.6-9.4,3.7-15.6,6.3-18.8c2.6-3.2,6.8-4.4,12.6-3.8c1.3,3.8,1.9,7.1,1.9,10 s-0.9,7.1-2.5,12.6H178.6L178.6,173.6z"/> <path fill="#1d264d" d="M201.4,179.6h-30l1.2-7.1c1.8-10.7,4.2-17.6,7.5-21.6c2.7-3.3,8-7.1,17.9-6l3.8,0.4l1.3,3.6 c1.6,4.5,2.3,8.5,2.2,12.2c-0.1,3.5-1,8.1-2.7,14.2L201.4,179.6L201.4,179.6z M178.6,173.6h18.2c1.6-5.5,2.4-9.8,2.5-12.6 c0.1-2.9-0.6-6.3-1.9-10c-5.8-0.6-10,0.7-12.6,3.8C182.3,157.9,180.2,164.2,178.6,173.6L178.6,173.6z"/> <path fill="#1d264d" d="M114.4,201.9c-1.2,0-2.4-0.8-2.9-2l-4.3-12.5c-0.5-1.6,0.3-3.3,1.9-3.9s3.3,0.3,3.9,1.9l4.3,12.5 c0.5,1.6-0.3,3.3-1.9,3.9C115.1,201.8,114.8,201.9,114.4,201.9z M136.3,201.9c-1.3,0-2.5-0.8-2.9-2.1l-6.1-18.2 c-0.5-1.6,0.3-3.3,1.9-3.9c1.6-0.5,3.3,0.3,3.9,1.9l6.1,18.2c0.5,1.6-0.3,3.3-1.9,3.9C137,201.9,136.7,201.9,136.3,201.9z  M163.7,201.9c-1.3,0-2.5-0.8-2.9-2.1l-6.2-19c-0.5-1.6,0.4-3.3,1.9-3.8c1.6-0.5,3.3,0.4,3.8,1.9l6.2,19c0.5,1.6-0.4,3.3-1.9,3.8 C164.3,201.9,164,201.9,163.7,201.9z M188.6,201.9c-1.3,0-2.5-0.8-2.9-2.1l-6.2-19c-0.5-1.6,0.4-3.3,1.9-3.8 c1.6-0.5,3.3,0.4,3.8,1.9l6.2,19c0.5,1.6-0.4,3.3-1.9,3.8C189.2,201.9,188.9,201.9,188.6,201.9z"/> <path fill="#7ec5e8" d="M15.8,178.8c8.9,3.9,15.7,6.4,20.5,7.6c13,3.1,26.1,3.6,42.1,2c15.8-1.6,28.8-8,49.5-11.2 c8.3-1.3,22.9-2.2,43.8-2.9l1.9-7.8c-22.8,0.6-38.6,1.6-47.7,3.1c-29.9,4.8-49.2,12.2-61.7,12.7c-18.3,0.8-34.2-2-47.9-8.4 c-0.3,0.7-0.4,1.5-0.4,2.3V178.8L15.8,178.8z"/> <path fill="#1d264d" d="M117.7,108.1c-1,0-2-0.5-2.6-1.4c-2.1-3.3-2.7-6.9-1.8-10.2c0.9-3.1,3-5.6,5.9-7.1c2.6-1.3,5.1-1.1,7.8-0.9 c3.3,0.3,7.5,0.6,13.9-1.5c6.8-2.2,10.9-8.1,12.4-17.8c0.2-1.2,1.2-2.2,2.4-2.5c1.2-0.2,2.5,0.3,3.2,1.4l3.1,5 c3.1-1,6.3-0.6,9.4,1.2c1.6,0.9,2.6,2.4,2.7,4.1c0.2,3.6-3.1,7.6-11.5,13.9c-1.3,1-3.3,0.8-4.3-0.6c-1-1.3-0.8-3.3,0.6-4.3 c6.3-4.8,8.2-7.2,8.8-8.3c-1.9-0.9-3.6-0.8-5.5,0.3c-1.4,0.8-3.3,0.3-4.1-1.1l-0.6-1c-2.7,7.9-7.7,13-14.8,15.3 c-7.5,2.4-12.5,2-16.3,1.7c-2.4-0.2-3.7-0.3-4.6,0.2c-1.4,0.7-2.4,1.9-2.8,3.3c-0.5,1.6-0.1,3.5,1.1,5.3c0.9,1.4,0.5,3.3-0.9,4.2 C118.9,107.9,118.3,108.1,117.7,108.1z"/> <path fill="#ffffff" d="M133.6,156.9l-3.2-5.1l-7.2,6.2L133.6,156.9z"/> <path fill="#1d264d" d="M104.5,166l27.4-23.5l11.9,19.4L104.5,166z M130.4,151.7l-7.2,6.2l10.4-1.1L130.4,151.7z"/></g>
</svg>