<?xml version="1.0" encoding="utf-8"?>
<!-- Svg Vector Icons : http://www.onlinewebfonts.com/icon -->
<!DOCTYPE svg PUBLIC "-//W3C//DTD SVG 1.1//EN" "http://www.w3.org/Graphics/SVG/1.1/DTD/svg11.dtd">
<svg version="1.1" xmlns="http://www.w3.org/2000/svg" xmlns:xlink="http://www.w3.org/1999/xlink" x="0px" y="0px" viewBox="0 0 256 256" enable-background="new 0 0 256 256" xml:space="preserve">
<metadata> Svg Vector Icons : http://www.onlinewebfonts.com/icon </metadata>
<g> <path fill="#f29419" d="M119.1,39.5c0,16.3,13.2,29.5,29.5,29.5c16.3,0,29.5-13.2,29.5-29.5c0-16.3-13.2-29.5-29.5-29.5 C132.3,10,119.1,23.2,119.1,39.5C119.1,39.5,119.1,39.5,119.1,39.5z"/> <path fill="#0d7668" d="M154.5,147.5l-54.3-24.2c-5.9-3-8.8,5.9-11.8,11.8c-2.9,5.9-24.2,42.5-22.4,49c1.8,5.3,6.5,8.3,11.2,8.3 c1.2,0,2.4,0,3.5-0.6l72.6-22.4c4.7-1.2,8.3-5.9,8.3-10.6C161.5,154,158.6,149.2,154.5,147.5L154.5,147.5z"/> <path fill="#0f9083" d="M141.5,76.1l-13-5.9c-7.7-3.5-17.1,0-20.6,7.7l-70.2,151c-3,5.9,0,13,5.9,15.9c1.8,0.6,3.5,1.2,5.3,1.2 c4.7,0,8.8-2.4,10.6-6.5c0,0,56.6-78.5,61.4-87.9c4.7-9.4,28.9-54.9,28.9-54.9C152.7,89.1,149.7,79.6,141.5,76.1z"/> <path fill="#f29419" d="M222.3,79c-4.1-4.7-11.8-5.9-16.5-1.8L176.3,102l-37.8-20.6c-6.5-3.5-15.3-2.4-19.5,5.3 c-4.7,7.7-2.4,17.1,4.7,20.1l49,20.1c1.8,0.6,3.5,1.2,5.3,1.2c3,0,5.3-1.2,7.7-2.9l35.4-29.5C225.8,91.4,226.4,84.3,222.3,79z  M52.4,122.7l20.1-30.1l27.1,3.5l8.8-18.3c2.4-5.3,7.1-8.3,12.4-8.8H66.6c-4.1,0-7.7,1.8-10,5.3l-23.6,35.4 c-3.5,5.3-2.4,13,3.5,16.5c1.2,1.2,3.5,1.8,5.9,1.8C45.9,128,50,126.2,52.4,122.7z"/></g>
</svg>