<?xml version="1.0" encoding="UTF-8" standalone="no"?><!-- Generator: Gravit.io --><svg xmlns="http://www.w3.org/2000/svg" xmlns:xlink="http://www.w3.org/1999/xlink" style="isolation:isolate" viewBox="-2.7 210 408 399" width="408pt" height="399pt"><line x1="7" y1="353" x2="37" y2="353" vector-effect="non-scaling-stroke" stroke-width="2" stroke="rgb(40,49,96)" stroke-linejoin="miter" stroke-linecap="square" stroke-miterlimit="3"/><path d=" M 169 243 C 173.907 254.098 179.25 262.442 185 268" fill="none" vector-effect="non-scaling-stroke" stroke-width="2" stroke="rgb(40,49,96)" stroke-linejoin="miter" stroke-linecap="square" stroke-miterlimit="3"/><path d=" M 224 221 C 225.037 234.722 225.047 246.399 224 256" fill="none" vector-effect="non-scaling-stroke" stroke-width="2" stroke="rgb(40,49,96)" stroke-linejoin="miter" stroke-linecap="square" stroke-miterlimit="3"/><path d=" M 369 310 C 359.816 318.882 352.826 327.226 348 335" fill="none" vector-effect="non-scaling-stroke" stroke-width="2" stroke="rgb(40,49,96)" stroke-linejoin="miter" stroke-linecap="square" stroke-miterlimit="3"/><path d=" M 324 469 C 316.976 461.966 293.653 465.976 254 481" fill="none" vector-effect="non-scaling-stroke" stroke-width="2" stroke="rgb(40,49,96)" stroke-linejoin="miter" stroke-linecap="square" stroke-miterlimit="3"/><line x1="133" y1="398" x2="97" y2="377" vector-effect="non-scaling-stroke" stroke-width="2" stroke="rgb(40,49,96)" stroke-linejoin="miter" stroke-linecap="square" stroke-miterlimit="3"/><path d=" M 145 392 C 156.274 382.842 166.951 374.852 177 368" fill="none" vector-effect="non-scaling-stroke" stroke-width="2" stroke="rgb(40,49,96)" stroke-linejoin="miter" stroke-linecap="square" stroke-miterlimit="3"/><path d=" M 173 314 C 177.624 325.982 181.634 338.992 185 353" fill="none" vector-effect="non-scaling-stroke" stroke-width="2" stroke="rgb(40,49,96)" stroke-linejoin="miter" stroke-linecap="square" stroke-miterlimit="3"/><path d=" M 232 385 C 221.779 377.748 211.456 372.091 201 368" fill="none" vector-effect="non-scaling-stroke" stroke-width="2" stroke="rgb(40,49,96)" stroke-linejoin="miter" stroke-linecap="square" stroke-miterlimit="3"/><line x1="282" y1="372" x2="254" y2="385" vector-effect="non-scaling-stroke" stroke-width="2" stroke="rgb(40,49,96)" stroke-linejoin="miter" stroke-linecap="square" stroke-miterlimit="3"/><path d=" M 245 462 C 241.039 450.031 239.716 433.374 241 412" fill="none" vector-effect="non-scaling-stroke" stroke-width="2" stroke="rgb(40,49,96)" stroke-linejoin="miter" stroke-linecap="square" stroke-miterlimit="3"/><path d=" M 224 551 C 227.051 567.664 232.728 584.341 241 601" fill="none" vector-effect="non-scaling-stroke" stroke-width="2" stroke="rgb(40,49,96)" stroke-linejoin="miter" stroke-linecap="square" stroke-miterlimit="3"/><line x1="177" y1="291" x2="185" y2="277" vector-effect="non-scaling-stroke" stroke-width="2" stroke="rgb(40,49,96)" stroke-linejoin="miter" stroke-linecap="square" stroke-miterlimit="3"/><path d=" M 395 372 C 373.574 363.472 358.917 360.816 351 364" fill="none" vector-effect="non-scaling-stroke" stroke-width="2" stroke="rgb(40,49,96)" stroke-linejoin="miter" stroke-linecap="square" stroke-miterlimit="3"/><path d=" M 373 408 C 361.694 394.398 350.037 384.075 338 377" fill="none" vector-effect="non-scaling-stroke" stroke-width="2" stroke="rgb(40,49,96)" stroke-linejoin="miter" stroke-linecap="square" stroke-miterlimit="3"/><circle vector-effect="non-scaling-stroke" cx="80.5" cy="350.49999999999994" r="53.5" fill="rgb(253,136,147)"/><circle vector-effect="non-scaling-stroke" cx="218.99999999999994" cy="506" r="53" fill="rgb(253,136,147)"/><circle vector-effect="non-scaling-stroke" cx="333.00000000000006" cy="482" r="29.000000000000057" fill="rgb(253,136,147)"/><circle vector-effect="non-scaling-stroke" cx="310.5000000000001" cy="352.49999999999994" r="51.5" fill="rgb(253,136,147)"/><circle vector-effect="non-scaling-stroke" cx="168.5" cy="237.5" r="11.5" fill="rgb(40,49,96)"/><circle vector-effect="non-scaling-stroke" cx="221.00000000000003" cy="218.99999999999997" r="8.999999999999972" fill="rgb(40,49,96)"/><circle vector-effect="non-scaling-stroke" cx="395.29999999999995" cy="372" r="10" fill="rgb(40,49,96)"/><circle vector-effect="non-scaling-stroke" cx="372.0000000000001" cy="310.9999999999999" r="10" fill="rgb(40,49,96)"/><circle vector-effect="non-scaling-stroke" cx="372.0000000000001" cy="409.5" r="10" fill="rgb(40,49,96)"/><circle vector-effect="non-scaling-stroke" cx="240" cy="599" r="10" fill="rgb(40,49,96)"/><circle vector-effect="non-scaling-stroke" cx="7.299999999999956" cy="352.49999999999994" r="10" fill="rgb(40,49,96)"/><circle vector-effect="non-scaling-stroke" cx="171.5" cy="300.49999999999994" r="20.5" fill="rgb(157,189,254)"/><circle vector-effect="non-scaling-stroke" cx="109.5" cy="498.5" r="41.5" fill="rgb(157,189,254)"/><circle vector-effect="non-scaling-stroke" cx="190.25" cy="268" r="14" fill="rgb(157,189,254)"/><circle vector-effect="non-scaling-stroke" cx="138.25" cy="400.75" r="18.750000000000007" fill="rgb(151,233,237)"/><circle vector-effect="non-scaling-stroke" cx="190.25" cy="365.75" r="18.75" fill="rgb(151,233,237)"/><circle vector-effect="non-scaling-stroke" cx="243.38888888888886" cy="397.6111111111112" r="21.8888888888888" fill="rgb(151,233,237)"/><circle vector-effect="non-scaling-stroke" cx="225.49999999999997" cy="263.5" r="14.5" fill="rgb(157,189,254)"/></svg>