<?xml version="1.0" encoding="UTF-8" standalone="no"?><!-- Generator: Gravit.io --><svg xmlns="http://www.w3.org/2000/svg" xmlns:xlink="http://www.w3.org/1999/xlink" style="isolation:isolate" viewBox="474 522 413 410" width="413pt" height="410pt"><path d=" M 501 644 L 474 700 L 873 700 L 849 644 L 501 644 Z " fill="rgb(254,55,126)"/><path d=" M 524 650 L 500 705 L 849 705 L 828 650 L 524 650 Z " fill="rgb(43,13,103)"/><path d=" M 480 566 L 882 566 L 849 632 L 508 632 L 480 566 Z " fill="rgb(254,55,126)"/><path d=" M 488 566 L 865 566 L 832 632 L 516 632 L 488 566 Z " fill="rgb(44,13,101)"/><path d=" M 672.898 705 C 668.347 677.388 637.084 656 599.25 656 C 561.416 656 530.153 677.388 525.602 705 L 672.898 705 L 672.898 705 Z " fill="rgb(253,113,245)"/><path d=" M 817.453 705 C 818.148 702.565 818.5 700.057 818.5 697.5 C 818.5 672.94 786.014 653 746 653 C 705.986 653 673.5 672.94 673.5 697.5 C 673.5 700.057 673.852 702.565 674.547 705 L 817.453 705 L 817.453 705 Z " fill="rgb(91,206,211)"/><rect x="477" y="699" width="393" height="233" transform="matrix(1,0,0,1,0,0)" fill="rgb(255,116,106)"/><path d=" M 516 568 L 528 597 L 826 597 L 840 568 L 516 568 Z " fill="rgb(255,255,255)"/><linearGradient id="_lgradient_0" x1="-0.21538332860364695" y1="0.3208205756276816" x2="1.1062930712589427" y2="0.5884262094304948" gradientTransform="matrix(410,0,0,46,477,522)" gradientUnits="userSpaceOnUse"><stop offset="66.95652173913044%" stop-opacity="1" style="stop-color:rgb(255,116,106)"/><stop offset="98.69565217391305%" stop-opacity="1" style="stop-color:rgb(255,57,124)"/></linearGradient><path d=" M 498 522 L 477 568 L 887 568 L 870 522 L 498 522 Z " fill="url(#_lgradient_0)"/><line x1="501" y1="720" x2="668" y2="720" vector-effect="non-scaling-stroke" stroke-width="2" stroke="rgb(0,0,0)" stroke-linejoin="miter" stroke-linecap="square" stroke-miterlimit="3"/><line x1="678" y1="729" x2="840" y2="729" vector-effect="non-scaling-stroke" stroke-width="2" stroke="rgb(0,0,0)" stroke-linejoin="miter" stroke-linecap="square" stroke-miterlimit="3"/><line x1="569" y1="737" x2="569" y2="793" vector-effect="non-scaling-stroke" stroke-width="2" stroke="rgb(0,0,0)" stroke-linejoin="miter" stroke-linecap="square" stroke-miterlimit="3"/><line x1="797" y1="743" x2="797" y2="805" vector-effect="non-scaling-stroke" stroke-width="2" stroke="rgb(0,0,0)" stroke-linejoin="miter" stroke-linecap="square" stroke-miterlimit="3"/><line x1="501" y1="545" x2="705" y2="545" vector-effect="non-scaling-stroke" stroke-width="2" stroke="rgb(0,0,0)" stroke-linejoin="miter" stroke-linecap="square" stroke-miterlimit="3"/><line x1="746" y1="545" x2="860" y2="545" vector-effect="non-scaling-stroke" stroke-width="2" stroke="rgb(0,0,0)" stroke-linejoin="miter" stroke-linecap="square" stroke-miterlimit="3"/></svg>