<?xml version="1.0" encoding="UTF-8" standalone="no"?><svg xmlns="http://www.w3.org/2000/svg" xmlns:xlink="http://www.w3.org/1999/xlink" fill="#ffffff" height="126.5" preserveAspectRatio="xMidYMid meet" version="1" viewBox="-0.5 -0.5 127.0 126.5" width="127" zoomAndPan="magnify"><g id="change1_1"><path d="M34.873,99.704l-21.532-1.785c-1.302-0.107-2.551,0.295-3.541,1.134c-0.989,0.838-1.594,2.012-1.701,3.306l-0.026,0.333 c-0.108,1.293,0.294,2.55,1.133,3.54c0.838,0.99,2.012,1.594,3.305,1.701l21.533,1.786c0.135,0.011,0.271,0.017,0.404,0.017 c2.498,0,4.627-1.923,4.837-4.457l0.027-0.333c0.106-1.293-0.296-2.55-1.134-3.54C37.339,100.415,36.165,99.811,34.873,99.704z" fill="inherit"/><path d="M58.312,71.401c0.595,2.149,2.553,3.561,4.682,3.561c0.428,0,0.862-0.057,1.294-0.176l0.323-0.089 c2.581-0.715,4.099-3.396,3.385-5.977l-5.767-20.823c-0.714-2.581-3.396-4.097-5.977-3.384l-0.323,0.089 c-2.581,0.715-4.1,3.396-3.385,5.977L58.312,71.401z" fill="inherit"/><path d="M58.782,79.187c-0.726-0.602-1.25-1.397-1.515-2.302l-7.472-25.481c-0.378-1.288-1.234-2.352-2.412-2.995 c-1.177-0.644-2.536-0.79-3.822-0.413c-1.288,0.377-2.352,1.234-2.995,2.412c-0.645,1.178-0.791,2.536-0.413,3.823l7.76,26.466 c0.643,2.191,1.912,4.118,3.67,5.574l2.339,1.938l-3.354,4.05l-2.34-1.937c-1.757-1.456-3.888-2.344-6.16-2.566L14.62,85.063 c-2.759-0.271-5.22,1.754-5.49,4.51c-0.271,2.757,1.753,5.22,4.51,5.491l26.427,2.592c0.938,0.092,1.818,0.459,2.544,1.06 l31.551,26.129c0.936,0.775,2.07,1.153,3.199,1.153c1.446,0,2.882-0.62,3.875-1.818c1.767-2.134,1.468-5.308-0.666-7.074 L58.307,98.668l3.354-4.05l22.263,18.437c2.133,1.767,5.307,1.469,7.074-0.665c0.855-1.034,1.258-2.339,1.132-3.675 c-0.125-1.336-0.764-2.543-1.797-3.399L58.782,79.187z M89.456,111.114c-1.062,1.283-2.972,1.464-4.258,0.4L62.165,92.44 c-0.203-0.169-0.465-0.247-0.731-0.226c-0.264,0.025-0.508,0.153-0.677,0.358l-4.629,5.59c-0.352,0.425-0.293,1.056,0.133,1.408 l23.032,19.075c1.284,1.063,1.464,2.974,0.4,4.258c-1.063,1.286-2.975,1.464-4.258,0.401L43.885,97.175 c-1.034-0.856-2.287-1.378-3.624-1.51l-26.427-2.592c-1.659-0.163-2.877-1.646-2.715-3.305c0.153-1.56,1.472-2.729,3.008-2.729 c0.098,0,0.197,0.005,0.297,0.015l27.448,2.692c1.874,0.184,3.631,0.916,5.08,2.116l3.109,2.575 c0.204,0.169,0.47,0.252,0.731,0.226c0.264-0.025,0.507-0.153,0.677-0.358l4.63-5.59c0.352-0.425,0.293-1.056-0.133-1.408 l-3.109-2.575c-1.449-1.201-2.496-2.791-3.025-4.597l-7.76-26.466c-0.228-0.775-0.14-1.592,0.248-2.3 c0.387-0.709,1.027-1.225,1.803-1.452c0.774-0.226,1.591-0.139,2.301,0.249c0.709,0.387,1.225,1.027,1.451,1.803l7.472,25.481 c0.378,1.289,1.125,2.422,2.159,3.279l31.551,26.128c0.622,0.515,1.006,1.242,1.081,2.046 C90.214,109.706,89.972,110.492,89.456,111.114z" fill="inherit"/><path d="M70.944,25.03c0.604,1.573,2.109,2.541,3.703,2.541c0.473,0,0.952-0.085,1.419-0.264l0.285-0.11 c0.988-0.38,1.77-1.122,2.199-2.089c0.43-0.967,0.458-2.043,0.078-3.031L72.607,6.413c-0.784-2.039-3.08-3.059-5.12-2.277 l-0.288,0.11c-2.039,0.785-3.06,3.082-2.276,5.121L70.944,25.03z" fill="inherit"/><path d="M125.079,18.802l-0.203-0.231c-1.441-1.642-3.949-1.807-5.592-0.366l-12.616,11.063c-0.796,0.698-1.271,1.664-1.341,2.72 c-0.069,1.057,0.276,2.076,0.975,2.872l0.203,0.231c0.697,0.796,1.663,1.272,2.72,1.341c0.089,0.006,0.177,0.009,0.265,0.009 c0.961,0,1.878-0.344,2.606-0.983l12.616-11.063C126.354,22.954,126.518,20.445,125.079,18.802z" fill="inherit"/><path d="M118.358,10.327c-1.522-1.685-4.131-1.815-5.814-0.293L96.7,24.355c-1.344,1.214-2.284,2.787-2.72,4.548l-0.51,2.065 L89.956,30.1l0.509-2.063c0.436-1.76,0.335-3.59-0.291-5.292L82.81,2.697c-0.782-2.13-3.146-3.225-5.282-2.445 c-2.13,0.782-3.228,3.152-2.445,5.283l7.09,19.302c0.236,0.644,0.273,1.334,0.109,1.999l-7.6,30.799 c-0.544,2.203,0.807,4.438,3.011,4.982c1.065,0.263,2.174,0.095,3.114-0.473c0.941-0.569,1.604-1.47,1.867-2.537l5.31-21.513 l3.515,0.868L86.19,60.474c-0.544,2.204,0.807,4.438,3.011,4.982c0.329,0.082,0.66,0.121,0.985,0.121 c1.849,0,3.534-1.257,3.997-3.13l7.6-30.799c0.164-0.665,0.52-1.259,1.027-1.718l15.255-13.789 C119.748,14.618,119.879,12.01,118.358,10.327z M116.723,14.657l-15.255,13.789c-0.805,0.728-1.367,1.669-1.627,2.722l-7.6,30.798 c-0.28,1.133-1.425,1.826-2.563,1.548c-0.549-0.136-1.012-0.477-1.304-0.96c-0.293-0.484-0.379-1.053-0.244-1.601l5.549-22.484 c0.063-0.258,0.022-0.53-0.115-0.757c-0.137-0.227-0.358-0.39-0.616-0.454l-5.457-1.347c-0.08-0.02-0.161-0.029-0.24-0.029 c-0.449,0-0.857,0.305-0.97,0.76l-5.549,22.484c-0.136,0.549-0.477,1.012-0.96,1.304c-0.484,0.292-1.051,0.379-1.602,0.244 c-1.133-0.28-1.827-1.429-1.548-2.562l7.6-30.798c0.261-1.053,0.2-2.148-0.174-3.168l-7.09-19.301 c-0.401-1.096,0.162-2.314,1.258-2.717c1.095-0.402,2.313,0.162,2.716,1.257l7.363,20.048c0.487,1.327,0.565,2.752,0.227,4.124 l-0.748,3.035c-0.133,0.536,0.195,1.078,0.731,1.21l5.456,1.347c0.257,0.063,0.528,0.022,0.756-0.115s0.391-0.359,0.454-0.616 l0.749-3.035c0.34-1.373,1.072-2.598,2.12-3.545l15.844-14.321c0.862-0.782,2.206-0.715,2.988,0.151 C117.657,12.534,117.588,13.874,116.723,14.657z" fill="inherit"/><path d="M33.944,23.387l12.969,4.844c0.388,0.146,0.786,0.214,1.179,0.214c1.371,0,2.664-0.84,3.173-2.2l0.119-0.321 c0.316-0.846,0.284-1.765-0.091-2.587c-0.374-0.822-1.047-1.448-1.894-1.765L36.43,16.728c-0.846-0.316-1.763-0.284-2.586,0.091 c-0.821,0.375-1.448,1.047-1.764,1.893l-0.121,0.324c0,0,0,0,0,0.001C31.307,20.783,32.198,22.734,33.944,23.387z" fill="inherit"/><path d="M10.55,54.257c0.006,0,0.011,0,0.017,0c0.896,0,1.741-0.347,2.379-0.979c0.642-0.636,0.997-1.483,1.001-2.386l0.063-13.843 c0.005-0.903-0.343-1.754-0.979-2.396s-1.483-0.998-2.387-1.001c-0.001,0-0.001,0-0.001,0L10.3,33.649 c-0.896-0.015-1.754,0.343-2.396,0.979c-0.642,0.636-0.997,1.483-1.001,2.387L6.839,50.859c-0.009,1.864,1.502,3.388,3.366,3.396 L10.55,54.257z" fill="inherit"/><path d="M15.865,33.946l0.177,16.85c0.01,0.95,0.389,1.838,1.067,2.502c0.669,0.655,1.55,1.014,2.484,1.014 c0.013,0,0.026,0,0.039,0c0.949-0.01,1.837-0.389,2.502-1.067c0.664-0.678,1.024-1.574,1.015-2.523l-0.184-17.501 c-0.016-1.521-0.481-2.988-1.346-4.241l-0.888-1.286l2.144-1.48l0.888,1.286c0.865,1.252,2.072,2.207,3.489,2.761l16.302,6.371 c0.886,0.345,1.851,0.326,2.72-0.055s1.538-1.078,1.884-1.961c0.346-0.884,0.326-1.851-0.055-2.72 c-0.381-0.87-1.078-1.539-1.962-1.884l-15.695-6.133c-0.489-0.191-0.905-0.521-1.203-0.953L14.47,1.533 c-1.114-1.612-3.331-2.017-4.944-0.905C7.915,1.742,7.508,3.959,8.621,5.572l10.217,14.793l-2.145,1.481L6.477,7.053 C5.362,5.441,3.146,5.036,1.533,6.148c-1.611,1.114-2.018,3.331-0.905,4.944l14.773,21.392C15.7,32.916,15.86,33.421,15.865,33.946 z M2.669,7.794C2.938,7.608,3.246,7.519,3.55,7.519c0.493,0,0.979,0.234,1.28,0.67l10.784,15.617 c0.151,0.218,0.383,0.368,0.644,0.416c0.263,0.048,0.53-0.01,0.748-0.161l3.79-2.618c0.454-0.314,0.568-0.937,0.255-1.391 L10.267,4.436c-0.486-0.706-0.31-1.675,0.396-2.162c0.704-0.487,1.675-0.31,2.161,0.396l14.772,21.391 c0.525,0.761,1.259,1.342,2.121,1.68l15.696,6.133c0.387,0.151,0.691,0.443,0.857,0.823s0.175,0.802,0.023,1.189 c-0.15,0.386-0.443,0.691-0.823,0.857c-0.38,0.167-0.803,0.176-1.188,0.024l-16.302-6.371c-1.045-0.408-1.935-1.111-2.571-2.034 l-1.456-2.108c-0.314-0.454-0.938-0.568-1.392-0.254l-3.79,2.617c-0.218,0.15-0.367,0.382-0.415,0.643 c-0.048,0.261,0.01,0.53,0.16,0.749l1.456,2.108c0.638,0.923,0.98,2.003,0.992,3.125l0.184,17.501 c0.004,0.415-0.153,0.807-0.443,1.104c-0.291,0.296-0.68,0.462-1.095,0.466c-0.417-0.01-0.807-0.152-1.103-0.443 c-0.297-0.29-0.463-0.679-0.467-1.094l-0.177-16.849c-0.009-0.926-0.292-1.818-0.818-2.58L2.274,9.955 C1.788,9.25,1.964,8.28,2.669,7.794z" fill="inherit"/></g></svg>