<?xml version="1.0" encoding="UTF-8" standalone="no"?><svg xmlns="http://www.w3.org/2000/svg" xmlns:xlink="http://www.w3.org/1999/xlink" fill="#000000" height="218.3" preserveAspectRatio="xMidYMid meet" version="1" viewBox="0.0 0.0 368.6 218.3" width="368.6" zoomAndPan="magnify"><defs><clipPath id="a"><path d="M 245 47 L 368.640625 47 L 368.640625 171 L 245 171 Z M 245 47"/></clipPath><clipPath id="b"><path d="M 0 0 L 271 0 L 271 218.308594 L 0 218.308594 Z M 0 0"/></clipPath></defs><g><g clip-path="url(#a)" id="change1_1"><path d="M 307.226562 60.75 C 309.09375 58.328125 311.097656 56.226562 313.328125 54.441406 C 318.957031 49.941406 325.511719 47.691406 334.066406 47.691406 C 343.609375 47.691406 352.253906 51.5625 358.511719 57.820312 C 364.769531 64.078125 368.640625 72.722656 368.640625 82.261719 C 368.640625 97.589844 361.292969 112.496094 350.273438 127.191406 C 339.738281 141.238281 326.171875 154.804688 312.605469 168.371094 C 309.605469 171.371094 304.742188 171.371094 301.746094 168.371094 L 301.703125 168.328125 C 273.699219 140.324219 245.710938 112.320312 245.710938 82.261719 C 245.710938 72.722656 249.582031 64.078125 255.839844 57.820312 C 262.097656 51.5625 270.742188 47.691406 280.28125 47.691406 C 292.867188 47.691406 300.726562 52.042969 307.226562 60.75 Z M 322.871094 66.382812 C 319.773438 68.859375 317.101562 72.882812 314.320312 78.355469 C 313.652344 80.054688 312.375 81.527344 310.609375 82.410156 C 306.816406 84.304688 302.203125 82.769531 300.304688 78.972656 L 307.175781 75.539062 L 300.335938 78.960938 C 295.03125 68.355469 289.960938 63.050781 280.28125 63.050781 C 274.980469 63.050781 270.175781 65.203125 266.699219 68.679688 C 263.222656 72.15625 261.070312 76.960938 261.070312 82.261719 C 261.070312 104.308594 283.339844 128.128906 307.175781 152.074219 C 318.628906 140.566406 329.710938 129.109375 338.03125 118.011719 C 347.179688 105.8125 353.28125 93.824219 353.28125 82.261719 C 353.28125 76.960938 351.128906 72.15625 347.652344 68.679688 C 344.171875 65.203125 339.371094 63.050781 334.066406 63.050781 C 329.175781 63.050781 325.648438 64.160156 322.871094 66.382812" fill="#ffffff"/></g><g clip-path="url(#b)" id="change1_2"><path d="M 263.246094 120.59375 C 267.484375 120.59375 270.925781 117.15625 270.925781 112.914062 C 270.925781 108.671875 267.484375 105.234375 263.246094 105.234375 L 212.117188 105.234375 L 198.886719 92.390625 L 193.546875 97.882812 L 198.894531 92.371094 C 196.121094 89.679688 191.839844 89.5 188.867188 91.789062 L 175.40625 100.5 L 154.550781 6.03125 L 154.578125 6.027344 C 153.664062 1.882812 149.566406 -0.730469 145.421875 0.183594 C 141.902344 0.960938 139.484375 4.035156 139.398438 7.484375 L 127.292969 166.121094 L 107.992188 95.871094 L 100.613281 97.882812 L 108.019531 95.847656 C 106.894531 91.757812 102.667969 89.351562 98.578125 90.476562 C 97.585938 90.746094 96.691406 91.203125 95.921875 91.796875 L 78.339844 103.175781 L 67.230469 92.390625 L 61.890625 97.882812 L 67.238281 92.371094 C 65.746094 90.921875 63.816406 90.199219 61.890625 90.199219 L 7.679688 90.199219 C 3.4375 90.199219 0 93.640625 0 97.882812 C 0 102.121094 3.4375 105.5625 7.679688 105.5625 L 58.808594 105.5625 L 71.628906 118.003906 C 74.101562 120.804688 78.320312 121.453125 81.550781 119.363281 L 77.378906 112.914062 L 81.550781 119.332031 L 96.003906 109.980469 L 124.027344 211.972656 C 124.621094 215.34375 127.4375 218.015625 131.003906 218.289062 C 135.234375 218.609375 138.925781 215.441406 139.246094 211.214844 L 131.589844 210.628906 L 139.238281 211.199219 L 150.785156 59.945312 L 162.691406 113.882812 C 162.832031 114.992188 163.214844 116.085938 163.863281 117.085938 C 166.167969 120.648438 170.921875 121.667969 174.484375 119.363281 L 170.3125 112.914062 L 174.480469 119.332031 L 192.585938 107.621094 L 203.292969 118.015625 C 204.699219 119.597656 206.75 120.59375 209.035156 120.59375 L 263.246094 120.59375" fill="#ffffff"/></g></g></svg>