<?xml version="1.0" encoding="UTF-8" standalone="no"?><svg xmlns="http://www.w3.org/2000/svg" xmlns:xlink="http://www.w3.org/1999/xlink" fill="#ffffff" height="489.2" preserveAspectRatio="xMidYMid meet" version="1" viewBox="11.6 7.4 497.1 489.2" width="497.1" zoomAndPan="magnify"><g data-name="apple fruit healty food" id="change1_1"><path d="M216.628,332.292c35.626,1.2,86.011-33.2,69.67-72.988a40.231,40.231,0,0,0-29.863-24.247l-29.469-5.447A25.477,25.477,0,0,1,209.234,216.8l-15.075-26.559c-14.469-25.432-49.938-27.826-66.24-3.845-20.537,30.214-18.59,71.642,4.723,100.735,12.766,17.193,29.994,30.887,50.047,38.1C193.48,329.473,205.116,332.461,216.628,332.292Zm-22.5-112.943c6.191,12.614,16.329,22.012,30.256,24.423l5.44,1.009C212.156,263.332,183.931,241.514,194.131,219.349ZM147.886,283.14c-22.419-24.324-26.622-61.724-8.061-88.656,10.286-15.322,33.021-13.068,41.817,2.864l4.587,8.077c-20.1,22.89-2.486,60.932,28.045,60.668,12.73.07,25.1-7.052,30.924-18.474l8.637,1.6a25.891,25.891,0,0,1,19.187,15.652c9.8,22.754-17.253,43.754-36.469,49.925a65.7,65.7,0,0,1-43.048-.967C175.751,308.194,159.655,297.916,147.886,283.14ZM70.569,172.623c33.864,11.925,76.119-10.268,85.842-44.384C168.633,87.828,140.588,44.805,100.635,27.4,55.57,7.359,30.23,20.578,20.543,68.817,11.628,111.459,30.54,159.25,70.569,172.623ZM34.683,71.47a90.169,90.169,0,0,1,5.135-17.563c-.641,14.284.7,31.9,8.24,46.986a7.2,7.2,0,0,0,12.875-6.437c-6.679-13.36-7.416-29.79-6.552-42.676L67.006,76.2A7.2,7.2,0,0,0,79.8,69.583L66.529,43.923c11.453,6.346,25.429,16.216,33.193,29.655a7.2,7.2,0,0,0,6.241,3.595c5.357.132,9.069-6.18,6.227-10.8-7.831-13.552-20.413-23.828-31.994-31.1,23.176,5.988,47.1,23.864,56.6,42.963,11.177,21.833,11.323,43.994-2.773,61.984,1.948-9.468,2.614-20.394-.734-30.431-3.275-8.934-16.379-4.568-13.648,4.554,3.178,9.544,1.24,20.888-1.372,29.648L107.179,122.54a7.2,7.2,0,0,0-12.792,6.607l11.086,21.443c-8.652-2.941-19.017-7.926-24.959-16.042-5.848-7.5-16.995.652-11.611,8.5,6.26,8.549,15.574,14.334,24.434,18.226C48.921,163.243,25.579,112.981,34.683,71.47Zm430.4,231.469c43.669-46.713,35.876-124.384-20.979-150.446-35.645-14.163-85.123,9.361-104.178,49.694-11.308,23.983-13.347,39.7-14.984,52.331-2.761,21.218-4.232,22.3-19.229,33.96-73.976,53.462-88.624,160.637,13.144,198.777,24.666,9.281,51.44,8.3,74.588-4.111,43.179-21.566,69.68-88.593,58.67-130.843C447.806,331.4,451.315,317.872,465.087,302.939ZM437.909,354.6c12.006,49.217-26.524,125.406-85.095,124.43,5.906-7.366-4.4-16.282-10.86-9.411-2.213,2.507-4.552,4.961-6.883,7.419-11.4-2.532-22.142-7.43-32.315-13.564-.061-3.416-.133-6.834-.061-10.21-.1-9.623-14-9.617-14.394-.272-55.194-45.171-18.674-122.622,26.252-153.152,17.6-13.685,21.321-17.7,24.667-43.476,1.5-11.628,3.381-26.1,13.726-48.041,13.594-28.275,44.784-47.429,72.622-45.483a7.2,7.2,0,0,0-.689,10.173c4.11,4.658,8.3,2.223,12.524-1.384.667,4.552,2.6,8.57,7.7,8.651a7.146,7.146,0,0,0,7.073-6.335c36.983,30.4,33.447,86.146,1.943,119.661C435.119,315.937,433.946,330.1,437.909,354.6Zm5.848-91.714a221.68,221.68,0,0,1-13.143,27.582c-4.884,8.173-16.984,1.325-12.552-7.043a206.819,206.819,0,0,0,12.285-25.775C434.069,248.918,446.947,253.907,443.757,262.889Zm-25.365,50.075a273.5,273.5,0,0,1-2.488,30.257c-1.612,9.4-15.28,7.458-14.253-1.983A258.5,258.5,0,0,0,404,312.578C404.551,303.075,418.355,303.452,418.392,312.964Zm37.137-110.387a155.525,155.525,0,0,1-3.036,30.79c-2.175,9.291-15.7,6.531-14.113-2.825a139.9,139.9,0,0,0,2.755-27.375C441.317,193.7,455.055,193.01,455.529,202.577ZM387.637,429.505a260.5,260.5,0,0,1-16.045,25.818c-5.688,7.625-17.033-.414-11.765-8.293a246.62,246.62,0,0,0,15.159-24.384C379.768,414.425,391.918,421,387.637,429.505Zm22.343-56.471a254.466,254.466,0,0,1-9.46,28.917c-3.806,8.761-16.611,3.62-13.382-5.3a237.217,237.217,0,0,0,8.912-27.266C398.75,360.256,412.1,363.757,409.98,373.034ZM386.231,208.8a213.848,213.848,0,0,1,18-24.378c6.392-7.046,16.9,1.938,10.935,9.355a198.483,198.483,0,0,0-16.776,22.732,7.191,7.191,0,0,1-6.086,3.342C386.829,219.991,383.121,213.4,386.231,208.8ZM332.213,344.76a212.026,212.026,0,0,0-12.651,25.329c-3.918,8.689-16.72,3.266-13.283-5.552A225.7,225.7,0,0,1,319.8,337.479C324.845,329.417,336.778,336.4,332.213,344.76Zm28.654-81.3A253.649,253.649,0,0,1,371.8,235.374c4.253-8.5,16.786-2.744,13.072,6.03a239.045,239.045,0,0,0-10.317,26.5,7.2,7.2,0,1,1-13.691-4.435ZM310.426,396.891a225.979,225.979,0,0,0-5.567,27.828c-1.6,9.4-15.26,7.5-14.267-1.947a241.3,241.3,0,0,1,5.932-29.606,7.2,7.2,0,0,1,13.9,3.725Zm54.285-94.873a244.236,244.236,0,0,0-16.586,19.247,7.174,7.174,0,0,1-5.7,2.8c-5.754.177-9.411-7.093-5.686-11.6,4.948-6.409,10.374-12.756,16.144-18.891,1.324-10.235,15.916-8.2,14.3,1.926C366.732,297.622,366.406,300.465,364.711,302.018Zm-85.989-115.9c13.764.2,27.694-3.967,40.109-10.549a100.3,100.3,0,0,0,41.284-37.4c11.364-16.787,17.333-36.507,15.244-56.91-2.748-29.227-22.9-67.781-57.027-62.21a38.156,38.156,0,0,0-29.173,23.587c-2.783,6.837-11.37,27.994-11.323,27.873-5.171,13.281-16.725,14.352-30.375,18.393-2.245,1.911-17.519,2.109-28.788,12.306C179.4,142.391,236.753,187.727,278.722,186.12Zm-50.385-74.245c7.688-6.962,29.656-10.171,26.683-10.171,10.28-2.927,28.407-5.876,36.191-25.859,1.479-3.66,9.635-23.738,11.287-27.81,6.565-17.078,29.374-20.251,41.058-6.392,20.015,22.422,23.827,58.061,7.569,83.645-8.932,15.988-22.131,29.488-38.57,37.326.1.092-48.569,27.974-85.827-14.769C217.464,137.211,218.188,121.075,228.337,111.875Zm98.584-44.85c-5.309-7.876,5.89-15.966,11.695-8.4,10.6,14.756,13.768,32.544,9.41,52.873a7.195,7.195,0,1,1-14.07-3.015C337.47,92.066,335.172,78.5,326.921,67.025ZM130.688,493.5a7.226,7.226,0,0,0,3.64-.987c60.209-35.152,69.169-82.933,26.9-137.976a82.558,82.558,0,0,0,5.868-12.655,7.244,7.244,0,0,0-5.806-9.618c-1.518-.2-35.214-4.523-68.61,3.564-7.874-25.765-33.472-34.615-52.857-39.011a7.2,7.2,0,1,0-3.177,14.035c24.818,5.63,37.834,14.529,42.286,29.15C45.906,352.539,21.289,381.508,20.2,382.81A7.237,7.237,0,0,0,22.5,393.879c2.733,1.361,5.381,2.493,7.985,3.5C30.966,459.264,64.725,491.684,130.688,493.5ZM89.454,351.6c22.483-6.789,47.081-6.649,60.259-5.886-6.726,12.654-15.989,18-30.291,18a7.257,7.257,0,0,0-6.656,3.613c-5.267,9.525,17.216,17.668-3.022,53-17.669-6.908-25.913-18.146-27.3-36.743a7.207,7.207,0,0,0-12.272-4.547c-8.546,8.567-18.7,10.479-32.16,5.833C47.805,375.163,67.167,358.331,89.454,351.6ZM44.9,401.23c9.293,1.295,17.681-.033,25.2-4.177,4.934,19.3,19.959,33.695,42.745,39.179a7.2,7.2,0,0,0,6.038-3.283c13.255-20.452,16.9-38.792,10.992-55.726a42.474,42.474,0,0,0,22.178-10.982c34.129,46.73,26.7,82.628-23.226,112.8C73.424,476.847,46.57,451.99,44.9,401.23Z"/></g></svg>