<?xml version="1.0" encoding="UTF-8" standalone="no"?><!-- Generator: Gravit.io --><svg xmlns="http://www.w3.org/2000/svg" xmlns:xlink="http://www.w3.org/1999/xlink" style="isolation:isolate" viewBox="-34.119 474.515 292.119 334.485" width="292.119pt" height="334.485pt"><g><path d=" M 138.205 520.455 L 127.991 547.396 C 125.196 554.766 123.473 567.126 124.145 574.98 L 125.17 586.961 C 125.842 594.815 126.428 607.59 126.478 615.472 L 126.595 633.956 C 126.645 641.838 129.443 654.012 132.84 661.125 L 139.688 675.465 C 143.085 682.578 151.527 691.291 158.53 694.91 L 158.858 695.08 C 165.86 698.7 175.515 697.014 180.406 691.319 L 180.406 691.319 C 185.296 685.624 189.168 674.602 189.046 666.72 L 188.455 628.419 C 188.334 620.538 186.327 608.031 183.978 600.508 L 173.368 566.531 C 171.018 559.007 164.697 548.265 159.26 542.558 L 138.205 520.455 Z " fill="rgb(148,206,110)" vector-effect="non-scaling-stroke" stroke-width="1" stroke="rgb(0,0,0)" stroke-linejoin="miter" stroke-linecap="square" stroke-miterlimit="3"/><path d=" M 141.429 559.247 L 145.321 562.231 C 147.469 563.877 150.757 571.882 152.659 580.095 L 152.659 580.095 C 154.561 588.309 156.697 602.193 157.426 611.081 L 157.426 611.081 C 158.155 619.968 159.411 635.627 160.228 646.025 L 160.228 646.025 C 161.045 656.423 163.465 670.631 165.628 677.733 L 165.628 677.733 C 167.792 684.835 172.926 694.948 177.086 700.301 L 184.623 710" fill="none" vector-effect="non-scaling-stroke" stroke-width="1.5" stroke="rgb(0,0,0)" stroke-linejoin="miter" stroke-linecap="square" stroke-miterlimit="3"/><path d=" M 186.838 707.42 L 184.074 697.696 C 182.548 692.329 178.558 681.071 175.171 672.571 L 175.171 672.571 C 171.783 664.072 168.857 650.594 168.64 642.492 L 168.247 627.812" fill="none" vector-effect="non-scaling-stroke" stroke-width="1.5" stroke="rgb(0,0,0)" stroke-linejoin="miter" stroke-linecap="square" stroke-miterlimit="3"/><path d=" M 175.347 623.511 L 173.497 630.886 C 172.475 634.956 169.205 640.542 166.198 643.353 L 160.749 648.445" fill="none" vector-effect="non-scaling-stroke" stroke-width="1.5" stroke="rgb(0,0,0)" stroke-linejoin="miter" stroke-linecap="square" stroke-miterlimit="3"/><path d=" M 168.404 584.203 C 168.95 594.877 165.281 602.366 159.173 605.675 C 158.183 606.212 156.465 606.646 155.338 606.645 C 146.301 606.633 138.841 602.738 134.98 594.943" fill="none" vector-effect="non-scaling-stroke" stroke-width="1.5" stroke="rgb(0,0,0)" stroke-linejoin="miter" stroke-linecap="square" stroke-miterlimit="3"/><path d=" M 143.112 657.502 C 151.045 657.933 157.25 660.395 161.708 664.866" fill="none" vector-effect="non-scaling-stroke" stroke-width="1.5" stroke="rgb(0,0,0)" stroke-linejoin="miter" stroke-linecap="square" stroke-miterlimit="3"/></g><g><line x1="121" y1="790" x2="131" y2="803.99" vector-effect="non-scaling-stroke" stroke-width="1.5" stroke="rgb(0,0,0)" stroke-linejoin="miter" stroke-linecap="square" stroke-miterlimit="3"/><line x1="127" y1="783" x2="135" y2="803.99" vector-effect="non-scaling-stroke" stroke-width="1.5" stroke="rgb(0,0,0)" stroke-linejoin="miter" stroke-linecap="square" stroke-miterlimit="3"/><path d=" M 118 790 L 125 800 L 135 794 L 129 786 L 118 790 Z " fill="rgb(255,123,72)"/><ellipse vector-effect="non-scaling-stroke" cx="107" cy="756.5" rx="42.00000000000001" ry="43.5" fill="rgb(255,123,72)"/><path d=" M 104 731 C 111.451 744.909 117.795 760.919 123 779" fill="none" vector-effect="non-scaling-stroke" stroke-width="1.5" stroke="rgb(0,0,0)" stroke-linejoin="miter" stroke-linecap="square" stroke-miterlimit="3"/><path d=" M 76 754 L 85 754 C 89.967 754 96.689 752.208 100 750 L 106 746" fill="none" vector-effect="non-scaling-stroke" stroke-width="1.5" stroke="rgb(0,0,0)" stroke-linejoin="miter" stroke-linecap="square" stroke-miterlimit="3"/><path d=" M 83 771 L 92 772.5 C 96.967 773.328 103.913 772.432 107.5 770.5 L 114 767" fill="none" vector-effect="non-scaling-stroke" stroke-width="1.5" stroke="rgb(0,0,0)" stroke-linejoin="miter" stroke-linecap="square" stroke-miterlimit="3"/><line x1="114" y1="738" x2="131" y2="734" vector-effect="non-scaling-stroke" stroke-width="1.5" stroke="rgb(0,0,0)" stroke-linejoin="miter" stroke-linecap="square" stroke-miterlimit="3"/><line x1="121" y1="760" x2="135" y2="757" vector-effect="non-scaling-stroke" stroke-width="1.5" stroke="rgb(0,0,0)" stroke-linejoin="miter" stroke-linecap="square" stroke-miterlimit="3"/></g><g><ellipse vector-effect="non-scaling-stroke" cx="184.50000000000006" cy="686" rx="73.5" ry="123" fill="rgb(254,111,52)"/><path d=" M 165 609 C 123.248 662.416 128.706 746.474 175 794" fill="none" vector-effect="non-scaling-stroke" stroke-width="2" stroke="rgb(0,0,0)" stroke-linejoin="miter" stroke-linecap="square" stroke-miterlimit="3"/><path d=" M 163 691 C 174.01 708.266 196.389 709.358 209 691" fill="none" vector-effect="non-scaling-stroke" stroke-width="1.5" stroke="rgb(0,0,0)" stroke-linejoin="miter" stroke-linecap="square" stroke-miterlimit="3"/><ellipse vector-effect="non-scaling-stroke" cx="159" cy="670.25" rx="6" ry="9.25" fill="rgb(0,0,0)" stroke-width="1.5" stroke="rgb(0,0,0)" stroke-linejoin="miter" stroke-linecap="butt" stroke-miterlimit="3"/><ellipse vector-effect="non-scaling-stroke" cx="211" cy="670.2499999999999" rx="6" ry="9.25" fill="rgb(0,0,0)" stroke-width="1.5" stroke="rgb(0,0,0)" stroke-linejoin="miter" stroke-linecap="butt" stroke-miterlimit="3"/><path d=" M 154.5 667.174 C 154.5 664.621 156.516 662.549 159 662.549 C 161.484 662.549 163.5 664.621 163.5 667.174 C 163.5 669.726 161.484 665.549 159 665.549 C 156.516 665.549 154.5 669.726 154.5 667.174 Z " fill="rgb(255,255,255)"/><path d=" M 206.5 667.174 C 206.5 664.621 208.516 662.549 211 662.549 C 213.484 662.549 215.5 664.621 215.5 667.174 C 215.5 669.726 213.484 665.549 211 665.549 C 208.516 665.549 206.5 669.726 206.5 667.174 Z " fill="rgb(255,255,255)"/><path d=" M 201 581 C 243.422 628.304 251.242 717.366 205 797" fill="none" vector-effect="non-scaling-stroke" stroke-width="2" stroke="rgb(0,0,0)" stroke-linejoin="miter" stroke-linecap="square" stroke-miterlimit="3"/><path d=" M 202 550 C 204.133 553.2 205.143 557.21 205 562 C 203.8 566.533 201.81 569.877 199 572 C 191.8 571.533 185.477 573.21 180 577 C 187.133 578.2 193.477 577.543 199 575 C 195.8 578.533 194.477 582.21 195 586 C 198.467 585.2 200.81 583.543 202 581 C 200.251 583.37 202.291 586.077 208 589 C 209.8 585.2 210.143 581.21 209 577 C 212.145 583.48 217.488 586.49 225 586 C 223.548 580.772 219.891 577.782 214 577 C 210.34 569.861 211.35 563.205 217 557 L 214 555 C 214.133 556.867 213.143 558.21 211 559 C 209.467 557.2 208.81 554.21 209 550 C 207.133 551.2 204.81 551.21 202 550 Z " fill="rgb(135,191,115)" vector-effect="non-scaling-stroke" stroke-width="1" stroke="rgb(0,0,0)" stroke-linejoin="miter" stroke-linecap="square" stroke-miterlimit="3"/></g><g><path d=" M 0.478 487.174 L -0.478 488.826 C -6.285 498.857 -9.581 516.302 -7.833 527.76 L -5.167 545.24 C -3.419 556.698 -1.32 575.385 -0.482 586.945 L 1.482 614.055 C 2.32 625.615 7.606 643.205 13.28 653.312 L 24.72 673.688 C 30.394 683.795 43.626 695.76 54.251 700.391 L 54.749 700.609 C 65.374 705.24 79.377 701.831 86 693 L 86 693 C 92.623 684.169 97.234 667.621 96.291 656.07 L 91.709 599.93 C 90.766 588.379 86.609 570.223 82.432 559.411 L 63.568 510.589 C 59.391 499.777 47.546 486.867 37.134 481.777 L 29.866 478.223 C 19.454 473.133 6.285 477.143 0.478 487.174 Z " fill="rgb(148,206,110)" vector-effect="non-scaling-stroke" stroke-width="1" stroke="rgb(0,0,0)" stroke-linejoin="miter" stroke-linecap="square" stroke-miterlimit="3"/><path d=" M 16 503 L 22 507 C 25.311 509.208 30.913 520.634 34.5 532.5 L 34.5 532.5 C 38.087 544.366 42.568 564.53 44.5 577.5 L 44.5 577.5 C 46.432 590.47 49.792 613.322 52 628.5 L 52 628.5 C 54.208 643.678 59.137 664.29 63 674.5 L 63 674.5 C 66.863 684.71 75.377 699.049 82 706.5 L 94 720" fill="none" vector-effect="non-scaling-stroke" stroke-width="1.5" stroke="rgb(0,0,0)" stroke-linejoin="miter" stroke-linecap="square" stroke-miterlimit="3"/><path d=" M 97 716 L 92 702 C 89.24 694.273 82.295 678.142 76.5 666 L 76.5 666 C 70.705 653.858 65.104 634.366 64 622.5 L 62 601" fill="none" vector-effect="non-scaling-stroke" stroke-width="1.5" stroke="rgb(0,0,0)" stroke-linejoin="miter" stroke-linecap="square" stroke-miterlimit="3"/><path d=" M 72 594 L 70 605 C 68.896 611.071 64.639 619.585 60.5 624 L 53 632" fill="none" vector-effect="non-scaling-stroke" stroke-width="1.5" stroke="rgb(0,0,0)" stroke-linejoin="miter" stroke-linecap="square" stroke-miterlimit="3"/><path d=" M 58 537 C 59.837 552.608 55.18 563.952 46.538 569.4 C 45.137 570.283 42.659 571.087 41.006 571.194 C 27.745 572.053 16.422 567.063 10 556" fill="none" vector-effect="non-scaling-stroke" stroke-width="1.5" stroke="rgb(0,0,0)" stroke-linejoin="miter" stroke-linecap="square" stroke-miterlimit="3"/><path d=" M 28 647 C 39.682 646.863 49.025 649.873 56 656" fill="none" vector-effect="non-scaling-stroke" stroke-width="1.5" stroke="rgb(0,0,0)" stroke-linejoin="miter" stroke-linecap="square" stroke-miterlimit="3"/></g><g><path d=" M 100 500 L 100 500 C 106.071 503.311 111.448 511.153 112 517.5 L 112 517.5 C 112.552 523.847 111.208 530.344 109 532 L 109 532 C 106.792 533.656 102.536 533.208 99.5 531 L 99.5 531 C 96.464 528.792 94 522.743 94 517.5 L 94 517.5 C 94 512.257 96.689 504.415 100 500 L 100 500 Z " fill="rgb(148,206,110)" vector-effect="non-scaling-stroke" stroke-width="1" stroke="rgb(0,0,0)" stroke-linejoin="miter" stroke-linecap="square" stroke-miterlimit="3"/><path d=" M 103 514 L 104.5 523 C 105.328 527.967 104.656 535.361 103 539.5 L 100 547" fill="none" vector-effect="non-scaling-stroke" stroke-width="1.5" stroke="rgb(0,0,0)" stroke-linejoin="miter" stroke-linecap="square" stroke-miterlimit="3"/></g><g><path d=" M -16.352 573.869 L -16.352 573.869 C -24.498 578.312 -31.712 588.833 -32.453 597.349 L -32.453 597.349 C -33.193 605.865 -31.389 614.582 -28.427 616.804 L -28.427 616.804 C -25.465 619.025 -19.754 618.424 -15.681 615.462 L -15.681 615.462 C -11.608 612.5 -8.302 604.384 -8.302 597.349 L -8.302 597.349 C -8.302 590.314 -11.909 579.793 -16.352 573.869 L -16.352 573.869 Z " fill="rgb(148,206,110)" vector-effect="non-scaling-stroke" stroke-width="1" stroke="rgb(0,0,0)" stroke-linejoin="miter" stroke-linecap="square" stroke-miterlimit="3"/><path d=" M -20.377 592.653 L -22.39 604.728 C -23.5 611.393 -22.599 621.313 -20.377 626.866 L -16.352 636.929" fill="none" vector-effect="non-scaling-stroke" stroke-width="1.5" stroke="rgb(0,0,0)" stroke-linejoin="miter" stroke-linecap="square" stroke-miterlimit="3"/></g><g><path d=" M 235.733 518.47 L 235.733 518.47 C 243.879 522.913 251.093 533.434 251.834 541.95 L 251.834 541.95 C 252.574 550.466 250.771 559.183 247.809 561.405 L 247.809 561.405 C 244.847 563.626 239.135 563.025 235.062 560.063 L 235.062 560.063 C 230.99 557.101 227.683 548.985 227.683 541.95 L 227.683 541.95 C 227.683 534.915 231.29 524.394 235.733 518.47 L 235.733 518.47 Z " fill="rgb(148,206,110)" vector-effect="non-scaling-stroke" stroke-width="1" stroke="rgb(0,0,0)" stroke-linejoin="miter" stroke-linecap="square" stroke-miterlimit="3"/><path d=" M 239.758 537.254 L 241.771 549.329 C 242.882 555.994 241.98 565.914 239.758 571.467 L 235.733 581.53" fill="none" vector-effect="non-scaling-stroke" stroke-width="1.5" stroke="rgb(0,0,0)" stroke-linejoin="miter" stroke-linecap="square" stroke-miterlimit="3"/></g></svg>