<?xml version="1.0" encoding="UTF-8" standalone="no"?><svg xmlns="http://www.w3.org/2000/svg" xmlns:xlink="http://www.w3.org/1999/xlink" fill="#ffffff" height="1483.1" preserveAspectRatio="xMidYMid meet" version="1" viewBox="0.0 0.0 1483.1 1483.1" width="1483.1" zoomAndPan="magnify"><defs><clipPath id="a"><path d="M 0 0 L 1483.089844 0 L 1483.089844 1483.089844 L 0 1483.089844 Z M 0 0"/></clipPath></defs><g><g clip-path="url(#a)" id="change1_1"><path d="M 741.546875 47.839844 C 359.035156 47.839844 47.84375 359.039062 47.84375 741.546875 C 47.84375 1124.058594 359.035156 1435.25 741.546875 1435.25 C 1124.058594 1435.25 1435.25 1124.058594 1435.25 741.546875 C 1435.25 359.039062 1124.058594 47.839844 741.546875 47.839844 Z M 741.546875 1483.089844 C 641.449219 1483.089844 544.332031 1463.480469 452.894531 1424.808594 C 364.589844 1387.460938 285.289062 1333.988281 217.195312 1265.898438 C 149.097656 1197.800781 95.632812 1118.5 58.285156 1030.199219 C 19.609375 938.757812 0 841.644531 0 741.546875 C 0 641.449219 19.609375 544.332031 58.285156 452.898438 C 95.632812 364.589844 149.097656 285.289062 217.195312 217.191406 C 285.289062 149.101562 364.589844 95.628906 452.894531 58.28125 C 544.332031 19.609375 641.449219 0 741.546875 0 C 841.644531 0 938.757812 19.609375 1030.199219 58.28125 C 1118.5 95.628906 1197.800781 149.101562 1265.898438 217.191406 C 1333.988281 285.289062 1387.460938 364.589844 1424.808594 452.898438 C 1463.480469 544.332031 1483.089844 641.449219 1483.089844 741.546875 C 1483.089844 841.644531 1463.480469 938.757812 1424.808594 1030.199219 C 1387.460938 1118.5 1333.988281 1197.800781 1265.898438 1265.898438 C 1197.800781 1333.988281 1118.5 1387.460938 1030.199219 1424.808594 C 938.757812 1463.480469 841.644531 1483.089844 741.546875 1483.089844"/></g><g id="change1_2"><path d="M 359.164062 631.667969 C 358.179688 631.667969 357.183594 631.609375 356.179688 631.484375 C 343.066406 629.851562 333.765625 617.898438 335.398438 604.789062 C 340.335938 565.148438 358.125 528.597656 385.488281 501.867188 C 413.703125 474.308594 450.101562 459.128906 487.984375 459.128906 C 525.867188 459.128906 562.269531 474.308594 590.480469 501.867188 C 617.847656 528.59375 635.632812 565.144531 640.570312 604.789062 C 642.203125 617.898438 632.902344 629.851562 619.792969 631.484375 C 606.679688 633.113281 594.730469 623.8125 593.097656 610.703125 C 585.730469 551.566406 540.542969 506.976562 487.984375 506.976562 C 435.425781 506.976562 390.238281 551.566406 382.871094 610.703125 C 381.363281 622.808594 371.058594 631.667969 359.164062 631.667969"/></g><g id="change1_3"><path d="M 866.285156 631.667969 C 865.300781 631.667969 864.304688 631.609375 863.300781 631.484375 C 850.191406 629.851562 840.886719 617.898438 842.519531 604.789062 C 847.457031 565.148438 865.246094 528.597656 892.609375 501.867188 C 920.824219 474.308594 957.226562 459.128906 995.105469 459.128906 C 1032.988281 459.128906 1069.390625 474.308594 1097.601562 501.867188 C 1124.96875 528.59375 1142.761719 565.144531 1147.691406 604.789062 C 1149.328125 617.898438 1140.019531 629.851562 1126.910156 631.484375 C 1113.800781 633.113281 1101.851562 623.8125 1100.21875 610.703125 C 1092.851562 551.566406 1047.671875 506.976562 995.105469 506.976562 C 942.550781 506.976562 897.359375 551.566406 889.992188 610.703125 C 888.484375 622.808594 878.179688 631.667969 866.285156 631.667969"/></g><g id="change1_4"><path d="M 741.546875 1062.238281 C 549.5 1062.238281 375.636719 966.09375 276.453125 805.039062 C 269.527344 793.792969 273.027344 779.058594 284.277344 772.128906 C 295.527344 765.199219 310.261719 768.703125 317.191406 779.953125 C 407.597656 926.757812 566.234375 1014.398438 741.546875 1014.398438 C 916.859375 1014.398438 1075.5 926.757812 1165.898438 779.953125 C 1172.828125 768.703125 1187.570312 765.203125 1198.808594 772.128906 C 1210.058594 779.058594 1213.570312 793.792969 1206.640625 805.039062 C 1107.460938 966.09375 933.59375 1062.238281 741.546875 1062.238281"/></g><g id="change1_5"><path d="M 793.371094 1060.421875 C 781.277344 1060.421875 770.894531 1051.28125 769.609375 1038.980469 C 768.238281 1025.839844 777.777344 1014.078125 790.921875 1012.710938 C 817.976562 1009.878906 843.867188 975.097656 843.1875 942.476562 C 842.910156 929.015625 842.921875 887.949219 842.96875 849.554688 C 843.054688 782.171875 897.941406 727.351562 965.316406 727.351562 C 998.015625 727.351562 1028.75 740.09375 1051.871094 763.230469 C 1074.988281 786.378906 1087.699219 817.140625 1087.671875 849.851562 C 1087.648438 864.046875 1087.640625 870.703125 1087.628906 874.96875 C 1087.621094 878.066406 1087.621094 879.894531 1087.621094 882.449219 C 1087.621094 895.976562 1085.371094 941.859375 1056.441406 964.433594 C 1046.019531 972.5625 1030.988281 970.707031 1022.871094 960.289062 C 1014.738281 949.875 1016.589844 934.84375 1027.011719 926.714844 C 1034.289062 921.035156 1039.78125 902.007812 1039.78125 882.449219 C 1039.78125 879.859375 1039.78125 878.011719 1039.789062 874.871094 C 1039.800781 870.617188 1039.808594 863.972656 1039.820312 849.800781 C 1039.851562 829.875 1032.101562 811.140625 1018.019531 797.042969 C 1003.941406 782.953125 985.226562 775.191406 965.316406 775.191406 C 924.285156 775.191406 890.863281 808.578125 890.808594 849.613281 C 890.761719 887.75 890.75 928.484375 891.019531 941.480469 C 892.226562 999.355469 847.769531 1054.878906 795.886719 1060.289062 C 795.042969 1060.378906 794.203125 1060.421875 793.371094 1060.421875"/></g><g id="change1_6"><path d="M 938.136719 1025.050781 C 928 1025.050781 918.589844 1018.558594 915.351562 1008.390625 C 911.339844 995.800781 918.292969 982.34375 930.882812 978.335938 C 944.785156 973.90625 944.53125 937.609375 944.4375 923.945312 C 944.425781 922.355469 944.414062 920.859375 944.414062 919.488281 L 944.414062 837.539062 C 944.414062 824.328125 955.125 813.617188 968.335938 813.617188 C 981.546875 813.617188 992.257812 824.328125 992.257812 837.539062 L 992.257812 919.488281 C 992.257812 920.757812 992.265625 922.140625 992.277344 923.613281 C 992.363281 936.085938 992.496094 954.9375 988.050781 973.074219 C 979.863281 1006.480469 960.339844 1019.160156 945.402344 1023.921875 C 942.988281 1024.691406 940.539062 1025.050781 938.136719 1025.050781"/></g></g></svg>