<?xml version="1.0" encoding="UTF-8" standalone="no"?><svg xmlns="http://www.w3.org/2000/svg" xmlns:xlink="http://www.w3.org/1999/xlink" fill="#ffffff" height="54" preserveAspectRatio="xMidYMid meet" version="1" viewBox="6.0 5.0 52.0 54.0" width="52" zoomAndPan="magnify"><g id="change1_1"><path d="M 32 29 C 32.550781 29 33 29.449219 33 30 C 33 30.550781 32.550781 31 32 31 C 30.34375 31 29 32.34375 29 34 C 29 34.550781 28.550781 35 28 35 C 27.449219 35 27 34.550781 27 34 C 27 31.242188 29.242188 29 32 29 Z M 31 10 C 31 10.550781 30.550781 11 30 11 C 29.449219 11 29 10.550781 29 10 C 29 8.34375 30.34375 7 32 7 C 32.550781 7 33 7.449219 33 8 C 33 8.550781 32.550781 9 32 9 C 31.449219 9 31 9.449219 31 10 Z M 12 22 C 11.449219 22 11 22.449219 11 23 C 11 23.550781 10.550781 24 10 24 C 9.449219 24 9 23.550781 9 23 C 9 21.34375 10.34375 20 12 20 C 12.550781 20 13 20.449219 13 21 C 13 21.550781 12.550781 22 12 22 Z M 52 46 C 52.550781 46 53 46.449219 53 47 C 53 47.550781 52.550781 48 52 48 C 51.449219 48 51 48.449219 51 49 C 51 49.550781 50.550781 50 50 50 C 49.449219 50 49 49.550781 49 49 C 49 47.34375 50.34375 46 52 46 Z M 12 52 C 11.449219 52 11 52.449219 11 53 C 11 53.550781 10.550781 54 10 54 C 9.449219 54 9 53.550781 9 53 C 9 51.34375 10.34375 50 12 50 C 12.550781 50 13 50.449219 13 51 C 13 51.550781 12.550781 52 12 52 Z M 15.652344 48.144531 C 15.628906 48.164062 15.621094 48.195312 15.601562 48.21875 C 14.597656 47.457031 13.355469 47 12 47 C 8.691406 47 6 49.691406 6 53 C 6 56.308594 8.691406 59 12 59 C 15.308594 59 18 56.308594 18 53 C 18 51.746094 17.613281 50.59375 16.960938 49.640625 C 16.980469 49.621094 17.007812 49.613281 17.027344 49.59375 L 26.890625 40.234375 C 26.90625 40.21875 26.914062 40.195312 26.929688 40.175781 C 28.3125 41.308594 30.074219 42 32 42 C 34.265625 42 36.300781 41.054688 37.757812 39.550781 C 37.773438 39.566406 37.78125 39.585938 37.800781 39.597656 L 46.601562 46.199219 C 46.625 46.21875 46.652344 46.222656 46.675781 46.238281 C 46.246094 47.066406 46 48.003906 46 49 C 46 52.308594 48.691406 55 52 55 C 55.308594 55 58 52.308594 58 49 C 58 45.691406 55.308594 43 52 43 C 50.394531 43 48.941406 43.636719 47.863281 44.667969 C 47.839844 44.648438 47.828125 44.621094 47.800781 44.601562 L 39 38 C 38.976562 37.984375 38.953125 37.980469 38.925781 37.964844 C 39.597656 36.792969 40 35.445312 40 34 C 40 29.914062 36.941406 26.554688 32.984375 26.066406 C 32.988281 26.042969 33 26.023438 33 26 L 33 15 C 33 14.964844 32.984375 14.933594 32.980469 14.902344 C 35.269531 14.445312 37 12.421875 37 10 C 37 7.238281 34.761719 5 32 5 C 29.238281 5 27 7.238281 27 10 C 27 12.421875 28.730469 14.445312 31.019531 14.902344 C 31.015625 14.933594 31 14.964844 31 15 L 31 26 C 31 26.023438 31.011719 26.042969 31.015625 26.066406 C 28.757812 26.34375 26.792969 27.554688 25.523438 29.316406 C 25.503906 29.304688 25.492188 29.285156 25.472656 29.273438 L 16.863281 24.535156 C 16.828125 24.515625 16.792969 24.515625 16.757812 24.5 C 16.910156 24.027344 17 23.523438 17 23 C 17 20.238281 14.761719 18 12 18 C 9.238281 18 7 20.238281 7 23 C 7 25.761719 9.238281 28 12 28 C 13.535156 28 14.898438 27.300781 15.8125 26.214844 C 15.84375 26.234375 15.863281 26.269531 15.898438 26.285156 L 24.507812 31.027344 C 24.527344 31.035156 24.546875 31.039062 24.566406 31.046875 C 24.203125 31.960938 24 32.957031 24 34 C 24 35.78125 24.589844 37.421875 25.570312 38.746094 C 25.550781 38.761719 25.53125 38.769531 25.511719 38.785156 L 15.652344 48.144531"/></g></svg>