<?xml version="1.0" encoding="UTF-8" standalone="no"?><svg xmlns="http://www.w3.org/2000/svg" xmlns:xlink="http://www.w3.org/1999/xlink" fill="#ffffff" height="197" preserveAspectRatio="xMidYMid meet" version="1" viewBox="0.0 0.0 194.4 197.0" width="194.4" zoomAndPan="magnify"><g id="change1_1"><path d="M27.41,151.53c-1.32-2.22-2.5-4.53-3.48-6.86c-1.82-4.29,4.67-7.05,6.5-2.76c0.86,2.04,1.89,4.06,3.05,6 C35.89,151.97,29.77,155.49,27.41,151.53z"/></g><g id="change1_2"><path d="M80.2,185.86c-18.26-3.48-34.42-12.18-45.51-24.49c-3.13-3.47,2.14-8.18,5.25-4.72c10.06,11.17,24.84,19.09,41.59,22.28 C86.05,179.79,84.86,186.72,80.2,185.86z"/></g><g id="change1_3"><path d="M189.77,120.55H6.79c-4.67,0-4.66,7.06,0,7.06h3.55c2.23,38.58,40.84,69.41,87.97,69.41c47.14,0,85.75-30.82,87.98-69.41 h3.48C194.44,127.61,194.44,120.55,189.77,120.55z M98.31,189.96c-43.22,0-78.64-27.66-80.9-62.35h161.81 C176.96,162.3,141.53,189.96,98.31,189.96z"/></g><g id="change1_4"><path d="M139.5,45.62c-4.55-14.9-4.71-17.99-9.28-21.36C107.56,7.48,104.59,3.88,95.41,3.88c0,0-0.01,0-0.01,0 C64.8,2.73,49.89,3.17,26.96,3.87C25.79,1.59,23.43,0,20.69,0H7.06C3.17,0,0,3.17,0,7.06v43.59c0,3.89,3.17,7.06,7.06,7.06h13.63 c2.7,0,5.02-1.54,6.21-3.77h7.7c2.78,0,3.08,1.41,8.07,5.63c10.62,8.97,20.14,11.61,29.35,14.17c1.99,0.55,3.97,1.1,5.95,1.72 c1.95,0.61,3.9,1.36,6.13,2.22c4.97,1.91,11.16,4.29,21.26,6.76c4.13,1,9.75-1.56,8.94-9.3c1.41,0.06,2.98-0.43,4.15-1.4 C134.5,60.51,142.79,56.39,139.5,45.62z M7.06,50.65V7.06h13.63v43.59H7.06z M107.02,60.45c-3.1-2.42-8.37-3.85-12.82-6.33 c-2.31-1.29-8.61-4.84-8.69-7.49c-0.02-0.71,0.25-1.41,0.74-1.92l8.4-8.59c0.18-0.18,0.42-0.28,0.67-0.24 c2.71,0.5,7.55,2.17,12.34,4.28c4.78,2.11,7.44,6.04,8.72,8.54C111.5,51.14,108.05,55.48,107.02,60.45z M114.79,67.61 c-2.83-5.5,0.52-11.16,6.03-13.15c2.55-0.93,3.96-3.76,2.96-6.43c-1.15-3.05-4.75-10.56-13.28-14.32 c-5.41-2.38-10.61-4.17-13.91-4.77c-2.54-0.47-5.16,0.37-6.99,2.25l-8.39,8.59c-1.83,1.87-2.84,4.45-2.76,7.08 c0.2,6.28,7.05,10.5,12.3,13.43c4.49,2.5,10.97,4.54,13.04,6.76c2.16,2.32,3.37,5.77,3.59,10.26l-0.35,0.27 c-9.67-2.36-15.62-4.65-20.41-6.49c-2.38-0.91-4.48-1.72-6.57-2.37c-2.04-0.63-4.09-1.2-6.16-1.77 c-8.86-2.46-17.24-4.78-26.68-12.76c-4.5-3.81-6.62-7.3-12.63-7.3h-6.85V10.91c28.74-0.85,35.4-1,67.51,0.03 c6.61,0,7.95,2.1,30.77,18.99c2.62,1.93,2.61,4.26,6.73,17.75C134.37,52.98,131,54.26,114.79,67.61z"/></g><g id="change1_5"><path d="M122.36,88.2c0,1.95-1.58,3.53-3.53,3.53c-1.95,0-3.53-1.58-3.53-3.53c0-1.95,1.58-3.53,3.53-3.53 C120.78,84.67,122.36,86.25,122.36,88.2z"/></g><g id="change1_6"><path d="M109.57,98.57c0,1.95-1.58,3.53-3.53,3.53c-1.95,0-3.53-1.58-3.53-3.53s1.58-3.53,3.53-3.53 C107.99,95.04,109.57,96.62,109.57,98.57z"/></g><g id="change1_7"><path d="M130.3,102.32c0,1.95-1.58,3.53-3.53,3.53c-1.95,0-3.53-1.58-3.53-3.53c0-1.95,1.58-3.53,3.53-3.53 C128.72,98.79,130.3,100.37,130.3,102.32z"/></g><g id="change1_8"><path d="M118.83,112.9c0,1.95-1.58,3.53-3.53,3.53c-1.95,0-3.53-1.58-3.53-3.53c0-1.95,1.58-3.53,3.53-3.53 C117.25,109.38,118.83,110.96,118.83,112.9z"/></g></svg>