<?xml version="1.0" encoding="UTF-8" standalone="no"?><!-- Generator: Gravit.io --><svg xmlns="http://www.w3.org/2000/svg" xmlns:xlink="http://www.w3.org/1999/xlink" style="isolation:isolate" viewBox="476 449 192 125.998" width="192pt" height="125.998pt"><g><path d=" M 510.873 548.704 L 489.341 546.919 C 488.039 546.812 486.79 547.214 485.8 548.053 C 484.811 548.891 484.206 550.065 484.099 551.359 L 484.073 551.692 C 483.965 552.985 484.367 554.242 485.206 555.232 C 486.044 556.222 487.218 556.826 488.511 556.933 L 510.044 558.719 C 510.179 558.73 510.315 558.736 510.448 558.736 C 512.946 558.736 515.075 556.813 515.285 554.279 L 515.312 553.946 C 515.418 552.653 515.016 551.396 514.178 550.406 C 513.339 549.415 512.165 548.811 510.873 548.704 Z " fill="rgb(255,255,255)"/><path d=" M 534.312 520.401 C 534.907 522.55 536.865 523.962 538.994 523.962 C 539.422 523.962 539.856 523.905 540.288 523.786 L 540.611 523.697 C 543.192 522.982 544.71 520.301 543.996 517.72 L 538.229 496.897 C 537.515 494.316 534.833 492.8 532.252 493.513 L 531.929 493.602 C 529.348 494.317 527.829 496.998 528.544 499.579 L 534.312 520.401 Z " fill="rgb(255,255,255)"/><path d=" M 534.782 528.187 C 534.056 527.585 533.532 526.79 533.267 525.885 L 525.795 500.404 C 525.417 499.116 524.561 498.052 523.383 497.409 C 522.206 496.765 520.847 496.619 519.561 496.996 C 518.273 497.373 517.209 498.23 516.566 499.408 C 515.921 500.586 515.775 501.944 516.153 503.231 L 523.913 529.697 C 524.556 531.888 525.825 533.815 527.583 535.271 L 529.922 537.209 L 526.568 541.259 L 524.228 539.322 C 522.471 537.866 520.34 536.978 518.068 536.756 L 490.62 534.063 C 487.861 533.792 485.4 535.817 485.13 538.573 C 484.859 541.33 486.883 543.793 489.64 544.064 L 516.067 546.656 C 517.005 546.748 517.885 547.115 518.611 547.716 L 550.162 573.845 C 551.098 574.62 552.232 574.998 553.361 574.998 C 554.807 574.998 556.243 574.378 557.236 573.18 C 559.003 571.046 558.704 567.872 556.57 566.106 L 534.307 547.668 L 537.661 543.618 L 559.924 562.055 C 562.057 563.822 565.231 563.524 566.998 561.39 C 567.853 560.356 568.256 559.051 568.13 557.715 C 568.005 556.379 567.366 555.172 566.333 554.316 L 534.782 528.187 Z  M 565.456 560.114 C 564.394 561.397 562.484 561.578 561.198 560.514 L 538.165 541.44 C 537.962 541.271 537.7 541.193 537.434 541.214 C 537.17 541.239 536.926 541.367 536.757 541.572 L 532.128 547.162 C 531.776 547.587 531.835 548.218 532.261 548.57 L 555.293 567.645 C 556.577 568.708 556.757 570.619 555.693 571.903 C 554.63 573.189 552.718 573.367 551.435 572.304 L 519.885 546.175 C 518.851 545.319 517.598 544.797 516.261 544.665 L 489.834 542.073 C 488.175 541.91 486.957 540.427 487.119 538.768 C 487.272 537.208 488.591 536.039 490.127 536.039 C 490.225 536.039 490.324 536.044 490.424 536.054 L 517.872 538.746 C 519.746 538.93 521.503 539.662 522.952 540.862 L 526.061 543.437 C 526.265 543.606 526.531 543.689 526.792 543.663 C 527.056 543.638 527.299 543.51 527.469 543.305 L 532.099 537.715 C 532.451 537.29 532.392 536.659 531.966 536.307 L 528.857 533.732 C 527.408 532.531 526.361 530.941 525.832 529.135 L 518.072 502.669 C 517.844 501.894 517.932 501.077 518.32 500.369 C 518.707 499.66 519.347 499.144 520.123 498.917 C 520.897 498.691 521.714 498.778 522.424 499.166 C 523.133 499.553 523.649 500.193 523.875 500.969 L 531.347 526.45 C 531.725 527.739 532.472 528.872 533.506 529.729 L 565.057 555.857 C 565.679 556.372 566.063 557.099 566.138 557.903 C 566.214 558.706 565.972 559.492 565.456 560.114 Z " fill="rgb(255,255,255)"/><path d=" M 546.944 474.03 C 547.548 475.603 549.053 476.571 550.647 476.571 C 551.12 476.571 551.599 476.486 552.066 476.307 L 552.351 476.197 C 553.339 475.817 554.121 475.075 554.55 474.108 C 554.98 473.141 555.008 472.065 554.628 471.077 L 548.607 455.413 C 547.823 453.374 545.527 452.354 543.487 453.136 L 543.199 453.246 C 541.16 454.031 540.139 456.328 540.923 458.367 L 546.944 474.03 Z " fill="rgb(255,255,255)"/><path d=" M 601.079 467.802 L 600.876 467.571 C 599.435 465.929 596.927 465.764 595.284 467.205 L 582.668 478.268 C 581.872 478.966 581.397 479.932 581.327 480.988 C 581.258 482.045 581.603 483.064 582.302 483.86 L 582.505 484.091 C 583.202 484.887 584.168 485.363 585.225 485.432 C 585.314 485.438 585.402 485.441 585.49 485.441 C 586.451 485.441 587.368 485.097 588.096 484.458 L 600.712 473.395 C 602.354 471.954 602.518 469.445 601.079 467.802 Z " fill="rgb(255,255,255)"/><path d=" M 594.358 459.327 C 592.836 457.642 590.227 457.512 588.544 459.034 L 572.7 473.355 C 571.356 474.569 570.416 476.142 569.98 477.903 L 569.47 479.968 L 565.956 479.1 L 566.465 477.037 C 566.901 475.277 566.8 473.447 566.174 471.745 L 558.81 451.697 C 558.028 449.567 555.664 448.472 553.528 449.252 C 551.398 450.034 550.3 452.404 551.083 454.535 L 558.173 473.837 C 558.409 474.481 558.446 475.171 558.282 475.836 L 550.682 506.635 C 550.138 508.838 551.489 511.073 553.693 511.617 C 554.758 511.88 555.867 511.712 556.807 511.144 C 557.748 510.575 558.411 509.674 558.674 508.607 L 563.984 487.094 L 567.499 487.962 L 562.19 509.474 C 561.646 511.678 562.997 513.912 565.201 514.456 C 565.53 514.538 565.861 514.577 566.186 514.577 C 568.035 514.577 569.72 513.32 570.183 511.447 L 577.783 480.648 C 577.947 479.983 578.303 479.389 578.81 478.93 L 594.065 465.141 C 595.748 463.618 595.879 461.01 594.358 459.327 Z  M 592.723 463.657 L 577.468 477.446 C 576.663 478.174 576.101 479.115 575.841 480.168 L 568.241 510.966 C 567.961 512.099 566.816 512.792 565.678 512.514 C 565.129 512.378 564.666 512.037 564.374 511.554 C 564.081 511.07 563.995 510.501 564.13 509.953 L 569.679 487.469 C 569.742 487.211 569.701 486.939 569.564 486.712 C 569.427 486.485 569.206 486.322 568.948 486.258 L 563.491 484.911 C 563.411 484.891 563.33 484.882 563.251 484.882 C 562.802 484.882 562.394 485.187 562.281 485.642 L 556.732 508.126 C 556.596 508.675 556.255 509.138 555.772 509.43 C 555.288 509.722 554.721 509.809 554.17 509.674 C 553.037 509.394 552.343 508.245 552.622 507.112 L 560.222 476.314 C 560.483 475.261 560.422 474.166 560.048 473.146 L 552.958 453.845 C 552.557 452.749 553.12 451.531 554.216 451.128 C 555.311 450.726 556.529 451.29 556.932 452.385 L 564.295 472.433 C 564.782 473.76 564.86 475.185 564.522 476.557 L 563.774 479.592 C 563.641 480.128 563.969 480.67 564.505 480.802 L 569.961 482.149 C 570.218 482.212 570.489 482.171 570.717 482.034 C 570.945 481.897 571.108 481.675 571.171 481.418 L 571.92 478.383 C 572.26 477.01 572.992 475.785 574.04 474.838 L 589.884 460.517 C 590.746 459.735 592.09 459.802 592.872 460.668 C 593.657 461.534 593.588 462.874 592.723 463.657 Z " fill="rgb(255,255,255)"/><path d=" M 509.944 472.387 L 522.913 477.231 C 523.301 477.377 523.699 477.445 524.092 477.445 C 525.463 477.445 526.756 476.605 527.265 475.245 L 527.384 474.924 C 527.7 474.078 527.668 473.159 527.293 472.337 C 526.919 471.515 526.246 470.889 525.399 470.572 L 512.43 465.728 C 511.584 465.412 510.667 465.444 509.844 465.819 C 509.023 466.194 508.396 466.866 508.08 467.712 L 507.959 468.036 C 507.959 468.036 507.959 468.036 507.959 468.037 C 507.307 469.783 508.198 471.734 509.944 472.387 Z " fill="rgb(255,255,255)"/><path d=" M 486.55 503.257 C 486.556 503.257 486.561 503.257 486.567 503.257 C 487.463 503.257 488.308 502.91 488.946 502.278 C 489.588 501.642 489.943 500.795 489.947 499.892 L 490.01 486.049 C 490.015 485.146 489.667 484.295 489.031 483.653 C 488.395 483.011 487.548 482.655 486.644 482.652 C 486.643 482.652 486.643 482.652 486.643 482.652 L 486.3 482.649 C 485.404 482.634 484.546 482.992 483.904 483.628 C 483.262 484.264 482.907 485.111 482.903 486.015 L 482.839 499.859 C 482.83 501.723 484.341 503.247 486.205 503.255 L 486.55 503.257 Z " fill="rgb(255,255,255)"/><path d=" M 491.865 482.946 L 492.042 499.796 C 492.052 500.746 492.431 501.634 493.109 502.298 C 493.778 502.953 494.659 503.312 495.593 503.312 C 495.606 503.312 495.619 503.312 495.632 503.312 C 496.581 503.302 497.469 502.923 498.134 502.245 C 498.798 501.567 499.158 500.671 499.149 499.722 L 498.965 482.221 C 498.949 480.7 498.484 479.233 497.619 477.98 L 496.731 476.694 L 498.875 475.214 L 499.763 476.5 C 500.628 477.752 501.835 478.707 503.252 479.261 L 519.554 485.632 C 520.44 485.977 521.405 485.958 522.274 485.577 C 523.143 485.196 523.812 484.499 524.158 483.616 C 524.504 482.732 524.484 481.765 524.103 480.896 C 523.722 480.026 523.025 479.357 522.141 479.012 L 506.446 472.879 C 505.957 472.688 505.541 472.358 505.243 471.926 L 490.47 450.533 C 489.356 448.921 487.139 448.516 485.526 449.628 C 483.915 450.742 483.508 452.959 484.621 454.572 L 494.838 469.365 L 492.693 470.846 L 482.477 456.053 C 481.362 454.441 479.146 454.036 477.533 455.148 C 475.922 456.262 475.515 458.479 476.628 460.092 L 491.401 481.484 C 491.7 481.916 491.86 482.421 491.865 482.946 Z  M 478.669 456.794 C 478.938 456.608 479.246 456.519 479.55 456.519 C 480.043 456.519 480.529 456.753 480.83 457.189 L 491.614 472.806 C 491.765 473.024 491.997 473.174 492.258 473.222 C 492.521 473.27 492.788 473.212 493.006 473.061 L 496.796 470.443 C 497.25 470.129 497.364 469.506 497.051 469.052 L 486.267 453.436 C 485.781 452.73 485.957 451.761 486.663 451.274 C 487.367 450.787 488.338 450.964 488.824 451.67 L 503.596 473.061 C 504.121 473.822 504.855 474.403 505.717 474.741 L 521.413 480.874 C 521.8 481.025 522.104 481.317 522.27 481.697 C 522.436 482.077 522.445 482.499 522.293 482.886 C 522.143 483.272 521.85 483.577 521.47 483.743 C 521.09 483.91 520.667 483.919 520.282 483.767 L 503.98 477.396 C 502.935 476.988 502.045 476.285 501.409 475.362 L 499.953 473.254 C 499.639 472.8 499.015 472.686 498.561 473 L 494.771 475.617 C 494.553 475.767 494.404 475.999 494.356 476.26 C 494.308 476.521 494.366 476.79 494.516 477.009 L 495.972 479.117 C 496.61 480.04 496.952 481.12 496.964 482.242 L 497.148 499.743 C 497.152 500.158 496.995 500.55 496.705 500.847 C 496.414 501.143 496.025 501.309 495.61 501.313 C 495.193 501.303 494.803 501.161 494.507 500.87 C 494.21 500.58 494.044 500.191 494.04 499.776 L 493.863 482.927 C 493.854 482.001 493.571 481.109 493.045 480.347 L 478.274 458.955 C 477.788 458.25 477.964 457.28 478.669 456.794 Z " fill="rgb(255,255,255)"/></g><g><path d=" M 624.667 514 C 625.585 514 626.333 514.749 626.333 515.667 C 626.333 516.585 625.585 517.333 624.667 517.333 C 621.906 517.333 619.667 519.573 619.667 522.333 C 619.667 523.251 618.918 524 618 524 C 617.082 524 616.333 523.251 616.333 522.333 C 616.333 517.737 620.07 514 624.667 514 Z  M 623 482.333 C 623 483.251 622.251 484 621.333 484 C 620.415 484 619.667 483.251 619.667 482.333 C 619.667 479.573 621.906 477.333 624.667 477.333 C 625.585 477.333 626.333 478.082 626.333 479 C 626.333 479.918 625.585 480.667 624.667 480.667 C 623.749 480.667 623 481.415 623 482.333 Z  M 591.333 502.333 C 590.415 502.333 589.667 503.082 589.667 504 C 589.667 504.918 588.918 505.667 588 505.667 C 587.082 505.667 586.333 504.918 586.333 504 C 586.333 501.24 588.573 499 591.333 499 C 592.251 499 593 499.749 593 500.667 C 593 501.585 592.251 502.333 591.333 502.333 Z  M 658 542.333 C 658.918 542.333 659.667 543.082 659.667 544 C 659.667 544.918 658.918 545.667 658 545.667 C 657.082 545.667 656.333 546.415 656.333 547.333 C 656.333 548.251 655.585 549 654.667 549 C 653.749 549 653 548.251 653 547.333 C 653 544.573 655.24 542.333 658 542.333 Z  M 591.333 552.333 C 590.415 552.333 589.667 553.082 589.667 554 C 589.667 554.918 588.918 555.667 588 555.667 C 587.082 555.667 586.333 554.918 586.333 554 C 586.333 551.24 588.573 549 591.333 549 C 592.251 549 593 549.749 593 550.667 C 593 551.585 592.251 552.333 591.333 552.333 Z  M 597.421 545.908 C 597.382 545.94 597.368 545.992 597.336 546.031 C 595.663 544.762 593.592 544 591.333 544 C 585.819 544 581.333 548.486 581.333 554 C 581.333 559.514 585.819 564 591.333 564 C 596.848 564 601.333 559.514 601.333 554 C 601.333 551.91 600.689 549.99 599.602 548.401 C 599.634 548.368 599.68 548.355 599.712 548.323 L 616.151 532.724 C 616.177 532.698 616.19 532.659 616.216 532.626 C 618.521 534.514 621.457 535.667 624.667 535.667 C 628.443 535.667 631.835 534.091 634.263 531.585 C 634.289 531.611 634.302 531.643 634.335 531.663 L 649.003 542.665 C 649.042 542.698 649.087 542.704 649.126 542.73 C 648.41 544.111 648 545.673 648 547.333 C 648 552.848 652.486 557.333 658 557.333 C 663.514 557.333 668 552.848 668 547.333 C 668 541.819 663.514 537.333 658 537.333 C 655.324 537.333 652.902 538.395 651.105 540.113 C 651.066 540.081 651.047 540.035 651.001 540.003 L 636.333 529 C 636.294 528.974 636.255 528.967 636.21 528.941 C 637.329 526.988 638 524.742 638 522.333 C 638 515.523 632.902 509.924 626.307 509.111 C 626.314 509.072 626.333 509.039 626.333 509 L 626.333 490.667 C 626.333 490.608 626.307 490.556 626.301 490.504 C 630.116 489.742 633 486.37 633 482.333 C 633 477.73 629.27 474 624.667 474 C 620.064 474 616.333 477.73 616.333 482.333 C 616.333 486.37 619.217 489.742 623.033 490.504 C 623.026 490.556 623 490.608 623 490.667 L 623 509 C 623 509.039 623.02 509.072 623.026 509.111 C 619.263 509.573 615.988 511.591 613.872 514.527 C 613.84 514.508 613.82 514.475 613.788 514.456 L 599.439 506.559 C 599.38 506.526 599.322 506.526 599.263 506.5 C 599.517 505.712 599.667 504.872 599.667 504 C 599.667 499.397 595.936 495.667 591.333 495.667 C 586.73 495.667 583 499.397 583 504 C 583 508.603 586.73 512.333 591.333 512.333 C 593.892 512.333 596.164 511.168 597.688 509.358 C 597.74 509.391 597.772 509.449 597.831 509.475 L 612.18 517.379 C 612.212 517.392 612.245 517.398 612.277 517.411 C 611.672 518.935 611.333 520.595 611.333 522.333 C 611.333 525.302 612.316 528.036 613.951 530.243 C 613.918 530.27 613.885 530.283 613.853 530.309 L 597.421 545.908 Z " fill="rgb(255,255,255)"/></g></svg>