<?xml version="1.0" encoding="UTF-8" standalone="no"?><!-- Generator: Gravit.io --><svg xmlns="http://www.w3.org/2000/svg" xmlns:xlink="http://www.w3.org/1999/xlink" style="isolation:isolate" viewBox="376.728 418 170.247 142.817" width="170.247pt" height="142.817pt"><g><g><g><path d=" M 439.862 430.695 C 428.249 437.691 418.584 443.678 418.367 443.967 C 418.007 444.399 417.935 446.708 417.935 452.478 L 417.935 460.412 L 397.594 472.53 C 386.486 479.238 377.181 484.936 377.037 485.297 C 376.676 486.018 376.604 530.811 376.965 531.749 C 377.253 532.542 419.233 560.528 420.387 560.673 C 421.108 560.745 425.508 558.292 441.377 548.771 C 452.413 542.135 461.645 536.726 461.862 536.726 C 462.078 536.726 471.238 542.135 482.274 548.771 C 493.31 555.407 502.615 560.817 503.048 560.817 C 503.913 560.817 545.46 536.076 546.398 534.994 C 546.975 534.345 546.975 532.686 546.975 510.11 C 546.975 495.684 546.83 485.73 546.686 485.297 C 546.47 484.936 537.237 479.238 526.129 472.53 L 505.861 460.412 L 505.861 452.478 C 505.861 445.409 505.789 444.472 505.284 443.822 C 504.274 442.668 462.727 418 461.862 418 C 461.285 418.072 451.403 423.77 439.862 430.695 Z  M 479.822 434.734 C 489.559 440.577 497.494 445.409 497.494 445.481 C 497.494 445.842 462.439 466.615 461.862 466.615 C 461.212 466.615 426.229 445.914 426.229 445.481 C 426.229 445.193 461.357 424.203 461.789 424.203 C 462.006 424.203 470.156 428.964 479.822 434.734 Z  M 459.048 491.717 L 459.048 511.697 L 441.232 499.795 L 423.344 487.966 L 423.344 469.14 L 423.344 450.314 L 441.16 460.989 L 458.976 471.665 L 458.976 491.717 L 459.048 491.717 Z  M 500.235 470.438 L 500.235 490.563 L 482.419 501.238 L 464.602 511.913 L 464.602 491.789 L 464.602 471.665 L 482.346 460.989 C 492.084 455.147 500.09 450.314 500.162 450.314 C 500.162 450.314 500.235 459.33 500.235 470.438 Z  M 418.151 490.995 C 418.151 491.067 421.757 493.448 426.085 496.333 L 433.947 501.598 L 427.311 504.916 L 420.675 508.234 L 402.787 497.559 C 392.906 491.644 384.899 486.812 384.899 486.668 C 384.899 486.595 392.256 482.123 401.273 476.714 L 417.646 466.904 L 417.79 478.95 C 417.935 485.513 418.079 490.995 418.151 490.995 Z  M 538.608 486.668 C 538.608 486.884 504.562 507.297 503.48 507.729 C 502.831 507.946 501.821 507.513 497.71 504.988 C 494.897 503.329 492.661 501.887 492.661 501.743 C 492.661 501.598 495.474 499.795 498.864 497.775 C 502.326 495.684 505.212 493.808 505.356 493.448 C 505.572 493.087 505.716 487.389 505.716 479.815 L 505.716 466.76 L 522.162 476.641 C 531.25 482.051 538.608 486.595 538.608 486.668 Z  M 417.862 532.903 L 417.862 552.883 L 400.046 540.981 L 382.158 529.08 L 382.158 510.326 L 382.158 491.5 L 399.974 502.175 L 417.79 512.851 L 417.79 532.903 L 417.862 532.903 Z  M 541.421 511.624 L 541.421 531.749 L 523.605 542.424 L 505.789 553.099 L 505.789 532.975 L 505.789 512.851 L 523.532 502.175 C 533.27 496.333 541.276 491.5 541.349 491.5 C 541.349 491.5 541.421 500.516 541.421 511.624 Z  M 500.235 533.047 L 500.235 553.171 L 482.419 542.496 L 464.602 531.821 L 464.602 525.113 L 464.602 518.405 L 475.855 511.697 L 487.035 504.988 L 493.671 508.956 L 500.307 512.923 L 500.307 533.047 L 500.235 533.047 Z  M 449.167 511.769 L 459.048 518.332 L 459.048 525.041 L 459.048 531.749 L 441.232 542.424 L 423.416 553.099 L 423.416 533.047 L 423.416 512.995 L 431.206 509.1 C 435.462 506.936 439.069 505.133 439.141 505.133 C 439.213 505.205 443.757 508.162 449.167 511.769 Z " fill="rgb(0,0,0)"/></g></g></g></svg>