<?xml version="1.0" encoding="UTF-8" standalone="no"?><svg xmlns="http://www.w3.org/2000/svg" xmlns:xlink="http://www.w3.org/1999/xlink" fill="#ffffff" height="100.2" preserveAspectRatio="xMidYMid meet" version="1" viewBox="0.0 -0.1 100.0 100.2" width="100" zoomAndPan="magnify"><defs><clipPath id="a"><path d="M 41 36 L 100.011719 36 L 100.011719 100.089844 L 41 100.089844 Z M 41 36"/></clipPath></defs><g><g id="change1_1"><path d="M 77.097656 37.304688 L 58.402344 35.105469 L 62.5 32.503906 C 63.300781 32.003906 63.5 31.003906 63.097656 30.203125 L 49.398438 3.402344 L 66.597656 3.402344 C 69.5 3.402344 72.199219 5.105469 73.5 7.703125 L 80 19.203125 C 80.402344 20.003906 81.402344 20.304688 82.199219 19.902344 L 86.402344 17.703125 Z M 42.699219 25.105469 L 27.300781 15.003906 L 31.601562 7.703125 C 33.101562 5.105469 35.898438 3.402344 38.898438 3.402344 L 45.699219 3.402344 L 49.800781 12.003906 Z M 90.699219 12.203125 C 90.199219 12.003906 89.699219 12.003906 89.199219 12.203125 L 82.097656 16.003906 L 76.402344 6.003906 C 74.5 2.304688 70.699219 -0.0976562 66.597656 0.00390625 L 38.898438 0.00390625 C 34.800781 0.00390625 30.898438 2.304688 28.800781 5.902344 L 23.601562 14.605469 C 23.101562 15.402344 23.398438 16.503906 24.101562 17.003906 L 42.398438 29.003906 C 42.699219 29.203125 43 29.304688 43.300781 29.304688 C 43.398438 29.304688 43.601562 29.304688 43.699219 29.203125 C 44.101562 29.105469 44.5 28.804688 44.699219 28.402344 L 51.699219 15.402344 L 59.402344 30.402344 L 52.402344 34.703125 C 51.800781 35.105469 51.5 35.804688 51.597656 36.503906 C 51.800781 37.203125 52.300781 37.804688 53 37.804688 L 77.800781 40.703125 C 77.902344 40.703125 77.902344 40.703125 78 40.703125 C 78.597656 40.703125 79.199219 40.304688 79.5 39.703125 L 91.402344 14.402344 C 91.902344 13.703125 91.5 12.703125 90.699219 12.203125" fill="inherit"/></g><g clip-path="url(#a)" id="change1_3"><path d="M 95.402344 58.804688 L 92.402344 63.804688 L 81 63.804688 L 73.902344 50.703125 L 91 40.304688 L 95.597656 49.902344 C 97.097656 52.703125 97 56.105469 95.402344 58.804688 Z M 80.199219 85.40625 C 78.902344 88.105469 76.199219 89.804688 73.300781 89.703125 L 60 89.703125 C 59.097656 89.703125 58.300781 90.503906 58.300781 91.40625 L 58.300781 93.203125 L 45.5 76.003906 L 58.300781 61.40625 L 58.300781 65.605469 C 58.300781 66.605469 59 67.304688 60 67.304688 L 90.402344 67.304688 Z M 98.5 48.304688 L 93.097656 37.203125 C 92.699219 36.304688 91.699219 36.003906 90.902344 36.402344 C 90.902344 36.402344 90.800781 36.402344 90.800781 36.503906 L 70.800781 48.605469 C 70 49.003906 69.800781 50.003906 70.199219 50.804688 L 77.199219 63.804688 L 61.699219 63.804688 L 61.699219 56.90625 C 61.699219 55.90625 61 55.203125 60 55.203125 C 59.5 55.203125 59.097656 55.40625 58.800781 55.804688 L 42.101562 74.804688 C 41.601562 75.40625 41.5 76.304688 42 77.003906 L 58.699219 99.40625 C 59.300781 100.203125 60.300781 100.304688 61 99.703125 C 61.402344 99.40625 61.597656 98.90625 61.597656 98.304688 L 61.597656 93.105469 L 73.300781 93.105469 C 77.402344 93.203125 81.199219 90.90625 83.097656 87.105469 L 94.800781 66.40625 L 98.300781 60.605469 C 100.5 56.804688 100.601562 52.105469 98.5 48.304688" fill="inherit"/></g><g id="change1_2"><path d="M 30.699219 46.804688 C 29.898438 46.503906 29.101562 46.804688 28.699219 47.503906 L 14.300781 73.503906 L 6.5 59.503906 C 5.101562 56.804688 5.101562 53.503906 6.601562 50.804688 L 12.800781 37.902344 C 13.199219 37.105469 12.898438 36.105469 12.199219 35.703125 L 7 32.402344 L 27.300781 31.105469 L 35.101562 48.605469 Z M 33.300781 69.003906 L 33.300781 89.703125 L 28.300781 89.703125 C 25.199219 89.703125 22.300781 88.003906 20.800781 85.203125 L 16.199219 77.003906 L 20.898438 69.003906 Z M 39.800781 51.003906 L 29.800781 28.605469 C 29.5 28.003906 28.898438 27.605469 28.199219 27.605469 L 1.601562 29.304688 C 0.699219 29.402344 0 30.203125 0 31.105469 C 0 31.703125 0.300781 32.203125 0.800781 32.503906 L 9 37.804688 L 3.5 49.203125 C 1.5 52.90625 1.5 57.503906 3.5 61.203125 L 12.800781 77.804688 L 17.898438 86.90625 C 20.101562 90.703125 24 93.105469 28.300781 93.105469 L 35 93.105469 C 35.898438 93.105469 36.699219 92.304688 36.699219 91.40625 L 36.699219 67.203125 C 36.699219 66.203125 36 65.503906 35 65.503906 L 22.5 65.503906 L 30.800781 50.605469 L 37.699219 53.304688 C 38.601562 53.605469 39.5 53.203125 39.898438 52.304688 C 40 51.90625 40 51.40625 39.800781 51.003906" fill="inherit"/></g></g></svg>