<?xml version="1.0" encoding="UTF-8" standalone="no"?><!-- Generator: Gravit.io --><svg xmlns="http://www.w3.org/2000/svg" xmlns:xlink="http://www.w3.org/1999/xlink" style="isolation:isolate" viewBox="293 498 236.079 233.661" width="236.079pt" height="233.661pt"><g><g><path d=" M 474.063 576.026 C 487.563 580.126 500.063 583.626 512.463 587.726 C 525.463 592.126 530.863 600.126 528.563 614.926 C 522.863 652.526 507.263 682.826 472.163 700.726 C 468.763 702.426 464.563 703.826 463.863 707.726 C 460.163 729.626 442.763 730.326 426.563 731.326 C 412.263 732.126 397.663 731.426 383.363 729.926 C 371.863 728.726 361.063 724.826 359.063 710.726 C 358.063 704.126 352.363 702.326 347.463 699.626 C 314.263 681.626 299.263 651.926 293.563 616.026 C 291.163 601.126 296.363 592.426 310.563 587.326 C 342.363 575.926 375.163 573.026 410.963 573.326 C 392.763 600.726 340.9 590.3 321 607 C 330.933 616.649 487.889 623.052 481.763 600.326 C 470.263 584.726 458.763 600.126 447.463 600.026 C 434.963 599.926 422.363 600.026 406.063 600.026 C 423.463 579.526 438.863 561.126 454.463 542.826 C 465.063 530.426 475.963 518.226 486.163 505.526 C 493.663 496.226 500.463 495.726 509.963 503.026 C 520.063 510.726 516.863 517.426 511.063 525.226 C 498.963 541.826 486.863 558.526 474.063 576.026 Z " fill="rgb(0,0,0)"/><path d=" M 320.137 622.889 C 371.528 638.395 435.694 638.415 493.355 622.639 C 498.678 621.183 501.665 624.277 500.021 629.546 C 489.518 663.203 458.849 686.547 424.927 688.993 C 417.22 689.549 404.718 689.402 397.027 688.665 C 352.76 684.424 319.562 655.897 312.995 629.7 C 311.653 624.346 314.853 621.294 320.137 622.889 Z " fill="rgb(94,94,94)"/></g></g></svg>