<?xml version="1.0" encoding="UTF-8" standalone="no"?><!-- Generator: Gravit.io --><svg xmlns="http://www.w3.org/2000/svg" xmlns:xlink="http://www.w3.org/1999/xlink" style="isolation:isolate" viewBox="1049 504 236 238" width="236pt" height="238pt"><g><path d=" M 1049 623 C 1049 688.7 1101.8 742 1167 742 C 1232.2 742 1285 688.8 1285 623.1 C 1285 623.1 1285 623.1 1285 623 C 1285 557.3 1232.2 504 1167 504 C 1101.8 504 1049 557.3 1049 623 Z " fill="rgb(183,214,206)"/><path d=" M 1066.5 623 C 1066.5 678.8 1111.3 723.9 1166.7 723.9 C 1222 723.9 1266.9 678.7 1266.9 623 C 1266.9 567.2 1222 522 1166.7 522 C 1111.4 522 1066.5 567.2 1066.5 623 Z " fill="rgb(166,203,192)"/><path d=" M 1258.2 668.35 C 1258.2 671.75 1255.5 674.45 1252.1 674.45 L 1081.8 674.45 C 1078.5 674.45 1075.7 671.75 1075.7 668.35 L 1075.7 577.65 C 1075.7 574.25 1078.4 571.55 1081.8 571.55 L 1252.2 571.55 C 1255.5 571.55 1258.3 574.25 1258.3 577.65 L 1258.3 668.35 L 1258.2 668.35 Z " fill="rgb(76,75,76)"/><path d=" M 1231.825 617.481 C 1231.825 619.095 1230.534 620.386 1228.919 620.386 L 1195.881 620.386 C 1194.266 620.386 1192.975 619.095 1192.975 617.481 L 1192.975 584.119 C 1192.975 582.505 1194.266 581.214 1195.881 581.214 L 1228.919 581.214 C 1230.534 581.214 1231.825 582.505 1231.825 584.119 L 1231.825 617.481 Z " fill="rgb(0,0,0)"/><path d=" M 1186.525 617.481 C 1186.525 619.095 1185.234 620.386 1183.619 620.386 L 1150.581 620.386 C 1148.966 620.386 1147.675 619.095 1147.675 617.481 L 1147.675 584.119 C 1147.675 582.505 1148.966 581.214 1150.581 581.214 L 1183.619 581.214 C 1185.234 581.214 1186.525 582.505 1186.525 584.119 L 1186.525 617.481 Z " fill="rgb(0,0,0)"/><path d=" M 1252.2 674.55 L 1081.8 674.55 C 1078.4 674.55 1075.6 671.75 1075.6 668.35 L 1075.6 577.65 C 1075.6 574.25 1078.4 571.45 1081.8 571.45 L 1252.2 571.45 C 1255.6 571.45 1258.4 574.25 1258.4 577.65 L 1258.4 668.35 C 1258.4 671.75 1255.6 674.55 1252.2 674.55 L 1252.2 674.55 Z  M 1081.8 571.65 C 1078.5 571.65 1075.9 574.35 1075.9 577.65 L 1075.9 668.35 C 1075.9 671.65 1078.6 674.35 1081.8 674.35 L 1252.2 674.35 C 1255.5 674.35 1258.1 671.65 1258.1 668.35 L 1258.1 577.65 C 1258.1 574.35 1255.4 571.65 1252.2 571.65 L 1081.8 571.65 Z " fill="rgb(7,0,1)"/><path d=" M 1185.05 616.3 C 1185.05 617.8 1183.85 619 1182.35 619 L 1151.75 619 C 1150.25 619 1149.05 617.8 1149.05 616.3 L 1149.05 585.3 C 1149.05 583.8 1150.25 582.6 1151.75 582.6 L 1182.45 582.6 C 1183.95 582.6 1185.15 583.8 1185.15 585.3 L 1185.15 616.3 L 1185.05 616.3 Z " fill="rgb(236,175,88)"/><path d=" M 1182.45 619.1 L 1151.75 619.1 C 1150.25 619.1 1148.95 617.8 1148.95 616.3 L 1148.95 585.3 C 1148.95 583.8 1150.25 582.5 1151.75 582.5 L 1182.45 582.5 C 1183.95 582.5 1185.25 583.8 1185.25 585.3 L 1185.25 616.2 C 1185.15 617.8 1183.95 619.1 1182.45 619.1 Z  M 1151.75 582.7 C 1150.35 582.7 1149.25 583.9 1149.25 585.3 L 1149.25 616.2 C 1149.25 617.6 1150.35 618.8 1151.75 618.8 L 1182.45 618.8 C 1183.85 618.8 1184.95 617.6 1184.95 616.2 L 1184.95 585.3 C 1184.95 583.9 1183.85 582.7 1182.45 582.7 L 1151.75 582.7 L 1151.75 582.7 Z " fill="rgb(7,0,1)"/><path d=" M 1230.15 616.3 C 1230.15 617.8 1228.95 619 1227.45 619 L 1196.75 619 C 1195.25 619 1194.05 617.8 1194.05 616.3 L 1194.05 585.3 C 1194.05 583.8 1195.25 582.6 1196.75 582.6 L 1227.45 582.6 C 1228.95 582.6 1230.15 583.8 1230.15 585.3 L 1230.15 616.3 Z " fill="rgb(205,127,43)"/><path d=" M 1227.55 619.1 L 1196.85 619.1 C 1195.35 619.1 1194.05 617.8 1194.05 616.3 L 1194.05 585.3 C 1194.05 583.8 1195.35 582.5 1196.85 582.5 L 1227.55 582.5 C 1229.05 582.5 1230.35 583.8 1230.35 585.3 L 1230.35 616.2 C 1230.25 617.8 1229.05 619.1 1227.55 619.1 Z  M 1196.85 582.7 C 1195.45 582.7 1194.35 583.9 1194.35 585.3 L 1194.35 616.2 C 1194.35 617.6 1195.45 618.8 1196.85 618.8 L 1227.55 618.8 C 1228.95 618.8 1230.05 617.6 1230.05 616.2 L 1230.05 585.3 C 1230.05 583.9 1228.95 582.7 1227.55 582.7 L 1196.85 582.7 L 1196.85 582.7 Z " fill="rgb(7,0,1)"/><path d=" M 1141.225 661.931 C 1141.225 663.545 1139.934 664.836 1138.319 664.836 L 1105.281 664.836 C 1103.666 664.836 1102.375 663.545 1102.375 661.931 L 1102.375 628.569 C 1102.375 626.955 1103.666 625.664 1105.281 625.664 L 1138.319 625.664 C 1139.934 625.664 1141.225 626.955 1141.225 628.569 L 1141.225 661.931 Z " fill="rgb(0,0,0)"/><path d=" M 1186.525 661.931 C 1186.525 663.545 1185.234 664.836 1183.619 664.836 L 1150.581 664.836 C 1148.966 664.836 1147.675 663.545 1147.675 661.931 L 1147.675 628.569 C 1147.675 626.955 1148.966 625.664 1150.581 625.664 L 1183.619 625.664 C 1185.234 625.664 1186.525 626.955 1186.525 628.569 L 1186.525 661.931 Z " fill="rgb(0,0,0)"/><path d=" M 1231.825 661.931 C 1231.825 663.545 1230.534 664.836 1228.919 664.836 L 1195.881 664.836 C 1194.266 664.836 1192.975 663.545 1192.975 661.931 L 1192.975 628.569 C 1192.975 626.955 1194.266 625.664 1195.881 625.664 L 1228.919 625.664 C 1230.534 625.664 1231.825 626.955 1231.825 628.569 L 1231.825 661.931 Z " fill="rgb(0,0,0)"/><path d=" M 1185.05 660.7 C 1185.05 662.2 1183.85 663.4 1182.35 663.4 L 1151.75 663.4 C 1150.25 663.4 1149.05 662.2 1149.05 660.7 L 1149.05 629.8 C 1149.05 628.3 1150.25 627.1 1151.75 627.1 L 1182.45 627.1 C 1183.95 627.1 1185.15 628.3 1185.15 629.8 L 1185.15 660.7 L 1185.05 660.7 Z " fill="rgb(130,83,42)"/><path d=" M 1182.45 663.5 L 1151.75 663.5 C 1150.25 663.5 1148.95 662.2 1148.95 660.7 L 1148.95 629.7 C 1148.95 628.2 1150.25 626.9 1151.75 626.9 L 1182.45 626.9 C 1183.95 626.9 1185.25 628.2 1185.25 629.7 L 1185.25 660.6 C 1185.15 662.3 1183.95 663.5 1182.45 663.5 Z  M 1151.75 627.2 C 1150.35 627.2 1149.25 628.4 1149.25 629.8 L 1149.25 660.7 C 1149.25 662.1 1150.35 663.3 1151.75 663.3 L 1182.45 663.3 C 1183.85 663.3 1184.95 662.1 1184.95 660.7 L 1184.95 629.8 C 1184.95 628.4 1183.85 627.2 1182.45 627.2 L 1151.75 627.2 Z " fill="rgb(7,0,1)"/><path d=" M 1141.225 617.481 C 1141.225 619.095 1139.934 620.386 1138.319 620.386 L 1105.281 620.386 C 1103.666 620.386 1102.375 619.095 1102.375 617.481 L 1102.375 584.119 C 1102.375 582.505 1103.666 581.214 1105.281 581.214 L 1138.319 581.214 C 1139.934 581.214 1141.225 582.505 1141.225 584.119 L 1141.225 617.481 Z " fill="rgb(0,0,0)"/><path d=" M 1139.85 616.3 C 1139.85 617.8 1138.65 619 1137.15 619 L 1106.45 619 C 1104.95 619 1103.75 617.8 1103.75 616.3 L 1103.75 585.3 C 1103.75 583.8 1104.95 582.6 1106.45 582.6 L 1137.15 582.6 C 1138.65 582.6 1139.85 583.8 1139.85 585.3 L 1139.85 616.3 Z " fill="rgb(244,202,157)"/><path d=" M 1137.25 619.1 L 1106.45 619.1 C 1104.95 619.1 1103.65 617.8 1103.65 616.3 L 1103.65 585.3 C 1103.65 583.8 1104.95 582.5 1106.45 582.5 L 1137.15 582.5 C 1138.65 582.5 1139.95 583.8 1139.95 585.3 L 1139.95 616.2 C 1139.95 617.8 1138.75 619.1 1137.25 619.1 Z  M 1106.45 582.7 C 1105.05 582.7 1103.95 583.9 1103.95 585.3 L 1103.95 616.2 C 1103.95 617.6 1105.05 618.8 1106.45 618.8 L 1137.15 618.8 C 1138.55 618.8 1139.65 617.6 1139.65 616.2 L 1139.65 585.3 C 1139.65 583.9 1138.55 582.7 1137.15 582.7 L 1106.45 582.7 L 1106.45 582.7 Z " fill="rgb(7,0,1)"/><path d=" M 1139.85 660.7 C 1139.85 662.2 1138.65 663.4 1137.15 663.4 L 1106.45 663.4 C 1104.95 663.4 1103.75 662.2 1103.75 660.7 L 1103.75 629.8 C 1103.75 628.3 1104.95 627.1 1106.45 627.1 L 1137.15 627.1 C 1138.65 627.1 1139.85 628.3 1139.85 629.8 L 1139.85 660.7 Z " fill="rgb(166,102,54)"/><path d=" M 1137.25 663.5 L 1106.45 663.5 C 1104.95 663.5 1103.65 662.2 1103.65 660.7 L 1103.65 629.7 C 1103.65 628.2 1104.95 626.9 1106.45 626.9 L 1137.15 626.9 C 1138.65 626.9 1139.95 628.2 1139.95 629.7 L 1139.95 660.6 C 1139.95 662.3 1138.75 663.5 1137.25 663.5 Z  M 1106.45 627.2 C 1105.05 627.2 1103.95 628.4 1103.95 629.8 L 1103.95 660.7 C 1103.95 662.1 1105.05 663.3 1106.45 663.3 L 1137.15 663.3 C 1138.55 663.3 1139.65 662.1 1139.65 660.7 L 1139.65 629.8 C 1139.65 628.4 1138.55 627.2 1137.15 627.2 L 1106.45 627.2 Z " fill="rgb(7,0,1)"/><path d=" M 1230.15 660.7 C 1230.15 662.2 1228.95 663.4 1227.45 663.4 L 1196.75 663.4 C 1195.25 663.4 1194.05 662.2 1194.05 660.7 L 1194.05 629.8 C 1194.05 628.3 1195.25 627.1 1196.75 627.1 L 1227.45 627.1 C 1228.95 627.1 1230.15 628.3 1230.15 629.8 L 1230.15 660.7 Z " fill="rgb(109,66,32)"/><path d=" M 1227.55 663.5 L 1196.85 663.5 C 1195.35 663.5 1194.05 662.2 1194.05 660.7 L 1194.05 629.7 C 1194.05 628.2 1195.35 626.9 1196.85 626.9 L 1227.55 626.9 C 1229.05 626.9 1230.35 628.2 1230.35 629.7 L 1230.35 660.6 C 1230.25 662.3 1229.05 663.5 1227.55 663.5 Z  M 1196.85 627.2 C 1195.45 627.2 1194.35 628.4 1194.35 629.8 L 1194.35 660.7 C 1194.35 662.1 1195.45 663.3 1196.85 663.3 L 1227.55 663.3 C 1228.95 663.3 1230.05 662.1 1230.05 660.7 L 1230.05 629.8 C 1230.05 628.4 1228.95 627.2 1227.55 627.2 L 1196.85 627.2 Z " fill="rgb(7,0,1)"/></g></svg>