<?xml version="1.0" encoding="utf-8"?>
<!-- Svg Vector Icons : http://www.onlinewebfonts.com/icon -->
<!DOCTYPE svg PUBLIC "-//W3C//DTD SVG 1.1//EN" "http://www.w3.org/Graphics/SVG/1.1/DTD/svg11.dtd">
<svg version="1.1" xmlns="http://www.w3.org/2000/svg" xmlns:xlink="http://www.w3.org/1999/xlink" x="0px" y="0px" viewBox="0 0 256 256" enable-background="new 0 0 256 256" xml:space="preserve">
<metadata> Svg Vector Icons : http://www.onlinewebfonts.com/icon </metadata>
<g><g><path fill="#000000" d="M191,89.2c13.5,4.1,26,7.6,38.4,11.7c13,4.4,18.4,12.4,16.1,27.2c-5.7,37.6-21.3,67.9-56.4,85.8c-3.4,1.7-7.6,3.1-8.3,7c-3.7,21.9-21.1,22.6-37.3,23.6c-14.3,0.8-28.9,0.1-43.2-1.4c-11.5-1.2-22.3-5.1-24.3-19.2c-1-6.6-6.7-8.4-11.6-11.1c-33.2-18-48.2-47.7-53.9-83.6c-2.4-14.9,2.8-23.6,17-28.7c31.8-11.4,64.6-14.3,100.4-14c-18.2,27.4-51,9.6-70.9,26.3c25.1,15.1,114.6,15.6,141.7,0.7c-11.5-15.6-23-0.2-34.3-0.3c-12.5-0.1-25.1,0-41.4,0c17.4-20.5,32.8-38.9,48.4-57.2c10.6-12.4,21.5-24.6,31.7-37.3c7.5-9.3,14.3-9.8,23.8-2.5c10.1,7.7,6.9,14.4,1.1,22.2C215.9,55,203.8,71.7,191,89.2z"/></g></g>
</svg>