<?xml version="1.0" encoding="utf-8"?>
<!-- Svg Vector Icons : http://www.onlinewebfonts.com/icon -->
<!DOCTYPE svg PUBLIC "-//W3C//DTD SVG 1.1//EN" "http://www.w3.org/Graphics/SVG/1.1/DTD/svg11.dtd">
<svg version="1.1" xmlns="http://www.w3.org/2000/svg" xmlns:xlink="http://www.w3.org/1999/xlink" x="0px" y="0px" viewBox="0 0 256 256" enable-background="new 0 0 256 256" xml:space="preserve">
<metadata> Svg Vector Icons : http://www.onlinewebfonts.com/icon </metadata>
<g><g><g><path fill="#000000" d="M38.8,17.2l-1.2,1.2l0.1,11L38,40.2l1.5,3.1c2,4.3,5.5,7.8,9.8,9.9l3.5,1.7l8.2,0.1l8.2,0.2V79v23.7l-5.9-0.1l-5.9-0.1l0.2-5.9c0.2-6.7-0.2-8.3-2.4-9.4c-1.8-0.9-3.8-0.5-5,1.1c-0.7,0.9-0.9,1.9-0.9,3.9v2.7l-4.6-0.1c-4.3-0.1-4.7,0-5.8,1l-1.2,1.1V120v23.2l1.2,1.1c1,1.1,1.4,1.2,5.8,1.2h4.6v2.6c0,3,0.5,4.1,2.3,5c1.2,0.6,1.7,0.6,3,0.2c2.5-0.8,3-2.6,2.9-9.6l-0.2-5.8l33.3-0.1l33.3-0.1l0.1,50l0.1,50l1.3,1.1l1.3,1.1H185h58.3l1.3-1.3l1.3-1.3v-67.7c0-66,0-67.8-0.9-71.2c-2.6-10.3-10-18.3-20.3-22l-3-1.1l-35.2-0.1c-31.1-0.1-35.7,0-38.6,0.6c-11.4,2.5-21,12.3-23.3,23.9l-0.6,2.8h-7.8h-7.8l-0.1-24l-0.1-24l31.2-8.6c17.2-4.7,32.3-9.2,33.6-9.8c4.7-2.3,7-7.2,5.6-12.3c-0.7-2.4-4.6-6.4-7.1-7.1c-1.5-0.4-17.2-0.6-66.7-0.6H40L38.8,17.2z M170.6,24.6c0.8,0.8,1,2.8,0.4,3.8c-0.2,0.3-15.3,4.7-33.5,9.8l-33.1,9.2l-25.6-0.1l-25.6-0.1l-2.3-1.4c-1.4-0.9-2.8-2.3-3.6-3.6c-1.4-2.3-1.4-2.3-1.5-10.3l-0.1-8h62.2C163.7,23.9,170,24,170.6,24.6z M100.4,81c0,15.3,0.2,26.3,0.5,27c0.9,2.3,2.3,2.6,13.1,2.6h9.9v9.7v9.7H90.7H57.5v-9.6v-9.7l8.6-0.1l8.6-0.1l1.1-1.3l1.1-1.3V81.4V55.2h11.7h11.8V81z M221.7,83.5c8.1,2.1,13.9,8,15.8,15.9c0.5,2,0.7,5.4,0.7,10.9v8h-10.6h-10.6l-1.1,1.2l-1.2,1.1v40.8v40.8l1.2,1.1l1.1,1.2h10.6h10.6v13.8v13.8h-53h-53l0.1-66.7l0.1-66.7l1.7-3.5c2-4.2,4.6-7.1,8.1-9.2c5.3-3.2,4.8-3.2,42.8-3.2C213.8,82.8,219.5,82.9,221.7,83.5z M49.3,120.2v17.5h-1.8h-1.8v-17.5v-17.5h1.8h1.8V120.2z M238.2,161.4v35.2h-7.8h-7.8v-35.2v-35.2h7.8h7.8V161.4z"/><path fill="#000000" d="M152,154.1c-7,1.8-12,8.2-12,15.2c0,7.1,5.1,13.4,12.3,15.2c6.9,1.8,14.2-2.2,17.6-9.4c3.4-7.2-0.2-16.2-7.9-19.9C158.5,153.5,155.3,153.2,152,154.1z M159.8,162.6c2.4,1.2,3.5,3.3,3.5,6.7c0,5.1-2.7,7.7-7.6,7.7c-3.1,0-5.3-1-6.8-3.4c-1.4-2-1.5-6.5-0.1-8.6C150.9,161.5,155.6,160.4,159.8,162.6z"/><path fill="#000000" d="M151.5,189.5c-4.7,1.5-9.3,5.9-10.8,10.3c-0.4,1.2-0.7,3.5-0.7,5.1c0,3.9,1.8,7.7,5,10.7c3.7,3.5,5.6,4.2,10.4,4.2c5,0,7.5-1,11-4.5c3.3-3.3,4.7-6.6,4.7-11s-1.2-7-4.3-10.3C162.6,189.7,156.5,187.9,151.5,189.5z M160,197.9c2.2,1.3,3.3,3.6,3.3,6.9c0,3.2-0.8,4.7-3.5,6.5c-3,2.1-8.6,1.1-10.7-1.8c-1-1.3-1.6-5.4-1.1-7.5c0.4-1.7,2.9-4.3,4.6-4.9C154.6,196.5,158.3,196.9,160,197.9z"/><path fill="#000000" d="M11.4,182.4l-1.4,1.4l0.2,12.6c0.2,11.2,0.3,12.9,1.2,15.9c3.9,13,14,22.9,27.2,26.7c2.7,0.7,5,0.8,22.6,0.8c17.6,0,19.9-0.1,22.5-0.8c14.9-4.2,25.8-16.3,28.2-31.2c0.2-1.7,0.5-7.7,0.5-13.5v-10.6l-1.3-1.3l-1.3-1.3H61.2H12.8L11.4,182.4z M104.5,196.7c0,11.5-1.2,16.5-4.9,22.3c-3.4,5.3-8.5,9.1-15.2,11.5l-3.7,1.3H61.2H41.7l-3.8-1.3c-4.2-1.4-9.8-4.9-12.2-7.6c-2.7-3.1-5-7.1-6.3-10.9c-1.2-3.5-1.2-4.5-1.4-13.5l-0.2-9.8h43.4h43.4L104.5,196.7L104.5,196.7z"/></g></g></g>
</svg>