<?xml version="1.0" encoding="UTF-8"?>
<svg id="Ebene_1"
    xmlns="http://www.w3.org/2000/svg" viewBox="0 0 15.76 15.76">
    <path fill="#3139f9" d="m7.89,0C3.53,0,0,3.53,0,7.88s3.53,7.88,7.89,7.88,7.88-3.54,7.88-7.88S12.23,0,7.89,0Zm-.06,12.91h0c-3.49-1.47-5.14-5.53-3.7-9.08,3.49,1.47,5.15,5.53,3.7,9.08,1.32-1.35,1.98-3.12,1.98-4.89,0-.91-.17-1.82-.52-2.67.62-.63,1.38-1.16,2.24-1.52,1.45,3.55-.21,7.61-3.7,9.08Z"/>
    <path fill="#fab7fc" d="m7.83,12.91c1.32-1.35,1.98-3.12,1.98-4.89,0-.91-.17-1.82-.52-2.67.62-.63,1.38-1.16,2.24-1.52,1.45,3.55-.21,7.61-3.7,9.08Z"/>
    <path fill="#fab7fc" d="m7.83,12.91h0c-3.49-1.47-5.14-5.53-3.7-9.08,3.49,1.47,5.15,5.53,3.7,9.08Z"/>
</svg>