<?xml version="1.0" encoding="utf-8"?>
<!-- Svg Vector Icons : http://www.onlinewebfonts.com/icon -->
<!DOCTYPE svg PUBLIC "-//W3C//DTD SVG 1.1//EN" "http://www.w3.org/Graphics/SVG/1.1/DTD/svg11.dtd">
<svg version="1.1" xmlns="http://www.w3.org/2000/svg" xmlns:xlink="http://www.w3.org/1999/xlink" x="0px" y="0px" viewBox="0 0 256 256" enable-background="new 0 0 256 256" xml:space="preserve">
<metadata> Svg Vector Icons : http://www.onlinewebfonts.com/icon </metadata>
<g> <path fill="#77442a" d="M11,137l7.4,6.5c2.2,1.9,3.6,4.5,4.1,7.3c5.8,32.4,34.1,56.9,68.1,56.9h53.4c38.2,0,69.2-31,69.2-69.2 v-13.1c0-38.2-31-69.2-69.2-69.2H90.6c-35.9,0-65.5,27.4-68.9,62.4c-0.3,3.1-1.8,5.9-4.1,8l-6.6,6C9.7,133.8,9.7,135.9,11,137z"/> <path fill="#64331d" d="M213.1,146.5H21.3L11,137c-1.3-1.1-1.4-3.2,0-4.3l9.8-9.5h192.3V146.5z"/> <path fill="#84492f" d="M176.5,223.2H164c-38.4,0-69.5-31.1-69.5-69.5v-13.2c0-48.1,47.9-89.1,64.2-101.6c3.3-2.6,7.4-6,11.6-6 c4.2,0,8.2,3.4,11.6,6C198.1,51.4,246,92.3,246,140.4v13.2C246,192,214.9,223.2,176.5,223.2z"/> <path fill="#64331d" d="M164.9,209.7c-26.4,0-47.9-21.4-47.9-47.9v-13.2c0-28.3,24.5-58.6,49.5-79.4c2.7-2.2,6.6-2.2,9.3,0 c24.9,20.8,49.5,51.2,49.5,79.4v13.2c0,26.4-21.4,47.9-47.9,47.9H164.9z"/> <path fill="#9b6644" d="M215.9,151.4c1.7-2,2.7-4.5,2.7-7.3c0-3.6-1.7-6.8-4.4-8.9c0.5-1.2,0.7-2.6,0.7-3.9c0-5-3.2-9.2-7.7-10.6 c0-0.2,0-0.5,0-0.7c0-6.2-5-11.2-11.2-11.2c-0.4,0-0.8,0-1.1,0.1c-1.9-3.5-5.6-5.9-9.9-5.9c-5.9,0-10.7,4.5-11.1,10.3h0v76.2h0.1 c-0.1,0.4-0.1,0.8-0.1,1.3c0,5.4,5.3,9.7,11.9,9.7h0.7c1.9,0,3.8-0.5,5.4-1.4c3.4-1.7,5.7-4.7,5.8-8.1c1.7,1.1,3.8,1.8,6.1,1.8 c6.2,0,11.2-5,11.2-11.2c0-1.5-0.3-2.9-0.8-4.1c1.6-2,2.6-4.5,2.6-7.2c0-1.5-0.3-2.9-0.8-4.1c1.6-2,2.6-4.5,2.6-7.2 C218.7,155.9,217.6,153.4,215.9,151.4z"/> <path fill="#9b6644" d="M126.3,151.4c-1.7-2-2.7-4.5-2.7-7.3c0-3.6,1.7-6.8,4.4-8.9c-0.5-1.2-0.7-2.6-0.7-3.9c0-5,3.2-9.2,7.7-10.6 c0-0.2,0-0.5,0-0.7c0-6.2,5-11.2,11.2-11.2c0.4,0,0.8,0,1.1,0.1c1.9-3.5,5.6-5.9,9.8-5.9c5.9,0,10.7,4.5,11.1,10.3h0v76.2h-0.1 c0.1,0.4,0.1,0.8,0.1,1.3c0,5.4-5.3,9.7-11.9,9.7h-0.7c-1.9,0-3.8-0.5-5.4-1.4c-3.4-1.7-5.7-4.7-5.8-8.1c-1.7,1.1-3.8,1.8-6.1,1.8 c-6.2,0-11.2-5-11.2-11.2c0-1.5,0.3-2.9,0.8-4.1c-1.6-2-2.6-4.5-2.6-7.2c0-1.5,0.3-2.9,0.8-4.1c-1.6-2-2.6-4.5-2.6-7.2 C123.6,155.9,124.6,153.4,126.3,151.4z"/></g>
</svg>