<?xml version="1.0" encoding="UTF-8" standalone="no"?><!-- Generator: Gravit.io --><svg xmlns="http://www.w3.org/2000/svg" xmlns:xlink="http://www.w3.org/1999/xlink" style="isolation:isolate" viewBox="507.687 573.113 327.497 299.91" width="327.497pt" height="299.91pt"><g><g><path d=" M 784.798 617.854 C 785.931 617.647 786.184 618.803 786.894 619.254 C 787.535 619.661 788.013 620.336 788.531 620.921 C 791.212 623.986 793.69 627.279 796.604 630.048 C 802.713 636.871 807.429 644.707 812.709 651.991 C 813.882 653.397 814.463 655.507 815.799 656.916 C 816.42 657.397 816.429 658.675 817.052 659.142 C 818.028 659.873 817.544 661.335 818.769 661.889 C 822.465 668.265 825.971 675.071 829.861 681.257 C 831.416 686.791 836.608 687.301 834.811 694.329 C 833.117 701.171 825.96 704.998 821.948 710.501 C 814.266 719.971 806.424 729.664 796.428 736.557 C 791.426 739.307 786.974 742.956 781.528 744.811 C 780.93 744.929 780.22 744.755 779.969 745.603 C 779.331 746.096 777.968 745.374 777.707 746.582 C 776.234 747.105 774.575 747.345 773.054 747.811 C 771.312 748.969 769.334 748.535 767.51 749.564 C 764.769 750.284 761.371 749.26 759.66 752.47 C 750.333 760.363 756.469 759.994 752.336 763.851 C 745.726 770.857 741.129 780.766 740.824 790.636 C 738.904 799.493 740.131 809.197 741.736 818.039 C 742.182 820.134 741.409 822.329 742.711 824.295 C 743.419 826.034 742.345 828.507 743.78 830.151 C 744.265 831.772 743.792 833.754 744.644 835.448 C 745.201 837.435 744.834 839.797 745.883 841.756 C 745.738 843.84 746.278 845.731 746.881 847.686 C 747.117 849.299 746.751 850.944 747.677 852.541 C 748.464 859.253 750.015 865.918 751.049 872.73 L 743.758 872.73 C 742.498 865.757 741.761 858.614 740.025 851.946 C 739.654 850.181 740.661 847.951 739.174 846.603 C 738.834 842.342 738.388 837.771 737.748 833.591 C 735.775 817.942 732.934 801.839 736.791 786.413 C 737.354 783.449 737.803 780.493 738.941 777.707 C 739.116 777.001 738.693 776.03 739.823 775.754 C 739.57 774.402 740.548 773.458 741.085 772.407 C 742.407 769.142 745.406 766.167 747.271 763.131 C 750.246 760.88 749.063 756.845 748.793 753.762 C 746.771 743.737 747.839 733.28 748.193 723.138 C 752.521 732.644 749.882 744.519 752.318 754.606 C 754.125 752.378 757.447 750.53 756.583 747.243 C 755.652 742.816 755.223 738.353 753.947 733.892 C 753.028 728.671 751.119 724.29 749.216 719.475 C 748.421 718.388 748.579 716.615 747.803 715.501 C 746.771 714.019 747.558 712.029 746.146 710.761 C 745.767 706.156 746.146 701.323 746.03 696.652 C 747.027 695.316 746.782 693.673 747.156 692.184 C 748.117 690.999 748.352 689.168 746.317 688.862 C 742.409 688.061 738.943 686.789 735.137 686.065 C 734.879 685.997 734.468 685.897 734.345 686.024 C 733.224 687.182 731.761 686.5 730.494 686.81 C 728.432 687.631 725.975 687.773 724.605 689.65 C 720.213 692.302 715.642 692.037 710.731 691.927 C 706.433 691.457 707.319 700.261 706.915 703.215 C 706.49 707.446 706.175 711.896 705.252 716.089 C 703.667 726.495 699.58 737.004 691.64 744.381 C 690.998 745.037 689.795 745.209 689.288 745.917 C 688.35 747.229 686.555 747.207 685.684 748.611 C 684.119 750.135 681.354 750.147 679.325 750.865 C 677.885 751.751 676.314 751.847 674.668 751.899 C 668.275 753.814 661.145 752.312 654.476 752.721 C 652.602 751.639 650.603 752.263 648.746 751.014 C 647.369 749.898 644.55 750.171 643.265 748.738 C 642.32 747.514 640.567 747.517 639.753 746.018 C 639.243 745.079 637.779 744.683 637.182 743.759 C 632.56 738.478 630.395 731.5 628.985 724.705 C 626.649 714.545 626.859 704.057 627.005 693.695 C 626.984 692.894 626.714 692.658 625.958 692.669 C 622.679 692.763 619.493 692.861 616.366 691.905 C 615.46 691.685 614.472 692.223 613.628 691.112 C 608.174 687.698 600.706 686.137 594.786 689.581 C 592.393 690.111 589.835 689.921 591.675 693.09 C 592.092 696.813 591.743 700.69 591.819 704.46 C 591.322 705.74 591.016 707.114 590.923 708.521 C 590.841 709.066 591.08 709.773 590.234 709.981 C 589.816 712.451 588.474 714.774 587.949 717.402 C 584.396 724.238 583.26 731.792 581.221 739.064 C 579.88 744.598 579.929 750.613 579.839 756.387 C 586.148 767.817 586.859 753.397 588.27 748.225 C 588.946 746.656 588.541 744.626 589.833 743.467 C 589.462 741.653 590.91 740.293 591.022 738.568 C 591.242 737.449 591.525 735.545 592.494 734.892 C 592.677 734.958 592.945 735.19 592.934 735.333 C 593.256 737.737 592.463 739.192 591.991 741.436 C 592.223 744.734 591.025 747.784 590.939 751.053 C 591.19 752.586 589.825 753.395 589.972 755.054 C 589.775 756.108 590.242 757.213 589.197 758.227 C 588.686 758.723 589 760.062 588.925 761.018 C 588.894 762.716 587.604 763.944 588.309 765.913 C 588.514 767.09 589.172 768.282 589.842 769.227 C 589.556 770.659 590.484 771.767 591.087 772.818 C 591.669 773.833 591.545 775.227 592.7 775.918 C 595.75 783.141 599.505 790.186 600.981 798.072 C 601.093 798.777 600.804 799.604 601.718 800.053 C 602.153 801.243 601.791 802.997 602.003 804.308 C 602.077 805.251 601.717 806.321 602.752 807.043 C 602.924 807.163 602.873 807.646 602.873 807.962 C 602.461 815.268 603.84 822.926 602.038 829.979 C 601.559 832.566 602.842 835.865 601.185 837.978 C 601.032 838.068 601.056 838.497 601.045 838.772 C 601.327 842.684 599.933 846.152 599.93 850.074 C 598.64 857.102 597.757 864.369 596.897 871.458 C 596.14 874.384 591.476 872.182 589.104 872.829 C 589.079 871.929 588.786 871.186 589.7 870.69 C 590.177 869.422 589.815 867.93 590 866.568 C 590.036 865.85 589.8 865.039 590.684 864.57 C 590.935 862.096 591.21 859.631 591.837 857.168 C 592.143 855.248 591.559 853.233 592.731 851.376 C 593.019 848.052 593.909 844.796 594.067 841.339 C 595.396 838.516 594.119 835.05 595.796 832.608 C 596.492 829.716 595.034 826.084 596.726 823.524 C 596.923 823.37 596.859 822.842 596.86 822.486 C 596.495 815.495 597.865 808.178 596.053 801.43 C 595.658 799.585 596.734 797.098 595.146 795.736 C 594.472 792.6 593.97 789.412 592.405 786.537 C 591.565 785.371 591.816 783.162 590.796 782.39 C 589.798 781.61 590.518 780.106 589.218 779.756 C 587.893 776.268 586.142 772.726 584.866 769.275 C 583.266 767.344 584.844 764.688 582.827 763.153 C 579.968 761.072 577.248 758.903 575.011 756.139 C 573.322 755.509 571.427 756.067 569.661 755.077 C 548.558 750.724 532.217 734.59 520.839 716.606 C 517.42 711.568 514.204 706.22 510.233 701.751 C 507.713 698.539 506.404 692.806 509.47 689.557 C 511.624 686.831 513.954 684.37 515.798 681.34 C 516.211 680.357 516.353 679.026 517.086 678.469 C 518.103 677.696 517.461 676.184 518.695 675.716 C 519.288 674.827 519.433 673.626 519.978 672.683 C 524.442 664.587 529.079 656.969 534.079 649.27 C 540.619 640.101 548.281 631.546 555.148 622.435 C 556.103 619.464 558.322 616.898 560.769 614.838 C 561.68 613.657 563.483 613.644 564.177 612.165 C 564.348 611.801 564.761 611.475 565.14 611.3 C 565.981 610.913 565.709 609.823 566.095 609.524 C 567.51 608.427 566.383 606.494 567.653 605.426 C 567.84 605.269 567.818 604.824 567.833 604.51 C 568.203 602.528 567.193 600.15 568.735 598.551 C 569.279 597.791 568.526 596.183 569.773 595.714 C 570.108 595.084 569.989 593.862 569.934 593.145 C 569.579 591.563 570.909 590.54 571.195 589.158 C 571.306 588.622 572.473 588.385 572.917 587.821 C 574.028 586.407 575.905 587.054 577.183 586.09 C 577.5 585.851 578.195 586.012 578.684 586.127 C 579.879 586.699 581.272 586.544 582.181 587.614 C 582.573 588.287 584.494 587.928 585.028 587.218 C 591.847 582.261 602.589 591.896 605.966 597.597 C 606.8 602.346 604.904 604.592 603.002 608.565 C 602.985 611.414 601.802 614.379 599.246 615.871 C 596.188 618.496 592.48 620.145 588.841 621.736 C 587.794 621.864 586.67 621.644 585.852 622.628 C 584.879 623.111 583.373 622.401 582.573 623.575 C 578.635 623.993 576.211 627.993 574.815 631.426 C 572.124 635.279 569.854 639.525 567.82 643.737 C 565.883 647.075 565.073 650.92 563.171 654.317 C 562.044 657.575 561.558 661.027 560.233 664.092 C 559.478 664.915 560.657 667.349 559.259 667.98 C 558.657 669.204 559.368 671.05 558.166 672.202 C 557.778 673.387 558.327 675.006 557.278 676.149 C 556.587 677.53 557.442 679.714 556.226 681.127 C 555.079 684.819 557.528 683.582 560.067 683.223 C 566.072 682.389 572.726 683.224 578.427 684.997 C 580.792 685.988 582.855 686.1 584.871 687.728 C 586.674 688.655 587.981 687.534 589.584 686.84 C 590.111 686.691 590.842 686.93 591.001 686.071 C 594.186 684.724 597.774 683.591 601.314 683.105 C 602.567 683.011 603.928 682.511 605.089 683.525 C 607.131 683.725 609.19 684.099 611.037 685.01 C 613.255 685.348 614.357 687.738 616.789 687.87 C 626.205 687.447 637.745 689.892 643.939 681.145 C 644.698 672.239 642.001 675.135 638.139 667.745 C 636.971 665.095 637.83 659.475 634.6 658.633 C 630.406 654.974 632.212 655.903 626.509 655.727 C 624.293 655.114 622.264 654.057 620.795 652.323 C 619.717 651.546 620.467 650.051 619.182 649.536 C 618.937 649.438 619.082 648.485 618.956 647.947 C 618.724 642.923 613.665 639.925 614.028 634.838 C 614.051 634.275 614.677 633.691 614.825 633.179 C 614.723 630.958 616.352 629.355 617.725 627.865 C 620.016 625.948 617.931 626.699 618.032 624.524 C 615.03 613.901 621.991 603.334 631.121 598.172 C 632.586 596.883 631.579 595.33 632.703 593.901 C 633.685 590.234 634.908 586.393 637.694 583.694 C 641.324 579.05 650.623 571.081 656.27 575.568 C 656.637 575.948 659.036 575.378 659.745 574.848 C 669.367 571.804 680.886 572.624 689.265 578.43 C 698.528 583.666 705.617 592.525 709.68 602.112 C 710.603 604.231 709.04 607.329 710.756 609.074 C 711.363 614.694 717.054 618.936 715.913 625.172 C 715.955 625.829 715.54 626.772 716.702 626.976 C 716.986 628.406 718.196 629.707 717.917 631.361 C 718.139 635.583 715.025 638.767 712.747 642.136 C 711.822 644.496 712.129 646.984 710.802 649.185 C 709.927 650.525 705.141 649.109 706.611 652.107 C 707.025 654.518 706.118 657.27 704.439 658.96 C 703.31 660.518 700.781 659.473 700.787 662.074 C 700.777 673.793 693.017 674.065 693.876 678.848 C 692.014 692.552 710.424 686.468 718.675 687.76 C 719.92 687.764 720.666 686.795 721.298 685.955 C 723.168 685.843 724.213 684.139 725.983 683.595 C 729.885 682.918 733.471 680.972 737.338 682.029 C 741.884 682.302 745.477 684.283 749.582 685.925 C 753.626 688.456 752.342 689.863 757.411 687.151 C 767.467 683.785 778.348 679.689 789.044 682.547 C 789.522 682.658 790.208 682.76 790.506 682.512 C 790.787 682.278 790.917 681.32 790.707 681.131 C 789.738 680.258 790.056 679.147 789.938 678.121 C 789.404 675.295 788.951 672.37 788.021 669.599 C 787.819 668.443 788.272 667.177 787.195 666.155 C 786.866 665.843 787.099 664.993 786.96 664.417 C 786.229 662.122 785.981 659.781 784.981 657.604 C 784.82 656.919 785.096 656.035 784.119 655.718 C 783.586 654.43 783.591 652.804 782.833 651.646 C 781.236 647.958 778.985 644.372 776.893 640.894 C 776.035 639.737 774.741 638.727 774.36 637.439 C 773.85 635.714 772 635.003 771.722 633.18 C 771.64 632.474 770.269 632.09 770.055 631.293 C 769.115 628.683 766.3 627.336 764.737 625.06 C 763.244 624.793 762.181 623.883 760.984 623.07 C 758.525 622.825 756.152 622.439 753.811 621.568 C 753.143 621.488 752.07 621.009 751.793 620.005 C 749.786 618.72 747.514 619.292 745.576 618.045 C 740.864 617.837 736.292 614.385 735.689 609.507 C 735.491 608.606 735.479 607.166 734.176 606.626 C 733.94 606.178 733.8 605.302 733.315 604.882 C 732.457 602.336 730.945 598.862 733.679 596.646 C 735.37 594.422 737.677 592.524 739.89 590.814 C 740.699 588.016 741.952 584.701 745.035 583.884 C 747.596 583.515 749.849 584.091 752.022 585.497 C 754.298 586.095 756.796 585.486 759.113 585.849 C 763.092 586.698 765.624 589.921 767.136 593.508 C 769.008 596.114 770.853 598.631 772.135 601.419 C 772.156 601.608 772.693 601.691 772.847 601.92 C 774.744 605.723 777.788 608.174 781.127 610.605 C 781.811 611.581 782.508 612.578 783.209 613.488 C 783.922 614.413 783.521 615.802 784.733 616.408 C 784.96 616.521 784.814 617.379 784.841 617.894 C 783.548 617.894 783.731 616.552 783.104 615.928 C 780.273 610.968 773.991 609.24 771.634 603.804 C 766.612 598.761 763.149 584.613 753.634 588.518 C 751.511 589.527 750.01 586.104 747.631 586.769 C 745.94 586.603 743.564 587.479 743.032 589.237 C 742.86 594.629 730.849 597.428 736.539 603.127 C 738.439 604.24 738.582 605.244 740.939 604.793 C 741.135 603.896 740.335 599.121 741.81 600.301 C 742.901 601.931 742.003 606.472 744.692 605.756 C 745.073 605.207 745.388 604.752 745.709 604.29 C 744.679 603.233 744.561 601.048 745.435 599.993 C 747.331 603.294 747.871 609.088 753.101 607.739 C 752.12 600.233 749.98 601.47 756.625 595.837 C 757.968 597.534 756.206 599.164 755.221 600.327 C 755.617 600.803 755.995 601.258 756.452 601.807 C 758.885 602.002 759.205 598.711 760.431 597.131 C 762.897 599.981 757.737 602.094 759.96 604.627 C 757.843 605.092 756.943 603.727 755.297 602.823 C 753.231 606.971 757.538 611.361 761.815 610.777 C 762.106 609.637 763.309 608.957 762.37 607.808 C 762.141 607.242 761.688 606.068 762.721 605.998 C 762.933 606.899 764.184 607.178 764.001 608.388 C 763.863 610.305 764.132 612.14 763.04 613.85 C 759.016 614.593 760.128 615.491 756.239 613.448 C 753.901 610.512 749.278 613.369 747.275 609.843 C 746.731 609.152 746.315 608.658 745.661 609.691 C 742.869 610.649 740.455 608.871 738.157 607.874 C 737.541 614.223 745.25 613.635 749.222 615.773 C 749.896 615.921 750.586 615.762 751.018 616.629 C 753.301 618.664 757.273 618.526 760.239 618.747 C 762.189 619.246 764.581 618.036 763.828 615.862 C 762.596 615.485 763.107 614.56 763.009 613.818 C 763.247 613.842 763.665 613.808 763.695 613.899 C 763.995 614.83 764.855 614.763 765.54 615.006 C 766.597 616.095 767.643 617.04 769.295 616.98 C 771.68 618.423 771.881 617.14 772.312 614.944 C 772.503 614.965 772.694 614.986 772.885 615.007 C 772.751 619.157 772.641 621.437 776.392 623.9 C 779.081 626.342 780.946 629.671 782.69 632.826 C 783.255 633.698 784.367 634.55 783.896 635.892 L 783.924 635.865 C 782.867 636.392 783.078 635.3 782.722 634.927 C 781.976 634.145 780.983 633.54 780.899 632.293 C 777.271 627.615 773.06 622.159 766.967 620.972 C 767.102 621.649 767.029 622.503 767.42 622.964 C 771.745 626.736 775.903 631.057 779.251 635.737 C 784.569 642.072 789.478 650.275 793.886 657.602 C 795.272 661.643 798.202 664.573 799.242 668.684 C 800.556 668.966 799.639 670.659 800.218 671.335 C 801.327 672.17 801.387 673.985 800.46 674.774 C 798.727 671.977 796.052 663.777 793.195 663.024 C 794.187 668.038 796.883 672.941 798.3 678.102 C 800.203 683.357 801.769 689.352 805.794 693.461 C 805.328 693.811 804.87 694.155 804.412 694.498 C 803.179 693.14 800.899 693.255 799.264 692.631 C 798.087 690.878 798.376 692.856 797.286 692.628 C 793.239 686.597 795.197 688.368 788.155 686.697 C 784.996 685.19 777.898 685.529 774.591 686.747 C 766.491 688.14 758.412 690.986 751.103 694.343 C 747.339 705.528 752.465 715.963 755.959 726.287 C 756.556 727.942 756.698 729.788 757.214 731.452 C 758.66 732.241 757.484 734.484 758.302 735.454 C 759.043 735.975 758.865 736.608 758.939 737.236 C 759.131 740.27 760.222 742.736 760.03 745.911 C 766.015 744.297 772.077 743.681 777.725 740.901 C 785.38 737.555 792.759 732.927 799.281 727.701 C 809.833 716.976 819.175 705.117 830.362 695.009 C 832.246 693.699 832.047 691.426 831.941 689.37 C 832.235 687.743 831.186 686.747 830.122 685.489 C 828.459 681.945 826.874 677.974 824.732 674.856 C 823.923 674.556 824.147 673.943 823.925 673.449 C 823.717 672.987 823.278 672.635 823.03 672.186 C 819.828 666.335 816.361 660.576 812.757 655.025 C 809.776 651.639 807.125 647.833 804.742 643.993 C 803.272 642.937 802.841 641.172 801.671 639.9 C 800.884 639.139 799.943 638.52 799.855 637.28 C 795.326 630.547 788.632 624.819 784.806 617.855 L 784.798 617.854 Z  M 642.099 624.804 C 640.153 625.539 640.761 628.927 639.649 630.562 C 638.636 631.414 637.92 632.324 637.743 633.687 C 636.428 634.119 637.065 635.139 637.043 635.957 C 635.895 635.663 635.516 636.696 634.879 637.247 C 631.137 641.581 625.498 643.095 619.854 642.762 C 619.991 643.539 619.921 644.525 620.238 644.671 C 621.468 645.244 620.625 646.89 621.179 647.627 C 623.271 652.668 628.691 653.416 631.569 648.512 C 630.783 647.274 631.014 646.404 632.15 645.776 C 635.38 643.409 636.544 639.775 637.013 635.928 C 641.579 638.426 640.679 644.508 638.996 648.584 C 639.052 651.875 638.74 655.39 639.121 658.605 C 640.36 659.669 639.614 661.246 640.049 662.535 C 641.649 664.931 641.825 667.948 643.871 670.028 C 644.981 671.606 651.418 678.072 653.063 676.409 C 652.869 675.647 650.987 672.826 652.98 674.273 C 655.775 676.137 657.942 678.731 660.936 680.156 C 666.117 681.557 672.531 680.743 677.972 680.507 C 678.539 680.202 679.285 679.733 679.869 679.712 C 680.175 678.391 681.837 679.039 682.376 677.919 C 684.114 676.541 685.713 674.712 687.148 672.933 C 687.264 672.803 687.656 672.918 687.92 672.92 L 687.891 672.889 C 687.919 673.48 687.947 674.071 687.984 674.864 C 690.296 673.759 692.703 673.081 694.156 670.977 C 697.844 668.313 696.374 663.843 697.815 660.089 C 698.747 654.881 700.108 649.191 699.839 643.6 C 699.799 641.914 699.626 640.077 700.539 638.578 C 700.932 637.426 702.245 636.266 701.409 635.041 C 699.512 633.149 700.251 630.379 698.932 628.167 C 696.653 622.862 688.349 619.846 684.152 624.692 C 681.989 625.867 680.703 628.625 678.153 628.85 C 675.834 629.026 674.15 628.565 675.934 626.146 C 677.41 624.754 679.177 624.398 680.798 623.383 C 681.627 622.427 682.555 621.809 683.757 621.373 C 684.624 620.872 685.504 619.934 686.358 619.956 C 690.251 619.159 694.439 620.223 697.036 623.643 C 698.844 623.884 697.497 620.347 697.856 619.083 C 696.624 617.918 695.189 616.875 694 615.643 C 690.017 611.816 687.514 606.731 684.098 602.675 C 679.44 597.591 675.003 596.312 668.991 599.832 C 666.178 599.434 663.741 598.737 660.836 598.554 C 659.97 593.792 663.978 589.747 668.639 589.735 C 669.33 589.003 673.013 588.406 673.686 589.083 C 674.948 590.679 677.135 588.807 678.142 590.687 C 678.383 590.933 679.46 590.718 679.738 590.99 C 681.923 592.511 684.508 593.72 686.367 595.625 C 689.808 597.718 693.546 599.823 696.374 602.636 C 699.297 604.076 701.283 606.67 703.619 608.864 C 704.472 610.143 702.887 609.796 702.529 608.935 C 700.235 608.328 699.357 606.072 697.436 604.95 C 696.683 604.46 695.605 604.199 695.188 603.52 C 694.319 602.105 692.555 602.026 691.646 600.773 C 689.123 599.154 686.795 597.198 684.046 595.856 C 681.618 595.265 679.595 593.146 677.221 593.017 C 673.946 592.954 669.626 591.728 666.962 594.106 C 667.119 595.248 668.771 594.753 669.481 594.455 C 684.737 590.329 690.128 608.558 698.978 617.005 C 700.193 617.921 700.828 619.505 702.507 619.973 C 704.311 621.707 706.329 623.299 708.713 624.242 C 709.682 625.787 712.057 624.558 711.935 622.946 C 711.739 621.12 712.418 619.225 711.058 617.489 C 710.252 616.571 710.348 614.956 709.686 613.913 C 706.969 611.21 707.302 606.633 705.99 603.073 C 704.602 596.926 700.017 592.443 695.901 587.942 C 694.67 586.799 692.973 586.01 692.113 584.663 C 691.451 583.626 689.942 584.229 689.702 582.86 C 682.487 577.55 673.628 576.053 664.76 576.901 C 663.96 576.968 663.257 577.61 662.491 577.776 C 661.792 577.915 660.658 577.639 660.419 578.004 C 659.623 579.222 658.12 578.608 657.195 579.585 C 656.515 580.303 655.231 580.426 654.254 580.892 C 651.408 582.328 648.97 585.185 647.914 588.179 C 646.67 590.273 646.632 592.773 647.622 594.969 C 647.528 596.422 645.867 595.774 645.503 594.868 C 642.684 592.445 644.12 588.164 645.08 585.207 C 646.863 583.065 648.433 580.529 650.844 579.283 C 647.114 577.539 642.813 583.498 640.148 585.838 C 638.213 589.072 635.849 592.988 636.194 596.762 C 638.128 596.317 639.931 595.33 641.941 596.152 C 641.484 597.422 640.072 597.682 639.006 598.001 C 638.113 599.219 636.487 598.852 635.404 599.794 C 634.628 600.469 633.391 600.611 632.363 601.002 C 631.042 602.614 629.148 603.403 627.708 604.773 C 625.944 606.434 624.833 608.36 623.754 610.491 C 620.999 614.515 619.096 622.267 623.198 625.787 C 630.366 625.742 639.874 622.787 641.984 615.065 C 642.235 614.1 642.028 610.178 640.846 612.674 C 637.761 614.735 634.712 617.915 630.99 618.7 C 633.141 614.282 638.899 611.724 641.312 607.104 C 643.411 605.399 644.052 602.825 645.91 600.891 C 647.336 599.289 649.718 596.547 651.938 597.145 C 651.571 599.358 648.176 599.971 647.939 602.36 C 645.159 606.974 643.689 612.271 643.907 617.678 C 643.14 620.124 641.352 622.045 642.057 624.839 L 642.091 624.803 L 642.099 624.804 Z  M 540.943 692.767 C 540.531 689.915 541.799 689.583 543.832 687.713 C 544.623 687.232 545.207 686.272 546.033 686.022 C 547.097 685.7 546.871 684.843 547.232 684.243 C 549.297 680.746 550.633 676.879 552.065 673.127 C 553.32 672.11 552.638 670.429 553.797 669.224 C 555.902 664.187 557.184 657.046 554.497 651.853 C 553.182 654.273 550.998 655.886 549.69 658.344 C 549.123 659.932 547.105 660.471 546.874 662.264 C 546.314 663.305 545.513 664.272 544.88 665.29 C 544.008 667.082 542.325 668.634 541.792 670.521 C 540.671 671.224 540.627 672.578 539.914 673.517 C 538.802 674.554 539.193 672.548 539.405 671.952 C 543.445 662.672 549.161 654.159 554.992 645.694 C 558.642 640.334 561.231 635.307 564.343 629.632 C 564.886 628.564 565.666 627.529 565.864 626.395 C 566.655 622.973 572.065 622.763 565.938 620.406 C 565.999 620.069 566.095 619.538 566.191 619.007 C 567.734 619.941 570.597 620.624 572.157 619.023 C 575.106 618.814 576.763 615.299 578.666 613.596 C 578.136 611.31 576.962 609.77 576.09 607.72 C 575.808 606.948 576.188 605.981 575.317 605.334 C 575.125 605.191 575.246 604.626 575.205 603.949 C 576.077 604.622 576.689 605.094 577.301 605.566 C 577.253 605.661 577.205 605.755 577.156 605.85 L 579.023 605.85 L 579.023 601.87 C 580.762 601.587 583.166 602.129 582.843 604.25 C 581.869 605.12 581.533 606.825 580.652 607.609 C 579.533 608.343 579.968 608.746 580.661 609.229 C 583.192 610.803 585.781 609.04 587.945 607.496 C 588.836 603.798 586.689 601.549 584.088 599.096 C 586.158 598.436 587.496 600.65 588.778 601.877 C 590.413 603.463 589.863 605.551 589.962 607.738 C 591.245 607.702 592.317 608.457 593.326 606.988 C 594.495 605.744 595.76 604.642 596.356 602.935 C 597.355 602.461 596.994 601.481 596.595 601.172 C 595.559 599.962 595.983 598.592 595.405 597.088 C 595.668 597.042 596.186 596.95 596.865 596.831 C 598.292 600.032 597.707 602.684 598.284 606.02 C 600.696 603.851 605.201 600.512 602.066 597.464 C 602.348 596.336 601.395 595.612 600.825 595.171 C 599.057 593.223 596.883 591.914 594.944 590.129 C 592.529 588.135 588.221 588.129 585.882 590.195 C 583.621 592.173 582.079 589.651 580.308 588.955 C 574.76 587.903 571.92 590.962 571.646 596.406 C 569.405 600.897 569.39 606.03 568.134 610.963 C 567.268 613.898 564.947 615.333 562.527 616.574 C 559.038 619.021 556.702 622.614 554.852 626.379 C 543.961 640.787 531.786 654.849 523.818 671.415 C 521.7 673.282 521.135 676.202 519.682 678.506 C 518.967 679.426 517.943 680.115 517.884 681.433 C 516.693 682.745 515.619 684.231 514.632 685.701 C 511.977 688.058 509.609 691.807 511.728 695.408 C 513.955 698.263 516.264 701.629 518.151 704.64 C 529.937 719.729 540.225 738.767 559.31 745.945 C 561.627 747.725 564.604 748.297 567.484 749.014 C 568.158 749.698 568.871 749.94 569.809 749.867 C 570.441 749.936 571.302 749.771 571.663 750.121 C 572.688 751.137 575.453 751.259 575.976 750.213 C 576.382 740.343 578.59 730.611 581.985 721.353 C 584.243 712.932 590.432 703.871 587.159 694.921 C 587.107 691.351 581.346 690.496 578.608 689.722 C 577.247 688.592 575.623 688.932 574.024 688.571 C 565.731 686.815 556.931 687.352 548.76 689.658 C 545.649 690.11 543.987 693.138 540.942 692.768 L 540.943 692.767 Z  M 630.359 693.191 C 631.693 704.725 629.839 716.171 633.752 727.329 C 635.126 732.599 637.229 737.885 641.129 742.044 C 644.446 744.559 648.389 747.841 652.755 747.912 C 656.329 749.65 660.57 748.646 664.507 748.893 C 669.885 748.901 675.97 748.759 680.426 745.937 C 688.546 744.156 694.219 736.572 697.197 729.26 C 698.436 728.492 697.717 726.977 698.755 726.062 C 699.772 724.184 699.927 721.45 700.731 719.191 C 702.457 713.198 702.666 706.553 703.182 700.4 C 704.318 699.47 703.786 698.196 703.956 697.071 C 704.02 696.647 703.951 696.014 704.198 695.841 C 705.289 695.075 704.916 693.974 704.956 692.998 C 704.883 691.135 701.758 692.008 700.503 691.884 C 689.005 689.053 697.058 685.424 687.263 695.919 C 686.515 692.681 689.115 689.254 689.838 686.083 C 690.186 684.702 689.973 683.199 690.82 681.903 C 691.167 680.707 689.739 680.566 689.139 681.106 C 686.036 686.125 682.263 691.203 679.846 696.346 C 678.502 697.676 679.447 694.426 679.875 694.041 C 679.502 692.482 680.618 691.234 681.21 690.195 C 681.999 688.81 681.555 687.074 682.827 685.925 C 683.249 685.544 683.32 684.774 683.586 684.098 C 681.327 682.981 681.757 686.307 680.095 686.97 C 678.751 687.953 678.707 690.591 677.64 691.818 C 676.148 693.554 675.539 695.763 674.672 697.755 C 673.54 697.82 674.173 699.134 673.842 699.681 C 672.346 700.446 673.359 702.32 672.142 703.337 C 670.827 705.35 670.615 708.409 669.768 710.755 L 668.059 710.755 C 667.797 703.226 669.362 696.227 669.096 688.667 C 669.223 687.374 667.995 687.772 667.163 687.729 C 664.855 687.76 664.916 687.76 664.924 690.133 C 664.334 696.187 666.314 703.064 663.705 708.615 C 659.265 709.201 661.663 683.68 655.936 684.033 C 655.986 684.89 655.699 686.152 656.159 686.549 C 657.034 687.304 656.812 688.157 657.008 688.987 C 657.078 689.283 657.123 689.653 657.32 689.841 C 658.274 690.748 657.81 691.707 657.563 692.689 C 654.626 689.332 654.244 683.454 650.035 681.655 C 651.109 689.108 655.473 695.895 655.042 703.785 L 653.176 703.785 C 651.594 701.493 651.495 698.674 650.657 696.151 C 649.851 695.861 649.971 695.152 649.963 694.551 C 649.163 691.298 647.733 688.258 646.716 685.018 C 643.303 687.245 640.848 690.213 636.605 690.916 C 636.456 690.964 636.198 690.984 636.175 691.067 C 635.308 692.634 632.718 691.481 631.315 691.807 C 630.883 692.433 630.56 692.902 630.36 693.191 L 630.359 693.191 Z  M 638.934 623.69 C 638.241 624.163 637.862 624.627 637.44 624.67 C 636.219 624.863 635.535 626.229 634.163 625.965 C 633.803 627.139 632.773 626.709 631.991 626.88 C 630.126 627.287 628.33 628.087 626.351 627.853 C 623.87 628.793 621.753 629.967 619.553 631.531 C 617.899 633.389 616.531 635.344 617.903 637.617 C 618.557 640.984 622.834 639.7 625.308 639.69 C 628.025 639.222 630.02 637.203 631.963 635.504 C 633.774 633.007 636.319 630.833 637.202 627.91 C 638.091 627.816 637.88 627.097 638.011 626.569 C 638.065 626.35 638.111 625.976 638.225 625.948 C 639.593 625.623 638.677 624.698 638.932 623.691 L 638.934 623.69 Z  M 710.391 638.827 C 711.903 637.933 713.441 635.27 714.009 633.63 C 713.765 631.351 715.111 627.863 712.231 627.086 C 710.401 627.271 708.331 628.412 706.809 626.604 C 705.446 625.006 703.227 624.726 701.943 623.116 C 701.185 622.426 700.856 623.697 701.214 624.212 C 702.409 625.385 701.68 627.213 702.275 628.481 C 703.367 629.079 702.561 630.672 703.842 631.282 C 705.261 634.062 708.521 636.062 710.393 638.828 L 710.391 638.827 Z  M 599.585 607.733 C 599.198 608.237 599.014 608.684 598.83 608.684 C 597.04 608.684 596.232 610.223 595.213 611.199 C 591.421 614.804 585.586 611.253 581.204 613.828 C 580.533 614.287 580.223 615.283 579.528 615.647 C 578.526 616.204 578.856 617.063 579.021 617.704 C 580.08 619.771 583.084 618.575 584.972 618.79 C 586.661 618.248 587.83 616.63 589.851 616.815 C 591.504 616.835 593.103 615.93 594.641 615.554 C 595.463 614.42 596.797 614.086 597.795 613.353 C 598.804 611.286 600.97 610.206 599.586 607.733 L 599.585 607.733 Z  M 704.522 637.117 C 704.574 637.015 704.625 636.913 704.677 636.811 C 704.185 636.911 703.693 637.01 703.2 637.11 C 704.536 638.711 703.266 640.756 704.814 642.373 C 705.797 643.536 705.606 645.604 707.567 645.899 C 710.509 640.762 707.883 640.547 704.522 637.118 L 704.522 637.117 Z  M 703.954 650.159 C 702.019 647.345 700.721 650.951 700.98 652.831 C 700.867 653.933 702.069 653.98 702.32 654.751 C 704.339 654.454 703.909 651.693 703.953 650.159 L 703.954 650.159 Z  M 634.587 652.592 C 636.074 651.718 636.853 647.587 634.436 647.863 C 633.792 647.89 632.926 647.67 632.902 648.822 C 632.871 650.295 632.692 651.798 634.587 652.592 Z  M 577.746 608.642 C 578.016 609.045 578.225 609.359 578.435 609.673 C 578.787 608.986 579.178 608.433 578.38 607.867 C 578.193 608.095 578.006 608.323 577.745 608.642 L 577.746 608.642 Z " fill="rgb(0,0,0)"/><path d=" M 724.269 822.716 C 723.978 814.859 724.515 807.152 723.841 799.203 C 722.914 796.699 723.005 794.058 721.985 791.58 C 721.812 790.609 722.269 789.46 721.146 788.755 C 721.035 788.685 721.044 788.386 721.038 788.192 C 721.133 785.61 720.106 782.443 722.641 780.738 C 723.687 780.209 726.626 774.825 726.988 777.664 C 727.423 780.755 725.988 784.572 727.761 787.199 C 727.953 787.33 727.892 787.878 727.893 788.233 C 728.488 799.995 727.164 811.317 724.54 822.714 C 724.45 822.714 724.36 822.715 724.269 822.716 L 724.269 822.716 Z " fill="rgb(0,0,0)"/><path d=" M 621.923 825.485 C 622.069 826.051 621.868 826.469 621.495 826.889 C 619.209 823.762 618.518 819.811 616.28 816.615 C 615.607 815.322 615.807 813.168 614.806 812.36 C 613.462 811.265 614.698 809.335 613.111 808.57 C 612.725 807.742 613.373 806.228 612.165 805.708 C 610.923 801.045 609.628 796.189 608.912 791.373 C 607.502 790.554 608.63 788.487 607.116 787.713 C 606.828 785.934 605.768 784.471 604.778 783.054 C 604.348 782.478 603.334 781.478 604.282 780.896 C 607.755 783.621 608.99 788.926 612.638 791.837 C 613.819 792.988 616.004 793.546 615.877 795.513 C 615.719 801.183 616.544 807.074 618.187 812.461 C 618.801 813.679 618.442 815.201 619.135 815.973 C 620.266 817.232 619.262 819.104 620.738 820.11 C 621.253 821.191 620.49 823.022 621.749 823.983 C 622.033 824.2 621.896 824.967 621.952 825.481 C 621.942 825.481 621.932 825.483 621.923 825.484 L 621.923 825.485 Z " fill="rgb(0,0,0)"/><path d=" M 616.106 714.388 C 616.515 709.004 614.92 702.646 617.462 697.841 C 618.791 707.71 617.349 718.855 619.088 729.117 C 620.425 730.664 619.288 732.858 620.137 734.235 C 621.136 735.854 620.239 737.887 621.714 739.205 C 622.193 741.09 622.322 743.175 623.119 744.932 C 623.765 747.071 624.518 749.275 625.794 751.085 C 625.458 752.408 626.688 753.131 627.061 754.19 C 627.405 756.103 629.34 757.232 629.997 759.137 C 628.722 761.779 624.183 752.658 623.096 751.508 C 617.331 740.241 615.448 727.306 615.989 714.389 C 616.028 714.389 616.067 714.389 616.107 714.389 L 616.106 714.388 Z " fill="rgb(0,0,0)"/><path d=" M 706.453 755.857 C 705.439 754.052 706.146 751.162 706.804 749.525 C 707.253 747.127 706.375 744.449 707.727 742.296 C 708.349 740.737 707.571 738.83 708.69 737.279 C 709.434 735.896 708.334 733.874 709.731 732.59 C 710.509 731.695 709.236 729.328 710.62 728.515 C 711.283 727.363 710.474 725.343 711.099 724.195 C 713.414 714.885 713.507 705.475 714.204 696.005 C 714.325 695.998 714.446 695.991 714.567 695.984 C 715.444 698.988 714.504 702.196 715.633 705.186 C 716.093 706.517 716.301 708.208 715.394 709.664 C 714.701 716.429 714.913 723.697 712.716 730.253 C 710.546 738.998 709.645 747.537 706.454 755.856 L 706.453 755.857 Z " fill="rgb(0,0,0)"/><path d=" M 611.237 725.442 C 611.185 722.169 610.401 719.22 609.997 716.013 C 609.914 710.342 610.396 704.257 611.599 698.897 C 612.609 707.4 611.971 716.716 611.783 725.438 C 611.601 725.44 611.419 725.442 611.238 725.443 L 611.237 725.442 Z " fill="rgb(0,0,0)"/><path d=" M 784.798 617.854 C 788.623 624.816 795.318 630.548 799.846 637.28 C 799.936 638.518 800.876 639.138 801.663 639.899 C 802.833 641.174 803.263 642.932 804.734 643.992 C 807.118 647.834 809.766 651.639 812.748 655.024 C 816.353 660.577 819.818 666.333 823.021 672.185 C 823.269 672.635 823.709 672.987 823.916 673.448 C 824.138 673.942 823.914 674.555 824.723 674.855 C 826.865 677.974 828.449 681.942 830.114 685.487 C 831.158 686.747 832.249 687.739 831.933 689.369 C 832.03 691.423 832.247 693.699 830.353 695.006 C 819.167 705.115 809.826 716.975 799.275 727.701 C 792.755 732.923 785.368 737.558 777.717 740.9 C 772.068 743.678 766.009 744.294 760.022 745.91 C 760.214 742.736 759.123 740.271 758.931 737.235 C 758.857 736.607 759.035 735.973 758.294 735.453 C 757.48 734.468 758.653 732.243 757.207 731.451 C 756.691 729.787 756.549 727.942 755.951 726.287 C 752.46 715.966 747.328 705.523 751.098 694.344 C 758.406 690.985 766.484 688.142 774.584 686.748 C 777.946 685.516 784.931 685.202 788.149 686.697 C 795.091 688.353 793.267 686.598 797.279 692.629 C 798.375 692.869 798.065 690.868 799.257 692.632 C 800.898 693.254 803.163 693.143 804.405 694.499 C 804.863 694.156 805.321 693.812 805.787 693.462 C 801.763 689.356 800.196 683.357 798.292 678.104 C 796.876 672.944 794.179 668.039 793.188 663.026 C 796.036 663.767 798.721 671.978 800.453 674.776 C 801.397 674.018 801.303 672.142 800.212 671.337 C 799.626 670.651 800.551 668.97 799.236 668.686 C 798.195 664.572 795.267 661.646 793.88 657.604 C 789.474 650.28 784.563 642.072 779.245 635.739 C 775.897 631.059 771.74 626.739 767.414 622.966 C 767.023 622.505 767.096 621.651 766.961 620.974 C 773.055 622.161 777.265 627.616 780.893 632.294 C 780.976 633.541 781.97 634.146 782.715 634.928 C 783.07 635.301 782.86 636.392 783.916 635.867 C 784.024 636.482 784.132 637.097 784.283 637.949 C 785.094 636.631 784.937 636.145 783.889 635.893 C 784.36 634.552 783.248 633.699 782.683 632.828 C 780.94 629.673 779.074 626.344 776.385 623.902 C 772.642 621.452 772.74 619.141 772.879 615.009 C 772.688 614.988 772.497 614.967 772.306 614.946 C 771.868 617.143 771.683 618.427 769.289 616.981 C 767.637 617.042 766.591 616.097 765.534 615.008 C 764.848 614.765 763.989 614.831 763.689 613.901 C 763.66 613.81 763.241 613.844 763.003 613.82 L 763.035 613.851 C 764.125 612.141 763.858 610.306 763.995 608.389 C 764.178 607.179 762.927 606.9 762.715 605.999 C 761.682 606.069 762.135 607.244 762.364 607.81 C 763.303 608.96 762.1 609.639 761.809 610.779 C 757.53 611.363 753.226 606.973 755.291 602.825 C 756.938 603.729 757.837 605.094 759.954 604.629 C 757.731 602.101 762.891 599.976 760.425 597.133 C 759.199 598.711 758.88 602.004 756.446 601.809 C 755.99 601.26 755.611 600.805 755.215 600.329 C 756.2 599.168 757.963 597.535 756.619 595.839 C 749.963 601.479 752.121 600.244 753.095 607.741 C 747.864 609.09 747.325 603.295 745.429 599.995 C 744.556 601.051 744.673 603.233 745.703 604.292 C 745.382 604.755 745.067 605.209 744.686 605.758 C 742 606.478 742.893 601.931 741.803 600.304 C 740.327 599.125 741.129 603.892 740.932 604.795 C 738.576 605.243 738.429 604.247 736.532 603.129 C 730.839 597.422 742.861 594.642 743.024 589.24 C 743.572 587.488 745.924 586.605 747.623 586.772 C 750 586.106 751.503 589.529 753.626 588.522 C 763.151 584.622 766.594 598.755 771.626 603.807 C 773.983 609.243 780.266 610.971 783.097 615.931 C 783.723 616.555 783.54 617.897 784.834 617.897 C 784.834 617.897 784.797 617.859 784.797 617.859 L 784.798 617.854 Z  M 764.007 728.873 C 776.532 727.507 787.966 721.804 797.015 713.13 C 797.863 712.613 798.371 711.514 799.707 711.733 C 803.083 711.875 806.35 710.238 809.696 709.756 C 814.796 707.136 820.665 703.54 822.88 697.902 C 820.642 698.119 819.332 700.963 817.85 702.475 C 815.39 704.261 812.999 706.473 810.263 707.786 C 807.009 709.227 803.644 710.144 799.986 709.848 C 797.468 710.374 798.199 708.662 796.727 708.987 C 792.946 711.883 789.342 715 785.539 717.686 C 782.203 718.781 779.5 721.374 776.107 722.011 C 775.773 723.377 774.277 722.798 773.442 723.593 C 772.543 724.448 770.942 724.564 769.65 725.008 C 768.516 725.439 767.501 726.606 766.363 726.702 C 765.223 726.794 764.942 727.908 764.012 728.087 C 763.976 728.094 764.007 728.449 764.007 728.873 L 764.007 728.873 Z  M 745.825 597.716 C 747.244 598.196 748.977 595.046 749.92 594.11 C 748.445 592.91 747.025 594.288 746.706 595.755 C 745.402 595.978 746.175 597.005 745.825 597.716 L 745.825 597.716 Z " fill="none"/><path d=" M 687.923 672.921 C 687.659 672.919 687.267 672.804 687.151 672.934 C 685.714 674.712 684.122 676.544 682.379 677.919 C 681.84 679.039 680.178 678.391 679.872 679.712 C 679.263 679.722 678.55 680.206 677.975 680.506 C 672.537 680.746 666.117 681.555 660.939 680.157 C 657.945 678.731 655.777 676.136 652.982 674.273 C 650.989 672.832 652.871 675.637 653.065 676.408 C 651.4 678.068 645.01 671.618 643.874 670.028 C 641.942 667.595 640.837 664.365 639.912 661.473 C 639.785 660.485 640.101 659.39 639.123 658.605 C 638.742 655.389 639.054 651.877 638.997 648.584 C 640.68 644.508 641.579 638.421 637.014 635.928 L 637.045 635.959 C 637.065 635.139 636.428 634.118 637.742 633.687 C 637.92 632.322 638.635 631.415 639.649 630.562 C 640.761 628.925 640.152 625.541 642.097 624.804 C 641.955 626.509 643.187 625.584 643.865 625.842 C 646.102 620.958 651.878 619.666 656.62 621.888 C 659.91 624.954 663.027 627.956 667.883 626.774 L 667.883 623.744 C 666.605 624.46 665.181 625.572 663.907 624.197 C 661.154 621.229 657.566 618.445 653.423 617.95 C 649.094 617.131 643.854 619.16 642.943 623.783 C 642.912 624.311 642.968 625.001 642.063 624.839 C 641.359 622.037 643.145 620.13 643.913 617.678 C 643.694 612.272 645.165 606.973 647.945 602.36 C 648.181 599.971 651.578 599.357 651.944 597.146 C 648.748 596.628 646.228 600.706 644.275 602.909 C 643.698 604.61 642.61 605.879 641.319 607.105 C 638.905 611.724 633.147 614.282 630.996 618.7 C 634.719 617.915 637.766 614.736 640.852 612.675 C 641.037 612.241 641.164 611.599 641.771 611.994 C 642.679 614.123 641.738 616.922 640.249 618.614 C 636.496 623.768 629.307 625.736 623.204 625.788 C 619.097 622.265 621.01 614.517 623.759 610.492 C 624.837 608.36 625.951 606.436 627.713 604.773 C 629.153 603.404 631.047 602.615 632.368 601.002 C 633.396 600.612 634.634 600.47 635.409 599.794 C 636.492 598.851 638.118 599.219 639.011 598.001 C 640.072 597.695 641.494 597.41 641.946 596.152 C 639.935 595.331 638.134 596.317 636.199 596.762 C 635.84 592.986 638.232 589.074 640.152 585.838 C 642.777 583.499 647.159 577.542 650.848 579.281 C 648.44 580.529 646.864 583.063 645.084 585.206 C 644.118 588.159 642.687 592.446 645.506 594.867 C 645.913 595.774 647.485 596.42 647.625 594.968 C 646.642 592.773 646.668 590.272 647.918 588.179 C 648.964 585.181 651.421 582.333 654.257 580.892 C 655.234 580.426 656.518 580.303 657.198 579.585 C 658.123 578.608 659.627 579.222 660.422 578.004 C 660.66 577.639 661.794 577.916 662.494 577.776 C 663.26 577.61 663.962 576.967 664.763 576.9 C 672.026 576.581 679.293 576.403 685.574 580.588 C 686.839 581.302 688.839 581.748 689.706 582.86 C 689.946 584.229 691.455 583.626 692.117 584.663 C 697.704 589.851 704.124 595.333 705.994 603.073 C 707.31 606.633 706.97 611.209 709.689 613.913 C 710.349 614.954 710.257 616.572 711.061 617.488 C 712.233 619.214 712.715 623.97 710.706 624.731 C 710.133 624.947 709.181 625.194 708.717 624.242 C 706.322 623.287 704.327 621.718 702.512 619.971 C 700.832 619.504 700.197 617.92 698.982 617.004 C 690.144 608.567 684.73 590.32 669.484 594.454 C 668.774 594.752 667.121 595.246 666.965 594.106 C 669.625 591.726 673.952 592.955 677.224 593.016 C 679.6 593.147 681.62 595.265 684.049 595.856 C 686.799 597.198 689.126 599.154 691.65 600.772 C 692.559 602.026 694.323 602.104 695.192 603.52 C 695.609 604.199 696.687 604.46 697.44 604.95 C 699.36 606.071 700.241 608.329 702.533 608.935 C 702.803 609.706 704.522 610.212 703.623 608.864 C 701.29 606.671 699.297 604.074 696.378 602.635 C 693.548 599.821 689.812 597.718 686.372 595.623 C 684.508 593.719 681.929 592.511 679.742 590.989 C 679.465 590.716 678.387 590.93 678.146 590.685 C 677.139 588.804 674.952 590.677 673.69 589.08 C 673.014 588.405 669.34 589.003 668.642 589.733 C 663.984 589.746 659.972 593.788 660.84 598.551 C 663.994 598.343 667.158 600.531 669.996 599.34 C 675.391 596.186 680.119 598.247 684.1 602.672 C 687.516 606.727 690.02 611.812 694.003 615.639 C 697.154 618.217 698.501 619.291 697.881 623.623 C 697.881 623.641 697.257 623.764 697.039 623.638 C 694.438 620.222 690.257 619.152 686.361 619.952 C 685.507 619.928 684.627 620.866 683.76 621.367 C 682.56 621.805 681.627 622.42 680.801 623.377 C 679.181 624.393 677.413 624.747 675.937 626.14 C 674.184 628.552 675.795 629.023 678.156 628.843 C 680.703 628.62 681.993 625.861 684.155 624.686 C 688.353 619.84 696.656 622.856 698.935 628.161 C 700.252 630.372 699.517 633.144 701.412 635.035 C 702.251 636.262 700.931 637.417 700.542 638.572 C 699.63 640.072 699.801 641.907 699.841 643.594 C 700.111 649.184 698.749 654.876 697.817 660.083 C 696.378 663.838 697.846 668.311 694.158 670.971 C 692.704 673.07 690.299 673.754 687.986 674.858 C 687.948 674.064 687.921 673.474 687.892 672.882 C 689.06 672.632 689.177 672.293 688.301 670.779 C 688.141 671.682 688.031 672.298 687.922 672.913 L 687.923 672.921 Z  M 691.997 657.679 C 691.67 663.837 693.966 658.313 694.825 655.969 C 692.414 655.104 693.594 658.265 691.969 657.711 C 691.221 652.56 686.314 650.557 683.306 646.872 C 681.746 645.477 681.79 642.771 679.229 642.774 C 677.653 642.179 676.867 641.125 676.951 643.72 C 678.004 643.795 678.909 643.86 680.052 643.942 C 680.075 649.257 686.084 651.648 687.543 655.697 C 685.388 658.463 682.417 657.917 679.603 656.872 C 670.897 656.864 662.504 655.422 653.752 655.876 C 649.652 656.553 657.062 648.122 658.737 648.773 C 663.954 647.373 666.922 654.523 671.88 653.518 C 674.164 652.014 676.126 650.522 678.934 649.369 C 679.204 644.237 675.494 648.194 673.485 649.647 C 668.364 652.107 665.83 642.683 661.549 647.661 C 661.586 647.775 661.622 647.889 661.659 648.003 C 658.831 648.198 660.509 645.366 661.197 643.978 C 662.285 642.645 663.408 643.341 664.79 644.057 C 664.846 643.118 664.879 642.583 664.92 641.885 C 661.283 641.484 658.811 644.362 656.641 646.885 C 654.092 649.448 650.948 651.307 648.287 653.739 C 644.192 657.163 649.8 658.598 650.077 661.535 C 651.916 662.479 652.047 664.686 653.558 665.877 C 654.418 665.117 653.959 663.972 654.056 662.939 C 655.018 662.824 655.626 662.694 656.214 663.688 C 657.974 664.75 659.885 666.683 662.086 666.904 C 662.319 666.915 662.713 666.94 662.753 667.056 C 664.231 668.875 667.533 667.086 669.694 668.394 C 672.386 667.009 675.696 668.89 678.408 666.905 C 679.327 666.179 680.786 666.204 681.802 665.614 C 682.59 664.063 684.533 665.023 685.909 664.874 C 685.954 664.158 685.989 663.604 686.006 663.33 C 686.557 662.715 686.879 662.01 687.307 661.939 C 689.752 661.442 689.889 658.737 691.998 657.682 L 691.997 657.679 Z  M 680.138 633.641 C 679.932 634.116 679.864 634.632 679.65 634.703 C 678.23 635.379 679.113 636.807 680.411 636.739 C 685.071 636.483 689.424 637.952 694.138 637.807 C 696.164 636.483 690.449 633.787 689.109 633.661 C 686.365 631.461 683.162 634.006 680.139 633.64 L 680.138 633.641 Z  M 647.588 635.362 C 652.282 632.968 658.508 637.783 662.857 634.563 C 663.115 633.337 660.831 633.055 660.059 632.647 C 659.933 631.37 658.587 632.11 657.967 631.368 C 656.562 630.375 654.724 631.408 653.307 631.742 C 652.302 631.992 650.959 631.588 650.068 632.088 C 649.019 635.065 645.849 632.873 643.991 634.249 C 644.958 635.162 646.257 634.993 647.588 635.362 Z  M 687.951 587.459 C 686.129 586.57 684.768 585.195 683.352 584.637 C 682.764 583.259 680.908 584.343 680.494 582.946 C 678.486 583.219 675.687 582.324 674.056 583.297 C 674.299 583.873 675.045 583.842 675.559 583.781 C 678.451 583.557 680.771 585.263 683.571 585.845 C 683.683 585.853 683.875 585.908 683.888 585.97 C 684.095 587.106 685.294 586.595 685.881 587.092 C 686.251 588.494 687.007 587.663 687.951 587.46 L 687.951 587.459 Z  M 654.104 595.825 C 655.442 595.971 656.918 595.449 657.91 596.171 C 658.202 597.125 658.965 596.634 659.517 596.729 C 660.292 595.543 657.882 594.648 657.261 593.705 C 654.526 590.422 653.774 592.528 654.104 595.826 L 654.104 595.825 Z  M 666.137 671.177 C 666.132 671.29 666.128 671.403 666.123 671.517 C 668.658 671.625 673.66 672.844 675.084 670.41 C 672.424 669.368 668.903 670.713 666.137 671.178 L 666.137 671.177 Z  M 642.073 653.871 C 641.688 655.344 643.95 662.815 645.917 661.505 C 646.01 659.989 643.388 654.189 642.073 653.871 L 642.073 653.871 Z  M 673.957 633.266 C 674.243 634.973 673.187 636.137 675.619 637.74 C 675.96 637.038 676.092 635.791 675.675 635.212 C 674.114 633.366 675.8 630.822 674.46 628.923 C 673.567 630.276 674.065 631.372 673.957 633.266 L 673.957 633.266 Z  M 666.232 630.879 C 665.508 633.077 666.725 635.469 665.069 637.649 C 665.76 637.758 666.294 637.842 666.828 637.927 C 667.357 634.614 667.085 631.288 666.232 630.88 L 666.232 630.879 Z " fill="none"/><path d=" M 540.943 692.767 C 543.986 693.137 545.651 690.109 548.761 689.658 C 556.928 687.351 565.734 686.814 574.025 688.569 C 575.622 688.931 577.25 688.59 578.608 689.721 C 581.372 690.503 587.087 691.338 587.16 694.919 C 590.435 703.876 584.243 712.92 581.986 721.351 C 578.591 730.611 576.381 740.339 575.975 750.211 C 575.471 751.488 572.576 750.901 571.662 750.12 C 571.301 749.77 570.44 749.935 569.808 749.866 C 568.856 749.875 568.171 749.76 567.483 749.012 C 564.603 748.297 561.625 747.722 559.308 745.943 C 540.219 738.757 529.941 719.731 518.15 704.638 C 516.266 701.625 513.954 698.263 511.727 695.406 C 509.595 691.854 512 688.016 514.631 685.699 C 515.621 684.229 516.688 682.743 517.884 681.431 C 517.943 680.112 518.967 679.423 519.682 678.504 C 521.134 676.199 521.701 673.28 523.819 671.413 C 532.047 653.624 546.017 639.406 556.541 623.407 C 558.138 620.72 559.889 618.343 562.527 616.571 C 564.949 615.328 567.266 613.906 568.136 610.961 C 569.392 606.021 569.404 600.905 571.646 596.403 C 571.908 591.103 574.713 587.818 580.309 588.953 C 582.053 589.69 583.678 592.118 585.883 590.192 C 588.242 588.076 592.507 588.185 594.945 590.125 C 596.652 592.112 602.1 594.699 602.067 597.46 C 605.198 600.512 600.701 603.842 598.285 606.016 C 597.708 602.683 598.292 600.026 596.866 596.827 C 596.188 596.947 595.669 597.038 595.406 597.084 C 595.985 598.588 595.56 599.958 596.596 601.168 C 596.995 601.477 597.356 602.457 596.357 602.932 C 595.759 604.639 594.496 605.742 593.326 606.985 C 592.318 608.454 591.245 607.7 589.963 607.735 C 589.863 605.548 590.414 603.461 588.778 601.875 C 587.495 600.646 586.161 598.435 584.089 599.093 C 586.689 601.544 588.837 603.798 587.946 607.493 C 585.786 609.036 583.191 610.801 580.662 609.226 C 579.969 608.742 579.534 608.339 580.653 607.605 C 581.534 606.821 581.87 605.116 582.844 604.246 C 583.165 602.127 580.764 601.582 579.023 601.866 L 579.023 605.846 L 577.156 605.846 C 577.204 605.751 577.252 605.657 577.301 605.562 C 576.689 605.09 576.077 604.618 575.205 603.945 C 575.247 604.622 575.125 605.187 575.317 605.33 C 576.188 605.978 575.808 606.945 576.09 607.716 C 576.962 609.767 578.135 611.305 578.666 613.592 C 576.763 615.295 575.106 618.81 572.158 619.018 C 570.595 620.62 567.739 619.937 566.192 619.003 C 566.096 619.534 566 620.065 565.939 620.402 C 572.061 622.797 566.681 622.923 565.865 626.391 C 561.521 635.943 555.863 644.5 549.894 653.209 C 547.202 657.261 544.694 661.738 542.061 665.975 C 541.624 668.648 539.162 670.71 539.12 673.615 C 540.604 674.257 540.434 671 541.794 670.517 C 542.286 668.823 543.689 667.34 544.625 665.795 C 546.252 662.941 547.691 660.84 549.693 658.34 C 550.999 655.883 553.185 654.268 554.499 651.849 C 557.186 657.041 555.903 664.184 553.799 669.22 C 552.64 670.424 553.322 672.106 552.065 673.122 C 550.634 676.875 549.298 680.742 547.234 684.239 C 546.872 684.84 547.099 685.697 546.034 686.018 C 545.208 686.267 544.624 687.228 543.833 687.709 C 541.824 689.543 540.521 689.946 540.944 692.763 L 540.943 692.767 Z  M 523.967 705.725 C 524.136 704.618 522.684 704.771 522.549 703.901 C 521.186 704.605 523.151 705.737 523.995 705.695 C 523.465 707.751 526.988 708.002 527.764 708.975 C 528.27 710.274 529.693 709.578 530.396 710.637 C 530.887 711.377 532.523 711.689 533.616 711.627 C 535.733 711.507 536.557 713.209 537.902 714.168 C 542.578 717.832 546.904 721.944 551.951 725.067 C 556.615 728.492 570.679 734.557 575.905 732.285 C 572.074 730.929 568.288 728.397 564.258 727.725 C 563.784 726.548 562.882 727.039 561.945 726.564 C 555.091 722.879 548.5 719.013 542.447 714.002 C 539.657 713.219 538.625 709.488 535.467 709.748 C 534.793 709.869 533.81 709.896 533.405 709.509 C 531.517 708.513 529.421 708.453 527.459 707.566 C 526.408 706.855 525.477 705.54 523.967 705.727 L 523.967 705.725 Z " fill="none"/><path d=" M 630.359 693.19 C 630.559 692.9 630.882 692.432 631.314 691.806 C 632.715 691.481 635.31 692.631 636.174 691.067 C 636.197 690.983 636.455 690.963 636.604 690.916 C 640.85 690.211 643.298 687.246 646.715 685.018 C 647.732 688.259 649.162 691.297 649.962 694.551 C 649.97 695.153 649.85 695.861 650.656 696.151 C 651.494 698.674 651.594 701.493 653.175 703.785 L 655.041 703.785 C 655.472 695.894 651.108 689.109 650.034 681.655 C 654.243 683.454 654.625 689.332 657.562 692.689 C 657.809 691.707 658.273 690.748 657.319 689.841 C 657.122 689.653 657.077 689.284 657.007 688.987 C 656.81 688.157 657.032 687.305 656.158 686.549 C 655.698 686.152 655.985 684.89 655.935 684.033 C 661.675 683.704 659.251 709.17 663.703 708.614 C 666.313 703.064 664.332 696.185 664.924 690.132 C 664.915 687.759 664.854 687.759 667.162 687.728 C 670.97 686.362 668.229 697.682 668.831 700.176 C 667.502 703.483 668.221 707.135 668.058 710.753 L 669.767 710.753 C 670.613 708.411 670.827 705.347 672.141 703.335 C 673.358 702.319 672.345 700.444 673.841 699.68 C 674.173 699.131 673.539 697.82 674.67 697.754 C 675.537 695.762 676.146 693.553 677.639 691.817 C 678.705 690.591 678.751 687.949 680.094 686.968 C 681.754 686.304 681.336 682.973 683.586 684.096 C 683.321 684.773 683.249 685.542 682.827 685.923 C 681.555 687.072 681.999 688.808 681.21 690.193 C 680.618 691.232 679.502 692.48 679.875 694.039 C 679.441 694.43 678.506 697.669 679.847 696.345 C 682.263 691.201 686.036 686.124 689.139 681.104 C 689.726 680.585 691.18 680.687 690.82 681.902 C 689.973 683.198 690.186 684.701 689.839 686.082 C 689.116 689.252 686.514 692.681 687.263 695.918 C 697.099 685.391 688.975 689.057 700.503 691.884 C 701.767 691.976 704.873 691.162 704.956 692.997 C 704.915 693.974 705.288 695.075 704.197 695.841 C 703.95 696.015 704.019 696.648 703.955 697.071 C 703.785 698.196 704.318 699.469 703.181 700.4 C 702.665 706.553 702.456 713.198 700.73 719.191 C 699.927 721.448 699.77 724.191 698.754 726.062 C 697.716 726.976 698.435 728.492 697.196 729.26 C 694.219 736.57 688.543 744.158 680.424 745.937 C 675.97 748.761 669.881 748.899 664.505 748.893 C 660.568 748.647 656.326 749.649 652.753 747.912 C 648.388 747.843 644.442 744.557 641.126 742.045 C 637.229 737.886 635.121 732.597 633.75 727.329 C 629.838 716.172 631.691 704.724 630.358 693.191 L 630.359 693.19 Z " fill="none"/><path d=" M 638.934 623.689 C 638.679 624.696 639.595 625.621 638.227 625.946 C 638.112 625.973 638.067 626.348 638.013 626.567 C 637.883 627.095 638.093 627.814 637.204 627.908 C 636.322 630.831 633.776 633.005 631.965 635.503 C 630.022 637.202 628.026 639.222 625.309 639.689 C 622.831 639.704 618.562 640.979 617.904 637.617 C 616.532 635.344 617.9 633.389 619.554 631.531 C 621.754 629.967 623.87 628.793 626.352 627.854 C 628.331 628.088 630.126 627.287 631.991 626.88 C 632.773 626.71 633.802 627.139 634.163 625.965 C 635.534 626.23 636.219 624.863 637.44 624.67 C 637.862 624.627 638.241 624.163 638.934 623.69 L 638.934 623.689 Z " fill="none"/><path d=" M 637.014 635.929 C 636.546 639.775 635.381 643.41 632.151 645.777 C 631.017 646.403 630.783 647.277 631.57 648.513 C 628.684 653.421 623.274 652.667 621.181 647.628 C 620.628 646.891 621.469 645.247 620.239 644.672 C 619.922 644.526 619.992 643.54 619.855 642.763 C 625.497 643.097 631.139 641.581 634.88 637.248 C 635.517 636.698 635.896 635.664 637.045 635.96 C 637.045 635.961 637.015 635.93 637.015 635.93 L 637.014 635.929 Z " fill="none"/><path d=" M 763.002 613.817 C 763.1 614.559 762.589 615.484 763.821 615.861 C 764.555 618.037 762.213 619.243 760.233 618.745 C 757.271 618.527 753.292 618.662 751.012 616.628 C 750.581 615.76 749.891 615.919 749.217 615.771 C 745.247 613.635 737.532 614.218 738.152 607.872 C 740.448 608.869 742.865 610.647 745.656 609.689 C 746.31 608.656 746.726 609.15 747.269 609.841 C 749.274 613.368 753.894 610.509 756.233 613.446 C 760.152 615.499 758.995 614.587 763.034 613.847 C 763.034 613.847 763.003 613.817 763.003 613.817 L 763.002 613.817 Z " fill="none"/><path d=" M 710.391 638.826 C 708.523 636.065 705.255 634.057 703.84 631.28 C 702.559 630.669 703.365 629.076 702.273 628.479 C 701.679 627.211 702.407 625.384 701.212 624.21 C 700.865 623.708 701.173 622.413 701.941 623.115 C 703.226 624.725 705.444 625.005 706.807 626.603 C 708.328 628.413 710.4 627.268 712.229 627.084 C 715.11 627.864 713.762 631.348 714.007 633.629 C 713.435 635.272 711.903 637.926 710.39 638.826 L 710.391 638.826 Z " fill="none"/><path d=" M 599.585 607.732 C 600.965 610.208 598.807 611.283 597.793 613.352 C 596.795 614.085 595.463 614.42 594.64 615.553 C 593.101 615.928 591.504 616.833 589.85 616.814 C 587.829 616.629 586.661 618.248 584.972 618.789 C 583.081 618.577 580.083 619.769 579.021 617.704 C 578.855 617.062 578.525 616.204 579.528 615.646 C 580.223 615.282 580.532 614.286 581.204 613.827 C 585.588 611.252 591.42 614.804 595.213 611.199 C 596.232 610.223 597.04 608.684 598.83 608.684 C 599.014 608.684 599.198 608.237 599.585 607.733 L 599.585 607.732 Z " fill="none"/><path d=" M 704.522 637.116 C 707.891 640.551 710.506 640.761 707.567 645.897 C 705.605 645.6 705.797 643.535 704.814 642.371 C 703.266 640.756 704.535 638.709 703.199 637.109 C 703.691 637.009 704.183 636.91 704.676 636.81 C 704.624 636.912 704.573 637.014 704.521 637.116 L 704.522 637.116 Z " fill="none"/><path d=" M 703.954 650.159 C 703.899 651.721 704.306 653.609 702.851 654.656 C 702.775 654.766 702.33 654.78 702.321 654.751 C 702.069 653.979 700.868 653.932 700.98 652.83 C 700.721 650.95 702.019 647.343 703.954 650.158 L 703.954 650.159 Z " fill="none"/><path d=" M 634.587 652.592 C 632.692 651.798 632.871 650.295 632.902 648.822 C 632.926 647.67 633.792 647.89 634.436 647.863 C 636.853 647.588 636.074 651.716 634.587 652.592 Z " fill="none"/><path d=" M 577.746 608.642 C 578.007 608.324 578.194 608.096 578.381 607.867 C 579.179 608.432 578.787 608.985 578.436 609.673 C 578.226 609.359 578.016 609.045 577.747 608.642 L 577.746 608.642 Z " fill="rgb(255,255,255)"/><path d=" M 764.007 728.873 C 764.007 728.449 763.976 728.094 764.012 728.087 C 764.942 727.908 765.223 726.794 766.363 726.702 C 767.501 726.606 768.517 725.439 769.65 725.008 C 770.942 724.563 772.544 724.448 773.442 723.593 C 774.278 722.798 775.773 723.378 776.107 722.011 C 779.5 721.375 782.204 718.781 785.54 717.686 C 789.342 715.001 792.948 711.882 796.727 708.987 C 798.187 708.661 797.492 710.378 799.986 709.848 C 803.644 710.144 807.009 709.227 810.263 707.786 C 813.001 706.473 815.389 704.262 817.851 702.476 C 819.346 700.956 820.628 698.127 822.88 697.902 C 819.759 704.86 812.202 709.598 804.836 710.855 C 802.3 712.154 798.906 710.911 797.015 713.131 C 787.966 721.804 776.531 727.508 764.007 728.874 L 764.007 728.873 Z " fill="rgb(0,0,0)"/><path d=" M 745.825 597.717 C 746.176 597.005 745.403 595.978 746.706 595.755 C 747.024 594.289 748.446 592.91 749.92 594.11 C 748.969 595.052 747.257 598.188 745.825 597.716 L 745.825 597.717 Z " fill="rgb(0,0,0)"/><path d=" M 783.888 635.891 C 784.935 636.143 785.092 636.629 784.282 637.947 C 784.131 637.094 784.023 636.48 783.915 635.865 C 783.915 635.865 783.888 635.892 783.888 635.892 L 783.888 635.891 Z " fill="rgb(0,0,0)"/><path d=" M 691.998 657.676 C 689.886 658.736 689.752 661.436 687.306 661.936 C 686.878 662.007 686.556 662.712 686.005 663.327 C 685.988 663.601 685.953 664.155 685.908 664.871 C 684.535 665.02 682.586 664.061 681.801 665.611 C 680.785 666.202 679.327 666.176 678.408 666.903 C 675.697 668.888 672.384 667.008 669.694 668.392 C 667.531 667.084 664.231 668.873 662.752 667.055 C 662.712 666.938 662.318 666.914 662.085 666.902 C 659.885 666.683 657.971 664.747 656.212 663.687 C 655.624 662.693 655.016 662.823 654.054 662.938 C 653.957 663.971 654.416 665.117 653.556 665.876 C 652.045 664.686 651.912 662.479 650.074 661.535 C 649.803 658.607 644.187 657.157 648.285 653.738 C 650.946 651.307 654.089 649.447 656.639 646.884 C 658.807 644.364 661.284 641.481 664.918 641.884 C 664.876 642.581 664.844 643.117 664.788 644.056 C 663.407 643.341 662.283 642.643 661.195 643.978 C 660.507 645.365 658.829 648.198 661.657 648.002 C 661.62 647.888 661.584 647.774 661.547 647.66 C 665.825 642.682 668.366 652.107 673.483 649.646 C 675.529 648.227 679.15 644.155 678.932 649.369 C 676.124 650.522 674.163 652.013 671.878 653.517 C 666.921 654.522 663.95 647.372 658.735 648.773 C 656.987 648.148 649.697 656.545 653.749 655.875 C 662.502 655.422 670.894 656.864 679.601 656.873 C 682.279 657.924 685.538 658.409 687.539 655.697 C 686.085 651.632 680.109 649.333 680.05 643.942 C 678.907 643.86 678.002 643.795 676.949 643.72 C 676.876 641.143 677.628 642.161 679.227 642.775 C 681.788 642.772 681.743 645.478 683.304 646.873 C 686.311 650.557 691.22 652.562 691.967 657.712 C 691.967 657.712 691.997 657.677 691.997 657.677 L 691.998 657.676 Z  M 655.061 659.49 C 656.28 659.97 657.556 660.61 658.766 660.983 C 659.195 662.183 660.26 661.704 661.077 661.877 C 661.855 661.912 662.508 662.627 663.19 662.742 C 669.193 662.395 675.828 664.145 680.905 660.639 C 675.244 657.669 666.928 659.551 660.447 658.544 C 658.444 657.264 656.803 658.356 655.061 659.49 L 655.061 659.49 Z  M 676.003 665.441 C 674.63 664.655 664.075 664.674 663.05 665.457 C 667.374 666.998 671.789 667.703 676.003 665.441 Z " fill="rgb(0,0,0)"/><path d=" M 642.065 624.84 C 642.97 625.001 642.914 624.312 642.945 623.783 C 643.858 619.16 649.095 617.132 653.424 617.951 C 657.568 618.445 661.153 621.23 663.908 624.198 C 665.18 625.572 666.602 624.462 667.884 623.745 L 667.884 626.775 C 663.023 627.956 659.915 624.956 656.621 621.888 C 651.886 619.665 646.093 620.963 643.866 625.843 C 643.188 625.585 641.957 626.511 642.098 624.805 C 642.099 624.804 642.065 624.84 642.065 624.84 L 642.065 624.84 Z " fill="rgb(0,0,0)"/><path d=" M 680.138 633.641 C 683.16 634.007 686.366 631.462 689.108 633.661 C 690.462 633.791 696.155 636.48 694.137 637.806 C 689.425 637.952 685.068 636.483 680.41 636.74 C 679.112 636.806 678.229 635.378 679.649 634.702 C 679.864 634.631 679.931 634.115 680.137 633.64 L 680.138 633.641 Z " fill="rgb(0,0,0)"/><path d=" M 647.588 635.361 C 646.257 634.993 644.958 635.162 643.991 634.248 C 645.848 632.872 649.019 635.064 650.068 632.087 C 650.96 631.587 652.301 631.991 653.307 631.74 C 654.72 631.407 656.566 630.372 657.967 631.367 C 658.588 632.108 659.932 631.367 660.059 632.645 C 660.835 633.053 663.112 633.334 662.857 634.56 C 658.51 637.781 652.279 632.966 647.588 635.36 L 647.588 635.361 Z " fill="rgb(0,0,0)"/><path d=" M 687.951 587.458 C 687.007 587.66 686.251 588.491 685.881 587.09 C 685.856 586.996 685.623 586.937 685.477 586.899 C 684.86 586.738 684.074 586.882 683.888 585.968 C 683.875 585.906 683.683 585.851 683.571 585.844 C 680.772 585.262 678.451 583.556 675.559 583.78 C 675.044 583.842 674.3 583.872 674.057 583.297 C 675.688 582.323 678.486 583.219 680.495 582.945 C 680.909 584.342 682.765 583.259 683.353 584.636 C 684.772 585.196 686.126 586.567 687.952 587.459 L 687.951 587.458 Z " fill="rgb(0,0,0)"/><path d=" M 654.103 595.824 C 653.775 592.526 654.524 590.42 657.26 593.704 C 657.883 594.647 660.29 595.541 659.517 596.728 C 658.964 596.634 658.202 597.125 657.909 596.171 C 656.916 595.449 655.442 595.97 654.103 595.825 L 654.103 595.824 Z " fill="rgb(0,0,0)"/><path d=" M 666.136 671.176 C 668.903 670.712 672.421 669.367 675.083 670.408 C 673.666 672.84 668.654 671.625 666.122 671.515 C 666.127 671.402 666.131 671.289 666.136 671.175 L 666.136 671.176 Z " fill="rgb(0,0,0)"/><path d=" M 642.073 653.87 C 643.377 654.171 646.011 659.986 645.918 661.503 C 643.954 662.814 641.689 655.359 642.073 653.87 Z " fill="rgb(0,0,0)"/><path d=" M 673.957 633.265 C 674.065 631.371 673.567 630.275 674.46 628.922 C 675.799 630.821 674.114 633.364 675.674 635.211 C 676.091 635.792 675.959 637.035 675.618 637.739 C 673.185 636.136 674.243 634.968 673.956 633.265 L 673.957 633.265 Z " fill="rgb(0,0,0)"/><path d=" M 666.231 630.878 C 667.085 631.286 667.356 634.612 666.827 637.925 C 666.293 637.841 665.759 637.756 665.068 637.647 C 666.724 635.467 665.507 633.075 666.231 630.877 L 666.231 630.878 Z " fill="rgb(0,0,0)"/><path d=" M 691.968 657.711 C 693.59 658.267 692.418 655.102 694.824 655.969 C 693.963 658.32 691.668 663.831 691.997 657.677 C 691.997 657.676 691.967 657.711 691.967 657.711 L 691.968 657.711 Z " fill="rgb(0,0,0)"/><path d=" M 687.923 672.92 C 688.032 672.304 688.142 671.688 688.302 670.786 C 689.178 672.3 689.061 672.638 687.893 672.889 C 687.893 672.889 687.923 672.921 687.923 672.921 L 687.923 672.92 Z " fill="rgb(0,0,0)"/><path d=" M 523.968 705.723 C 525.467 705.533 526.415 706.856 527.459 707.564 C 529.423 708.451 531.519 708.512 533.406 709.506 C 533.811 709.894 534.794 709.866 535.468 709.746 C 538.625 709.485 539.659 713.218 542.448 714 C 548.502 719.012 555.091 722.876 561.946 726.561 C 562.872 727.029 563.796 726.554 564.258 727.723 C 568.29 728.395 572.074 730.925 575.905 732.282 C 570.759 734.571 556.556 728.471 551.951 725.064 C 546.904 721.942 542.577 717.829 537.902 714.165 C 536.557 713.206 535.733 711.504 533.616 711.624 C 532.524 711.686 530.888 711.374 530.396 710.634 C 529.693 709.575 528.27 710.271 527.764 708.972 C 526.979 707.991 523.477 707.759 523.995 705.692 L 523.968 705.721 L 523.968 705.723 Z " fill="rgb(0,0,0)"/><path d=" M 523.995 705.694 C 523.151 705.736 521.186 704.604 522.549 703.9 C 522.685 704.77 524.136 704.618 523.968 705.723 C 523.968 705.723 523.995 705.693 523.995 705.693 L 523.995 705.694 Z " fill="rgb(0,0,0)"/><path d=" M 655.061 659.49 C 656.803 658.355 658.445 657.263 660.447 658.544 C 666.925 659.55 675.248 657.668 680.906 660.638 C 675.829 664.143 669.193 662.394 663.191 662.741 C 662.509 662.626 661.855 661.911 661.078 661.876 C 660.261 661.703 659.196 662.182 658.767 660.982 C 657.557 660.609 656.281 659.969 655.062 659.489 L 655.061 659.49 Z " fill="none"/><path d=" M 676.003 665.441 C 671.789 667.703 667.374 666.998 663.05 665.457 C 664.074 664.673 674.63 664.655 676.003 665.441 Z " fill="none"/></g></g></svg>