<?xml version="1.0" encoding="UTF-8" standalone="no"?><!-- Generator: Gravit.io --><svg xmlns="http://www.w3.org/2000/svg" xmlns:xlink="http://www.w3.org/1999/xlink" style="isolation:isolate" viewBox="29.161 274.775 399 399" width="399pt" height="399pt"><circle vector-effect="non-scaling-stroke" cx="228.6605796924176" cy="474.27498424971395" r="199.5" fill="rgb(233,232,230)"/><g><path d=" M 342.023 369.061 C 343.156 368.854 343.409 370.01 344.119 370.461 C 344.76 370.868 345.238 371.543 345.756 372.128 C 348.437 375.193 350.915 378.486 353.829 381.255 C 359.938 388.078 364.654 395.914 369.934 403.198 C 371.107 404.604 371.688 406.714 373.024 408.123 C 373.645 408.604 373.654 409.882 374.277 410.349 C 375.253 411.08 374.769 412.542 375.994 413.096 C 379.69 419.472 383.196 426.278 387.086 432.464 C 388.641 437.998 393.833 438.508 392.036 445.536 C 390.342 452.378 383.185 456.205 379.173 461.708 C 371.491 471.178 363.649 480.871 353.653 487.764 C 348.651 490.514 344.199 494.163 338.753 496.018 C 338.155 496.136 337.445 495.962 337.194 496.81 C 336.556 497.303 335.193 496.581 334.932 497.789 C 333.459 498.312 331.8 498.552 330.279 499.018 C 328.537 500.176 326.559 499.742 324.735 500.771 C 321.994 501.491 318.596 500.467 316.885 503.677 C 307.558 511.57 313.694 511.201 309.561 515.058 C 302.951 522.064 298.354 531.973 298.049 541.843 C 296.129 550.7 297.356 560.404 298.961 569.246 C 299.407 571.341 298.634 573.536 299.936 575.502 C 300.644 577.241 299.57 579.714 301.005 581.358 C 301.49 582.979 301.017 584.961 301.869 586.655 C 302.426 588.642 302.059 591.004 303.108 592.963 C 302.963 595.047 303.503 596.938 304.106 598.893 C 304.342 600.506 303.976 602.151 304.902 603.748 C 305.689 610.46 307.24 617.125 308.274 623.937 L 300.983 623.937 C 299.723 616.964 298.986 609.821 297.25 603.153 C 296.879 601.388 297.886 599.158 296.399 597.81 C 296.059 593.549 295.613 588.978 294.973 584.798 C 293 569.149 290.159 553.046 294.016 537.62 C 294.579 534.656 295.028 531.7 296.166 528.914 C 296.341 528.208 295.918 527.237 297.048 526.961 C 296.795 525.609 297.773 524.665 298.31 523.614 C 299.632 520.349 302.631 517.374 304.496 514.338 C 307.471 512.087 306.288 508.052 306.018 504.969 C 303.996 494.944 305.064 484.487 305.418 474.345 C 309.746 483.851 307.107 495.726 309.543 505.813 C 311.35 503.585 314.672 501.737 313.808 498.45 C 312.877 494.023 312.448 489.56 311.172 485.099 C 310.253 479.878 308.344 475.497 306.441 470.682 C 305.646 469.595 305.804 467.822 305.028 466.708 C 303.996 465.226 304.783 463.236 303.371 461.968 C 302.992 457.363 303.371 452.53 303.255 447.859 C 304.252 446.523 304.007 444.88 304.381 443.391 C 305.342 442.206 305.577 440.375 303.542 440.069 C 299.634 439.268 296.168 437.996 292.362 437.272 C 292.104 437.204 291.693 437.104 291.57 437.231 C 290.449 438.389 288.986 437.707 287.719 438.017 C 285.657 438.838 283.2 438.98 281.83 440.857 C 277.438 443.509 272.867 443.244 267.956 443.134 C 263.658 442.664 264.544 451.468 264.14 454.422 C 263.715 458.653 263.4 463.103 262.477 467.296 C 260.892 477.702 256.805 488.211 248.865 495.588 C 248.223 496.244 247.02 496.416 246.513 497.124 C 245.575 498.436 243.78 498.414 242.909 499.818 C 241.344 501.342 238.579 501.354 236.55 502.072 C 235.11 502.958 233.539 503.054 231.893 503.106 C 225.5 505.021 218.37 503.519 211.701 503.928 C 209.827 502.846 207.828 503.47 205.971 502.221 C 204.594 501.105 201.775 501.378 200.49 499.945 C 199.545 498.721 197.792 498.724 196.978 497.225 C 196.468 496.286 195.004 495.89 194.407 494.966 C 189.785 489.685 187.62 482.707 186.21 475.912 C 183.874 465.752 184.084 455.264 184.23 444.902 C 184.209 444.101 183.939 443.865 183.183 443.876 C 179.904 443.97 176.718 444.068 173.591 443.112 C 172.685 442.892 171.697 443.43 170.853 442.319 C 165.399 438.905 157.931 437.344 152.011 440.788 C 149.618 441.318 147.06 441.128 148.9 444.297 C 149.317 448.02 148.968 451.897 149.044 455.667 C 148.547 456.947 148.241 458.321 148.148 459.728 C 148.066 460.273 148.305 460.98 147.459 461.188 C 147.041 463.658 145.699 465.981 145.174 468.609 C 141.621 475.445 140.485 482.999 138.446 490.271 C 137.105 495.805 137.154 501.82 137.064 507.594 C 143.373 519.024 144.084 504.604 145.495 499.432 C 146.171 497.863 145.766 495.833 147.058 494.674 C 146.687 492.86 148.135 491.5 148.247 489.775 C 148.467 488.656 148.75 486.752 149.719 486.099 C 149.902 486.165 150.17 486.397 150.159 486.54 C 150.481 488.944 149.688 490.399 149.216 492.643 C 149.448 495.941 148.25 498.991 148.164 502.26 C 148.415 503.793 147.05 504.602 147.197 506.261 C 147 507.315 147.467 508.42 146.422 509.434 C 145.911 509.93 146.225 511.269 146.15 512.225 C 146.119 513.923 144.829 515.151 145.534 517.12 C 145.739 518.297 146.397 519.489 147.067 520.434 C 146.781 521.866 147.709 522.974 148.312 524.025 C 148.894 525.04 148.77 526.434 149.925 527.125 C 152.975 534.348 156.73 541.393 158.206 549.279 C 158.318 549.984 158.029 550.811 158.943 551.26 C 159.378 552.45 159.016 554.204 159.228 555.515 C 159.302 556.458 158.942 557.528 159.977 558.25 C 160.149 558.37 160.098 558.853 160.098 559.169 C 159.686 566.475 161.065 574.133 159.263 581.186 C 158.784 583.773 160.067 587.072 158.41 589.185 C 158.257 589.275 158.281 589.704 158.27 589.979 C 158.552 593.891 157.158 597.359 157.155 601.281 C 155.865 608.309 154.982 615.576 154.122 622.665 C 153.365 625.591 148.701 623.389 146.329 624.036 C 146.304 623.136 146.011 622.393 146.925 621.897 C 147.402 620.629 147.04 619.137 147.225 617.775 C 147.261 617.057 147.025 616.246 147.909 615.777 C 148.16 613.303 148.435 610.838 149.062 608.375 C 149.368 606.455 148.784 604.44 149.956 602.583 C 150.244 599.259 151.134 596.003 151.292 592.546 C 152.621 589.723 151.344 586.257 153.021 583.815 C 153.717 580.923 152.259 577.291 153.951 574.731 C 154.148 574.577 154.084 574.049 154.085 573.693 C 153.72 566.702 155.09 559.385 153.278 552.637 C 152.883 550.792 153.959 548.305 152.371 546.943 C 151.697 543.807 151.195 540.619 149.63 537.744 C 148.79 536.578 149.041 534.369 148.021 533.597 C 147.023 532.817 147.743 531.313 146.443 530.963 C 145.118 527.475 143.367 523.933 142.091 520.482 C 140.491 518.551 142.069 515.895 140.052 514.36 C 137.193 512.279 134.473 510.11 132.236 507.346 C 130.547 506.716 128.652 507.274 126.886 506.284 C 105.783 501.931 89.442 485.797 78.064 467.813 C 74.645 462.775 71.429 457.427 67.458 452.958 C 64.938 449.746 63.629 444.013 66.695 440.764 C 68.849 438.038 71.179 435.577 73.023 432.547 C 73.436 431.564 73.578 430.233 74.311 429.676 C 75.328 428.903 74.686 427.391 75.92 426.923 C 76.513 426.034 76.658 424.833 77.203 423.89 C 81.667 415.794 86.304 408.176 91.304 400.477 C 97.844 391.308 105.506 382.753 112.373 373.642 C 113.328 370.671 115.547 368.105 117.994 366.045 C 118.905 364.864 120.708 364.851 121.402 363.372 C 121.573 363.008 121.986 362.682 122.365 362.507 C 123.206 362.12 122.934 361.03 123.32 360.731 C 124.735 359.634 123.608 357.701 124.878 356.633 C 125.065 356.476 125.043 356.031 125.058 355.717 C 125.428 353.735 124.418 351.357 125.96 349.758 C 126.504 348.998 125.751 347.39 126.998 346.921 C 127.333 346.291 127.214 345.069 127.159 344.352 C 126.804 342.77 128.134 341.747 128.42 340.365 C 128.531 339.829 129.698 339.592 130.142 339.028 C 131.253 337.614 133.13 338.261 134.408 337.297 C 134.725 337.058 135.42 337.219 135.909 337.334 C 137.104 337.906 138.497 337.751 139.406 338.821 C 139.798 339.494 141.719 339.135 142.253 338.425 C 149.072 333.468 159.814 343.103 163.191 348.804 C 164.025 353.553 162.129 355.799 160.227 359.772 C 160.21 362.621 159.027 365.586 156.471 367.078 C 153.413 369.703 149.705 371.352 146.066 372.943 C 145.019 373.071 143.895 372.851 143.077 373.835 C 142.104 374.318 140.598 373.608 139.798 374.782 C 135.86 375.2 133.436 379.2 132.04 382.633 C 129.349 386.486 127.079 390.732 125.045 394.944 C 123.108 398.282 122.298 402.127 120.396 405.524 C 119.269 408.782 118.783 412.234 117.458 415.299 C 116.703 416.122 117.882 418.556 116.484 419.187 C 115.882 420.411 116.593 422.257 115.391 423.409 C 115.003 424.594 115.552 426.213 114.503 427.356 C 113.812 428.737 114.667 430.921 113.451 432.334 C 112.304 436.026 114.753 434.789 117.292 434.43 C 123.297 433.596 129.951 434.431 135.652 436.204 C 138.017 437.195 140.08 437.307 142.096 438.935 C 143.899 439.862 145.206 438.741 146.809 438.047 C 147.336 437.898 148.067 438.137 148.226 437.278 C 151.411 435.931 154.999 434.798 158.539 434.312 C 159.792 434.218 161.153 433.718 162.314 434.732 C 164.356 434.932 166.415 435.306 168.262 436.217 C 170.48 436.555 171.582 438.945 174.014 439.077 C 183.43 438.654 194.97 441.099 201.164 432.352 C 201.923 423.446 199.226 426.342 195.364 418.952 C 194.196 416.302 195.055 410.682 191.825 409.84 C 187.631 406.181 189.437 407.11 183.734 406.934 C 181.518 406.321 179.489 405.264 178.02 403.53 C 176.942 402.753 177.692 401.258 176.407 400.743 C 176.162 400.645 176.307 399.692 176.181 399.154 C 175.949 394.13 170.89 391.132 171.253 386.045 C 171.276 385.482 171.902 384.898 172.05 384.386 C 171.948 382.165 173.577 380.562 174.95 379.072 C 177.241 377.155 175.156 377.906 175.257 375.731 C 172.255 365.108 179.216 354.541 188.346 349.379 C 189.811 348.09 188.804 346.537 189.928 345.108 C 190.91 341.441 192.133 337.6 194.919 334.901 C 198.549 330.257 207.848 322.288 213.495 326.775 C 213.862 327.155 216.261 326.585 216.97 326.055 C 226.592 323.011 238.111 323.831 246.49 329.637 C 255.753 334.873 262.842 343.732 266.905 353.319 C 267.828 355.438 266.265 358.536 267.981 360.281 C 268.588 365.901 274.279 370.143 273.138 376.379 C 273.18 377.036 272.765 377.979 273.927 378.183 C 274.211 379.613 275.421 380.914 275.142 382.568 C 275.364 386.79 272.25 389.974 269.972 393.343 C 269.047 395.703 269.354 398.191 268.027 400.392 C 267.152 401.732 262.366 400.316 263.836 403.314 C 264.25 405.725 263.343 408.477 261.664 410.167 C 260.535 411.725 258.006 410.68 258.012 413.281 C 258.002 425 250.242 425.272 251.101 430.055 C 249.239 443.759 267.649 437.675 275.9 438.967 C 277.145 438.971 277.891 438.002 278.523 437.162 C 280.393 437.05 281.438 435.346 283.208 434.802 C 287.11 434.125 290.696 432.179 294.563 433.236 C 299.109 433.509 302.702 435.49 306.807 437.132 C 310.851 439.663 309.567 441.07 314.636 438.358 C 324.692 434.992 335.573 430.896 346.269 433.754 C 346.747 433.865 347.433 433.967 347.731 433.719 C 348.012 433.485 348.142 432.527 347.932 432.338 C 346.963 431.465 347.281 430.354 347.163 429.328 C 346.629 426.502 346.176 423.577 345.246 420.806 C 345.044 419.65 345.497 418.384 344.42 417.362 C 344.091 417.05 344.324 416.2 344.185 415.624 C 343.454 413.329 343.206 410.988 342.206 408.811 C 342.045 408.126 342.321 407.242 341.344 406.925 C 340.811 405.637 340.816 404.011 340.058 402.853 C 338.461 399.165 336.21 395.579 334.118 392.101 C 333.26 390.944 331.966 389.934 331.585 388.646 C 331.075 386.921 329.225 386.21 328.947 384.387 C 328.865 383.681 327.494 383.297 327.28 382.5 C 326.34 379.89 323.525 378.543 321.962 376.267 C 320.469 376 319.406 375.09 318.209 374.277 C 315.75 374.032 313.377 373.646 311.036 372.775 C 310.368 372.695 309.295 372.216 309.018 371.212 C 307.011 369.927 304.739 370.499 302.801 369.252 C 298.089 369.044 293.517 365.592 292.914 360.714 C 292.716 359.813 292.704 358.373 291.401 357.833 C 291.165 357.385 291.025 356.509 290.54 356.089 C 289.682 353.543 288.17 350.069 290.904 347.853 C 292.595 345.629 294.902 343.731 297.115 342.021 C 297.924 339.223 299.177 335.908 302.26 335.091 C 304.821 334.722 307.074 335.298 309.247 336.704 C 311.523 337.302 314.021 336.693 316.338 337.056 C 320.317 337.905 322.849 341.128 324.361 344.715 C 326.233 347.321 328.078 349.838 329.36 352.626 C 329.381 352.815 329.918 352.898 330.072 353.127 C 331.969 356.93 335.013 359.381 338.352 361.812 C 339.036 362.788 339.733 363.785 340.434 364.695 C 341.147 365.62 340.746 367.009 341.958 367.615 C 342.185 367.728 342.039 368.586 342.066 369.101 C 340.773 369.101 340.956 367.759 340.329 367.135 C 337.498 362.175 331.216 360.447 328.859 355.011 C 323.837 349.968 320.374 335.82 310.859 339.725 C 308.736 340.734 307.235 337.311 304.856 337.976 C 303.165 337.81 300.789 338.686 300.257 340.444 C 300.085 345.836 288.074 348.635 293.764 354.334 C 295.664 355.447 295.807 356.451 298.164 356 C 298.36 355.103 297.56 350.328 299.035 351.508 C 300.126 353.138 299.228 357.679 301.917 356.963 C 302.298 356.414 302.613 355.959 302.934 355.497 C 301.904 354.44 301.786 352.255 302.66 351.2 C 304.556 354.501 305.096 360.295 310.326 358.946 C 309.345 351.44 307.205 352.677 313.85 347.044 C 315.193 348.741 313.431 350.371 312.446 351.534 C 312.842 352.01 313.22 352.465 313.677 353.014 C 316.11 353.209 316.43 349.918 317.656 348.338 C 320.122 351.188 314.962 353.301 317.185 355.834 C 315.068 356.299 314.168 354.934 312.522 354.03 C 310.456 358.178 314.763 362.568 319.04 361.984 C 319.331 360.844 320.534 360.164 319.595 359.015 C 319.366 358.449 318.913 357.275 319.946 357.205 C 320.158 358.106 321.409 358.385 321.226 359.595 C 321.088 361.512 321.357 363.347 320.265 365.057 C 316.241 365.8 317.353 366.698 313.464 364.655 C 311.126 361.719 306.503 364.576 304.5 361.05 C 303.956 360.359 303.54 359.865 302.886 360.898 C 300.094 361.856 297.68 360.078 295.382 359.081 C 294.766 365.43 302.475 364.842 306.447 366.98 C 307.121 367.128 307.811 366.969 308.243 367.836 C 310.526 369.871 314.498 369.733 317.464 369.954 C 319.414 370.453 321.806 369.243 321.053 367.069 C 319.821 366.692 320.332 365.767 320.234 365.025 C 320.472 365.049 320.89 365.015 320.92 365.106 C 321.22 366.037 322.08 365.97 322.765 366.213 C 323.822 367.302 324.868 368.247 326.52 368.187 C 328.905 369.63 329.106 368.347 329.537 366.151 C 329.728 366.172 329.919 366.193 330.11 366.214 C 329.976 370.364 329.866 372.644 333.617 375.107 C 336.306 377.549 338.171 380.878 339.915 384.033 C 340.48 384.905 341.592 385.757 341.121 387.099 L 341.149 387.072 C 340.092 387.599 340.303 386.507 339.947 386.134 C 339.201 385.352 338.208 384.747 338.124 383.5 C 334.496 378.822 330.285 373.366 324.192 372.179 C 324.327 372.856 324.254 373.71 324.645 374.171 C 328.97 377.943 333.128 382.264 336.476 386.944 C 341.794 393.279 346.703 401.482 351.111 408.809 C 352.497 412.85 355.427 415.78 356.467 419.891 C 357.781 420.173 356.864 421.866 357.443 422.542 C 358.552 423.377 358.612 425.192 357.685 425.981 C 355.952 423.184 353.277 414.984 350.42 414.231 C 351.412 419.245 354.108 424.148 355.525 429.309 C 357.428 434.564 358.994 440.559 363.019 444.668 C 362.553 445.018 362.095 445.362 361.637 445.705 C 360.404 444.347 358.124 444.462 356.489 443.838 C 355.312 442.085 355.601 444.063 354.511 443.835 C 350.464 437.804 352.422 439.575 345.38 437.904 C 342.221 436.397 335.123 436.736 331.816 437.954 C 323.716 439.347 315.637 442.193 308.328 445.55 C 304.564 456.735 309.69 467.17 313.184 477.494 C 313.781 479.149 313.923 480.995 314.439 482.659 C 315.885 483.448 314.709 485.691 315.527 486.661 C 316.268 487.182 316.09 487.815 316.164 488.443 C 316.356 491.477 317.447 493.943 317.255 497.118 C 323.24 495.504 329.302 494.888 334.95 492.108 C 342.605 488.762 349.984 484.134 356.506 478.908 C 367.058 468.183 376.4 456.324 387.587 446.216 C 389.471 444.906 389.272 442.633 389.166 440.577 C 389.46 438.95 388.411 437.954 387.347 436.696 C 385.684 433.152 384.099 429.181 381.957 426.063 C 381.148 425.763 381.372 425.15 381.15 424.656 C 380.942 424.194 380.503 423.842 380.255 423.393 C 377.053 417.542 373.586 411.783 369.982 406.232 C 367.001 402.846 364.35 399.04 361.967 395.2 C 360.497 394.144 360.066 392.379 358.896 391.107 C 358.109 390.346 357.168 389.727 357.08 388.487 C 352.551 381.754 345.857 376.026 342.031 369.062 L 342.023 369.061 Z  M 199.324 376.011 C 197.378 376.746 197.986 380.134 196.874 381.769 C 195.861 382.621 195.145 383.531 194.968 384.894 C 193.653 385.326 194.29 386.346 194.268 387.164 C 193.12 386.87 192.741 387.903 192.104 388.454 C 188.362 392.788 182.723 394.302 177.079 393.969 C 177.216 394.746 177.146 395.732 177.463 395.878 C 178.693 396.451 177.85 398.097 178.404 398.834 C 180.496 403.875 185.916 404.623 188.794 399.719 C 188.008 398.481 188.239 397.611 189.375 396.983 C 192.605 394.616 193.769 390.982 194.238 387.135 C 198.804 389.633 197.904 395.715 196.221 399.791 C 196.277 403.082 195.965 406.597 196.346 409.812 C 197.585 410.876 196.839 412.453 197.274 413.742 C 198.874 416.138 199.05 419.155 201.096 421.235 C 202.206 422.813 208.643 429.279 210.288 427.616 C 210.094 426.854 208.212 424.033 210.205 425.48 C 213 427.344 215.167 429.938 218.161 431.363 C 223.342 432.764 229.756 431.95 235.197 431.714 C 235.764 431.409 236.51 430.94 237.094 430.919 C 237.4 429.598 239.062 430.246 239.601 429.126 C 241.339 427.748 242.938 425.919 244.373 424.14 C 244.489 424.01 244.881 424.125 245.145 424.127 L 245.116 424.096 C 245.144 424.687 245.172 425.278 245.209 426.071 C 247.521 424.966 249.928 424.288 251.381 422.184 C 255.069 419.52 253.599 415.05 255.04 411.296 C 255.972 406.088 257.333 400.398 257.064 394.807 C 257.024 393.121 256.851 391.284 257.764 389.785 C 258.157 388.633 259.47 387.473 258.634 386.248 C 256.737 384.356 257.476 381.586 256.157 379.374 C 253.878 374.069 245.574 371.053 241.377 375.899 C 239.214 377.074 237.928 379.832 235.378 380.057 C 233.059 380.233 231.375 379.772 233.159 377.353 C 234.635 375.961 236.402 375.605 238.023 374.59 C 238.852 373.634 239.78 373.016 240.982 372.58 C 241.849 372.079 242.729 371.141 243.583 371.163 C 247.476 370.366 251.664 371.43 254.261 374.85 C 256.069 375.091 254.722 371.554 255.081 370.29 C 253.849 369.125 252.414 368.082 251.225 366.85 C 247.242 363.023 244.739 357.938 241.323 353.882 C 236.665 348.798 232.228 347.519 226.216 351.039 C 223.403 350.641 220.966 349.944 218.061 349.761 C 217.195 344.999 221.203 340.954 225.864 340.942 C 226.555 340.21 230.238 339.613 230.911 340.29 C 232.173 341.886 234.36 340.014 235.367 341.894 C 235.608 342.14 236.685 341.925 236.963 342.197 C 239.148 343.718 241.733 344.927 243.592 346.832 C 247.033 348.925 250.771 351.03 253.599 353.843 C 256.522 355.283 258.508 357.877 260.844 360.071 C 261.697 361.35 260.112 361.003 259.754 360.142 C 257.46 359.535 256.582 357.279 254.661 356.157 C 253.908 355.667 252.83 355.406 252.413 354.727 C 251.544 353.312 249.78 353.233 248.871 351.98 C 246.348 350.361 244.02 348.405 241.271 347.063 C 238.843 346.472 236.82 344.353 234.446 344.224 C 231.171 344.161 226.851 342.935 224.187 345.313 C 224.344 346.455 225.996 345.96 226.706 345.662 C 241.962 341.536 247.353 359.765 256.203 368.212 C 257.418 369.128 258.053 370.712 259.732 371.18 C 261.536 372.914 263.554 374.506 265.938 375.449 C 266.907 376.994 269.282 375.765 269.16 374.153 C 268.964 372.327 269.643 370.432 268.283 368.696 C 267.477 367.778 267.573 366.163 266.911 365.12 C 264.194 362.417 264.527 357.84 263.215 354.28 C 261.827 348.133 257.242 343.65 253.126 339.149 C 251.895 338.006 250.198 337.217 249.338 335.87 C 248.676 334.833 247.167 335.436 246.927 334.067 C 239.712 328.757 230.853 327.26 221.985 328.108 C 221.185 328.175 220.482 328.817 219.716 328.983 C 219.017 329.122 217.883 328.846 217.644 329.211 C 216.848 330.429 215.345 329.815 214.42 330.792 C 213.74 331.51 212.456 331.633 211.479 332.099 C 208.633 333.535 206.195 336.392 205.139 339.386 C 203.895 341.48 203.857 343.98 204.847 346.176 C 204.753 347.629 203.092 346.981 202.728 346.075 C 199.909 343.652 201.345 339.371 202.305 336.414 C 204.088 334.272 205.658 331.736 208.069 330.49 C 204.339 328.746 200.038 334.705 197.373 337.045 C 195.438 340.279 193.074 344.195 193.419 347.969 C 195.353 347.524 197.156 346.537 199.166 347.359 C 198.709 348.629 197.297 348.889 196.231 349.208 C 195.338 350.426 193.712 350.059 192.629 351.001 C 191.853 351.676 190.616 351.818 189.588 352.209 C 188.267 353.821 186.373 354.61 184.933 355.98 C 183.169 357.641 182.058 359.567 180.979 361.698 C 178.224 365.722 176.321 373.474 180.423 376.994 C 187.591 376.949 197.099 373.994 199.209 366.272 C 199.46 365.307 199.253 361.385 198.071 363.881 C 194.986 365.942 191.937 369.122 188.215 369.907 C 190.366 365.489 196.124 362.931 198.537 358.311 C 200.636 356.606 201.277 354.032 203.135 352.098 C 204.561 350.496 206.943 347.754 209.163 348.352 C 208.796 350.565 205.401 351.178 205.164 353.567 C 202.384 358.181 200.914 363.478 201.132 368.885 C 200.365 371.331 198.577 373.252 199.282 376.046 L 199.316 376.01 L 199.324 376.011 Z  M 98.168 443.974 C 97.756 441.122 99.024 440.79 101.057 438.92 C 101.848 438.439 102.432 437.479 103.258 437.229 C 104.322 436.907 104.096 436.05 104.457 435.45 C 106.522 431.953 107.858 428.086 109.29 424.334 C 110.545 423.317 109.863 421.636 111.022 420.431 C 113.127 415.394 114.409 408.253 111.722 403.06 C 110.407 405.48 108.223 407.093 106.915 409.551 C 106.348 411.139 104.33 411.678 104.099 413.471 C 103.539 414.512 102.738 415.479 102.105 416.497 C 101.233 418.289 99.55 419.841 99.017 421.728 C 97.896 422.431 97.852 423.785 97.139 424.724 C 96.027 425.761 96.418 423.755 96.63 423.159 C 100.67 413.879 106.386 405.366 112.217 396.901 C 115.867 391.541 118.456 386.514 121.568 380.839 C 122.111 379.771 122.891 378.736 123.089 377.602 C 123.88 374.18 129.29 373.97 123.163 371.613 C 123.224 371.276 123.32 370.745 123.416 370.214 C 124.959 371.148 127.822 371.831 129.382 370.23 C 132.331 370.021 133.988 366.506 135.891 364.803 C 135.361 362.517 134.187 360.977 133.315 358.927 C 133.033 358.155 133.413 357.188 132.542 356.541 C 132.35 356.398 132.471 355.833 132.43 355.156 C 133.302 355.829 133.914 356.301 134.526 356.773 C 134.478 356.868 134.43 356.962 134.381 357.057 L 136.248 357.057 L 136.248 353.077 C 137.987 352.794 140.391 353.336 140.068 355.457 C 139.094 356.327 138.758 358.032 137.877 358.816 C 136.758 359.55 137.193 359.953 137.886 360.436 C 140.417 362.01 143.006 360.247 145.17 358.703 C 146.061 355.005 143.914 352.756 141.313 350.303 C 143.383 349.643 144.721 351.857 146.003 353.084 C 147.638 354.67 147.088 356.758 147.187 358.945 C 148.47 358.909 149.542 359.664 150.551 358.195 C 151.72 356.951 152.985 355.849 153.581 354.142 C 154.58 353.668 154.219 352.688 153.82 352.379 C 152.784 351.169 153.208 349.799 152.63 348.295 C 152.893 348.249 153.411 348.157 154.09 348.038 C 155.517 351.239 154.932 353.891 155.509 357.227 C 157.921 355.058 162.426 351.719 159.291 348.671 C 159.573 347.543 158.62 346.819 158.05 346.378 C 156.282 344.43 154.108 343.121 152.169 341.336 C 149.754 339.342 145.446 339.336 143.107 341.402 C 140.846 343.38 139.304 340.858 137.533 340.162 C 131.985 339.11 129.145 342.169 128.871 347.613 C 126.63 352.104 126.615 357.237 125.359 362.17 C 124.493 365.105 122.172 366.54 119.752 367.781 C 116.263 370.228 113.927 373.821 112.077 377.586 C 101.186 391.994 89.011 406.056 81.043 422.622 C 78.925 424.489 78.36 427.409 76.907 429.713 C 76.192 430.633 75.168 431.322 75.109 432.64 C 73.918 433.952 72.844 435.438 71.857 436.908 C 69.202 439.265 66.834 443.014 68.953 446.615 C 71.18 449.47 73.489 452.836 75.376 455.847 C 87.162 470.936 97.45 489.974 116.535 497.152 C 118.852 498.932 121.829 499.504 124.709 500.221 C 125.383 500.905 126.096 501.147 127.034 501.074 C 127.666 501.143 128.527 500.978 128.888 501.328 C 129.913 502.344 132.678 502.466 133.201 501.42 C 133.607 491.55 135.815 481.818 139.21 472.56 C 141.468 464.139 147.657 455.078 144.384 446.128 C 144.332 442.558 138.571 441.703 135.833 440.929 C 134.472 439.799 132.848 440.139 131.249 439.778 C 122.956 438.022 114.156 438.559 105.985 440.865 C 102.874 441.317 101.212 444.345 98.167 443.975 L 98.168 443.974 Z  M 187.584 444.398 C 188.918 455.932 187.064 467.378 190.977 478.536 C 192.351 483.806 194.454 489.092 198.354 493.251 C 201.671 495.766 205.614 499.048 209.98 499.119 C 213.554 500.857 217.795 499.853 221.732 500.1 C 227.11 500.108 233.195 499.966 237.651 497.144 C 245.771 495.363 251.444 487.779 254.422 480.467 C 255.661 479.699 254.942 478.184 255.98 477.269 C 256.997 475.391 257.152 472.657 257.956 470.398 C 259.682 464.405 259.891 457.76 260.407 451.607 C 261.543 450.677 261.011 449.403 261.181 448.278 C 261.245 447.854 261.176 447.221 261.423 447.048 C 262.514 446.282 262.141 445.181 262.181 444.205 C 262.108 442.342 258.983 443.215 257.728 443.091 C 246.23 440.26 254.283 436.631 244.488 447.126 C 243.74 443.888 246.34 440.461 247.063 437.29 C 247.411 435.909 247.198 434.406 248.045 433.11 C 248.392 431.914 246.964 431.773 246.364 432.313 C 243.261 437.332 239.488 442.41 237.071 447.553 C 235.727 448.883 236.672 445.633 237.1 445.248 C 236.727 443.689 237.843 442.441 238.435 441.402 C 239.224 440.017 238.78 438.281 240.052 437.132 C 240.474 436.751 240.545 435.981 240.811 435.305 C 238.552 434.188 238.982 437.514 237.32 438.177 C 235.976 439.16 235.932 441.798 234.865 443.025 C 233.373 444.761 232.764 446.97 231.897 448.962 C 230.765 449.027 231.398 450.341 231.067 450.888 C 229.571 451.653 230.584 453.527 229.367 454.544 C 228.052 456.557 227.84 459.616 226.993 461.962 L 225.284 461.962 C 225.022 454.433 226.587 447.434 226.321 439.874 C 226.448 438.581 225.22 438.979 224.388 438.936 C 222.08 438.967 222.141 438.967 222.149 441.34 C 221.559 447.394 223.539 454.271 220.93 459.822 C 216.49 460.408 218.888 434.887 213.161 435.24 C 213.211 436.097 212.924 437.359 213.384 437.756 C 214.259 438.511 214.037 439.364 214.233 440.194 C 214.303 440.49 214.348 440.86 214.545 441.048 C 215.499 441.955 215.035 442.914 214.788 443.896 C 211.851 440.539 211.469 434.661 207.26 432.862 C 208.334 440.315 212.698 447.102 212.267 454.992 L 210.401 454.992 C 208.819 452.7 208.72 449.881 207.882 447.358 C 207.076 447.068 207.196 446.359 207.188 445.758 C 206.388 442.505 204.958 439.465 203.941 436.225 C 200.528 438.452 198.073 441.42 193.83 442.123 C 193.681 442.171 193.423 442.191 193.4 442.274 C 192.533 443.841 189.943 442.688 188.54 443.014 C 188.108 443.64 187.785 444.109 187.585 444.398 L 187.584 444.398 Z  M 196.159 374.897 C 195.466 375.37 195.087 375.834 194.665 375.877 C 193.444 376.07 192.76 377.436 191.388 377.172 C 191.028 378.346 189.998 377.916 189.216 378.087 C 187.351 378.494 185.555 379.294 183.576 379.06 C 181.095 380 178.978 381.174 176.778 382.738 C 175.124 384.596 173.756 386.551 175.128 388.824 C 175.782 392.191 180.059 390.907 182.533 390.897 C 185.25 390.429 187.245 388.41 189.188 386.711 C 190.999 384.214 193.544 382.04 194.427 379.117 C 195.316 379.023 195.105 378.304 195.236 377.776 C 195.29 377.557 195.336 377.183 195.45 377.155 C 196.818 376.83 195.902 375.905 196.157 374.898 L 196.159 374.897 Z  M 267.616 390.034 C 269.128 389.14 270.666 386.477 271.234 384.837 C 270.99 382.558 272.336 379.07 269.456 378.293 C 267.626 378.478 265.556 379.619 264.034 377.811 C 262.671 376.213 260.452 375.933 259.168 374.323 C 258.41 373.633 258.081 374.904 258.439 375.419 C 259.634 376.592 258.905 378.42 259.5 379.688 C 260.592 380.286 259.786 381.879 261.067 382.489 C 262.486 385.269 265.746 387.269 267.618 390.035 L 267.616 390.034 Z  M 156.81 358.94 C 156.423 359.444 156.239 359.891 156.055 359.891 C 154.265 359.891 153.457 361.43 152.438 362.406 C 148.646 366.011 142.811 362.46 138.429 365.035 C 137.758 365.494 137.448 366.49 136.753 366.854 C 135.751 367.411 136.081 368.27 136.246 368.911 C 137.305 370.978 140.309 369.782 142.197 369.997 C 143.886 369.455 145.055 367.837 147.076 368.022 C 148.729 368.042 150.328 367.137 151.866 366.761 C 152.688 365.627 154.022 365.293 155.02 364.56 C 156.029 362.493 158.195 361.413 156.811 358.94 L 156.81 358.94 Z  M 261.747 388.324 C 261.799 388.222 261.85 388.12 261.902 388.018 C 261.41 388.118 260.918 388.217 260.425 388.317 C 261.761 389.918 260.491 391.963 262.039 393.58 C 263.022 394.743 262.831 396.811 264.792 397.106 C 267.734 391.969 265.108 391.754 261.747 388.325 L 261.747 388.324 Z  M 261.179 401.366 C 259.244 398.552 257.946 402.158 258.205 404.038 C 258.092 405.14 259.294 405.187 259.545 405.958 C 261.564 405.661 261.134 402.9 261.178 401.366 L 261.179 401.366 Z  M 191.812 403.799 C 193.299 402.925 194.078 398.794 191.661 399.07 C 191.017 399.097 190.151 398.877 190.127 400.029 C 190.096 401.502 189.917 403.005 191.812 403.799 Z  M 134.971 359.849 C 135.241 360.252 135.45 360.566 135.66 360.88 C 136.012 360.193 136.403 359.64 135.605 359.074 C 135.418 359.302 135.231 359.53 134.97 359.849 L 134.971 359.849 Z " fill="rgb(0,0,0)"/><path d=" M 281.494 573.923 C 281.203 566.066 281.74 558.359 281.066 550.41 C 280.139 547.906 280.23 545.265 279.21 542.787 C 279.037 541.816 279.494 540.667 278.371 539.962 C 278.26 539.892 278.269 539.593 278.263 539.399 C 278.358 536.817 277.331 533.65 279.866 531.945 C 280.912 531.416 283.851 526.032 284.213 528.871 C 284.648 531.962 283.213 535.779 284.986 538.406 C 285.178 538.537 285.117 539.085 285.118 539.44 C 285.713 551.202 284.389 562.524 281.765 573.921 C 281.675 573.921 281.585 573.922 281.494 573.923 L 281.494 573.923 Z " fill="rgb(0,0,0)"/><path d=" M 179.148 576.692 C 179.294 577.258 179.093 577.676 178.72 578.096 C 176.434 574.969 175.743 571.018 173.505 567.822 C 172.832 566.529 173.032 564.375 172.031 563.567 C 170.687 562.472 171.923 560.542 170.336 559.777 C 169.95 558.949 170.598 557.435 169.39 556.915 C 168.148 552.252 166.853 547.396 166.137 542.58 C 164.727 541.761 165.855 539.694 164.341 538.92 C 164.053 537.141 162.993 535.678 162.003 534.261 C 161.573 533.685 160.559 532.685 161.507 532.103 C 164.98 534.828 166.215 540.133 169.863 543.044 C 171.044 544.195 173.229 544.753 173.102 546.72 C 172.944 552.39 173.769 558.281 175.412 563.668 C 176.026 564.886 175.667 566.408 176.36 567.18 C 177.491 568.439 176.487 570.311 177.963 571.317 C 178.478 572.398 177.715 574.229 178.974 575.19 C 179.258 575.407 179.121 576.174 179.177 576.688 C 179.167 576.688 179.157 576.69 179.148 576.691 L 179.148 576.692 Z " fill="rgb(0,0,0)"/><path d=" M 173.331 465.595 C 173.74 460.211 172.145 453.853 174.687 449.048 C 176.016 458.917 174.574 470.062 176.313 480.324 C 177.65 481.871 176.513 484.065 177.362 485.442 C 178.361 487.061 177.464 489.094 178.939 490.412 C 179.418 492.297 179.547 494.382 180.344 496.139 C 180.99 498.278 181.743 500.482 183.019 502.292 C 182.683 503.615 183.913 504.338 184.286 505.397 C 184.63 507.31 186.565 508.439 187.222 510.344 C 185.947 512.986 181.408 503.865 180.321 502.715 C 174.556 491.448 172.673 478.513 173.214 465.596 C 173.253 465.596 173.292 465.596 173.332 465.596 L 173.331 465.595 Z " fill="rgb(0,0,0)"/><path d=" M 263.678 507.064 C 262.664 505.259 263.371 502.369 264.029 500.732 C 264.478 498.334 263.6 495.656 264.952 493.503 C 265.574 491.944 264.796 490.037 265.915 488.486 C 266.659 487.103 265.559 485.081 266.956 483.797 C 267.734 482.902 266.461 480.535 267.845 479.722 C 268.508 478.57 267.699 476.55 268.324 475.402 C 270.639 466.092 270.732 456.682 271.429 447.212 C 271.55 447.205 271.671 447.198 271.792 447.191 C 272.669 450.195 271.729 453.403 272.858 456.393 C 273.318 457.724 273.526 459.415 272.619 460.871 C 271.926 467.636 272.138 474.904 269.941 481.46 C 267.771 490.205 266.87 498.744 263.679 507.063 L 263.678 507.064 Z " fill="rgb(0,0,0)"/><path d=" M 168.462 476.649 C 168.41 473.376 167.626 470.427 167.222 467.22 C 167.139 461.549 167.621 455.464 168.824 450.104 C 169.834 458.607 169.196 467.923 169.008 476.645 C 168.826 476.647 168.644 476.649 168.463 476.65 L 168.462 476.649 Z " fill="rgb(0,0,0)"/><path d=" M 342.023 369.061 C 345.848 376.023 352.543 381.755 357.071 388.487 C 357.161 389.725 358.101 390.345 358.888 391.106 C 360.058 392.381 360.488 394.139 361.959 395.199 C 364.343 399.041 366.991 402.846 369.973 406.231 C 373.578 411.784 377.043 417.54 380.246 423.392 C 380.494 423.842 380.934 424.194 381.141 424.655 C 381.363 425.149 381.139 425.762 381.948 426.062 C 384.09 429.181 385.674 433.149 387.339 436.694 C 388.383 437.954 389.474 438.946 389.158 440.576 C 389.255 442.63 389.472 444.906 387.578 446.213 C 376.392 456.322 367.051 468.182 356.5 478.908 C 349.98 484.13 342.593 488.765 334.942 492.107 C 329.293 494.885 323.234 495.501 317.247 497.117 C 317.439 493.943 316.348 491.478 316.156 488.442 C 316.082 487.814 316.26 487.18 315.519 486.66 C 314.705 485.675 315.878 483.45 314.432 482.658 C 313.916 480.994 313.774 479.149 313.176 477.494 C 309.685 467.173 304.553 456.73 308.323 445.551 C 315.631 442.192 323.709 439.349 331.809 437.955 C 335.171 436.723 342.156 436.409 345.374 437.904 C 352.316 439.56 350.492 437.805 354.504 443.836 C 355.6 444.076 355.29 442.075 356.482 443.839 C 358.123 444.461 360.388 444.35 361.63 445.706 C 362.088 445.363 362.546 445.019 363.012 444.669 C 358.988 440.563 357.421 434.564 355.517 429.311 C 354.101 424.151 351.404 419.246 350.413 414.233 C 353.261 414.974 355.946 423.185 357.678 425.983 C 358.622 425.225 358.528 423.349 357.437 422.544 C 356.851 421.858 357.776 420.177 356.461 419.893 C 355.42 415.779 352.492 412.853 351.105 408.811 C 346.699 401.487 341.788 393.279 336.47 386.946 C 333.122 382.266 328.965 377.946 324.639 374.173 C 324.248 373.712 324.321 372.858 324.186 372.181 C 330.28 373.368 334.49 378.823 338.118 383.501 C 338.201 384.748 339.195 385.353 339.94 386.135 C 340.295 386.508 340.085 387.599 341.141 387.074 C 341.249 387.689 341.357 388.304 341.508 389.156 C 342.319 387.838 342.162 387.352 341.114 387.1 C 341.585 385.759 340.473 384.906 339.908 384.035 C 338.165 380.88 336.299 377.551 333.61 375.109 C 329.867 372.659 329.965 370.348 330.104 366.216 C 329.913 366.195 329.722 366.174 329.531 366.153 C 329.093 368.35 328.908 369.634 326.514 368.188 C 324.862 368.249 323.816 367.304 322.759 366.215 C 322.073 365.972 321.214 366.038 320.914 365.108 C 320.885 365.017 320.466 365.051 320.228 365.027 L 320.26 365.058 C 321.35 363.348 321.083 361.513 321.22 359.596 C 321.403 358.386 320.152 358.107 319.94 357.206 C 318.907 357.276 319.36 358.451 319.589 359.017 C 320.528 360.167 319.325 360.846 319.034 361.986 C 314.755 362.57 310.451 358.18 312.516 354.032 C 314.163 354.936 315.062 356.301 317.179 355.836 C 314.956 353.308 320.116 351.183 317.65 348.34 C 316.424 349.918 316.105 353.211 313.671 353.016 C 313.215 352.467 312.836 352.012 312.44 351.536 C 313.425 350.375 315.188 348.742 313.844 347.046 C 307.188 352.686 309.346 351.451 310.32 358.948 C 305.089 360.297 304.55 354.502 302.654 351.202 C 301.781 352.258 301.898 354.44 302.928 355.499 C 302.607 355.962 302.292 356.416 301.911 356.965 C 299.225 357.685 300.118 353.138 299.028 351.511 C 297.552 350.332 298.354 355.099 298.157 356.002 C 295.801 356.45 295.654 355.454 293.757 354.336 C 288.064 348.629 300.086 345.849 300.249 340.447 C 300.797 338.695 303.149 337.812 304.848 337.979 C 307.225 337.313 308.728 340.736 310.851 339.729 C 320.376 335.829 323.819 349.962 328.851 355.014 C 331.208 360.45 337.491 362.178 340.322 367.138 C 340.948 367.762 340.765 369.104 342.059 369.104 C 342.059 369.104 342.022 369.066 342.022 369.066 L 342.023 369.061 Z  M 321.232 480.08 C 333.757 478.714 345.191 473.011 354.24 464.337 C 355.088 463.82 355.596 462.721 356.932 462.94 C 360.308 463.082 363.575 461.445 366.921 460.963 C 372.021 458.343 377.89 454.747 380.105 449.109 C 377.867 449.326 376.557 452.17 375.075 453.682 C 372.615 455.468 370.224 457.68 367.488 458.993 C 364.234 460.434 360.869 461.351 357.211 461.055 C 354.693 461.581 355.424 459.869 353.952 460.194 C 350.171 463.09 346.567 466.207 342.764 468.893 C 339.428 469.988 336.725 472.581 333.332 473.218 C 332.998 474.584 331.502 474.005 330.667 474.8 C 329.768 475.655 328.167 475.771 326.875 476.215 C 325.741 476.646 324.726 477.813 323.588 477.909 C 322.448 478.001 322.167 479.115 321.237 479.294 C 321.201 479.301 321.232 479.656 321.232 480.08 L 321.232 480.08 Z  M 303.05 348.923 C 304.469 349.403 306.202 346.253 307.145 345.317 C 305.67 344.117 304.25 345.495 303.931 346.962 C 302.627 347.185 303.4 348.212 303.05 348.923 L 303.05 348.923 Z " fill="rgb(233,232,230)"/><path d=" M 245.148 424.128 C 244.884 424.126 244.492 424.011 244.376 424.141 C 242.939 425.919 241.347 427.751 239.604 429.126 C 239.065 430.246 237.403 429.598 237.097 430.919 C 236.488 430.929 235.775 431.413 235.2 431.713 C 229.762 431.953 223.342 432.762 218.164 431.364 C 215.17 429.938 213.002 427.343 210.207 425.48 C 208.214 424.039 210.096 426.844 210.29 427.615 C 208.625 429.275 202.235 422.825 201.099 421.235 C 199.167 418.802 198.062 415.572 197.137 412.68 C 197.01 411.692 197.326 410.597 196.348 409.812 C 195.967 406.596 196.279 403.084 196.222 399.791 C 197.905 395.715 198.804 389.628 194.239 387.135 L 194.27 387.166 C 194.29 386.346 193.653 385.325 194.967 384.894 C 195.145 383.529 195.86 382.622 196.874 381.769 C 197.986 380.132 197.377 376.748 199.322 376.011 C 199.18 377.716 200.412 376.791 201.09 377.049 C 203.327 372.165 209.103 370.873 213.845 373.095 C 217.135 376.161 220.252 379.163 225.108 377.981 L 225.108 374.951 C 223.83 375.667 222.406 376.779 221.132 375.404 C 218.379 372.436 214.791 369.652 210.648 369.157 C 206.319 368.338 201.079 370.367 200.168 374.99 C 200.137 375.518 200.193 376.208 199.288 376.046 C 198.584 373.244 200.37 371.337 201.138 368.885 C 200.919 363.479 202.39 358.18 205.17 353.567 C 205.406 351.178 208.803 350.564 209.169 348.353 C 205.973 347.835 203.453 351.913 201.5 354.116 C 200.923 355.817 199.835 357.086 198.544 358.312 C 196.13 362.931 190.372 365.489 188.221 369.907 C 191.944 369.122 194.991 365.943 198.077 363.882 C 198.262 363.448 198.389 362.806 198.996 363.201 C 199.904 365.33 198.963 368.129 197.474 369.821 C 193.721 374.975 186.532 376.943 180.429 376.995 C 176.322 373.472 178.235 365.724 180.984 361.699 C 182.062 359.567 183.176 357.643 184.938 355.98 C 186.378 354.611 188.272 353.822 189.593 352.209 C 190.621 351.819 191.859 351.677 192.634 351.001 C 193.717 350.058 195.343 350.426 196.236 349.208 C 197.297 348.902 198.719 348.617 199.171 347.359 C 197.16 346.538 195.359 347.524 193.424 347.969 C 193.065 344.193 195.457 340.281 197.377 337.045 C 200.002 334.706 204.384 328.749 208.073 330.488 C 205.665 331.736 204.089 334.27 202.309 336.413 C 201.343 339.366 199.912 343.653 202.731 346.074 C 203.138 346.981 204.71 347.627 204.85 346.175 C 203.867 343.98 203.893 341.479 205.143 339.386 C 206.189 336.388 208.646 333.54 211.482 332.099 C 212.459 331.633 213.743 331.51 214.423 330.792 C 215.348 329.815 216.852 330.429 217.647 329.211 C 217.885 328.846 219.019 329.123 219.719 328.983 C 220.485 328.817 221.187 328.174 221.988 328.107 C 229.251 327.788 236.518 327.61 242.799 331.795 C 244.064 332.509 246.064 332.955 246.931 334.067 C 247.171 335.436 248.68 334.833 249.342 335.87 C 254.929 341.058 261.349 346.54 263.219 354.28 C 264.535 357.84 264.195 362.416 266.914 365.12 C 267.574 366.161 267.482 367.779 268.286 368.695 C 269.458 370.421 269.94 375.177 267.931 375.938 C 267.358 376.154 266.406 376.401 265.942 375.449 C 263.547 374.494 261.552 372.925 259.737 371.178 C 258.057 370.711 257.422 369.127 256.207 368.211 C 247.369 359.774 241.955 341.527 226.709 345.661 C 225.999 345.959 224.346 346.453 224.19 345.313 C 226.85 342.933 231.177 344.162 234.449 344.223 C 236.825 344.354 238.845 346.472 241.274 347.063 C 244.024 348.405 246.351 350.361 248.875 351.979 C 249.784 353.233 251.548 353.311 252.417 354.727 C 252.834 355.406 253.912 355.667 254.665 356.157 C 256.585 357.278 257.466 359.536 259.758 360.142 C 260.028 360.913 261.747 361.419 260.848 360.071 C 258.515 357.878 256.522 355.281 253.603 353.842 C 250.773 351.028 247.037 348.925 243.597 346.83 C 241.733 344.926 239.154 343.718 236.967 342.196 C 236.69 341.923 235.612 342.137 235.371 341.892 C 234.364 340.011 232.177 341.884 230.915 340.287 C 230.239 339.612 226.565 340.21 225.867 340.94 C 221.209 340.953 217.197 344.995 218.065 349.758 C 221.219 349.55 224.383 351.738 227.221 350.547 C 232.616 347.393 237.344 349.454 241.325 353.879 C 244.741 357.934 247.245 363.019 251.228 366.846 C 254.379 369.424 255.726 370.498 255.106 374.83 C 255.106 374.848 254.482 374.971 254.264 374.845 C 251.663 371.429 247.482 370.359 243.586 371.159 C 242.732 371.135 241.852 372.073 240.985 372.574 C 239.785 373.012 238.852 373.627 238.026 374.584 C 236.406 375.6 234.638 375.954 233.162 377.347 C 231.409 379.759 233.02 380.23 235.381 380.05 C 237.928 379.827 239.218 377.068 241.38 375.893 C 245.578 371.047 253.881 374.063 256.16 379.368 C 257.477 381.579 256.742 384.351 258.637 386.242 C 259.476 387.469 258.156 388.624 257.767 389.779 C 256.855 391.279 257.026 393.114 257.066 394.801 C 257.336 400.391 255.974 406.083 255.042 411.29 C 253.603 415.045 255.071 419.518 251.383 422.178 C 249.929 424.277 247.524 424.961 245.211 426.065 C 245.173 425.271 245.146 424.681 245.117 424.089 C 246.285 423.839 246.402 423.5 245.526 421.986 C 245.366 422.889 245.256 423.505 245.147 424.12 L 245.148 424.128 Z  M 249.222 408.886 C 248.895 415.044 251.191 409.52 252.05 407.176 C 249.639 406.311 250.819 409.472 249.194 408.918 C 248.446 403.767 243.539 401.764 240.531 398.079 C 238.971 396.684 239.015 393.978 236.454 393.981 C 234.878 393.386 234.092 392.332 234.176 394.927 C 235.229 395.002 236.134 395.067 237.277 395.149 C 237.3 400.464 243.309 402.855 244.768 406.904 C 242.613 409.67 239.642 409.124 236.828 408.079 C 228.122 408.071 219.729 406.629 210.977 407.083 C 206.877 407.76 214.287 399.329 215.962 399.98 C 221.179 398.58 224.147 405.73 229.105 404.725 C 231.389 403.221 233.351 401.729 236.159 400.576 C 236.429 395.444 232.719 399.401 230.71 400.854 C 225.589 403.314 223.055 393.89 218.774 398.868 C 218.811 398.982 218.847 399.096 218.884 399.21 C 216.056 399.405 217.734 396.573 218.422 395.185 C 219.51 393.852 220.633 394.548 222.015 395.264 C 222.071 394.325 222.104 393.79 222.145 393.092 C 218.508 392.691 216.036 395.569 213.866 398.092 C 211.317 400.655 208.173 402.514 205.512 404.946 C 201.417 408.37 207.025 409.805 207.302 412.742 C 209.141 413.686 209.272 415.893 210.783 417.084 C 211.643 416.324 211.184 415.179 211.281 414.146 C 212.243 414.031 212.851 413.901 213.439 414.895 C 215.199 415.957 217.11 417.89 219.311 418.111 C 219.544 418.122 219.938 418.147 219.978 418.263 C 221.456 420.082 224.758 418.293 226.919 419.601 C 229.611 418.216 232.921 420.097 235.633 418.112 C 236.552 417.386 238.011 417.411 239.027 416.821 C 239.815 415.27 241.758 416.23 243.134 416.081 C 243.179 415.365 243.214 414.811 243.231 414.537 C 243.782 413.922 244.104 413.217 244.532 413.146 C 246.977 412.649 247.114 409.944 249.223 408.889 L 249.222 408.886 Z  M 237.363 384.848 C 237.157 385.323 237.089 385.839 236.875 385.91 C 235.455 386.586 236.338 388.014 237.636 387.946 C 242.296 387.69 246.649 389.159 251.363 389.014 C 253.389 387.69 247.674 384.994 246.334 384.868 C 243.59 382.668 240.387 385.213 237.364 384.847 L 237.363 384.848 Z  M 204.813 386.569 C 209.507 384.175 215.733 388.99 220.082 385.77 C 220.34 384.544 218.056 384.262 217.284 383.854 C 217.158 382.577 215.812 383.317 215.192 382.575 C 213.787 381.582 211.949 382.615 210.532 382.949 C 209.527 383.199 208.184 382.795 207.293 383.295 C 206.244 386.272 203.074 384.08 201.216 385.456 C 202.183 386.369 203.482 386.2 204.813 386.569 Z  M 245.176 338.666 C 243.354 337.777 241.993 336.402 240.577 335.844 C 239.989 334.466 238.133 335.55 237.719 334.153 C 235.711 334.426 232.912 333.531 231.281 334.504 C 231.524 335.08 232.27 335.049 232.784 334.988 C 235.676 334.764 237.996 336.47 240.796 337.052 C 240.908 337.06 241.1 337.115 241.113 337.177 C 241.32 338.313 242.519 337.802 243.106 338.299 C 243.476 339.701 244.232 338.87 245.176 338.667 L 245.176 338.666 Z  M 211.329 347.032 C 212.667 347.178 214.143 346.656 215.135 347.378 C 215.427 348.332 216.19 347.841 216.742 347.936 C 217.517 346.75 215.107 345.855 214.486 344.912 C 211.751 341.629 210.999 343.735 211.329 347.033 L 211.329 347.032 Z  M 223.362 422.384 C 223.357 422.497 223.353 422.61 223.348 422.724 C 225.883 422.832 230.885 424.051 232.309 421.617 C 229.649 420.575 226.128 421.92 223.362 422.385 L 223.362 422.384 Z  M 199.298 405.078 C 198.913 406.551 201.175 414.022 203.142 412.712 C 203.235 411.196 200.613 405.396 199.298 405.078 L 199.298 405.078 Z  M 231.182 384.473 C 231.468 386.18 230.412 387.344 232.844 388.947 C 233.185 388.245 233.317 386.998 232.9 386.419 C 231.339 384.573 233.025 382.029 231.685 380.13 C 230.792 381.483 231.29 382.579 231.182 384.473 L 231.182 384.473 Z  M 223.457 382.086 C 222.733 384.284 223.95 386.676 222.294 388.856 C 222.985 388.965 223.519 389.049 224.053 389.134 C 224.582 385.821 224.31 382.495 223.457 382.087 L 223.457 382.086 Z " fill="rgb(233,232,230)"/><path d=" M 98.168 443.974 C 101.211 444.344 102.876 441.316 105.986 440.865 C 114.153 438.558 122.959 438.021 131.25 439.776 C 132.847 440.138 134.475 439.797 135.833 440.928 C 138.597 441.71 144.312 442.545 144.385 446.126 C 147.66 455.083 141.468 464.127 139.211 472.558 C 135.816 481.818 133.606 491.546 133.2 501.418 C 132.696 502.695 129.801 502.108 128.887 501.327 C 128.526 500.977 127.665 501.142 127.033 501.073 C 126.081 501.082 125.396 500.967 124.708 500.219 C 121.828 499.504 118.85 498.929 116.533 497.15 C 97.444 489.964 87.166 470.938 75.375 455.845 C 73.491 452.832 71.179 449.47 68.952 446.613 C 66.82 443.061 69.225 439.223 71.856 436.906 C 72.846 435.436 73.913 433.95 75.109 432.638 C 75.168 431.319 76.192 430.63 76.907 429.711 C 78.359 427.406 78.926 424.487 81.044 422.62 C 89.272 404.831 103.242 390.613 113.766 374.614 C 115.363 371.927 117.114 369.55 119.752 367.778 C 122.174 366.535 124.491 365.113 125.361 362.168 C 126.617 357.228 126.629 352.112 128.871 347.61 C 129.133 342.31 131.938 339.025 137.534 340.16 C 139.278 340.897 140.903 343.325 143.108 341.399 C 145.467 339.283 149.732 339.392 152.17 341.332 C 153.877 343.319 159.325 345.906 159.292 348.667 C 162.423 351.719 157.926 355.049 155.51 357.223 C 154.933 353.89 155.517 351.233 154.091 348.034 C 153.413 348.154 152.894 348.245 152.631 348.291 C 153.21 349.795 152.785 351.165 153.821 352.375 C 154.22 352.684 154.581 353.664 153.582 354.139 C 152.984 355.846 151.721 356.949 150.551 358.192 C 149.543 359.661 148.47 358.907 147.188 358.942 C 147.088 356.755 147.639 354.668 146.003 353.082 C 144.72 351.853 143.386 349.642 141.314 350.3 C 143.914 352.751 146.062 355.005 145.171 358.7 C 143.011 360.243 140.416 362.008 137.887 360.433 C 137.194 359.949 136.759 359.546 137.878 358.812 C 138.759 358.028 139.095 356.323 140.069 355.453 C 140.39 353.334 137.989 352.789 136.248 353.073 L 136.248 357.053 L 134.381 357.053 C 134.429 356.958 134.477 356.864 134.526 356.769 C 133.914 356.297 133.302 355.825 132.43 355.152 C 132.472 355.829 132.35 356.394 132.542 356.537 C 133.413 357.185 133.033 358.152 133.315 358.923 C 134.187 360.974 135.36 362.512 135.891 364.799 C 133.988 366.502 132.331 370.017 129.383 370.225 C 127.82 371.827 124.964 371.144 123.417 370.21 C 123.321 370.741 123.225 371.272 123.164 371.609 C 129.286 374.004 123.906 374.13 123.09 377.598 C 118.746 387.15 113.088 395.707 107.119 404.416 C 104.427 408.468 101.919 412.945 99.286 417.182 C 98.849 419.855 96.387 421.917 96.345 424.822 C 97.829 425.464 97.659 422.207 99.019 421.724 C 99.511 420.03 100.914 418.547 101.85 417.002 C 103.477 414.148 104.916 412.047 106.918 409.547 C 108.224 407.09 110.41 405.475 111.724 403.056 C 114.411 408.248 113.128 415.391 111.024 420.427 C 109.865 421.631 110.547 423.313 109.29 424.329 C 107.859 428.082 106.523 431.949 104.459 435.446 C 104.097 436.047 104.324 436.904 103.259 437.225 C 102.433 437.474 101.849 438.435 101.058 438.916 C 99.049 440.75 97.746 441.153 98.169 443.97 L 98.168 443.974 Z  M 81.192 456.932 C 81.361 455.825 79.909 455.978 79.774 455.108 C 78.411 455.812 80.376 456.944 81.22 456.902 C 80.69 458.958 84.213 459.209 84.989 460.182 C 85.495 461.481 86.918 460.785 87.621 461.844 C 88.112 462.584 89.748 462.896 90.841 462.834 C 92.958 462.714 93.782 464.416 95.127 465.375 C 99.803 469.039 104.129 473.151 109.176 476.274 C 113.84 479.699 127.904 485.764 133.13 483.492 C 129.299 482.136 125.513 479.604 121.483 478.932 C 121.009 477.755 120.107 478.246 119.17 477.771 C 112.316 474.086 105.725 470.22 99.672 465.209 C 96.882 464.426 95.85 460.695 92.692 460.955 C 92.018 461.076 91.035 461.103 90.63 460.716 C 88.742 459.72 86.646 459.66 84.684 458.773 C 83.633 458.062 82.702 456.747 81.192 456.934 L 81.192 456.932 Z " fill="rgb(233,232,230)"/><path d=" M 187.584 444.397 C 187.784 444.107 188.107 443.639 188.539 443.013 C 189.94 442.688 192.535 443.838 193.399 442.274 C 193.422 442.19 193.68 442.17 193.829 442.123 C 198.075 441.418 200.523 438.453 203.94 436.225 C 204.957 439.466 206.387 442.504 207.187 445.758 C 207.195 446.36 207.075 447.068 207.881 447.358 C 208.719 449.881 208.819 452.7 210.4 454.992 L 212.266 454.992 C 212.697 447.101 208.333 440.316 207.259 432.862 C 211.468 434.661 211.85 440.539 214.787 443.896 C 215.034 442.914 215.498 441.955 214.544 441.048 C 214.347 440.86 214.302 440.491 214.232 440.194 C 214.035 439.364 214.257 438.512 213.383 437.756 C 212.923 437.359 213.21 436.097 213.16 435.24 C 218.9 434.911 216.476 460.377 220.928 459.821 C 223.538 454.271 221.557 447.392 222.149 441.339 C 222.14 438.966 222.079 438.966 224.387 438.935 C 228.195 437.569 225.454 448.889 226.056 451.383 C 224.727 454.69 225.446 458.342 225.283 461.96 L 226.992 461.96 C 227.838 459.618 228.052 456.554 229.366 454.542 C 230.583 453.526 229.57 451.651 231.066 450.887 C 231.398 450.338 230.764 449.027 231.895 448.961 C 232.762 446.969 233.371 444.76 234.864 443.024 C 235.93 441.798 235.976 439.156 237.319 438.175 C 238.979 437.511 238.561 434.18 240.811 435.303 C 240.546 435.98 240.474 436.749 240.052 437.13 C 238.78 438.279 239.224 440.015 238.435 441.4 C 237.843 442.439 236.727 443.687 237.1 445.246 C 236.666 445.637 235.731 448.876 237.072 447.552 C 239.488 442.408 243.261 437.331 246.364 432.311 C 246.951 431.792 248.405 431.894 248.045 433.109 C 247.198 434.405 247.411 435.908 247.064 437.289 C 246.341 440.459 243.739 443.888 244.488 447.125 C 254.324 436.598 246.2 440.264 257.728 443.091 C 258.992 443.183 262.098 442.369 262.181 444.204 C 262.14 445.181 262.513 446.282 261.422 447.048 C 261.175 447.222 261.244 447.855 261.18 448.278 C 261.01 449.403 261.543 450.676 260.406 451.607 C 259.89 457.76 259.681 464.405 257.955 470.398 C 257.152 472.655 256.995 475.398 255.979 477.269 C 254.941 478.183 255.66 479.699 254.421 480.467 C 251.444 487.777 245.768 495.365 237.649 497.144 C 233.195 499.968 227.106 500.106 221.73 500.1 C 217.793 499.854 213.551 500.856 209.978 499.119 C 205.613 499.05 201.667 495.764 198.351 493.252 C 194.454 489.093 192.346 483.804 190.975 478.536 C 187.063 467.379 188.916 455.931 187.583 444.398 L 187.584 444.397 Z " fill="rgb(233,232,230)"/><path d=" M 196.159 374.896 C 195.904 375.903 196.82 376.828 195.452 377.153 C 195.337 377.18 195.292 377.555 195.238 377.774 C 195.108 378.302 195.318 379.021 194.429 379.115 C 193.547 382.038 191.001 384.212 189.19 386.71 C 187.247 388.409 185.251 390.429 182.534 390.896 C 180.056 390.911 175.787 392.186 175.129 388.824 C 173.757 386.551 175.125 384.596 176.779 382.738 C 178.979 381.174 181.095 380 183.577 379.061 C 185.556 379.295 187.351 378.494 189.216 378.087 C 189.998 377.917 191.027 378.346 191.388 377.172 C 192.759 377.437 193.444 376.07 194.665 375.877 C 195.087 375.834 195.466 375.37 196.159 374.897 L 196.159 374.896 Z " fill="rgb(233,232,230)"/><path d=" M 194.239 387.136 C 193.771 390.982 192.606 394.617 189.376 396.984 C 188.242 397.61 188.008 398.484 188.795 399.72 C 185.909 404.628 180.499 403.874 178.406 398.835 C 177.853 398.098 178.694 396.454 177.464 395.879 C 177.147 395.733 177.217 394.747 177.08 393.97 C 182.722 394.304 188.364 392.788 192.105 388.455 C 192.742 387.905 193.121 386.871 194.27 387.167 C 194.27 387.168 194.24 387.137 194.24 387.137 L 194.239 387.136 Z " fill="rgb(233,232,230)"/><path d=" M 320.227 365.024 C 320.325 365.766 319.814 366.691 321.046 367.068 C 321.78 369.244 319.438 370.45 317.458 369.952 C 314.496 369.734 310.517 369.869 308.237 367.835 C 307.806 366.967 307.116 367.126 306.442 366.978 C 302.472 364.842 294.757 365.425 295.377 359.079 C 297.673 360.076 300.09 361.854 302.881 360.896 C 303.535 359.863 303.951 360.357 304.494 361.048 C 306.499 364.575 311.119 361.716 313.458 364.653 C 317.377 366.706 316.22 365.794 320.259 365.054 C 320.259 365.054 320.228 365.024 320.228 365.024 L 320.227 365.024 Z " fill="rgb(233,232,230)"/><path d=" M 267.616 390.033 C 265.748 387.272 262.48 385.264 261.065 382.487 C 259.784 381.876 260.59 380.283 259.498 379.686 C 258.904 378.418 259.632 376.591 258.437 375.417 C 258.09 374.915 258.398 373.62 259.166 374.322 C 260.451 375.932 262.669 376.212 264.032 377.81 C 265.553 379.62 267.625 378.475 269.454 378.291 C 272.335 379.071 270.987 382.555 271.232 384.836 C 270.66 386.479 269.128 389.133 267.615 390.033 L 267.616 390.033 Z " fill="rgb(233,232,230)"/><path d=" M 156.81 358.939 C 158.19 361.415 156.032 362.49 155.018 364.559 C 154.02 365.292 152.688 365.627 151.865 366.76 C 150.326 367.135 148.729 368.04 147.075 368.021 C 145.054 367.836 143.886 369.455 142.197 369.996 C 140.306 369.784 137.308 370.976 136.246 368.911 C 136.08 368.269 135.75 367.411 136.753 366.853 C 137.448 366.489 137.757 365.493 138.429 365.034 C 142.813 362.459 148.645 366.011 152.438 362.406 C 153.457 361.43 154.265 359.891 156.055 359.891 C 156.239 359.891 156.423 359.444 156.81 358.94 L 156.81 358.939 Z " fill="rgb(233,232,230)"/><path d=" M 261.747 388.323 C 265.116 391.758 267.731 391.968 264.792 397.104 C 262.83 396.807 263.022 394.742 262.039 393.578 C 260.491 391.963 261.76 389.916 260.424 388.316 C 260.916 388.216 261.408 388.117 261.901 388.017 C 261.849 388.119 261.798 388.221 261.746 388.323 L 261.747 388.323 Z " fill="rgb(233,232,230)"/><path d=" M 261.179 401.366 C 261.124 402.928 261.531 404.816 260.076 405.863 C 260 405.973 259.555 405.987 259.546 405.958 C 259.294 405.186 258.093 405.139 258.205 404.037 C 257.946 402.157 259.244 398.55 261.179 401.365 L 261.179 401.366 Z " fill="rgb(233,232,230)"/><path d=" M 191.812 403.799 C 189.917 403.005 190.096 401.502 190.127 400.029 C 190.151 398.877 191.017 399.097 191.661 399.07 C 194.078 398.795 193.299 402.923 191.812 403.799 Z " fill="rgb(233,232,230)"/><path d=" M 134.971 359.849 C 135.232 359.531 135.419 359.303 135.606 359.074 C 136.404 359.639 136.012 360.192 135.661 360.88 C 135.451 360.566 135.241 360.252 134.972 359.849 L 134.971 359.849 Z " fill="rgb(255,255,255)"/><path d=" M 321.232 480.08 C 321.232 479.656 321.201 479.301 321.237 479.294 C 322.167 479.115 322.448 478.001 323.588 477.909 C 324.726 477.813 325.742 476.646 326.875 476.215 C 328.167 475.77 329.769 475.655 330.667 474.8 C 331.503 474.005 332.998 474.585 333.332 473.218 C 336.725 472.582 339.429 469.988 342.765 468.893 C 346.567 466.208 350.173 463.089 353.952 460.194 C 355.412 459.868 354.717 461.585 357.211 461.055 C 360.869 461.351 364.234 460.434 367.488 458.993 C 370.226 457.68 372.614 455.469 375.076 453.683 C 376.571 452.163 377.853 449.334 380.105 449.109 C 376.984 456.067 369.427 460.805 362.061 462.062 C 359.525 463.361 356.131 462.118 354.24 464.338 C 345.191 473.011 333.756 478.715 321.232 480.081 L 321.232 480.08 Z " fill="rgb(0,0,0)"/><path d=" M 303.05 348.924 C 303.401 348.212 302.628 347.185 303.931 346.962 C 304.249 345.496 305.671 344.117 307.145 345.317 C 306.194 346.259 304.482 349.395 303.05 348.923 L 303.05 348.924 Z " fill="rgb(0,0,0)"/><path d=" M 341.113 387.098 C 342.16 387.35 342.317 387.836 341.507 389.154 C 341.356 388.301 341.248 387.687 341.14 387.072 C 341.14 387.072 341.113 387.099 341.113 387.099 L 341.113 387.098 Z " fill="rgb(0,0,0)"/><path d=" M 249.223 408.883 C 247.111 409.943 246.977 412.643 244.531 413.143 C 244.103 413.214 243.781 413.919 243.23 414.534 C 243.213 414.808 243.178 415.362 243.133 416.078 C 241.76 416.227 239.811 415.268 239.026 416.818 C 238.01 417.409 236.552 417.383 235.633 418.11 C 232.922 420.095 229.609 418.215 226.919 419.599 C 224.756 418.291 221.456 420.08 219.977 418.262 C 219.937 418.145 219.543 418.121 219.31 418.109 C 217.11 417.89 215.196 415.954 213.437 414.894 C 212.849 413.9 212.241 414.03 211.279 414.145 C 211.182 415.178 211.641 416.324 210.781 417.083 C 209.27 415.893 209.137 413.686 207.299 412.742 C 207.028 409.814 201.412 408.364 205.51 404.945 C 208.171 402.514 211.314 400.654 213.864 398.091 C 216.032 395.571 218.509 392.688 222.143 393.091 C 222.101 393.788 222.069 394.324 222.013 395.263 C 220.632 394.548 219.508 393.85 218.42 395.185 C 217.732 396.572 216.054 399.405 218.882 399.209 C 218.845 399.095 218.809 398.981 218.772 398.867 C 223.05 393.889 225.591 403.314 230.708 400.853 C 232.754 399.434 236.375 395.362 236.157 400.576 C 233.349 401.729 231.388 403.22 229.103 404.724 C 224.146 405.729 221.175 398.579 215.96 399.98 C 214.212 399.355 206.922 407.752 210.974 407.082 C 219.727 406.629 228.119 408.071 236.826 408.08 C 239.504 409.131 242.763 409.616 244.764 406.904 C 243.31 402.839 237.334 400.54 237.275 395.149 C 236.132 395.067 235.227 395.002 234.174 394.927 C 234.101 392.35 234.853 393.368 236.452 393.982 C 239.013 393.979 238.968 396.685 240.529 398.08 C 243.536 401.764 248.445 403.769 249.192 408.919 C 249.192 408.919 249.222 408.884 249.222 408.884 L 249.223 408.883 Z  M 212.286 410.697 C 213.505 411.177 214.781 411.817 215.991 412.19 C 216.42 413.39 217.485 412.911 218.302 413.084 C 219.08 413.119 219.733 413.834 220.415 413.949 C 226.418 413.602 233.053 415.352 238.13 411.846 C 232.469 408.876 224.153 410.758 217.672 409.751 C 215.669 408.471 214.028 409.563 212.286 410.697 L 212.286 410.697 Z  M 233.228 416.648 C 231.855 415.862 221.3 415.881 220.275 416.664 C 224.599 418.205 229.014 418.91 233.228 416.648 Z " fill="rgb(0,0,0)"/><path d=" M 199.29 376.047 C 200.195 376.208 200.139 375.519 200.17 374.99 C 201.083 370.367 206.32 368.339 210.649 369.158 C 214.793 369.652 218.378 372.437 221.133 375.405 C 222.405 376.779 223.827 375.669 225.109 374.952 L 225.109 377.982 C 220.248 379.163 217.14 376.163 213.846 373.095 C 209.111 370.872 203.318 372.17 201.091 377.05 C 200.413 376.792 199.182 377.718 199.323 376.012 C 199.324 376.011 199.29 376.047 199.29 376.047 L 199.29 376.047 Z " fill="rgb(0,0,0)"/><path d=" M 237.363 384.848 C 240.385 385.214 243.591 382.669 246.333 384.868 C 247.687 384.998 253.38 387.687 251.362 389.013 C 246.65 389.159 242.293 387.69 237.635 387.947 C 236.337 388.013 235.454 386.585 236.874 385.909 C 237.089 385.838 237.156 385.322 237.362 384.847 L 237.363 384.848 Z " fill="rgb(0,0,0)"/><path d=" M 204.813 386.568 C 203.482 386.2 202.183 386.369 201.216 385.455 C 203.073 384.079 206.244 386.271 207.293 383.294 C 208.185 382.794 209.526 383.198 210.532 382.947 C 211.945 382.614 213.791 381.579 215.192 382.574 C 215.813 383.315 217.157 382.574 217.284 383.852 C 218.06 384.26 220.337 384.541 220.082 385.767 C 215.735 388.988 209.504 384.173 204.813 386.567 L 204.813 386.568 Z " fill="rgb(0,0,0)"/><path d=" M 245.176 338.665 C 244.232 338.867 243.476 339.698 243.106 338.297 C 243.081 338.203 242.848 338.144 242.702 338.106 C 242.085 337.945 241.299 338.089 241.113 337.175 C 241.1 337.113 240.908 337.058 240.796 337.051 C 237.997 336.469 235.676 334.763 232.784 334.987 C 232.269 335.049 231.525 335.079 231.282 334.504 C 232.913 333.53 235.711 334.426 237.72 334.152 C 238.134 335.549 239.99 334.466 240.578 335.843 C 241.997 336.403 243.351 337.774 245.177 338.666 L 245.176 338.665 Z " fill="rgb(0,0,0)"/><path d=" M 211.328 347.031 C 211 343.733 211.749 341.627 214.485 344.911 C 215.108 345.854 217.515 346.748 216.742 347.935 C 216.189 347.841 215.427 348.332 215.134 347.378 C 214.141 346.656 212.667 347.177 211.328 347.032 L 211.328 347.031 Z " fill="rgb(0,0,0)"/><path d=" M 223.361 422.383 C 226.128 421.919 229.646 420.574 232.308 421.615 C 230.891 424.047 225.879 422.832 223.347 422.722 C 223.352 422.609 223.356 422.496 223.361 422.382 L 223.361 422.383 Z " fill="rgb(0,0,0)"/><path d=" M 199.298 405.077 C 200.602 405.378 203.236 411.193 203.143 412.71 C 201.179 414.021 198.914 406.566 199.298 405.077 Z " fill="rgb(0,0,0)"/><path d=" M 231.182 384.472 C 231.29 382.578 230.792 381.482 231.685 380.129 C 233.024 382.028 231.339 384.571 232.899 386.418 C 233.316 386.999 233.184 388.242 232.843 388.946 C 230.41 387.343 231.468 386.175 231.181 384.472 L 231.182 384.472 Z " fill="rgb(0,0,0)"/><path d=" M 223.456 382.085 C 224.31 382.493 224.581 385.819 224.052 389.132 C 223.518 389.048 222.984 388.963 222.293 388.854 C 223.949 386.674 222.732 384.282 223.456 382.084 L 223.456 382.085 Z " fill="rgb(0,0,0)"/><path d=" M 249.193 408.918 C 250.815 409.474 249.643 406.309 252.049 407.176 C 251.188 409.527 248.893 415.038 249.222 408.884 C 249.222 408.883 249.192 408.918 249.192 408.918 L 249.193 408.918 Z " fill="rgb(0,0,0)"/><path d=" M 245.148 424.127 C 245.257 423.511 245.367 422.895 245.527 421.993 C 246.403 423.507 246.286 423.845 245.118 424.096 C 245.118 424.096 245.148 424.128 245.148 424.128 L 245.148 424.127 Z " fill="rgb(0,0,0)"/><path d=" M 81.193 456.93 C 82.692 456.74 83.64 458.063 84.684 458.771 C 86.648 459.658 88.744 459.719 90.631 460.713 C 91.036 461.101 92.019 461.073 92.693 460.953 C 95.85 460.692 96.884 464.425 99.673 465.207 C 105.727 470.219 112.316 474.083 119.171 477.768 C 120.097 478.236 121.021 477.761 121.483 478.93 C 125.515 479.602 129.299 482.132 133.13 483.489 C 127.984 485.778 113.781 479.678 109.176 476.271 C 104.129 473.149 99.802 469.036 95.127 465.372 C 93.782 464.413 92.958 462.711 90.841 462.831 C 89.749 462.893 88.113 462.581 87.621 461.841 C 86.918 460.782 85.495 461.478 84.989 460.179 C 84.204 459.198 80.702 458.966 81.22 456.899 L 81.193 456.928 L 81.193 456.93 Z " fill="rgb(0,0,0)"/><path d=" M 81.22 456.901 C 80.376 456.943 78.411 455.811 79.774 455.107 C 79.91 455.977 81.361 455.825 81.193 456.93 C 81.193 456.93 81.22 456.9 81.22 456.9 L 81.22 456.901 Z " fill="rgb(0,0,0)"/><path d=" M 212.286 410.697 C 214.028 409.562 215.67 408.47 217.672 409.751 C 224.15 410.757 232.473 408.875 238.131 411.845 C 233.054 415.35 226.418 413.601 220.416 413.948 C 219.734 413.833 219.08 413.118 218.303 413.083 C 217.486 412.91 216.421 413.389 215.992 412.189 C 214.782 411.816 213.506 411.176 212.287 410.696 L 212.286 410.697 Z " fill="rgb(233,232,230)"/><path d=" M 233.228 416.648 C 229.014 418.91 224.599 418.205 220.275 416.664 C 221.299 415.88 231.855 415.862 233.228 416.648 Z " fill="rgb(233,232,230)"/></g></svg>