<?xml version="1.0" encoding="UTF-8"?>
<svg id="Ebene_1"
    xmlns="http://www.w3.org/2000/svg" viewBox="0 0 28.35 28.35">
    <path fill="#3139f9" d="m14.17,28.35c7.83,0,14.17-6.35,14.17-14.17S22,0,14.17,0,0,6.35,0,14.17s6.35,14.17,14.17,14.17"/>
    <path fill="#ffffff" d="m7.9,13.76c-.11-.19-.24-.37-.39-.53-.46-.49-1.16-1-1.85-1.02.07.13.31.21.43.29.4.25.8.51,1.16.82.16.14.62.6.86.92,0,0,0,0,0,0,0,0,0,0,0,0,0,0,0,0,0,0-.08-.27-.14-.36-.21-.49Z"/>
    <path fill="#3139f9" d="m7.9,13.76c-.11-.19-.24-.37-.39-.53-.46-.49-1.16-1-1.85-1.02.07.13.31.21.43.29.4.25.8.51,1.16.82.16.14.62.6.86.92,0,0,0,0,0,0,0,0,0,0,0,0,0,0,0,0,0,0-.08-.27-.14-.36-.21-.49Z"/>
    <path fill="#ffffff" d="m8.09,14.24c-.37.35-.76.7-1.1,1.07-.09.09-.27.27-.28.41,0,0,0,0,0,.01.3-.04.62-.39.81-.61.23-.27.42-.57.6-.87,0,0,0,0,0-.01,0,0,0,0,0,0,0,0-.01,0-.01,0Z"/>
    <path fill="#3139f9" d="m8.09,14.24c-.37.35-.76.7-1.1,1.07-.09.09-.27.27-.28.41,0,0,0,0,0,.01.3-.04.62-.39.81-.61.23-.27.42-.57.6-.87,0,0,0,0,0-.01,0,0,0,0,0,0,0,0-.01,0-.01,0Z"/>
    <path fill="#fab7fc" d="m23.7,10.26c.06.26.1.51.14.75l.6-.1c-.06-.33-.13-.69-.21-1.06l-.06-.28-.28.04s-.68.1-1.1.27l.22.57c.2-.08.48-.14.69-.18Z"/>
    <path fill="#fab7fc" d="m22.15,10.93l-.36-.5c-.42.3-.81.67-1.14,1.08l.47.38c.29-.36.65-.7,1.02-.96Z"/>
    <path fill="#fab7fc" d="m16.62,18.33l.26.55c.67-.32,1.32-.78,1.87-1.32l-.43-.44c-.51.49-1.1.91-1.71,1.21Z"/>
    <path fill="#fab7fc" d="m14.32,18.88h-.01c-.39,0-.78-.05-1.16-.14l-.14.59c.43.11.87.16,1.3.16.31.02.67-.03,1-.09l-.11-.6c-.29.05-.59.08-.89.08Z"/>
    <path fill="#fab7fc" d="m10.82,17.57l6.63-6.63c.26.2.52.44.78.71l.45-.43c-.29-.3-.58-.55-.89-.79-.01,0-.17-.14-.44-.28-.91-.58-1.97-.99-3.12-.99-2.87,0-5.25,2.42-5.93,4.19-.54-1.71-2.4-3.04-4.15-3.48.77,2.57-1.38,3.08-.02,9.1,0,0,.72-.11,1.13-.28,1.29-.54,2.64-1.9,3.05-3.44.25.67.72,1.39,1.36,2.03h0c.2.25.61.68.88.84h0c.29.23.6.43.92.61l.29-.53c-.29-.16-.58-.35-.84-.55l-.1-.08Zm-2.71-3.31c-.18.3-.37.6-.6.87-.19.22-.5.57-.81.61,0,0,0,0,0-.01.02-.14.19-.32.28-.41.35-.37.73-.72,1.1-1.07,0,0,0,0,.01,0-.24-.32-.7-.78-.86-.92-.36-.31-.76-.57-1.16-.82-.12-.08-.36-.16-.43-.29.7.01,1.4.52,1.85,1.02.15.16.28.34.39.53.07.13.13.22.21.49,0,0,0,0,0,0,0,0,0,0,0,.01Z"/>
    <path fill="#fab7fc" d="m20.81,17.06c.32.32.68.62,1.09.88l.33-.51c-.37-.23-.7-.5-.98-.79l-.44.43Z"/>
    <path fill="#fab7fc" d="m24.05,17.44h-.61c0,.2.02.4.05.61-.16-.06-.31-.12-.47-.19l-.25.56c.35.16.71.28,1.06.37l.52.13-.15-.51c-.1-.34-.15-.65-.15-.96Z"/>
    <path fill="#fab7fc" d="m24.66,12.86l-.61.02c0,.15,0,.29,0,.43,0,.94-.13,1.62-.26,2.16l.59.14c.14-.58.28-1.31.28-2.3,0-.15,0-.3-.01-.46Z"/>
    <polygon fill="#ffffff" points="8.11 14.24 8.11 14.24 8.11 14.24 8.11 14.24"/>
    <polygon fill="#ffffff" points="20.35 14.24 20.36 14.24 20.35 14.24 20.35 14.24"/>
    <path fill="#fab7fc" d="m19.71,12.48l-.51.33c.21.32.36.62.46.88l.11.31c.02.1.03.2.03.3,0,.24-.02.42-.04.55l-.06.2c-.09.29-.23.59-.42.9l.52.32c.07-.11.13-.22.18-.32,0,0,0,0,0,0,.25-.51.37-1.06.37-1.71,0-.49-.28-1.1-.52-1.55-.04-.07-.08-.14-.13-.21Z"/>
</svg>